<svg xmlns="http://www.w3.org/2000/svg" viewBox="96.1 99.4 56.4 56.4"><title xml:lang="en">AT&amp;T</title><radialGradient id="a" cx="-373.844" cy="526.149" r=".149" fx="-373.794" fy="526.125" gradientTransform="matrix(226.9922 0 0 -200.267 84983.867 105498.46)" gradientUnits="userSpaceOnUse"><stop offset="0" stop-color="#32A5DD"/><stop offset=".7" stop-color="#32A5DD"/><stop offset="1" stop-color="#2277A0"/></radialGradient><path fill="url(#a)" d="M152 123.2c0-.5-.1-1.4-.3-2.3-.1-.6-.3-1.2-.5-1.9.3 1.1.3 2 .3 2.3 0 1.4-1.7 10-18.8 11.5-1.5.1-12.3.3-21.8-2.1-6.3-1.6-12.6-4.7-13.8-8.9-.2-.7-.1-1.3 0-1.9-.5 1.7-.8 3.5-1 5.3.1 4.5 4 9.7 11.1 12 8.2 2.6 13.2 2.7 25 0 20-4.4 19.8-13.1 19.8-14zM108 147c-4.7-1.9-7.9-5.1-9.2-7.5 1.2 2.5 2.8 4.9 4.6 6.9 6.1 5.7 15.4 6.4 19.7 6.4 18.2 0 24.7-9.6 26.1-12.1.3-.5.5-1 .8-1.6-2.9 6-17.8 18-42 7.9zm19.7-3.7c-5.5.2-15.2-1.7-21.3-4.2-4.9-2-9.8-5.9-10.3-9.6.1.9.2 1.8.3 2.6 3 16.4 23.7 15.5 27.3 15.1 26-2.9 28.2-14 28.6-16.2 0-.5.1-.9.1-1.4-.4 3-4.8 13-24.7 13.7m-23.5-33.2c0 2.6 3.7 6.7 14.6 6.7 6.4 0 11.6-1.2 15.5-2.5 6.3-2.1 9.4-4.6 9.3-6.5 0-.3-.1-.8-.5-1.2-1.4-1.3-2.9-2.4-4.5-3.3 1.1.6 1.7 1.4 1.7 2.2 0 2.8-6.9 5.4-16 5.7-9 .2-16.5-2-16.7-4.8-.1-.9.6-1.9 1.9-2.7-1 .6-1.9 1.3-2.8 2-2.5 1.9-2.5 4.1-2.5 4.4zm-5.8 8c0-1.2.2-2.1.5-2.8.6-1.1 1.2-2.2 1.9-3.2-.2.3-.3.6-.3 1 0 2.6 6.4 6 15.2 7.1 3 .4 10.8 1.5 16.9 1 12.3-1 15-5.3 15-8.1 0-.8-.4-1.9-.8-2.5.6.7 1.1 1.5 1.6 2.3.9 1.6.8 2.3.8 2.6 0 5.7-10.6 9.4-17.7 11.4-18.2 4.9-33.1-1.9-33.1-8.8z"/><radialGradient id="b" cx="-373.827" cy="526.115" r=".149" fx="-373.777" fy="526.09" gradientTransform="matrix(225.1525 0 0 -195.31 84292.125 102883.625)" gradientUnits="userSpaceOnUse"><stop offset="0" stop-color="#0096D6"/><stop offset=".7" stop-color="#0096D6"/><stop offset="1" stop-color="#006C9B"/></radialGradient><path fill="url(#b)" d="M96.4 130.3c-.1-.3-.1-.5-.2-.8 0 .7.1 1.4.2 2.1-.1-.5-.1-.9 0-1.3zm.7-10.3c-.2.6-.3 1.3-.5 1.9.1-.3.2-.5.3-.8.1-.4.2-.8.2-1.1zm1.7 19.6c.7 1.4 1.4 2.7 2.3 4-.5-.7-.8-1.5-1.2-2.3-.5-.6-.8-1.2-1.1-1.7zm3.5-23.9c-.4-.3-.7-.5-.9-.8-1.2.8-2.2 1.7-3 2.7v.5c0 .3 0 .6.1.9.9-1 2.2-2.2 3.8-3.3zm44.7-.2c.8.4 1.4.8 2.1 1.3.1-.4.2-.9.2-1.3 0-.3.1-.9-.8-2.5-.5-.8-1-1.6-1.6-2.3.4.6.8 1.7.8 2.5-.1.6-.3 1.4-.7 2.3zm-46.3-3.4c-.1.1-.2.2-.2.4l.1-.2c.1-.1.1-.2.1-.2zm39.5-7c1.1.5 2.2 1 3.1 1.7l-.2-.2c-.9-.8-1.9-1.6-2.9-2.3-.3-.2-.5-.3-.8-.4.5.3.7.7.8 1.2zm5.2 39.4l-.3 1.2c2.3-2.1 3.6-4 4.1-4.9l.1-.1v-.2c-.9 1.2-2.2 2.7-3.9 4zm-34.1 0c0-1.2.3-2.4.8-3.5l-2.1-.6c-.5 1.2-.8 2.4-.8 3.7 0 .6.1 1.2.2 1.7l2.1.6c-.1-.6-.2-1.2-.2-1.9zm40.4-23.6c-.1-.3-.1-.5-.2-.8 0-.1-.1-.2-.1-.3.1.7.1 1.2.1 1.4 0 .5-.2 1.7-1 3.2.4.5.7.9 1 1.4.5-1.4.5-2.4.5-2.7 0-.4-.1-1.3-.3-2.2zm0 11c-.3.6-.6 1.2-1.1 1.9.1.4.2.8.2 1.2.5-.8.8-1.5 1-2.2 0-.3 0-.6-.1-.9zm-3 6c-.2-.4-.3-.8-.5-1.2-.9.8-2 1.6-3.3 2.4.2.5.4 1 .5 1.6 1.3-1 2.4-1.9 3.3-2.8zm-42.4-24.3c3-1.4 6.6-2.4 10.9-2.9-1.5-.2-2.8-.4-4-.8-2.8.8-5.5 1.7-7.8 2.8.2.3.5.6.9.9zm-7.2 23.5c0-.8.1-1.6.3-2.4-.4-.4-.8-.8-1.1-1.2-.3 1.1-.3 2.3-.2 3.4.4.7.8 1.4 1.2 2-.1-.5-.2-1.2-.2-1.8zm-1-13.3c-.7 1-1.3 2.1-1.6 3.3.1.4.2.7.3 1.1.4-1.2 1.1-2.4 2.1-3.5-.3-.3-.6-.6-.8-.9m9.7-16.8c-1.3.5-2.4 1.1-3.4 1.6-.2.5-.2.9-.2 1.2 1.2-.6 2.7-1.3 4.4-1.9-.3-.3-.6-.6-.8-.9zm35.7 1.6c-1.3-.5-2.8-.8-4.6-1-2 1.5-6.1 2.8-11.1 3.3 3.2.3 7.1.9 10.7 1.7 2.8-1.4 4.5-2.8 5-4zm-5.1 33.1c.3.7.4 1.4.5 2.1.8-.3 1.6-.6 2.3-1-.1-.7-.3-1.3-.5-1.9-.7.3-1.4.6-2.3.8zm-2.5 9.3c1.3-.5 2.5-1 3.6-1.5.4-.6.8-1.2 1.1-1.9-.9.5-1.9.9-2.9 1.3-.5.7-1.1 1.4-1.8 2.1zm-32.8-6.8c.2 1 .6 2 1.1 3 1 .8 2.1 1.5 3.2 2.2-.8-1.1-1.4-2.3-1.8-3.5-.9-.5-1.8-1.1-2.5-1.7zm43.7-15.8c.7.6 1.2 1.1 1.7 1.7.7-.7 1.3-1.3 1.7-1.9-.3-.6-.7-1.1-1.2-1.7-.5.6-1.3 1.2-2.2 1.9zm-46.9 4.5c.7-1.8 1.8-3.5 3.4-5-.5-.3-1-.5-1.5-.8-1.3 1.4-2.3 3-3 4.6.4.4.7.8 1.1 1.2zm51.4-13.5c0-.1-.1-.2-.1-.3.1.1.1.2.1.3zm-38.8 29.3c-.8-.2-1.6-.5-2.4-.8.6 1.4 1.6 2.6 2.9 3.7 1 .3 2.1.5 3.1.7-1.6-1-2.8-2.2-3.6-3.6zm7.9-27.9c-2-.2-3.7-.4-4.7-.6-.7-.1-1.4-.2-2-.3-3.8 1.2-7.1 3-9.7 5.2.5.3 1.1.6 1.7.8 3.7-2.7 8.9-4.6 14.7-5.1m-15.3 22c0-1.3.2-2.7.7-3.9-.8-.3-1.5-.7-2.3-1.1-.5 1.3-.7 2.7-.7 4v.8c.7.6 1.5 1.1 2.4 1.5-.1-.5-.1-.9-.1-1.3zm7.9-11.6c-.7-.1-1.4-.3-2.1-.5-.4-.1-.9-.2-1.3-.4-2.3 1.6-4.1 3.5-5.3 5.6.7.4 1.5.7 2.3 1 .7-1.2 1.6-2.3 2.7-3.3 1.1-.9 2.3-1.7 3.7-2.4zm-7.1-13.5c-2.2 1.1-4.4 2.4-6.1 4.1.3.3.6.7.9 1 1.9-1.7 4.3-3.2 6.9-4.4-.5-.2-1.1-.4-1.7-.7zm36.9 12.8c-1.3.5-2.7 1-4.3 1.3 1.2.7 2.3 1.5 3.2 2.4 1.3-.6 2.5-1.2 3.5-1.8-.7-.6-1.5-1.2-2.4-1.9zm-3.3-6.4c1.5-.6 2.9-1.3 4.2-2-1.4-.7-2.9-1.4-4.7-1.9-1.8.4-3.9.8-6.4 1-.7.1-1.5.1-2.3.1 1.7.3 3.4.8 5 1.3 1.5.5 2.9 1 4.2 1.5zm6.2-3.3c1.4-1.1 2.5-2.2 3.1-3.5-.7-.4-1.5-.8-2.3-1.2-.8 1.1-2.2 2.1-4.3 3 1.2.6 2.4 1.1 3.5 1.7zm-16 12.1c-1.8 0-4.2-.1-7-.3-4.9.6-9 2.7-11.4 5.8.8.2 1.6.3 2.3.5 2.5-2.7 6.7-4.5 11.5-4.5 3.5 0 6.7 1 9.1 2.5.9-.2 1.8-.5 2.7-.7-1.9-1.6-4.4-2.8-7.2-3.3zm-.5-17.2c1.9-.4 3.7-.9 5.2-1.4.8-.3 1.6-.6 2.3-.9-2.2-.4-4.1-.7-5.4-.8-4.9-.5-12.2.9-14.1 1.3-.6.1-3.3.7-6.5 1.8.8.2 1.6.4 2.5.6 3-.8 6-1.3 8.9-1.3 1.9.1 4.4.3 7.1.7zm2.3 11.1c.5-.1 1-.3 1.5-.4-2.2-.5-4.5-.7-6.9-.7-4.6 0-8.8.9-12.4 2.5 5.1.6 11.2.4 17.8-1.4z"/><radialGradient id="c" cx="-373.848" cy="526.305" r=".149" fx="-373.798" fy="526.28" gradientTransform="matrix(227.537 0 0 -227.5688 85188.5 119898.133)" gradientUnits="userSpaceOnUse"><stop offset="0" stop-color="#FFF"/><stop offset=".55" stop-color="#FFF"/><stop offset="1" stop-color="#B1B4B6"/></radialGradient><path fill="url(#c)" d="M97.2 119.9c.4-1.6 1-3.2 1.8-4.6-.3.8-.5 1.6-.5 2.8 0 6.9 14.9 13.7 33.1 8.7 7.1-1.9 17.7-5.7 17.7-11.4 0-.3.1-.9-.8-2.6 1.2 1.9 2.1 4 2.8 6.2.3 1.1.3 2 .3 2.3 0 1.4-1.7 10-18.8 11.5-1.5.1-12.3.3-21.8-2.1-6.3-1.6-12.6-4.7-13.8-8.9-.3-.7-.2-1.3 0-1.9zm26.5 27.3c-3.6.4-24.2 1.3-27.3-15.1.4 2.6 1.2 5.1 2.3 7.4 1.3 2.3 4.5 5.6 9.2 7.5 24.3 10 39.2-1.9 42.1-7.8 1.2-2.6 1.9-5.3 2.3-8.2-.3 2.2-2.6 13.3-28.6 16.2zm-.6 5.7c-4.3 0-13.6-.7-19.7-6.4 5.2 5.7 12.6 9.3 20.9 9.3 10.8 0 20.2-6.1 24.9-15-1.4 2.5-7.9 12.1-26.1 12.1zm-16.6-13.8c6.1 2.5 15.8 4.4 21.3 4.2 19.8-.7 24.2-10.7 24.7-13.7 0-.7.1-1.4.1-2.1 0-2.3-.3-4.5-.8-6.7.2.9.3 1.8.3 2.3 0 1 .2 9.6-19.6 14-11.9 2.6-16.9 2.6-25 0-7.1-2.3-11-7.5-11.1-12-.1.8-.1 1.6-.1 2.3 0 .6 0 1.3.1 1.9.3 3.9 5.1 7.8 10.1 9.8zm9.2-18.9c3 .4 10.8 1.5 16.9 1 12.3-1 15-5.3 15-8.1 0-.8-.4-1.9-.8-2.5-1.1-1.4-2.3-2.8-3.7-4 .3.4.5.9.5 1.2.1 1.9-3 4.5-9.3 6.5-3.9 1.3-9.1 2.5-15.5 2.5-10.8 0-14.6-4.1-14.6-6.7 0-.3-.1-2.5 2.5-4.6-2.3 1.8-4.3 4-5.9 6.5-.2.3-.3.6-.3 1 0 2.7 6.4 6.1 15.2 7.2zm-8.1-14c.2 2.8 7.7 5 16.7 4.8 9-.2 16-2.8 16-5.7 0-.8-.6-1.5-1.7-2.2-4.2-2.5-9.1-3.9-14.3-3.9-5.4 0-10.5 1.5-14.8 4.2-1.3 1-2 1.9-1.9 2.8z"/></svg>