<?xml version="1.0" encoding="utf-8"?>
<!-- Generator: Adobe Illustrator 18.0.0, SVG Export Plug-In . SVG Version: 6.00 Build 0)  -->
<!DOCTYPE svg PUBLIC "-//W3C//DTD SVG 1.1//EN" "http://www.w3.org/Graphics/SVG/1.1/DTD/svg11.dtd">
<svg version="1.1" id="Layer_1" xmlns="http://www.w3.org/2000/svg" xmlns:xlink="http://www.w3.org/1999/xlink" x="0px" y="0px"
	 viewBox="532 3.8 100.3 119.4" enable-background="new 532 3.8 100.3 119.4" xml:space="preserve">
<g>
	<path fill="#F9A21C" d="M613.7,9h-3.6V8.4c0-0.1-0.3-0.5-0.7-0.5h-7.9c-0.5,0-0.7,0.1-0.7,0.5V9h-50c-3.1,0-5.7,3-5.7,6.7v7.3h-0.6
		c-0.3,0-0.5,0.3-0.5,0.6v8.9c0,0.3,0.1,0.6,0.5,0.6h0.6v2.8h-0.6c-0.3,0-0.5,0.3-0.5,0.6v8.9c0,0.3,0.1,0.6,0.5,0.6h0.6v70.5
		c0,3.7,2.5,6.7,5.7,6.7h63c3.1,0,5.7-3.1,5.7-6.7V15.7C619.4,12,616.9,9,613.7,9z"/>
	<path fill="#F29821" d="M619.4,31.5v84.9c0,3.7-2.5,6.7-5.7,6.7h-63c-3.1,0-5.7-3-5.7-6.7V81.9"/>
	<path fill="#F2F2F2" d="M606.9,109.5h-49.5c-2.5,0-4.5-2.2-4.5-5.2V22.1c0-2.8,1.9-5.2,4.5-5.2h49.5c2.5,0,4.5,2.2,4.5,5.2v82.3
		C611.4,107.3,609.3,109.5,606.9,109.5z"/>
	<g>
		
			<polyline fill="none" stroke="#C1C1C1" stroke-width="0.25" stroke-linecap="round" stroke-linejoin="round" stroke-miterlimit="10" points="
			553.4,46.4 560.4,40.2 561.8,51.4 563.7,48.8 563.7,46.3 571,44.5 574.1,49.6 585.1,45.7 585.1,41.6 592.5,38.8 591.5,42.4 
			596.2,43.9 598.2,50 604.7,53.8 608.5,53.8 608.5,61.4 610.9,62.3 611.1,67.7 		"/>
		
			<polyline fill="none" stroke="#C1C1C1" stroke-width="0.25" stroke-linecap="round" stroke-linejoin="round" stroke-miterlimit="10" points="
			589.5,39.9 593.7,30.4 591.6,27.9 597.4,26.4 604.7,25.1 601.3,19.5 607.2,17.4 		"/>
	</g>
	<g>
		<rect x="568.5" y="37.1" fill="#231F20" width="2.7" height="3.3"/>
		<rect x="568.5" y="43.4" fill="#231F20" width="2.7" height="3.3"/>
		<rect x="571.1" y="40.3" fill="#231F20" width="2.7" height="3.3"/>
		<rect x="573.9" y="37.1" fill="#231F20" width="2.7" height="3.3"/>
		<rect x="573.9" y="43.4" fill="#231F20" width="2.7" height="3.3"/>
		<rect x="588.6" y="37.1" fill="#231F20" width="2.7" height="3.3"/>
		<rect x="588.6" y="43.4" fill="#231F20" width="2.7" height="3.3"/>
		<rect x="591.5" y="40.3" fill="#231F20" width="2.7" height="3.3"/>
		<rect x="594.2" y="37.1" fill="#231F20" width="2.7" height="3.3"/>
		<rect x="594.2" y="43.4" fill="#231F20" width="2.7" height="3.3"/>
		<rect x="578.4" y="61.7" fill="#231F20" width="2.7" height="3.3"/>
		<rect x="581.3" y="61.7" fill="#231F20" width="2.7" height="3.3"/>
		<rect x="583.9" y="61.7" fill="#231F20" width="2.7" height="3.3"/>
	</g>
	<g>
		
			<polyline fill="none" stroke="#C1C1C1" stroke-width="0.25" stroke-linecap="round" stroke-linejoin="round" stroke-miterlimit="10" points="
			564.3,75.1 568.1,78.6 569.3,79.7 566.3,83.8 569.8,88.2 572.6,90 568.3,93.5 570.7,95.3 572.7,94.4 572.7,100.9 572.7,103.9 
			575.6,106.7 		"/>
		
			<line fill="none" stroke="#C1C1C1" stroke-width="0.25" stroke-linecap="round" stroke-linejoin="round" stroke-miterlimit="10" x1="571.7" y1="75.7" x2="568.1" y2="78.6"/>
		
			<path fill="none" stroke="#C1C1C1" stroke-width="0.25" stroke-linecap="round" stroke-linejoin="round" stroke-miterlimit="10" d="
			M565.9,102.7l6.7-1.8L565.9,102.7z"/>
		
			<line fill="none" stroke="#C1C1C1" stroke-width="0.25" stroke-linecap="round" stroke-linejoin="round" stroke-miterlimit="10" x1="565.5" y1="105.7" x2="565.9" y2="102.7"/>
	</g>
	
		<polyline fill="none" stroke="#C1C1C1" stroke-width="0.25" stroke-linecap="round" stroke-linejoin="round" stroke-miterlimit="10" points="
		585.5,80.9 589,78.6 590.7,77.1 593.6,80 594.3,77.8 594.4,81.8 597.4,76.5 597.7,81.5 598.4,84 	"/>
	
		<polyline fill="none" stroke="#C1C1C1" stroke-width="0.25" stroke-linecap="round" stroke-linejoin="round" stroke-miterlimit="10" points="
		611.2,82.5 610,79.8 608.1,79.6 606.1,77.1 604.7,78.5 603.2,77.2 601.9,76.5 601.9,76.5 	"/>
	<g>
		<path fill="#E2BC78" d="M622.5,84H542c-5.7,0-10,6.1-10,13.4c0,7.5,4.6,13.4,10,13.4h80.5c5.5,0,9.8-6.1,9.8-13.4
			C632.6,90,628,84,622.5,84z"/>
		<rect x="542.3" y="89.4" fill="#E2B588" width="80.1" height="15.4"/>
		<path fill="#E4C7A1" d="M592.4,107.5H572c-0.7,0-1.5-0.7-1.5-1.7V89.4c0-0.9,0.6-1.7,1.5-1.7h20.4c0.7,0,1.5,0.7,1.5,1.7v16.3
			C593.7,106.7,593.1,107.5,592.4,107.5z"/>
		<g>
			<g>
				<ellipse fill="#E39E66" cx="548.1" cy="92.6" rx="1.5" ry="1.8"/>
				<ellipse fill="#E39E66" cx="552.6" cy="92.6" rx="1.5" ry="1.8"/>
				<ellipse fill="#E39E66" cx="561.4" cy="92.6" rx="1.5" ry="1.8"/>
				<ellipse fill="#E39E66" cx="556.9" cy="92.6" rx="1.5" ry="1.8"/>
			</g>
			<g>
				<ellipse fill="#E39E66" cx="548.1" cy="97.2" rx="1.5" ry="1.8"/>
				<ellipse fill="#E39E66" cx="552.6" cy="97.2" rx="1.5" ry="1.8"/>
				<ellipse fill="#E39E66" cx="561.4" cy="97.2" rx="1.5" ry="1.8"/>
				<ellipse fill="#E39E66" cx="556.9" cy="97.2" rx="1.5" ry="1.8"/>
			</g>
			<g>
				<ellipse fill="#E39E66" cx="548.1" cy="101.8" rx="1.5" ry="1.8"/>
				<ellipse fill="#E39E66" cx="552.6" cy="101.8" rx="1.5" ry="1.8"/>
				<ellipse fill="#E39E66" cx="561.4" cy="101.8" rx="1.5" ry="1.8"/>
				<ellipse fill="#E39E66" cx="556.9" cy="101.8" rx="1.5" ry="1.8"/>
			</g>
		</g>
		<g>
			<g>
				<ellipse fill="#E39E66" cx="603.5" cy="92.8" rx="1.5" ry="1.8"/>
				<ellipse fill="#E39E66" cx="607.9" cy="92.8" rx="1.5" ry="1.8"/>
				<ellipse fill="#E39E66" cx="616.7" cy="92.8" rx="1.5" ry="1.8"/>
				<ellipse fill="#E39E66" cx="612.3" cy="92.8" rx="1.5" ry="1.8"/>
			</g>
			<g>
				<ellipse fill="#E39E66" cx="603.5" cy="97.2" rx="1.5" ry="1.8"/>
				<ellipse fill="#E39E66" cx="607.9" cy="97.2" rx="1.5" ry="1.8"/>
				<ellipse fill="#E39E66" cx="616.7" cy="97.2" rx="1.5" ry="1.8"/>
				<ellipse fill="#E39E66" cx="612.3" cy="97.2" rx="1.5" ry="1.8"/>
			</g>
			<g>
				<ellipse fill="#E39E66" cx="603.5" cy="101.9" rx="1.5" ry="1.8"/>
				<ellipse fill="#E39E66" cx="607.9" cy="101.9" rx="1.5" ry="1.8"/>
				<ellipse fill="#E39E66" cx="616.7" cy="101.9" rx="1.5" ry="1.8"/>
				<ellipse fill="#E39E66" cx="612.3" cy="101.9" rx="1.5" ry="1.8"/>
			</g>
		</g>
	</g>
	
		<path fill="none" stroke="#303030" stroke-width="0.45" stroke-linecap="round" stroke-linejoin="round" stroke-miterlimit="10" d="
		M558.6,23.4c-1.5,0.9-3.6-0.5-3.7-2.4s1.9-3.7,3.6-2.8c-1.1,2.4-3.7,3.7-5.9,2.8c-1.3-0.6-2.5-1.8-3-3.3c-0.6-1.7-0.3-3.6,0.6-4.9
		c1.1-1.5,2.1-2.2,2.1-2.2c0.7-0.7,3-1.3,3.9-0.1c0.6,0.7,0.6,1.8,0.3,2.5c-0.3,0.7-0.9,1.5-1.5,2.1c-1.9,1.8-4.3,3-6.7,3.7
		c-2.5,0.6-5.8,0.1-6.9-3.4c-0.3-1.2-0.3-2.2,0-3.3c0.6-2.7,1.9-4.7,3.6-6.5c0.7-0.7,1.7-1.2,2.7-1.3c0,0,0.9-0.3,2.5-0.1"/>
	<rect x="571.7" y="116.3" fill="#E08624" width="21.6" height="2.4"/>
</g>
<g>
	<rect x="579.9" y="90" fill="#DE1F26" stroke="#DE1F26" stroke-miterlimit="10" width="4.5" height="5.2"/>
	<rect x="579.9" y="95.2" fill="#DE1F26" stroke="#DE1F26" stroke-miterlimit="10" width="4.5" height="5.2"/>
	<rect x="584.3" y="95.2" fill="#DE1F26" stroke="#DE1F26" stroke-miterlimit="10" width="4.5" height="5.2"/>
	<rect x="575.5" y="95.2" fill="#DE1F26" stroke="#DE1F26" stroke-miterlimit="10" width="4.5" height="5.2"/>
	<rect x="579.9" y="100.3" fill="#DE1F26" stroke="#DE1F26" stroke-miterlimit="10" width="4.5" height="5.2"/>
</g>
</svg>
