<svg xmlns="http://www.w3.org/2000/svg" viewBox="532 3.8 100.3 119.4"><path fill="#F9A21C" d="M613.7 9h-3.6v-.6c0-.1-.3-.5-.7-.5h-7.9c-.5 0-.7.1-.7.5V9h-50c-3.1 0-5.7 3-5.7 6.7V23h-.6c-.3 0-.5.3-.5.6v8.9c0 .3.1.6.5.6h.6v2.8h-.6c-.3 0-.5.3-.5.6v8.9c0 .3.1.6.5.6h.6v70.5c0 3.7 2.5 6.7 5.7 6.7h63c3.1 0 5.7-3.1 5.7-6.7V15.7c-.1-3.7-2.6-6.7-5.8-6.7z"/><path fill="#F29821" d="M619.4 31.5v84.9c0 3.7-2.5 6.7-5.7 6.7h-63c-3.1 0-5.7-3-5.7-6.7V81.9"/><path fill="#F2F2F2" d="M606.9 109.5h-49.5c-2.5 0-4.5-2.2-4.5-5.2V22.1c0-2.8 1.9-5.2 4.5-5.2h49.5c2.5 0 4.5 2.2 4.5 5.2v82.3c0 2.9-2.1 5.1-4.5 5.1z"/><g fill="none" stroke="#C1C1C1" stroke-width=".25" stroke-linecap="round" stroke-linejoin="round" stroke-miterlimit="10"><path d="M553.4 46.4l7-6.2 1.4 11.2 1.9-2.6v-2.5l7.3-1.8 3.1 5.1 11-3.9v-4.1l7.4-2.8-1 3.6 4.7 1.5 2 6.1 6.5 3.8h3.8v7.6l2.4.9.2 5.4"/><path d="M589.5 39.9l4.2-9.5-2.1-2.5 5.8-1.5 7.3-1.3-3.4-5.6 5.9-2.1"/></g><g fill="#231F20"><path d="M568.5 37.1h2.7v3.3h-2.7zM568.5 43.4h2.7v3.3h-2.7z"/><path d="M571.1 40.3h2.7v3.3h-2.7zM573.9 37.1h2.7v3.3h-2.7zM573.9 43.4h2.7v3.3h-2.7zM588.6 37.1h2.7v3.3h-2.7zM588.6 43.4h2.7v3.3h-2.7zM591.5 40.3h2.7v3.3h-2.7zM594.2 37.1h2.7v3.3h-2.7zM594.2 43.4h2.7v3.3h-2.7zM578.4 61.7h2.7V65h-2.7zM581.3 61.7h2.7V65h-2.7z"/><path d="M583.9 61.7h2.7V65h-2.7z"/></g><g fill="none" stroke="#C1C1C1" stroke-width=".25" stroke-linecap="round" stroke-linejoin="round" stroke-miterlimit="10"><path d="M564.3 75.1l3.8 3.5 1.2 1.1-3 4.1 3.5 4.4 2.8 1.8-4.3 3.5 2.4 1.8 2-.9v9.5l2.9 2.8M571.7 75.7l-3.6 2.9M565.9 102.7l6.7-1.8-6.7 1.8zM565.5 105.7l.4-3"/></g><path fill="none" stroke="#C1C1C1" stroke-width=".25" stroke-linecap="round" stroke-linejoin="round" stroke-miterlimit="10" d="M585.5 80.9l3.5-2.3 1.7-1.5 2.9 2.9.7-2.2.1 4 3-5.3.3 5 .7 2.5M611.2 82.5l-1.2-2.7-1.9-.2-2-2.5-1.4 1.4-1.5-1.3-1.3-.7"/><path fill="#E2BC78" d="M622.5 84H542c-5.7 0-10 6.1-10 13.4 0 7.5 4.6 13.4 10 13.4h80.5c5.5 0 9.8-6.1 9.8-13.4.3-7.4-4.3-13.4-9.8-13.4z"/><path fill="#E2B588" d="M542.3 89.4h80.1v15.4h-80.1z"/><path fill="#E4C7A1" d="M592.4 107.5H572c-.7 0-1.5-.7-1.5-1.7V89.4c0-.9.6-1.7 1.5-1.7h20.4c.7 0 1.5.7 1.5 1.7v16.3c-.2 1-.8 1.8-1.5 1.8z"/><g fill="#E39E66"><ellipse cx="548.1" cy="92.6" rx="1.5" ry="1.8"/><ellipse cx="552.6" cy="92.6" rx="1.5" ry="1.8"/><ellipse cx="561.4" cy="92.6" rx="1.5" ry="1.8"/><ellipse cx="556.9" cy="92.6" rx="1.5" ry="1.8"/><g><ellipse cx="548.1" cy="97.2" rx="1.5" ry="1.8"/><ellipse cx="552.6" cy="97.2" rx="1.5" ry="1.8"/><ellipse cx="561.4" cy="97.2" rx="1.5" ry="1.8"/><ellipse cx="556.9" cy="97.2" rx="1.5" ry="1.8"/></g><g><ellipse cx="548.1" cy="101.8" rx="1.5" ry="1.8"/><ellipse cx="552.6" cy="101.8" rx="1.5" ry="1.8"/><ellipse cx="561.4" cy="101.8" rx="1.5" ry="1.8"/><ellipse cx="556.9" cy="101.8" rx="1.5" ry="1.8"/></g></g><g fill="#E39E66"><ellipse cx="603.5" cy="92.8" rx="1.5" ry="1.8"/><ellipse cx="607.9" cy="92.8" rx="1.5" ry="1.8"/><ellipse cx="616.7" cy="92.8" rx="1.5" ry="1.8"/><ellipse cx="612.3" cy="92.8" rx="1.5" ry="1.8"/><g><ellipse cx="603.5" cy="97.2" rx="1.5" ry="1.8"/><ellipse cx="607.9" cy="97.2" rx="1.5" ry="1.8"/><ellipse cx="616.7" cy="97.2" rx="1.5" ry="1.8"/><ellipse cx="612.3" cy="97.2" rx="1.5" ry="1.8"/></g><g><ellipse cx="603.5" cy="101.9" rx="1.5" ry="1.8"/><ellipse cx="607.9" cy="101.9" rx="1.5" ry="1.8"/><ellipse cx="616.7" cy="101.9" rx="1.5" ry="1.8"/><ellipse cx="612.3" cy="101.9" rx="1.5" ry="1.8"/></g></g><path fill="none" stroke="#303030" stroke-width=".45" stroke-linecap="round" stroke-linejoin="round" stroke-miterlimit="10" d="M558.6 23.4c-1.5.9-3.6-.5-3.7-2.4s1.9-3.7 3.6-2.8c-1.1 2.4-3.7 3.7-5.9 2.8-1.3-.6-2.5-1.8-3-3.3-.6-1.7-.3-3.6.6-4.9 1.1-1.5 2.1-2.2 2.1-2.2.7-.7 3-1.3 3.9-.1.6.7.6 1.8.3 2.5s-.9 1.5-1.5 2.1c-1.9 1.8-4.3 3-6.7 3.7-2.5.6-5.8.1-6.9-3.4-.3-1.2-.3-2.2 0-3.3.6-2.7 1.9-4.7 3.6-6.5.7-.7 1.7-1.2 2.7-1.3 0 0 .9-.3 2.5-.1"/><path fill="#E08624" d="M571.7 116.3h21.6v2.4h-21.6z"/><g fill="#DE1F26" stroke="#DE1F26" stroke-miterlimit="10"><path d="M579.9 90h4.5v5.2h-4.5zM579.9 95.2h4.5v5.2h-4.5z"/><path d="M584.3 95.2h4.5v5.2h-4.5zM575.5 95.2h4.5v5.2h-4.5z"/><path d="M579.9 100.3h4.5v5.2h-4.5z"/></g></svg>