<svg xmlns="http://www.w3.org/2000/svg" xmlns:xlink="http://www.w3.org/1999/xlink" viewBox="0 0 55 55"><path fill="#303030" d="M52 55c1.7 0 3-1.4 3-3V3c0-1.7-1.4-3-3-3H3C1.4 0 0 1.4 0 3v49c0 1.7 1.4 3 3 3h49z"/><defs><path id="a" d="M11.9 17.1h31.2v20.8H11.9z"/></defs><clipPath id="b"><use xlink:href="#a" overflow="visible"/></clipPath><path clip-path="url(#b)" fill="#F2EEE2" d="M11.9 17.1h31.2v20.8H11.9z"/><defs><path id="c" d="M11.9 17.1h31.2v20.8H11.9z"/></defs><clipPath id="d"><use xlink:href="#c" overflow="visible"/></clipPath><path clip-path="url(#d)" fill="#C5C2B5" stroke="#C5C2B5" stroke-linecap="round" stroke-linejoin="round" stroke-miterlimit="10" d="M11.9 37.4l14.7-9.8-14.7 9.8z"/><g><defs><path id="e" d="M11.9 17.1h31.2v20.8H11.9z"/></defs><clipPath id="f"><use xlink:href="#e" overflow="visible"/></clipPath><path clip-path="url(#f)" fill="#B5B4AC" d="M28.7 27.9l14.4 9.8V17.1"/></g><g><defs><path id="g" d="M11.9 17.1h31.2v20.8H11.9z"/></defs><clipPath id="h"><use xlink:href="#g" overflow="visible"/></clipPath><path clip-path="url(#h)" fill="#C5C2B5" stroke="#C5C2B5" stroke-linecap="round" stroke-linejoin="round" stroke-miterlimit="10" d="M43 37.4l-14.7-9.8L43 37.4z"/></g><g><defs><path id="i" d="M11.9 17.1h31.2v20.8H11.9z"/></defs><clipPath id="j"><use xlink:href="#i" overflow="visible"/></clipPath><path clip-path="url(#j)" fill="#E8E6DF" d="M11.9 17.1h31.2v.4L28.2 28.3c-.4.3-1 .3-1.4 0L11.9 17.4v-.3z"/></g></svg>