<svg version="1.1" id="Blue" xmlns="http://www.w3.org/2000/svg" xmlns:xlink="http://www.w3.org/1999/xlink" x="0px" y="0px"
	 viewBox="0 0 55 55" enable-background="new 0 0 55 55" xml:space="preserve">
<path id="Blue_2_" fill="#303030" d="M52,55c1.7,0,3-1.4,3-3V3c0-1.7-1.4-3-3-3H3C1.4,0,0,1.4,0,3V52c0,1.7,1.4,3,3,3L52,55L52,55z"
	/>
<g>
	<g>
		<g>
			<defs>
				<rect id="SVGID_1_" x="11.9" y="17.1" width="31.2" height="20.8"/>
			</defs>
			<clipPath id="SVGID_2_">
				<use xlink:href="#SVGID_1_"  overflow="visible"/>
			</clipPath>
			<rect x="11.9" y="17.1" clip-path="url(#SVGID_2_)" fill="#F2EEE2" width="31.2" height="20.8"/>
		</g>
	</g>
	<g>
		<g>
			<defs>
				<rect id="SVGID_3_" x="11.9" y="17.1" width="31.2" height="20.8"/>
			</defs>
			<clipPath id="SVGID_4_">
				<use xlink:href="#SVGID_3_"  overflow="visible"/>
			</clipPath>
			
				<path clip-path="url(#SVGID_4_)" fill="#C5C2B5" stroke="#C5C2B5" stroke-linecap="round" stroke-linejoin="round" stroke-miterlimit="10" d="
				M11.9,37.4l14.7-9.8L11.9,37.4z"/>
		</g>
	</g>
	<g>
		<g>
			<defs>
				<rect id="SVGID_5_" x="11.9" y="17.1" width="31.2" height="20.8"/>
			</defs>
			<clipPath id="SVGID_6_">
				<use xlink:href="#SVGID_5_"  overflow="visible"/>
			</clipPath>
			<polygon clip-path="url(#SVGID_6_)" fill="#B5B4AC" points="28.7,27.9 43.1,37.7 43.1,17.1 			"/>
		</g>
	</g>
	<g>
		<g>
			<defs>
				<rect id="SVGID_7_" x="11.9" y="17.1" width="31.2" height="20.8"/>
			</defs>
			<clipPath id="SVGID_8_">
				<use xlink:href="#SVGID_7_"  overflow="visible"/>
			</clipPath>
			
				<path clip-path="url(#SVGID_8_)" fill="#C5C2B5" stroke="#C5C2B5" stroke-linecap="round" stroke-linejoin="round" stroke-miterlimit="10" d="
				M43,37.4l-14.7-9.8L43,37.4z"/>
		</g>
	</g>
	<g>
		<g>
			<defs>
				<rect id="SVGID_9_" x="11.9" y="17.1" width="31.2" height="20.8"/>
			</defs>
			<clipPath id="SVGID_10_">
				<use xlink:href="#SVGID_9_"  overflow="visible"/>
			</clipPath>
			<path clip-path="url(#SVGID_10_)" fill="#E8E6DF" d="M11.9,17.1h31.2v0.4L28.2,28.3c-0.4,0.3-1,0.3-1.4,0L11.9,17.4V17.1z"/>
		</g>
	</g>
</g>
</svg>
