<svg version="1.1" id="Blue" xmlns="http://www.w3.org/2000/svg" xmlns:xlink="http://www.w3.org/1999/xlink" x="0px" y="0px"
	 viewBox="0 0 55 54.9" enable-background="new 0 0 55 54.9" xml:space="preserve">
<path id="Blue_1_" fill="#3C5A99" d="M52,54.9c1.7,0,3-1.3,3-3V3c0-1.7-1.3-3-3-3H3C1.3,0,0,1.3,0,3v48.8c0,1.7,1.3,3,3,3L52,54.9
	L52,54.9z"/>
<path id="f" fill="#FFFFFF" d="M38,54.9V33.6h7.1l1-8.2h-8.3V20c0-2.5,0.7-4.1,4.1-4.1h4.4V8.7c-0.7-0.1-3.3-0.3-6.4-0.3
	c-6.4,0-10.7,3.9-10.7,11v6.1h-7.1v8.2h7.1V55H38V54.9z"/>
</svg>
