<svg xmlns="http://www.w3.org/2000/svg" viewBox="296.4 0 683.2 800"><path fill="#F9F9FA" d="M979.6 800l-37.7-40.1-37.7 40.1-37.7-40.1-37.7 40.1-37.7-40.1-37.8 40.1-37.7-40.1-37.7 40.1-37.7-40.1-37.7 40.1-37.7-40.1-37.7 40.1-37.7-40.1-37.8 40.1-37.7-40.1-37.7 40.1-37.7-40.1-37.7 40.1V55c-.4-30.1 21.2-55 47.7-55h582.9c26.5 0 48.1 24.9 48.1 55v745z"/><path fill="#E2E2E2" d="M365.4 577.3h291.3v138.8H365.4z"/><path fill="#A9A8A8" d="M357.8 44.1h217.1v285.7H357.8z"/><path fill="none" stroke="#353535" stroke-miterlimit="10" d="M360.6 377.9c14.8-4.4 31.3-4 46.1 1.2 8.4 2.8 20.9 5.6 23.7-3.2 16-.8 32.1-.4 48.1.8 2.8.4 5.6.4 8 2.4 2.8 2 3.6 6 5.2 8.8s6.8 4.4 8.4 1.6c6-5.6 8.4-14.8 6.8-22.9 4.4 1.2 8.8 2.4 13.6 3.2.4 8.8 11.6 13.2 20.5 12.4s18.1-3.6 26.1-.8"/><path fill="#E2E2E2" d="M606.1 109.1h332.2V158H606.1zM606.1 247.5h332.2v48.9H606.1z"/><path fill="none" stroke="#353535" stroke-miterlimit="10" d="M623.8 81.8c1.2-2 2.8-3.6 4-5.6 3.2-4.4 7.2-9.2 12.8-9.2 5.6 0 9.2 8.8 4.4 10.8 15.2-3.2 30.9-6.8 46.1-10-.4 4.4.8 8.8 3.2 12 10.8-.4 21.3-2.4 31.7-6 8 11.2 28.9-10.8 37.7 0M619.3 219.5c13.2-4 28.1-2.4 40.5 4 6-11.2 23.7-13.6 32.5-4.4 8.4 3.2 16.9-5.2 21.7-12.8 12-3.2 20.5 12.8 32.1 16.4 8.8 2.8 18.1-2.4 26.1-6.8"/><path fill="#E2E2E2" d="M360.6 427.3h40.1v40.1h-40.1zM549.5 427.3h40.1v40.1h-40.1zM486.5 427.3h40.1v40.1h-40.1zM612.5 427.3h40.1v40.1h-40.1zM423.6 427.3h40.1v40.1h-40.1z"/><g fill="#216935"><path d="M654.2 411.6c.4 0 0 0 0 0-.4 0 .4 0 0 0zM654.2 413.6l.4.4M653.4 415.2c.8 0 0-.8.4-.8l-.4-.4c.4.4.4 1.2 0 1.2zM651.8 415.6c.4 0 0 0 0 0 0-.4 0-.4 0 0 0-.4 0-.4 0 0zM651.8 415.2s-.4 0 0 0zM651.4 416c-.4-.4-.4 0-.4-.4 0 .4.4.4.4.4zM651.8 416.4zM651.8 416c.4.4.4.4 0 0 .4.4 0 0 0 0zM652.2 416h.4c0-.4-.4-.4-.4 0zM654.2 415.6s-.4 0 0 0zM650.6 417.3h.4v-.4c0 .4-.4.4-.4.4zM651 417.7c.4 0 .4 0 0 0zM652.6 416.9l-.4-.4.4.4zM650.2 418.1h-.4l.4.4M649.8 418.9c-.4-.4-.4 0-.8-.4 0 .4.4.4.8.4-.4 0-.4 0 0 0zM649.8 419.7c0-.4-.4-.4 0 0-.4-.4-.4-.4 0 0zM651 418.1h-.4.4zM651 418.5zM651 418.1zM651.8 417.3c0 .4.4.8.8.4 0 0-.4 0-.8-.4zM651.4 418.5v-.4.4zM651.4 418.5zM650.2 419.3v.4c.4 0 .4 0 0-.4.4 0 0 0 0 0zM650.6 418.9zM649.4 420.9h.4-.4zM650.6 419.3c.4 0 0 0 0 0zM649.8 420.1s-.4 0 0 0zM650.6 418.9zM650.6 418.9zM651.8 422.9c-.4-.4-.4-.8 0-.8 0-.4-1.2-.8-2-.8 0 0 .4 0 .4.4.4 0 .8-.4.8 0s-.4.4-.4.4c.4 0 .4.4 1.2.8-.4-.4 0 0 0 0zM649.8 420.5h-.8c0 .4 0 .4.4.4l.4-.4zM650.2 420.1c.4.4.4.8.8.8 0-.4-.4-.4-.4-.8 0 .4 0-.4-.4 0 0 0 0-.4 0 0 0-.4 0-.4 0 0l-.4.4c.4 0 .4 0 .4-.4zM653.4 418.5s0 .4 0 0zM653 418.9c0-.4 0-.4 0 0 0-.4 0-.4 0 0 0-.4 0-.8 0 0-.4 0-1.2 0-1.2-.4.4 0 .8.4 1.2.4zM651.8 419.3v.4h.4l-.4-.4c.4.4 0 .4 0 0zM649.4 420.9h-.4l.4.4M649 421.7v-.4.4zM638.2 453c0 .4 0 0 0 0zM638.6 452.2zM642.6 434.1h-.8.8c-.4.4 0 .4 0 0zM640.2 444.1zM641.8 445.3zM635.4 459.4v.8c.4-.4.4-.4 0-.8zM646.6 426.9c-.4 0-.4 0-.4.4.4 0 .8 0 .4-.4zM634.6 450.6s0 .4 0 0zM645.8 427.7s0-.4.4-.4c-.4 0-.4 0-.4.4zM620.1 449.3zM619.7 442.1c.4 0 .4.4 0 0 .4.4.4 0 0 0zM647.8 423.7c0-.4 0 0 0 0zM649.8 423.7s0 .4 0 0c0 .4 0 0 0 0zM647.8 430.1zM648.2 423.3c0 .4 0 .4 0 0 0 .4 0 .4 0 0zM647.8 423.3c.4 0 .4 0 0 0zM647.8 423.7zM627.8 456.2c-.4 0-.4 0 0 0zM645 439.3zM645 439.7c-.4-.4-.4-.4 0-.4l-1.2-.4 1.2.8z"/><path d="M637.4 455.4h.4c.4.8 0 .8.8.8-1.2-.8.4-1.2-.8-2h.4c.8 0-.8-.8-.4-1.2h.4v-.4s.4 0 0 0v-.4s-.4-.4-.4-.8h.4v-.4c.4 0 .4.4.4.8 1.2.4 0-.4.8-.8v.4c.8 0 .8 0 1.2-.4-.4 0-1.6 0-1.6-.4 0 0 .4 0 0-.4.4.4.4 0 .4-.4l.4.4c0-.4-.4-.4-.4-.8s.8 0 1.2 0c.4-.4-.8 0-.8-.8.4-.4.4-.4 0-1.2.4 0 .4.4.4.4l-.4-.4h.4c0-.4-.4-.4-.4-.8-.4-.4 1.2 0 .8-.8.4 0 .4.4.4.4-.4-.8 0-.4-.4-1.2h.4c-.4 0-.8-.4-1.2-1.2h-.4v-.4s.4 0 .4.4c.4 0 .4.4.8.4h-.4c.4.4.8.4.8.8v-.4h.4v-.4l.8.4h-.4l.8-.4c-.4-.8-1.2-1.6-1.2-2.4.4.4.8.4 1.2.8-.8 0 0 .8-.4.8h.4l-.4-.8c.4.4.4 0 .8 0-.8-.4-.4-.8-.4-1.2.4 0 .4.4.4.8.8 0-.8-.8 0-1.2v.4c0-.4.4-.8.4-.4.4-.4.8-1.6 0-2 0 0 .8.4 1.2.8l-2-2c.8.4 2.4.8 2.4 1.6 0 0 .4 0 .4-.4l-1.2-.4h1.2c-.4 0-1.2-.8-1.2-.8s1.2.4 1.2.8l-.8-.8c0 .4.8.4 1.2.4-.4 0 .4-.4 0-.4h-.4c.4-.4-1.2-1.2-.8-1.6 0 0 1.2.8 1.6.8l-2.4-2.4h.4v-.4c.8.8 2 2 2.4 2.8h.4c.4 0 .4.4.4.4l.4-.4c-.8-.4-.4-.8-.8-1.2l.4 1.2c-.8-.4-1.6-1.2-1.2-1.6.4 0 1.2.8 1.2.8v-.8l.4.4c.4 0-.4-.8 0-.8h.4c-.8 0-2.8-1.2-3.2-1.6 0 0 .8-.4 1.2-.4.8 0 1.2.8 1.6 1.2l-.4-.4c.4 0 .4.4.4 0-.4-.4.4-.4-.4-.4 0-.4.4-.4.4-.4-.4 0-1.2-.8-1.2-1.2h.4c.4-.4.8-.8.8-1.2h.8s-.4-.4 0-.4c.8 0 0 .4.8.4-.4-.4-.4-.8-.4-.8-.4-.4-.4.4-.4.8-.8-.4-1.2-1.2-1.6-2 0-.4.4 0 .4 0 .4-.8-.8-1.2 0-1.6.8 0 .8.4 1.2.8 0 .4-.4.4-.8.4h.4v.4c.4 0 .8-1.2 1.6-1.6 0 0 0-.4-.4-.4v.4c-.4 0-.4-.8-.8-.4 0-.4-.4-.8 0-1.2l.4.4s-.4 0-.4.4c0-.4 1.2 0 .4-.8h-.4c0-.4-.4-.8-.4-1.2h-.8c.8.4-.4.8.4.8-.8 0-.4.4-1.2 0 0 0 .4 0 0 .4h.4c.4.4 0 .8.4.8h-.4l.4.4c-.4 0-.8 0-.8-.4v.4c-.4 0-.4.4-.4.4s.4.8 0 .4v.8c-.4.4 0 1.2-.8 1.6 0 .4 0 .4-.4.8h-.4c0 .4-.8.4-.4.8-1.2-.4-.8.8-1.2 1.2l.4.4v.8h.4c0 .4-.8.4-.8 1.2v-.4c-1.2 0 0 1.6-.8 1.6v.4h-.4.4v.4h-.4c-.4 0 0 .4.4.4v.4c-.8-.4 0 .4-.8.4.4.4 0 .8.8 1.2 0 0-.4.4 0 .4l-.4-.4.4.8c-.4 0-.8 0-.8-.4.4.8 0 .4.4 1.2l-.4-.4s.4.8 0 .4c-.8 0-.8 1.6-2 2 1.2.4-.8 0 0 .8-.4 0-.4 0-.8-.4 0 .4-.8.4-.4 1.2-.4 0-.4-.4-.4-.4v.4l-.4-.4c0 .4.4.8 1.2 1.2-.4 0-.4 0 0 .4-.4 0-.4 0-.4-.4 0 0-.8.8-.4 1.2v.4c-.4.4-.4.4-.4.8.8.4 0 .4 0 .8-.8.4 0 .4-.8.8h.4c.8.4-.8.4-.8.8h.4c.4.4-1.6 0-1.6 0v-.4c-.8.4.4.4.4.8-.4 0-.8-.4-.8-.4-.4 0 .4 1.2 0 1.2.4 0 .4 0 .8.4 0 .4-1.2.4-.8.8h-.4c0 .4 0 .8.4 1.2-1.6-.4 0 1.6-1.2.8l-.4.8s0 .4.4.8c0 0-.4 0-.4-.4-.4 0-.4 0 0 1.2l-.4-.4c0 .4-.8-.4-.4.4v-.4c0 1.2-.4-.8-.4.8V458.6c.4.4 0 1.2.4 2l-.4-1.2c0-1.6-.4-.8-.4-2-.4-.4-.8-1.6-1.2-2l-.4.8v-.4l.4-.4c.4-.4-.4 0-.4 0 0-.8.8-.4.8-.4-.4 0-.8.4-.8 0s.4-.4.4-.4l-.4-.4-.4.4c-.4 0-.4-.4-.8.4.4-.8-.8-1.6-.8-2-.4 0-.8-.4-.8-.4s-.4.8-.8.4c1.2-.8 0-.8.4-1.6-.4.8-.8-.8-1.2.4 0-.4.4-.4.4-.8-.8 0-.8-1.2-1.2-2l-.4.4.4-.8s-.8.4-.8 0l-.4.4c-.4-1.6-2.8-2-2.4-4.4 0 .4-.4.4-.4 0l-.4.4v-.8c-.4.4-.4-.4-1.2 0h.4c-.8.4-.8 1.2-1.6 2 .8-.4-.4 1.6.8 1.2 0 .4-.4 0-.4.4.4 0 .4 0 .8.4.8.4.4 1.2.8 2l.4-.4v.4c.8-.4-.4-.4.4-.8-.4.8.8 1.2.4 2 .4.4.4-.4.4 0v.4h.4s0 .4-.4.8c0 .4.4.4.4.8v-.4c.8.4 1.2 1.6 2 1.6.8.4 0 .4.8.8h.4c-.4 0 0 .4-.4.4.8.4.4 0 1.6 0l-.4.4c.4 0 .4-.4.8 0-.4 0-.4.4-.8.4 0 1.2 1.2.4.8 1.2.8-.4 0-.8.4-.8 0-.4.8-.4.8 0 0 0-.8 1.2-.4 1.6 0 .4.4 0 .4.4.4-.4.4.4.8 0l-.4-.4c.4 0 1.2-.4 1.2.4h-.4c0 .4.4 0 .4.4-.4.8-.8-.8-1.2-.4 0 .4.8 0 0 .8 1.2-.4.4.8 1.6.8l-.4.4h.4l-.4.4c.8 0 .4 1.2.8 1.2-.8-.8 0-.8 0-1.6 1.2.4 0 2 1.2 2.8 0 0-.4-.8 0-.8 0 .4.4.8.4 1.2.8.8 0-.8.4-.8 0 1.2.4 0 .4 0v.8c.8 1.2.4-1.2.8 0l-.4.8h.4v.8c.4-.4.4 0 .8.8v-1.2-.8c.4.4 0 .8.4.4 0 .8 0 1.6-.4.8v.8c.4.4.4-.8.4-.8l-1.2-4.4V461c0 .8.4 1.2 0 2l.4-1.6s.4 0 .4.4c.4-.4.4-2 .8-2.4v-.4c.4-.4 1.2-.8.8-2h.8c0-.8-.8 0-.8-1.2 0-.8.8 0 .8 0 .8-.4 0-.8.8-.4 0-.4 0-.4 0 0zm2-4.4s0 .4 0 0c-.8 0-.4 0 0 0zm2-6.9zm6.4-19.2c-.4 0-.4 0 0 0zm0-.4s0 .4 0 0c0 .4.4.4 0 0zM629.4 453c-.4.4-.4.4 0 0zM641.8 444.9s-.4 0 0 0c-.4 0-.4 0 0 0zM635.4 459.4zM648.6 432.5zM648.2 422.5s.4 0 0 0c.4 0 0 0 0 0zM652.2 421.7c-.4 0 0 0 0 0-.4 0-.4 0 0 0zM649.8 422.9c.4 0 .4 0 0 0 0-.4 0-.4 0 0zM650.2 422.5c0-.4 0 0 0 0z"/><path d="M648.2 424.1s-.8-.4 0 0c-.8-.8 0 .4 0 0zM651 423.3h-.4.4zM650.2 424.5c0-.4 0-.4 0 0 0-.4-.4 0 0 0zM650.2 424.1zM651 423.7l-.4.4M648.6 427.3c0 .4 0 .4 0 0zM650.2 426.9h-.4.4zM649.8 428.1c.4 0 .4.4 0 0 .4 0 .4-.4 0 0zM647 432.1v-.4l-.8-.4M647 436.9c.4-.4-.4-.4 0-.4h-.4c0 .4 0 .4.4.4zM646.6 436.5s0-.4 0 0c0-.4 0 0 0 0zM619.7 441.3v-.4.4zM618.9 441.3l.4-.4-.4.4zM640.6 451h-.4.4zM638.6 453.8l-.4-.4M637.8 457s0-.4.4-.8c0 .4-.8.4-.4.8z"/></g><g fill="#216935"><path d="M462.9 421.7s-.4-.4 0 0c-.4 0 0 0 0 0zM462.9 423.7v.4M462.1 424.9c.8 0 0-.4.4-.8l-.4-.4c.4.8.4 1.2 0 1.2zM460.5 425.3c.4 0 0 0 0 0 0-.4 0-.4 0 0 0-.4 0-.4 0 0zM460.5 424.9s-.4 0 0 0zM460.5 425.7c-.4-.4-.4 0-.4-.4-.4.4 0 .4.4.4zM460.5 426.1zM460.5 425.7c.4.4.4.4 0 0 .4.4 0 0 0 0zM460.9 425.7h.4c0-.4-.4-.4-.4 0zM462.9 425.3s-.4 0 0 0zM459.3 426.9h.4v-.4c0 .4 0 .4-.4.4zM460.1 426.9c0 .4 0 .4 0 0zM461.3 426.5l-.4-.4.4.4zM458.9 427.7l-.4-.4.4.4zM458.5 428.1c-.4-.4-.4 0-.8-.4.4.4.4.8.8.4-.4.4 0 .4 0 0zM458.5 428.9zM459.7 427.7h-.4.4zM459.7 427.7c0 .4 0 .4 0 0 0 .4 0 .4 0 0zM459.7 427.7zM460.9 426.9c0 .4.4.8.8.4-.4 0-.8 0-.8-.4zM460.5 427.7s-.4 0 0 0zM460.5 428.1v-.4l-.4.4M458.9 428.9v.4c.4 0 .4-.4 0-.4.4 0 0-.4 0 0zM459.3 428.5zM458.5 430.5zM459.3 428.9c.4 0 .4 0 0 0 0-.4 0 0 0 0zM458.5 429.3zM459.3 428.5zM459.3 428.5zM460.5 432.1c-.4-.4-.4-.8 0-.8 0-.4-1.2-.8-2-.8 0 0 .4 0 .4.4.4 0 .8-.4.8 0s-.4 0-.4.4c.4 0 .4.8 1.2.8zM458.9 430.1h-.8s.4.4.8 0zM458.9 429.3l.8.8c0-.4-.4-.4-.4-.8 0 .8 0 0-.4 0 0 .4 0 0 0 0l-.4.4c.4 0 .4 0 .4-.4zM462.1 428.1zM461.7 428.1c.4 0 0-.4 0 0-.4 0-1.2-.4-1.2-.4.4.4.8.4 1.2.4zM460.5 428.9v.4h.4l-.4-.4c.4.4 0 0 0 0zM458.1 430.5l-.4-.4.4.4zM458.1 430.9h-.4M448 461zM448.4 460.2zM451.6 442.9h-.8.8zM449.6 452.6s0-.4 0 0zM451.2 453.4c-.4 0 0 0 0 0zM445.2 467.4v.8c.4-.8 0-.8 0-.8zM455.6 436.1c-.4 0-.4 0-.4.4 0-.4.4-.4.4-.4zM444 458.6zM454.8 436.5s0-.4.4-.4c-.4 0-.4.4-.4.4zM430.4 457.4zM430.4 450.6zM456.9 432.9c0-.4 0 0 0 0zM458.5 432.9c0 .4 0 .4 0 0 0 .4 0 .4 0 0zM456.9 438.9zM456.9 432.9zM456.9 432.5zM456.9 432.9zM437.6 464.2zM454.4 447.7zM454.4 448.1c-.4-.4-.4-.4 0-.4l-1.2-.4 1.2.8z"/><path d="M446.8 463h.4c.4.8 0 .8.8.8-1.2-.8.4-1.2-.8-1.6h.4c.8 0-.8-.8-.4-1.2h.4v-.4s.4 0 0 0v-.4s-.4-.4-.4-.8h.4v-.4c.4 0 .4.4.4.8 1.2.4 0-.4.8-.8v.4c.8 0 .8 0 1.2-.4-.4 0-1.2 0-1.6-.4 0 0 .4 0 0-.4.4.4.4 0 .4-.4l.4.4c0-.4-.4-.4-.4-.8s.8 0 1.2 0c.4-.4-.8 0-.8-.8.4-.4.4-.4 0-1.2.4 0 .4.4.4.4l-.4-.4h.4c0-.4-.4-.4-.4-.8-.4-.4 1.2 0 .8-.8.4 0 .4.4.4.4-.4-.8 0-.4-.4-1.2h.4c-.4 0-.8-.4-1.2-1.2h-.4v-.4s.4 0 .4.4c.4 0 .4.4.8.4h-.4c.4.4.8.4.8.8v-.4h.4v-.4l.8.4h-.4l.8-.4c-.4-.8-1.2-1.6-1.2-2.4.4.4.8.4 1.2.8-.8 0 0 .8-.4.8h.4l-.4-.8c.4.4.4 0 .8 0-.8-.4-.4-.8-.4-1.2.4 0 .4.4.4.8.8 0-.8-.8 0-.8 0-.4.4-.4.4-.4.4-.4.8-1.6 0-2 0 0 .8.4 1.2.8l-2-2c.8.4 2.4.8 2.4 1.6 0 0 .4 0 .4-.4l-1.2-.4h1.2l-1.2-.8s1.2.4 1.2.8l-.8-.8c0 .4.8.4 1.2.4-.4 0 .4-.4 0-.4h-.4c.4-.4-1.2-1.2-.8-1.6 0 0 1.2.8 1.6.8-.4-.4-2-1.6-2.4-2.4h.4v-.4c.8.8 2 2 2.4 2.8h.4c.4 0 .4.4.4.4l.4-.4c-.8-.4-.4-.8-.8-1.2l.4 1.2c-.8-.4-1.6-1.2-1.2-1.6.4 0 1.2.8 1.2.8v-.8l.4.4c.4 0-.4-.8 0-.8h.4c-.8 0-2.8-1.2-3.2-1.6 0 0 .8-.4 1.2 0 .8 0 1.2.8 1.6 1.2l-.4-.4s.4.4.4 0c-.4-.4.4-.4-.4-.4 0-.4.4 0 .4-.4-.4 0-1.2-.8-1.2-1.2h.4c.4-.4.8-.4.8-1.2h.8s-.4-.4 0-.4c.8 0 0 .4.8.4-.4-.4-.4-.8-.4-.8-.4-.4-.4.4-.4.8-.8-.4-1.2-1.2-1.6-2 0-.4.4 0 .4 0 .4-.8-.8-1.2 0-1.6.4 0 .8.4 1.2.8 0 .4-.4.4-.8.4h.4v.4c.4 0 .8-1.2 1.2-1.6 0 0 0-.4-.4-.4v.4c-.4 0-.4-.8-.8-.4 0-.4-.4-.8 0-1.2l.4.4s-.4 0-.4.4c0-.4.8 0 .4-.8h-.4c0-.4-.4-.8-.4-1.2h-.8c.8.4-.4.8.4.8-.8 0-.4.4-1.2 0 0 0 .4 0 0 .4h.4c.4.4 0 .8.4.8h-.4l.4.4c-.4 0-.8 0-.8-.4v.4c-.4 0-.4.4-.4.4s.4.4 0 .4v.8c-.4.4 0 1.2-.8 1.6v.8h-.4c0 .4-.8.4-.4.8-1.2-.4-.8.8-1.2 1.2l.4.4v.8h.4c0 .4-.8.4-.8.8v-.4c-1.2 0 0 1.2-.8 1.6v.4h-.4.4v.4h-.4c-.4 0 0 .4.4.4v.4c-.8-.4 0 .4-.8.4.4.4 0 .8.8 1.2 0 0-.4.4 0 .4l-.4-.4.4.8c-.4 0-.8 0-.8-.4.4.8 0 .4.4 1.2l-.4-.4s.4.8 0 .4c-.8 0-.8 1.6-2 2 1.2.4-.8 0 0 .4-.4 0-.4 0-.8-.4 0 .4-.8.4 0 1.2-.4 0-.4-.4-.4-.4v.4l-.4-.4c0 .4.4.8 1.2 1.2-.4 0-.4 0 0 .4-.4 0-.4 0-.4-.4 0 0-.8.8-.4 1.2v.4c-.4.4-.4.4-.4.8.8.4 0 .4 0 .8-.8.4 0 .4-.8.8h.4c.8.4-.8.4-.8.8h.4c.4.4-1.6 0-1.6 0v-.4c-.8.4.4.4.4.8-.4 0-.8-.4-.8-.4-.4 0 .8 1.2 0 1.2.4 0 .4 0 .8.4 0 .4-1.2.4-.8.8h-.4c0 .4 0 .8.4 1.2-1.6-.4 0 1.6-1.2.8v.4s0 .4.4.8l-.4-.4c-.4 0-.4 0 0 1.2l-.4-.4c0 .4-.8-.4-.4.4v-.4c0 1.2-.4-.8-.4.4V465.4c.4.4 0 1.2.4 2l-.4-1.2c0-1.6-.4-.8-.4-2-.4-.4-.8-1.6-.8-2l-.4.8v-.4l.4-.4c.4-.4-.4 0-.4 0 0-.4.8-.4.8-.4-.4 0-.4.4-.8 0 0-.4.4-.4.4-.4l-.4-.4-.4.4c-.4 0-.4-.4-.8.4.4-.8-.8-1.6-.8-2-.4 0-.8 0-.8-.4 0 0-.4.8-.8.4 1.2-.8 0-.8.8-1.6-.4.4-.8-.4-1.2.4 0-.4.4-.4.4-.8-.8 0-.8-1.2-1.2-1.6l-.4.4.4-.8s-.8.4-.4 0l-.4.4c-.4-1.6-2.4-2-2.4-4 0 .4-.4.4-.4 0l-.4.4v-.8c-.4.4-.4-.4-1.2 0h.4c-.8.4-1.2 1.2-1.6 2 .8-.4-.4 1.6.8 1.2 0 .4-.4 0-.4.4.4 0 .4 0 .8.4.8.4.4 1.2.8 2l.4-.4v.4c.8-.4-.4-.4.4-.8-.4.8.8 1.2 0 2 0 .4.4-.4.4 0v.4h.4s0 .4-.4.8c0 .4.4.4.4.8v-.4c.8.4 1.2 1.6 2 1.6s0 .4.8.8h.4c-.4 0 0 .4-.4.4.8.4.4 0 1.2 0l-.4.4c.4 0 .4-.4.8 0-.4 0-.4.4-.8.4 0 1.2 1.2.4.8 1.2.8-.4 0-.8.4-.8 0-.4.8-.4.8 0 0 0-.8 1.2-.4 1.6 0 .4.4 0 .4.4.4-.4.4.4.8 0l-.4-.4c.4 0 1.2-.4 1.2.4h-.4c0 .4.4 0 .4.4-.4.8-.8-.4-1.6-.4 0 .4.8.4.4.8.8-.4.4.8 1.2.4l-.4.4h.4l-.4.4c.4 0 .4 1.2.8 1.2-.8-.8 0-.8 0-1.6.8 0 0 2 1.2 2.8 0 0-.4-.8 0-.8 0 .4.4.8.4 1.2.8.8 0-.8.4-.8 0 1.2.4 0 .4 0v.8c.8 1.2 0-1.2.8 0l-.4.8h.4v.8c.4-.4.4 0 .8.8v-1.2-.8c0 .4 0 .8.4.4 0 .8 0 1.6-.4.8v.8c.4.4.4-.8.4-.8l.4-2v0c0 .8.4 1.2 0 2l.4-1.6s.4 0 .4.4c.4-.4.4-2 .8-2.4v-.4c.4-.4.8-.8.8-1.6h.8c0-.8-.8 0-.8-1.2 0-.8.8 0 .8 0-1.6-2.4-1.6-2.8-1.6-3.2 0 0 0-.4 0 0 .4-.4 0 0 0 0zm2-4s0 .4 0 0c-.4 0-.4 0 0 0zm2-6.8c0 .4 0 .4 0 0-.4.4 0 .4 0 0zm5.6-18.1zm.5-.4s0 .4 0 0c0 .4 0 .4 0 0zM439.2 461zM451.2 453.4c-.4 0-.4 0 0 0-.4 0-.4 0 0 0zM445.2 467v.4M457.7 441.3zM457.3 431.7zM460.9 430.9c-.4 0-.4.4 0 0zM458.9 432.1c0 .4 0 0 0 0-.4-.4-.4-.4 0 0zM458.9 431.7z"/><path d="M456.9 433.3s-.5-.4 0 0c-.9-.4 0 .4 0 0zM460.1 432.5h-.8l.4.4M458.9 433.7c.4-.4.4-.4 0 0zM459.3 433.3s-.4 0 0 0zM460.1 432.9h-.4v.4M457.3 436.5c.4.4.4.4 0 0 .4 0 .4 0 0 0zM459.3 436.1h-.4.4zM458.9 436.9c0 .4 0 .8 0 0 0 .4.4 0 0 0zM456 440.9l-.8-.4M456 445.7c.4-.4-.4-.4 0-.4h-.4l.4.4zM455.6 444.9zM430.4 449.3h-.4M429.6 449.7l.4-.4-.4.4c-.4-.4 0-.4 0 0zM450 459h-.4.4zM448.4 461.4h-.8M447.6 464.6s0-.4.4-.8c-.4.8-1.2.4-.4.8z"/></g><path fill="none" stroke="#353535" stroke-miterlimit="10" d="M365.4 536v-4.4c3.6-2.8 8.4-4 13.2-2.8.8 4.4 5.2 7.6 10 8 4.8.4 9.2-1.2 13.2-2.8-.8-3.2 4.4-4.8 6.8-2.8 2.4 2 2.8 5.6 2.8 8.8 7.6-1.6 15.6-3.6 22.9 0 3.6 2 7.2 5.2 11.6 4.4 4.4-.8 6-6 9.6-8.4 4-2.8 10.4-1.2 12.8 2.8 4 3.2 9.6-.8 13.2-4 2.8-2.8 6-5.6 8.8-8.4 1.2 7.6 10 11.6 17.3 9.6M786.2 460.2c1.2-1.6 2.8-3.6 4-5.2 4-.8 10 0 10 4 4.4 1.6 8.8-2.8 13.6-3.6 4.8-.4 8.8 3.2 13.2 4.8 6.8 2.8 15.2.8 20.1-4.8.8-.8 1.6-2 2.4-2.4 1.2-.4 2 0 3.2.4 4.4 1.2 8 4 10.4 8"/><g fill="#0A7139"><path d="M779.1 680v-4.6c-5.7-.4-10.1-2.6-13.2-6.5-3.1-3.9-4.8-9-5.2-15.2l10.5-2.6c.3 8 2.6 13.1 7 15.1l.9.3v-22.8l-10.5-8.4c-2.4-1.9-4.3-4.4-5.8-7.3-1.4-2.9-2.2-6.2-2.2-9.9 0-5.4 1.7-9.8 5.1-13 3.4-3.2 7.8-4.8 13.4-4.8v-4.5h5.3v5l1.7.4c8.7 2.4 13.4 8.5 14.1 18.3l-10.5 2.6c-.2-5.2-1.7-8.8-4.4-11.1l-.8-.6v23.3l5.3 4.2c3.1 2.4 5.6 5.3 7.6 8.7 2 3.4 2.9 7.3 2.9 11.6 0 5-1.4 8.9-4.3 11.9s-6.7 4.7-11.5 5.2v4.6h-5.4zm0-50.6v-20.5c-2.5 0-4.5.7-5.8 2.1-1.4 1.4-2.1 3.4-2.1 5.9 0 4.2 1.8 7.6 5.3 10.4l2.6 2.1zm5.3 37.2c3.5-.8 5.3-3.3 5.3-7.7 0-2.1-.4-4-1.2-5.6-.8-1.6-1.9-3.1-3.3-4.5l-.8-.8v18.6zM829.1 680v-4.6c-5.7-.4-10.1-2.6-13.2-6.5-3.1-3.9-4.8-9-5.2-15.2l10.5-2.6c.3 8 2.6 13.1 7 15.1l.9.3v-22.8l-10.5-8.4c-2.4-1.9-4.3-4.4-5.8-7.3-1.4-2.9-2.2-6.2-2.2-9.9 0-5.4 1.7-9.8 5.1-13 3.4-3.2 7.8-4.8 13.4-4.8v-4.5h5.3v5l1.7.4c8.7 2.4 13.4 8.5 14.1 18.3l-10.5 2.6c-.2-5.2-1.7-8.8-4.4-11.1l-.8-.6v23.3l5.3 4.2c3.1 2.4 5.6 5.3 7.6 8.7 2 3.4 2.9 7.3 2.9 11.6 0 5-1.4 8.9-4.3 11.9s-6.7 4.7-11.5 5.2v4.6h-5.4zm0-50.6v-20.5c-2.5 0-4.5.7-5.8 2.1-1.4 1.4-2.1 3.4-2.1 5.9 0 4.2 1.8 7.6 5.3 10.4l2.6 2.1zm5.3 37.2c3.5-.8 5.3-3.3 5.3-7.7 0-2.1-.4-4-1.2-5.6-.8-1.6-1.9-3.1-3.3-4.5l-.8-.8v18.6zM879.2 680v-4.6c-5.7-.4-10.1-2.6-13.2-6.5-3.1-3.9-4.8-9-5.2-15.2l10.5-2.6c.3 8 2.6 13.1 7 15.1l.9.3v-22.8l-10.5-8.4c-2.4-1.9-4.3-4.4-5.8-7.3-1.4-2.9-2.2-6.2-2.2-9.9 0-5.4 1.7-9.8 5.1-13 3.4-3.2 7.8-4.8 13.4-4.8v-4.5h5.3v5l1.7.4c8.7 2.4 13.4 8.5 14.1 18.3l-10.5 2.6c-.2-5.2-1.7-8.8-4.4-11.1l-.8-.6v23.3l5.3 4.2c3.1 2.4 5.6 5.3 7.6 8.7 2 3.4 2.9 7.3 2.9 11.6 0 5-1.4 8.9-4.3 11.9s-6.7 4.7-11.5 5.2v4.6h-5.4zm0-50.6v-20.5c-2.5 0-4.5.7-5.8 2.1-1.4 1.4-2.1 3.4-2.1 5.9 0 4.2 1.8 7.6 5.3 10.4l2.6 2.1zm5.2 37.2c3.5-.8 5.3-3.3 5.3-7.7 0-2.1-.4-4-1.2-5.6-.8-1.6-1.9-3.1-3.3-4.5l-.8-.8v18.6z"/></g><path fill="none" stroke="#353535" stroke-miterlimit="10" d="M711.2 418.5c-.8-2.8-.4-5.6 1.2-8 8.8 4.8 18.9 7.2 28.5 6 12.4-1.2 24.5-7.6 36.9-10 12.4-2.4 26.9.8 34.1 13.2 32.9-4 65.8-8.4 98.7-12.4 9.6-1.2 20.5-2 28.1 5.2"/><path fill="none" stroke="#353535" stroke-width="1.25" stroke-miterlimit="10" d="M714 506.7c3.2-5.6 8.4-11.2 13.6-9.2 2.4.8 4.4 3.6 6.8 5.2 7.6 6.8 18.5 5.2 27.7 3.6 3.2-.8 6.8-1.2 9.6-4 2-2 3.2-5.2 5.2-7.6 2-2.4 5.6-3.6 7.6-1.2 3.2 6.4 7.2 12 12 16.9M813.9 513.5c13.2-11.6 31.3-14.4 46.5-7.6-2-6 5.2-10 10.4-13.2 4.4-2.8 8-7.6 12.8-7.2 8.8.4 13.2 18.5 22.1 16.4 1.6-.4 3.2-1.6 4.8-2.4 10-5.6 22.1 0 32.5 5.6"/><path fill="#FAA21B" d="M552.3 329.8H379.4v-211c0-14.4 11.6-26.1 26.1-26.1h120.4c14.4 0 26.1 11.6 26.1 26.1v211h.3z"/><path fill="#F2F2F2" d="M523.5 296.5H408.3c-5.6 0-10-4.4-10-10.4V124.4c0-5.6 4.4-10 10-10H523c5.6 0 10 4.4 10 10v162.1c.5 5.6-3.9 10-9.5 10z"/></svg>