<?xml version="1.0" encoding="utf-8"?>
<!-- Generator: Adobe Illustrator 18.0.0, SVG Export Plug-In . SVG Version: 6.00 Build 0)  -->
<!DOCTYPE svg PUBLIC "-//W3C//DTD SVG 1.1//EN" "http://www.w3.org/Graphics/SVG/1.1/DTD/svg11.dtd">
<svg version="1.1" id="Layer_1" xmlns="http://www.w3.org/2000/svg" xmlns:xlink="http://www.w3.org/1999/xlink" x="0px" y="0px"
	 viewBox="296.4 0 683.2 800" enable-background="new 296.4 0 683.2 800" xml:space="preserve">
<path fill="#F9F9FA" d="M979.6,800l-37.7-40.1L904.2,800l-37.7-40.1L828.8,800l-37.7-40.1L753.3,800l-37.7-40.1L677.9,800
	l-37.7-40.1L602.5,800l-37.7-40.1L527.1,800l-37.7-40.1L451.6,800l-37.7-40.1L376.2,800l-37.7-40.1L300.8,800V55
	C300.4,24.9,322,0,348.5,0h582.9c26.5,0,48.1,24.9,48.1,55V800z"/>
<path fill="none" stroke="#000000" stroke-miterlimit="10" d="M296.4-26.9"/>
<path fill="none" stroke="#000000" stroke-miterlimit="10" d="M933.5-26.9"/>
<path fill="none" stroke="#000000" stroke-miterlimit="10" d="M891-26.9"/>
<path fill="none" stroke="#000000" stroke-miterlimit="10" d="M848.4-26.9"/>
<path fill="none" stroke="#000000" stroke-miterlimit="10" d="M805.9-26.9"/>
<path fill="none" stroke="#000000" stroke-miterlimit="10" d="M763.4-26.9"/>
<path fill="none" stroke="#000000" stroke-miterlimit="10" d="M720.8-26.9"/>
<path fill="none" stroke="#000000" stroke-miterlimit="10" d="M678.3-26.9"/>
<path fill="none" stroke="#000000" stroke-miterlimit="10" d="M636.2-26.9"/>
<path fill="none" stroke="#000000" stroke-miterlimit="10" d="M593.7-26.9"/>
<path fill="none" stroke="#000000" stroke-miterlimit="10" d="M551.1-26.9"/>
<path fill="none" stroke="#000000" stroke-miterlimit="10" d="M508.6-26.9"/>
<path fill="none" stroke="#000000" stroke-miterlimit="10" d="M466.1-26.9"/>
<path fill="none" stroke="#000000" stroke-miterlimit="10" d="M423.6-26.9"/>
<path fill="none" stroke="#000000" stroke-miterlimit="10" d="M381.4-26.9"/>
<path fill="none" stroke="#000000" stroke-miterlimit="10" d="M338.9-26.9"/>
<rect x="365.4" y="577.3" fill="#E2E2E2" width="291.3" height="138.8"/>
<rect x="357.8" y="44.1" fill="#A9A8A8" width="217.1" height="285.7"/>
<path fill="none" stroke="#353535" stroke-miterlimit="10" d="M360.6,377.9c14.8-4.4,31.3-4,46.1,1.2c8.4,2.8,20.9,5.6,23.7-3.2
	c16-0.8,32.1-0.4,48.1,0.8c2.8,0.4,5.6,0.4,8,2.4c2.8,2,3.6,6,5.2,8.8s6.8,4.4,8.4,1.6c6-5.6,8.4-14.8,6.8-22.9
	c4.4,1.2,8.8,2.4,13.6,3.2c0.4,8.8,11.6,13.2,20.5,12.4s18.1-3.6,26.1-0.8"/>
<rect x="606.1" y="109.1" fill="#E2E2E2" width="332.2" height="48.9"/>
<rect x="606.1" y="247.5" fill="#E2E2E2" width="332.2" height="48.9"/>
<path fill="none" stroke="#353535" stroke-miterlimit="10" d="M623.8,81.8c1.2-2,2.8-3.6,4-5.6c3.2-4.4,7.2-9.2,12.8-9.2
	c5.6,0,9.2,8.8,4.4,10.8c15.2-3.2,30.9-6.8,46.1-10c-0.4,4.4,0.8,8.8,3.2,12c10.8-0.4,21.3-2.4,31.7-6c8,11.2,28.9-10.8,37.7,0"/>
<path fill="none" stroke="#353535" stroke-miterlimit="10" d="M619.3,219.5c13.2-4,28.1-2.4,40.5,4c6-11.2,23.7-13.6,32.5-4.4
	c8.4,3.2,16.9-5.2,21.7-12.8c12-3.2,20.5,12.8,32.1,16.4c8.8,2.8,18.1-2.4,26.1-6.8"/>
<rect x="360.6" y="427.3" fill="#E2E2E2" width="40.1" height="40.1"/>
<rect x="549.5" y="427.3" fill="#E2E2E2" width="40.1" height="40.1"/>
<rect x="486.5" y="427.3" fill="#E2E2E2" width="40.1" height="40.1"/>
<rect x="612.5" y="427.3" fill="#E2E2E2" width="40.1" height="40.1"/>
<rect x="423.6" y="427.3" fill="#E2E2E2" width="40.1" height="40.1"/>
<g>
	<g>
		<g>
			<g>
				<g>
					<path fill="#216935" d="M654.2,411.6C654.6,411.6,654.2,411.6,654.2,411.6C653.8,411.6,654.6,411.6,654.2,411.6z"/>
					<polygon fill="#216935" points="654.2,413.6 654.2,413.6 654.6,414 					"/>
					<path fill="#216935" d="M653.4,415.2c0.8,0,0-0.8,0.4-0.8l0,0l-0.4-0.4C653.8,414.4,653.8,415.2,653.4,415.2z"/>
					<path fill="#216935" d="M651.8,415.6C652.2,415.6,651.8,415.6,651.8,415.6C651.8,415.2,651.8,415.2,651.8,415.6
						C651.8,415.2,651.8,415.2,651.8,415.6z"/>
					<path fill="#216935" d="M651.8,415.2C651.8,415.2,651.4,415.2,651.8,415.2L651.8,415.2z"/>
					<path fill="#216935" d="M651.4,416L651.4,416c-0.4-0.4-0.4,0-0.4-0.4C651,416,651.4,416,651.4,416z"/>
					<path fill="#216935" d="M651.8,416.4L651.8,416.4L651.8,416.4z"/>
					<path fill="#216935" d="M651.8,416L651.8,416C652.2,416.4,652.2,416.4,651.8,416C652.2,416.4,651.8,416,651.8,416z"/>
					<path fill="#216935" d="M652.2,416h0.4C652.6,415.6,652.2,415.6,652.2,416z"/>
					<path fill="#216935" d="M654.2,415.6L654.2,415.6L654.2,415.6C654.2,415.6,653.8,415.6,654.2,415.6z"/>
					<path fill="#216935" d="M650.6,417.3h0.4v-0.4C651,417.3,650.6,417.3,650.6,417.3z"/>
					<path fill="#216935" d="M651,417.7L651,417.7C651.4,417.7,651.4,417.7,651,417.7z"/>
					<path fill="#216935" d="M652.6,416.9l-0.4-0.4L652.6,416.9z"/>
					<polygon fill="#216935" points="650.2,418.1 649.8,418.1 650.2,418.5 					"/>
					<path fill="#216935" d="M649.8,418.9c-0.4-0.4-0.4,0-0.8-0.4C649,418.9,649.4,418.9,649.8,418.9
						C649.4,418.9,649.4,418.9,649.8,418.9z"/>
					<path fill="#216935" d="M649.8,419.7C649.8,419.3,649.4,419.3,649.8,419.7C649.4,419.3,649.4,419.3,649.8,419.7z"/>
					<path fill="#216935" d="M651,418.1h-0.4H651L651,418.1z"/>
					<path fill="#216935" d="M651,418.5L651,418.5L651,418.5L651,418.5z"/>
					<path fill="#216935" d="M651,418.1L651,418.1L651,418.1z"/>
					<path fill="#216935" d="M651.8,417.3c0,0.4,0.4,0.8,0.8,0.4C652.6,417.7,652.2,417.7,651.8,417.3z"/>
					<path fill="#216935" d="M651.4,418.5L651.4,418.5c0-0.4,0-0.4,0-0.4V418.5z"/>
					<path fill="#216935" d="M651.4,418.5L651.4,418.5L651.4,418.5z"/>
					<path fill="#216935" d="M650.2,419.3v0.4C650.6,419.7,650.6,419.7,650.2,419.3C650.6,419.3,650.2,419.3,650.2,419.3z"/>
					<path fill="#216935" d="M650.6,418.9L650.6,418.9L650.6,418.9z"/>
					<path fill="#216935" d="M649.4,420.9h0.4H649.4z"/>
					<path fill="#216935" d="M650.6,419.3C651,419.3,650.6,419.3,650.6,419.3L650.6,419.3L650.6,419.3z"/>
					<path fill="#216935" d="M649.8,420.1L649.8,420.1C649.8,420.1,649.4,420.1,649.8,420.1z"/>
					<path fill="#216935" d="M650.6,418.9L650.6,418.9L650.6,418.9z"/>
					<path fill="#216935" d="M650.6,418.9L650.6,418.9L650.6,418.9L650.6,418.9z"/>
					<path fill="#216935" d="M651.8,422.9c-0.4-0.4-0.4-0.8,0-0.8c0-0.4-1.2-0.8-2-0.8c0,0,0.4,0,0.4,0.4c0.4,0,0.8-0.4,0.8,0
						c0,0.4-0.4,0.4-0.4,0.4C651,422.1,651,422.5,651.8,422.9L651.8,422.9C651.4,422.5,651.8,422.9,651.8,422.9z"/>
					<path fill="#216935" d="M649.8,420.5L649.8,420.5c0,0-0.4,0-0.8,0c0,0.4,0,0.4,0.4,0.4L649.8,420.5L649.8,420.5z"/>
					<path fill="#216935" d="M650.2,420.1c0.4,0.4,0.4,0.8,0.8,0.8c0-0.4-0.4-0.4-0.4-0.8C650.6,420.5,650.6,419.7,650.2,420.1
						C650.2,420.1,650.2,419.7,650.2,420.1C650.2,419.7,650.2,419.7,650.2,420.1L650.2,420.1L650.2,420.1L650.2,420.1L650.2,420.1
						L650.2,420.1L650.2,420.1L650.2,420.1L650.2,420.1L650.2,420.1l-0.4,0.4C650.2,420.5,650.2,420.5,650.2,420.1z"/>
					<path fill="#216935" d="M653.4,418.5L653.4,418.5C653.4,418.5,653.4,418.9,653.4,418.5z"/>
					<path fill="#216935" d="M653,418.9C653,418.5,653,418.5,653,418.9C653,418.5,653,418.5,653,418.9
						C653,418.5,653,418.1,653,418.9L653,418.9c-0.4,0-1.2,0-1.2-0.4C652.2,418.5,652.6,418.9,653,418.9z"/>
					<path fill="#216935" d="M651.8,419.3v0.4h0.4L651.8,419.3C652.2,419.7,651.8,419.7,651.8,419.3z"/>
					<polygon fill="#216935" points="649.4,420.9 649,420.9 649.4,421.3 					"/>
					<path fill="#216935" d="M649,421.7v-0.4V421.7z"/>
					<path fill="#216935" d="M638.2,453L638.2,453C638.2,453.4,638.2,453,638.2,453z"/>
					<path fill="#216935" d="M638.6,452.2L638.6,452.2L638.6,452.2z"/>
					<path fill="#216935" d="M642.6,434.1c-0.4,0-1.2,0-0.8,0H642.6C642.2,434.5,642.6,434.5,642.6,434.1z"/>
					<path fill="#216935" d="M640.2,444.1L640.2,444.1L640.2,444.1L640.2,444.1z"/>
					<path fill="#216935" d="M641.8,445.3L641.8,445.3L641.8,445.3z"/>
					<path fill="#216935" d="M635.4,459.4v0.8C635.8,459.8,635.8,459.8,635.4,459.4z"/>
					<path fill="#216935" d="M646.6,426.9c-0.4,0-0.4,0-0.4,0.4C646.6,427.3,647,427.3,646.6,426.9z"/>
					<path fill="#216935" d="M634.6,450.6C634.6,450.6,634.6,451,634.6,450.6L634.6,450.6z"/>
					<path fill="#216935" d="M645.8,427.7L645.8,427.7c0,0,0-0.4,0.4-0.4C645.8,427.3,645.8,427.3,645.8,427.7z"/>
					<path fill="#216935" d="M620.1,449.3L620.1,449.3L620.1,449.3z"/>
					<path fill="#216935" d="M619.7,442.1C620.1,442.1,620.1,442.5,619.7,442.1C620.1,442.5,620.1,442.1,619.7,442.1z"/>
					<path fill="#216935" d="M647.8,423.7C647.8,423.3,647.8,423.7,647.8,423.7L647.8,423.7z"/>
					<path fill="#216935" d="M649.8,423.7C649.8,423.7,649.8,424.1,649.8,423.7C649.8,424.1,649.8,423.7,649.8,423.7z"/>
					<path fill="#216935" d="M647.8,430.1L647.8,430.1L647.8,430.1z"/>
					<path fill="#216935" d="M648.2,423.3C648.2,423.7,648.2,423.7,648.2,423.3C648.2,423.7,648.2,423.7,648.2,423.3z"/>
					<path fill="#216935" d="M647.8,423.3C648.2,423.3,648.2,423.3,647.8,423.3L647.8,423.3z"/>
					<path fill="#216935" d="M647.8,423.7L647.8,423.7L647.8,423.7L647.8,423.7z"/>
					<path fill="#216935" d="M627.8,456.2L627.8,456.2C627.4,456.2,627.4,456.2,627.8,456.2z"/>
					<path fill="#216935" d="M645,439.3L645,439.3L645,439.3z"/>
					<path fill="#216935" d="M645,439.7c-0.4-0.4-0.4-0.4,0-0.4l-1.2-0.4L645,439.7z"/>
					<path fill="#216935" d="M637.4,455.4h0.4c0.4,0.8,0,0.8,0.8,0.8c-1.2-0.8,0.4-1.2-0.8-2h0.4l0,0c0.8,0-0.8-0.8-0.4-1.2h0.4
						v-0.4c0,0,0.4,0,0,0v-0.4l0,0c0,0-0.4-0.4-0.4-0.8c0.4,0,0,0,0.4,0V451c0.4,0,0.4,0.4,0.4,0.8c1.2,0.4,0-0.4,0.8-0.8v0.4
						c0.8,0,0.8,0,1.2-0.4c-0.4,0-1.6,0-1.6-0.4c0,0,0.4,0,0-0.4c0.4,0.4,0.4,0,0.4-0.4l0.4,0.4c0-0.4-0.4-0.4-0.4-0.8
						c0-0.4,0.8,0,1.2,0c0.4-0.4-0.8,0-0.8-0.8c0.4-0.4,0.4-0.4,0-1.2c0.4,0,0.4,0.4,0.4,0.4l-0.4-0.4c0,0,0,0,0.4,0
						c0-0.4-0.4-0.4-0.4-0.8c-0.4-0.4,1.2,0,0.8-0.8c0.4,0,0.4,0.4,0.4,0.4c-0.4-0.8,0-0.4-0.4-1.2h0.4c-0.4,0-0.8-0.4-1.2-1.2
						c-0.4,0-0.4,0-0.4,0v-0.4c0,0,0.4,0,0.4,0.4l0,0c0.4,0,0.4,0.4,0.8,0.4h-0.4c0.4,0.4,0.8,0.4,0.8,0.8c0,0,0,0,0-0.4
						c0,0,0,0,0.4,0c0,0,0,0,0-0.4l0.8,0.4h-0.4l0.8-0.4c-0.4-0.8-1.2-1.6-1.2-2.4c0.4,0.4,0.8,0.4,1.2,0.8c-0.8,0,0,0.8-0.4,0.8
						h0.4l-0.4-0.8c0.4,0.4,0.4,0,0.8,0c-0.8-0.4-0.4-0.8-0.4-1.2c0.4,0,0.4,0.4,0.4,0.8c0.8,0-0.8-0.8,0-1.2c0,0,0,0,0,0.4
						c0-0.4,0.4-0.8,0.4-0.4l0,0c0.4-0.4,0.8-1.6,0-2c0,0,0.8,0.4,1.2,0.8l-2-2c0.8,0.4,2.4,0.8,2.4,1.6c0,0,0.4,0,0.4-0.4l-1.2-0.4
						c0.8,0,0.4,0,1.2,0c-0.4,0-1.2-0.8-1.2-0.8s1.2,0.4,1.2,0.8l-0.8-0.8c0,0.4,0.8,0.4,1.2,0.4c-0.4,0,0.4-0.4,0-0.4h-0.4
						c0.4-0.4-1.2-1.2-0.8-1.6c0,0,1.2,0.8,1.6,0.8c-0.4-0.4-2-2-2.4-2.4h0.4v-0.4c0.8,0.8,2,2,2.4,2.8c0.4,0,0.4,0,0.4,0
						c0.4,0,0.4,0.4,0.4,0.4l0.4-0.4c-0.8-0.4-0.4-0.8-0.8-1.2l0.4,1.2c-0.8-0.4-1.6-1.2-1.2-1.6c0.4,0,1.2,0.8,1.2,0.8v-0.8
						l0.4,0.4c0.4,0-0.4-0.8,0-0.8c0,0,0.8,0,0.4,0c-0.8,0-2.8-1.2-3.2-1.6c0,0,0.8-0.4,1.2-0.4c0.8,0,1.2,0.8,1.6,1.2l-0.4-0.4
						c0.4,0,0.4,0.4,0.4,0c-0.4-0.4,0.4-0.4-0.4-0.4c0-0.4,0.4-0.4,0.4-0.4c-0.4,0-1.2-0.8-1.2-1.2h0.4c0.4-0.4,0.8-0.8,0.8-1.2
						c0,0,0.4,0,0.8,0c0,0-0.4-0.4,0-0.4c0.8,0,0,0.4,0.8,0.4c-0.4-0.4-0.4-0.8-0.4-0.8c-0.4-0.4-0.4,0.4-0.4,0.8
						c-0.8-0.4-1.2-1.2-1.6-2c0-0.4,0.4,0,0.4,0c0.4-0.8-0.8-1.2,0-1.6c0.8,0,0.8,0.4,1.2,0.8c0,0.4-0.4,0.4-0.8,0.4h0.4v0.4
						c0.4,0,0.8-1.2,1.6-1.6c0,0,0-0.4-0.4-0.4v0.4c-0.4,0-0.4-0.8-0.8-0.4c0-0.4-0.4-0.8,0-1.2l0.4,0.4c0,0-0.4,0-0.4,0.4
						c0-0.4,1.2,0,0.4-0.8h-0.4c0-0.4-0.4-0.8-0.4-1.2c-0.8,0,0,0-0.8,0c0.8,0.4-0.4,0.8,0.4,0.8c-0.8,0-0.4,0.4-1.2,0
						c0,0,0.4,0,0,0.4l0,0l0,0l0,0l0,0h0.4c0.4,0.4,0,0.8,0.4,0.8c0,0,0,0-0.4,0l0.4,0.4c-0.4,0-0.8,0-0.8-0.4v0.4
						c-0.4,0-0.4,0.4-0.4,0.4s0.4,0.8,0,0.4v0.8l0,0c-0.4,0.4,0,1.2-0.8,1.6c0,0.4,0,0.4-0.4,0.8h-0.4c0,0.4-0.8,0.4-0.4,0.8
						c-1.2-0.4-0.8,0.8-1.2,1.2l0.4,0.4c0,0.4,0,0.4,0,0.8h0.4c0,0.4-0.8,0.4-0.8,1.2v-0.4c-1.2,0,0,1.6-0.8,1.6v0.4l0,0l0,0h-0.4
						h0.4v0.4h-0.4l0,0c-0.4,0,0,0.4,0.4,0.4v0.4c-0.8-0.4,0,0.4-0.8,0.4c0.4,0.4,0,0.8,0.8,1.2l0,0c0,0-0.4,0.4,0,0.4l-0.4-0.4
						l0.4,0.8c-0.4,0-0.8,0-0.8-0.4c0.4,0.8,0,0.4,0.4,1.2l-0.4-0.4c0,0,0.4,0.8,0,0.4c-0.8,0-0.8,1.6-2,2c1.2,0.4-0.8,0,0,0.8
						c-0.4,0-0.4,0-0.8-0.4c0,0.4-0.8,0.4-0.4,1.2c-0.4,0-0.4-0.4-0.4-0.4v0.4c0,0,0,0-0.4-0.4c0,0.4,0.4,0.8,1.2,1.2
						c-0.4,0-0.4,0,0,0.4c-0.4,0-0.4,0-0.4-0.4c0,0-0.8,0.8-0.4,1.2c0,0,0,0,0,0.4c-0.4,0.4-0.4,0.4-0.4,0.8l0,0
						c0.8,0.4,0,0.4,0,0.8l0,0c-0.8,0.4,0,0.4-0.8,0.8h0.4c0.8,0.4-0.8,0.4-0.8,0.8h0.4c0.4,0.4-1.6,0-1.6,0s0,0,0-0.4
						c-0.8,0.4,0.4,0.4,0.4,0.8c-0.4,0-0.8-0.4-0.8-0.4c-0.4,0,0.4,1.2,0,1.2c0.4,0,0.4,0,0.8,0.4c0,0.4-1.2,0.4-0.8,0.8
						c0,0,0,0-0.4,0c0,0.4,0,0.8,0.4,1.2c-1.6-0.4,0,1.6-1.2,0.8l-0.4,0.8l0,0c0,0,0,0.4,0.4,0.8c0,0-0.4,0-0.4-0.4
						c-0.4,0-0.4,0,0,1.2l-0.4-0.4c0,0.4-0.8-0.4-0.4,0.4v-0.4c0,1.2-0.4-0.8-0.4,0.8c0,0.4,0,0.4,0,0.8v0.4c0.4,0.4,0,1.2,0.4,2
						l-0.4-1.2l0,0c0-1.6-0.4-0.8-0.4-2c-0.4-0.4-0.8-1.6-1.2-2l-0.4,0.8v-0.4l0.4-0.4c0.4-0.4-0.4,0-0.4,0c0-0.8,0.8-0.4,0.8-0.4
						l0,0l0,0c-0.4,0-0.8,0.4-0.8,0c0-0.4,0.4-0.4,0.4-0.4l0,0l-0.4-0.4l-0.4,0.4c-0.4,0-0.4-0.4-0.8,0.4c0.4-0.8-0.8-1.6-0.8-2
						c-0.4,0-0.8-0.4-0.8-0.4s-0.4,0.8-0.8,0.4c1.2-0.8,0-0.8,0.4-1.6c-0.4,0.8-0.8-0.8-1.2,0.4c0-0.4,0.4-0.4,0.4-0.8
						c-0.8,0-0.8-1.2-1.2-2l-0.4,0.4l0.4-0.8c0,0-0.8,0.4-0.8,0l-0.4,0.4c-0.4-1.6-2.8-2-2.4-4.4c0,0.4-0.4,0.4-0.4,0l-0.4,0.4v-0.8
						c-0.4,0.4-0.4-0.4-1.2,0h0.4c-0.8,0.4-0.8,1.2-1.6,2c0.8-0.4-0.4,1.6,0.8,1.2c0,0.4-0.4,0-0.4,0.4c0.4,0,0.4,0,0.8,0.4l0,0
						c0.8,0.4,0.4,1.2,0.8,2l0.4-0.4v0.4c0.8-0.4-0.4-0.4,0.4-0.8c-0.4,0.8,0.8,1.2,0.4,2c0.4,0.4,0.4-0.4,0.4,0v0.4h0.4
						c0,0,0,0.4-0.4,0.8l0,0c0,0.4,0.4,0.4,0.4,0.8V453c0.8,0.4,1.2,1.6,2,1.6l0,0c0.8,0.4,0,0.4,0.8,0.8l0,0c0.4,0,0.4,0,0.4,0
						c-0.4,0,0,0.4-0.4,0.4c0.8,0.4,0.4,0,1.6,0l-0.4,0.4c0.4,0,0.4-0.4,0.8,0c-0.4,0-0.4,0.4-0.8,0.4c0,1.2,1.2,0.4,0.8,1.2
						c0.8-0.4,0-0.8,0.4-0.8c0-0.4,0.8-0.4,0.8,0c0,0-0.8,1.2-0.4,1.6l0,0c0,0.4,0.4,0,0.4,0.4c0.4-0.4,0.4,0.4,0.8,0l-0.4-0.4
						c0.4,0,1.2-0.4,1.2,0.4H629c0,0.4,0.4,0,0.4,0.4c-0.4,0.8-0.8-0.8-1.2-0.4c0,0.4,0.8,0,0,0.8c1.2-0.4,0.4,0.8,1.6,0.8l-0.4,0.4
						h0.4l-0.4,0.4c0.8,0,0.4,1.2,0.8,1.2c-0.8-0.8,0-0.8,0-1.6c1.2,0.4,0,2,1.2,2.8c0,0-0.4-0.8,0-0.8c0,0.4,0.4,0.8,0.4,1.2
						c0.8,0.8,0-0.8,0.4-0.8c0,1.2,0.4,0,0.4,0v0.8c0.8,1.2,0.4-1.2,0.8,0L633,465h0.4v0.8c0.4-0.4,0.4,0,0.8,0.8c0-0.4,0-0.8,0-1.2
						c0-0.4,0-0.4,0-0.8c0.4,0.4,0,0.8,0.4,0.4c0,0.8,0,1.6-0.4,0.8c0,0.4,0,0.8,0,0.8c0.4,0.4,0.4-0.8,0.4-0.8l0,0l-1.2-4.4
						c0,0,0,0.4,0,0.8c0-0.4,0-0.8,0-1.2c0,0.8,0.4,1.2,0,2l0.4-1.6c0,0,0.4,0,0.4,0.4c0.4-0.4,0.4-2,0.8-2.4V459
						c0.4-0.4,1.2-0.8,0.8-2h0.8c0-0.8-0.8,0-0.8-1.2c0-0.8,0.8,0,0.8,0C637.4,455.4,636.6,455,637.4,455.4
						C637.4,455,637.4,455,637.4,455.4z M639.4,451C639.4,451,639.4,451.4,639.4,451C638.6,451,639,451,639.4,451z M641.4,444.1
						L641.4,444.1L641.4,444.1z M647.8,424.9L647.8,424.9C647.4,424.9,647.4,424.9,647.8,424.9z M647.8,424.5L647.8,424.5
						C647.8,424.5,647.8,424.9,647.8,424.5C647.8,424.9,648.2,424.9,647.8,424.5z M629.4,453L629.4,453
						C629,453.4,629,453.4,629.4,453z"/>
					<path fill="#216935" d="M641.8,444.9C641.8,444.9,641.4,444.9,641.8,444.9C641.4,444.9,641.4,444.9,641.8,444.9z"/>
					<path fill="#216935" d="M635.4,459.4L635.4,459.4L635.4,459.4z"/>
					<path fill="#216935" d="M648.6,432.5L648.6,432.5L648.6,432.5z"/>
					<path fill="#216935" d="M648.2,422.5L648.2,422.5C648.2,422.5,648.6,422.5,648.2,422.5C648.6,422.5,648.2,422.5,648.2,422.5z"
						/>
					<path fill="#216935" d="M652.2,421.7C651.8,421.7,652.2,421.7,652.2,421.7L652.2,421.7C651.8,421.7,651.8,421.7,652.2,421.7z"
						/>
					<path fill="#216935" d="M649.8,422.9C650.2,422.9,650.2,422.9,649.8,422.9L649.8,422.9C649.8,422.5,649.8,422.5,649.8,422.9z"
						/>
					<path fill="#216935" d="M650.2,422.5L650.2,422.5C650.2,422.1,650.2,422.5,650.2,422.5z"/>
					<path fill="#216935" d="M648.2,424.1C648.2,424.1,647.4,423.7,648.2,424.1C647.4,423.3,648.2,424.5,648.2,424.1z"/>
					<path fill="#216935" d="M651,423.3h-0.4H651z"/>
					<path fill="#216935" d="M650.2,424.5L650.2,424.5C650.2,424.1,650.2,424.1,650.2,424.5C650.2,424.1,649.8,424.5,650.2,424.5z"
						/>
					<path fill="#216935" d="M650.2,424.1L650.2,424.1L650.2,424.1z"/>
					<polygon fill="#216935" points="651,423.7 651,423.7 650.6,424.1 					"/>
					<path fill="#216935" d="M648.6,427.3L648.6,427.3C648.6,427.7,648.6,427.7,648.6,427.3L648.6,427.3z"/>
					<path fill="#216935" d="M650.2,426.9h-0.4H650.2L650.2,426.9z"/>
					<path fill="#216935" d="M649.8,428.1C650.2,428.1,650.2,428.5,649.8,428.1C650.2,428.1,650.2,427.7,649.8,428.1z"/>
					<polygon fill="#216935" points="647,432.1 647,431.7 646.2,431.3 					"/>
					<path fill="#216935" d="M647,436.9c0.4-0.4-0.4-0.4,0-0.4h-0.4C646.6,436.9,646.6,436.9,647,436.9z"/>
					<path fill="#216935" d="M646.6,436.5C646.6,436.5,646.6,436.1,646.6,436.5C646.6,436.1,646.6,436.5,646.6,436.5z"/>
					<path fill="#216935" d="M619.7,441.3v-0.4V441.3z"/>
					<path fill="#216935" d="M618.9,441.3l0.4-0.4L618.9,441.3L618.9,441.3z"/>
					<path fill="#216935" d="M640.6,451L640.6,451c-0.4,0-0.4,0-0.4,0H640.6z"/>
					<polygon fill="#216935" points="638.6,453.8 638.6,453.8 638.2,453.4 					"/>
					<path fill="#216935" d="M637.8,457c0,0,0-0.4,0.4-0.8C638.2,456.6,637.4,456.6,637.8,457z"/>
				</g>
			</g>
		</g>
	</g>
</g>
<g>
	<g>
		<g>
			<g>
				<g>
					<path fill="#216935" d="M462.9,421.7C462.9,421.7,462.5,421.3,462.9,421.7C462.5,421.7,462.9,421.7,462.9,421.7z"/>
					<polygon fill="#216935" points="462.9,423.7 462.9,423.7 462.9,424.1 					"/>
					<path fill="#216935" d="M462.1,424.9c0.8,0,0-0.4,0.4-0.8l0,0l-0.4-0.4C462.5,424.5,462.5,424.9,462.1,424.9z"/>
					<path fill="#216935" d="M460.5,425.3C460.9,425.3,460.5,425.3,460.5,425.3C460.5,424.9,460.5,424.9,460.5,425.3
						C460.5,424.9,460.5,424.9,460.5,425.3z"/>
					<path fill="#216935" d="M460.5,424.9C460.5,424.9,460.1,424.9,460.5,424.9L460.5,424.9z"/>
					<path fill="#216935" d="M460.5,425.7L460.5,425.7c-0.4-0.4-0.4,0-0.4-0.4C459.7,425.7,460.1,425.7,460.5,425.7z"/>
					<path fill="#216935" d="M460.5,426.1L460.5,426.1L460.5,426.1z"/>
					<path fill="#216935" d="M460.5,425.7L460.5,425.7C460.9,426.1,460.9,426.1,460.5,425.7C460.9,426.1,460.5,425.7,460.5,425.7z"
						/>
					<path fill="#216935" d="M460.9,425.7h0.4C461.3,425.3,460.9,425.3,460.9,425.7z"/>
					<path fill="#216935" d="M462.9,425.3L462.9,425.3L462.9,425.3C462.9,425.3,462.5,425.3,462.9,425.3z"/>
					<path fill="#216935" d="M459.3,426.9h0.4v-0.4C459.7,426.9,459.7,426.9,459.3,426.9z"/>
					<path fill="#216935" d="M460.1,426.9L460.1,426.9C460.1,427.3,460.1,427.3,460.1,426.9z"/>
					<path fill="#216935" d="M461.3,426.5l-0.4-0.4L461.3,426.5z"/>
					<path fill="#216935" d="M458.9,427.7l-0.4-0.4L458.9,427.7z"/>
					<path fill="#216935" d="M458.5,428.1c-0.4-0.4-0.4,0-0.8-0.4C458.1,428.1,458.1,428.5,458.5,428.1
						C458.1,428.5,458.5,428.5,458.5,428.1z"/>
					<path fill="#216935" d="M458.5,428.9L458.5,428.9L458.5,428.9z"/>
					<path fill="#216935" d="M459.7,427.7h-0.4H459.7L459.7,427.7z"/>
					<path fill="#216935" d="M459.7,427.7L459.7,427.7C459.7,428.1,459.7,428.1,459.7,427.7C459.7,428.1,459.7,428.1,459.7,427.7z"
						/>
					<path fill="#216935" d="M459.7,427.7L459.7,427.7L459.7,427.7z"/>
					<path fill="#216935" d="M460.9,426.9c0,0.4,0.4,0.8,0.8,0.4C461.3,427.3,460.9,427.3,460.9,426.9z"/>
					<path fill="#216935" d="M460.5,427.7L460.5,427.7C460.5,427.7,460.1,427.7,460.5,427.7L460.5,427.7z"/>
					<polygon fill="#216935" points="460.5,428.1 460.5,427.7 460.1,428.1 					"/>
					<path fill="#216935" d="M458.9,428.9v0.4C459.3,429.3,459.3,428.9,458.9,428.9C459.3,428.9,458.9,428.5,458.9,428.9z"/>
					<path fill="#216935" d="M459.3,428.5L459.3,428.5L459.3,428.5z"/>
					<path fill="#216935" d="M458.5,430.5L458.5,430.5L458.5,430.5z"/>
					<path fill="#216935" d="M459.3,428.9C459.7,428.9,459.7,428.9,459.3,428.9C459.3,428.5,459.3,428.9,459.3,428.9L459.3,428.9z"
						/>
					<path fill="#216935" d="M458.5,429.3L458.5,429.3L458.5,429.3z"/>
					<path fill="#216935" d="M459.3,428.5L459.3,428.5L459.3,428.5z"/>
					<path fill="#216935" d="M459.3,428.5L459.3,428.5L459.3,428.5L459.3,428.5z"/>
					<path fill="#216935" d="M460.5,432.1c-0.4-0.4-0.4-0.8,0-0.8c0-0.4-1.2-0.8-2-0.8c0,0,0.4,0,0.4,0.4c0.4,0,0.8-0.4,0.8,0
						c0,0.4-0.4,0-0.4,0.4C459.7,431.3,459.7,432.1,460.5,432.1L460.5,432.1L460.5,432.1z"/>
					<path fill="#216935" d="M458.9,430.1L458.9,430.1c0,0-0.4,0-0.8,0C458.1,430.1,458.5,430.5,458.9,430.1L458.9,430.1
						L458.9,430.1z"/>
					<path fill="#216935" d="M458.9,429.3c0.4,0.4,0.4,0.4,0.8,0.8c0-0.4-0.4-0.4-0.4-0.8C459.3,430.1,459.3,429.3,458.9,429.3
						L458.9,429.3L458.9,429.3L458.9,429.3L458.9,429.3L458.9,429.3L458.9,429.3L458.9,429.3L458.9,429.3
						C458.9,429.7,458.9,429.3,458.9,429.3L458.9,429.3L458.9,429.3l-0.4,0.4C458.9,429.7,458.9,429.7,458.9,429.3z"/>
					<path fill="#216935" d="M462.1,428.1L462.1,428.1L462.1,428.1z"/>
					<path fill="#216935" d="M461.7,428.1L461.7,428.1L461.7,428.1C462.1,428.1,461.7,427.7,461.7,428.1L461.7,428.1
						c-0.4,0-1.2-0.4-1.2-0.4C460.9,428.1,461.3,428.1,461.7,428.1z"/>
					<path fill="#216935" d="M460.5,428.9v0.4h0.4L460.5,428.9C460.9,429.3,460.5,428.9,460.5,428.9z"/>
					<path fill="#216935" d="M458.1,430.5l-0.4-0.4L458.1,430.5z"/>
					<polygon fill="#216935" points="458.1,430.9 457.7,430.9 457.7,430.9 					"/>
					<path fill="#216935" d="M448,461L448,461L448,461z"/>
					<path fill="#216935" d="M448.4,460.2L448.4,460.2L448.4,460.2z"/>
					<path fill="#216935" d="M451.6,442.9c-0.4,0-1.2,0-0.8,0H451.6L451.6,442.9z"/>
					<path fill="#216935" d="M449.6,452.6L449.6,452.6C449.6,452.6,449.6,452.2,449.6,452.6L449.6,452.6z"/>
					<path fill="#216935" d="M451.2,453.4L451.2,453.4C450.8,453.4,451.2,453.4,451.2,453.4z"/>
					<path fill="#216935" d="M445.2,467.4v0.8C445.6,467.4,445.2,467.4,445.2,467.4z"/>
					<path fill="#216935" d="M455.6,436.1c-0.4,0-0.4,0-0.4,0.4C455.2,436.1,455.6,436.1,455.6,436.1z"/>
					<path fill="#216935" d="M444,458.6L444,458.6L444,458.6z"/>
					<path fill="#216935" d="M454.8,436.5L454.8,436.5c0,0,0-0.4,0.4-0.4C454.8,436.1,454.8,436.5,454.8,436.5z"/>
					<path fill="#216935" d="M430.4,457.4L430.4,457.4L430.4,457.4z"/>
					<path fill="#216935" d="M430.4,450.6L430.4,450.6L430.4,450.6z"/>
					<path fill="#216935" d="M456.9,432.9C456.9,432.5,456.9,432.9,456.9,432.9L456.9,432.9z"/>
					<path fill="#216935" d="M458.5,432.9C458.5,433.3,458.5,433.3,458.5,432.9C458.5,433.3,458.5,433.3,458.5,432.9z"/>
					<path fill="#216935" d="M456.9,438.9L456.9,438.9L456.9,438.9z"/>
					<path fill="#216935" d="M456.9,432.9L456.9,432.9L456.9,432.9z"/>
					<path fill="#216935" d="M456.9,432.5L456.9,432.5L456.9,432.5z"/>
					<path fill="#216935" d="M456.9,432.9L456.9,432.9L456.9,432.9L456.9,432.9z"/>
					<path fill="#216935" d="M437.6,464.2L437.6,464.2L437.6,464.2z"/>
					<path fill="#216935" d="M454.4,447.7L454.4,447.7L454.4,447.7z"/>
					<path fill="#216935" d="M454.4,448.1c-0.4-0.4-0.4-0.4,0-0.4l-1.2-0.4L454.4,448.1z"/>
					<path fill="#216935" d="M446.8,463h0.4c0.4,0.8,0,0.8,0.8,0.8c-1.2-0.8,0.4-1.2-0.8-1.6h0.4l0,0c0.8,0-0.8-0.8-0.4-1.2h0.4
						v-0.4c0,0,0.4,0,0,0v-0.4l0,0c0,0-0.4-0.4-0.4-0.8c0.4,0,0,0,0.4,0V459c0.4,0,0.4,0.4,0.4,0.8c1.2,0.4,0-0.4,0.8-0.8v0.4
						c0.8,0,0.8,0,1.2-0.4c-0.4,0-1.2,0-1.6-0.4c0,0,0.4,0,0-0.4c0.4,0.4,0.4,0,0.4-0.4l0.4,0.4c0-0.4-0.4-0.4-0.4-0.8
						c0-0.4,0.8,0,1.2,0c0.4-0.4-0.8,0-0.8-0.8c0.4-0.4,0.4-0.4,0-1.2c0.4,0,0.4,0.4,0.4,0.4l-0.4-0.4c0,0,0,0,0.4,0
						c0-0.4-0.4-0.4-0.4-0.8c-0.4-0.4,1.2,0,0.8-0.8c0.4,0,0.4,0.4,0.4,0.4c-0.4-0.8,0-0.4-0.4-1.2h0.4c-0.4,0-0.8-0.4-1.2-1.2
						c-0.4,0-0.4,0-0.4,0v-0.4c0,0,0.4,0,0.4,0.4l0,0c0.4,0,0.4,0.4,0.8,0.4h-0.4c0.4,0.4,0.8,0.4,0.8,0.8c0,0,0,0,0-0.4
						c0,0,0,0,0.4,0c0,0,0,0,0-0.4l0.8,0.4h-0.4l0.8-0.4c-0.4-0.8-1.2-1.6-1.2-2.4c0.4,0.4,0.8,0.4,1.2,0.8c-0.8,0,0,0.8-0.4,0.8
						h0.4l-0.4-0.8c0.4,0.4,0.4,0,0.8,0c-0.8-0.4-0.4-0.8-0.4-1.2c0.4,0,0.4,0.4,0.4,0.8c0.8,0-0.8-0.8,0-0.8l0,0
						c0-0.4,0.4-0.4,0.4-0.4l0,0c0.4-0.4,0.8-1.6,0-2c0,0,0.8,0.4,1.2,0.8l-2-2c0.8,0.4,2.4,0.8,2.4,1.6c0,0,0.4,0,0.4-0.4l-1.2-0.4
						c0.8,0,0.4,0,1.2,0l-1.2-0.8c0,0,1.2,0.4,1.2,0.8l-0.8-0.8c0,0.4,0.8,0.4,1.2,0.4c-0.4,0,0.4-0.4,0-0.4h-0.4
						c0.4-0.4-1.2-1.2-0.8-1.6c0,0,1.2,0.8,1.6,0.8c-0.4-0.4-2-1.6-2.4-2.4h0.4v-0.4c0.8,0.8,2,2,2.4,2.8c0.4,0,0.4,0,0.4,0
						c0.4,0,0.4,0.4,0.4,0.4l0.4-0.4c-0.8-0.4-0.4-0.8-0.8-1.2l0.4,1.2c-0.8-0.4-1.6-1.2-1.2-1.6c0.4,0,1.2,0.8,1.2,0.8v-0.8
						l0.4,0.4c0.4,0-0.4-0.8,0-0.8c0,0,0.8,0,0.4,0c-0.8,0-2.8-1.2-3.2-1.6c0,0,0.8-0.4,1.2,0c0.8,0,1.2,0.8,1.6,1.2l-0.4-0.4
						c0,0,0.4,0.4,0.4,0c-0.4-0.4,0.4-0.4-0.4-0.4c0-0.4,0.4,0,0.4-0.4c-0.4,0-1.2-0.8-1.2-1.2h0.4c0.4-0.4,0.8-0.4,0.8-1.2
						c0,0,0.4,0,0.8,0c0,0-0.4-0.4,0-0.4c0.8,0,0,0.4,0.8,0.4c-0.4-0.4-0.4-0.8-0.4-0.8c-0.4-0.4-0.4,0.4-0.4,0.8
						c-0.8-0.4-1.2-1.2-1.6-2c0-0.4,0.4,0,0.4,0c0.4-0.8-0.8-1.2,0-1.6c0.4,0,0.8,0.4,1.2,0.8c0,0.4-0.4,0.4-0.8,0.4h0.4v0.4
						c0.4,0,0.8-1.2,1.2-1.6c0,0,0-0.4-0.4-0.4v0.4c-0.4,0-0.4-0.8-0.8-0.4c0-0.4-0.4-0.8,0-1.2l0.4,0.4c0,0-0.4,0-0.4,0.4
						c0-0.4,0.8,0,0.4-0.8h-0.4c0-0.4-0.4-0.8-0.4-1.2c-0.8,0,0,0-0.8,0c0.8,0.4-0.4,0.8,0.4,0.8c-0.8,0-0.4,0.4-1.2,0
						c0,0,0.4,0,0,0.4l0,0l0,0l0,0l0,0h0.4c0.4,0.4,0,0.8,0.4,0.8c0,0,0,0-0.4,0l0.4,0.4c-0.4,0-0.8,0-0.8-0.4v0.4
						c-0.4,0-0.4,0.4-0.4,0.4s0.4,0.4,0,0.4v0.8l0,0c-0.4,0.4,0,1.2-0.8,1.6c0,0.4,0,0.4,0,0.8H454c0,0.4-0.8,0.4-0.4,0.8
						c-1.2-0.4-0.8,0.8-1.2,1.2l0.4,0.4c0,0.4,0,0.4,0,0.8h0.4c0,0.4-0.8,0.4-0.8,0.8c0,0,0,0,0-0.4c-1.2,0,0,1.2-0.8,1.6v0.4l0,0
						l0,0h-0.4h0.4v0.4h-0.4l0,0c-0.4,0,0,0.4,0.4,0.4v0.4c-0.8-0.4,0,0.4-0.8,0.4c0.4,0.4,0,0.8,0.8,1.2l0,0c0,0-0.4,0.4,0,0.4
						l-0.4-0.4l0.4,0.8c-0.4,0-0.8,0-0.8-0.4c0.4,0.8,0,0.4,0.4,1.2l-0.4-0.4c0,0,0.4,0.8,0,0.4c-0.8,0-0.8,1.6-2,2
						c1.2,0.4-0.8,0,0,0.4c-0.4,0-0.4,0-0.8-0.4c0,0.4-0.8,0.4,0,1.2c-0.4,0-0.4-0.4-0.4-0.4v0.4c0,0,0,0-0.4-0.4
						c0,0.4,0.4,0.8,1.2,1.2c-0.4,0-0.4,0,0,0.4c-0.4,0-0.4,0-0.4-0.4c0,0-0.8,0.8-0.4,1.2c0,0,0,0,0,0.4c-0.4,0.4-0.4,0.4-0.4,0.8
						l0,0c0.8,0.4,0,0.4,0,0.8l0,0c-0.8,0.4,0,0.4-0.8,0.8h0.4c0.8,0.4-0.8,0.4-0.8,0.8h0.4c0.4,0.4-1.6,0-1.6,0s0,0,0-0.4
						c-0.8,0.4,0.4,0.4,0.4,0.8c-0.4,0-0.8-0.4-0.8-0.4c-0.4,0,0.8,1.2,0,1.2c0.4,0,0.4,0,0.8,0.4c0,0.4-1.2,0.4-0.8,0.8
						c0,0,0,0-0.4,0c0,0.4,0,0.8,0.4,1.2c-1.6-0.4,0,1.6-1.2,0.8c0,0,0,0,0,0.4l0,0l0,0c0,0,0,0.4,0.4,0.8c0,0,0,0-0.4-0.4
						c-0.4,0-0.4,0,0,1.2l-0.4-0.4c0,0.4-0.8-0.4-0.4,0.4v-0.4c0,1.2-0.4-0.8-0.4,0.4c0,0.4,0,0.4,0,0.8v0.4c0.4,0.4,0,1.2,0.4,2
						l-0.4-1.2l0,0c0-1.6-0.4-0.8-0.4-2c-0.4-0.4-0.8-1.6-0.8-2l-0.4,0.8v-0.4l0.4-0.4c0.4-0.4-0.4,0-0.4,0c0-0.4,0.8-0.4,0.8-0.4
						l0,0l0,0c-0.4,0-0.4,0.4-0.8,0c0-0.4,0.4-0.4,0.4-0.4l0,0l-0.4-0.4l-0.4,0.4c-0.4,0-0.4-0.4-0.8,0.4c0.4-0.8-0.8-1.6-0.8-2
						c-0.4,0-0.8,0-0.8-0.4c0,0-0.4,0.8-0.8,0.4c1.2-0.8,0-0.8,0.8-1.6c-0.4,0.4-0.8-0.4-1.2,0.4c0-0.4,0.4-0.4,0.4-0.8
						c-0.8,0-0.8-1.2-1.2-1.6l-0.4,0.4l0.4-0.8c0,0-0.8,0.4-0.4,0l-0.4,0.4c-0.4-1.6-2.4-2-2.4-4c0,0.4-0.4,0.4-0.4,0l-0.4,0.4v-0.8
						c-0.4,0.4-0.4-0.4-1.2,0h0.4c-0.8,0.4-1.2,1.2-1.6,2c0.8-0.4-0.4,1.6,0.8,1.2c0,0.4-0.4,0-0.4,0.4c0.4,0,0.4,0,0.8,0.4l0,0
						c0.8,0.4,0.4,1.2,0.8,2l0.4-0.4v0.4c0.8-0.4-0.4-0.4,0.4-0.8c-0.4,0.8,0.8,1.2,0,2c0,0.4,0.4-0.4,0.4,0v0.4h0.4
						c0,0,0,0.4-0.4,0.8l0,0c0,0.4,0.4,0.4,0.4,0.8v-0.4c0.8,0.4,1.2,1.6,2,1.6l0,0c0.8,0,0,0.4,0.8,0.8l0,0c0.4,0,0.4,0,0.4,0
						c-0.4,0,0,0.4-0.4,0.4c0.8,0.4,0.4,0,1.2,0l-0.4,0.4c0.4,0,0.4-0.4,0.8,0c-0.4,0-0.4,0.4-0.8,0.4c0,1.2,1.2,0.4,0.8,1.2
						c0.8-0.4,0-0.8,0.4-0.8c0-0.4,0.8-0.4,0.8,0c0,0-0.8,1.2-0.4,1.6l0,0c0,0.4,0.4,0,0.4,0.4c0.4-0.4,0.4,0.4,0.8,0l-0.4-0.4
						c0.4,0,1.2-0.4,1.2,0.4h-0.4c0,0.4,0.4,0,0.4,0.4c-0.4,0.8-0.8-0.4-1.6-0.4c0,0.4,0.8,0.4,0.4,0.8c0.8-0.4,0.4,0.8,1.2,0.4
						l-0.4,0.4h0.4l-0.4,0.4c0.4,0,0.4,1.2,0.8,1.2c-0.8-0.8,0-0.8,0-1.6c0.8,0,0,2,1.2,2.8c0,0-0.4-0.8,0-0.8
						c0,0.4,0.4,0.8,0.4,1.2c0.8,0.8,0-0.8,0.4-0.8c0,1.2,0.4,0,0.4,0v0.8c0.8,1.2,0-1.2,0.8,0l-0.4,0.8h0.4v0.8
						c0.4-0.4,0.4,0,0.8,0.8c0-0.4,0-0.8,0-1.2c0-0.4,0-0.4,0-0.8c0,0.4,0,0.8,0.4,0.4c0,0.8,0,1.6-0.4,0.8c0,0.4,0,0.8,0,0.8
						c0.4,0.4,0.4-0.8,0.4-0.8l0,0l0.4-2c0,0,0,0.4,0,0.8c0-0.4,0-0.8,0-0.8c0,0.8,0.4,1.2,0,2l0.4-1.6c0,0,0.4,0,0.4,0.4
						c0.4-0.4,0.4-2,0.8-2.4V469c0.4-0.4,0.8-0.8,0.8-1.6h0.8c0-0.8-0.8,0-0.8-1.2c0-0.8,0.8,0,0.8,0
						C446.8,463.8,446.8,463.4,446.8,463C446.8,463,446.8,462.6,446.8,463C447.2,462.6,446.8,463,446.8,463z M448.8,459
						C448.8,459,448.8,459.4,448.8,459C448.4,459,448.4,459,448.8,459z M450.8,452.2C450.8,452.6,450.8,452.6,450.8,452.2
						C450.4,452.6,450.8,452.6,450.8,452.2z M456.4,434.1L456.4,434.1L456.4,434.1z M456.9,433.7L456.9,433.7
						C456.9,433.7,456.9,434.1,456.9,433.7C456.9,434.1,456.9,434.1,456.9,433.7z M439.2,461L439.2,461L439.2,461z"/>
					<path fill="#216935" d="M451.2,453.4C450.8,453.4,450.8,453.4,451.2,453.4C450.8,453.4,450.8,453.4,451.2,453.4z"/>
					<polygon fill="#216935" points="445.2,467 445.2,467 445.2,467.4 					"/>
					<path fill="#216935" d="M457.7,441.3L457.7,441.3L457.7,441.3z"/>
					<path fill="#216935" d="M457.3,431.7L457.3,431.7L457.3,431.7L457.3,431.7z"/>
					<path fill="#216935" d="M460.9,430.9L460.9,430.9L460.9,430.9C460.5,430.9,460.5,431.3,460.9,430.9z"/>
					<path fill="#216935" d="M458.9,432.1C458.9,432.5,458.9,432.1,458.9,432.1L458.9,432.1C458.5,431.7,458.5,431.7,458.9,432.1z"
						/>
					<path fill="#216935" d="M458.9,431.7L458.9,431.7L458.9,431.7z"/>
					<path fill="#216935" d="M456.9,433.3C456.9,433.3,456.4,432.9,456.9,433.3C456,432.9,456.9,433.7,456.9,433.3z"/>
					<polygon fill="#216935" points="460.1,432.5 459.3,432.5 459.7,432.9 					"/>
					<path fill="#216935" d="M458.9,433.7L458.9,433.7C459.3,433.3,459.3,433.3,458.9,433.7L458.9,433.7z"/>
					<path fill="#216935" d="M459.3,433.3L459.3,433.3C459.3,433.3,458.9,433.3,459.3,433.3z"/>
					<polygon fill="#216935" points="460.1,432.9 459.7,432.9 459.7,433.3 					"/>
					<path fill="#216935" d="M457.3,436.5L457.3,436.5C457.7,436.9,457.7,436.9,457.3,436.5C457.7,436.5,457.7,436.5,457.3,436.5z"
						/>
					<path fill="#216935" d="M459.3,436.1h-0.4H459.3L459.3,436.1z"/>
					<path fill="#216935" d="M458.9,436.9C458.9,437.3,458.9,437.7,458.9,436.9C458.9,437.3,459.3,436.9,458.9,436.9z"/>
					<polygon fill="#216935" points="456,440.9 456,440.9 455.2,440.5 					"/>
					<path fill="#216935" d="M456,445.7c0.4-0.4-0.4-0.4,0-0.4h-0.4C455.6,445.3,455.6,445.3,456,445.7z"/>
					<path fill="#216935" d="M455.6,444.9L455.6,444.9L455.6,444.9z"/>
					<polygon fill="#216935" points="430.4,449.3 430.4,449.3 430,449.3 					"/>
					<path fill="#216935" d="M429.6,449.7l0.4-0.4L429.6,449.7C429.2,449.3,429.6,449.3,429.6,449.7z"/>
					<path fill="#216935" d="M450,459L450,459c-0.4,0-0.4,0-0.4,0H450z"/>
					<polygon fill="#216935" points="448.4,461.4 448.4,461.4 447.6,461.4 					"/>
					<path fill="#216935" d="M447.6,464.6c0,0,0-0.4,0.4-0.8C447.6,464.6,446.8,464.2,447.6,464.6z"/>
				</g>
			</g>
		</g>
	</g>
</g>
<path fill="none" stroke="#353535" stroke-miterlimit="10" d="M365.4,536c0-1.6,0-2.8,0-4.4c3.6-2.8,8.4-4,13.2-2.8
	c0.8,4.4,5.2,7.6,10,8c4.8,0.4,9.2-1.2,13.2-2.8c-0.8-3.2,4.4-4.8,6.8-2.8c2.4,2,2.8,5.6,2.8,8.8c7.6-1.6,15.6-3.6,22.9,0
	c3.6,2,7.2,5.2,11.6,4.4c4.4-0.8,6-6,9.6-8.4c4-2.8,10.4-1.2,12.8,2.8c4,3.2,9.6-0.8,13.2-4c2.8-2.8,6-5.6,8.8-8.4
	c1.2,7.6,10,11.6,17.3,9.6"/>
<path fill="none" stroke="#353535" stroke-miterlimit="10" d="M786.2,460.2c1.2-1.6,2.8-3.6,4-5.2c4-0.8,10,0,10,4
	c4.4,1.6,8.8-2.8,13.6-3.6c4.8-0.4,8.8,3.2,13.2,4.8c6.8,2.8,15.2,0.8,20.1-4.8c0.8-0.8,1.6-2,2.4-2.4c1.2-0.4,2,0,3.2,0.4
	c4.4,1.2,8,4,10.4,8"/>
<g enable-background="new    ">
	<path fill="#0A7139" d="M779.1,680v-4.6c-5.7-0.4-10.1-2.6-13.2-6.5c-3.1-3.9-4.8-9-5.2-15.2l10.5-2.6c0.3,8,2.6,13.1,7,15.1
		l0.9,0.3v-22.8l-10.5-8.4c-2.4-1.9-4.3-4.4-5.8-7.3c-1.4-2.9-2.2-6.2-2.2-9.9c0-5.4,1.7-9.8,5.1-13c3.4-3.2,7.8-4.8,13.4-4.8v-4.5
		h5.3v5l1.7,0.4c8.7,2.4,13.4,8.5,14.1,18.3l-10.5,2.6c-0.2-5.2-1.7-8.8-4.4-11.1l-0.8-0.6v23.3l5.3,4.2c3.1,2.4,5.6,5.3,7.6,8.7
		c2,3.4,2.9,7.3,2.9,11.6c0,5-1.4,8.9-4.3,11.9s-6.7,4.7-11.5,5.2v4.6H779.1z M779.1,629.4v-20.5c-2.5,0-4.5,0.7-5.8,2.1
		c-1.4,1.4-2.1,3.4-2.1,5.9c0,4.2,1.8,7.6,5.3,10.4L779.1,629.4z M784.4,666.6c3.5-0.8,5.3-3.3,5.3-7.7c0-2.1-0.4-4-1.2-5.6
		c-0.8-1.6-1.9-3.1-3.3-4.5l-0.8-0.8V666.6z"/>
	<path fill="#0A7139" d="M829.1,680v-4.6c-5.7-0.4-10.1-2.6-13.2-6.5c-3.1-3.9-4.8-9-5.2-15.2l10.5-2.6c0.3,8,2.6,13.1,7,15.1
		l0.9,0.3v-22.8l-10.5-8.4c-2.4-1.9-4.3-4.4-5.8-7.3c-1.4-2.9-2.2-6.2-2.2-9.9c0-5.4,1.7-9.8,5.1-13c3.4-3.2,7.8-4.8,13.4-4.8v-4.5
		h5.3v5l1.7,0.4c8.7,2.4,13.4,8.5,14.1,18.3l-10.5,2.6c-0.2-5.2-1.7-8.8-4.4-11.1l-0.8-0.6v23.3l5.3,4.2c3.1,2.4,5.6,5.3,7.6,8.7
		c2,3.4,2.9,7.3,2.9,11.6c0,5-1.4,8.9-4.3,11.9s-6.7,4.7-11.5,5.2v4.6H829.1z M829.1,629.4v-20.5c-2.5,0-4.5,0.7-5.8,2.1
		c-1.4,1.4-2.1,3.4-2.1,5.9c0,4.2,1.8,7.6,5.3,10.4L829.1,629.4z M834.4,666.6c3.5-0.8,5.3-3.3,5.3-7.7c0-2.1-0.4-4-1.2-5.6
		c-0.8-1.6-1.9-3.1-3.3-4.5l-0.8-0.8V666.6z"/>
	<path fill="#0A7139" d="M879.2,680v-4.6c-5.7-0.4-10.1-2.6-13.2-6.5c-3.1-3.9-4.8-9-5.2-15.2l10.5-2.6c0.3,8,2.6,13.1,7,15.1
		l0.9,0.3v-22.8l-10.5-8.4c-2.4-1.9-4.3-4.4-5.8-7.3c-1.4-2.9-2.2-6.2-2.2-9.9c0-5.4,1.7-9.8,5.1-13c3.4-3.2,7.8-4.8,13.4-4.8v-4.5
		h5.3v5l1.7,0.4c8.7,2.4,13.4,8.5,14.1,18.3l-10.5,2.6c-0.2-5.2-1.7-8.8-4.4-11.1l-0.8-0.6v23.3l5.3,4.2c3.1,2.4,5.6,5.3,7.6,8.7
		c2,3.4,2.9,7.3,2.9,11.6c0,5-1.4,8.9-4.3,11.9s-6.7,4.7-11.5,5.2v4.6H879.2z M879.2,629.4v-20.5c-2.5,0-4.5,0.7-5.8,2.1
		c-1.4,1.4-2.1,3.4-2.1,5.9c0,4.2,1.8,7.6,5.3,10.4L879.2,629.4z M884.4,666.6c3.5-0.8,5.3-3.3,5.3-7.7c0-2.1-0.4-4-1.2-5.6
		c-0.8-1.6-1.9-3.1-3.3-4.5l-0.8-0.8V666.6z"/>
</g>
<path fill="none" stroke="#353535" stroke-miterlimit="10" d="M711.2,418.5c-0.8-2.8-0.4-5.6,1.2-8c8.8,4.8,18.9,7.2,28.5,6
	c12.4-1.2,24.5-7.6,36.9-10c12.4-2.4,26.9,0.8,34.1,13.2c32.9-4,65.8-8.4,98.7-12.4c9.6-1.2,20.5-2,28.1,5.2"/>
<path fill="none" stroke="#353535" stroke-width="1.25" stroke-miterlimit="10" d="M714,506.7c3.2-5.6,8.4-11.2,13.6-9.2
	c2.4,0.8,4.4,3.6,6.8,5.2c7.6,6.8,18.5,5.2,27.7,3.6c3.2-0.8,6.8-1.2,9.6-4c2-2,3.2-5.2,5.2-7.6c2-2.4,5.6-3.6,7.6-1.2
	c3.2,6.4,7.2,12,12,16.9"/>
<path fill="none" stroke="#353535" stroke-width="1.25" stroke-miterlimit="10" d="M813.9,513.5c13.2-11.6,31.3-14.4,46.5-7.6
	c-2-6,5.2-10,10.4-13.2c4.4-2.8,8-7.6,12.8-7.2c8.8,0.4,13.2,18.5,22.1,16.4c1.6-0.4,3.2-1.6,4.8-2.4c10-5.6,22.1,0,32.5,5.6"/>
<path fill="#FAA21B" d="M552.3,329.8H379.4v-211c0-14.4,11.6-26.1,26.1-26.1h120.4c14.4,0,26.1,11.6,26.1,26.1v211H552.3z"/>
<path fill="#F2F2F2" d="M523.5,296.5H408.3c-5.6,0-10-4.4-10-10.4V124.4c0-5.6,4.4-10,10-10H523c5.6,0,10,4.4,10,10v162.1
	C533.5,292.1,529.1,296.5,523.5,296.5z"/>
</svg>
