<svg xmlns="http://www.w3.org/2000/svg" viewBox="305.4 383.1 41.9 33.9"><path fill="#2D2D2D" d="M323.4 416.9H318c-.8 0-1.4-.6-1.4-1.4v-19.3c0-.8.6-1.4 1.4-1.4h5.4c.8 0 1.4.6 1.4 1.4v19.3c0 .8-.6 1.4-1.4 1.4zM334.6 416.9h-5.4c-.8 0-1.4-.6-1.4-1.4v-25c0-.8.6-1.4 1.4-1.4h5.4c.8 0 1.4.6 1.4 1.4v25c0 .8-.6 1.4-1.4 1.4zM312.2 416.9h-5.4c-.8 0-1.4-.6-1.4-1.4v-13.9c0-.8.6-1.4 1.4-1.4h5.4c.8 0 1.4.6 1.4 1.4v13.9c0 .8-.6 1.4-1.4 1.4zM345.8 416.9h-5.4c-.8 0-1.4-.6-1.4-1.4v-31.1c0-.8.6-1.4 1.4-1.4h5.4c.8 0 1.4.6 1.4 1.4v31.1c0 .8-.6 1.4-1.4 1.4z"/></svg>