<svg version="1.1" id="Layer_1" xmlns="http://www.w3.org/2000/svg" xmlns:xlink="http://www.w3.org/1999/xlink" x="0px" y="0px"
	 viewBox="0 0 239.1 173.8" enable-background="new 0 0 239.1 173.8" xml:space="preserve">
<path fill="#F78F1E" d="M92.9,166.2c-1.9,5.8-8.2,9-14,7.1L7.6,149.5c-5.8-1.9-8.9-8.2-7-14.1L43.2,7.6c1.9-5.8,8.2-9,14-7.1
	l71.3,23.8c5.8,1.9,8.9,8.2,7,14.1L92.9,166.2z"/>
<g>
	<path fill="#FDFDFE" d="M212.8,104.1c-0.5,1.1-1.1,2.1-2,3s-1.8,1.5-3,2c-1.1,0.5-2.3,0.7-3.6,0.7h-2.7c-1.3,0-2.5-0.2-3.6-0.7
		s-2.1-1.1-3-2s-1.5-1.8-2-3c-0.5-1.1-0.7-2.3-0.7-3.6V71.4h3.4v29.1c0,0.8,0.2,1.6,0.5,2.4c0.3,0.7,0.8,1.4,1.3,1.9s1.2,1,1.9,1.3
		s1.5,0.5,2.4,0.5h2.4c0.8,0,1.6-0.2,2.4-0.5s1.4-0.8,1.9-1.3c0.5-0.6,1-1.2,1.3-1.9c0.3-0.7,0.5-1.5,0.5-2.4V71.4h3.4v29.1
		C213.5,101.8,213.3,103,212.8,104.1z"/>
	<path fill="#FDFDFE" d="M239.1,102.4c0,1.1-0.2,2.1-0.7,3c-0.4,0.9-1,1.7-1.8,2.3c-0.8,0.7-1.6,1.2-2.6,1.5s-2,0.5-3.1,0.5h-2.2
		c-1.1,0-2.1-0.2-3.1-0.6s-1.9-1-2.6-1.7c-0.7-0.7-1.3-1.6-1.8-2.5c-0.4-1-0.7-2-0.7-3.1v-1.1l3.2-0.5v1.8c0,0.7,0.1,1.3,0.4,1.8
		c0.3,0.6,0.6,1.1,1.1,1.5c0.5,0.4,1,0.8,1.6,1c0.6,0.2,1.2,0.4,1.9,0.4h2.2c0.6,0,1.3-0.1,1.9-0.3c0.6-0.2,1.1-0.5,1.6-0.8
		c0.5-0.4,0.8-0.8,1.1-1.3c0.3-0.5,0.4-1.1,0.4-1.7c0-1-0.2-1.8-0.6-2.4c-0.4-0.6-1-1.1-1.7-1.5c-0.7-0.4-1.5-0.8-2.4-1
		c-0.9-0.3-1.8-0.5-2.7-0.8c-0.9-0.3-1.8-0.6-2.7-0.9c-0.9-0.4-1.7-0.8-2.4-1.4c-0.7-0.6-1.3-1.3-1.7-2.1c-0.4-0.9-0.6-1.9-0.6-3.2
		c0-1.1,0.2-2.1,0.6-3c0.4-0.9,1-1.7,1.7-2.3c0.7-0.6,1.6-1.2,2.5-1.5c1-0.4,2-0.5,3.1-0.5h1.9c1.1,0,2.1,0.2,3.1,0.6
		c1,0.4,1.8,1,2.5,1.7c0.7,0.7,1.3,1.6,1.7,2.5c0.4,1,0.6,2,0.6,3.1v0.1l-3.2,0.5v-0.8c0-0.6-0.1-1.3-0.4-1.8
		c-0.2-0.6-0.6-1.1-1-1.5s-0.9-0.8-1.5-1c-0.6-0.2-1.2-0.4-1.8-0.4H229c-0.7,0-1.3,0.1-1.8,0.3c-0.6,0.2-1.1,0.5-1.5,0.8
		c-0.4,0.4-0.8,0.8-1,1.3c-0.2,0.5-0.4,1.1-0.4,1.7c0,0.9,0.2,1.7,0.6,2.3c0.4,0.6,1,1.1,1.7,1.5c0.7,0.4,1.5,0.7,2.4,1
		c0.9,0.3,1.8,0.6,2.7,0.8s1.8,0.6,2.7,1s1.7,0.8,2.4,1.4s1.3,1.3,1.7,2.2S239.1,101.1,239.1,102.4z"/>
</g>
<path fill="#FFFFFF" d="M90.3,132.4c-1.4,4.1-5.9,6.3-10.1,4.8l-51.9-17.3c-4.2-1.4-6.6-5.9-5.2-10l29.8-89.4
	c1.4-4.1,5.9-6.3,10.1-4.8L114.9,33c4.2,1.4,6.6,5.9,5.2,10L90.3,132.4z"/>
<path fill="#EAEAEA" d="M90.3,132c-1.4,4.1-5.9,6.3-10.1,4.8l-51.9-17.3c-4.2-1.4-6.6-5.9-5.2-10l29.8-89.4
	C53,76.1,90.3,132,90.3,132z"/>
<path fill="#545554" d="M70.1,20.2c0.2,8.3,0.4,16.7,0.6,25c-5.1,7.2-8.9,15.3-11.3,23.9c3.5-6.3,7.1-12.6,10.6-18.9
	c2.2,4.7,4.3,9.4,6.5,14.1c-1-9.8-2-19.6-2.9-29.4C73.1,29.8,72.6,24.6,70.1,20.2z"/>
<g>
	<path fill="#6EC065" d="M179.3,88.8l-30.8-30.3c-0.8-0.8-2.2-0.2-2.2,0.9v13.9H88.2c-2.9,0-5.2,2.3-5.2,5.2v22.7
		c0,2.9,2.3,5.2,5.2,5.2h58.1v13.9c0,1.1,1.4,1.7,2.2,0.9l30.8-30.8C179.8,90.1,179.8,89.2,179.3,88.8z"/>
</g>
<path fill="#545554" d="M26,97.2c0.8-2,1.6-4,2.3-6.1c3.1,0.8,6.3,1.7,9.4,2.5c1,0.3,2,0.5,2.8,1.2c2.2,1.7,2.2,5,3.7,7.3
	c0.2,0.3,0.4,0.6,0.7,0.8c0.4,0.3,0.9,0.4,1.4,0.6c2.5,0.6,4.9,1.3,7.4,1.9c1.4,4.9,3.2,9.7,5.4,14.3c-2.5-3.3-5.1-6.7-7.6-10
	c-0.4-0.5-0.8-1-1.3-1.3c-0.5-0.3-1.1-0.4-1.7-0.4c-3.7-0.5-7.7-1.2-10.2-4c-1.2-1.4-1.9-3.2-3.4-4.2c-0.9-0.6-2-0.9-3.1-1.2
	C29.8,98.1,27.9,97.6,26,97.2z"/>
</svg>
