<svg xmlns="http://www.w3.org/2000/svg" viewBox="0 0 239.1 173.8"><path fill="#F78F1E" d="M92.9 166.2c-1.9 5.8-8.2 9-14 7.1L7.6 149.5c-5.8-1.9-8.9-8.2-7-14.1L43.2 7.6c1.9-5.8 8.2-9 14-7.1l71.3 23.8c5.8 1.9 8.9 8.2 7 14.1L92.9 166.2z"/><g fill="#FDFDFE"><path d="M212.8 104.1c-.5 1.1-1.1 2.1-2 3s-1.8 1.5-3 2c-1.1.5-2.3.7-3.6.7h-2.7c-1.3 0-2.5-.2-3.6-.7s-2.1-1.1-3-2-1.5-1.8-2-3c-.5-1.1-.7-2.3-.7-3.6V71.4h3.4v29.1c0 .8.2 1.6.5 2.4.3.7.8 1.4 1.3 1.9s1.2 1 1.9 1.3 1.5.5 2.4.5h2.4c.8 0 1.6-.2 2.4-.5s1.4-.8 1.9-1.3c.5-.6 1-1.2 1.3-1.9.3-.7.5-1.5.5-2.4V71.4h3.4v29.1c-.1 1.3-.3 2.5-.8 3.6zM239.1 102.4c0 1.1-.2 2.1-.7 3-.4.9-1 1.7-1.8 2.3-.8.7-1.6 1.2-2.6 1.5s-2 .5-3.1.5h-2.2c-1.1 0-2.1-.2-3.1-.6s-1.9-1-2.6-1.7c-.7-.7-1.3-1.6-1.8-2.5-.4-1-.7-2-.7-3.1v-1.1l3.2-.5v1.8c0 .7.1 1.3.4 1.8.3.6.6 1.1 1.1 1.5.5.4 1 .8 1.6 1 .6.2 1.2.4 1.9.4h2.2c.6 0 1.3-.1 1.9-.3.6-.2 1.1-.5 1.6-.8.5-.4.8-.8 1.1-1.3.3-.5.4-1.1.4-1.7 0-1-.2-1.8-.6-2.4-.4-.6-1-1.1-1.7-1.5-.7-.4-1.5-.8-2.4-1-.9-.3-1.8-.5-2.7-.8l-2.7-.9c-.9-.4-1.7-.8-2.4-1.4-.7-.6-1.3-1.3-1.7-2.1-.4-.9-.6-1.9-.6-3.2 0-1.1.2-2.1.6-3 .4-.9 1-1.7 1.7-2.3.7-.6 1.6-1.2 2.5-1.5 1-.4 2-.5 3.1-.5h1.9c1.1 0 2.1.2 3.1.6 1 .4 1.8 1 2.5 1.7s1.3 1.6 1.7 2.5c.4 1 .6 2 .6 3.1v.1l-3.2.5v-.8c0-.6-.1-1.3-.4-1.8-.2-.6-.6-1.1-1-1.5s-.9-.8-1.5-1c-.6-.2-1.2-.4-1.8-.4H229c-.7 0-1.3.1-1.8.3-.6.2-1.1.5-1.5.8-.4.4-.8.8-1 1.3-.2.5-.4 1.1-.4 1.7 0 .9.2 1.7.6 2.3.4.6 1 1.1 1.7 1.5.7.4 1.5.7 2.4 1 .9.3 1.8.6 2.7.8s1.8.6 2.7 1 1.7.8 2.4 1.4 1.3 1.3 1.7 2.2.6 1.8.6 3.1z"/></g><path fill="#FFF" d="M90.3 132.4c-1.4 4.1-5.9 6.3-10.1 4.8l-51.9-17.3c-4.2-1.4-6.6-5.9-5.2-10l29.8-89.4c1.4-4.1 5.9-6.3 10.1-4.8L114.9 33c4.2 1.4 6.6 5.9 5.2 10l-29.8 89.4z"/><path fill="#EAEAEA" d="M90.3 132c-1.4 4.1-5.9 6.3-10.1 4.8l-51.9-17.3c-4.2-1.4-6.6-5.9-5.2-10l29.8-89.4C53 76.1 90.3 132 90.3 132z"/><path fill="#545554" d="M70.1 20.2l.6 25c-5.1 7.2-8.9 15.3-11.3 23.9 3.5-6.3 7.1-12.6 10.6-18.9 2.2 4.7 4.3 9.4 6.5 14.1-1-9.8-2-19.6-2.9-29.4-.5-5.1-1-10.3-3.5-14.7z"/><path fill="#6EC065" d="M179.3 88.8l-30.8-30.3c-.8-.8-2.2-.2-2.2.9v13.9H88.2c-2.9 0-5.2 2.3-5.2 5.2v22.7c0 2.9 2.3 5.2 5.2 5.2h58.1v13.9c0 1.1 1.4 1.7 2.2.9l30.8-30.8c.5-.3.5-1.2 0-1.6z"/><path fill="#545554" d="M26 97.2c.8-2 1.6-4 2.3-6.1 3.1.8 6.3 1.7 9.4 2.5 1 .3 2 .5 2.8 1.2 2.2 1.7 2.2 5 3.7 7.3.2.3.4.6.7.8.4.3.9.4 1.4.6 2.5.6 4.9 1.3 7.4 1.9 1.4 4.9 3.2 9.7 5.4 14.3-2.5-3.3-5.1-6.7-7.6-10-.4-.5-.8-1-1.3-1.3-.5-.3-1.1-.4-1.7-.4-3.7-.5-7.7-1.2-10.2-4-1.2-1.4-1.9-3.2-3.4-4.2-.9-.6-2-.9-3.1-1.2-2-.5-3.9-1-5.8-1.4z"/></svg>