<svg xmlns="http://www.w3.org/2000/svg" viewBox="0 0 257.2 187.3"><path fill="#1E194D" d="M92.9 179.7c-1.9 5.8-8.2 9-14 7.1L7.6 163c-5.8-1.9-8.9-8.2-7-14.1L43.2 21.1c1.9-5.8 8.2-9 14-7.1l71.3 23.8c5.8 1.9 8.9 8.2 7 14.1L92.9 179.7z"/><g fill="#FDFDFE"><path d="M202.7 102.7v18.1h-3.4v-18L189.5 83h3.7l7.8 15.7 7.8-15.7h3.7l-9.8 19.7zM232 116.4c-.4 1-1 1.8-1.7 2.5s-1.6 1.3-2.5 1.7-2 .6-3.1.6h-2.2c-1.1 0-2.1-.2-3.1-.6s-1.8-1-2.5-1.7-1.3-1.6-1.7-2.5c-.4-1-.6-2-.6-3.1v-12.2c0-1.1.2-2.1.6-3.1.4-1 1-1.8 1.7-2.5s1.6-1.3 2.5-1.7c1-.4 2-.6 3.1-.6h2.2c1.1 0 2.1.2 3.1.6 1 .4 1.8 1 2.5 1.7s1.3 1.6 1.7 2.5c.4 1 .6 2 .6 3.1v12.2c0 1.1-.2 2.2-.6 3.1zm-2.6-15.4c0-.6-.1-1.3-.4-1.8-.2-.6-.6-1.1-1-1.5s-.9-.8-1.5-1c-.6-.2-1.2-.4-1.8-.4h-2.2c-.7 0-1.3.1-1.8.4-.6.2-1.1.6-1.5 1s-.8.9-1 1.5c-.2.6-.4 1.2-.4 1.8v12.6c0 .7.1 1.3.4 1.8.2.6.6 1.1 1 1.5s.9.8 1.5 1c.6.2 1.2.4 1.8.4h2.2c.6 0 1.3-.1 1.8-.4.6-.2 1.1-.6 1.5-1s.8-.9 1-1.5c.2-.6.4-1.2.4-1.8V101zM256.1 120.7l-1.8-2.7c-.7 1-1.7 1.8-2.8 2.4s-2.3.9-3.6.9h-.8c-1.1 0-2.1-.2-3.1-.6s-1.8-1-2.5-1.7-1.3-1.6-1.7-2.5c-.4-1-.6-2-.6-3.1V93.7h3.2v19.8c0 .7.1 1.3.4 1.8.2.6.6 1.1 1 1.5s.9.8 1.5 1c.6.2 1.2.4 1.8.4h2.2c.6 0 1.3-.1 1.8-.4.6-.2 1.1-.6 1.5-1s.8-.9 1-1.5c.2-.6.4-1.2.4-1.8V93.7h3.2v27h-1.1z"/></g><path fill="#FFF" d="M90.3 145.9c-1.4 4.1-5.9 6.3-10.1 4.8l-51.9-17.3c-4.2-1.4-6.6-5.9-5.2-10L52.8 34c1.4-4.1 5.9-6.3 10.1-4.8l51.9 17.3c4.2 1.4 6.6 5.9 5.2 10l-29.7 89.4z"/><path fill="#EAEAEA" d="M90.3 145.9c-1.4 4.1-5.9 6.3-10.1 4.8l-51.9-17.3c-4.2-1.4-6.6-5.9-5.2-10L52.8 34c.2 56 37.5 111.9 37.5 111.9z"/><path fill="#6EC065" d="M179.3 102.2L148.5 72c-.8-.8-2.2-.2-2.2.9v13.9H85.2c-2.9 0-5.2 2.3-5.2 5.2v22.7c0 2.9 2.3 5.2 5.2 5.2h61.1v13.9c0 1.1 1.4 1.7 2.2.9l30.8-30.8c.5-.4.5-1.2 0-1.7z"/><g fill="#FFF"><path d="M55.6 22.7l-4.3 12.6L47 22.7l-13-5 13-3.4L51.3 0l4.3 14.3 13 3.4"/><path d="M56.4 18.1l4.5 9.2-9.2-4.5-9.9 4.3 5.3-8.9L41.6 8l10.2 5.5 9-5.3"/></g></svg>