<svg version="1.1" id="Layer_1" xmlns="http://www.w3.org/2000/svg" xmlns:xlink="http://www.w3.org/1999/xlink" x="0px" y="0px"
	 viewBox="0 0 257.2 187.3" enable-background="new 0 0 257.2 187.3" xml:space="preserve">
<path fill="#1E194D" d="M92.9,179.7c-1.9,5.8-8.2,9-14,7.1L7.6,163c-5.8-1.9-8.9-8.2-7-14.1L43.2,21.1c1.9-5.8,8.2-9,14-7.1
	l71.3,23.8c5.8,1.9,8.9,8.2,7,14.1L92.9,179.7z"/>
<g>
	<path fill="#FDFDFE" d="M202.7,102.7v18.1h-3.4v-18l-9.8-19.8h3.7l7.8,15.7l7.8-15.7h3.7L202.7,102.7z"/>
	<path fill="#FDFDFE" d="M232,116.4c-0.4,1-1,1.8-1.7,2.5c-0.7,0.7-1.6,1.3-2.5,1.7s-2,0.6-3.1,0.6h-2.2c-1.1,0-2.1-0.2-3.1-0.6
		s-1.8-1-2.5-1.7c-0.7-0.7-1.3-1.6-1.7-2.5c-0.4-1-0.6-2-0.6-3.1v-12.2c0-1.1,0.2-2.1,0.6-3.1c0.4-1,1-1.8,1.7-2.5
		c0.7-0.7,1.6-1.3,2.5-1.7c1-0.4,2-0.6,3.1-0.6h2.2c1.1,0,2.1,0.2,3.1,0.6c1,0.4,1.8,1,2.5,1.7c0.7,0.7,1.3,1.6,1.7,2.5
		c0.4,1,0.6,2,0.6,3.1v12.2C232.6,114.4,232.4,115.5,232,116.4z M229.4,101c0-0.6-0.1-1.3-0.4-1.8c-0.2-0.6-0.6-1.1-1-1.5
		s-0.9-0.8-1.5-1c-0.6-0.2-1.2-0.4-1.8-0.4h-2.2c-0.7,0-1.3,0.1-1.8,0.4c-0.6,0.2-1.1,0.6-1.5,1s-0.8,0.9-1,1.5
		c-0.2,0.6-0.4,1.2-0.4,1.8v12.6c0,0.7,0.1,1.3,0.4,1.8c0.2,0.6,0.6,1.1,1,1.5s0.9,0.8,1.5,1c0.6,0.2,1.2,0.4,1.8,0.4h2.2
		c0.6,0,1.3-0.1,1.8-0.4c0.6-0.2,1.1-0.6,1.5-1s0.8-0.9,1-1.5c0.2-0.6,0.4-1.2,0.4-1.8V101z"/>
	<path fill="#FDFDFE" d="M256.1,120.7l-1.8-2.7c-0.7,1-1.7,1.8-2.8,2.4s-2.3,0.9-3.6,0.9h-0.8c-1.1,0-2.1-0.2-3.1-0.6
		s-1.8-1-2.5-1.7c-0.7-0.7-1.3-1.6-1.7-2.5c-0.4-1-0.6-2-0.6-3.1V93.7h3.2v19.8c0,0.7,0.1,1.3,0.4,1.8c0.2,0.6,0.6,1.1,1,1.5
		s0.9,0.8,1.5,1c0.6,0.2,1.2,0.4,1.8,0.4h2.2c0.6,0,1.3-0.1,1.8-0.4c0.6-0.2,1.1-0.6,1.5-1s0.8-0.9,1-1.5c0.2-0.6,0.4-1.2,0.4-1.8
		V93.7h3.2v27H256.1z"/>
</g>
<path fill="#FFFFFF" d="M90.3,145.9c-1.4,4.1-5.9,6.3-10.1,4.8l-51.9-17.3c-4.2-1.4-6.6-5.9-5.2-10L52.8,34
	c1.4-4.1,5.9-6.3,10.1-4.8l51.9,17.3c4.2,1.4,6.6,5.9,5.2,10L90.3,145.9z"/>
<path fill="#EAEAEA" d="M90.3,145.9c-1.4,4.1-5.9,6.3-10.1,4.8l-51.9-17.3c-4.2-1.4-6.6-5.9-5.2-10L52.8,34
	C53,90,90.3,145.9,90.3,145.9z"/>
<path fill="#6EC065" d="M179.3,102.2L148.5,72c-0.8-0.8-2.2-0.2-2.2,0.9v13.9H85.2c-2.9,0-5.2,2.3-5.2,5.2v22.7
	c0,2.9,2.3,5.2,5.2,5.2h61.1v13.9c0,1.1,1.4,1.7,2.2,0.9l30.8-30.8C179.8,103.5,179.8,102.7,179.3,102.2z"/>
<path fill="none" stroke="#E5E5E4" stroke-width="0.6" stroke-linecap="round" stroke-miterlimit="10" d="M98.7,76.6"/>
<path fill="none" stroke="#E5E5E4" stroke-width="0.6" stroke-linecap="round" stroke-miterlimit="10" d="M93.9,53.4"/>
<g>
	<polygon fill="#FFFFFF" points="55.6,22.7 51.3,35.3 47,22.7 34,17.7 47,14.3 51.3,0 55.6,14.3 68.6,17.7 	"/>
	<polygon fill="#FFFFFF" points="56.4,18.1 60.9,27.3 51.7,22.8 41.8,27.1 47.1,18.2 41.6,8 51.8,13.5 60.8,8.2 	"/>
</g>
</svg>
