<svg xmlns="http://www.w3.org/2000/svg" xmlns:xlink="http://www.w3.org/1999/xlink" viewBox="0 0 539.2 155"><path fill="#FDFDFE" d="M77.5 151.6c-40.7 0-73.8-33.1-73.8-73.8C3.7 37.1 36.8 4 77.5 4c40.7 0 73.8 33.1 73.8 73.8 0 40.7-33.1 73.8-73.8 73.8z"/><path fill="#7DB28C" d="M77.5 7.4c38.8 0 70.3 31.5 70.3 70.3S116.3 148 77.5 148 7.2 116.6 7.2 77.8 38.7 7.4 77.5 7.4m0-7C34.9.4.2 35.1.2 77.8s34.7 77.3 77.3 77.3 77.3-34.7 77.3-77.3S120.2.4 77.5.4z"/><path fill="#165F30" d="M107.3 50.2H48.8c-.6 0-1-.5-1-1V24.4c0-.6.5-1 1-1h58.5c.6 0 1 .5 1 1v24.7c0 .6-.4 1.1-1 1.1z"/><ellipse fill="#19753C" cx="77.8" cy="36.8" rx="6.5" ry="8.5"/><path fill="#157139" d="M107.3 50.2H48.8c-.6 0-1-.5-1-1v-1.7c0-.6.5-1 1-1h58.5c.6 0 1 .5 1 1v1.7c0 .6-.4 1-1 1zM107.3 27.2H48.8c-.6 0-1-.5-1-1v-1.7c0-.6.5-1 1-1h58.5c.6 0 1 .5 1 1v1.7c0 .5-.4 1-1 1z"/><path fill="#19753C" d="M107.3 50.2h-5.2c-.6 0-1-.5-1-1v-6.7c0-.6.5-1 1-1h5.2c.6 0 1 .5 1 1v6.7c0 .5-.4 1-1 1zM54.1 32.2h-5.2c-.6 0-1-.5-1-1v-6.7c0-.6.5-1 1-1h5.2c.6 0 1 .5 1 1v6.7c0 .6-.5 1-1 1z"/><path fill="#BFBFBF" d="M93.6 77.2h-7.2V57.5c0-.8-1.2-1.4-2.7-1.4H72c-1.5 0-2.7.6-2.7 1.4v19.7h-7.2c-.6 0-.9.5-.5.9l15.9 12.2c.3.2.7.2.9 0L94 78.1c.5-.3.2-.9-.4-.9z"/><path fill="#7DB28C" d="M22.7 122s16.4 27.1 55.5 27.1c35.2 0 55.1-27.1 55.1-27.1"/><g><g fill="#FDFDFE"><path d="M43.9 135.3l.8-.2c0 .3.1.5.2.8s.2.5.3.7c.1.2.3.4.5.5.2.1.5.2.8.2.5 0 .8-.1 1-.4.2-.3.4-.6.4-1.1 0-.4-.1-.8-.3-1.1-.2-.4-.6-.8-1-1.2l-1.6-1.6c-.3-.4-.6-.7-.8-1-.2-.3-.3-.6-.3-1 0-.7.2-1.2.6-1.6.4-.4 1-.6 1.7-.6s1.2.2 1.6.6c.4.4.7.9.8 1.6v.1l-.7.2v-.1c-.1-.5-.3-.9-.5-1.2-.3-.3-.6-.5-1.1-.5-.4 0-.8.1-1.1.3-.3.2-.4.6-.4 1 0 .3.1.5.2.8.1.3.3.5.6.8l1.5 1.6.3.3.3.3s.1.2.3.3c.1.2.2.3.3.4s.1.2.2.3.1.3.2.4c0 .1.1.2.1.4v.4c0 .7-.2 1.3-.7 1.6-.4.4-1 .6-1.7.6-.4 0-.7-.1-1-.2-.3-.1-.5-.3-.7-.6-.2-.2-.4-.5-.5-.8-.2-.3-.3-.6-.3-1zM49.6 136.3v-5.5h.9v5.5c0 .3.1.6.2.8s.3.2.5.2.4-.1.6-.2c.2-.1.4-.3.6-.5v-5.8h.9v6.9h-.9v-.7c-.2.3-.4.5-.7.6-.3.1-.5.2-.8.2-.3 0-.6-.1-.9-.4s-.4-.6-.4-1.1zM54.8 137.7v-10h.9v3.7c.2-.3.4-.5.6-.6.2-.1.5-.2.7-.2h.4c.1 0 .3.1.4.2.1.1.3.3.4.5.1.2.2.6.2 1s.1.9.1 1.5v1.6s-.1.6-.1.8c-.1.2-.1.4-.2.6s-.2.3-.2.4c-.1.1-.2.2-.3.2s-.2.1-.3.1h-.3c-.6 0-1.1-.3-1.4-.8v.7h-.9zm2.9-3.1v-.6-1.1c0-.3-.1-.6-.1-.8 0-.2-.1-.4-.1-.5 0-.1-.1-.2-.2-.3-.1-.1-.1-.1-.2-.1h-.2c-.4 0-.8.2-1.2.7v4.6c.2.2.4.4.6.5.2.1.4.2.6.2h.2s.1 0 .2-.1c.1 0 .1-.1.2-.2 0-.1.1-.2.1-.3 0-.1.1-.3.1-.5s0-.4.1-.7c-.1-.1-.1-.5-.1-.8zM59.9 137.7v-6.9h.9v.6c.5-.5 1-.8 1.5-.8.2 0 .5.1.7.2.2.1.4.3.5.6.2-.3.5-.5.7-.6.3-.1.5-.2.7-.2.4 0 .7.1.9.4.3.2.4.6.4.9v5.8h-.9v-5.6c0-.3-.1-.5-.2-.6-.1-.1-.3-.2-.5-.2-.4 0-.7.2-1.1.6v5.9h-.9v-5.6c0-.6-.2-.8-.7-.8-.2 0-.4.1-.6.2-.2.1-.4.3-.6.5v5.8h-.8zM67.7 129.2v-1h.9v1h-.9zm0 8.5v-6.9h.9v6.9h-.9zM70.2 136.1v-4.8h-.9v-.5h.9v-2.5h.9v2.5h1.1v.5h-1.1v5.5l.1.2c0 .1.1.1.2.1s.2.1.3.1h.5v.6c-.3.1-.5.1-.8.1-.2 0-.4 0-.6-.1-.2-.1-.3-.2-.4-.3s-.1-.2-.2-.4-.1-.3-.1-.5c.1-.1.1-.3.1-.5zM75.6 137.7v-10H78c.3 0 .7 0 .9.1s.5.2.7.4c.2.2.3.4.4.6.1.2.2.5.2.7 0 .3.1.5.1.8 0 .3 0 .6-.1.8s-.1.5-.2.8-.3.5-.4.6-.4.3-.7.4c-.3.1-.6.2-1 .2h-1.6v4.4h-.7zm.9-5.1h1.7c.5 0 .8-.2 1.1-.5.2-.3.3-.9.3-1.6 0-.7-.1-1.2-.3-1.5-.2-.3-.6-.5-1-.5h-1.7l-.1 4.1zM83.9 137.7l-.1-.8c-.2.3-.4.6-.7.7-.3.2-.5.3-.8.3-.4 0-.7-.1-1-.4-.3-.3-.4-.7-.4-1.1v-.3-.3c0-.1 0-.2.1-.3s.1-.2.1-.3c.1-.1.1-.2.2-.3l.3-.3c.1-.1.3-.2.5-.3l.6-.3c.2-.1.5-.2.8-.4v-.1c0-.4 0-.7-.1-1 0-.3-.1-.5-.1-.6-.1-.2-.1-.3-.2-.4s-.2-.1-.2-.2h-.6c-.1 0-.2.1-.3.2s-.2.2-.2.4c-.1.2-.1.4-.1.7h-.9c0-.6.2-1.1.5-1.4.3-.3.7-.5 1.2-.5.3 0 .5 0 .7.1.2.1.4.2.5.3s.2.3.3.5c.1.2.1.4.2.6v4.7s0 .5.1.6v.2h-.4zm-.2-1.4v-2.4c-.3.2-.5.4-.7.5s-.3.3-.5.4-.3.3-.4.4c-.1.1-.2.3-.2.4-.1.2-.1.3-.1.5 0 .3.1.6.2.7s.3.2.5.2.4-.1.7-.2c.2 0 .4-.2.5-.5zM85.6 139.5v-.7c.5 0 .8-.1 1-.2s.3-.3.3-.5c0-.3 0-.6-.1-.8l-1.5-6.4h.9l1.2 5.8 1.2-5.8h.9l-1.7 7.4c-.1.4-.3.8-.7.9-.3.1-.8.2-1.5.3zM90.4 137.7v-6.9h.9v.6c.5-.5 1-.8 1.5-.8.2 0 .5.1.7.2.2.1.4.3.5.6.2-.3.5-.5.7-.6.3-.1.5-.2.7-.2.4 0 .7.1.9.4s.4.6.4.9v5.8h-.9v-5.6c0-.3-.1-.5-.2-.6-.1-.1-.3-.2-.5-.2-.4 0-.7.2-1.1.6v5.9h-.9v-5.6c0-.6-.2-.8-.7-.8-.2 0-.4.1-.6.2-.2.1-.4.3-.6.5v5.8h-.8zM98 134.5v-1c0-.5 0-.9.1-1.3s.2-.6.3-.8c.1-.2.2-.4.4-.5.2-.1.3-.2.5-.3.2 0 .4-.1.6-.1.6 0 1.1.2 1.3.7s.4 1.1.4 2.1v.7h-2.8v1.1c0 .5 0 .8.1 1.1 0 .3.1.5.2.7l.3.3c.1 0 .3.1.4.1.3 0 .5-.1.7-.4s.3-.7.3-1.3h.8c0 .3-.1.5-.1.7 0 .2-.1.4-.2.6-.1.2-.2.4-.3.5-.1.1-.3.2-.5.3-.2.1-.4.1-.7.1-.5 0-.9-.1-1.1-.3s-.5-.5-.6-1c0-.4-.1-1.1-.1-2zm.9-.8h1.9v-.5-.5-.5c0-.1 0-.3-.1-.4 0-.1-.1-.2-.1-.3-.1-.1-.1-.2-.2-.2-.1-.1-.2-.1-.3-.1-.2 0-.4 0-.5.1l-.3.3c-.1.1-.1.3-.2.5 0 .2-.1.5-.1.7-.1.2-.1.5-.1.9zM102.9 137.7v-6.9h.9v.7c.2-.3.4-.5.7-.6.3-.1.5-.2.8-.2.3 0 .6.1.9.4.3.3.4.7.4 1.2v5.5h-.9v-5.5c0-.3-.1-.6-.2-.8-.1-.2-.3-.2-.5-.2s-.4.1-.6.2c-.2.1-.4.3-.6.5v5.8h-.9zM108.2 136.1v-4.8h-.9v-.5h.9v-2.5h.9v2.5h1.1v.5h-1.1v5.5l.1.2c0 .1.1.1.2.1s.2.1.3.1h.5v.6c-.3.1-.5.1-.8.1-.2 0-.4 0-.6-.1s-.3-.2-.4-.3-.1-.2-.2-.4c0-.2-.1-.3-.1-.5.1-.1.1-.3.1-.5z"/></g></g><g><path fill="#151515" d="M25.5 98.5h22.2v15.9H25.5l9.1-8.1"/><path fill="#3E3B3B" d="M45.6 112l2.1 2.4V112"/><path fill="#151515" d="M129.8 98.6h-22.2v15.9h22.2l-9.1-8"/><path fill="#3E3B3B" d="M107.6 112.2v2.3l2.1-2.3"/><path fill="#151515" d="M45.6 112l64.1.2V94.5H45.6"/><image overflow="visible" opacity=".6" width="259" height="124" xlink:href="37F12992.png" transform="matrix(.24 0 0 .24 46.9 91.31)"/><path fill="#FDFEFF" d="M57.8 108.2V99h-1.9v-.7h4.7v.7h-1.9v9.2h-.9zM63.4 105v-1c0-.5 0-.9.1-1.2.1-.3.1-.6.3-.8.1-.2.2-.4.4-.5.2-.1.3-.2.5-.3.2 0 .4-.1.6-.1.6 0 1.1.2 1.3.7s.4 1.1.4 2.1v.7h-2.8v1c0 .5 0 .8.1 1.1s.1.5.2.7.2.2.3.3.3.1.4.1c.3 0 .5-.1.6-.4.2-.3.3-.7.3-1.3h.9c0 .3-.1.5-.1.7 0 .2-.1.4-.2.6-.1.2-.2.4-.3.5s-.3.2-.5.3-.4.1-.7.1c-.5 0-.9-.1-1.1-.3-.3-.2-.5-.5-.6-1-.1-.4-.1-1.1-.1-2zm.8-.8h1.9v-.5-.5-.5c0-.1 0-.3-.1-.4 0-.1-.1-.2-.1-.3-.1-.1-.1-.2-.2-.2-.1-.1-.2-.1-.3-.1-.2 0-.4 0-.5.1l-.3.3c-.1.1-.1.3-.2.5 0 .2-.1.5-.1.6-.1.3-.1.6-.1 1zM70.7 108.2v-9.9h.9v9.9h-.9zM75.5 108.2v-9.9h.9v9.9h-.9zM80 109.9v-.7c.5 0 .8-.1 1-.2.2-.1.3-.3.3-.5 0-.3 0-.6-.1-.8l-1.5-6.3h.9l1.2 5.7 1.2-5.7h.9l-1.7 7.4c-.1.4-.3.8-.7.9s-.8.2-1.5.2z"/><path fill="#3F709A" d="M89.5 108.2v-9.9H93v.7h-2.6v3.7h1.8v.7h-1.8v4.1H93v.7h-3.5zM95.8 108.2l1.5-3.6-1.5-3.3h.9l1.1 2.9 1.1-2.9h.9l-1.5 3.3 1.5 3.6H99l-1.2-3.1-1.2 3.1h-.8z"/></g><g><path fill="#FDFDFE" d="M269.7 151.6c-40.7 0-73.8-33.1-73.8-73.8C195.9 37.1 229 4 269.7 4s73.8 33.1 73.8 73.8c0 40.6-33.1 73.8-73.8 73.8z"/><path fill="#7EA8BF" d="M269.7 7.4c38.8 0 70.3 31.5 70.3 70.3S308.5 148 269.7 148s-70.3-31.5-70.3-70.3 31.4-70.3 70.3-70.3m0-7c-42.6 0-77.3 34.7-77.3 77.3s34.7 77.3 77.3 77.3S347 120.4 347 77.7 312.3.4 269.7.4z"/><path fill="#7EA8BF" d="M214.8 122s16.4 27.1 55.5 27.1c35.2 0 55.1-27.1 55.1-27.1"/><g fill="#FDFDFE"><path d="M237.4 137.7l-1.7-10h.8l1.4 8.5 1.3-8.5h1.1l1.2 8.5 1.4-8.5h.8l-1.7 10h-1l-1.2-8.8-1.3 8.8h-1.1zM247.1 137.7l-.1-.8c-.2.3-.4.6-.7.7s-.5.3-.8.3c-.4 0-.7-.1-1-.4-.3-.3-.4-.7-.4-1.1v-.3-.3c0-.1 0-.2.1-.3 0-.1.1-.2.1-.3.1-.1.1-.2.2-.3l.3-.3c.1-.1.3-.2.5-.3l.6-.3c.2-.1.5-.2.8-.4v-.1c0-.4 0-.7-.1-1 0-.3-.1-.5-.1-.6-.1-.2-.1-.3-.2-.4s-.2-.1-.2-.2h-.6c-.1 0-.2.1-.3.2s-.2.2-.2.4c-.1.2-.1.4-.1.7h-.9c0-.6.2-1.1.5-1.4.3-.3.7-.5 1.2-.5.3 0 .5 0 .7.1.2.1.4.2.5.3.1.1.2.3.3.5.1.2.1.4.2.6v4.7c0 .3 0 .5.1.6v.2h-.4zm-.1-1.4v-2.4c-.3.2-.5.4-.7.5-.2.1-.3.3-.5.4s-.3.3-.4.4c-.1.1-.2.3-.2.4-.1.2-.1.3-.1.5 0 .3.1.6.2.7s.3.2.5.2.4-.1.7-.2c.2-.1.3-.3.5-.5zM249.2 129.1v-1h.9v1h-.9zm0 8.6v-6.9h.9v6.9h-.9zM251.7 136v-4.8h-.9v-.5h.9v-2.5h.9v2.5h1.1v.5h-1.1v5.5c0 .1.1.2.1.2 0 .1.1.1.2.1s.2.1.3.1h.5v.6c-.3.1-.5.1-.8.1-.2 0-.4 0-.6-.1-.2-.1-.3-.2-.4-.3s-.1-.2-.2-.4-.1-.3-.1-.5c.2-.1.1-.3.1-.5zM257.2 137.7v-10h3.5v.7h-2.6v3.8h2.1v.7H258v4.8h-.8zM261.1 134.4v-.4-.7-.7c0-.3.1-.5.1-.7 0-.2.1-.3.2-.5s.2-.4.3-.5c.1-.1.3-.2.5-.3.2-.1.4-.1.7-.1s.5 0 .7.1c.2.1.4.2.5.3.1.1.2.3.3.5.1.2.2.4.2.5 0 .2.1.4.1.7v3.4s-.1.3-.1.5-.1.3-.2.4c-.1.1-.1.2-.2.3l-.3.3s-.3.1-.4.2c-.2 0-.3.1-.5.1s-.4 0-.5-.1c-.2 0-.3-.1-.4-.2l-.3-.3c-.1-.1-.2-.2-.2-.3-.1-.1-.1-.3-.2-.4 0-.2-.1-.3-.1-.5v-.5-.5c-.2-.2-.2-.4-.2-.6zm.9-.4v.4c0 1.1.1 1.8.2 2.2s.4.6.8.6.6-.2.8-.6c.1-.4.2-1.2.2-2.2v-.4-.9-.7c0-.2-.1-.4-.1-.6 0-.1-.1-.3-.2-.4-.1-.1-.2-.2-.3-.2-.1 0-.2-.1-.4-.1-.1 0-.3 0-.4.1-.1 0-.2.1-.3.2-.1.1-.1.2-.2.4 0 .1-.1.3-.1.6v1.6zM266.1 137.7v-6.9h.9v1c.1-.4.3-.6.6-.8.3-.2.6-.3.9-.3v.9h-.1c-.9 0-1.3.3-1.3 1v5.2l-1-.1zM271.7 137.7v-10h2.2c.4 0 .7.1 1 .2.3.1.5.2.7.4s.3.4.5.6c.1.3.2.5.3.8.1.3.1.6.1.9v4.1c0 2-.8 2.9-2.5 2.9l-2.3.1zm.9-.7h1.4c1.1 0 1.7-.7 1.7-2v-4.4c0-1.4-.6-2.1-1.7-2.1h-1.4v8.5zM277.8 134.5v-1c0-.5 0-.9.1-1.3s.2-.6.3-.8c.1-.2.2-.4.4-.5.2-.1.3-.2.5-.3.2 0 .4-.1.6-.1.6 0 1.1.2 1.3.7.3.4.4 1.1.4 2.1v.7h-2.8v1.1c0 .5 0 .8.1 1.1 0 .3.1.5.2.7l.3.3c.1.1.3.1.4.1.3 0 .5-.1.7-.4s.3-.7.3-1.3h.8c0 .3-.1.5-.1.7 0 .2-.1.4-.2.6-.1.2-.2.4-.3.5-.1.1-.3.2-.5.3-.2.1-.4.1-.7.1-.5 0-.9-.1-1.1-.3-.3-.2-.5-.5-.6-1-.1-.5-.1-1.2-.1-2zm.8-.9h1.9v-.5-.5-.5c0-.1 0-.3-.1-.4 0-.1-.1-.2-.1-.3s-.1-.2-.2-.2c-.1-.1-.2-.1-.3-.1-.2 0-.4 0-.5.1l-.3.3c-.1.1-.1.3-.2.5 0 .2-.1.5-.1.7s-.1.5-.1.9zM282.8 137.7v-10h.9v10h-.9zM285.3 129.1v-1h.9v1h-.9zm0 8.6v-6.9h.9v6.9h-.9zM288.6 137.7l-1.6-6.9h.8l1.2 6.2 1.1-6.2h.8l-1.4 6.9h-.9zM291.8 134.5v-1c0-.5 0-.9.1-1.3s.2-.6.3-.8c.1-.2.2-.4.4-.5.2-.1.3-.2.5-.3s.4-.1.6-.1c.6 0 1.1.2 1.3.7.3.4.4 1.1.4 2.1v.7h-2.8v1.1c0 .5 0 .8.1 1.1 0 .3.1.5.2.7s.2.2.3.3c.1.1.3.1.4.1.3 0 .5-.1.7-.4s.3-.7.3-1.3h.8c0 .3-.1.5-.1.7 0 .2-.1.4-.2.6-.1.2-.2.4-.3.5-.1.1-.3.2-.5.3-.2.1-.4.1-.7.1-.5 0-.9-.1-1.1-.3-.3-.2-.5-.5-.6-1-.1-.5-.1-1.2-.1-2zm.8-.9h1.9v-.5-.5-.5c0-.1 0-.3-.1-.4 0-.1-.1-.2-.1-.3-.1-.1-.1-.2-.2-.2s-.2-.1-.3-.1c-.2 0-.4 0-.5.1l-.3.3s-.1.3-.2.5c0 .2-.1.5-.1.7-.1.2-.1.5-.1.9zM296.6 137.7v-6.9h.9v1c.1-.4.3-.6.6-.8s.6-.3.9-.3v.9h-.1c-.9 0-1.3.3-1.3 1v5.2h-1zM299.5 139.4v-.7c.5 0 .8-.1 1-.2.2-.1.3-.3.3-.5 0-.3 0-.6-.1-.8l-1.5-6.4h.9l1.2 5.8 1.2-5.8h.9l-1.7 7.4c-.1.4-.3.8-.7.9s-.9.3-1.5.3z"/></g><path fill="#F2F2F2" d="M275.2 61.6c-12.5.1-25.1.2-37.6.4-4.5 0-9 .1-13.3-1.4-4.2-1.4-8.1-4.6-9.2-8.9-1.2-4.6 1.5-9.9 5.9-11.8 4.4-1.8 10 .1 12.5 4.2-.2-7.4 7.5-14 14.8-12.6 7.3 1.4 12.2 10.2 9.4 17.1 7.2-2.2 15.1-2 22.1.6 2.9 1.1 6 3.2 6 6.3 0 2.3-1.8 4.3-3.9 5.2s-4.4.9-6.7.9zM327.9 100.9c-3.7 6.3-11.7 6.7-18.6 6.5l-46-.8c-1.4 0-2.5-1.3-2.2-2.7.2-1 .9-2.1 1.7-2.7 1.7-1.2 3.9-1.3 6-1.3 9.8-.3 19.5-.6 29.3-.8-3.8-2.1-5.6-7-4.5-11.2 1.1-4.2 4.7-7.5 8.8-9 4.1-1.4 8.7-1.2 12.9.1 6.4 1.9 12.4 6.4 13.9 13.3.6 2.9.2 6.1-1.3 8.6z"/><path fill="#3F709A" d="M223.5 52.1c.7.1 1.3.5 1.7 1 2.4 3.1 11.7 14.5 12 14.5 6.4-.2 57.7.2 69.6.3 4.6.1 13.5 4.9 13.5 8.3 0 1.1-1 2.3-2.1 3.2-1.3 1.1-2.9 1.7-4.6 1.7h-24.7c-.2 0-26.9 18.8-26.9 18.8-.2.2-.4.3-.7.3l-10-.3c-.9 0-1.3-1-.8-1.6L263 82c1.1-1.4-1.8-1.4-2.7-1.4l-25.9-.2c-7.2-.9-8.1-3.1-9.2-5-.1-.2-4.5-18.1-5.2-22.7-.1-.6.4-1.1 1-1l2.5.4z"/><path fill="#3F709A" d="M262.9 65.3l-9.3-13.4c-.2-.3 0-.7.4-.7h8.4c.3 0 .6.1.8.4l18.9 13.8c.1.1.1.3-.1.3h-18.4c-.3 0-.6-.1-.7-.4z"/></g><g><path fill="#FDFDFE" d="M461.8 151.3c-40.7 0-73.8-33.1-73.8-73.8 0-40.7 33.1-73.8 73.8-73.8s73.8 33.1 73.8 73.8c0 40.6-33.1 73.8-73.8 73.8z"/><path fill="#F1B275" d="M461.8 7.1c38.8 0 70.3 31.5 70.3 70.3s-31.5 70.3-70.3 70.3-70.3-31.5-70.3-70.3S423 7.1 461.8 7.1m0-7c-42.6 0-77.3 34.7-77.3 77.3s34.7 77.3 77.3 77.3 77.3-34.7 77.3-77.3S504.5.1 461.8.1z"/><path fill="#F2B375" d="M407 121.7s16.4 27.1 55.5 27.1c35.2 0 55.1-27.1 55.1-27.1"/><g fill="#FDFDFE"><path d="M422.5 132.5l.8-.2c0 .3.1.5.2.8.1.2.2.5.3.7.1.2.3.4.5.5.2.1.5.2.8.2.5 0 .8-.1 1-.4.2-.3.4-.6.4-1.1 0-.4-.1-.8-.3-1.1-.2-.4-.6-.8-1-1.2l-1.6-1.6c-.3-.4-.6-.7-.8-1-.2-.3-.3-.6-.3-1 0-.7.2-1.2.6-1.6.4-.4 1-.6 1.7-.6s1.2.2 1.6.6c.4.4.7.9.8 1.6v.1l-.7.2v-.1c-.1-.5-.3-.9-.5-1.2s-.6-.5-1.1-.5c-.4 0-.8.1-1.1.3s-.4.6-.4 1c0 .3.1.5.2.8.1.3.3.5.6.8l1.5 1.6.3.3.3.3c0 .1.1.2.3.3.1.2.2.3.3.4 0 .1.1.2.2.3.1.1.1.3.2.4 0 .1.1.2.1.4v.4c0 .7-.2 1.3-.7 1.6-.4.4-1 .6-1.7.6-.4 0-.7-.1-1-.2-.3-.1-.5-.3-.7-.6s-.4-.5-.5-.8c-.1-.3-.2-.6-.3-1zM428.2 131.7v-1c0-.5 0-.9.1-1.3s.2-.6.3-.8c.1-.2.2-.4.4-.5.2-.1.3-.2.5-.3.2 0 .4-.1.6-.1.6 0 1.1.2 1.3.7s.4 1.1.4 2.1v.7H429v1.1c0 .5 0 .8.1 1.1 0 .3.1.5.2.7l.3.3c.1 0 .3.1.4.1.3 0 .5-.1.7-.4s.3-.7.3-1.3h.8c0 .3-.1.5-.1.7 0 .2-.1.4-.2.6-.1.2-.2.4-.3.5-.1.1-.3.2-.5.3s-.4.1-.7.1c-.5 0-.9-.1-1.1-.3-.3-.2-.5-.5-.6-1 0-.4-.1-1.1-.1-2zm.9-.9h1.9v-.5-.5-.5s0-.3-.1-.4c0-.1-.1-.2-.1-.3-.1-.1-.1-.2-.2-.2s-.2-.1-.3-.1c-.2 0-.4 0-.5.1l-.3.3s-.1.3-.2.5c0 .2-.1.5-.1.7s-.1.5-.1.9zM433.1 134.9V128h.9v.7c.2-.3.4-.5.7-.6.3-.1.5-.2.8-.2.3 0 .6.1.9.4.3.3.4.7.4 1.2v5.5h-.9v-5.5c0-.3-.1-.6-.2-.8s-.3-.2-.5-.2-.4.1-.6.2-.4.3-.6.5v5.8l-.9-.1zM440.9 134.9v-.7c-.3.5-.8.8-1.4.8h-.3s-.2-.1-.3-.1c-.1-.1-.2-.1-.3-.2s-.2-.2-.2-.4-.1-.4-.2-.6c-.1-.2-.1-.5-.1-.8v-1.6c0-.6 0-1.1.1-1.5s.1-.8.2-1c.1-.2.2-.4.4-.5.1-.1.3-.2.4-.2h.4c.2 0 .5.1.7.2.2.1.4.3.6.6v-3.7h.9v10h-.9zm0-1.2v-4.6c-.4-.5-.8-.7-1.2-.7h-.2c-.1 0-.1.1-.2.1-.1.1-.1.1-.2.3 0 .1-.1.3-.1.5s-.1.5-.1.8v2.6s0 .5.1.7c0 .2.1.3.1.5 0 .1.1.2.1.3 0 .1.1.1.2.2s.1.1.2.1h.2c.2 0 .4-.1.6-.2.1-.2.3-.4.5-.6zM445.6 134.9v-10h2.1c.3 0 .6 0 .9.1s.5.2.6.4.3.3.4.6c.1.2.2.5.2.7 0 .2.1.5.1.7 0 .4-.1.8-.3 1.2-.2.4-.5.7-.8.8.2.1.4.2.6.4s.3.4.4.6c.1.2.2.5.2.7 0 .2.1.5.1.7v.9c0 .3-.1.5-.2.8-.1.3-.2.5-.4.7-.2.2-.4.3-.7.4s-.6.2-1 .2h-2.2zm.9-5.7h1.4c.2 0 .4 0 .6-.1s.3-.2.4-.4c.1-.2.1-.3.2-.5 0-.2.1-.4.1-.6 0-1.3-.5-1.9-1.4-1.9h-1.1l-.2 3.5zm0 5h1.6c.2 0 .4 0 .5-.1.2-.1.3-.2.4-.3.1-.1.2-.3.2-.5.1-.2.1-.4.1-.6v-.7-.6c0-.2-.1-.4-.1-.6-.1-.2-.1-.3-.2-.5-.1-.1-.2-.2-.4-.3s-.3-.1-.5-.1h-1.6v4.3zM454 134.9l-.1-.8c-.2.3-.4.6-.7.7s-.5.3-.8.3c-.4 0-.7-.1-1-.4-.3-.3-.4-.7-.4-1.1v-.3-.3c0-.1 0-.2.1-.3 0-.1.1-.2.1-.3.1-.1.1-.2.2-.3l.3-.3c.1-.1.3-.2.5-.3l.6-.3c.2-.1.5-.2.8-.4v-.1c0-.4 0-.7-.1-1 0-.3-.1-.5-.1-.6s-.1-.3-.2-.4-.2-.1-.2-.2-.2 0-.3 0h-.3s-.2.1-.3.2-.2.2-.2.4-.1.4-.1.7h-.9c0-.6.2-1.1.5-1.4.3-.3.7-.5 1.2-.5.3 0 .5 0 .7.1.2.1.4.2.5.3.1.1.2.3.3.5s.1.4.2.6v4.7s0 .5.1.6v.2h-.4zm-.2-1.4v-2.4c-.3.2-.5.4-.7.5s-.3.3-.5.4l-.4.4c-.1.1-.2.3-.2.4-.1.2-.1.3-.1.5 0 .3.1.6.2.7.1.2.3.2.5.2s.4-.1.7-.2c.2-.1.4-.3.5-.5zM455.9 131.6v-.4-.7-.7s.1-.5.1-.7c0-.2.1-.3.2-.5s.2-.4.3-.5c.1-.1.3-.2.5-.3.2-.1.4-.1.7-.1.3 0 .5 0 .7.1.2.1.4.2.5.3.1.1.2.3.3.5.1.2.1.4.2.6 0 .2.1.5.1.7h-.9v-.1c0-.7-.1-1.1-.2-1.4-.1-.3-.3-.4-.7-.4-.2 0-.3 0-.4.1-.1 0-.2.1-.3.2s-.1.2-.2.4c0 .1-.1.3-.1.6 0 .2 0 .5-.1.7s0 .6 0 .9v.4c0 1.1.1 1.8.2 2.2.1.4.4.6.8.6.3 0 .5-.1.7-.4.1-.3.2-.8.2-1.4v-.1h.9c0 .3 0 .6-.1.8 0 .2-.1.4-.2.7-.1.2-.2.4-.3.5-.1.1-.3.3-.5.3-.2.1-.4.1-.7.1-.2 0-.4 0-.6-.1-.2 0-.3-.1-.5-.2l-.3-.3s-.2-.3-.2-.5c-.1-.2-.1-.4-.1-.5 0-.1-.1-.3-.1-.6v-.6c.1.3.1.1.1-.2zM460.7 134.9v-10h.9v6.3l2.2-3.3h1l-1.7 2.6 1.7 4.3h-.9l-1.4-3.8-.9 1.1v2.7h-.9zM469.4 134.9v-3.1l-2.2-6.9h.9c.1.3.2.7.3 1.2.1.5.3 1 .5 1.5s.3 1 .5 1.5c.1.5.3.9.4 1.2l.1.5c.2-.9.5-1.9.9-3 .3-1.1.6-2 .8-2.9h.9l-2.1 6.9v3.1h-1zM472.6 131.6v-.4-.7-.7c0-.3.1-.5.1-.7 0-.2.1-.3.2-.5s.2-.4.3-.5c.1-.1.3-.2.5-.3.2-.1.4-.1.7-.1s.5 0 .7.1c.2.1.4.2.5.3.1.1.2.3.3.5.1.2.2.4.2.5 0 .2.1.4.1.7v3.4c0 .1-.1.3-.1.5s-.1.3-.2.4c-.1.1-.1.2-.2.3l-.3.3c-.1.1-.3.1-.4.2-.2 0-.3.1-.5.1s-.4 0-.5-.1c-.2 0-.3-.1-.4-.2l-.3-.3c-.1-.1-.2-.2-.2-.3-.1-.1-.1-.3-.2-.4 0-.2-.1-.3-.1-.5v-.5-.5c-.2-.1-.2-.3-.2-.6zm.9-.4v.4c0 1.1.1 1.8.2 2.2.1.4.4.6.8.6s.6-.2.8-.6c.1-.4.2-1.2.2-2.2v-.4-.9-.7c0-.2-.1-.4-.1-.6 0-.1-.1-.3-.2-.4-.1-.1-.2-.2-.3-.2-.1 0-.2-.1-.4-.1-.1 0-.3 0-.4.1-.1 0-.2.1-.3.2s-.1.2-.2.4c0 .1-.1.3-.1.6v1.6zM477.5 133.4v-5.5h.9v5.5c0 .3.1.6.2.8.1.2.3.2.5.2s.4-.1.6-.2c.2-.1.4-.3.6-.5v-5.8h.9v6.9h-.9v-.7c-.2.3-.4.5-.7.6-.3.1-.5.2-.8.2-.3 0-.6-.1-.9-.4-.2-.2-.4-.6-.4-1.1zM482.8 134.9V128h.9v1c.1-.4.3-.6.6-.8.3-.2.6-.3.9-.3v.9h-.1c-.9 0-1.3.3-1.3 1v5.2h-1zM488.2 132v-4.2c0-.4 0-.7.1-1 .1-.3.1-.6.3-.8.1-.3.3-.5.5-.7s.4-.3.7-.4c.3-.1.6-.2 1-.2s.7.1 1 .2.5.2.7.4.3.4.5.7c.1.3.2.5.3.8.1.3.1.6.1 1v4.2c0 2-.8 3-2.5 3-1.9 0-2.7-1-2.7-3zm4.2.2v-4.6c0-1.4-.6-2.1-1.7-2.1s-1.7.7-1.7 2.1v4.6c0 1.4.6 2.1 1.7 2.1s1.7-.7 1.7-2.1zM494.8 134.9v-10h.9v10h-.9zM499.9 134.9v-.7c-.3.5-.8.8-1.4.8h-.3s-.2-.1-.3-.1c-.1-.1-.2-.1-.3-.2s-.2-.2-.2-.4-.1-.4-.2-.6c-.1-.2-.1-.5-.1-.8V131.2c0-.6 0-1.1.1-1.5s.1-.8.2-1c.1-.2.2-.4.4-.5.1-.1.3-.2.4-.2h.4c.2 0 .5.1.7.2.2.1.4.3.6.6v-3.7h.9v10h-.9zm0-1.2v-4.6c-.4-.5-.8-.7-1.2-.7h-.2s-.1.1-.2.1c-.1.1-.1.1-.2.3 0 .1-.1.3-.1.5s-.1.5-.1.8v2.6c0 .3 0 .5.1.7 0 .2.1.3.1.5 0 .1.1.2.1.3 0 .1.1.1.2.2.1 0 .1.1.2.1h.2c.2 0 .4-.1.6-.2.2-.2.4-.4.5-.6zM449.9 149.1v-10h2.4c.3 0 .7 0 .9.1s.5.2.7.4.3.4.4.6c.1.2.2.5.2.7 0 .3.1.5.1.8 0 .3 0 .6-.1.8 0 .3-.1.5-.2.8-.1.3-.3.5-.4.6-.2.2-.4.3-.7.4-.3.1-.6.2-1 .2h-1.6v4.4h-.7zm.9-5.1h1.7c.5 0 .8-.2 1.1-.5.2-.3.3-.9.3-1.6 0-.7-.1-1.2-.3-1.5-.2-.3-.6-.5-1-.5h-1.7l-.1 4.1zM455.6 149.1v-10h.9v3.7c.2-.3.4-.5.7-.6s.5-.2.8-.2c.4 0 .7.1.9.4.3.3.4.7.4 1.2v5.5h-.9v-5.4c0-.7-.2-1-.7-1-.2 0-.4.1-.6.2-.2.1-.4.3-.6.5v5.7h-.9zM460.5 145.8v-.4-.7-.7c0-.3.1-.5.1-.7 0-.2.1-.3.2-.5s.2-.4.3-.5c.1-.1.3-.2.5-.3.2-.1.4-.1.7-.1s.5 0 .7.1c.2.1.4.2.5.3.1.1.2.3.3.5.1.2.2.4.2.5 0 .2.1.4.1.7v3.4c0 .1-.1.3-.1.5s-.1.3-.2.4c-.1.1-.1.2-.2.3l-.3.3c-.1.1-.3.1-.4.2-.2 0-.3.1-.5.1s-.4 0-.5-.1c-.2 0-.3-.1-.4-.2l-.3-.3c-.1-.1-.2-.2-.2-.3s-.1-.3-.2-.4c0-.2-.1-.3-.1-.5v-.5-.5c-.2-.1-.2-.3-.2-.6zm.9-.3v.4c0 1.1.1 1.8.2 2.2.1.4.4.6.8.6s.6-.2.8-.6c.1-.4.2-1.2.2-2.2v-.4-.9-.7c0-.2-.1-.4-.1-.6 0-.1-.1-.3-.2-.4-.1-.1-.2-.2-.3-.2-.1 0-.2-.1-.4-.1-.1 0-.3 0-.4.1-.1 0-.2.1-.3.2-.1.1-.1.2-.2.4 0 .1-.1.3-.1.6v1.6zM465.5 149.1v-6.9h.9v.7c.2-.3.4-.5.7-.6.3-.1.5-.2.8-.2.3 0 .6.1.9.4.3.3.4.7.4 1.2v5.5h-.9v-5.5c0-.3-.1-.6-.2-.8-.1-.2-.3-.2-.5-.2s-.4.1-.6.2c-.2.1-.4.3-.6.5v5.8h-.9zM470.4 145.9v-1c0-.5 0-.9.1-1.3s.2-.6.3-.8c.1-.2.2-.4.4-.5.2-.1.3-.2.5-.3.2 0 .4-.1.6-.1.6 0 1.1.2 1.3.7.3.4.4 1.1.4 2.1v.7h-2.8v1.1c0 .5 0 .8.1 1.1 0 .3.1.5.2.7l.3.3c.1.1.3.1.4.1.3 0 .5-.1.7-.4s.3-.7.3-1.3h.8c0 .3-.1.5-.1.7 0 .2-.1.4-.2.6-.1.2-.2.4-.3.5s-.3.2-.5.3c-.2.1-.4.1-.7.1-.5 0-.9-.1-1.1-.3-.3-.2-.5-.5-.6-1-.1-.4-.1-1.1-.1-2zm.9-.8h1.9v-.5-.5-.5c0-.1 0-.3-.1-.4 0-.1-.1-.2-.1-.3s-.1-.2-.2-.2c-.1-.1-.2-.1-.3-.1-.2 0-.4 0-.5.1l-.3.3c-.1.1-.1.3-.2.5 0 .2-.1.5-.1.7-.1.2-.1.5-.1.9z"/></g><path fill="#FAA31E" d="M439.9 48.4V25.3c0-1.1 1.1-2.1 2.5-2.1h37c1.4 0 2.5.9 2.5 2.1v23.1c0 1.1-1.1 2.1-2.5 2.1h-37c-1.3 0-2.5-.9-2.5-2.1z"/><path fill="#F29922" d="M473.6 50.5h-31.2c-1.4 0-2.5-.9-2.5-2.1V25.3c0-1.1 1.1-2.1 2.5-2.1h12.7"/><path fill="#F3F3F3" d="M445 45.9V27.7c0-.9.8-1.6 1.9-1.6h30.2c1 0 1.9.7 1.9 1.6v18.2c0 .9-.8 1.6-1.9 1.6h-30.2c-1.1 0-1.9-.7-1.9-1.6z"/><g fill="none" stroke="#C2C1C1" stroke-width=".25" stroke-linecap="round" stroke-linejoin="round" stroke-miterlimit="10"><path d="M468.1 26.3l2.3 2.5-4.1.5 1 .7h.9l.6 2.7-1.8 1.2 1.4 4h1.5l1 2.7-1.3-.4-.5 1.8-2.3.7-1.4 2.4v1.4h-2.8l-.3.9h-2"/><path d="M470.5 39.5l3.5 1.6.9-.8.6 2.1.5 2.7 2-1.3.8 2.2"/></g><g fill="#231F20"><path d="M470.4 31.8h1.2v1h-1.2zM468 31.8h1.2v1H468zM469.2 32.8h1.2v1h-1.2zM470.4 33.8h1.2v1h-1.2zM468 33.8h1.2v1H468zM470.4 39.2h1.2v1h-1.2zM468 39.2h1.2v1H468zM469.2 40.2h1.2v1h-1.2zM470.4 41.2h1.2v1h-1.2zM468 41.2h1.2v1H468zM461.3 35.4h1.2v1h-1.2zM461.3 36.5h1.2v1h-1.2zM461.3 37.5h1.2v1h-1.2z"/></g><g fill="none" stroke="#C2C1C1" stroke-width=".25" stroke-linecap="round" stroke-linejoin="round" stroke-miterlimit="10"><path d="M457.6 30.3l-1.3 1.4-.4.4-1.5-1.1-1.6 1.3-.6 1-1.4-1.6-.6.9.3.8H447l-1 1M457.4 33l-1.1-1.3M447.5 30.9l.7 2.5-.7-2.5zM446.4 30.7l1.1.2"/></g><path fill="none" stroke="#C2C1C1" stroke-width=".25" stroke-linecap="round" stroke-linejoin="round" stroke-miterlimit="10" d="M455.5 38.1l.8 1.2.6.7-1.1 1 .8.3h-1.4l1.9 1.1-1.8.1-1 .3M454.9 47.5l1-.4.1-.8.9-.7-.5-.5.4-.6.3-.4"/><path fill="#E2BC78" d="M454.3 51.6V22.1c0-2.1-2.2-3.7-4.9-3.7s-4.9 1.7-4.9 3.7v29.6c0 2 2.2 3.6 4.9 3.6 2.8 0 4.9-1.6 4.9-3.7z"/><path fill="#E2B588" d="M446.7 22.2h5.7v29.4h-5.7z"/><path fill="#E3C7A1" d="M445.7 40.6v-7.5c0-.3.3-.5.6-.5h6.1c.3 0 .6.2.6.5v7.5c0 .3-.3.5-.6.5h-6c-.4 0-.7-.3-.7-.5z"/><path fill="#E3C7A1" d="M451.1 39.5c.2-.1.3-.1.4-.2 1-.5 1.3-1.7-.2-2.5 1.4-.8 1.3-2 .2-2.5-.2-.1-.3-.1-.4-.2-.7-.1-2.7-.2-4.9 2.7 2.2 2.8 4.3 2.8 4.9 2.7z"/><g fill="#E49F67"><ellipse cx="451.2" cy="24.3" rx=".7" ry=".5"/><ellipse cx="451.2" cy="25.9" rx=".7" ry=".5"/><ellipse cx="451.2" cy="29.2" rx=".7" ry=".5"/><ellipse cx="451.2" cy="27.5" rx=".7" ry=".5"/><g><ellipse cx="449.5" cy="24.3" rx=".7" ry=".5"/><ellipse cx="449.5" cy="25.9" rx=".7" ry=".5"/><ellipse cx="449.5" cy="29.2" rx=".7" ry=".5"/><ellipse cx="449.5" cy="27.5" rx=".7" ry=".5"/></g><g><ellipse cx="447.8" cy="24.3" rx=".7" ry=".5"/><ellipse cx="447.8" cy="25.9" rx=".7" ry=".5"/><ellipse cx="447.8" cy="29.2" rx=".7" ry=".5"/><ellipse cx="447.8" cy="27.5" rx=".7" ry=".5"/></g></g><g fill="#E49F67"><ellipse cx="451.1" cy="44.7" rx=".7" ry=".5"/><ellipse cx="451.1" cy="46.3" rx=".7" ry=".5"/><ellipse cx="451.1" cy="49.5" rx=".7" ry=".5"/><ellipse cx="451.1" cy="47.9" rx=".7" ry=".5"/><g><ellipse cx="449.5" cy="44.7" rx=".7" ry=".5"/><ellipse cx="449.5" cy="46.3" rx=".7" ry=".5"/><ellipse cx="449.5" cy="49.5" rx=".7" ry=".5"/><ellipse cx="449.5" cy="47.9" rx=".7" ry=".5"/></g><g><ellipse cx="447.7" cy="44.7" rx=".7" ry=".5"/><ellipse cx="447.7" cy="46.3" rx=".7" ry=".5"/><ellipse cx="447.7" cy="49.5" rx=".7" ry=".5"/><ellipse cx="447.7" cy="47.9" rx=".7" ry=".5"/></g></g><path fill="none" stroke="#303030" stroke-width=".25" stroke-linecap="round" stroke-linejoin="round" stroke-miterlimit="10" d="M476.6 28.2c-.3-.5.2-1.3.9-1.4.7-.1 1.4.7 1 1.3-.9-.4-1.4-1.4-1-2.2.2-.5.7-.9 1.2-1.1.6-.2 1.3-.1 1.8.2.5.4.8.8.8.8.3.3.5 1.1.1 1.4-.3.2-.7.2-.9.1-.3-.1-.5-.3-.8-.5-.7-.7-1.1-1.6-1.4-2.5-.2-.9-.1-2.1 1.3-2.5.4-.1.8-.1 1.2 0 1 .2 1.7.7 2.4 1.3.3.3.4.6.5 1 0 0 .1.3.1.9"/><path fill="#FAA31E" d="M479.2 46.8v-2.9c0-.2.1-.3.2-.3h2.7c.1 0 .2.1.2.3v2.9c0 .2-.1.3-.2.3h-2.7c-.1 0-.2-.1-.2-.3zM473 24.7V23c0-.1.1-.2.2-.2h3.3c.1 0 .2.1.2.2v1.7c0 .1-.1.2-.2.2h-3.3c-.1 0-.2-.1-.2-.2zM468.3 24.7V23c0-.1.1-.2.2-.2h3.3c.1 0 .2.1.2.2v1.7c0 .1-.1.2-.2.2h-3.3c-.1 0-.2-.1-.2-.2z"/><path fill="#E08626" d="M441.6 33h.9v7.9h-.9z"/><g fill="#DD2227" stroke="#DD2227" stroke-miterlimit="10"><path d="M450.2 36h1.9v1.6h-1.9zM448.3 36h1.9v1.6h-1.9zM448.3 37.6h1.9v1.6h-1.9zM448.3 34.3h1.9v1.6h-1.9zM446.4 36h1.9v1.6h-1.9z"/></g><g><path fill="#EFEFEF" d="M488.8 114.2h-54c-3.6 0-6.5-2.9-6.5-6.5V83.8h67v23.9c0 3.5-2.9 6.5-6.5 6.5z"/><path fill="#E5E5E5" d="M495.3 83.9l-31.2-19.7c-1.4-.9-3.3-.9-4.7 0l-31.2 19.7 1.9.3 28.8 13c2.1-1.5 5.7-.1 5.7-.1L493 84.3l2.3-.4z"/><path fill="none" stroke="#D6D6D4" stroke-miterlimit="10" d="M431.7 112l29-15.2c.6-.3 1.4-.3 2 0l29 15.2"/></g><path fill="#BFBFBF" d="M477.5 73.6h-7.2V58.9c0-.8-1.2-1.4-2.7-1.4h-11.7c-1.5 0-2.7.6-2.7 1.4v14.7H446c-.6 0-.9.5-.5.9l15.9 12.2c.3.2.7.2.9 0L478 74.5c.4-.3.1-.9-.5-.9z"/></g></svg>