<svg version="1.1" id="Layer_1" xmlns="http://www.w3.org/2000/svg" xmlns:xlink="http://www.w3.org/1999/xlink" x="0px" y="0px"
	 viewBox="0 0 539.2 155" enable-background="new 0 0 539.2 155" xml:space="preserve">
<g>
	<g>
		<path fill="#FDFDFE" d="M77.5,151.6c-40.7,0-73.8-33.1-73.8-73.8c0-40.7,33.1-73.8,73.8-73.8c40.7,0,73.8,33.1,73.8,73.8
			C151.3,118.5,118.2,151.6,77.5,151.6z"/>
		<path fill="#7DB28C" d="M77.5,7.4c38.8,0,70.3,31.5,70.3,70.3s-31.5,70.3-70.3,70.3S7.2,116.6,7.2,77.8S38.7,7.4,77.5,7.4
			 M77.5,0.4C34.9,0.4,0.2,35.1,0.2,77.8s34.7,77.3,77.3,77.3s77.3-34.7,77.3-77.3S120.2,0.4,77.5,0.4L77.5,0.4z"/>
	</g>
	<g>
		<path fill="#165F30" d="M107.3,50.2H48.8c-0.6,0-1-0.5-1-1V24.4c0-0.6,0.5-1,1-1h58.5c0.6,0,1,0.5,1,1v24.7
			C108.3,49.7,107.9,50.2,107.3,50.2z"/>
		<ellipse fill="#19753C" cx="77.8" cy="36.8" rx="6.5" ry="8.5"/>
		<path fill="#157139" d="M107.3,50.2H48.8c-0.6,0-1-0.5-1-1v-1.7c0-0.6,0.5-1,1-1h58.5c0.6,0,1,0.5,1,1v1.7
			C108.3,49.8,107.9,50.2,107.3,50.2z"/>
		<path fill="#157139" d="M107.3,27.2H48.8c-0.6,0-1-0.5-1-1v-1.7c0-0.6,0.5-1,1-1h58.5c0.6,0,1,0.5,1,1v1.7
			C108.3,26.7,107.9,27.2,107.3,27.2z"/>
		<path fill="#19753C" d="M107.3,50.2h-5.2c-0.6,0-1-0.5-1-1v-6.7c0-0.6,0.5-1,1-1h5.2c0.6,0,1,0.5,1,1v6.7
			C108.3,49.7,107.9,50.2,107.3,50.2z"/>
		<path fill="#19753C" d="M54.1,32.2h-5.2c-0.6,0-1-0.5-1-1v-6.7c0-0.6,0.5-1,1-1h5.2c0.6,0,1,0.5,1,1v6.7
			C55.1,31.8,54.6,32.2,54.1,32.2z"/>
	</g>
	<path fill="#BFBFBF" d="M93.6,77.2h-7.2V57.5c0-0.8-1.2-1.4-2.7-1.4H72c-1.5,0-2.7,0.6-2.7,1.4v19.7h-7.2c-0.6,0-0.9,0.5-0.5,0.9
		l15.9,12.2c0.3,0.2,0.7,0.2,0.9,0l15.6-12.2C94.5,77.8,94.2,77.2,93.6,77.2z"/>
	<path fill="#7DB28C" d="M22.7,122c0,0,16.4,27.1,55.5,27.1c35.2,0,55.1-27.1,55.1-27.1"/>
	<g>
		<g>
			<path fill="#FDFDFE" d="M43.9,135.3l0.8-0.2c0,0.3,0.1,0.5,0.2,0.8s0.2,0.5,0.3,0.7c0.1,0.2,0.3,0.4,0.5,0.5
				c0.2,0.1,0.5,0.2,0.8,0.2c0.5,0,0.8-0.1,1-0.4c0.2-0.3,0.4-0.6,0.4-1.1c0-0.4-0.1-0.8-0.3-1.1c-0.2-0.4-0.6-0.8-1-1.2l-1.6-1.6
				c-0.3-0.4-0.6-0.7-0.8-1c-0.2-0.3-0.3-0.6-0.3-1c0-0.7,0.2-1.2,0.6-1.6c0.4-0.4,1-0.6,1.7-0.6c0.7,0,1.2,0.2,1.6,0.6
				c0.4,0.4,0.7,0.9,0.8,1.6l0,0.1l-0.7,0.2l0-0.1c-0.1-0.5-0.3-0.9-0.5-1.2c-0.3-0.3-0.6-0.5-1.1-0.5c-0.4,0-0.8,0.1-1.1,0.3
				c-0.3,0.2-0.4,0.6-0.4,1c0,0.3,0.1,0.5,0.2,0.8c0.1,0.3,0.3,0.5,0.6,0.8l1.5,1.6c0,0,0.1,0.1,0.3,0.3c0.2,0.2,0.3,0.3,0.3,0.3
				s0.1,0.2,0.3,0.3c0.1,0.2,0.2,0.3,0.3,0.4s0.1,0.2,0.2,0.3s0.1,0.3,0.2,0.4c0,0.1,0.1,0.2,0.1,0.4c0,0.1,0,0.3,0,0.4
				c0,0.7-0.2,1.3-0.7,1.6c-0.4,0.4-1,0.6-1.7,0.6c-0.4,0-0.7-0.1-1-0.2c-0.3-0.1-0.5-0.3-0.7-0.6c-0.2-0.2-0.4-0.5-0.5-0.8
				C44,136,43.9,135.7,43.9,135.3z"/>
			<path fill="#FDFDFE" d="M49.6,136.3l0-5.5h0.9l0,5.5c0,0.3,0.1,0.6,0.2,0.8s0.3,0.2,0.5,0.2c0.2,0,0.4-0.1,0.6-0.2
				c0.2-0.1,0.4-0.3,0.6-0.5l0-5.8h0.9l0,6.9h-0.9v-0.7c-0.2,0.3-0.4,0.5-0.7,0.6c-0.3,0.1-0.5,0.2-0.8,0.2c-0.3,0-0.6-0.1-0.9-0.4
				S49.6,136.8,49.6,136.3z"/>
			<path fill="#FDFDFE" d="M54.8,137.7l0-10l0.9,0l0,3.7c0.2-0.3,0.4-0.5,0.6-0.6c0.2-0.1,0.5-0.2,0.7-0.2c0.2,0,0.3,0,0.4,0
				c0.1,0,0.3,0.1,0.4,0.2c0.1,0.1,0.3,0.3,0.4,0.5c0.1,0.2,0.2,0.6,0.2,1s0.1,0.9,0.1,1.5v0.5c0,0.4,0,0.8,0,1.1s-0.1,0.6-0.1,0.8
				c-0.1,0.2-0.1,0.4-0.2,0.6s-0.2,0.3-0.2,0.4c-0.1,0.1-0.2,0.2-0.3,0.2s-0.2,0.1-0.3,0.1c-0.1,0-0.2,0-0.3,0
				c-0.6,0-1.1-0.3-1.4-0.8v0.7H54.8z M57.7,134.6V134c0-0.4,0-0.8,0-1.1c0-0.3-0.1-0.6-0.1-0.8c0-0.2-0.1-0.4-0.1-0.5
				c0-0.1-0.1-0.2-0.2-0.3c-0.1-0.1-0.1-0.1-0.2-0.1c-0.1,0-0.1,0-0.2,0c-0.4,0-0.8,0.2-1.2,0.7l0,4.6c0.2,0.2,0.4,0.4,0.6,0.5
				c0.2,0.1,0.4,0.2,0.6,0.2c0.1,0,0.1,0,0.2,0s0.1,0,0.2-0.1c0.1,0,0.1-0.1,0.2-0.2c0-0.1,0.1-0.2,0.1-0.3c0-0.1,0.1-0.3,0.1-0.5
				c0-0.2,0-0.4,0.1-0.7C57.7,135.3,57.7,134.9,57.7,134.6z"/>
			<path fill="#FDFDFE" d="M59.9,137.7l0-6.9h0.9v0.6c0.5-0.5,1-0.8,1.5-0.8c0.2,0,0.5,0.1,0.7,0.2c0.2,0.1,0.4,0.3,0.5,0.6
				c0.2-0.3,0.5-0.5,0.7-0.6c0.3-0.1,0.5-0.2,0.7-0.2c0.4,0,0.7,0.1,0.9,0.4c0.3,0.2,0.4,0.6,0.4,0.9l0,5.8l-0.9,0l0-5.6
				c0-0.3-0.1-0.5-0.2-0.6c-0.1-0.1-0.3-0.2-0.5-0.2c-0.4,0-0.7,0.2-1.1,0.6l0,5.9h-0.9l0-5.6c0-0.6-0.2-0.8-0.7-0.8
				c-0.2,0-0.4,0.1-0.6,0.2c-0.2,0.1-0.4,0.3-0.6,0.5l0,5.8H59.9z"/>
			<path fill="#FDFDFE" d="M67.7,129.2v-1l0.9,0v1L67.7,129.2z M67.7,137.7l0-6.9h0.9l0,6.9L67.7,137.7z"/>
			<path fill="#FDFDFE" d="M70.2,136.1l0-4.8h-0.9v-0.5l0.9,0l0-2.5h0.9l0,2.5h1.1v0.5l-1.1,0l0,4.8c0,0.2,0,0.3,0,0.4s0,0.2,0,0.3
				s0.1,0.2,0.1,0.2c0,0.1,0.1,0.1,0.2,0.1c0.1,0,0.2,0.1,0.3,0.1c0.2,0,0.4,0,0.5,0v0.6c-0.3,0.1-0.5,0.1-0.8,0.1
				c-0.2,0-0.4,0-0.6-0.1c-0.2-0.1-0.3-0.2-0.4-0.3s-0.1-0.2-0.2-0.4s-0.1-0.3-0.1-0.5C70.2,136.5,70.2,136.3,70.2,136.1z"/>
			<path fill="#FDFDFE" d="M75.6,137.7l0-10l2.4,0c0.3,0,0.7,0,0.9,0.1s0.5,0.2,0.7,0.4c0.2,0.2,0.3,0.4,0.4,0.6
				c0.1,0.2,0.2,0.5,0.2,0.7c0,0.3,0.1,0.5,0.1,0.8c0,0.3,0,0.6-0.1,0.8s-0.1,0.5-0.2,0.8s-0.3,0.5-0.4,0.6s-0.4,0.3-0.7,0.4
				c-0.3,0.1-0.6,0.2-1,0.2h-1.6l0,4.4H75.6z M76.5,132.6l1.7,0c0.5,0,0.8-0.2,1.1-0.5c0.2-0.3,0.3-0.9,0.3-1.6
				c0-0.7-0.1-1.2-0.3-1.5c-0.2-0.3-0.6-0.5-1-0.5h-1.7L76.5,132.6z"/>
			<path fill="#FDFDFE" d="M83.9,137.7l-0.1-0.8c-0.2,0.3-0.4,0.6-0.7,0.7c-0.3,0.2-0.5,0.3-0.8,0.3c-0.4,0-0.7-0.1-1-0.4
				c-0.3-0.3-0.4-0.7-0.4-1.1c0-0.1,0-0.2,0-0.3s0-0.2,0-0.3c0-0.1,0-0.2,0.1-0.3s0.1-0.2,0.1-0.3c0.1-0.1,0.1-0.2,0.2-0.3
				c0.1-0.1,0.2-0.2,0.3-0.3c0.1-0.1,0.3-0.2,0.5-0.3s0.4-0.2,0.6-0.3c0.2-0.1,0.5-0.2,0.8-0.4v-0.1c0-0.4,0-0.7-0.1-1
				c0-0.3-0.1-0.5-0.1-0.6c-0.1-0.2-0.1-0.3-0.2-0.4s-0.2-0.1-0.2-0.2c-0.1,0-0.2,0-0.3,0c-0.1,0-0.2,0-0.3,0
				c-0.1,0-0.2,0.1-0.3,0.2s-0.2,0.2-0.2,0.4c-0.1,0.2-0.1,0.4-0.1,0.7v0h-0.9c0-0.6,0.2-1.1,0.5-1.4c0.3-0.3,0.7-0.5,1.2-0.5
				c0.3,0,0.5,0,0.7,0.1c0.2,0.1,0.4,0.2,0.5,0.3s0.2,0.3,0.3,0.5c0.1,0.2,0.1,0.4,0.2,0.6c0,0.2,0,0.4,0,0.6l0,3.3
				c0,0.2,0,0.5,0,0.8s0,0.5,0.1,0.6l0,0.2H83.9z M83.7,136.3l0-2.4c-0.3,0.2-0.5,0.4-0.7,0.5s-0.3,0.3-0.5,0.4s-0.3,0.3-0.4,0.4
				c-0.1,0.1-0.2,0.3-0.2,0.4c-0.1,0.2-0.1,0.3-0.1,0.5c0,0.3,0.1,0.6,0.2,0.7s0.3,0.2,0.5,0.2c0.2,0,0.4-0.1,0.7-0.2
				C83.4,136.8,83.6,136.6,83.7,136.3z"/>
			<path fill="#FDFDFE" d="M85.6,139.5v-0.7c0.5,0,0.8-0.1,1-0.2s0.3-0.3,0.3-0.5c0-0.3,0-0.6-0.1-0.8l-1.5-6.4h0.9l1.2,5.8l1.2-5.8
				h0.9l-1.7,7.4c-0.1,0.4-0.3,0.8-0.7,0.9C86.8,139.3,86.3,139.4,85.6,139.5L85.6,139.5z"/>
			<path fill="#FDFDFE" d="M90.4,137.7l0-6.9l0.9,0v0.6c0.5-0.5,1-0.8,1.5-0.8c0.2,0,0.5,0.1,0.7,0.2c0.2,0.1,0.4,0.3,0.5,0.6
				c0.2-0.3,0.5-0.5,0.7-0.6c0.3-0.1,0.5-0.2,0.7-0.2c0.4,0,0.7,0.1,0.9,0.4s0.4,0.6,0.4,0.9l0,5.8h-0.9l0-5.6
				c0-0.3-0.1-0.5-0.2-0.6c-0.1-0.1-0.3-0.2-0.5-0.2c-0.4,0-0.7,0.2-1.1,0.6l0,5.9h-0.9l0-5.6c0-0.6-0.2-0.8-0.7-0.8
				c-0.2,0-0.4,0.1-0.6,0.2c-0.2,0.1-0.4,0.3-0.6,0.5l0,5.8H90.4z"/>
			<path fill="#FDFDFE" d="M98,134.5v-1c0-0.5,0-0.9,0.1-1.3c0.1-0.4,0.2-0.6,0.3-0.8c0.1-0.2,0.2-0.4,0.4-0.5
				c0.2-0.1,0.3-0.2,0.5-0.3c0.2,0,0.4-0.1,0.6-0.1c0.6,0,1.1,0.2,1.3,0.7s0.4,1.1,0.4,2.1c0,0.3,0,0.5,0,0.7l-2.8,0v1.1
				c0,0.5,0,0.8,0.1,1.1c0,0.3,0.1,0.5,0.2,0.7c0.1,0.1,0.2,0.2,0.3,0.3c0.1,0,0.3,0.1,0.4,0.1c0.3,0,0.5-0.1,0.7-0.4
				s0.3-0.7,0.3-1.3h0.8c0,0.3-0.1,0.5-0.1,0.7c0,0.2-0.1,0.4-0.2,0.6c-0.1,0.2-0.2,0.4-0.3,0.5c-0.1,0.1-0.3,0.2-0.5,0.3
				c-0.2,0.1-0.4,0.1-0.7,0.1c-0.5,0-0.9-0.1-1.1-0.3s-0.5-0.5-0.6-1C98.1,136.1,98,135.4,98,134.5z M98.9,133.7h1.9
				c0-0.2,0-0.3,0-0.5c0-0.2,0-0.3,0-0.5s0-0.3,0-0.5c0-0.1,0-0.3-0.1-0.4c0-0.1-0.1-0.2-0.1-0.3c-0.1-0.1-0.1-0.2-0.2-0.2
				c-0.1-0.1-0.2-0.1-0.3-0.1c-0.2,0-0.4,0-0.5,0.1c-0.1,0.1-0.2,0.2-0.3,0.3c-0.1,0.1-0.1,0.3-0.2,0.5c0,0.2-0.1,0.5-0.1,0.7
				C98.9,133,98.9,133.3,98.9,133.7z"/>
			<path fill="#FDFDFE" d="M102.9,137.7l0-6.9h0.9v0.7c0.2-0.3,0.4-0.5,0.7-0.6c0.3-0.1,0.5-0.2,0.8-0.2c0.3,0,0.6,0.1,0.9,0.4
				c0.3,0.3,0.4,0.7,0.4,1.2l0,5.5h-0.9l0-5.5c0-0.3-0.1-0.6-0.2-0.8c-0.1-0.2-0.3-0.2-0.5-0.2c-0.2,0-0.4,0.1-0.6,0.2
				c-0.2,0.1-0.4,0.3-0.6,0.5l0,5.8H102.9z"/>
			<path fill="#FDFDFE" d="M108.2,136.1l0-4.8h-0.9v-0.5h0.9l0-2.5h0.9l0,2.5h1.1v0.5l-1.1,0l0,4.8c0,0.2,0,0.3,0,0.4s0,0.2,0,0.3
				s0.1,0.2,0.1,0.2c0,0.1,0.1,0.1,0.2,0.1c0.1,0,0.2,0.1,0.3,0.1c0.2,0,0.4,0,0.5,0v0.6c-0.3,0.1-0.5,0.1-0.8,0.1
				c-0.2,0-0.4,0-0.6-0.1s-0.3-0.2-0.4-0.3s-0.1-0.2-0.2-0.4c0-0.2-0.1-0.3-0.1-0.5C108.2,136.5,108.2,136.3,108.2,136.1z"/>
		</g>
	</g>
	<g>
		<g>
			<polygon fill="#151515" points="25.5,98.5 47.7,98.5 47.7,114.4 25.5,114.4 34.6,106.3 			"/>
		</g>
		<polygon fill="#3E3B3B" points="45.6,112 47.7,114.4 47.7,112 		"/>
		<g>
			<polygon fill="#151515" points="129.8,98.6 107.6,98.6 107.6,114.5 129.8,114.5 120.7,106.5 			"/>
		</g>
		<polygon fill="#3E3B3B" points="107.6,112.2 107.6,114.5 109.7,112.2 		"/>
		<polygon fill="#151515" points="45.6,112 109.7,112.2 109.7,94.5 45.6,94.5 		"/>
		<g>
			
				<image overflow="visible" opacity="0.6" width="259" height="124" xlink:href="37F12992.png"  transform="matrix(0.24 0 0 0.24 46.8947 91.3131)">
			</image>
			<g>
				<g>
					<path fill="#FDFEFF" d="M57.8,108.2V99h-1.9v-0.7h4.7V99h-1.9v9.2H57.8z"/>
					<path fill="#FDFEFF" d="M63.4,105v-1c0-0.5,0-0.9,0.1-1.2c0.1-0.3,0.1-0.6,0.3-0.8c0.1-0.2,0.2-0.4,0.4-0.5
						c0.2-0.1,0.3-0.2,0.5-0.3c0.2,0,0.4-0.1,0.6-0.1c0.6,0,1.1,0.2,1.3,0.7s0.4,1.1,0.4,2.1c0,0.3,0,0.5,0,0.7h-2.8v1
						c0,0.5,0,0.8,0.1,1.1s0.1,0.5,0.2,0.7s0.2,0.2,0.3,0.3s0.3,0.1,0.4,0.1c0.3,0,0.5-0.1,0.6-0.4c0.2-0.3,0.3-0.7,0.3-1.3H67
						c0,0.3-0.1,0.5-0.1,0.7c0,0.2-0.1,0.4-0.2,0.6c-0.1,0.2-0.2,0.4-0.3,0.5s-0.3,0.2-0.5,0.3s-0.4,0.1-0.7,0.1
						c-0.5,0-0.9-0.1-1.1-0.3c-0.3-0.2-0.5-0.5-0.6-1C63.4,106.6,63.4,105.9,63.4,105z M64.2,104.2h1.9c0-0.2,0-0.3,0-0.5
						c0-0.2,0-0.3,0-0.5c0-0.2,0-0.3,0-0.5c0-0.1,0-0.3-0.1-0.4c0-0.1-0.1-0.2-0.1-0.3c-0.1-0.1-0.1-0.2-0.2-0.2
						c-0.1-0.1-0.2-0.1-0.3-0.1c-0.2,0-0.4,0-0.5,0.1c-0.1,0.1-0.2,0.2-0.3,0.3c-0.1,0.1-0.1,0.3-0.2,0.5c0,0.2-0.1,0.5-0.1,0.6
						C64.2,103.5,64.2,103.8,64.2,104.2z"/>
					<path fill="#FDFEFF" d="M70.7,108.2v-9.9h0.9v9.9H70.7z"/>
					<path fill="#FDFEFF" d="M75.5,108.2v-9.9h0.9v9.9H75.5z"/>
					<path fill="#FDFEFF" d="M80,109.9v-0.7c0.5,0,0.8-0.1,1-0.2c0.2-0.1,0.3-0.3,0.3-0.5c0-0.3,0-0.6-0.1-0.8l-1.5-6.3h0.9l1.2,5.7
						l1.2-5.7h0.9l-1.7,7.4c-0.1,0.4-0.3,0.8-0.7,0.9S80.7,109.9,80,109.9L80,109.9z"/>
					<path fill="#3F709A" d="M89.5,108.2v-9.9H93V99h-2.6v3.7h1.8v0.7h-1.8v4.1H93v0.7H89.5z"/>
					<path fill="#3F709A" d="M95.8,108.2l1.5-3.6l-1.5-3.3h0.9l1.1,2.9l1.1-2.9h0.9l-1.5,3.3l1.5,3.6H99l-1.2-3.1l-1.2,3.1H95.8z"/>
				</g>
			</g>
		</g>
	</g>
</g>
<g>
	<g>
		<path fill="#FDFDFE" d="M269.7,151.6c-40.7,0-73.8-33.1-73.8-73.8c0-40.7,33.1-73.8,73.8-73.8s73.8,33.1,73.8,73.8
			C343.5,118.4,310.4,151.6,269.7,151.6z"/>
		<path fill="#7EA8BF" d="M269.7,7.4c38.8,0,70.3,31.5,70.3,70.3s-31.5,70.3-70.3,70.3s-70.3-31.5-70.3-70.3S230.8,7.4,269.7,7.4
			 M269.7,0.4c-42.6,0-77.3,34.7-77.3,77.3s34.7,77.3,77.3,77.3S347,120.4,347,77.7S312.3,0.4,269.7,0.4L269.7,0.4z"/>
	</g>
	<path fill="#7EA8BF" d="M214.8,122c0,0,16.4,27.1,55.5,27.1c35.2,0,55.1-27.1,55.1-27.1"/>
	<g>
		<g>
			<path fill="#FDFDFE" d="M237.4,137.7l-1.7-10h0.8l1.4,8.5l1.3-8.5h1.1l1.2,8.5l1.4-8.5h0.8l-1.7,10h-1l-1.2-8.8l-1.3,8.8H237.4z"
				/>
			<path fill="#FDFDFE" d="M247.1,137.7l-0.1-0.8c-0.2,0.3-0.4,0.6-0.7,0.7s-0.5,0.3-0.8,0.3c-0.4,0-0.7-0.1-1-0.4
				c-0.3-0.3-0.4-0.7-0.4-1.1c0-0.1,0-0.2,0-0.3s0-0.2,0-0.3c0-0.1,0-0.2,0.1-0.3c0-0.1,0.1-0.2,0.1-0.3c0.1-0.1,0.1-0.2,0.2-0.3
				c0.1-0.1,0.2-0.2,0.3-0.3c0.1-0.1,0.3-0.2,0.5-0.3s0.4-0.2,0.6-0.3c0.2-0.1,0.5-0.2,0.8-0.4v-0.1c0-0.4,0-0.7-0.1-1
				c0-0.3-0.1-0.5-0.1-0.6c-0.1-0.2-0.1-0.3-0.2-0.4s-0.2-0.1-0.2-0.2c-0.1,0-0.2,0-0.3,0c-0.1,0-0.2,0-0.3,0
				c-0.1,0-0.2,0.1-0.3,0.2s-0.2,0.2-0.2,0.4c-0.1,0.2-0.1,0.4-0.1,0.7v0h-0.9c0-0.6,0.2-1.1,0.5-1.4c0.3-0.3,0.7-0.5,1.2-0.5
				c0.3,0,0.5,0,0.7,0.1c0.2,0.1,0.4,0.2,0.5,0.3c0.1,0.1,0.2,0.3,0.3,0.5c0.1,0.2,0.1,0.4,0.2,0.6c0,0.2,0,0.4,0,0.6l0,3.3
				c0,0.2,0,0.5,0,0.8c0,0.3,0,0.5,0.1,0.6l0,0.2H247.1z M247,136.3l0-2.4c-0.3,0.2-0.5,0.4-0.7,0.5c-0.2,0.1-0.3,0.3-0.5,0.4
				s-0.3,0.3-0.4,0.4c-0.1,0.1-0.2,0.3-0.2,0.4c-0.1,0.2-0.1,0.3-0.1,0.5c0,0.3,0.1,0.6,0.2,0.7s0.3,0.2,0.5,0.2
				c0.2,0,0.4-0.1,0.7-0.2C246.7,136.7,246.8,136.5,247,136.3z"/>
			<path fill="#FDFDFE" d="M249.2,129.1v-1h0.9v1H249.2z M249.2,137.7l0-6.9h0.9l0,6.9H249.2z"/>
			<path fill="#FDFDFE" d="M251.7,136l0-4.8l-0.9,0v-0.5h0.9l0-2.5h0.9l0,2.5l1.1,0v0.5h-1.1l0,4.8c0,0.2,0,0.3,0,0.4s0,0.2,0,0.3
				c0,0.1,0.1,0.2,0.1,0.2c0,0.1,0.1,0.1,0.2,0.1c0.1,0,0.2,0.1,0.3,0.1c0.2,0,0.4,0,0.5,0v0.6c-0.3,0.1-0.5,0.1-0.8,0.1
				c-0.2,0-0.4,0-0.6-0.1c-0.2-0.1-0.3-0.2-0.4-0.3s-0.1-0.2-0.2-0.4s-0.1-0.3-0.1-0.5C251.8,136.4,251.7,136.2,251.7,136z"/>
			<path fill="#FDFDFE" d="M257.2,137.7l0-10l3.5,0l0,0.7l-2.6,0l0,3.8l2.1,0v0.7H258l0,4.8L257.2,137.7z"/>
			<path fill="#FDFDFE" d="M261.1,134.4V134c0-0.3,0-0.5,0-0.7s0-0.4,0-0.7c0-0.3,0.1-0.5,0.1-0.7c0-0.2,0.1-0.3,0.2-0.5
				c0.1-0.2,0.2-0.4,0.3-0.5c0.1-0.1,0.3-0.2,0.5-0.3c0.2-0.1,0.4-0.1,0.7-0.1s0.5,0,0.7,0.1c0.2,0.1,0.4,0.2,0.5,0.3
				c0.1,0.1,0.2,0.3,0.3,0.5c0.1,0.2,0.2,0.4,0.2,0.5c0,0.2,0.1,0.4,0.1,0.7c0,0.3,0,0.5,0,0.7c0,0.2,0,0.4,0,0.7v0.4
				c0,0.3,0,0.5,0,0.6c0,0.1,0,0.3,0,0.5c0,0.2,0,0.4,0,0.5s-0.1,0.3-0.1,0.5c0,0.2-0.1,0.3-0.2,0.4c-0.1,0.1-0.1,0.2-0.2,0.3
				c-0.1,0.1-0.2,0.2-0.3,0.3s-0.3,0.1-0.4,0.2c-0.2,0-0.3,0.1-0.5,0.1c-0.2,0-0.4,0-0.5-0.1c-0.2,0-0.3-0.1-0.4-0.2
				c-0.1-0.1-0.2-0.2-0.3-0.3c-0.1-0.1-0.2-0.2-0.2-0.3c-0.1-0.1-0.1-0.3-0.2-0.4c0-0.2-0.1-0.3-0.1-0.5c0-0.1,0-0.3,0-0.5
				c0-0.2,0-0.4,0-0.5C261.1,134.8,261.1,134.6,261.1,134.4z M262,134v0.4c0,1.1,0.1,1.8,0.2,2.2s0.4,0.6,0.8,0.6
				c0.4,0,0.6-0.2,0.8-0.6c0.1-0.4,0.2-1.2,0.2-2.2V134c0-0.4,0-0.7,0-0.9c0-0.3,0-0.5,0-0.7c0-0.2-0.1-0.4-0.1-0.6
				c0-0.1-0.1-0.3-0.2-0.4c-0.1-0.1-0.2-0.2-0.3-0.2c-0.1,0-0.2-0.1-0.4-0.1c-0.1,0-0.3,0-0.4,0.1c-0.1,0-0.2,0.1-0.3,0.2
				c-0.1,0.1-0.1,0.2-0.2,0.4c0,0.1-0.1,0.3-0.1,0.6c0,0.2,0,0.5,0,0.7C262,133.3,262,133.7,262,134z"/>
			<path fill="#FDFDFE" d="M266.1,137.7l0-6.9h0.9v1c0.1-0.4,0.3-0.6,0.6-0.8c0.3-0.2,0.6-0.3,0.9-0.3l0,0.9c0,0-0.1,0-0.1,0
				c-0.9,0-1.3,0.3-1.3,1l0,5.2L266.1,137.7z"/>
			<path fill="#FDFDFE" d="M271.7,137.7l0-10l2.2,0c0.4,0,0.7,0.1,1,0.2c0.3,0.1,0.5,0.2,0.7,0.4s0.3,0.4,0.5,0.6
				c0.1,0.3,0.2,0.5,0.3,0.8c0.1,0.3,0.1,0.6,0.1,0.9l0,4.1c0,2-0.8,2.9-2.5,2.9L271.7,137.7z M272.6,137h1.4c1.1,0,1.7-0.7,1.7-2
				l0-4.4c0-1.4-0.6-2.1-1.7-2.1l-1.4,0L272.6,137z"/>
			<path fill="#FDFDFE" d="M277.8,134.5v-1c0-0.5,0-0.9,0.1-1.3c0.1-0.4,0.2-0.6,0.3-0.8c0.1-0.2,0.2-0.4,0.4-0.5
				c0.2-0.1,0.3-0.2,0.5-0.3c0.2,0,0.4-0.1,0.6-0.1c0.6,0,1.1,0.2,1.3,0.7c0.3,0.4,0.4,1.1,0.4,2.1c0,0.3,0,0.5,0,0.7l-2.8,0v1.1
				c0,0.5,0,0.8,0.1,1.1c0,0.3,0.1,0.5,0.2,0.7c0.1,0.1,0.2,0.2,0.3,0.3c0.1,0.1,0.3,0.1,0.4,0.1c0.3,0,0.5-0.1,0.7-0.4
				s0.3-0.7,0.3-1.3h0.8c0,0.3-0.1,0.5-0.1,0.7c0,0.2-0.1,0.4-0.2,0.6c-0.1,0.2-0.2,0.4-0.3,0.5c-0.1,0.1-0.3,0.2-0.5,0.3
				c-0.2,0.1-0.4,0.1-0.7,0.1c-0.5,0-0.9-0.1-1.1-0.3c-0.3-0.2-0.5-0.5-0.6-1C277.8,136,277.8,135.3,277.8,134.5z M278.6,133.6h1.9
				c0-0.2,0-0.3,0-0.5c0-0.2,0-0.3,0-0.5c0-0.2,0-0.3,0-0.5c0-0.1,0-0.3-0.1-0.4c0-0.1-0.1-0.2-0.1-0.3s-0.1-0.2-0.2-0.2
				c-0.1-0.1-0.2-0.1-0.3-0.1c-0.2,0-0.4,0-0.5,0.1c-0.1,0.1-0.2,0.2-0.3,0.3c-0.1,0.1-0.1,0.3-0.2,0.5c0,0.2-0.1,0.5-0.1,0.7
				S278.6,133.2,278.6,133.6z"/>
			<path fill="#FDFDFE" d="M282.8,137.7l0-10h0.9l0,10H282.8z"/>
			<path fill="#FDFDFE" d="M285.3,129.1v-1h0.9v1H285.3z M285.3,137.7l0-6.9l0.9,0l0,6.9H285.3z"/>
			<path fill="#FDFDFE" d="M288.6,137.7l-1.6-6.9h0.8l1.2,6.2l1.1-6.2h0.8l-1.4,6.9H288.6z"/>
			<path fill="#FDFDFE" d="M291.8,134.5v-1c0-0.5,0-0.9,0.1-1.3c0.1-0.4,0.2-0.6,0.3-0.8c0.1-0.2,0.2-0.4,0.4-0.5
				c0.2-0.1,0.3-0.2,0.5-0.3s0.4-0.1,0.6-0.1c0.6,0,1.1,0.2,1.3,0.7c0.3,0.4,0.4,1.1,0.4,2.1c0,0.3,0,0.5,0,0.7l-2.8,0v1.1
				c0,0.5,0,0.8,0.1,1.1c0,0.3,0.1,0.5,0.2,0.7s0.2,0.2,0.3,0.3c0.1,0.1,0.3,0.1,0.4,0.1c0.3,0,0.5-0.1,0.7-0.4s0.3-0.7,0.3-1.3
				l0.8,0c0,0.3-0.1,0.5-0.1,0.7c0,0.2-0.1,0.4-0.2,0.6c-0.1,0.2-0.2,0.4-0.3,0.5c-0.1,0.1-0.3,0.2-0.5,0.3
				c-0.2,0.1-0.4,0.1-0.7,0.1c-0.5,0-0.9-0.1-1.1-0.3c-0.3-0.2-0.5-0.5-0.6-1C291.8,136,291.8,135.3,291.8,134.5z M292.6,133.6
				l1.9,0c0-0.2,0-0.3,0-0.5s0-0.3,0-0.5c0-0.2,0-0.3,0-0.5c0-0.1,0-0.3-0.1-0.4c0-0.1-0.1-0.2-0.1-0.3c-0.1-0.1-0.1-0.2-0.2-0.2
				s-0.2-0.1-0.3-0.1c-0.2,0-0.4,0-0.5,0.1c-0.1,0.1-0.2,0.2-0.3,0.3s-0.1,0.3-0.2,0.5c0,0.2-0.1,0.5-0.1,0.7
				C292.6,132.9,292.6,133.2,292.6,133.6z"/>
			<path fill="#FDFDFE" d="M296.6,137.7l0-6.9h0.9v1c0.1-0.4,0.3-0.6,0.6-0.8s0.6-0.3,0.9-0.3v0.9c0,0-0.1,0-0.1,0
				c-0.9,0-1.3,0.3-1.3,1l0,5.2H296.6z"/>
			<path fill="#FDFDFE" d="M299.5,139.4l0-0.7c0.5,0,0.8-0.1,1-0.2c0.2-0.1,0.3-0.3,0.3-0.5c0-0.3,0-0.6-0.1-0.8l-1.5-6.4h0.9
				l1.2,5.8l1.2-5.8h0.9l-1.7,7.4c-0.1,0.4-0.3,0.8-0.7,0.9S300.1,139.4,299.5,139.4L299.5,139.4z"/>
		</g>
	</g>
	<path fill="#F2F2F2" d="M275.2,61.6c-12.5,0.1-25.1,0.2-37.6,0.4c-4.5,0-9,0.1-13.3-1.4c-4.2-1.4-8.1-4.6-9.2-8.9
		c-1.2-4.6,1.5-9.9,5.9-11.8c4.4-1.8,10,0.1,12.5,4.2c-0.2-7.4,7.5-14,14.8-12.6c7.3,1.4,12.2,10.2,9.4,17.1
		c7.2-2.2,15.1-2,22.1,0.6c2.9,1.1,6,3.2,6,6.3c0,2.3-1.8,4.3-3.9,5.2S277.5,61.6,275.2,61.6z"/>
	<path fill="#F2F2F2" d="M327.9,100.9c-3.7,6.3-11.7,6.7-18.6,6.5l-46-0.8c-1.4,0-2.5-1.3-2.2-2.7c0.2-1,0.9-2.1,1.7-2.7
		c1.7-1.2,3.9-1.3,6-1.3c9.8-0.3,19.5-0.6,29.3-0.8c-3.8-2.1-5.6-7-4.5-11.2c1.1-4.2,4.7-7.5,8.8-9c4.1-1.4,8.7-1.2,12.9,0.1
		c6.4,1.9,12.4,6.4,13.9,13.3C329.8,95.2,329.4,98.4,327.9,100.9z"/>
	<path fill="#3F709A" d="M223.5,52.1c0.7,0.1,1.3,0.5,1.7,1c2.4,3.1,11.7,14.5,12,14.5c6.4-0.2,57.7,0.2,69.6,0.3
		c4.6,0.1,13.5,4.9,13.5,8.3c0,1.1-1,2.3-2.1,3.2c-1.3,1.1-2.9,1.7-4.6,1.7l-24.7,0c-0.2,0-26.9,18.8-26.9,18.8
		c-0.2,0.2-0.4,0.3-0.7,0.3l-10-0.3c-0.9,0-1.3-1-0.8-1.6L263,82c1.1-1.4-1.8-1.4-2.7-1.4l-25.9-0.2c-7.2-0.9-8.1-3.1-9.2-5
		c-0.1-0.2-4.5-18.1-5.2-22.7c-0.1-0.6,0.4-1.1,1-1L223.5,52.1z"/>
	<path fill="#3F709A" d="M262.9,65.3l-9.3-13.4c-0.2-0.3,0-0.7,0.4-0.7h8.4c0.3,0,0.6,0.1,0.8,0.4l18.9,13.8
		c0.1,0.1,0.1,0.3-0.1,0.3h-18.4C263.3,65.7,263,65.6,262.9,65.3z"/>
</g>
<g>
	<path fill="#F4F4F4" d="M414.2,120.9"/>
	<g>
		<path fill="#FDFDFE" d="M461.8,151.3c-40.7,0-73.8-33.1-73.8-73.8c0-40.7,33.1-73.8,73.8-73.8s73.8,33.1,73.8,73.8
			C535.6,118.1,502.5,151.3,461.8,151.3z"/>
		<path fill="#F1B275" d="M461.8,7.1c38.8,0,70.3,31.5,70.3,70.3s-31.5,70.3-70.3,70.3s-70.3-31.5-70.3-70.3S423,7.1,461.8,7.1
			 M461.8,0.1c-42.6,0-77.3,34.7-77.3,77.3s34.7,77.3,77.3,77.3s77.3-34.7,77.3-77.3S504.5,0.1,461.8,0.1L461.8,0.1z"/>
	</g>
	<path fill="#F2B375" d="M407,121.7c0,0,16.4,27.1,55.5,27.1c35.2,0,55.1-27.1,55.1-27.1"/>
	<g>
		<g>
			<path fill="#FDFDFE" d="M422.5,132.5l0.8-0.2c0,0.3,0.1,0.5,0.2,0.8c0.1,0.2,0.2,0.5,0.3,0.7c0.1,0.2,0.3,0.4,0.5,0.5
				c0.2,0.1,0.5,0.2,0.8,0.2c0.5,0,0.8-0.1,1-0.4c0.2-0.3,0.4-0.6,0.4-1.1c0-0.4-0.1-0.8-0.3-1.1c-0.2-0.4-0.6-0.8-1-1.2l-1.6-1.6
				c-0.3-0.4-0.6-0.7-0.8-1c-0.2-0.3-0.3-0.6-0.3-1c0-0.7,0.2-1.2,0.6-1.6c0.4-0.4,1-0.6,1.7-0.6c0.7,0,1.2,0.2,1.6,0.6
				c0.4,0.4,0.7,0.9,0.8,1.6l0,0.1l-0.7,0.2l0-0.1c-0.1-0.5-0.3-0.9-0.5-1.2s-0.6-0.5-1.1-0.5c-0.4,0-0.8,0.1-1.1,0.3
				s-0.4,0.6-0.4,1c0,0.3,0.1,0.5,0.2,0.8c0.1,0.3,0.3,0.5,0.6,0.8l1.5,1.6c0,0,0.1,0.1,0.3,0.3s0.3,0.3,0.3,0.3
				c0,0.1,0.1,0.2,0.3,0.3c0.1,0.2,0.2,0.3,0.3,0.4c0,0.1,0.1,0.2,0.2,0.3c0.1,0.1,0.1,0.3,0.2,0.4c0,0.1,0.1,0.2,0.1,0.4
				c0,0.1,0,0.3,0,0.4c0,0.7-0.2,1.3-0.7,1.6c-0.4,0.4-1,0.6-1.7,0.6c-0.4,0-0.7-0.1-1-0.2c-0.3-0.1-0.5-0.3-0.7-0.6
				s-0.4-0.5-0.5-0.8C422.7,133.2,422.6,132.9,422.5,132.5z"/>
			<path fill="#FDFDFE" d="M428.2,131.7l0-1c0-0.5,0-0.9,0.1-1.3s0.2-0.6,0.3-0.8c0.1-0.2,0.2-0.4,0.4-0.5c0.2-0.1,0.3-0.2,0.5-0.3
				c0.2,0,0.4-0.1,0.6-0.1c0.6,0,1.1,0.2,1.3,0.7s0.4,1.1,0.4,2.1c0,0.3,0,0.5,0,0.7l-2.8,0v1.1c0,0.5,0,0.8,0.1,1.1
				c0,0.3,0.1,0.5,0.2,0.7c0.1,0.1,0.2,0.2,0.3,0.3c0.1,0,0.3,0.1,0.4,0.1c0.3,0,0.5-0.1,0.7-0.4s0.3-0.7,0.3-1.3h0.8
				c0,0.3-0.1,0.5-0.1,0.7c0,0.2-0.1,0.4-0.2,0.6c-0.1,0.2-0.2,0.4-0.3,0.5c-0.1,0.1-0.3,0.2-0.5,0.3s-0.4,0.1-0.7,0.1
				c-0.5,0-0.9-0.1-1.1-0.3c-0.3-0.2-0.5-0.5-0.6-1C428.3,133.3,428.2,132.6,428.2,131.7z M429.1,130.8l1.9,0c0-0.2,0-0.3,0-0.5
				s0-0.3,0-0.5c0-0.2,0-0.3,0-0.5s0-0.3-0.1-0.4c0-0.1-0.1-0.2-0.1-0.3c-0.1-0.1-0.1-0.2-0.2-0.2s-0.2-0.1-0.3-0.1
				c-0.2,0-0.4,0-0.5,0.1c-0.1,0.1-0.2,0.2-0.3,0.3s-0.1,0.3-0.2,0.5c0,0.2-0.1,0.5-0.1,0.7S429.1,130.4,429.1,130.8z"/>
			<path fill="#FDFDFE" d="M433.1,134.9l0-6.9h0.9v0.7c0.2-0.3,0.4-0.5,0.7-0.6c0.3-0.1,0.5-0.2,0.8-0.2c0.3,0,0.6,0.1,0.9,0.4
				c0.3,0.3,0.4,0.7,0.4,1.2l0,5.5l-0.9,0l0-5.5c0-0.3-0.1-0.6-0.2-0.8s-0.3-0.2-0.5-0.2c-0.2,0-0.4,0.1-0.6,0.2s-0.4,0.3-0.6,0.5
				l0,5.8L433.1,134.9z"/>
			<path fill="#FDFDFE" d="M440.9,134.9v-0.7c-0.3,0.5-0.8,0.8-1.4,0.8c-0.1,0-0.2,0-0.3,0s-0.2-0.1-0.3-0.1
				c-0.1-0.1-0.2-0.1-0.3-0.2s-0.2-0.2-0.2-0.4s-0.1-0.4-0.2-0.6c-0.1-0.2-0.1-0.5-0.1-0.8c0-0.3,0-0.7,0-1.1v-0.5
				c0-0.6,0-1.1,0.1-1.5s0.1-0.8,0.2-1c0.1-0.2,0.2-0.4,0.4-0.5c0.1-0.1,0.3-0.2,0.4-0.2c0.1,0,0.3,0,0.4,0c0.2,0,0.5,0.1,0.7,0.2
				c0.2,0.1,0.4,0.3,0.6,0.6l0-3.7l0.9,0l0,10H440.9z M440.9,133.7l0-4.6c-0.4-0.5-0.8-0.7-1.2-0.7c-0.1,0-0.2,0-0.2,0
				c-0.1,0-0.1,0.1-0.2,0.1c-0.1,0.1-0.1,0.1-0.2,0.3c0,0.1-0.1,0.3-0.1,0.5c0,0.2-0.1,0.5-0.1,0.8c0,0.3,0,0.7,0,1.1v0.5
				c0,0.4,0,0.7,0,1s0,0.5,0.1,0.7c0,0.2,0.1,0.3,0.1,0.5c0,0.1,0.1,0.2,0.1,0.3c0,0.1,0.1,0.1,0.2,0.2s0.1,0.1,0.2,0.1s0.1,0,0.2,0
				c0.2,0,0.4-0.1,0.6-0.2C440.5,134.1,440.7,133.9,440.9,133.7z"/>
			<path fill="#FDFDFE" d="M445.6,134.9l0-10l2.1,0c0.3,0,0.6,0,0.9,0.1s0.5,0.2,0.6,0.4s0.3,0.3,0.4,0.6c0.1,0.2,0.2,0.5,0.2,0.7
				c0,0.2,0.1,0.5,0.1,0.7c0,0.4-0.1,0.8-0.3,1.2c-0.2,0.4-0.5,0.7-0.8,0.8c0.2,0.1,0.4,0.2,0.6,0.4s0.3,0.4,0.4,0.6
				c0.1,0.2,0.2,0.5,0.2,0.7c0,0.2,0.1,0.5,0.1,0.7c0,0.3,0,0.7,0,0.9c0,0.3-0.1,0.5-0.2,0.8c-0.1,0.3-0.2,0.5-0.4,0.7
				c-0.2,0.2-0.4,0.3-0.7,0.4s-0.6,0.2-1,0.2H445.6z M446.5,129.2h1.4c0.2,0,0.4,0,0.6-0.1s0.3-0.2,0.4-0.4c0.1-0.2,0.1-0.3,0.2-0.5
				c0-0.2,0.1-0.4,0.1-0.6c0-1.3-0.5-1.9-1.4-1.9h-1.1L446.5,129.2z M446.5,134.2h1.6c0.2,0,0.4,0,0.5-0.1c0.2-0.1,0.3-0.2,0.4-0.3
				c0.1-0.1,0.2-0.3,0.2-0.5c0.1-0.2,0.1-0.4,0.1-0.6c0-0.2,0-0.4,0-0.7c0-0.2,0-0.4,0-0.6c0-0.2-0.1-0.4-0.1-0.6
				c-0.1-0.2-0.1-0.3-0.2-0.5c-0.1-0.1-0.2-0.2-0.4-0.3s-0.3-0.1-0.5-0.1h-1.6L446.5,134.2z"/>
			<path fill="#FDFDFE" d="M454,134.9l-0.1-0.8c-0.2,0.3-0.4,0.6-0.7,0.7s-0.5,0.3-0.8,0.3c-0.4,0-0.7-0.1-1-0.4
				c-0.3-0.3-0.4-0.7-0.4-1.1c0-0.1,0-0.2,0-0.3s0-0.2,0-0.3c0-0.1,0-0.2,0.1-0.3c0-0.1,0.1-0.2,0.1-0.3c0.1-0.1,0.1-0.2,0.2-0.3
				c0.1-0.1,0.2-0.2,0.3-0.3c0.1-0.1,0.3-0.2,0.5-0.3c0.2-0.1,0.4-0.2,0.6-0.3c0.2-0.1,0.5-0.2,0.8-0.4v-0.1c0-0.4,0-0.7-0.1-1
				c0-0.3-0.1-0.5-0.1-0.6s-0.1-0.3-0.2-0.4s-0.2-0.1-0.2-0.2s-0.2,0-0.3,0c-0.1,0-0.2,0-0.3,0s-0.2,0.1-0.3,0.2s-0.2,0.2-0.2,0.4
				s-0.1,0.4-0.1,0.7v0l-0.9,0c0-0.6,0.2-1.1,0.5-1.4c0.3-0.3,0.7-0.5,1.2-0.5c0.3,0,0.5,0,0.7,0.1c0.2,0.1,0.4,0.2,0.5,0.3
				c0.1,0.1,0.2,0.3,0.3,0.5s0.1,0.4,0.2,0.6c0,0.2,0,0.4,0,0.6l0,3.3c0,0.2,0,0.5,0,0.8s0,0.5,0.1,0.6l0,0.2L454,134.9z
				 M453.8,133.5l0-2.4c-0.3,0.2-0.5,0.4-0.7,0.5s-0.3,0.3-0.5,0.4c-0.2,0.2-0.3,0.3-0.4,0.4c-0.1,0.1-0.2,0.3-0.2,0.4
				c-0.1,0.2-0.1,0.3-0.1,0.5c0,0.3,0.1,0.6,0.2,0.7c0.1,0.2,0.3,0.2,0.5,0.2c0.2,0,0.4-0.1,0.7-0.2
				C453.5,133.9,453.7,133.7,453.8,133.5z"/>
			<path fill="#FDFDFE" d="M455.9,131.6v-0.4c0-0.3,0-0.5,0-0.7c0-0.2,0-0.4,0-0.7s0.1-0.5,0.1-0.7c0-0.2,0.1-0.3,0.2-0.5
				c0.1-0.2,0.2-0.4,0.3-0.5c0.1-0.1,0.3-0.2,0.5-0.3c0.2-0.1,0.4-0.1,0.7-0.1c0.3,0,0.5,0,0.7,0.1c0.2,0.1,0.4,0.2,0.5,0.3
				c0.1,0.1,0.2,0.3,0.3,0.5c0.1,0.2,0.1,0.4,0.2,0.6c0,0.2,0.1,0.5,0.1,0.7c0,0,0,0,0,0s0,0,0,0h-0.9v-0.1c0-0.7-0.1-1.1-0.2-1.4
				c-0.1-0.3-0.3-0.4-0.7-0.4c-0.2,0-0.3,0-0.4,0.1c-0.1,0-0.2,0.1-0.3,0.2s-0.1,0.2-0.2,0.4c0,0.1-0.1,0.3-0.1,0.6
				c0,0.2,0,0.5-0.1,0.7s0,0.6,0,0.9v0.4c0,1.1,0.1,1.8,0.2,2.2c0.1,0.4,0.4,0.6,0.8,0.6c0.3,0,0.5-0.1,0.7-0.4
				c0.1-0.3,0.2-0.8,0.2-1.4v-0.1h0.9v0c0,0.3,0,0.6-0.1,0.8c0,0.2-0.1,0.4-0.2,0.7c-0.1,0.2-0.2,0.4-0.3,0.5
				c-0.1,0.1-0.3,0.3-0.5,0.3c-0.2,0.1-0.4,0.1-0.7,0.1c-0.2,0-0.4,0-0.6-0.1c-0.2,0-0.3-0.1-0.5-0.2c-0.1-0.1-0.2-0.2-0.3-0.3
				s-0.2-0.3-0.2-0.5c-0.1-0.2-0.1-0.4-0.1-0.5c0-0.1-0.1-0.3-0.1-0.6s0-0.5,0-0.6C455.9,132.1,455.9,131.9,455.9,131.6z"/>
			<path fill="#FDFDFE" d="M460.7,134.9l0-10h0.9l0,6.3l2.2-3.3l1,0l-1.7,2.6l1.7,4.3h-0.9l-1.4-3.8l-0.9,1.1l0,2.7H460.7z"/>
			<path fill="#FDFDFE" d="M469.4,134.9l0-3.1l-2.2-6.9l0.9,0c0.1,0.3,0.2,0.7,0.3,1.2c0.1,0.5,0.3,1,0.5,1.5c0.2,0.5,0.3,1,0.5,1.5
				c0.1,0.5,0.3,0.9,0.4,1.2l0.1,0.5c0.2-0.9,0.5-1.9,0.9-3c0.3-1.1,0.6-2,0.8-2.9h0.9l-2.1,6.9l0,3.1H469.4z"/>
			<path fill="#FDFDFE" d="M472.6,131.6v-0.4c0-0.3,0-0.5,0-0.7c0-0.2,0-0.4,0-0.7c0-0.3,0.1-0.5,0.1-0.7c0-0.2,0.1-0.3,0.2-0.5
				c0.1-0.2,0.2-0.4,0.3-0.5c0.1-0.1,0.3-0.2,0.5-0.3c0.2-0.1,0.4-0.1,0.7-0.1s0.5,0,0.7,0.1c0.2,0.1,0.4,0.2,0.5,0.3
				c0.1,0.1,0.2,0.3,0.3,0.5c0.1,0.2,0.2,0.4,0.2,0.5c0,0.2,0.1,0.4,0.1,0.7c0,0.3,0,0.5,0,0.7s0,0.4,0,0.7v0.4c0,0.3,0,0.5,0,0.6
				c0,0.1,0,0.3,0,0.5c0,0.2,0,0.4,0,0.5c0,0.1-0.1,0.3-0.1,0.5c0,0.2-0.1,0.3-0.2,0.4c-0.1,0.1-0.1,0.2-0.2,0.3
				c-0.1,0.1-0.2,0.2-0.3,0.3c-0.1,0.1-0.3,0.1-0.4,0.2c-0.2,0-0.3,0.1-0.5,0.1c-0.2,0-0.4,0-0.5-0.1c-0.2,0-0.3-0.1-0.4-0.2
				s-0.2-0.2-0.3-0.3c-0.1-0.1-0.2-0.2-0.2-0.3c-0.1-0.1-0.1-0.3-0.2-0.4c0-0.2-0.1-0.3-0.1-0.5s0-0.3,0-0.5c0-0.2,0-0.4,0-0.5
				C472.6,132.1,472.6,131.9,472.6,131.6z M473.5,131.2v0.4c0,1.1,0.1,1.8,0.2,2.2c0.1,0.4,0.4,0.6,0.8,0.6c0.4,0,0.6-0.2,0.8-0.6
				c0.1-0.4,0.2-1.2,0.2-2.2v-0.4c0-0.4,0-0.7,0-0.9c0-0.3,0-0.5,0-0.7c0-0.2-0.1-0.4-0.1-0.6c0-0.1-0.1-0.3-0.2-0.4
				c-0.1-0.1-0.2-0.2-0.3-0.2c-0.1,0-0.2-0.1-0.4-0.1c-0.1,0-0.3,0-0.4,0.1c-0.1,0-0.2,0.1-0.3,0.2s-0.1,0.2-0.2,0.4
				c0,0.1-0.1,0.3-0.1,0.6c0,0.2,0,0.5,0,0.7S473.5,130.9,473.5,131.2z"/>
			<path fill="#FDFDFE" d="M477.5,133.4l0-5.5h0.9l0,5.5c0,0.3,0.1,0.6,0.2,0.8c0.1,0.2,0.3,0.2,0.5,0.2c0.2,0,0.4-0.1,0.6-0.2
				c0.2-0.1,0.4-0.3,0.6-0.5l0-5.8h0.9l0,6.9l-0.9,0v-0.7c-0.2,0.3-0.4,0.5-0.7,0.6c-0.3,0.1-0.5,0.2-0.8,0.2
				c-0.3,0-0.6-0.1-0.9-0.4C477.7,134.3,477.5,133.9,477.5,133.4z"/>
			<path fill="#FDFDFE" d="M482.8,134.9l0-6.9h0.9v1c0.1-0.4,0.3-0.6,0.6-0.8c0.3-0.2,0.6-0.3,0.9-0.3l0,0.9c0,0-0.1,0-0.1,0
				c-0.9,0-1.3,0.3-1.3,1l0,5.2H482.8z"/>
			<path fill="#FDFDFE" d="M488.2,132l0-4.2c0-0.4,0-0.7,0.1-1c0.1-0.3,0.1-0.6,0.3-0.8c0.1-0.3,0.3-0.5,0.5-0.7s0.4-0.3,0.7-0.4
				c0.3-0.1,0.6-0.2,1-0.2c0.4,0,0.7,0.1,1,0.2s0.5,0.2,0.7,0.4s0.3,0.4,0.5,0.7c0.1,0.3,0.2,0.5,0.3,0.8c0.1,0.3,0.1,0.6,0.1,1
				l0,4.2c0,2-0.8,3-2.5,3C489,135,488.2,134,488.2,132z M492.4,132.2l0-4.6c0-1.4-0.6-2.1-1.7-2.1c-1.1,0-1.7,0.7-1.7,2.1l0,4.6
				c0,1.4,0.6,2.1,1.7,2.1C491.8,134.3,492.4,133.6,492.4,132.2z"/>
			<path fill="#FDFDFE" d="M494.8,134.9l0-10h0.9l0,10H494.8z"/>
			<path fill="#FDFDFE" d="M499.9,134.9v-0.7c-0.3,0.5-0.8,0.8-1.4,0.8c-0.1,0-0.2,0-0.3,0s-0.2-0.1-0.3-0.1
				c-0.1-0.1-0.2-0.1-0.3-0.2s-0.2-0.2-0.2-0.4s-0.1-0.4-0.2-0.6c-0.1-0.2-0.1-0.5-0.1-0.8c0-0.3,0-0.7,0-1.1v-0.6
				c0-0.6,0-1.1,0.1-1.5s0.1-0.8,0.2-1c0.1-0.2,0.2-0.4,0.4-0.5c0.1-0.1,0.3-0.2,0.4-0.2c0.1,0,0.3,0,0.4,0c0.2,0,0.5,0.1,0.7,0.2
				c0.2,0.1,0.4,0.3,0.6,0.6l0-3.7l0.9,0l0,10H499.9z M499.9,133.7l0-4.6c-0.4-0.5-0.8-0.7-1.2-0.7c-0.1,0-0.2,0-0.2,0
				s-0.1,0.1-0.2,0.1c-0.1,0.1-0.1,0.1-0.2,0.3c0,0.1-0.1,0.3-0.1,0.5c0,0.2-0.1,0.5-0.1,0.8c0,0.3,0,0.7,0,1.1v0.5c0,0.4,0,0.7,0,1
				c0,0.3,0,0.5,0.1,0.7c0,0.2,0.1,0.3,0.1,0.5c0,0.1,0.1,0.2,0.1,0.3c0,0.1,0.1,0.1,0.2,0.2c0.1,0,0.1,0.1,0.2,0.1c0,0,0.1,0,0.2,0
				c0.2,0,0.4-0.1,0.6-0.2C499.6,134.1,499.8,133.9,499.9,133.7z"/>
			<path fill="#FDFDFE" d="M449.9,149.1l0-10l2.4,0c0.3,0,0.7,0,0.9,0.1s0.5,0.2,0.7,0.4s0.3,0.4,0.4,0.6c0.1,0.2,0.2,0.5,0.2,0.7
				c0,0.3,0.1,0.5,0.1,0.8c0,0.3,0,0.6-0.1,0.8c0,0.3-0.1,0.5-0.2,0.8c-0.1,0.3-0.3,0.5-0.4,0.6c-0.2,0.2-0.4,0.3-0.7,0.4
				c-0.3,0.1-0.6,0.2-1,0.2l-1.6,0l0,4.4H449.9z M450.8,144l1.7,0c0.5,0,0.8-0.2,1.1-0.5c0.2-0.3,0.3-0.9,0.3-1.6
				c0-0.7-0.1-1.2-0.3-1.5c-0.2-0.3-0.6-0.5-1-0.5l-1.7,0L450.8,144z"/>
			<path fill="#FDFDFE" d="M455.6,149.1l0-10h0.9l0,3.7c0.2-0.3,0.4-0.5,0.7-0.6s0.5-0.2,0.8-0.2c0.4,0,0.7,0.1,0.9,0.4
				c0.3,0.3,0.4,0.7,0.4,1.2l0,5.5l-0.9,0l0-5.4c0-0.7-0.2-1-0.7-1c-0.2,0-0.4,0.1-0.6,0.2c-0.2,0.1-0.4,0.3-0.6,0.5l0,5.7
				L455.6,149.1z"/>
			<path fill="#FDFDFE" d="M460.5,145.8v-0.4c0-0.3,0-0.5,0-0.7c0-0.2,0-0.4,0-0.7c0-0.3,0.1-0.5,0.1-0.7c0-0.2,0.1-0.3,0.2-0.5
				c0.1-0.2,0.2-0.4,0.3-0.5c0.1-0.1,0.3-0.2,0.5-0.3c0.2-0.1,0.4-0.1,0.7-0.1s0.5,0,0.7,0.1c0.2,0.1,0.4,0.2,0.5,0.3
				c0.1,0.1,0.2,0.3,0.3,0.5c0.1,0.2,0.2,0.4,0.2,0.5c0,0.2,0.1,0.4,0.1,0.7s0,0.5,0,0.7c0,0.2,0,0.4,0,0.7v0.4c0,0.3,0,0.5,0,0.6
				c0,0.1,0,0.3,0,0.5s0,0.4,0,0.5c0,0.1-0.1,0.3-0.1,0.5c0,0.2-0.1,0.3-0.2,0.4c-0.1,0.1-0.1,0.2-0.2,0.3c-0.1,0.1-0.2,0.2-0.3,0.3
				c-0.1,0.1-0.3,0.1-0.4,0.2c-0.2,0-0.3,0.1-0.5,0.1c-0.2,0-0.4,0-0.5-0.1c-0.2,0-0.3-0.1-0.4-0.2c-0.1-0.1-0.2-0.2-0.3-0.3
				c-0.1-0.1-0.2-0.2-0.2-0.3s-0.1-0.3-0.2-0.4c0-0.2-0.1-0.3-0.1-0.5c0-0.1,0-0.3,0-0.5s0-0.4,0-0.5
				C460.5,146.3,460.5,146.1,460.5,145.8z M461.4,145.5v0.4c0,1.1,0.1,1.8,0.2,2.2c0.1,0.4,0.4,0.6,0.8,0.6c0.4,0,0.6-0.2,0.8-0.6
				c0.1-0.4,0.2-1.2,0.2-2.2l0-0.4c0-0.4,0-0.7,0-0.9s0-0.5,0-0.7c0-0.2-0.1-0.4-0.1-0.6c0-0.1-0.1-0.3-0.2-0.4
				c-0.1-0.1-0.2-0.2-0.3-0.2c-0.1,0-0.2-0.1-0.4-0.1c-0.1,0-0.3,0-0.4,0.1c-0.1,0-0.2,0.1-0.3,0.2c-0.1,0.1-0.1,0.2-0.2,0.4
				c0,0.1-0.1,0.3-0.1,0.6c0,0.2,0,0.5,0,0.7S461.4,145.1,461.4,145.5z"/>
			<path fill="#FDFDFE" d="M465.5,149.1l0-6.9l0.9,0l0,0.7c0.2-0.3,0.4-0.5,0.7-0.6c0.3-0.1,0.5-0.2,0.8-0.2c0.3,0,0.6,0.1,0.9,0.4
				c0.3,0.3,0.4,0.7,0.4,1.2l0,5.5h-0.9l0-5.5c0-0.3-0.1-0.6-0.2-0.8c-0.1-0.2-0.3-0.2-0.5-0.2c-0.2,0-0.4,0.1-0.6,0.2
				c-0.2,0.1-0.4,0.3-0.6,0.5l0,5.8H465.5z"/>
			<path fill="#FDFDFE" d="M470.4,145.9v-1c0-0.5,0-0.9,0.1-1.3c0.1-0.4,0.2-0.6,0.3-0.8c0.1-0.2,0.2-0.4,0.4-0.5
				c0.2-0.1,0.3-0.2,0.5-0.3c0.2,0,0.4-0.1,0.6-0.1c0.6,0,1.1,0.2,1.3,0.7c0.3,0.4,0.4,1.1,0.4,2.1c0,0.3,0,0.5,0,0.7l-2.8,0v1.1
				c0,0.5,0,0.8,0.1,1.1c0,0.3,0.1,0.5,0.2,0.7c0.1,0.1,0.2,0.2,0.3,0.3c0.1,0.1,0.3,0.1,0.4,0.1c0.3,0,0.5-0.1,0.7-0.4
				s0.3-0.7,0.3-1.3h0.8c0,0.3-0.1,0.5-0.1,0.7c0,0.2-0.1,0.4-0.2,0.6c-0.1,0.2-0.2,0.4-0.3,0.5s-0.3,0.2-0.5,0.3
				c-0.2,0.1-0.4,0.1-0.7,0.1c-0.5,0-0.9-0.1-1.1-0.3c-0.3-0.2-0.5-0.5-0.6-1C470.4,147.5,470.4,146.8,470.4,145.9z M471.3,145.1
				h1.9c0-0.2,0-0.3,0-0.5c0-0.2,0-0.3,0-0.5s0-0.3,0-0.5c0-0.1,0-0.3-0.1-0.4c0-0.1-0.1-0.2-0.1-0.3s-0.1-0.2-0.2-0.2
				c-0.1-0.1-0.2-0.1-0.3-0.1c-0.2,0-0.4,0-0.5,0.1c-0.1,0.1-0.2,0.2-0.3,0.3c-0.1,0.1-0.1,0.3-0.2,0.5c0,0.2-0.1,0.5-0.1,0.7
				C471.3,144.4,471.3,144.7,471.3,145.1z"/>
		</g>
	</g>
	<g>
		<g>
			<path fill="#FAA31E" d="M439.9,48.4V25.3c0-1.1,1.1-2.1,2.5-2.1h37c1.4,0,2.5,0.9,2.5,2.1v23.1c0,1.1-1.1,2.1-2.5,2.1h-37
				C441.1,50.5,439.9,49.6,439.9,48.4z"/>
			<path fill="#F29922" d="M473.6,50.5h-31.2c-1.4,0-2.5-0.9-2.5-2.1V25.3c0-1.1,1.1-2.1,2.5-2.1h12.7"/>
			<path fill="#F3F3F3" d="M445,45.9V27.7c0-0.9,0.8-1.6,1.9-1.6h30.2c1,0,1.9,0.7,1.9,1.6v18.2c0,0.9-0.8,1.6-1.9,1.6h-30.2
				C445.8,47.5,445,46.8,445,45.9z"/>
			<g>
				
					<polyline fill="none" stroke="#C2C1C1" stroke-width="0.25" stroke-linecap="round" stroke-linejoin="round" stroke-miterlimit="10" points="
					468.1,26.3 470.4,28.8 466.3,29.3 467.3,30 468.2,30 468.8,32.7 467,33.9 468.4,37.9 469.9,37.9 470.9,40.6 469.6,40.2 
					469.1,42 466.8,42.7 465.4,45.1 465.4,46.5 462.6,46.5 462.3,47.4 460.3,47.4 				"/>
				
					<polyline fill="none" stroke="#C2C1C1" stroke-width="0.25" stroke-linecap="round" stroke-linejoin="round" stroke-miterlimit="10" points="
					470.5,39.5 474,41.1 474.9,40.3 475.5,42.4 476,45.1 478,43.8 478.8,46 				"/>
			</g>
			<g>
				<rect x="470.4" y="31.8" fill="#231F20" width="1.2" height="1"/>
				<rect x="468" y="31.8" fill="#231F20" width="1.2" height="1"/>
				<rect x="469.2" y="32.8" fill="#231F20" width="1.2" height="1"/>
				<rect x="470.4" y="33.8" fill="#231F20" width="1.2" height="1"/>
				<rect x="468" y="33.8" fill="#231F20" width="1.2" height="1"/>
				<rect x="470.4" y="39.2" fill="#231F20" width="1.2" height="1"/>
				<rect x="468" y="39.2" fill="#231F20" width="1.2" height="1"/>
				<rect x="469.2" y="40.2" fill="#231F20" width="1.2" height="1"/>
				<rect x="470.4" y="41.2" fill="#231F20" width="1.2" height="1"/>
				<rect x="468" y="41.2" fill="#231F20" width="1.2" height="1"/>
				<rect x="461.3" y="35.4" fill="#231F20" width="1.2" height="1"/>
				<rect x="461.3" y="36.5" fill="#231F20" width="1.2" height="1"/>
				<rect x="461.3" y="37.5" fill="#231F20" width="1.2" height="1"/>
			</g>
			<g>
				
					<polyline fill="none" stroke="#C2C1C1" stroke-width="0.25" stroke-linecap="round" stroke-linejoin="round" stroke-miterlimit="10" points="
					457.6,30.3 456.3,31.7 455.9,32.1 454.4,31 452.8,32.3 452.2,33.3 450.8,31.7 450.2,32.6 450.5,33.4 448.1,33.4 447,33.4 
					446,34.4 				"/>
				
					<line fill="none" stroke="#C2C1C1" stroke-width="0.25" stroke-linecap="round" stroke-linejoin="round" stroke-miterlimit="10" x1="457.4" y1="33" x2="456.3" y2="31.7"/>
				
					<path fill="none" stroke="#C2C1C1" stroke-width="0.25" stroke-linecap="round" stroke-linejoin="round" stroke-miterlimit="10" d="
					M447.5,30.9l0.7,2.5L447.5,30.9z"/>
				
					<line fill="none" stroke="#C2C1C1" stroke-width="0.25" stroke-linecap="round" stroke-linejoin="round" stroke-miterlimit="10" x1="446.4" y1="30.7" x2="447.5" y2="30.9"/>
			</g>
			
				<polyline fill="none" stroke="#C2C1C1" stroke-width="0.25" stroke-linecap="round" stroke-linejoin="round" stroke-miterlimit="10" points="
				455.5,38.1 456.3,39.3 456.9,40 455.8,41 456.6,41.3 455.2,41.3 457.1,42.4 455.3,42.5 454.3,42.8 			"/>
			
				<polyline fill="none" stroke="#C2C1C1" stroke-width="0.25" stroke-linecap="round" stroke-linejoin="round" stroke-miterlimit="10" points="
				454.9,47.5 455.9,47.1 456,46.3 456.9,45.6 456.4,45.1 456.8,44.5 457.1,44.1 457.1,44.1 			"/>
			<g>
				<path fill="#E2BC78" d="M454.3,51.6V22.1c0-2.1-2.2-3.7-4.9-3.7c-2.7,0-4.9,1.7-4.9,3.7v29.6c0,2,2.2,3.6,4.9,3.6
					C452.2,55.3,454.3,53.7,454.3,51.6z"/>
				<rect x="446.7" y="22.2" fill="#E2B588" width="5.7" height="29.4"/>
				<path fill="#E3C7A1" d="M445.7,40.6v-7.5c0-0.3,0.3-0.5,0.6-0.5h6.1c0.3,0,0.6,0.2,0.6,0.5v7.5c0,0.3-0.3,0.5-0.6,0.5h-6
					C446,41.1,445.7,40.8,445.7,40.6z"/>
				<path fill="#E3C7A1" d="M451.1,39.5c0.2-0.1,0.3-0.1,0.4-0.2c1-0.5,1.3-1.7-0.2-2.5c1.4-0.8,1.3-2,0.2-2.5
					c-0.2-0.1-0.3-0.1-0.4-0.2c-0.7-0.1-2.7-0.2-4.9,2.7C448.4,39.6,450.5,39.6,451.1,39.5z"/>
				<g>
					<g>
						<ellipse fill="#E49F67" cx="451.2" cy="24.3" rx="0.7" ry="0.5"/>
						<ellipse fill="#E49F67" cx="451.2" cy="25.9" rx="0.7" ry="0.5"/>
						<ellipse fill="#E49F67" cx="451.2" cy="29.2" rx="0.7" ry="0.5"/>
						<ellipse fill="#E49F67" cx="451.2" cy="27.5" rx="0.7" ry="0.5"/>
					</g>
					<g>
						<ellipse fill="#E49F67" cx="449.5" cy="24.3" rx="0.7" ry="0.5"/>
						<ellipse fill="#E49F67" cx="449.5" cy="25.9" rx="0.7" ry="0.5"/>
						<ellipse fill="#E49F67" cx="449.5" cy="29.2" rx="0.7" ry="0.5"/>
						<ellipse fill="#E49F67" cx="449.5" cy="27.5" rx="0.7" ry="0.5"/>
					</g>
					<g>
						<ellipse fill="#E49F67" cx="447.8" cy="24.3" rx="0.7" ry="0.5"/>
						<ellipse fill="#E49F67" cx="447.8" cy="25.9" rx="0.7" ry="0.5"/>
						<ellipse fill="#E49F67" cx="447.8" cy="29.2" rx="0.7" ry="0.5"/>
						<ellipse fill="#E49F67" cx="447.8" cy="27.5" rx="0.7" ry="0.5"/>
					</g>
				</g>
				<g>
					<g>
						<ellipse fill="#E49F67" cx="451.1" cy="44.7" rx="0.7" ry="0.5"/>
						<ellipse fill="#E49F67" cx="451.1" cy="46.3" rx="0.7" ry="0.5"/>
						<ellipse fill="#E49F67" cx="451.1" cy="49.5" rx="0.7" ry="0.5"/>
						<ellipse fill="#E49F67" cx="451.1" cy="47.9" rx="0.7" ry="0.5"/>
					</g>
					<g>
						<ellipse fill="#E49F67" cx="449.5" cy="44.7" rx="0.7" ry="0.5"/>
						<ellipse fill="#E49F67" cx="449.5" cy="46.3" rx="0.7" ry="0.5"/>
						<ellipse fill="#E49F67" cx="449.5" cy="49.5" rx="0.7" ry="0.5"/>
						<ellipse fill="#E49F67" cx="449.5" cy="47.9" rx="0.7" ry="0.5"/>
					</g>
					<g>
						<ellipse fill="#E49F67" cx="447.7" cy="44.7" rx="0.7" ry="0.5"/>
						<ellipse fill="#E49F67" cx="447.7" cy="46.3" rx="0.7" ry="0.5"/>
						<ellipse fill="#E49F67" cx="447.7" cy="49.5" rx="0.7" ry="0.5"/>
						<ellipse fill="#E49F67" cx="447.7" cy="47.9" rx="0.7" ry="0.5"/>
					</g>
				</g>
			</g>
			
				<path fill="none" stroke="#303030" stroke-width="0.25" stroke-linecap="round" stroke-linejoin="round" stroke-miterlimit="10" d="
				M476.6,28.2c-0.3-0.5,0.2-1.3,0.9-1.4c0.7-0.1,1.4,0.7,1,1.3c-0.9-0.4-1.4-1.4-1-2.2c0.2-0.5,0.7-0.9,1.2-1.1
				c0.6-0.2,1.3-0.1,1.8,0.2c0.5,0.4,0.8,0.8,0.8,0.8c0.3,0.3,0.5,1.1,0.1,1.4c-0.3,0.2-0.7,0.2-0.9,0.1c-0.3-0.1-0.5-0.3-0.8-0.5
				c-0.7-0.7-1.1-1.6-1.4-2.5c-0.2-0.9-0.1-2.1,1.3-2.5c0.4-0.1,0.8-0.1,1.2,0c1,0.2,1.7,0.7,2.4,1.3c0.3,0.3,0.4,0.6,0.5,1
				c0,0,0.1,0.3,0.1,0.9"/>
			<path fill="#FAA31E" d="M479.2,46.8v-2.9c0-0.2,0.1-0.3,0.2-0.3h2.7c0.1,0,0.2,0.1,0.2,0.3v2.9c0,0.2-0.1,0.3-0.2,0.3h-2.7
				C479.3,47.1,479.2,47,479.2,46.8z"/>
			<path fill="#FAA31E" d="M473,24.7V23c0-0.1,0.1-0.2,0.2-0.2h3.3c0.1,0,0.2,0.1,0.2,0.2v1.7c0,0.1-0.1,0.2-0.2,0.2h-3.3
				C473.1,24.9,473,24.8,473,24.7z"/>
			<path fill="#FAA31E" d="M468.3,24.7V23c0-0.1,0.1-0.2,0.2-0.2h3.3c0.1,0,0.2,0.1,0.2,0.2v1.7c0,0.1-0.1,0.2-0.2,0.2h-3.3
				C468.4,24.9,468.3,24.8,468.3,24.7z"/>
			<rect x="441.6" y="33" fill="#E08626" width="0.9" height="7.9"/>
		</g>
		<g>
			<rect x="450.2" y="36" fill="#DD2227" stroke="#DD2227" stroke-miterlimit="10" width="1.9" height="1.6"/>
			<rect x="448.3" y="36" fill="#DD2227" stroke="#DD2227" stroke-miterlimit="10" width="1.9" height="1.6"/>
			<rect x="448.3" y="37.6" fill="#DD2227" stroke="#DD2227" stroke-miterlimit="10" width="1.9" height="1.6"/>
			<rect x="448.3" y="34.3" fill="#DD2227" stroke="#DD2227" stroke-miterlimit="10" width="1.9" height="1.6"/>
			<rect x="446.4" y="36" fill="#DD2227" stroke="#DD2227" stroke-miterlimit="10" width="1.9" height="1.6"/>
		</g>
	</g>
	<g>
		<path fill="#EFEFEF" d="M488.8,114.2h-54c-3.6,0-6.5-2.9-6.5-6.5V83.8h67v23.9C495.3,111.2,492.4,114.2,488.8,114.2z"/>
		<path fill="#E5E5E5" d="M495.3,83.9l-31.2-19.7c-1.4-0.9-3.3-0.9-4.7,0l-31.2,19.7h0l1.9,0.3l28.8,13c2.1-1.5,5.7-0.1,5.7-0.1
			L493,84.3L495.3,83.9L495.3,83.9z"/>
		<path fill="none" stroke="#D6D6D4" stroke-miterlimit="10" d="M431.7,112l29-15.2c0.6-0.3,1.4-0.3,2,0l29,15.2"/>
	</g>
	<path fill="#BFBFBF" d="M477.5,73.6h-7.2V58.9c0-0.8-1.2-1.4-2.7-1.4h-11.7c-1.5,0-2.7,0.6-2.7,1.4v14.7H446
		c-0.6,0-0.9,0.5-0.5,0.9l15.9,12.2c0.3,0.2,0.7,0.2,0.9,0L478,74.5C478.4,74.2,478.1,73.6,477.5,73.6z"/>
</g>
</svg>
