<svg xmlns="http://www.w3.org/2000/svg" viewBox="0 0 18.8 28.5"><path fill="none" stroke="#37576D" stroke-width=".25" stroke-miterlimit="10" d="M17 28.5H1.8c-1 0-1.8-.8-1.8-1.8v-25C0 .8.8 0 1.8 0H17c1 0 1.8.8 1.8 1.8v25c0 .9-.8 1.7-1.8 1.7z"/><path fill="none" stroke="#37576D" stroke-width=".25" stroke-miterlimit="10" d="M2.8 2.9h13.1v21.8H2.8z"/><path fill="none" stroke="#37576D" stroke-width=".25" stroke-miterlimit="10" d="M14.6 13.1c0-.8-.8-1.5-1.9-1.5-.4 0-.7.1-1 .2v-.1c0-1.3-1.3-2.4-3-2.4-1.2.1-2.3.7-2.7 1.6-.1-.1-.3-.1-.4-.1-.7 0-1.3.8-1.3 1.9 0 .9.5 1.7 1.1 1.9.4.3 2 .5 3.9.5 1.8 0 3.4-.2 3.8-.5.8-.1 1.5-.7 1.5-1.5z"/><g fill="#37576D"><path d="M9.7 11.9H7.8c-.3 0-.5.2-.5.5V14c0 .3.2.5.5.5h1.9c.3 0 .5-.2.5-.5v-1.6c0-.3-.2-.5-.5-.5zm-.8 1.3l.1.3h-.4l.1-.3c-.1 0-.1-.1-.1-.2s.1-.3.2-.3.2.1.2.2 0 .2-.1.3zM8.2 11.1v-.4c0-.1 0-.1.1-.1h.9c.1 0 .1 0 .1.1v.9s0 .1.1.1h.2s.1 0 .1-.1v-.9c0-.3-.2-.5-.5-.5h-1c-.3 0-.5.2-.5.5v1H8s.1 0 .1-.1v-.1"/></g></svg>