<svg xmlns="http://www.w3.org/2000/svg" viewBox="0 0 18.8 28.5"><path fill="none" stroke="#37576D" stroke-width=".25" stroke-miterlimit="10" d="M17 28.5H1.8c-1 0-1.8-.8-1.8-1.8v-25C0 .8.8 0 1.8 0H17c1 0 1.8.8 1.8 1.8v25c0 .9-.8 1.7-1.8 1.7z"/><path fill="none" stroke="#37576D" stroke-width=".25" stroke-miterlimit="10" d="M2.8 2.9h13.1v21.8H2.8zM2.8 13.8l6-3.2M6.9 11.6l2.5.2M4.7 12.7l-.2-.9M15.9 21.6l-6.5-.8M13.4 21.2l-3.2-4.5M11.3 18.3l1.1-2.6M11.3 2.9l-1.1 2.5M10.2 5.4l3.2 1.1M13.4 6.5l.4 3.4M4.5 11.8l.5-1.5M10.2 16.7l-4.4.9"/></svg>