<svg version="1.1" id="Layer_1" xmlns="http://www.w3.org/2000/svg" xmlns:xlink="http://www.w3.org/1999/xlink" x="0px" y="0px"
	 viewBox="0 0 18.8 28.5" enable-background="new 0 0 18.8 28.5" xml:space="preserve">
<path fill="none" stroke="#37576D" stroke-width="0.25" stroke-miterlimit="10" d="M17,28.5H1.8c-1,0-1.8-0.8-1.8-1.8v-25
	C0,0.8,0.8,0,1.8,0H17c1,0,1.8,0.8,1.8,1.8v25C18.8,27.7,18,28.5,17,28.5z"/>
<rect x="2.8" y="2.9" fill="none" stroke="#37576D" stroke-width="0.25" stroke-miterlimit="10" width="13.1" height="21.8"/>
<path fill="none" stroke="#37576D" stroke-miterlimit="10" d="M11.1,8"/>
<path fill="none" stroke="#37576D" stroke-miterlimit="10" d="M11.1,7"/>
<g>
	<polygon fill="#37576D" points="8.3,13 8.9,13.6 7.2,17.4 11.5,13.5 11,13 	"/>
	<polygon fill="#37576D" points="7.4,12 10,12 9.4,11.4 9.8,7.6 7,11.5 7.4,11.9 	"/>
</g>
<line fill="none" stroke="#37576D" stroke-width="0.25" stroke-miterlimit="10" x1="6" y1="12" x2="12" y2="12"/>
<line fill="none" stroke="#37576D" stroke-width="0.25" stroke-miterlimit="10" x1="6" y1="13" x2="12" y2="13"/>
</svg>
