<svg version="1.1" id="Layer_1" xmlns="http://www.w3.org/2000/svg" xmlns:xlink="http://www.w3.org/1999/xlink" x="0px" y="0px"
	 viewBox="0 0 18.8 28.5" enable-background="new 0 0 18.8 28.5" xml:space="preserve">
<path fill="none" stroke="#37576D" stroke-width="0.25" stroke-miterlimit="10" d="M17,28.5H1.8c-1,0-1.8-0.8-1.8-1.8v-25
	C0,0.8,0.8,0,1.8,0H17c1,0,1.8,0.8,1.8,1.8v25C18.8,27.7,18,28.5,17,28.5z"/>
<rect x="2.8" y="2.9" fill="none" stroke="#37576D" stroke-width="0.25" stroke-miterlimit="10" width="13.1" height="21.8"/>
<path fill="none" stroke="#37576D" stroke-width="0.25" stroke-miterlimit="10" d="M14.6,13.1c0-0.8-0.8-1.5-1.9-1.5
	c-0.4,0-0.7,0.1-1,0.2c0,0,0-0.1,0-0.1c0-1.3-1.3-2.4-3-2.4C7.5,9.4,6.4,10,6,10.9c-0.1-0.1-0.3-0.1-0.4-0.1c-0.7,0-1.3,0.8-1.3,1.9
	c0,0.9,0.5,1.7,1.1,1.9c0.4,0.3,2,0.5,3.9,0.5c1.8,0,3.4-0.2,3.8-0.5C13.9,14.5,14.6,13.9,14.6,13.1z"/>
<g>
	<path fill="#37576D" d="M9.7,11.9H7.8c-0.3,0-0.5,0.2-0.5,0.5v1.6c0,0.3,0.2,0.5,0.5,0.5h1.9c0.3,0,0.5-0.2,0.5-0.5v-1.6
		C10.2,12.1,10,11.9,9.7,11.9z M8.9,13.2L9,13.5c0,0,0,0,0,0H8.6c0,0,0,0,0,0l0.1-0.3c0,0,0,0,0,0c-0.1,0-0.1-0.1-0.1-0.2
		c0-0.1,0.1-0.3,0.2-0.3c0.1,0,0.2,0.1,0.2,0.2C9,13,9,13.1,8.9,13.2C8.9,13.2,8.9,13.2,8.9,13.2z"/>
	<path fill="#37576D" d="M8.2,11.1C8.2,11.1,8.2,11.1,8.2,11.1l0-0.4c0-0.1,0-0.1,0.1-0.1h0.9c0.1,0,0.1,0,0.1,0.1v0.4v0.1v0.4
		c0,0,0,0.1,0.1,0.1h0.2c0,0,0.1,0,0.1-0.1v-0.9c0-0.3-0.2-0.5-0.5-0.5h-1c-0.3,0-0.5,0.2-0.5,0.5v1c0,0,0,0,0,0h0.3
		c0,0,0.1,0,0.1-0.1v-0.1c0,0,0,0,0,0"/>
</g>
</svg>
