<svg version="1.1" id="Layer_1" xmlns="http://www.w3.org/2000/svg" xmlns:xlink="http://www.w3.org/1999/xlink" x="0px" y="0px"
	 viewBox="0 0 18.8 28.5" enable-background="new 0 0 18.8 28.5" xml:space="preserve">
<path fill="none" stroke="#37576D" stroke-width="0.25" stroke-miterlimit="10" d="M17,28.5H1.8c-1,0-1.8-0.8-1.8-1.8v-25
	C0,0.8,0.8,0,1.8,0H17c1,0,1.8,0.8,1.8,1.8v25C18.8,27.7,18,28.5,17,28.5z"/>
<rect x="2.8" y="2.9" fill="none" stroke="#37576D" stroke-width="0.25" stroke-miterlimit="10" width="13.1" height="21.8"/>
<path fill="none" stroke="#37576D" stroke-width="0.25" stroke-miterlimit="10" d="M11.4,16.3H7.3C7.2,16.3,7,16.1,7,16V8.8
	c0-0.2,0.1-0.3,0.3-0.3h4.1c0.2,0,0.3,0.1,0.3,0.3V16C11.7,16.1,11.6,16.3,11.4,16.3z"/>
<rect x="8.5" y="8" fill="none" stroke="#37576D" stroke-width="0.25" stroke-miterlimit="10" width="1.9" height="0.5"/>
<path fill="#37576D" d="M11,15.8H7.8c-0.2,0-0.3-0.1-0.3-0.3v-1.3h3.8v1.3C11.3,15.7,11.2,15.8,11,15.8z"/>
</svg>
