<svg xmlns="http://www.w3.org/2000/svg" viewBox="0 0 18.8 28.5"><path fill="none" stroke="#37576D" stroke-width=".25" stroke-miterlimit="10" d="M17 28.5H1.8c-1 0-1.8-.8-1.8-1.8v-25C0 .8.8 0 1.8 0H17c1 0 1.8.8 1.8 1.8v25c0 .9-.8 1.7-1.8 1.7z"/><path fill="none" stroke="#37576D" stroke-width=".25" stroke-miterlimit="10" d="M2.8 2.9h13.1v21.8H2.8z"/><path fill="none" stroke="#37576D" stroke-width=".25" stroke-miterlimit="10" d="M11.4 16.3H7.3c-.1 0-.3-.2-.3-.3V8.8c0-.2.1-.3.3-.3h4.1c.2 0 .3.1.3.3V16c0 .1-.1.3-.3.3zM8.5 8h1.9v.5H8.5z"/><path fill="#37576D" d="M11 15.8H7.8c-.2 0-.3-.1-.3-.3v-1.3h3.8v1.3c0 .2-.1.3-.3.3z"/></svg>