<svg version="1.1" id="Layer_1" xmlns="http://www.w3.org/2000/svg" xmlns:xlink="http://www.w3.org/1999/xlink" x="0px" y="0px"
	 viewBox="0 0 18.8 28.5" enable-background="new 0 0 18.8 28.5" xml:space="preserve">
<path fill="none" stroke="#37576D" stroke-width="0.25" stroke-miterlimit="10" d="M17,28.5H1.8c-1,0-1.8-0.8-1.8-1.8v-25
	C0,0.8,0.8,0,1.8,0H17c1,0,1.8,0.8,1.8,1.8v25C18.8,27.7,18,28.5,17,28.5z"/>
<rect x="2.8" y="2.9" fill="none" stroke="#37576D" stroke-width="0.25" stroke-miterlimit="10" width="13.1" height="21.8"/>
<line fill="none" stroke="#37576D" stroke-width="0.25" stroke-miterlimit="10" x1="2.8" y1="13.8" x2="8.8" y2="10.6"/>
<line fill="none" stroke="#37576D" stroke-width="0.25" stroke-miterlimit="10" x1="6.9" y1="11.6" x2="9.4" y2="11.8"/>
<line fill="none" stroke="#37576D" stroke-width="0.25" stroke-miterlimit="10" x1="4.7" y1="12.7" x2="4.5" y2="11.8"/>
<line fill="none" stroke="#37576D" stroke-width="0.25" stroke-miterlimit="10" x1="15.9" y1="21.6" x2="9.4" y2="20.8"/>
<line fill="none" stroke="#37576D" stroke-width="0.25" stroke-miterlimit="10" x1="13.4" y1="21.2" x2="10.2" y2="16.7"/>
<line fill="none" stroke="#37576D" stroke-width="0.25" stroke-miterlimit="10" x1="11.3" y1="18.3" x2="12.4" y2="15.7"/>
<line fill="none" stroke="#37576D" stroke-width="0.25" stroke-miterlimit="10" x1="11.3" y1="2.9" x2="10.2" y2="5.4"/>
<line fill="none" stroke="#37576D" stroke-width="0.25" stroke-miterlimit="10" x1="10.2" y1="5.4" x2="13.4" y2="6.5"/>
<line fill="none" stroke="#37576D" stroke-width="0.25" stroke-miterlimit="10" x1="13.4" y1="6.5" x2="13.8" y2="9.9"/>
<line fill="none" stroke="#37576D" stroke-width="0.25" stroke-miterlimit="10" x1="4.5" y1="11.8" x2="5" y2="10.3"/>
<line fill="none" stroke="#37576D" stroke-width="0.25" stroke-miterlimit="10" x1="10.2" y1="16.7" x2="5.8" y2="17.6"/>
</svg>
