<svg xmlns="http://www.w3.org/2000/svg" viewBox="0 0 18.8 28.5"><path fill="none" stroke="#37576D" stroke-width=".25" stroke-miterlimit="10" d="M17 28.5H1.8c-1 0-1.8-.8-1.8-1.8v-25C0 .8.8 0 1.8 0H17c1 0 1.8.8 1.8 1.8v25c0 .9-.8 1.7-1.8 1.7z"/><path fill="none" stroke="#37576D" stroke-width=".25" stroke-miterlimit="10" d="M2.8 2.9h13.1v21.8H2.8z"/><g fill="#37576D"><path d="M8.3 13l.6.6-1.7 3.8 4.3-3.9-.5-.5M7.4 12H10l-.6-.6.4-3.8L7 11.5l.4.4"/></g><path fill="none" stroke="#37576D" stroke-width=".25" stroke-miterlimit="10" d="M6 12h6M6 13h6"/></svg>