<svg xmlns="http://www.w3.org/2000/svg" viewBox="0 0 43 52.5"><path fill="#FFDD05" d="M16.8 36.5c5-6.5 9-14.1 9-19.6 0-2.9-2.1-4.9-4.7-6.4.1 6-2 20-4.3 26M.3 52.5c11.8-4 29-13.2 40.9-21.4 1-.7 1.8-1.3 1.8-2.4 0-1.9-3.6-4.6-5.3-5.6C28.3 32.8 9.6 47.5.3 52.5"/><path fill="#FFDD05" d="M11.3 44.2c7.3-5 17.9-14.5 21.5-19.7.8-1.2 1.5-1.9 1.5-3.2 0-2.1-2.4-3.6-4.2-4.7-4.3 10-13.7 22.3-18.8 27.6M17.9 30.3c.9-6.2.4-13.8-.8-18.5-.7-2.6-3-5.5-5.1-6.4 2.8 8 5.2 19.3 5.9 24.9M15.8 21.5C13.6 15.5 8.1 3.1 0 0c5.3 5.8 13.1 17.4 15.8 21.5"/></svg>