<svg xmlns="http://www.w3.org/2000/svg" viewBox="0 283.2 1280 235.5"><path fill="#131313" d="M0 321.7h272.7v195.1H0l112.2-98.5M1280 323.7h-272.7v195H1280l-111.6-99.1"/><path fill="#131313" d="M246.6 477.6l786.8 2V283.2H246.6"/><path fill="#FCFCFC" d="M394.1 442.3V326.8h-24.2V318h59.6v8.8h-24.4v115.6h-11v-.1zM460.9 402.4v-12.1c0-6 .5-11.2 1.3-15.6s1.9-7.9 3.2-10.6c1.3-2.6 3-4.8 5.1-6.3 2.1-1.6 4.3-2.6 6.5-3.2s4.8-.8 7.8-.8c7.8 0 13.3 2.7 16.7 8.2s5.1 14.2 5.1 26c0 3.6 0 6.6-.1 8.9h-34.7v13.2c0 5.7.3 10.3.8 14 .6 3.6 1.4 6.4 2.6 8.2 1.2 1.8 2.5 3.1 4 3.7 1.4.6 3.3.9 5.5.9 3.2 0 5.9-1.6 8.1-4.9s3.3-8.7 3.4-16.3h10.1c-.3 3.3-.7 6.2-1.2 8.7-.5 2.6-1.2 5.1-2.3 7.7-1 2.6-2.3 4.7-3.8 6.4-1.5 1.7-3.5 3.1-5.9 4.1-2.4 1.1-5.2 1.6-8.3 1.6-6.1 0-10.9-1.2-14.3-3.6s-5.9-6.7-7.5-12.7c-1.4-6.1-2.2-14.5-2.1-25.5zm11-10.8h24v-5.9s0-4-.1-6-.2-3.9-.4-5.7c-.2-1.8-.5-3.5-1-5.1s-1.1-2.9-1.8-4.1-1.7-2.1-3-2.7c-1.3-.7-2.7-1-4.3-1-2.6 0-4.8.5-6.5 1.4-1.7 1-3 2.1-4 3.4s-1.6 3.5-2.1 6.6c-.4 3.1-.7 5.8-.8 8.1v11zM551.8 442.3V317.9h10.8v124.4h-10.8zM612 442.3V317.9h10.8v124.4H612zM667.3 463.9V455c5.8-.4 10-1.3 12.7-2.9 2.7-1.5 4-3.7 4-6.5 0-3.5-.3-6.9-.8-10.3l-18.8-79.6h11l15 72.3 14.7-72.3h11l-21.7 92.6c-1.4 5.6-4.3 9.5-8.6 11.8s-10.4 3.6-18.3 3.8h-.2z"/><path fill="#3E7099" d="M756.7 442.3V317.9H800v8.8h-32.4v47.1h23.1v8.3h-23.1v51.3H800v8.8h-43.3v.1zM834.7 442.3l18.6-45.2-18.5-41.3H846l14.2 36.1 14.2-36.1h11.2L867 397.1l18.6 45.2H875l-14.9-38.6-14.9 38.6h-10.5z"/></svg>