<svg version="1.1" id="Layer_1" xmlns="http://www.w3.org/2000/svg" xmlns:xlink="http://www.w3.org/1999/xlink" x="0px" y="0px"
	 viewBox="0 0 278.2 110.8" enable-background="new 0 0 278.2 110.8" xml:space="preserve">
<path fill="#F8FAFB" stroke="#C9C9C9" stroke-miterlimit="10" d="M93.3,110l-5.1-5.5L83,110l-5.1-5.5l-5.1,5.5l-5.1-5.5l-5.2,5.5
	l-5.1-5.5l-5.1,5.5l-5.1-5.5l-5.1,5.5l-5.1-5.5l-5.1,5.5l-5.1-5.5l-5.2,5.5l-5.1-5.5l-5.1,5.5l-5.1-5.5L0.6,110V8.2
	C0.5,4.1,3.5,0.7,7.1,0.7h79.6c3.6,0,6.6,3.4,6.6,7.5L93.3,110L93.3,110z"/>
<path fill="none" stroke="#010101" stroke-miterlimit="10" d="M0-3"/>
<path fill="none" stroke="#010101" stroke-miterlimit="10" d="M87-3"/>
<path fill="none" stroke="#010101" stroke-miterlimit="10" d="M81.2-3"/>
<path fill="none" stroke="#010101" stroke-miterlimit="10" d="M75.4-3"/>
<path fill="none" stroke="#010101" stroke-miterlimit="10" d="M69.6-3"/>
<path fill="none" stroke="#010101" stroke-miterlimit="10" d="M63.8-3"/>
<path fill="none" stroke="#010101" stroke-miterlimit="10" d="M58-3"/>
<path fill="none" stroke="#010101" stroke-miterlimit="10" d="M52.2-3"/>
<path fill="none" stroke="#010101" stroke-miterlimit="10" d="M46.4-3"/>
<path fill="none" stroke="#010101" stroke-miterlimit="10" d="M40.6-3"/>
<path fill="none" stroke="#010101" stroke-miterlimit="10" d="M34.8-3"/>
<path fill="none" stroke="#010101" stroke-miterlimit="10" d="M29-3"/>
<path fill="none" stroke="#010101" stroke-miterlimit="10" d="M23.2-3"/>
<path fill="none" stroke="#010101" stroke-miterlimit="10" d="M17.4-3"/>
<path fill="none" stroke="#010101" stroke-miterlimit="10" d="M11.6-3"/>
<path fill="none" stroke="#010101" stroke-miterlimit="10" d="M5.8-3"/>
<rect x="9.4" y="79.5" fill="#E2E2E2" width="39.8" height="19"/>
<rect x="8.4" y="6.7" fill="#AAA9A8" width="29.7" height="39"/>
<path fill="none" stroke="#353635" stroke-miterlimit="10" d="M8.8,52.3c2-0.6,4.3-0.5,6.3,0.2c1.1,0.4,2.9,0.8,3.2-0.4
	c2.2-0.1,4.4-0.1,6.6,0.1c0.4,0.1,0.8,0.1,1.1,0.3c0.4,0.3,0.5,0.8,0.7,1.2c0.2,0.4,0.9,0.6,1.1,0.2c0.8-0.8,1.1-2,0.9-3.1
	c0.6,0.2,1.2,0.3,1.9,0.4c0.1,1.2,1.6,1.8,2.8,1.7c1.2-0.1,2.5-0.5,3.6-0.1"/>
<rect x="42.3" y="15.6" fill="#E2E2E2" width="45.4" height="6.7"/>
<rect x="42.3" y="34.5" fill="#E2E2E2" width="45.4" height="6.7"/>
<path fill="none" stroke="#353635" stroke-miterlimit="10" d="M44.7,11.9c0.2-0.3,0.4-0.5,0.5-0.8c0.4-0.6,1-1.3,1.7-1.3
	c0.8,0,1.3,1.2,0.6,1.5c2.1-0.4,4.2-0.9,6.3-1.4c-0.1,0.6,0.1,1.2,0.4,1.6c1.5-0.1,2.9-0.3,4.3-0.8c1.1,1.5,3.9-1.5,5.1,0"/>
<path fill="none" stroke="#353635" stroke-miterlimit="10" d="M44.1,30.7c1.8-0.5,3.8-0.3,5.5,0.5c0.8-1.5,3.2-1.9,4.4-0.6
	c1.1,0.4,2.3-0.7,3-1.7c1.6-0.4,2.8,1.7,4.4,2.2c1.2,0.4,2.5-0.3,3.6-0.9"/>
<rect x="8.8" y="59.1" fill="#E2E2E2" width="5.5" height="5.5"/>
<rect x="34.6" y="59.1" fill="#E2E2E2" width="5.5" height="5.5"/>
<rect x="26" y="59.1" fill="#E2E2E2" width="5.5" height="5.5"/>
<rect x="43.2" y="59.1" fill="#E2E2E2" width="5.5" height="5.5"/>
<rect x="17.4" y="59.1" fill="#E2E2E2" width="5.5" height="5.5"/>
<g>
	<g>
		<g>
			<g>
				<g>
					<path fill="#246A36" d="M48.9,56.9C48.9,56.9,48.9,56.9,48.9,56.9C48.8,56.9,48.9,56.9,48.9,56.9z"/>
					<polygon fill="#246A36" points="48.9,57.2 48.9,57.2 48.9,57.2 					"/>
					<path fill="#246A36" d="M48.8,57.4c0.1,0,0-0.1,0.1-0.1l0,0l-0.1-0.1C48.8,57.3,48.8,57.4,48.8,57.4z"/>
					<path fill="#246A36" d="M48.5,57.5C48.6,57.5,48.5,57.5,48.5,57.5C48.5,57.4,48.5,57.4,48.5,57.5
						C48.5,57.4,48.5,57.4,48.5,57.5z"/>
					<path fill="#246A36" d="M48.5,57.4C48.5,57.4,48.5,57.4,48.5,57.4L48.5,57.4z"/>
					<path fill="#246A36" d="M48.5,57.5L48.5,57.5C48.4,57.5,48.4,57.5,48.5,57.5C48.4,57.5,48.5,57.5,48.5,57.5z"/>
					<path fill="#246A36" d="M48.5,57.6L48.5,57.6L48.5,57.6z"/>
					<path fill="#246A36" d="M48.5,57.5L48.5,57.5C48.6,57.6,48.6,57.6,48.5,57.5C48.6,57.6,48.5,57.5,48.5,57.5z"/>
					<path fill="#246A36" d="M48.6,57.5L48.6,57.5C48.7,57.5,48.6,57.5,48.6,57.5z"/>
					<path fill="#246A36" d="M48.9,57.5L48.9,57.5L48.9,57.5C48.9,57.5,48.8,57.5,48.9,57.5z"/>
					<path fill="#246A36" d="M48.4,57.7L48.4,57.7L48.4,57.7C48.4,57.7,48.4,57.7,48.4,57.7z"/>
					<path fill="#246A36" d="M48.4,57.7L48.4,57.7C48.5,57.7,48.5,57.7,48.4,57.7z"/>
					<path fill="#246A36" d="M48.7,57.6L48.7,57.6L48.7,57.6z"/>
					<polygon fill="#246A36" points="48.3,57.8 48.3,57.8 48.3,57.8 					"/>
					<path fill="#246A36" d="M48.3,57.9c-0.1-0.1-0.1,0-0.1-0.1C48.2,57.9,48.2,57.9,48.3,57.9C48.2,57.9,48.2,57.9,48.3,57.9z"/>
					<path fill="#246A36" d="M48.3,58C48.3,58,48.2,58,48.3,58C48.2,58,48.2,58,48.3,58z"/>
					<path fill="#246A36" d="M48.4,57.8L48.4,57.8L48.4,57.8L48.4,57.8z"/>
					<path fill="#246A36" d="M48.4,57.8L48.4,57.8L48.4,57.8L48.4,57.8z"/>
					<path fill="#246A36" d="M48.4,57.8L48.4,57.8L48.4,57.8z"/>
					<path fill="#246A36" d="M48.5,57.7c0,0.1,0.1,0.1,0.1,0.1C48.7,57.7,48.6,57.7,48.5,57.7z"/>
					<path fill="#246A36" d="M48.5,57.8L48.5,57.8C48.5,57.8,48.5,57.8,48.5,57.8L48.5,57.8z"/>
					<path fill="#246A36" d="M48.5,57.8L48.5,57.8L48.5,57.8z"/>
					<path fill="#246A36" d="M48.3,58L48.3,58C48.4,58,48.4,58,48.3,58C48.4,58,48.3,58,48.3,58z"/>
					<path fill="#246A36" d="M48.4,57.9L48.4,57.9L48.4,57.9z"/>
					<path fill="#246A36" d="M48.2,58.2L48.2,58.2L48.2,58.2z"/>
					<path fill="#246A36" d="M48.4,58C48.4,58,48.4,58,48.4,58L48.4,58L48.4,58z"/>
					<path fill="#246A36" d="M48.3,58.1L48.3,58.1C48.3,58.1,48.2,58.1,48.3,58.1z"/>
					<path fill="#246A36" d="M48.4,57.9L48.4,57.9L48.4,57.9z"/>
					<path fill="#246A36" d="M48.4,57.9L48.4,57.9L48.4,57.9L48.4,57.9z"/>
					<path fill="#246A36" d="M48.5,58.4c-0.1-0.1-0.1-0.1,0-0.1c0-0.1-0.2-0.1-0.3-0.1c0,0,0.1,0,0.1,0.1c0.1,0,0.1-0.1,0.1,0
						s-0.1,0.1-0.1,0.1C48.4,58.3,48.4,58.4,48.5,58.4L48.5,58.4C48.5,58.4,48.5,58.4,48.5,58.4z"/>
					<path fill="#246A36" d="M48.3,58.1L48.3,58.1c0,0-0.1,0-0.1,0C48.2,58.2,48.2,58.2,48.3,58.1L48.3,58.1L48.3,58.1z"/>
					<path fill="#246A36" d="M48.3,58.1c0.1,0.1,0.1,0.1,0.1,0.1C48.4,58.1,48.4,58.1,48.3,58.1C48.4,58.1,48.4,58,48.3,58.1
						C48.3,58.1,48.3,58,48.3,58.1C48.3,58,48.3,58,48.3,58.1L48.3,58.1L48.3,58.1L48.3,58.1L48.3,58.1L48.3,58.1L48.3,58.1
						L48.3,58.1L48.3,58.1L48.3,58.1L48.3,58.1C48.3,58.1,48.3,58.1,48.3,58.1z"/>
					<path fill="#246A36" d="M48.8,57.8L48.8,57.8C48.8,57.8,48.8,57.9,48.8,57.8z"/>
					<path fill="#246A36" d="M48.7,57.9C48.7,57.8,48.7,57.8,48.7,57.9C48.7,57.8,48.7,57.8,48.7,57.9
						C48.7,57.8,48.7,57.8,48.7,57.9L48.7,57.9c-0.1,0-0.2,0-0.2-0.1C48.6,57.8,48.7,57.9,48.7,57.9z"/>
					<path fill="#246A36" d="M48.5,58L48.5,58L48.5,58L48.5,58C48.6,58,48.5,58,48.5,58z"/>
					<polygon fill="#246A36" points="48.2,58.2 48.2,58.2 48.2,58.2 					"/>
					<path fill="#246A36" d="M48.2,58.3L48.2,58.3L48.2,58.3z"/>
					<path fill="#246A36" d="M46.7,62.6L46.7,62.6C46.7,62.6,46.7,62.6,46.7,62.6z"/>
					<path fill="#246A36" d="M46.7,62.5L46.7,62.5L46.7,62.5z"/>
					<path fill="#246A36" d="M47.3,60c-0.1,0-0.2,0-0.1,0H47.3C47.2,60,47.3,60,47.3,60z"/>
					<path fill="#246A36" d="M47,61.3L47,61.3L47,61.3L47,61.3z"/>
					<path fill="#246A36" d="M47.2,61.5L47.2,61.5L47.2,61.5z"/>
					<path fill="#246A36" d="M46.3,63.4v0.1C46.4,63.5,46.4,63.5,46.3,63.4z"/>
					<path fill="#246A36" d="M47.8,59C47.8,59,47.8,59,47.8,59C47.8,59.1,47.9,59.1,47.8,59z"/>
					<path fill="#246A36" d="M46.2,62.2C46.2,62.2,46.2,62.3,46.2,62.2L46.2,62.2z"/>
					<path fill="#246A36" d="M47.7,59.1L47.7,59.1C47.7,59.1,47.7,59.1,47.7,59.1C47.7,59.1,47.7,59.1,47.7,59.1z"/>
					<path fill="#246A36" d="M44.2,62.1L44.2,62.1L44.2,62.1z"/>
					<path fill="#246A36" d="M44.2,61.1C44.2,61.1,44.2,61.1,44.2,61.1C44.2,61.1,44.2,61.1,44.2,61.1z"/>
					<path fill="#246A36" d="M48,58.6C48,58.5,48,58.6,48,58.6L48,58.6z"/>
					<path fill="#246A36" d="M48.3,58.6C48.3,58.6,48.3,58.6,48.3,58.6C48.3,58.6,48.3,58.6,48.3,58.6z"/>
					<path fill="#246A36" d="M48,59.4L48,59.4L48,59.4z"/>
					<path fill="#246A36" d="M48.1,58.5C48.1,58.6,48.1,58.6,48.1,58.5C48.1,58.6,48.1,58.6,48.1,58.5z"/>
					<path fill="#246A36" d="M48,58.5C48.1,58.5,48.1,58.5,48,58.5L48,58.5z"/>
					<path fill="#246A36" d="M48,58.6L48,58.6L48,58.6L48,58.6z"/>
					<path fill="#246A36" d="M45.3,63L45.3,63C45.2,63,45.2,63,45.3,63z"/>
					<path fill="#246A36" d="M47.6,60.7L47.6,60.7L47.6,60.7z"/>
					<path fill="#246A36" d="M47.6,60.7C47.6,60.7,47.6,60.7,47.6,60.7l-0.2-0.1L47.6,60.7z"/>
					<path fill="#246A36" d="M46.6,62.9L46.6,62.9c0.1,0.1,0.1,0.1,0.2,0.1c-0.2-0.1,0.1-0.2-0.1-0.3h0.1l0,0c0.1,0-0.1-0.1-0.1-0.2
						h0.1v-0.1c0,0,0.1,0,0,0v-0.1l0,0c0,0-0.1-0.1-0.1-0.1c0.1,0,0,0,0.1,0v-0.1c0.1,0,0.1,0.1,0.1,0.1c0.2,0.1,0-0.1,0.1-0.1v0.1
						c0.1,0,0.1,0,0.2-0.1c-0.1,0-0.2,0-0.2-0.1c0,0,0.1,0,0-0.1c0.1,0.1,0.1,0,0.1-0.1l0.1,0.1c0-0.1-0.1-0.1-0.1-0.1s0.1,0,0.2,0
						c0.1-0.1-0.1,0-0.1-0.1c0.1-0.1,0.1-0.1,0-0.2c0.1,0,0.1,0.1,0.1,0.1l-0.1-0.1c0,0,0,0,0.1,0c0-0.1-0.1-0.1-0.1-0.1
						c-0.1-0.1,0.2,0,0.1-0.1c0.1,0,0.1,0.1,0.1,0.1c-0.1-0.1,0-0.1-0.1-0.2h0.1c-0.1,0-0.1-0.1-0.2-0.2c-0.1,0-0.1,0-0.1,0v-0.1
						c0,0,0.1,0,0.1,0.1l0,0c0.1,0,0.1,0.1,0.1,0.1H47c0.1,0.1,0.1,0.1,0.1,0.1c0,0,0,0,0-0.1c0,0,0,0,0.1,0c0,0,0,0,0-0.1l0.1,0.1
						h-0.1l0.1-0.1c-0.1-0.1-0.2-0.2-0.2-0.3c0.1,0.1,0.1,0.1,0.2,0.1c-0.1,0,0,0.1-0.1,0.1h0.1l-0.1-0.1c0.1,0.1,0.1,0,0.1,0
						c-0.1-0.1-0.1-0.1-0.1-0.2c0.1,0,0.1,0.1,0.1,0.1c0.1,0-0.1-0.1,0-0.2c0,0,0,0,0,0.1c0-0.1,0.1-0.1,0.1-0.1l0,0
						c0.1-0.1,0.1-0.2,0-0.3c0,0,0.1,0.1,0.2,0.1l-0.3-0.3c0.1,0.1,0.3,0.1,0.3,0.2c0,0,0.1,0,0.1-0.1l-0.2-0.1c0.1,0,0.1,0,0.2,0
						c-0.1,0-0.2-0.1-0.2-0.1s0.2,0.1,0.2,0.1l-0.1-0.1c0,0.1,0.1,0.1,0.2,0.1c-0.1,0,0.1-0.1,0-0.1h-0.1c0.1-0.1-0.2-0.2-0.1-0.2
						c0,0,0.2,0.1,0.2,0.1c-0.1-0.1-0.3-0.3-0.3-0.3h0.1V60c0.1,0.1,0.3,0.3,0.3,0.4c0.1,0,0.1,0,0.1,0c0.1,0,0.1,0.1,0.1,0.1
						l0.1-0.1c-0.1-0.1-0.1-0.1-0.1-0.2l0.1,0.2c-0.1-0.1-0.2-0.2-0.2-0.2c0.1,0,0.2,0.1,0.2,0.1v-0.1l0.1,0.1c0.1,0-0.1-0.1,0-0.1
						c0,0,0.1,0,0.1,0c-0.1,0-0.4-0.2-0.4-0.2c0,0,0.1-0.1,0.2-0.1c0.1,0,0.2,0.1,0.2,0.2l-0.1-0.1c0.1,0,0.1,0.1,0.1,0
						c-0.1-0.1,0.1-0.1-0.1-0.1c0-0.1,0.1-0.1,0.1-0.1c-0.1,0-0.2-0.1-0.2-0.2h0.1c0.1-0.1,0.1-0.1,0.1-0.2c0,0,0.1,0,0.1,0
						c0,0-0.1-0.1,0-0.1c0.1,0,0,0.1,0.1,0.1c-0.1-0.1-0.1-0.1-0.1-0.1c-0.1-0.1-0.1,0.1-0.1,0.1c-0.1-0.1-0.2-0.2-0.2-0.3
						c0-0.1,0.1,0,0.1,0c0.1-0.1-0.1-0.2,0-0.2c0.1,0,0.1,0.1,0.2,0.1c0,0.1-0.1,0.1-0.1,0.1h0.1v0.1c0.1,0,0.1-0.2,0.2-0.2
						c0,0,0-0.1-0.1-0.1V59c-0.1,0-0.1-0.1-0.1-0.1c0-0.1-0.1-0.1,0-0.2l0.1,0.1c0,0-0.1,0-0.1,0.1c0-0.1,0.2,0,0.1-0.1h-0.1
						c0-0.1-0.1-0.1-0.1-0.2c-0.1,0,0,0-0.1,0c0.1,0.1-0.1,0.1,0.1,0.1c-0.1,0-0.1,0.1-0.2,0c0,0,0.1,0,0,0.1l0,0l0,0l0,0l0,0h0.1
						c0.1,0.1,0,0.1,0.1,0.1c0,0,0,0-0.1,0l0.1,0.1c-0.1,0-0.1,0-0.1-0.1V59c-0.1,0-0.1,0.1-0.1,0.1s0.1,0.1,0,0.1v0.1l0,0
						c-0.1,0.1,0,0.2-0.1,0.2c0,0.1,0,0.1-0.1,0.1h-0.1c0,0.1-0.1,0.1-0.1,0.1c-0.2-0.1-0.1,0.1-0.2,0.2l0.1,0.1c0,0.1,0,0.1,0,0.1
						h0.1c0,0.1-0.1,0.1-0.1,0.2V60c-0.2,0,0,0.2-0.1,0.2v0.1l0,0l0,0h-0.1h0.1v0.1h-0.1l0,0c-0.1,0,0,0.1,0.1,0.1v0.1
						c-0.1-0.1,0,0.1-0.1,0.1c0.1,0.1,0,0.1,0.1,0.2l0,0c0,0-0.1,0.1,0,0.1l-0.1-0.1l0.1,0.1c-0.1,0-0.1,0-0.1-0.1
						c0.1,0.1,0,0.1,0.1,0.2l-0.1-0.1c0,0,0.1,0.1,0,0.1c-0.1,0-0.1,0.2-0.3,0.3c0.2,0.1-0.1,0,0,0.1c-0.1,0-0.1,0-0.1-0.1
						c0,0.1-0.1,0.1-0.1,0.2c-0.1,0-0.1-0.1-0.1-0.1v0.1c0,0,0,0-0.1-0.1c0,0.1,0.1,0.1,0.2,0.2c-0.1,0-0.1,0,0,0.1
						c-0.1,0-0.1,0-0.1-0.1c0,0-0.1,0.1-0.1,0.2c0,0,0,0,0,0.1c-0.1,0.1-0.1,0.1-0.1,0.1l0,0c0.1,0.1,0,0.1,0,0.1l0,0
						c-0.1,0.1,0,0.1-0.1,0.1h0.1c0.1,0.1-0.1,0.1-0.1,0.1h0.1c0.1,0.1-0.2,0-0.2,0s0,0,0-0.1c-0.1,0.1,0.1,0.1,0.1,0.1
						c-0.1,0-0.1-0.1-0.1-0.1c-0.1,0,0.1,0.2,0,0.2c0.1,0,0.1,0,0.1,0.1c0,0.1-0.2,0.1-0.1,0.1c0,0,0,0-0.1,0c0,0.1,0,0.1,0.1,0.2
						c-0.2-0.1,0,0.2-0.2,0.1L46,62.9l0,0c0,0,0,0.1,0.1,0.1c0,0-0.1,0-0.1-0.1c-0.1,0-0.1,0,0,0.2l-0.1-0.1c0,0.1-0.1-0.1-0.1,0.1
						v-0.1c0,0.2-0.1-0.1-0.1,0.1c0,0.1,0,0.1,0,0.1v0.1c0.1,0.1,0,0.2,0.1,0.3l-0.1-0.2l0,0c0-0.2-0.1-0.1-0.1-0.3
						c-0.1-0.1-0.1-0.2-0.2-0.3L45.5,63v-0.1l0.1-0.1c0.1-0.1-0.1,0-0.1,0c0-0.1,0.1-0.1,0.1-0.1l0,0l0,0c-0.1,0-0.1,0.1-0.1,0
						s0.1-0.1,0.1-0.1l0,0l-0.1-0.1l-0.1,0.1c-0.1,0-0.1-0.1-0.1,0.1c0.1-0.1-0.1-0.2-0.1-0.3c-0.1,0-0.1-0.1-0.1-0.1
						s-0.1,0.1-0.1,0.1c0.2-0.1,0-0.1,0.1-0.2c-0.1,0.1-0.1-0.1-0.2,0.1c0-0.1,0.1-0.1,0.1-0.1c-0.1,0-0.1-0.2-0.2-0.3l-0.1,0.1
						l0.1-0.1c0,0-0.1,0.1-0.1,0L44.7,62c-0.1-0.2-0.4-0.3-0.3-0.6c0,0.1-0.1,0.1-0.1,0l-0.1,0.1v-0.1c-0.1,0.1-0.1-0.1-0.2,0h0.1
						c-0.1,0.1-0.1,0.2-0.2,0.3c0.1-0.1-0.1,0.2,0.1,0.2c0,0.1-0.1,0-0.1,0.1c0.1,0,0.1,0,0.1,0.1l0,0c0.1,0.1,0.1,0.2,0.1,0.3
						l0.1-0.1v0.1c0.1-0.1-0.1-0.1,0.1-0.1c-0.1,0.1,0.1,0.2,0.1,0.3c0.1,0.1,0.1-0.1,0.1,0v0.1h0.1c0,0,0,0.1-0.1,0.1l0,0
						c0,0.1,0.1,0.1,0.1,0.1v-0.1c0.1,0.1,0.2,0.2,0.3,0.2l0,0c0.1,0.1,0,0.1,0.1,0.1l0,0c0.1,0,0.1,0,0.1,0c-0.1,0,0,0.1-0.1,0.1
						c0.1,0.1,0.1,0,0.2,0L45,63c0.1,0,0.1-0.1,0.1,0C45,63,45,63.1,45,63.1c0,0.2,0.2,0.1,0.1,0.2c0.1-0.1,0-0.1,0.1-0.1
						c0-0.1,0.1-0.1,0.1,0c0,0-0.1,0.2-0.1,0.2l0,0c0,0.1,0.1,0,0.1,0.1c0.1-0.1,0.1,0.1,0.1,0l-0.1-0.1c0.1,0,0.2-0.1,0.2,0.1h-0.1
						c0,0.1,0.1,0,0.1,0.1c-0.1,0.1-0.1-0.1-0.2-0.1c0,0.1,0.1,0,0,0.1c0.2-0.1,0.1,0.1,0.2,0.1l-0.1,0.1h0.1l-0.1,0.1
						c0.1,0,0.1,0.2,0.1,0.2c-0.1-0.1,0-0.1,0-0.2c0.2,0.1,0,0.3,0.2,0.4c0,0-0.1-0.1,0-0.1c0,0.1,0.1,0.1,0.1,0.2
						c0.1,0.1,0-0.1,0.1-0.1c0,0.2,0.1,0,0.1,0v0.1c0.1,0.2,0.1-0.2,0.1,0L46,64.2H46v0.1c0.1-0.1,0.1,0,0.1,0.1c0-0.1,0-0.1,0-0.2
						s0-0.1,0-0.1c0.1,0.1,0,0.1,0.1,0.1c0,0.1,0,0.2-0.1,0.1c0,0.1,0,0.1,0,0.1c0.1,0.1,0.1-0.1,0.1-0.1l0,0L46,63.7
						c0,0,0,0.1,0,0.1c0-0.1,0-0.1,0-0.2c0,0.1,0.1,0.2,0,0.3l0.1-0.2c0,0,0.1,0,0.1,0.1c0.1-0.1,0.1-0.3,0.1-0.3v-0.1
						c0.1-0.1,0.2-0.1,0.1-0.3h0.1c0-0.1-0.1,0-0.1-0.2c0-0.1,0.1,0,0.1,0C46.6,62.9,46.5,62.8,46.6,62.9
						C46.6,62.8,46.6,62.8,46.6,62.9z M46.8,62.3C46.8,62.3,46.8,62.3,46.8,62.3C46.7,62.3,46.8,62.3,46.8,62.3z M47.1,61.3
						L47.1,61.3L47.1,61.3z M48,58.7L48,58.7C47.9,58.7,47.9,58.7,48,58.7z M48,58.7L48,58.7C48,58.7,48,58.7,48,58.7
						C48,58.7,48.1,58.7,48,58.7z M45.5,62.6L45.5,62.6C45.4,62.6,45.4,62.6,45.5,62.6z"/>
					<path fill="#246A36" d="M47.2,61.5C47.2,61.5,47.1,61.5,47.2,61.5C47.1,61.5,47.1,61.5,47.2,61.5z"/>
					<path fill="#246A36" d="M46.3,63.4L46.3,63.4L46.3,63.4z"/>
					<path fill="#246A36" d="M48.1,59.8L48.1,59.8L48.1,59.8z"/>
					<path fill="#246A36" d="M48.1,58.4L48.1,58.4C48.1,58.4,48.1,58.4,48.1,58.4C48.1,58.4,48.1,58.4,48.1,58.4z"/>
					<path fill="#246A36" d="M48.6,58.3C48.5,58.3,48.6,58.3,48.6,58.3L48.6,58.3C48.5,58.3,48.5,58.3,48.6,58.3z"/>
					<path fill="#246A36" d="M48.3,58.4C48.3,58.4,48.3,58.4,48.3,58.4L48.3,58.4C48.3,58.4,48.3,58.4,48.3,58.4z"/>
					<path fill="#246A36" d="M48.3,58.4L48.3,58.4C48.3,58.3,48.3,58.4,48.3,58.4z"/>
					<path fill="#246A36" d="M48.1,58.6C48.1,58.6,47.9,58.6,48.1,58.6C47.9,58.5,48.1,58.7,48.1,58.6z"/>
					<path fill="#246A36" d="M48.4,58.5L48.4,58.5L48.4,58.5z"/>
					<path fill="#246A36" d="M48.3,58.7L48.3,58.7C48.3,58.6,48.3,58.6,48.3,58.7C48.3,58.6,48.3,58.7,48.3,58.7z"/>
					<path fill="#246A36" d="M48.3,58.6L48.3,58.6L48.3,58.6z"/>
					<polygon fill="#246A36" points="48.4,58.6 48.4,58.6 48.4,58.6 					"/>
					<path fill="#246A36" d="M48.1,59.1L48.1,59.1C48.1,59.1,48.1,59.1,48.1,59.1L48.1,59.1z"/>
					<path fill="#246A36" d="M48.3,59L48.3,59L48.3,59L48.3,59z"/>
					<path fill="#246A36" d="M48.3,59.2C48.3,59.2,48.3,59.2,48.3,59.2C48.3,59.2,48.3,59.1,48.3,59.2z"/>
					<polygon fill="#246A36" points="47.9,59.7 47.9,59.7 47.8,59.6 					"/>
					<path fill="#246A36" d="M47.9,60.4C47.9,60.3,47.8,60.3,47.9,60.4L47.9,60.4C47.8,60.4,47.8,60.4,47.9,60.4z"/>
					<path fill="#246A36" d="M47.8,60.3C47.8,60.3,47.8,60.3,47.8,60.3C47.8,60.3,47.8,60.3,47.8,60.3z"/>
					<path fill="#246A36" d="M44.2,61L44.2,61L44.2,61z"/>
					<path fill="#246A36" d="M44,61L44,61L44,61L44,61z"/>
					<path fill="#246A36" d="M47,62.3L47,62.3C47,62.3,47,62.3,47,62.3L47,62.3z"/>
					<polygon fill="#246A36" points="46.7,62.7 46.7,62.7 46.7,62.6 					"/>
					<path fill="#246A36" d="M46.6,63.1c0,0,0-0.1,0.1-0.1C46.7,63.1,46.6,63.1,46.6,63.1z"/>
				</g>
			</g>
		</g>
	</g>
</g>
<g>
	<g>
		<g>
			<g>
				<g>
					<path fill="#246A36" d="M22.7,58.3C22.7,58.3,22.7,58.2,22.7,58.3C22.7,58.3,22.7,58.3,22.7,58.3z"/>
					<polygon fill="#246A36" points="22.7,58.6 22.7,58.6 22.7,58.6 					"/>
					<path fill="#246A36" d="M22.6,58.7c0.1,0,0-0.1,0.1-0.1l0,0l-0.1-0.1C22.7,58.7,22.7,58.7,22.6,58.7z"/>
					<path fill="#246A36" d="M22.4,58.8C22.5,58.8,22.4,58.8,22.4,58.8C22.4,58.7,22.4,58.7,22.4,58.8
						C22.4,58.7,22.4,58.7,22.4,58.8z"/>
					<path fill="#246A36" d="M22.4,58.7C22.4,58.7,22.4,58.7,22.4,58.7L22.4,58.7z"/>
					<path fill="#246A36" d="M22.4,58.8L22.4,58.8C22.4,58.8,22.4,58.8,22.4,58.8C22.3,58.8,22.4,58.8,22.4,58.8z"/>
					<path fill="#246A36" d="M22.4,58.9L22.4,58.9L22.4,58.9z"/>
					<path fill="#246A36" d="M22.4,58.8L22.4,58.8C22.5,58.9,22.5,58.9,22.4,58.8C22.5,58.9,22.4,58.8,22.4,58.8z"/>
					<path fill="#246A36" d="M22.5,58.8L22.5,58.8C22.5,58.8,22.5,58.8,22.5,58.8z"/>
					<path fill="#246A36" d="M22.7,58.8L22.7,58.8L22.7,58.8C22.7,58.8,22.7,58.8,22.7,58.8z"/>
					<path fill="#246A36" d="M22.2,59L22.2,59L22.2,59C22.3,59,22.3,59,22.2,59z"/>
					<path fill="#246A36" d="M22.4,59L22.4,59C22.4,59.1,22.4,59.1,22.4,59z"/>
					<path fill="#246A36" d="M22.5,58.9L22.5,58.9L22.5,58.9z"/>
					<path fill="#246A36" d="M22.2,59.1L22.2,59.1L22.2,59.1z"/>
					<path fill="#246A36" d="M22.1,59.2c-0.1-0.1-0.1,0-0.1-0.1C22.1,59.2,22.1,59.2,22.1,59.2C22.1,59.2,22.1,59.2,22.1,59.2z"/>
					<path fill="#246A36" d="M22.1,59.3L22.1,59.3L22.1,59.3z"/>
					<path fill="#246A36" d="M22.3,59.1L22.3,59.1L22.3,59.1L22.3,59.1z"/>
					<path fill="#246A36" d="M22.3,59.1L22.3,59.1C22.3,59.2,22.3,59.2,22.3,59.1C22.3,59.2,22.3,59.2,22.3,59.1z"/>
					<path fill="#246A36" d="M22.3,59.1L22.3,59.1L22.3,59.1z"/>
					<path fill="#246A36" d="M22.5,59c0,0.1,0.1,0.1,0.1,0.1C22.5,59.1,22.5,59.1,22.5,59z"/>
					<path fill="#246A36" d="M22.4,59.1L22.4,59.1C22.4,59.1,22.4,59.1,22.4,59.1L22.4,59.1z"/>
					<polygon fill="#246A36" points="22.4,59.2 22.4,59.1 22.4,59.2 					"/>
					<path fill="#246A36" d="M22.2,59.3L22.2,59.3C22.2,59.3,22.2,59.3,22.2,59.3C22.2,59.3,22.2,59.2,22.2,59.3z"/>
					<path fill="#246A36" d="M22.2,59.2L22.2,59.2L22.2,59.2z"/>
					<path fill="#246A36" d="M22.1,59.5L22.1,59.5L22.1,59.5z"/>
					<path fill="#246A36" d="M22.2,59.3C22.3,59.3,22.3,59.3,22.2,59.3C22.2,59.2,22.2,59.3,22.2,59.3L22.2,59.3z"/>
					<path fill="#246A36" d="M22.1,59.3L22.1,59.3L22.1,59.3z"/>
					<path fill="#246A36" d="M22.2,59.2L22.2,59.2L22.2,59.2z"/>
					<path fill="#246A36" d="M22.2,59.2L22.2,59.2L22.2,59.2L22.2,59.2z"/>
					<path fill="#246A36" d="M22.4,59.7c-0.1-0.1-0.1-0.1,0-0.1c0-0.1-0.2-0.1-0.3-0.1c0,0,0.1,0,0.1,0.1c0.1,0,0.1-0.1,0.1,0
						c0,0.1-0.1,0-0.1,0.1C22.3,59.6,22.3,59.7,22.4,59.7L22.4,59.7L22.4,59.7z"/>
					<path fill="#246A36" d="M22.2,59.4L22.2,59.4c0,0-0.1,0-0.1,0C22.1,59.4,22.1,59.5,22.2,59.4L22.2,59.4L22.2,59.4z"/>
					<path fill="#246A36" d="M22.2,59.3c0.1,0.1,0.1,0.1,0.1,0.1C22.3,59.4,22.2,59.4,22.2,59.3C22.2,59.4,22.2,59.3,22.2,59.3
						L22.2,59.3L22.2,59.3L22.2,59.3L22.2,59.3L22.2,59.3L22.2,59.3L22.2,59.3L22.2,59.3C22.2,59.4,22.2,59.3,22.2,59.3L22.2,59.3
						L22.2,59.3L22.2,59.3C22.2,59.4,22.2,59.4,22.2,59.3z"/>
					<path fill="#246A36" d="M22.6,59.2L22.6,59.2L22.6,59.2z"/>
					<path fill="#246A36" d="M22.6,59.2L22.6,59.2L22.6,59.2C22.6,59.2,22.6,59.1,22.6,59.2L22.6,59.2c-0.1,0-0.2-0.1-0.2-0.1
						C22.5,59.2,22.5,59.2,22.6,59.2z"/>
					<path fill="#246A36" d="M22.4,59.3L22.4,59.3L22.4,59.3L22.4,59.3C22.5,59.3,22.4,59.3,22.4,59.3z"/>
					<path fill="#246A36" d="M22.1,59.5L22.1,59.5L22.1,59.5z"/>
					<polygon fill="#246A36" points="22.1,59.5 22,59.5 22,59.5 					"/>
					<path fill="#246A36" d="M20.7,63.7L20.7,63.7L20.7,63.7z"/>
					<path fill="#246A36" d="M20.8,63.5L20.8,63.5L20.8,63.5z"/>
					<path fill="#246A36" d="M21.2,61.2c-0.1,0-0.2,0-0.1,0H21.2L21.2,61.2z"/>
					<path fill="#246A36" d="M20.9,62.5L20.9,62.5C20.9,62.5,20.9,62.5,20.9,62.5L20.9,62.5z"/>
					<path fill="#246A36" d="M21.1,62.6L21.1,62.6C21.1,62.6,21.1,62.6,21.1,62.6z"/>
					<path fill="#246A36" d="M20.3,64.5v0.1C20.4,64.5,20.3,64.5,20.3,64.5z"/>
					<path fill="#246A36" d="M21.7,60.3C21.7,60.3,21.7,60.3,21.7,60.3C21.7,60.3,21.7,60.3,21.7,60.3z"/>
					<path fill="#246A36" d="M20.2,63.3L20.2,63.3L20.2,63.3z"/>
					<path fill="#246A36" d="M21.6,60.3L21.6,60.3C21.6,60.3,21.6,60.3,21.6,60.3C21.6,60.3,21.6,60.3,21.6,60.3z"/>
					<path fill="#246A36" d="M18.3,63.2L18.3,63.2L18.3,63.2z"/>
					<path fill="#246A36" d="M18.3,62.2L18.3,62.2L18.3,62.2z"/>
					<path fill="#246A36" d="M21.9,59.8C21.9,59.8,21.9,59.8,21.9,59.8L21.9,59.8z"/>
					<path fill="#246A36" d="M22.1,59.8C22.1,59.9,22.1,59.9,22.1,59.8C22.1,59.9,22.1,59.9,22.1,59.8z"/>
					<path fill="#246A36" d="M21.9,60.6L21.9,60.6L21.9,60.6z"/>
					<path fill="#246A36" d="M21.9,59.8L21.9,59.8L21.9,59.8z"/>
					<path fill="#246A36" d="M21.9,59.8L21.9,59.8L21.9,59.8z"/>
					<path fill="#246A36" d="M21.9,59.8L21.9,59.8L21.9,59.8L21.9,59.8z"/>
					<path fill="#246A36" d="M19.3,64.1L19.3,64.1L19.3,64.1z"/>
					<path fill="#246A36" d="M21.6,61.8L21.6,61.8L21.6,61.8z"/>
					<path fill="#246A36" d="M21.6,61.9C21.5,61.8,21.5,61.8,21.6,61.9l-0.2-0.1L21.6,61.9z"/>
					<path fill="#246A36" d="M20.5,63.9L20.5,63.9c0.1,0.1,0.1,0.1,0.2,0.1c-0.2-0.1,0.1-0.2-0.1-0.2h0.1l0,0c0.1,0-0.1-0.1-0.1-0.2
						h0.1v-0.1c0,0,0.1,0,0,0v-0.1l0,0c0,0-0.1-0.1-0.1-0.1c0.1,0,0,0,0.1,0v-0.1c0.1,0,0.1,0.1,0.1,0.1c0.2,0.1,0-0.1,0.1-0.1v0.1
						c0.1,0,0.1,0,0.2-0.1c-0.1,0-0.2,0-0.2-0.1c0,0,0.1,0,0-0.1c0.1,0.1,0.1,0,0.1-0.1l0.1,0.1c0-0.1-0.1-0.1-0.1-0.1s0.1,0,0.2,0
						c0.1-0.1-0.1,0-0.1-0.1c0.1-0.1,0.1-0.1,0-0.2c0.1,0,0.1,0.1,0.1,0.1l-0.1-0.1c0,0,0,0,0.1,0c0-0.1-0.1-0.1-0.1-0.1
						c-0.1-0.1,0.2,0,0.1-0.1c0.1,0,0.1,0.1,0.1,0.1c-0.1-0.1,0-0.1-0.1-0.2H21c-0.1,0-0.1-0.1-0.2-0.2c-0.1,0-0.1,0-0.1,0v-0.1
						c0,0,0.1,0,0.1,0.1l0,0c0.1,0,0.1,0.1,0.1,0.1h-0.1c0.1,0.1,0.1,0.1,0.1,0.1c0,0,0,0,0-0.1c0,0,0,0,0.1,0c0,0,0,0,0-0.1
						l0.1,0.1h-0.1l0.1-0.1c-0.1-0.1-0.2-0.2-0.2-0.3c0.1,0.1,0.1,0.1,0.2,0.1c-0.1,0,0,0.1-0.1,0.1h0.1l-0.1-0.1
						c0.1,0.1,0.1,0,0.1,0c-0.1-0.1-0.1-0.1-0.1-0.2c0.1,0,0.1,0.1,0.1,0.1c0.1,0-0.1-0.1,0-0.1l0,0c0-0.1,0.1-0.1,0.1-0.1l0,0
						c0.1-0.1,0.1-0.2,0-0.3c0,0,0.1,0.1,0.2,0.1l-0.3-0.3c0.1,0.1,0.3,0.1,0.3,0.2c0,0,0.1,0,0.1-0.1l-0.2-0.1c0.1,0,0.1,0,0.2,0
						l-0.2-0.1c0,0,0.2,0.1,0.2,0.1l-0.1-0.1c0,0.1,0.1,0.1,0.2,0.1c-0.1,0,0.1-0.1,0-0.1h-0.1c0.1-0.1-0.2-0.2-0.1-0.2
						c0,0,0.2,0.1,0.2,0.1c-0.1-0.1-0.3-0.2-0.3-0.3h0.1v-0.1c0.1,0.1,0.3,0.3,0.3,0.4c0.1,0,0.1,0,0.1,0c0.1,0,0.1,0.1,0.1,0.1
						l0.1-0.1c-0.1-0.1-0.1-0.1-0.1-0.2l0.1,0.2c-0.1-0.1-0.2-0.2-0.2-0.2c0.1,0,0.2,0.1,0.2,0.1v-0.1l0.1,0.1c0.1,0-0.1-0.1,0-0.1
						c0,0,0.1,0,0.1,0c-0.1,0-0.4-0.2-0.4-0.2c0,0,0.1-0.1,0.2,0c0.1,0,0.2,0.1,0.2,0.2l-0.1-0.1c0,0,0.1,0.1,0.1,0
						C21.9,61,22,61,21.9,61c0-0.1,0.1,0,0.1-0.1c-0.1,0-0.2-0.1-0.2-0.2h0.1c0.1-0.1,0.1-0.1,0.1-0.2c0,0,0.1,0,0.1,0
						c0,0-0.1-0.1,0-0.1c0.1,0,0,0.1,0.1,0.1c-0.1-0.1-0.1-0.1-0.1-0.1c-0.1-0.1-0.1,0.1-0.1,0.1c-0.1-0.1-0.2-0.2-0.2-0.3
						c0-0.1,0.1,0,0.1,0c0.1-0.1-0.1-0.2,0-0.2c0.1,0,0.1,0.1,0.2,0.1c0,0.1-0.1,0.1-0.1,0.1H22v0.1c0.1,0,0.1-0.2,0.2-0.2
						c0,0,0-0.1-0.1-0.1v0.1c-0.1,0-0.1-0.1-0.1-0.1c0-0.1-0.1-0.1,0-0.2l0.1,0.1c0,0-0.1,0-0.1,0.1c0-0.1,0.1,0,0.1-0.1H22
						c0-0.1-0.1-0.1-0.1-0.2c-0.1,0,0,0-0.1,0c0.1,0.1-0.1,0.1,0.1,0.1c-0.1,0-0.1,0.1-0.2,0c0,0,0.1,0,0,0.1l0,0l0,0l0,0l0,0h0.1
						c0.1,0.1,0,0.1,0.1,0.1c0,0,0,0-0.1,0l0.1,0.1c-0.1,0-0.1,0-0.1-0.1v0.1c-0.1,0-0.1,0.1-0.1,0.1s0.1,0.1,0,0.1v0.1l0,0
						c-0.1,0.1,0,0.2-0.1,0.2c0,0.1,0,0.1,0,0.1h-0.1c0,0.1-0.1,0.1-0.1,0.1c-0.2-0.1-0.1,0.1-0.2,0.2l0.1,0.1c0,0.1,0,0.1,0,0.1
						h0.1c0,0.1-0.1,0.1-0.1,0.1c0,0,0,0,0-0.1c-0.2,0,0,0.2-0.1,0.2v0.1l0,0l0,0h-0.1h0.1v0.1h-0.1l0,0c-0.1,0,0,0.1,0.1,0.1v0.1
						c-0.1-0.1,0,0.1-0.1,0.1c0.1,0.1,0,0.1,0.1,0.2l0,0c0,0-0.1,0.1,0,0.1l-0.1-0.1l0.1,0.1c-0.1,0-0.1,0-0.1-0.1
						c0.1,0.1,0,0.1,0.1,0.2L21.1,62c0,0,0.1,0.1,0,0.1c-0.1,0-0.1,0.2-0.3,0.3c0.2,0.1-0.1,0,0,0.1c-0.1,0-0.1,0-0.1-0.1
						c0,0.1-0.1,0.1,0,0.2c-0.1,0-0.1-0.1-0.1-0.1v0.1c0,0,0,0-0.1-0.1c0,0.1,0.1,0.1,0.2,0.2c-0.1,0-0.1,0,0,0.1
						c-0.1,0-0.1,0-0.1-0.1c0,0-0.1,0.1-0.1,0.2c0,0,0,0,0,0.1c-0.1,0.1-0.1,0.1-0.1,0.1l0,0c0.1,0.1,0,0.1,0,0.1l0,0
						c-0.1,0.1,0,0.1-0.1,0.1h0.1c0.1,0.1-0.1,0.1-0.1,0.1h0.1c0.1,0.1-0.2,0-0.2,0s0,0,0-0.1c-0.1,0.1,0.1,0.1,0.1,0.1
						c-0.1,0-0.1-0.1-0.1-0.1c-0.1,0,0.1,0.2,0,0.2c0.1,0,0.1,0,0.1,0.1c0,0.1-0.2,0.1-0.1,0.1c0,0,0,0-0.1,0c0,0.1,0,0.1,0.1,0.2
						c-0.2-0.1,0,0.2-0.2,0.1c0,0,0,0,0,0.1l0,0l0,0c0,0,0,0.1,0.1,0.1c0,0,0,0-0.1-0.1c-0.1,0-0.1,0,0,0.2L20,64
						c0,0.1-0.1-0.1-0.1,0.1V64c0,0.2-0.1-0.1-0.1,0.1c0,0.1,0,0.1,0,0.1v0.1c0.1,0.1,0,0.2,0.1,0.3l-0.1-0.2l0,0
						c0-0.2-0.1-0.1-0.1-0.3c-0.1-0.1-0.1-0.2-0.1-0.3l-0.1,0.1v-0.1l0.1-0.1c0.1-0.1-0.1,0-0.1,0c0-0.1,0.1-0.1,0.1-0.1l0,0l0,0
						c-0.1,0-0.1,0.1-0.1,0c0-0.1,0.1-0.1,0.1-0.1l0,0l-0.1-0.1l-0.1,0.1c-0.1,0-0.1-0.1-0.1,0.1c0.1-0.1-0.1-0.2-0.1-0.3
						c-0.1,0-0.1,0-0.1-0.1c0,0-0.1,0.1-0.1,0.1c0.2-0.1,0-0.1,0.1-0.2c-0.1,0.1-0.1-0.1-0.2,0.1c0-0.1,0.1-0.1,0.1-0.1
						c-0.1,0-0.1-0.2-0.2-0.2L19,63.1l0.1-0.1c0,0-0.1,0.1-0.1,0L18.9,63c-0.1-0.2-0.3-0.3-0.3-0.5c0,0.1-0.1,0.1-0.1,0l-0.1,0.1
						v-0.1c-0.1,0.1-0.1-0.1-0.2,0h0.1c-0.1,0.1-0.2,0.2-0.2,0.3c0.1-0.1-0.1,0.2,0.1,0.2c0,0.1-0.1,0-0.1,0.1c0.1,0,0.1,0,0.1,0.1
						l0,0c0.1,0.1,0.1,0.2,0.1,0.3l0.1-0.1v0.1c0.1-0.1-0.1-0.1,0.1-0.1c-0.1,0.1,0.1,0.2,0,0.3c0,0.1,0.1-0.1,0.1,0v0.1h0.1
						c0,0,0,0.1-0.1,0.1l0,0c0,0.1,0.1,0.1,0.1,0.1v-0.1c0.1,0.1,0.2,0.2,0.3,0.2l0,0c0.1,0,0,0.1,0.1,0.1l0,0c0.1,0,0.1,0,0.1,0
						c-0.1,0,0,0.1-0.1,0.1c0.1,0.1,0.1,0,0.2,0L19.1,64c0.1,0,0.1-0.1,0.1,0c-0.1,0-0.1,0.1-0.1,0.1c0,0.2,0.2,0.1,0.1,0.2
						c0.1-0.1,0-0.1,0.1-0.1c0-0.1,0.1-0.1,0.1,0c0,0-0.1,0.2-0.1,0.2l0,0c0,0.1,0.1,0,0.1,0.1c0.1-0.1,0.1,0.1,0.1,0l-0.1-0.1
						c0.1,0,0.2-0.1,0.2,0.1h-0.1c0,0.1,0.1,0,0.1,0.1c-0.1,0.1-0.1-0.1-0.2-0.1c0,0.1,0.1,0.1,0.1,0.1c0.1-0.1,0.1,0.1,0.2,0.1
						l-0.1,0.1h0.1l-0.1,0.1c0.1,0,0.1,0.2,0.1,0.2c-0.1-0.1,0-0.1,0-0.2c0.1,0,0,0.3,0.2,0.4c0,0-0.1-0.1,0-0.1
						c0,0.1,0.1,0.1,0.1,0.2c0.1,0.1,0-0.1,0.1-0.1c0,0.2,0.1,0,0.1,0v0.1c0.1,0.2,0-0.2,0.1,0l-0.1,0.1h0.1v0.1
						c0.1-0.1,0.1,0,0.1,0.1c0-0.1,0-0.1,0-0.2s0-0.1,0-0.1c0,0.1,0,0.1,0.1,0.1c0,0.1,0,0.2-0.1,0.1c0,0.1,0,0.1,0,0.1
						c0.1,0.1,0.1-0.1,0.1-0.1l0,0l0.1-0.3c0,0,0,0.1,0,0.1c0-0.1,0-0.1,0-0.1c0,0.1,0.1,0.2,0,0.3l0.1-0.2c0,0,0.1,0,0.1,0.1
						c0.1-0.1,0.1-0.3,0.1-0.3v-0.1c0.1-0.1,0.1-0.1,0.1-0.2h0.1c0-0.1-0.1,0-0.1-0.2c0-0.1,0.1,0,0.1,0C20.5,64,20.5,64,20.5,63.9
						C20.5,63.9,20.5,63.9,20.5,63.9C20.6,63.9,20.5,63.9,20.5,63.9z M20.8,63.4C20.8,63.4,20.8,63.4,20.8,63.4
						C20.8,63.4,20.8,63.4,20.8,63.4z M21.1,62.5C21.1,62.5,21.1,62.5,21.1,62.5C21,62.5,21.1,62.5,21.1,62.5z M21.9,60L21.9,60
						L21.9,60z M21.9,59.9L21.9,59.9C21.9,59.9,21.9,60,21.9,59.9C21.9,60,21.9,60,21.9,59.9z M19.5,63.7L19.5,63.7L19.5,63.7z"/>
					<path fill="#246A36" d="M21.1,62.6C21.1,62.6,21.1,62.6,21.1,62.6C21.1,62.6,21.1,62.6,21.1,62.6z"/>
					<polygon fill="#246A36" points="20.3,64.5 20.3,64.5 20.3,64.5 					"/>
					<path fill="#246A36" d="M22,61L22,61L22,61z"/>
					<path fill="#246A36" d="M22,59.7L22,59.7L22,59.7L22,59.7z"/>
					<path fill="#246A36" d="M22.5,59.5L22.5,59.5L22.5,59.5C22.4,59.5,22.4,59.6,22.5,59.5z"/>
					<path fill="#246A36" d="M22.2,59.7C22.2,59.8,22.2,59.7,22.2,59.7L22.2,59.7C22.1,59.7,22.1,59.7,22.2,59.7z"/>
					<path fill="#246A36" d="M22.2,59.7L22.2,59.7L22.2,59.7z"/>
					<path fill="#246A36" d="M21.9,59.9C21.9,59.9,21.9,59.8,21.9,59.9C21.8,59.8,21.9,59.9,21.9,59.9z"/>
					<polygon fill="#246A36" points="22.4,59.8 22.2,59.8 22.3,59.8 					"/>
					<path fill="#246A36" d="M22.2,59.9L22.2,59.9C22.2,59.9,22.2,59.9,22.2,59.9L22.2,59.9z"/>
					<path fill="#246A36" d="M22.2,59.9L22.2,59.9C22.2,59.9,22.2,59.9,22.2,59.9z"/>
					<polygon fill="#246A36" points="22.4,59.8 22.3,59.8 22.3,59.9 					"/>
					<path fill="#246A36" d="M22,60.3L22,60.3C22,60.4,22,60.4,22,60.3C22,60.3,22,60.3,22,60.3z"/>
					<path fill="#246A36" d="M22.2,60.3L22.2,60.3L22.2,60.3L22.2,60.3z"/>
					<path fill="#246A36" d="M22.2,60.4C22.2,60.4,22.2,60.5,22.2,60.4C22.2,60.4,22.2,60.4,22.2,60.4z"/>
					<polygon fill="#246A36" points="21.8,60.9 21.8,60.9 21.7,60.9 					"/>
					<path fill="#246A36" d="M21.8,61.6C21.9,61.5,21.7,61.5,21.8,61.6L21.8,61.6C21.7,61.5,21.7,61.5,21.8,61.6z"/>
					<path fill="#246A36" d="M21.7,61.5L21.7,61.5L21.7,61.5z"/>
					<polygon fill="#246A36" points="18.3,62.1 18.3,62.1 18.2,62.1 					"/>
					<path fill="#246A36" d="M18.2,62.1L18.2,62.1L18.2,62.1C18.1,62.1,18.2,62.1,18.2,62.1z"/>
					<path fill="#246A36" d="M21,63.4L21,63.4C20.9,63.4,20.9,63.4,21,63.4L21,63.4z"/>
					<polygon fill="#246A36" points="20.8,63.7 20.8,63.7 20.7,63.7 					"/>
					<path fill="#246A36" d="M20.7,64.1c0,0,0-0.1,0.1-0.1C20.7,64.1,20.5,64.1,20.7,64.1z"/>
				</g>
			</g>
		</g>
	</g>
</g>
<path fill="none" stroke="#353635" stroke-miterlimit="10" d="M9.4,73.9c0-0.2,0-0.4,0-0.6c0.5-0.4,1.1-0.5,1.8-0.4
	c0.1,0.6,0.7,1,1.4,1.1c0.7,0.1,1.3-0.2,1.8-0.4c-0.1-0.4,0.6-0.7,0.9-0.4c0.3,0.3,0.4,0.8,0.4,1.2c1-0.2,2.1-0.5,3.1,0
	c0.5,0.3,1,0.7,1.6,0.6c0.6-0.1,0.8-0.8,1.3-1.1c0.5-0.4,1.4-0.2,1.7,0.4c0.5,0.4,1.3-0.1,1.8-0.5c0.4-0.4,0.8-0.8,1.2-1.1
	c0.2,1,1.4,1.6,2.4,1.3"/>
<path fill="none" stroke="#353635" stroke-miterlimit="10" d="M66.9,63.5c0.2-0.2,0.4-0.5,0.5-0.7c0.5-0.1,1.4,0,1.4,0.5
	c0.6,0.2,1.2-0.4,1.9-0.5c0.7-0.1,1.2,0.4,1.8,0.7c0.9,0.4,2.1,0.1,2.7-0.7c0.1-0.1,0.2-0.3,0.3-0.3c0.2-0.1,0.3,0,0.4,0.1
	c0.6,0.2,1.1,0.5,1.4,1.1"/>
<path fill="none" stroke="#353635" stroke-miterlimit="10" d="M56.7,57.8c-0.1-0.4-0.1-0.8,0.2-1.1c1.2,0.7,2.6,1,3.9,0.8
	c1.7-0.2,3.3-1,5-1.4s3.7,0.1,4.7,1.8c4.5-0.5,9-1.1,13.5-1.7c1.3-0.2,2.8-0.3,3.8,0.7"/>
<path fill="none" stroke="#353635" stroke-width="1.25" stroke-miterlimit="10" d="M57,69.9c0.4-0.8,1.1-1.5,1.9-1.3
	c0.3,0.1,0.6,0.5,0.9,0.7c1,0.9,2.5,0.7,3.8,0.5c0.4-0.1,0.9-0.2,1.3-0.5c0.3-0.3,0.4-0.7,0.7-1c0.3-0.3,0.8-0.5,1-0.2
	c0.4,0.9,1,1.6,1.6,2.3"/>
<path fill="none" stroke="#353635" stroke-width="1.25" stroke-miterlimit="10" d="M70.7,70.8c1.8-1.6,4.3-2,6.4-1
	c-0.3-0.8,0.7-1.4,1.4-1.8c0.6-0.4,1.1-1,1.7-1c1.2,0.1,1.8,2.5,3,2.2c0.2-0.1,0.4-0.2,0.7-0.3c1.4-0.8,3,0,4.4,0.8"/>
<path fill="#FAA31E" d="M35,45.7H11.3V16.9c0-2,1.6-3.6,3.6-3.6h16.4c2,0,3.6,1.6,3.6,3.6L35,45.7L35,45.7z"/>
<path fill="#F3F3F3" d="M31,41.2H15.3c-0.8,0-1.4-0.6-1.4-1.4V17.7c0-0.8,0.6-1.4,1.4-1.4H31c0.8,0,1.4,0.6,1.4,1.4v22.1
	C32.4,40.6,31.8,41.2,31,41.2z"/>
<rect x="170.3" y="12.1" fill="#E2E2E2" width="8.2" height="8.2"/>
<rect x="170.3" y="37.3" fill="#E2E2E2" width="8.2" height="8.2"/>
<rect x="170.3" y="62.5" fill="#E2E2E2" width="8.2" height="8.2"/>
<rect x="170.3" y="87.7" fill="#E2E2E2" width="8.2" height="8.2"/>
<g>
	<path fill="#333333" d="M190.9,22.8V10.1h2.7c0.4,0,0.8,0.1,1.2,0.2s0.6,0.3,0.8,0.5s0.4,0.4,0.5,0.7s0.2,0.6,0.3,0.9
		c0.1,0.3,0.1,0.6,0.1,0.9c0,0.5-0.1,1-0.4,1.5c-0.2,0.5-0.6,0.8-1,1c0.3,0.1,0.6,0.3,0.8,0.5s0.4,0.5,0.5,0.8
		c0.1,0.3,0.2,0.6,0.3,0.9c0.1,0.3,0.1,0.6,0.1,0.9c0,0.4,0,0.8-0.1,1.2c0,0.3-0.1,0.7-0.3,1c-0.1,0.3-0.3,0.6-0.5,0.8
		c-0.2,0.2-0.5,0.4-0.8,0.5s-0.8,0.2-1.2,0.2H190.9z M192,15.6h1.8c0.3,0,0.5-0.1,0.7-0.2s0.3-0.3,0.5-0.5c0.1-0.2,0.2-0.4,0.2-0.7
		c0-0.3,0.1-0.5,0.1-0.8c0-1.6-0.6-2.4-1.8-2.4H192V15.6z M192,21.9h2c0.3,0,0.5-0.1,0.7-0.2s0.3-0.2,0.5-0.4s0.2-0.4,0.3-0.6
		c0.1-0.3,0.1-0.5,0.1-0.8c0-0.3,0-0.6,0-0.9c0-0.3,0-0.6,0-0.8c0-0.2-0.1-0.5-0.1-0.7c-0.1-0.2-0.2-0.4-0.3-0.6
		c-0.1-0.2-0.3-0.3-0.5-0.4c-0.2-0.1-0.4-0.1-0.7-0.1h-2V21.9z"/>
	<path fill="#333333" d="M198.2,22.8V14h1.1v1.2c0.1-0.5,0.4-0.8,0.7-1c0.4-0.2,0.7-0.3,1.1-0.4v1.1c-0.1,0-0.1,0-0.2,0
		c-1.1,0-1.7,0.4-1.7,1.3v6.6H198.2z"/>
	<path fill="#333333" d="M201.8,18.6v-0.5c0-0.4,0-0.7,0-0.9s0-0.5,0-0.9c0-0.4,0.1-0.6,0.1-0.8c0.1-0.2,0.1-0.4,0.3-0.7
		c0.1-0.3,0.3-0.5,0.4-0.6s0.4-0.3,0.6-0.3c0.3-0.1,0.5-0.1,0.9-0.1s0.6,0,0.9,0.1c0.3,0.1,0.5,0.2,0.6,0.3s0.3,0.3,0.4,0.6
		c0.1,0.3,0.2,0.5,0.3,0.7c0.1,0.2,0.1,0.5,0.1,0.8c0,0.4,0,0.6,0,0.9s0,0.5,0,0.9v0.5c0,0.3,0,0.6,0,0.7c0,0.2,0,0.4,0,0.7
		c0,0.3,0,0.5-0.1,0.7c0,0.2-0.1,0.4-0.1,0.6c-0.1,0.2-0.1,0.4-0.2,0.6c-0.1,0.1-0.2,0.3-0.3,0.4c-0.1,0.2-0.3,0.3-0.4,0.4
		c-0.2,0.1-0.3,0.1-0.5,0.2c-0.2,0.1-0.4,0.1-0.7,0.1c-0.3,0-0.5,0-0.7-0.1s-0.4-0.1-0.5-0.2c-0.2-0.1-0.3-0.2-0.4-0.4
		s-0.2-0.3-0.3-0.4c-0.1-0.1-0.1-0.3-0.2-0.6c-0.1-0.2-0.1-0.4-0.1-0.6c0-0.2,0-0.4-0.1-0.7c0-0.3,0-0.5,0-0.7
		C201.8,19.2,201.8,18.9,201.8,18.6z M202.9,18.1v0.5c0,1.4,0.1,2.3,0.2,2.9c0.2,0.5,0.5,0.8,1,0.8c0.5,0,0.8-0.3,1-0.8
		c0.2-0.5,0.2-1.5,0.2-2.9v-0.5c0-0.5,0-0.9,0-1.2s0-0.6-0.1-0.9c0-0.3-0.1-0.5-0.1-0.7c-0.1-0.2-0.1-0.3-0.2-0.5s-0.2-0.2-0.3-0.3
		c-0.1-0.1-0.3-0.1-0.5-0.1c-0.2,0-0.3,0-0.5,0.1s-0.2,0.2-0.3,0.3c-0.1,0.1-0.2,0.3-0.2,0.5S203,15.8,203,16c0,0.3-0.1,0.6-0.1,0.9
		S202.9,17.7,202.9,18.1z"/>
	<path fill="#333333" d="M208.1,22.8V10.1h1.1v8L212,14h1.2l-2.1,3.3l2.1,5.5H212l-1.7-4.8l-1.1,1.3v3.5H208.1z"/>
	<path fill="#333333" d="M214,18.7v-1.2c0-0.6,0-1.1,0.1-1.6c0.1-0.4,0.2-0.8,0.3-1.1s0.3-0.5,0.5-0.6s0.4-0.3,0.7-0.3
		c0.2-0.1,0.5-0.1,0.8-0.1c0.8,0,1.4,0.3,1.7,0.8c0.3,0.6,0.5,1.4,0.5,2.6c0,0.4,0,0.7,0,0.9h-3.5v1.3c0,0.6,0,1.1,0.1,1.4
		c0.1,0.4,0.1,0.6,0.3,0.8c0.1,0.2,0.3,0.3,0.4,0.4c0.1,0.1,0.3,0.1,0.6,0.1c0.3,0,0.6-0.2,0.8-0.5s0.3-0.9,0.3-1.7h1
		c0,0.3-0.1,0.6-0.1,0.9c0,0.3-0.1,0.5-0.2,0.8c-0.1,0.3-0.2,0.5-0.4,0.6s-0.4,0.3-0.6,0.4c-0.2,0.1-0.5,0.2-0.8,0.2
		c-0.6,0-1.1-0.1-1.5-0.4c-0.3-0.2-0.6-0.7-0.8-1.3C214.1,20.7,214,19.8,214,18.7z M215.1,17.6h2.4c0-0.2,0-0.4,0-0.6s0-0.4,0-0.6
		c0-0.2,0-0.4,0-0.6c0-0.2,0-0.4-0.1-0.5s-0.1-0.3-0.2-0.4c-0.1-0.1-0.2-0.2-0.3-0.3c-0.1-0.1-0.3-0.1-0.4-0.1c-0.3,0-0.5,0-0.7,0.1
		s-0.3,0.2-0.4,0.3s-0.2,0.4-0.2,0.7s-0.1,0.6-0.1,0.8C215.1,16.7,215.1,17.1,215.1,17.6z"/>
	<path fill="#333333" d="M220.2,22.8V14h1.1v0.8c0.2-0.3,0.5-0.6,0.8-0.8s0.7-0.3,1-0.3c0.4,0,0.8,0.2,1.1,0.5
		c0.3,0.4,0.5,0.9,0.5,1.5v6.9h-1.1v-6.9c0-0.4-0.1-0.8-0.3-1c-0.2-0.2-0.4-0.3-0.7-0.3c-0.2,0-0.5,0.1-0.7,0.2
		c-0.3,0.2-0.5,0.4-0.7,0.7v7.3H220.2z"/>
	<path fill="#333333" d="M229.1,19.7l1-0.3c0,0.4,0.1,0.7,0.2,1s0.2,0.6,0.4,0.8c0.2,0.3,0.4,0.5,0.7,0.6c0.3,0.1,0.6,0.2,1,0.2
		c0.6,0,1-0.2,1.3-0.5c0.3-0.3,0.5-0.8,0.5-1.4c0-0.5-0.1-1-0.4-1.4c-0.3-0.5-0.7-1-1.3-1.6l-2-2.1c-0.4-0.5-0.8-0.9-1-1.3
		c-0.2-0.4-0.3-0.8-0.3-1.2c0-0.8,0.3-1.5,0.8-2c0.5-0.5,1.2-0.7,2.1-0.7c0.8,0,1.5,0.2,2,0.7c0.5,0.5,0.8,1.1,1,2l0,0.1l-0.9,0.3
		l0-0.1c-0.1-0.6-0.3-1.1-0.7-1.6c-0.4-0.4-0.8-0.6-1.4-0.6c-0.6,0-1,0.1-1.3,0.4c-0.3,0.3-0.5,0.7-0.5,1.3c0,0.3,0.1,0.7,0.3,1
		c0.2,0.3,0.4,0.7,0.8,1l1.9,2c0,0.1,0.2,0.2,0.4,0.4c0.2,0.2,0.3,0.4,0.4,0.4c0.1,0.1,0.2,0.2,0.3,0.4s0.3,0.3,0.3,0.4
		c0.1,0.1,0.1,0.2,0.3,0.4c0.1,0.2,0.2,0.3,0.2,0.5c0,0.1,0.1,0.3,0.1,0.5c0,0.2,0.1,0.4,0.1,0.5c0,0.9-0.3,1.6-0.8,2.1
		c-0.6,0.5-1.3,0.7-2.2,0.7c-0.5,0-0.9-0.1-1.2-0.3s-0.7-0.4-0.9-0.7c-0.3-0.3-0.5-0.6-0.6-1C229.3,20.6,229.2,20.2,229.1,19.7z"/>
	<path fill="#333333" d="M236.4,18.6v-0.5c0-0.4,0-0.7,0-0.9s0-0.5,0.1-0.9c0-0.4,0.1-0.6,0.1-0.8c0.1-0.2,0.1-0.4,0.3-0.7
		c0.1-0.3,0.3-0.5,0.4-0.6c0.2-0.1,0.4-0.3,0.6-0.3c0.3-0.1,0.6-0.1,0.9-0.1c0.3,0,0.6,0.1,0.9,0.2c0.3,0.1,0.5,0.3,0.6,0.4
		s0.3,0.4,0.4,0.7c0.1,0.3,0.2,0.5,0.2,0.8c0,0.3,0.1,0.6,0.1,0.9c0,0,0,0,0,0c0,0,0,0,0,0h-1.1v-0.1c0-0.8-0.1-1.4-0.3-1.8
		s-0.4-0.5-0.8-0.5c-0.2,0-0.4,0-0.5,0.1c-0.1,0.1-0.3,0.1-0.4,0.3c-0.1,0.1-0.2,0.3-0.2,0.5s-0.1,0.4-0.1,0.7
		c0,0.3-0.1,0.6-0.1,0.9s0,0.7,0,1.2v0.5c0,1.4,0.1,2.3,0.3,2.8c0.2,0.5,0.5,0.8,1,0.8c0.4,0,0.7-0.2,0.8-0.5s0.3-1,0.3-1.8v-0.1
		h1.1v0.1c0,0.4,0,0.7-0.1,1c0,0.3-0.1,0.6-0.2,0.8c-0.1,0.3-0.2,0.5-0.4,0.7s-0.4,0.3-0.6,0.4c-0.3,0.1-0.6,0.2-0.9,0.2
		c-0.3,0-0.6,0-0.8-0.1c-0.2-0.1-0.4-0.2-0.6-0.3s-0.3-0.3-0.4-0.4c-0.1-0.1-0.2-0.3-0.3-0.6c-0.1-0.2-0.1-0.5-0.2-0.6
		c0-0.2-0.1-0.4-0.1-0.8s0-0.6,0-0.8C236.4,19.2,236.4,19,236.4,18.6z"/>
	<path fill="#333333" d="M242.5,22.8V14h1.1v1.2c0.1-0.5,0.4-0.8,0.7-1c0.4-0.2,0.7-0.3,1.1-0.4v1.1c-0.1,0-0.1,0-0.2,0
		c-1.1,0-1.7,0.4-1.7,1.3v6.6H242.5z"/>
	<path fill="#333333" d="M246.1,18.7v-1.2c0-0.6,0-1.1,0.1-1.6c0.1-0.4,0.2-0.8,0.3-1.1s0.3-0.5,0.5-0.6s0.4-0.3,0.7-0.3
		c0.2-0.1,0.5-0.1,0.8-0.1c0.8,0,1.4,0.3,1.7,0.8c0.3,0.6,0.5,1.4,0.5,2.6c0,0.4,0,0.7,0,0.9h-3.5v1.3c0,0.6,0,1.1,0.1,1.4
		c0.1,0.4,0.1,0.6,0.3,0.8c0.1,0.2,0.3,0.3,0.4,0.4c0.1,0.1,0.3,0.1,0.6,0.1c0.3,0,0.6-0.2,0.8-0.5c0.2-0.3,0.3-0.9,0.3-1.7h1
		c0,0.3-0.1,0.6-0.1,0.9c0,0.3-0.1,0.5-0.2,0.8c-0.1,0.3-0.2,0.5-0.4,0.6s-0.4,0.3-0.6,0.4c-0.2,0.1-0.5,0.2-0.8,0.2
		c-0.6,0-1.1-0.1-1.5-0.4c-0.3-0.2-0.6-0.7-0.8-1.3C246.2,20.7,246.1,19.8,246.1,18.7z M247.2,17.6h2.4c0-0.2,0-0.4,0-0.6
		s0-0.4,0-0.6c0-0.2,0-0.4,0-0.6c0-0.2,0-0.4-0.1-0.5c0-0.2-0.1-0.3-0.2-0.4c-0.1-0.1-0.2-0.2-0.3-0.3c-0.1-0.1-0.3-0.1-0.4-0.1
		c-0.3,0-0.5,0-0.7,0.1s-0.3,0.2-0.4,0.3s-0.2,0.4-0.2,0.7c0,0.3-0.1,0.6-0.1,0.8C247.2,16.7,247.2,17.1,247.2,17.6z"/>
	<path fill="#333333" d="M252.2,18.7v-1.2c0-0.6,0-1.1,0.1-1.6c0.1-0.4,0.2-0.8,0.3-1.1s0.3-0.5,0.5-0.6s0.4-0.3,0.7-0.3
		c0.2-0.1,0.5-0.1,0.8-0.1c0.8,0,1.4,0.3,1.7,0.8c0.3,0.6,0.5,1.4,0.5,2.6c0,0.4,0,0.7,0,0.9h-3.5v1.3c0,0.6,0,1.1,0.1,1.4
		c0.1,0.4,0.1,0.6,0.3,0.8c0.1,0.2,0.3,0.3,0.4,0.4c0.1,0.1,0.3,0.1,0.6,0.1c0.3,0,0.6-0.2,0.8-0.5c0.2-0.3,0.3-0.9,0.3-1.7h1
		c0,0.3-0.1,0.6-0.1,0.9c0,0.3-0.1,0.5-0.2,0.8c-0.1,0.3-0.2,0.5-0.4,0.6c-0.2,0.2-0.4,0.3-0.6,0.4c-0.2,0.1-0.5,0.2-0.8,0.2
		c-0.6,0-1.1-0.1-1.5-0.4c-0.3-0.2-0.6-0.7-0.8-1.3C252.3,20.7,252.2,19.8,252.2,18.7z M253.3,17.6h2.4c0-0.2,0-0.4,0-0.6
		s0-0.4,0-0.6c0-0.2,0-0.4,0-0.6c0-0.2,0-0.4-0.1-0.5c0-0.2-0.1-0.3-0.2-0.4c-0.1-0.1-0.2-0.2-0.3-0.3c-0.1-0.1-0.3-0.1-0.4-0.1
		c-0.3,0-0.5,0-0.7,0.1s-0.3,0.2-0.4,0.3s-0.2,0.4-0.2,0.7c0,0.3-0.1,0.6-0.1,0.8C253.3,16.7,253.3,17.1,253.3,17.6z"/>
	<path fill="#333333" d="M258.4,22.8V14h1.1v0.8c0.2-0.3,0.5-0.6,0.8-0.8s0.7-0.3,1-0.3c0.4,0,0.8,0.2,1.2,0.5
		c0.3,0.4,0.5,0.9,0.5,1.5v6.9h-1.1v-6.9c0-0.4-0.1-0.8-0.3-1c-0.2-0.2-0.4-0.3-0.7-0.3c-0.2,0-0.5,0.1-0.7,0.2
		c-0.3,0.2-0.5,0.4-0.7,0.7v7.3H258.4z"/>
</g>
<g>
	<path fill="#333333" d="M191.3,47.5V34.9h0.9l4,10v-10h0.9v12.6h-0.8l-4-9.8v9.8H191.3z"/>
	<path fill="#333333" d="M198.9,43.3v-0.5c0-0.4,0-0.7,0-0.9s0-0.5,0-0.9c0-0.4,0.1-0.6,0.1-0.8c0.1-0.2,0.1-0.4,0.3-0.7
		c0.1-0.3,0.3-0.5,0.4-0.6s0.4-0.3,0.6-0.3c0.3-0.1,0.5-0.1,0.9-0.1s0.6,0,0.9,0.1c0.3,0.1,0.5,0.2,0.6,0.3s0.3,0.3,0.4,0.6
		c0.1,0.3,0.2,0.5,0.3,0.7c0.1,0.2,0.1,0.5,0.1,0.8c0,0.4,0,0.6,0,0.9s0,0.5,0,0.9v0.5c0,0.3,0,0.6,0,0.7c0,0.2,0,0.4,0,0.7
		c0,0.3,0,0.5-0.1,0.7c0,0.2-0.1,0.4-0.1,0.6c-0.1,0.2-0.1,0.4-0.2,0.6c-0.1,0.1-0.2,0.3-0.3,0.4c-0.1,0.2-0.3,0.3-0.4,0.4
		c-0.2,0.1-0.3,0.1-0.5,0.2c-0.2,0.1-0.4,0.1-0.7,0.1c-0.3,0-0.5,0-0.7-0.1s-0.4-0.1-0.5-0.2c-0.2-0.1-0.3-0.2-0.4-0.4
		s-0.2-0.3-0.3-0.4c-0.1-0.1-0.1-0.3-0.2-0.6c-0.1-0.2-0.1-0.4-0.1-0.6c0-0.2,0-0.4-0.1-0.7c0-0.3,0-0.5,0-0.7
		C198.9,43.9,198.9,43.7,198.9,43.3z M200,42.9v0.5c0,1.4,0.1,2.3,0.2,2.9c0.2,0.5,0.5,0.8,1,0.8c0.5,0,0.8-0.3,1-0.8
		c0.2-0.5,0.2-1.5,0.2-2.9v-0.5c0-0.5,0-0.9,0-1.2s0-0.6-0.1-0.9c0-0.3-0.1-0.5-0.1-0.7c-0.1-0.2-0.1-0.3-0.2-0.5s-0.2-0.2-0.3-0.3
		c-0.1-0.1-0.3-0.1-0.5-0.1c-0.2,0-0.3,0-0.5,0.1s-0.2,0.2-0.3,0.3c-0.1,0.1-0.2,0.3-0.2,0.5s-0.1,0.4-0.1,0.7
		c0,0.3-0.1,0.6-0.1,0.9S200,42.4,200,42.9z"/>
	<path fill="#333333" d="M207.9,44.5l1-0.3c0,0.4,0.1,0.7,0.2,1s0.2,0.6,0.4,0.8c0.2,0.3,0.4,0.5,0.7,0.6c0.3,0.1,0.6,0.2,1,0.2
		c0.6,0,1-0.2,1.3-0.5c0.3-0.3,0.5-0.8,0.5-1.4c0-0.5-0.1-1-0.4-1.4c-0.3-0.5-0.7-1-1.3-1.6l-2-2.1c-0.4-0.5-0.8-0.9-1-1.3
		c-0.2-0.4-0.3-0.8-0.3-1.2c0-0.8,0.3-1.5,0.8-2c0.5-0.5,1.2-0.7,2.1-0.7c0.8,0,1.5,0.2,2,0.7c0.5,0.5,0.8,1.1,1,2l0,0.1l-0.9,0.3
		l0-0.1c-0.1-0.6-0.3-1.1-0.7-1.6c-0.4-0.4-0.8-0.6-1.4-0.6c-0.6,0-1,0.1-1.3,0.4c-0.3,0.3-0.5,0.7-0.5,1.3c0,0.3,0.1,0.7,0.3,1
		c0.2,0.3,0.4,0.7,0.8,1l1.9,2c0,0.1,0.2,0.2,0.4,0.4c0.2,0.2,0.3,0.4,0.4,0.4c0.1,0.1,0.2,0.2,0.3,0.4s0.3,0.3,0.3,0.4
		c0.1,0.1,0.1,0.2,0.3,0.4s0.2,0.3,0.2,0.5s0.1,0.3,0.1,0.5s0.1,0.4,0.1,0.5c0,0.9-0.3,1.6-0.8,2.1c-0.6,0.5-1.3,0.7-2.2,0.7
		c-0.5,0-0.9-0.1-1.2-0.3s-0.7-0.4-0.9-0.7s-0.5-0.6-0.6-1C208,45.3,207.9,44.9,207.9,44.5z"/>
	<path fill="#333333" d="M215.1,43.5v-1.2c0-0.6,0-1.1,0.1-1.6s0.2-0.8,0.3-1.1s0.3-0.5,0.5-0.6s0.4-0.3,0.7-0.3
		c0.2-0.1,0.5-0.1,0.8-0.1c0.8,0,1.4,0.3,1.7,0.8c0.3,0.6,0.5,1.4,0.5,2.6c0,0.4,0,0.7,0,0.9h-3.5v1.3c0,0.6,0,1.1,0.1,1.4
		c0.1,0.4,0.1,0.6,0.3,0.8c0.1,0.2,0.3,0.3,0.4,0.4c0.1,0.1,0.3,0.1,0.6,0.1c0.3,0,0.6-0.2,0.8-0.5s0.3-0.9,0.3-1.7h1
		c0,0.3-0.1,0.6-0.1,0.9c0,0.3-0.1,0.5-0.2,0.8c-0.1,0.3-0.2,0.5-0.4,0.6s-0.4,0.3-0.6,0.4c-0.2,0.1-0.5,0.2-0.8,0.2
		c-0.6,0-1.1-0.1-1.5-0.4c-0.3-0.2-0.6-0.7-0.8-1.3C215.2,45.4,215.1,44.6,215.1,43.5z M216.2,42.4h2.4c0-0.2,0-0.4,0-0.6
		s0-0.4,0-0.6c0-0.2,0-0.4,0-0.6c0-0.2,0-0.4-0.1-0.5s-0.1-0.3-0.2-0.4c-0.1-0.1-0.2-0.2-0.3-0.3c-0.1-0.1-0.3-0.1-0.4-0.1
		c-0.3,0-0.5,0-0.7,0.1s-0.3,0.2-0.4,0.3s-0.2,0.4-0.2,0.7s-0.1,0.6-0.1,0.8C216.2,41.5,216.2,41.8,216.2,42.4z"/>
	<path fill="#333333" d="M221.3,47.5v-8.8h1.1v1.2c0.1-0.5,0.4-0.8,0.7-1c0.4-0.2,0.7-0.3,1.1-0.4v1.1c-0.1,0-0.1,0-0.2,0
		c-1.1,0-1.7,0.4-1.7,1.3v6.6H221.3z"/>
	<path fill="#333333" d="M226.5,47.5l-2-8.8h1.1l1.6,7.8l1.4-7.8h1.1l-1.8,8.8H226.5z"/>
	<path fill="#333333" d="M230.8,36.7v-1.3h1.1v1.3H230.8z M230.8,47.5v-8.8h1.1v8.8H230.8z"/>
	<path fill="#333333" d="M233.6,43.3v-0.5c0-0.4,0-0.7,0-0.9s0-0.5,0.1-0.9c0-0.4,0.1-0.6,0.1-0.8c0.1-0.2,0.1-0.4,0.3-0.7
		c0.1-0.3,0.3-0.5,0.4-0.6c0.2-0.1,0.4-0.3,0.6-0.3c0.3-0.1,0.6-0.1,0.9-0.1c0.3,0,0.6,0.1,0.9,0.2c0.3,0.1,0.5,0.3,0.6,0.4
		s0.3,0.4,0.4,0.7c0.1,0.3,0.2,0.5,0.2,0.8c0,0.3,0.1,0.6,0.1,0.9c0,0,0,0,0,0c0,0,0,0,0,0h-1.1v-0.1c0-0.8-0.1-1.4-0.3-1.8
		s-0.4-0.5-0.8-0.5c-0.2,0-0.4,0-0.5,0.1c-0.1,0.1-0.3,0.1-0.4,0.3c-0.1,0.1-0.2,0.3-0.2,0.5s-0.1,0.4-0.1,0.7s-0.1,0.6-0.1,0.9
		s0,0.7,0,1.2v0.5c0,1.4,0.1,2.3,0.3,2.8c0.2,0.5,0.5,0.8,1,0.8c0.4,0,0.7-0.2,0.8-0.5s0.3-1,0.3-1.8v-0.1h1.1v0.1
		c0,0.4,0,0.7-0.1,1c0,0.3-0.1,0.6-0.2,0.8c-0.1,0.3-0.2,0.5-0.4,0.7s-0.4,0.3-0.6,0.4c-0.3,0.1-0.6,0.2-0.9,0.2
		c-0.3,0-0.6,0-0.8-0.1c-0.2-0.1-0.4-0.2-0.6-0.3s-0.3-0.3-0.4-0.4c-0.1-0.1-0.2-0.3-0.3-0.6c-0.1-0.2-0.1-0.5-0.2-0.6
		c0-0.2-0.1-0.4-0.1-0.8s0-0.6,0-0.8C233.6,44,233.6,43.7,233.6,43.3z"/>
	<path fill="#333333" d="M239.6,43.5v-1.2c0-0.6,0-1.1,0.1-1.6s0.2-0.8,0.3-1.1s0.3-0.5,0.5-0.6s0.4-0.3,0.7-0.3
		c0.2-0.1,0.5-0.1,0.8-0.1c0.8,0,1.4,0.3,1.7,0.8c0.3,0.6,0.5,1.4,0.5,2.6c0,0.4,0,0.7,0,0.9h-3.5v1.3c0,0.6,0,1.1,0.1,1.4
		c0.1,0.4,0.1,0.6,0.3,0.8c0.1,0.2,0.3,0.3,0.4,0.4c0.1,0.1,0.3,0.1,0.6,0.1c0.3,0,0.6-0.2,0.8-0.5c0.2-0.3,0.3-0.9,0.3-1.7h1
		c0,0.3-0.1,0.6-0.1,0.9c0,0.3-0.1,0.5-0.2,0.8c-0.1,0.3-0.2,0.5-0.4,0.6s-0.4,0.3-0.6,0.4c-0.2,0.1-0.5,0.2-0.8,0.2
		c-0.6,0-1.1-0.1-1.5-0.4c-0.3-0.2-0.6-0.7-0.8-1.3C239.7,45.4,239.6,44.6,239.6,43.5z M240.7,42.4h2.4c0-0.2,0-0.4,0-0.6
		s0-0.4,0-0.6c0-0.2,0-0.4,0-0.6c0-0.2,0-0.4-0.1-0.5c0-0.2-0.1-0.3-0.2-0.4c-0.1-0.1-0.2-0.2-0.3-0.3c-0.1-0.1-0.3-0.1-0.4-0.1
		c-0.3,0-0.5,0-0.7,0.1s-0.3,0.2-0.4,0.3s-0.2,0.4-0.2,0.7c0,0.3-0.1,0.6-0.1,0.8C240.7,41.5,240.7,41.8,240.7,42.4z"/>
</g>
<g>
	<path fill="#333333" d="M192.5,72.5l-2.1-12.6h1l1.7,10.8l1.6-10.8h1.4l1.5,10.8l1.7-10.8h1l-2.1,12.6H197l-1.6-11.2l-1.7,11.2
		H192.5z"/>
	<path fill="#333333" d="M201.2,68.3v-0.5c0-0.4,0-0.7,0-0.9s0-0.5,0-0.9c0-0.4,0.1-0.6,0.1-0.8c0.1-0.2,0.1-0.4,0.3-0.7
		c0.1-0.3,0.3-0.5,0.4-0.6c0.2-0.1,0.4-0.3,0.6-0.3c0.3-0.1,0.5-0.1,0.9-0.1s0.6,0,0.9,0.1c0.2,0.1,0.5,0.2,0.6,0.3
		c0.2,0.1,0.3,0.3,0.4,0.6c0.1,0.3,0.2,0.5,0.3,0.7c0.1,0.2,0.1,0.5,0.1,0.8c0,0.4,0,0.6,0,0.9s0,0.5,0,0.9v0.5c0,0.3,0,0.6,0,0.7
		c0,0.2,0,0.4,0,0.7c0,0.3,0,0.5-0.1,0.7c0,0.2-0.1,0.4-0.1,0.6c-0.1,0.2-0.1,0.4-0.2,0.6s-0.2,0.3-0.3,0.4s-0.3,0.3-0.4,0.4
		c-0.2,0.1-0.3,0.1-0.5,0.2s-0.4,0.1-0.7,0.1s-0.5,0-0.7-0.1s-0.4-0.1-0.5-0.2c-0.2-0.1-0.3-0.2-0.4-0.4c-0.1-0.2-0.2-0.3-0.3-0.4
		s-0.1-0.3-0.2-0.6c-0.1-0.2-0.1-0.4-0.1-0.6c0-0.2,0-0.4-0.1-0.7c0-0.3,0-0.5,0-0.7C201.2,68.9,201.2,68.6,201.2,68.3z M202.3,67.8
		v0.5c0,1.4,0.1,2.3,0.2,2.9c0.2,0.5,0.5,0.8,1,0.8c0.5,0,0.8-0.3,1-0.8c0.2-0.5,0.2-1.5,0.2-2.9v-0.5c0-0.5,0-0.9,0-1.2
		s0-0.6-0.1-0.9c0-0.3-0.1-0.5-0.1-0.7c-0.1-0.2-0.1-0.3-0.2-0.5c-0.1-0.1-0.2-0.2-0.3-0.3s-0.3-0.1-0.5-0.1c-0.2,0-0.3,0-0.5,0.1
		c-0.1,0.1-0.2,0.2-0.3,0.3s-0.2,0.3-0.2,0.5c-0.1,0.2-0.1,0.4-0.1,0.7c0,0.3-0.1,0.6-0.1,0.9S202.3,67.4,202.3,67.8z"/>
	<path fill="#333333" d="M207.5,72.5v-8.8h1.1v0.8c0.2-0.3,0.5-0.6,0.8-0.8s0.7-0.3,1-0.3c0.4,0,0.8,0.2,1.2,0.5
		c0.3,0.4,0.5,0.9,0.5,1.5v6.9H211v-6.9c0-0.4-0.1-0.8-0.3-1c-0.2-0.2-0.4-0.3-0.7-0.3c-0.2,0-0.5,0.1-0.7,0.2
		c-0.3,0.2-0.5,0.4-0.7,0.7v7.3H207.5z"/>
	<path fill="#333333" d="M214.1,63l-0.2-0.4c0.2-0.1,0.3-0.1,0.4-0.3c0.1-0.1,0.2-0.3,0.2-0.5s0.1-0.3,0.1-0.4c0-0.1,0-0.2,0-0.3
		h-0.9v-1.3h1.4c0,1.2-0.1,2-0.2,2.5C214.8,62.7,214.5,63,214.1,63z"/>
	<path fill="#333333" d="M217.1,70.4v-6.1h-1.2v-0.6h1.2v-3.1h1.1v3.1h1.4v0.6h-1.4v6.1c0,0.2,0,0.4,0,0.5s0,0.3,0,0.4
		c0,0.1,0.1,0.2,0.1,0.3c0.1,0.1,0.1,0.1,0.2,0.2c0.1,0,0.2,0.1,0.4,0.1c0.2,0,0.5,0,0.6-0.1v0.8c-0.3,0.1-0.6,0.1-1,0.1
		c-0.3,0-0.5,0-0.7-0.1c-0.2-0.1-0.3-0.2-0.5-0.3c-0.1-0.1-0.2-0.3-0.3-0.5s-0.1-0.4-0.1-0.6C217.1,70.9,217.1,70.7,217.1,70.4z"/>
	<path fill="#333333" d="M223.7,68.8v-5.3c0-0.5,0-0.9,0.1-1.2c0.1-0.4,0.2-0.7,0.3-1.1s0.3-0.6,0.6-0.8c0.2-0.2,0.5-0.4,0.9-0.5
		c0.4-0.1,0.8-0.2,1.3-0.2c2,0,3,1.3,3,3.9V64h-1.1v-0.8c0-0.4,0-0.8-0.1-1.1c-0.1-0.3-0.2-0.6-0.3-0.8c-0.1-0.3-0.3-0.4-0.6-0.6
		c-0.3-0.1-0.6-0.2-0.9-0.2c-0.3,0-0.6,0-0.8,0.1c-0.2,0.1-0.4,0.2-0.6,0.4s-0.3,0.4-0.4,0.6c-0.1,0.2-0.2,0.5-0.2,0.7
		c0,0.3-0.1,0.5-0.1,0.9v5.8c0,0.4,0,0.8,0.1,1.1c0.1,0.3,0.2,0.6,0.3,0.8c0.1,0.3,0.4,0.5,0.6,0.6s0.6,0.2,1,0.2
		c0.4,0,0.7-0.1,0.9-0.2c0.3-0.1,0.4-0.3,0.6-0.6c0.1-0.3,0.2-0.5,0.3-0.9c0.1-0.3,0.1-0.7,0.1-1.1v-0.9h1.1v0.6
		c0,0.4,0,0.9-0.1,1.2c-0.1,0.4-0.2,0.7-0.3,1.1s-0.3,0.6-0.5,0.8c-0.2,0.2-0.5,0.4-0.9,0.5c-0.3,0.1-0.8,0.2-1.2,0.2
		c-0.5,0-0.9-0.1-1.3-0.2c-0.4-0.1-0.7-0.3-0.9-0.5c-0.2-0.2-0.4-0.5-0.6-0.8s-0.2-0.7-0.3-1.1S223.7,69.3,223.7,68.8z"/>
	<path fill="#333333" d="M231.4,72.5V59.8h1.1v4.7c0.2-0.3,0.5-0.6,0.8-0.8c0.3-0.2,0.7-0.3,1-0.3c0.5,0,0.8,0.2,1.2,0.5
		c0.3,0.4,0.5,0.9,0.5,1.5v6.9h-1.1v-6.9c0-0.9-0.3-1.3-0.9-1.3c-0.2,0-0.5,0.1-0.8,0.3c-0.3,0.2-0.5,0.4-0.7,0.6v7.3H231.4z"/>
	<path fill="#333333" d="M241.1,72.5l-0.1-1.1c-0.2,0.4-0.5,0.7-0.9,0.9c-0.3,0.2-0.7,0.3-1,0.3c-0.5,0-0.9-0.2-1.2-0.5
		c-0.4-0.4-0.5-0.8-0.5-1.4c0-0.2,0-0.3,0-0.4c0-0.1,0-0.2,0-0.4c0-0.2,0.1-0.3,0.1-0.4c0-0.1,0.1-0.2,0.2-0.4
		c0.1-0.1,0.2-0.3,0.3-0.4c0.1-0.1,0.3-0.2,0.4-0.4c0.2-0.1,0.4-0.3,0.6-0.4c0.2-0.1,0.5-0.3,0.8-0.4c0.3-0.2,0.7-0.3,1-0.5V67
		c0-0.5,0-0.9-0.1-1.3c0-0.4-0.1-0.6-0.2-0.8s-0.1-0.3-0.2-0.5c-0.1-0.1-0.2-0.2-0.3-0.2s-0.2,0-0.3,0c-0.1,0-0.3,0-0.4,0.1
		c-0.1,0-0.2,0.1-0.3,0.2c-0.1,0.1-0.2,0.3-0.3,0.5c-0.1,0.2-0.1,0.5-0.1,0.9v0.1h-1.1c0.1-0.8,0.3-1.4,0.7-1.8
		c0.4-0.4,0.9-0.7,1.6-0.7c0.4,0,0.7,0.1,0.9,0.2s0.5,0.3,0.7,0.4c0.2,0.2,0.3,0.4,0.4,0.6c0.1,0.3,0.2,0.5,0.2,0.7
		c0,0.2,0.1,0.5,0.1,0.8v4.2c0,0.3,0,0.6,0,1c0,0.3,0,0.6,0.1,0.8l0,0.3H241.1z M240.9,70.7v-3.1c-0.4,0.2-0.6,0.5-0.8,0.6
		c-0.2,0.2-0.4,0.3-0.7,0.5c-0.2,0.2-0.4,0.4-0.5,0.6c-0.1,0.2-0.2,0.4-0.3,0.6c-0.1,0.2-0.1,0.4-0.1,0.7c0,0.4,0.1,0.7,0.3,0.9
		c0.2,0.2,0.4,0.3,0.6,0.3c0.3,0,0.6-0.1,0.8-0.3C240.5,71.3,240.7,71,240.9,70.7z"/>
	<path fill="#333333" d="M243.6,72.5v-8.8h1.1v1.2c0.1-0.5,0.4-0.8,0.7-1c0.4-0.2,0.7-0.3,1.1-0.4v1.1c-0.1,0-0.1,0-0.2,0
		c-1.1,0-1.7,0.4-1.7,1.3v6.6H243.6z"/>
	<path fill="#333333" d="M248.1,70.9c0,0.1,0,0.2,0.2,0.3c0.2,0.1,0.6,0.1,1.2,0.3c0.2,0,0.4,0.1,0.5,0.1c0.4,0.1,0.7,0.2,1,0.3
		c0.3,0.1,0.6,0.2,0.8,0.4c0.3,0.1,0.4,0.3,0.6,0.5c0.1,0.2,0.2,0.4,0.2,0.7c0,0.2,0,0.5-0.1,0.7c-0.1,0.2-0.2,0.4-0.3,0.5
		c-0.1,0.1-0.3,0.2-0.5,0.3c-0.2,0.1-0.4,0.2-0.5,0.2c-0.2,0.1-0.4,0.1-0.6,0.1c-0.2,0-0.4,0.1-0.5,0.1c-0.1,0-0.3,0-0.4,0
		c-2,0-2.9-0.4-2.9-1.2c0-0.5,0.2-0.9,0.5-1.3c0.3-0.4,0.7-0.7,1.2-0.9c-0.1,0-0.2,0-0.4-0.1c-0.2,0-0.3-0.1-0.6-0.2
		s-0.3-0.2-0.3-0.3c0-0.1,0-0.1,0-0.2c0-0.1,0-0.2,0.1-0.2c0-0.1,0.1-0.2,0.1-0.3c0-0.1,0.1-0.2,0.1-0.3c0.1-0.1,0.1-0.2,0.2-0.2
		c0-0.1,0.1-0.2,0.2-0.2c0.1-0.1,0.1-0.2,0.1-0.2s0.1-0.1,0.1-0.2c0.1-0.1,0.1-0.1,0.1-0.1c-0.3-0.3-0.6-0.7-0.8-1.2
		c-0.2-0.5-0.3-1-0.3-1.5c0-0.3,0-0.6,0.1-0.9s0.1-0.6,0.3-0.8s0.3-0.5,0.5-0.7c0.2-0.2,0.4-0.4,0.7-0.5c0.3-0.1,0.6-0.2,1-0.2
		c0.5,0,0.9,0.1,1.2,0.3c0.3,0.2,0.6,0.6,0.9,1c0.1-0.2,0.2-0.3,0.2-0.4c0.1-0.1,0.2-0.2,0.3-0.4c0.1-0.1,0.2-0.3,0.4-0.4
		c0.1-0.1,0.3-0.2,0.4-0.2v1.1c-0.2,0-0.4,0.1-0.6,0.2c-0.2,0.1-0.4,0.3-0.5,0.5c0.2,0.5,0.3,1,0.3,1.3c0,0.4,0,0.7-0.1,1
		c-0.1,0.3-0.2,0.6-0.3,0.9s-0.3,0.5-0.5,0.7c-0.2,0.2-0.4,0.4-0.7,0.5c-0.3,0.1-0.6,0.2-1,0.2c-0.4,0-0.8-0.1-1.1-0.2
		C248.4,70.2,248.2,70.6,248.1,70.9z M250.4,72.5l-1.6-0.3c-0.2,0.2-0.5,0.5-0.7,0.8s-0.4,0.7-0.4,0.9c0,0.1,0,0.2,0.1,0.3
		c0.1,0.1,0.1,0.1,0.2,0.2c0.1,0,0.2,0.1,0.3,0.1c0.1,0,0.2,0.1,0.4,0.1c0.2,0,0.3,0,0.4,0c0.1,0,0.2,0,0.4,0c0,0,0.1,0,0.1,0
		c1.3,0,1.9-0.3,1.9-0.9c0-0.3-0.1-0.6-0.3-0.8C251.1,72.7,250.8,72.5,250.4,72.5z M249.1,68.9c0.2,0.1,0.4,0.2,0.6,0.2
		s0.5-0.1,0.6-0.2c0.2-0.1,0.3-0.3,0.4-0.4c0.1-0.2,0.2-0.4,0.2-0.6c0.1-0.2,0.1-0.4,0.1-0.6c0-0.2,0-0.3,0-0.5c0-0.2,0-0.3,0-0.5
		c0-0.2-0.1-0.4-0.1-0.6c-0.1-0.2-0.1-0.4-0.2-0.6s-0.2-0.3-0.4-0.5c-0.2-0.1-0.4-0.2-0.6-0.2c-0.2,0-0.4,0-0.6,0.1
		c-0.2,0.1-0.3,0.2-0.4,0.3s-0.2,0.3-0.3,0.5c-0.1,0.2-0.1,0.3-0.2,0.5s-0.1,0.4-0.1,0.5c0,0.1,0,0.3,0,0.4c0,0.2,0,0.4,0,0.5
		s0.1,0.4,0.1,0.6c0.1,0.2,0.1,0.4,0.2,0.6S248.9,68.8,249.1,68.9z"/>
	<path fill="#333333" d="M253.7,68.4v-1.2c0-0.6,0-1.1,0.1-1.6s0.2-0.8,0.3-1.1s0.3-0.5,0.5-0.6c0.2-0.2,0.4-0.3,0.7-0.3
		c0.2-0.1,0.5-0.1,0.8-0.1c0.8,0,1.4,0.3,1.7,0.8c0.3,0.6,0.5,1.4,0.5,2.6c0,0.4,0,0.7,0,0.9h-3.5v1.3c0,0.6,0,1.1,0.1,1.4
		c0.1,0.4,0.1,0.6,0.3,0.8c0.1,0.2,0.3,0.3,0.4,0.4c0.1,0.1,0.3,0.1,0.6,0.1c0.3,0,0.6-0.2,0.8-0.5c0.2-0.3,0.3-0.9,0.3-1.7h1
		c0,0.3-0.1,0.6-0.1,0.9c0,0.3-0.1,0.5-0.2,0.8c-0.1,0.3-0.2,0.5-0.4,0.6s-0.4,0.3-0.6,0.4c-0.2,0.1-0.5,0.2-0.8,0.2
		c-0.6,0-1.1-0.1-1.5-0.4c-0.3-0.2-0.6-0.7-0.8-1.3C253.7,70.4,253.6,69.5,253.7,68.4z M254.8,67.3h2.4c0-0.2,0-0.4,0-0.6
		s0-0.4,0-0.6c0-0.2,0-0.4,0-0.6c0-0.2,0-0.4-0.1-0.5c0-0.2-0.1-0.3-0.2-0.4c-0.1-0.1-0.2-0.2-0.3-0.3c-0.1-0.1-0.3-0.1-0.4-0.1
		c-0.3,0-0.5,0-0.7,0.1s-0.3,0.2-0.4,0.3s-0.2,0.4-0.2,0.7c0,0.3-0.1,0.6-0.1,0.8C254.8,66.4,254.8,66.8,254.8,67.3z"/>
</g>
<g>
	<path fill="#333333" d="M191.3,97.7V85h2.7c0.4,0,0.8,0.1,1.2,0.2s0.6,0.3,0.8,0.5s0.4,0.4,0.5,0.7s0.2,0.6,0.3,0.9
		c0.1,0.3,0.1,0.6,0.1,0.9c0,0.5-0.1,1-0.4,1.5c-0.2,0.5-0.6,0.8-1,1c0.3,0.1,0.6,0.3,0.8,0.5s0.4,0.5,0.5,0.8
		c0.1,0.3,0.2,0.6,0.3,0.9c0.1,0.3,0.1,0.6,0.1,0.9c0,0.4,0,0.8-0.1,1.2c0,0.3-0.1,0.7-0.3,1c-0.1,0.3-0.3,0.6-0.5,0.8
		c-0.2,0.2-0.5,0.4-0.8,0.5s-0.8,0.2-1.2,0.2H191.3z M192.4,90.5h1.8c0.3,0,0.5-0.1,0.7-0.2s0.3-0.3,0.5-0.5
		c0.1-0.2,0.2-0.4,0.2-0.7c0-0.3,0.1-0.5,0.1-0.8c0-1.6-0.6-2.4-1.8-2.4h-1.5V90.5z M192.4,96.8h2c0.3,0,0.5-0.1,0.7-0.2
		s0.3-0.2,0.5-0.4s0.2-0.4,0.3-0.6c0.1-0.3,0.1-0.5,0.1-0.8c0-0.3,0-0.6,0-0.9c0-0.3,0-0.6,0-0.8c0-0.2-0.1-0.5-0.1-0.7
		c-0.1-0.2-0.2-0.4-0.3-0.6c-0.1-0.2-0.3-0.3-0.5-0.4c-0.2-0.1-0.4-0.1-0.7-0.1h-2V96.8z"/>
	<path fill="#333333" d="M198.5,97.7v-8.8h1.1v1.2c0.1-0.5,0.4-0.8,0.7-1c0.4-0.2,0.7-0.3,1.1-0.4v1.1c-0.1,0-0.1,0-0.2,0
		c-1.1,0-1.7,0.4-1.7,1.3v6.6H198.5z"/>
	<path fill="#333333" d="M202.2,93.5V93c0-0.4,0-0.7,0-0.9s0-0.5,0-0.9c0-0.4,0.1-0.6,0.1-0.8c0.1-0.2,0.1-0.4,0.3-0.7
		c0.1-0.3,0.3-0.5,0.4-0.6s0.4-0.3,0.6-0.3c0.3-0.1,0.5-0.1,0.9-0.1s0.6,0,0.9,0.1c0.3,0.1,0.5,0.2,0.6,0.3s0.3,0.3,0.4,0.6
		c0.1,0.3,0.2,0.5,0.3,0.7c0.1,0.2,0.1,0.5,0.1,0.8c0,0.4,0,0.6,0,0.9s0,0.5,0,0.9v0.5c0,0.3,0,0.6,0,0.7c0,0.2,0,0.4,0,0.7
		c0,0.3,0,0.5-0.1,0.7c0,0.2-0.1,0.4-0.1,0.6c-0.1,0.2-0.1,0.4-0.2,0.6c-0.1,0.1-0.2,0.3-0.3,0.4c-0.1,0.2-0.3,0.3-0.4,0.4
		c-0.2,0.1-0.3,0.1-0.5,0.2c-0.2,0.1-0.4,0.1-0.7,0.1c-0.3,0-0.5,0-0.7-0.1s-0.4-0.1-0.5-0.2c-0.2-0.1-0.3-0.2-0.4-0.4
		s-0.2-0.3-0.3-0.4c-0.1-0.1-0.1-0.3-0.2-0.6c-0.1-0.2-0.1-0.4-0.1-0.6c0-0.2,0-0.4-0.1-0.7c0-0.3,0-0.5,0-0.7
		C202.2,94.1,202.2,93.8,202.2,93.5z M203.3,93v0.5c0,1.4,0.1,2.3,0.2,2.9c0.2,0.5,0.5,0.8,1,0.8c0.5,0,0.8-0.3,1-0.8
		c0.2-0.5,0.2-1.5,0.2-2.9V93c0-0.5,0-0.9,0-1.2s0-0.6-0.1-0.9c0-0.3-0.1-0.5-0.1-0.7c-0.1-0.2-0.1-0.3-0.2-0.5s-0.2-0.2-0.3-0.3
		c-0.1-0.1-0.3-0.1-0.5-0.1c-0.2,0-0.3,0-0.5,0.1s-0.2,0.2-0.3,0.3c-0.1,0.1-0.2,0.3-0.2,0.5s-0.1,0.4-0.1,0.7
		c0,0.3-0.1,0.6-0.1,0.9S203.3,92.6,203.3,93z"/>
	<path fill="#333333" d="M208.5,97.7V85h1.1v8l2.7-4.2h1.2l-2.1,3.3l2.1,5.5h-1.2l-1.7-4.8l-1.1,1.3v3.5H208.5z"/>
	<path fill="#333333" d="M214.4,93.6v-1.2c0-0.6,0-1.1,0.1-1.6s0.2-0.8,0.3-1.1s0.3-0.5,0.5-0.6s0.4-0.3,0.7-0.3
		c0.2-0.1,0.5-0.1,0.8-0.1c0.8,0,1.4,0.3,1.7,0.8c0.3,0.6,0.5,1.4,0.5,2.6c0,0.4,0,0.7,0,0.9h-3.5v1.3c0,0.6,0,1.1,0.1,1.4
		c0.1,0.4,0.1,0.6,0.3,0.8c0.1,0.2,0.3,0.3,0.4,0.4c0.1,0.1,0.3,0.1,0.6,0.1c0.3,0,0.6-0.2,0.8-0.5s0.3-0.9,0.3-1.7h1
		c0,0.3-0.1,0.6-0.1,0.9c0,0.3-0.1,0.5-0.2,0.8c-0.1,0.3-0.2,0.5-0.4,0.6s-0.4,0.3-0.6,0.4c-0.2,0.1-0.5,0.2-0.8,0.2
		c-0.6,0-1.1-0.1-1.5-0.4c-0.3-0.2-0.6-0.7-0.8-1.3C214.5,95.6,214.4,94.7,214.4,93.6z M215.5,92.5h2.4c0-0.2,0-0.4,0-0.6
		s0-0.4,0-0.6c0-0.2,0-0.4,0-0.6c0-0.2,0-0.4-0.1-0.5s-0.1-0.3-0.2-0.4c-0.1-0.1-0.2-0.2-0.3-0.3c-0.1-0.1-0.3-0.1-0.4-0.1
		c-0.3,0-0.5,0-0.7,0.1s-0.3,0.2-0.4,0.3s-0.2,0.4-0.2,0.7s-0.1,0.6-0.1,0.8C215.5,91.6,215.5,92,215.5,92.5z"/>
	<path fill="#333333" d="M220.6,97.7v-8.8h1.1v0.8c0.2-0.3,0.5-0.6,0.8-0.8s0.7-0.3,1-0.3c0.4,0,0.8,0.2,1.1,0.5
		c0.3,0.4,0.5,0.9,0.5,1.5v6.9h-1.1v-6.9c0-0.4-0.1-0.8-0.3-1c-0.2-0.2-0.4-0.3-0.7-0.3c-0.2,0-0.5,0.1-0.7,0.2
		c-0.3,0.2-0.5,0.4-0.7,0.7v7.3H220.6z"/>
	<path fill="#333333" d="M230.1,97.7V85h2.7c0.4,0,0.8,0.1,1.2,0.2s0.6,0.3,0.8,0.5c0.2,0.2,0.4,0.4,0.5,0.7s0.2,0.6,0.3,0.9
		s0.1,0.6,0.1,0.9c0,0.5-0.1,1-0.4,1.5c-0.2,0.5-0.6,0.8-1,1c0.3,0.1,0.6,0.3,0.8,0.5s0.4,0.5,0.5,0.8c0.1,0.3,0.2,0.6,0.3,0.9
		c0.1,0.3,0.1,0.6,0.1,0.9c0,0.4,0,0.8-0.1,1.2c0,0.3-0.1,0.7-0.3,1c-0.1,0.3-0.3,0.6-0.5,0.8c-0.2,0.2-0.5,0.4-0.8,0.5
		s-0.8,0.2-1.2,0.2H230.1z M231.2,90.5h1.8c0.3,0,0.5-0.1,0.7-0.2s0.3-0.3,0.5-0.5c0.1-0.2,0.2-0.4,0.2-0.7c0-0.3,0.1-0.5,0.1-0.8
		c0-1.6-0.6-2.4-1.8-2.4h-1.5V90.5z M231.2,96.8h2c0.3,0,0.5-0.1,0.7-0.2c0.2-0.1,0.3-0.2,0.5-0.4s0.2-0.4,0.3-0.6
		c0.1-0.3,0.1-0.5,0.1-0.8c0-0.3,0-0.6,0-0.9c0-0.3,0-0.6,0-0.8c0-0.2-0.1-0.5-0.1-0.7c-0.1-0.2-0.2-0.4-0.3-0.6s-0.3-0.3-0.5-0.4
		c-0.2-0.1-0.4-0.1-0.7-0.1h-2V96.8z"/>
	<path fill="#333333" d="M237.5,97.7V85h1.1v12.6H237.5z"/>
	<path fill="#333333" d="M240.5,95.8v-6.9h1.1v6.9c0,0.4,0.1,0.8,0.3,1c0.2,0.2,0.4,0.3,0.7,0.3c0.2,0,0.5-0.1,0.7-0.2
		c0.3-0.2,0.5-0.4,0.7-0.7v-7.3h1.1v8.8H244v-0.8c-0.2,0.3-0.5,0.6-0.8,0.8s-0.7,0.3-1,0.3c-0.4,0-0.8-0.2-1.2-0.5
		C240.7,97,240.5,96.4,240.5,95.8z"/>
	<path fill="#333333" d="M247,93.6v-1.2c0-0.6,0-1.1,0.1-1.6s0.2-0.8,0.3-1.1s0.3-0.5,0.5-0.6s0.4-0.3,0.7-0.3
		c0.2-0.1,0.5-0.1,0.8-0.1c0.8,0,1.4,0.3,1.7,0.8c0.3,0.6,0.5,1.4,0.5,2.6c0,0.4,0,0.7,0,0.9h-3.5v1.3c0,0.6,0,1.1,0.1,1.4
		c0.1,0.4,0.1,0.6,0.3,0.8c0.1,0.2,0.3,0.3,0.4,0.4c0.1,0.1,0.3,0.1,0.6,0.1c0.3,0,0.6-0.2,0.8-0.5c0.2-0.3,0.3-0.9,0.3-1.7h1
		c0,0.3-0.1,0.6-0.1,0.9c0,0.3-0.1,0.5-0.2,0.8c-0.1,0.3-0.2,0.5-0.4,0.6s-0.4,0.3-0.6,0.4c-0.2,0.1-0.5,0.2-0.8,0.2
		c-0.6,0-1.1-0.1-1.5-0.4c-0.3-0.2-0.6-0.7-0.8-1.3C247.1,95.6,247,94.7,247,93.6z M248.1,92.5h2.4c0-0.2,0-0.4,0-0.6s0-0.4,0-0.6
		c0-0.2,0-0.4,0-0.6c0-0.2,0-0.4-0.1-0.5c0-0.2-0.1-0.3-0.2-0.4c-0.1-0.1-0.2-0.2-0.3-0.3c-0.1-0.1-0.3-0.1-0.4-0.1
		c-0.3,0-0.5,0-0.7,0.1s-0.3,0.2-0.4,0.3s-0.2,0.4-0.2,0.7c0,0.3-0.1,0.6-0.1,0.8C248.1,91.6,248.1,92,248.1,92.5z"/>
	<path fill="#333333" d="M253.5,95.6v-6.1h-1.2v-0.6h1.2v-3.1h1.1v3.1h1.4v0.6h-1.4v6.1c0,0.2,0,0.4,0,0.5c0,0.1,0,0.3,0,0.4
		c0,0.1,0.1,0.2,0.1,0.3c0.1,0.1,0.1,0.1,0.2,0.2c0.1,0,0.2,0.1,0.4,0.1c0.2,0,0.5,0,0.6-0.1v0.8c-0.3,0.1-0.6,0.1-1,0.1
		c-0.3,0-0.5,0-0.7-0.1c-0.2-0.1-0.3-0.2-0.5-0.3c-0.1-0.1-0.2-0.3-0.2-0.5c-0.1-0.2-0.1-0.4-0.1-0.6
		C253.5,96.1,253.5,95.9,253.5,95.6z"/>
	<path fill="#333333" d="M257,93.5V93c0-0.4,0-0.7,0-0.9s0-0.5,0-0.9c0-0.4,0.1-0.6,0.1-0.8c0.1-0.2,0.1-0.4,0.3-0.7
		c0.1-0.3,0.3-0.5,0.4-0.6s0.4-0.3,0.6-0.3c0.3-0.1,0.5-0.1,0.9-0.1c0.3,0,0.6,0,0.9,0.1c0.3,0.1,0.5,0.2,0.6,0.3
		c0.2,0.1,0.3,0.3,0.4,0.6c0.1,0.3,0.2,0.5,0.3,0.7c0.1,0.2,0.1,0.5,0.1,0.8c0,0.4,0,0.6,0,0.9s0,0.5,0,0.9v0.5c0,0.3,0,0.6,0,0.7
		c0,0.2,0,0.4,0,0.7c0,0.3,0,0.5-0.1,0.7c0,0.2-0.1,0.4-0.1,0.6c-0.1,0.2-0.1,0.4-0.2,0.6c-0.1,0.1-0.2,0.3-0.3,0.4
		c-0.1,0.2-0.3,0.3-0.4,0.4c-0.2,0.1-0.3,0.1-0.5,0.2c-0.2,0.1-0.4,0.1-0.7,0.1c-0.3,0-0.5,0-0.7-0.1c-0.2-0.1-0.4-0.1-0.5-0.2
		c-0.2-0.1-0.3-0.2-0.4-0.4c-0.1-0.2-0.2-0.3-0.3-0.4c-0.1-0.1-0.1-0.3-0.2-0.6c-0.1-0.2-0.1-0.4-0.1-0.6s0-0.4-0.1-0.7
		c0-0.3,0-0.5,0-0.7C257,94.1,257,93.8,257,93.5z M258.1,93v0.5c0,1.4,0.1,2.3,0.2,2.9c0.2,0.5,0.5,0.8,1,0.8c0.5,0,0.8-0.3,1-0.8
		c0.2-0.5,0.2-1.5,0.2-2.9V93c0-0.5,0-0.9,0-1.2s0-0.6-0.1-0.9c0-0.3-0.1-0.5-0.1-0.7c-0.1-0.2-0.1-0.3-0.2-0.5s-0.2-0.2-0.3-0.3
		s-0.3-0.1-0.5-0.1c-0.2,0-0.3,0-0.5,0.1s-0.2,0.2-0.3,0.3c-0.1,0.1-0.2,0.3-0.2,0.5c-0.1,0.2-0.1,0.4-0.1,0.7s-0.1,0.6-0.1,0.9
		S258.1,92.6,258.1,93z"/>
	<path fill="#333333" d="M263.2,93.5V93c0-0.4,0-0.7,0-0.9s0-0.5,0-0.9c0-0.4,0.1-0.6,0.1-0.8c0.1-0.2,0.1-0.4,0.3-0.7
		c0.1-0.3,0.3-0.5,0.4-0.6s0.4-0.3,0.6-0.3c0.3-0.1,0.5-0.1,0.9-0.1c0.3,0,0.6,0,0.9,0.1c0.3,0.1,0.5,0.2,0.6,0.3
		c0.2,0.1,0.3,0.3,0.4,0.6c0.1,0.3,0.2,0.5,0.3,0.7c0.1,0.2,0.1,0.5,0.1,0.8c0,0.4,0,0.6,0,0.9s0,0.5,0,0.9v0.5c0,0.3,0,0.6,0,0.7
		c0,0.2,0,0.4,0,0.7c0,0.3,0,0.5-0.1,0.7c0,0.2-0.1,0.4-0.1,0.6c-0.1,0.2-0.1,0.4-0.2,0.6c-0.1,0.1-0.2,0.3-0.3,0.4
		c-0.1,0.2-0.3,0.3-0.4,0.4c-0.2,0.1-0.3,0.1-0.5,0.2c-0.2,0.1-0.4,0.1-0.7,0.1c-0.3,0-0.5,0-0.7-0.1c-0.2-0.1-0.4-0.1-0.5-0.2
		c-0.2-0.1-0.3-0.2-0.4-0.4c-0.1-0.2-0.2-0.3-0.3-0.4c-0.1-0.1-0.1-0.3-0.2-0.6c-0.1-0.2-0.1-0.4-0.1-0.6s0-0.4-0.1-0.7
		c0-0.3,0-0.5,0-0.7C263.2,94.1,263.2,93.8,263.2,93.5z M264.3,93v0.5c0,1.4,0.1,2.3,0.2,2.9c0.2,0.5,0.5,0.8,1,0.8
		c0.5,0,0.8-0.3,1-0.8c0.2-0.5,0.2-1.5,0.2-2.9V93c0-0.5,0-0.9,0-1.2s0-0.6-0.1-0.9c0-0.3-0.1-0.5-0.1-0.7c-0.1-0.2-0.1-0.3-0.2-0.5
		s-0.2-0.2-0.3-0.3s-0.3-0.1-0.5-0.1c-0.2,0-0.3,0-0.5,0.1s-0.2,0.2-0.3,0.3c-0.1,0.1-0.2,0.3-0.2,0.5c-0.1,0.2-0.1,0.4-0.1,0.7
		s-0.1,0.6-0.1,0.9S264.3,92.6,264.3,93z"/>
	<path fill="#333333" d="M269.9,95.6v-6.1h-1.2v-0.6h1.2v-3.1h1.1v3.1h1.4v0.6H271v6.1c0,0.2,0,0.4,0,0.5c0,0.1,0,0.3,0,0.4
		c0,0.1,0.1,0.2,0.1,0.3c0.1,0.1,0.1,0.1,0.2,0.2c0.1,0,0.2,0.1,0.4,0.1c0.2,0,0.5,0,0.6-0.1v0.8c-0.3,0.1-0.6,0.1-1,0.1
		c-0.3,0-0.5,0-0.7-0.1c-0.2-0.1-0.3-0.2-0.5-0.3c-0.1-0.1-0.2-0.3-0.2-0.5c-0.1-0.2-0.1-0.4-0.1-0.6
		C269.9,96.1,269.9,95.9,269.9,95.6z"/>
	<path fill="#333333" d="M273.6,97.7V85h1.1v4.7c0.2-0.3,0.5-0.6,0.8-0.8c0.3-0.2,0.7-0.3,1-0.3c0.5,0,0.8,0.2,1.2,0.5
		c0.3,0.4,0.5,0.9,0.5,1.5v6.9h-1.1v-6.9c0-0.9-0.3-1.3-0.9-1.3c-0.2,0-0.5,0.1-0.8,0.3c-0.3,0.2-0.5,0.4-0.7,0.6v7.3H273.6z"/>
</g>
<polyline fill="none" stroke="#246936" stroke-miterlimit="10" points="171.9,16.2 174.4,18.9 179,10.5 "/>
<polyline fill="none" stroke="#246936" stroke-miterlimit="10" points="171.9,66.6 174.4,69.4 179,61 "/>
</svg>
