<svg xmlns="http://www.w3.org/2000/svg" viewBox="0 0 278.2 110.8"><path fill="#F8FAFB" stroke="#C9C9C9" stroke-miterlimit="10" d="M93.3 110l-5.1-5.5L83 110l-5.1-5.5-5.1 5.5-5.1-5.5-5.2 5.5-5.1-5.5-5.1 5.5-5.1-5.5-5.1 5.5-5.1-5.5-5.1 5.5-5.1-5.5-5.2 5.5-5.1-5.5-5.1 5.5-5.1-5.5L.6 110V8.2C.5 4.1 3.5.7 7.1.7h79.6c3.6 0 6.6 3.4 6.6 7.5V110z"/><path fill="#E2E2E2" d="M9.4 79.5h39.8v19H9.4z"/><path fill="#AAA9A8" d="M8.4 6.7h29.7v39H8.4z"/><path fill="none" stroke="#353635" stroke-miterlimit="10" d="M8.8 52.3c2-.6 4.3-.5 6.3.2 1.1.4 2.9.8 3.2-.4 2.2-.1 4.4-.1 6.6.1.4.1.8.1 1.1.3.4.3.5.8.7 1.2.2.4.9.6 1.1.2.8-.8 1.1-2 .9-3.1.6.2 1.2.3 1.9.4.1 1.2 1.6 1.8 2.8 1.7 1.2-.1 2.5-.5 3.6-.1"/><path fill="#E2E2E2" d="M42.3 15.6h45.4v6.7H42.3zM42.3 34.5h45.4v6.7H42.3z"/><path fill="none" stroke="#353635" stroke-miterlimit="10" d="M44.7 11.9c.2-.3.4-.5.5-.8.4-.6 1-1.3 1.7-1.3.8 0 1.3 1.2.6 1.5 2.1-.4 4.2-.9 6.3-1.4-.1.6.1 1.2.4 1.6 1.5-.1 2.9-.3 4.3-.8 1.1 1.5 3.9-1.5 5.1 0M44.1 30.7c1.8-.5 3.8-.3 5.5.5.8-1.5 3.2-1.9 4.4-.6 1.1.4 2.3-.7 3-1.7 1.6-.4 2.8 1.7 4.4 2.2 1.2.4 2.5-.3 3.6-.9"/><path fill="#E2E2E2" d="M8.8 59.1h5.5v5.5H8.8zM34.6 59.1h5.5v5.5h-5.5zM26 59.1h5.5v5.5H26zM43.2 59.1h5.5v5.5h-5.5zM17.4 59.1h5.5v5.5h-5.5z"/><g fill="#246A36"><path d="M48.9 56.9c-.1 0 0 0 0 0zM48.8 57.4c.1 0 0-.1.1-.1l-.1-.1v.2zM48.5 57.5c.1 0 0 0 0 0 0-.1 0-.1 0 0 0-.1 0-.1 0 0zM48.5 57.4zM48.5 57.5c-.1 0-.1 0 0 0-.1 0 0 0 0 0zM48.5 57.6zM48.5 57.5c.1.1.1.1 0 0 .1.1 0 0 0 0zM48.6 57.5c.1 0 0 0 0 0zM48.9 57.5s-.1 0 0 0zM48.4 57.7zM48.4 57.7c.1 0 .1 0 0 0zM48.7 57.6zM48.3 57.9c-.1-.1-.1 0-.1-.1 0 .1 0 .1.1.1-.1 0-.1 0 0 0zM48.3 58s-.1 0 0 0c-.1 0-.1 0 0 0zM48.4 57.8zM48.4 57.8zM48.4 57.8zM48.5 57.7c0 .1.1.1.1.1.1-.1 0-.1-.1-.1zM48.5 57.8zM48.5 57.8zM48.3 58c.1 0 .1 0 0 0 .1 0 0 0 0 0zM48.4 57.9zM48.2 58.2zM48.4 58zM48.3 58.1s-.1 0 0 0zM48.4 57.9zM48.4 57.9zM48.5 58.4c-.1-.1-.1-.1 0-.1 0-.1-.2-.1-.3-.1 0 0 .1 0 .1.1.1 0 .1-.1.1 0s-.1.1-.1.1c.1-.1.1 0 .2 0z"/><path d="M48.3 58.1h-.1c0 .1 0 .1.1 0zM48.3 58.1l.1.1c0-.1 0-.1-.1-.1.1 0 .1-.1 0 0 0 0 0-.1 0 0 0-.1 0-.1 0 0zM48.8 57.8s0 .1 0 0zM48.7 57.9c0-.1 0-.1 0 0 0-.1 0-.1 0 0 0-.1 0-.1 0 0-.1 0-.2 0-.2-.1.1 0 .2.1.2.1zM48.5 58c.1 0 0 0 0 0zM48.2 58.3zM46.7 62.6zM46.7 62.5zM47.3 60h-.1.1c-.1 0 0 0 0 0zM47 61.3zM47.2 61.5zM46.3 63.4v.1c.1 0 .1 0 0-.1zM47.8 59c0 .1.1.1 0 0zM46.2 62.2s0 .1 0 0zM47.7 59.1zM44.2 62.1zM44.2 61.1zM48 58.6c0-.1 0 0 0 0zM48.3 58.6zM48 59.4zM48.1 58.5c0 .1 0 .1 0 0 0 .1 0 .1 0 0zM48 58.5c.1 0 .1 0 0 0zM48 58.6zM45.3 63c-.1 0-.1 0 0 0zM47.6 60.7zM47.6 60.7l-.2-.1.2.1z"/><path d="M46.6 62.9c.1.1.1.1.2.1-.2-.1.1-.2-.1-.3h.1c.1 0-.1-.1-.1-.2h.1v-.1s.1 0 0 0v-.1l-.1-.1h.1v-.1c.1 0 .1.1.1.1.2.1 0-.1.1-.1v.1c.1 0 .1 0 .2-.1-.1 0-.2 0-.2-.1 0 0 .1 0 0-.1.1.1.1 0 .1-.1l.1.1c0-.1-.1-.1-.1-.1h.2c.1-.1-.1 0-.1-.1.1-.1.1-.1 0-.2.1 0 .1.1.1.1l-.1-.1h.1c0-.1-.1-.1-.1-.1-.1-.1.2 0 .1-.1.1 0 .1.1.1.1-.1-.1 0-.1-.1-.2h.1c-.1 0-.1-.1-.2-.2h-.1v-.1s.1 0 .1.1c.1 0 .1.1.1.1H47l.1.1v-.1h.1V61l.1.1h-.1l.1-.1c-.1-.1-.2-.2-.2-.3.1.1.1.1.2.1-.1 0 0 .1-.1.1h.1l-.1-.1c.1.1.1 0 .1 0-.1-.1-.1-.1-.1-.2.1 0 .1.1.1.1.1 0-.1-.1 0-.2v.1c0-.1.1-.1.1-.1.1-.1.1-.2 0-.3 0 0 .1.1.2.1l-.3-.3c.1.1.3.1.3.2 0 0 .1 0 .1-.1l-.2-.1h.2c-.1 0-.2-.1-.2-.1l.2.1-.1-.1c0 .1.1.1.2.1-.1 0 .1-.1 0-.1h-.1c.1-.1-.2-.2-.1-.2l.2.1-.3-.3h.1v.5c.1.1.3.3.3.4h.1c.1 0 .1.1.1.1l.1-.1c-.1-.1-.1-.1-.1-.2l.1.2-.2-.2c.1 0 .2.1.2.1v-.1l.1.1c.1 0-.1-.1 0-.1h.1c-.1 0-.4-.2-.4-.2s.1-.1.2-.1.2.1.2.2l-.1-.1c.1 0 .1.1.1 0-.1-.1.1-.1-.1-.1 0-.1.1-.1.1-.1-.1 0-.2-.1-.2-.2h.1c.1-.1.1-.1.1-.2h.1s-.1-.1 0-.1 0 .1.1.1l-.1-.1c-.1-.1-.1.1-.1.1-.1-.1-.2-.2-.2-.3 0-.1.1 0 .1 0 .1-.1-.1-.2 0-.2s.1.1.2.1c0 .1-.1.1-.1.1h.1v.1c.1 0 .1-.2.2-.2 0 0 0-.1-.1-.1v.1c-.1 0-.1-.1-.1-.1 0-.1-.1-.1 0-.2l.1.1s-.1 0-.1.1c0-.1.2 0 .1-.1h-.1c0-.1-.1-.1-.1-.2h-.1c.1.1-.1.1.1.1-.1 0-.1.1-.2 0 0 0 .1 0 0 .1h.1c.1.1 0 .1.1.1h-.1l.1.1c-.1 0-.1 0-.1-.1v.1c-.1 0-.1.1-.1.1s.1.1 0 .1v.1c-.1.1 0 .2-.1.2 0 .1 0 .1-.1.1h-.1c0 .1-.1.1-.1.1-.2-.1-.1.1-.2.2l.1.1v.1h.1c0 .1-.1.1-.1.2V60c-.2 0 0 .2-.1.2v.1h-.1.1v.1h-.1c-.1 0 0 .1.1.1v.1c-.1-.1 0 .1-.1.1.1.1 0 .1.1.2 0 0-.1.1 0 .1l-.1-.1.1.1c-.1 0-.1 0-.1-.1.1.1 0 .1.1.2l-.1-.1s.1.1 0 .1-.1.2-.3.3c.2.1-.1 0 0 .1-.1 0-.1 0-.1-.1 0 .1-.1.1-.1.2-.1 0-.1-.1-.1-.1v.1l-.1-.1c0 .1.1.1.2.2-.1 0-.1 0 0 .1-.1 0-.1 0-.1-.1 0 0-.1.1-.1.2v.1l-.1.1c.1.1 0 .1 0 .1-.1.1 0 .1-.1.1h.1c.1.1-.1.1-.1.1h.1c.1.1-.2 0-.2 0v-.1c-.1.1.1.1.1.1-.1 0-.1-.1-.1-.1-.1 0 .1.2 0 .2.1 0 .1 0 .1.1s-.2.1-.1.1h-.1c0 .1 0 .1.1.2-.2-.1 0 .2-.2.1l-.3-.1s0 .1.1.1c0 0-.1 0-.1-.1-.1 0-.1 0 0 .2l-.1-.1c0 .1-.1-.1-.1.1V63c0 .2-.1-.1-.1.1v.2c.1.1 0 .2.1.3l-.1-.2c0-.2-.1-.1-.1-.3-.1-.1-.1-.2-.2-.3l.1.2v-.1l.1-.1c.1-.1-.1 0-.1 0 0-.1.1-.1.1-.1-.1 0-.1.1-.1 0s.1-.1.1-.1l-.1-.1-.1.1c-.1 0-.1-.1-.1.1.1-.1-.1-.2-.1-.3-.1 0-.1-.1-.1-.1l-.1.1c.2-.1 0-.1.1-.2-.1.1-.1-.1-.2.1 0-.1.1-.1.1-.1-.1 0-.1-.2-.2-.3l-.1.1.1-.1s-.1.1-.1 0v.1c-.1-.2-.4-.3-.3-.6 0 .1-.1.1-.1 0l-.1.1v-.1c-.1.1-.1-.1-.2 0h.1c-.1.1-.1.2-.2.3.1-.1-.1.2.1.2 0 .1-.1 0-.1.1.1 0 .1 0 .1.1.1.1.1.2.1.3l.1-.1v.1c.1-.1-.1-.1.1-.1-.1.1.1.2.1.3.1.1.1-.1.1 0v.1h.1s0 .1-.1.1c0 .1.1.1.1.1v-.1c.1.1.2.2.3.2.1.1 0 .1.1.1h.1c-.1 0 0 .1-.1.1.1.1.1 0 .2 0L45 63c.1 0 .1-.1.1 0-.1 0-.1.1-.1.1 0 .2.2.1.1.2.1-.1 0-.1.1-.1 0-.1.1-.1.1 0l-.1.2c0 .1.1 0 .1.1.1-.1.1.1.1 0l-.1-.1c.1 0 .2-.1.2.1h-.1c0 .1.1 0 .1.1-.1.1-.1-.1-.2-.1 0 .1.1 0 0 .1.2-.1.1.1.2.1l-.1.1h.1l-.1.1c.1 0 .1.2.1.2-.1-.1 0-.1 0-.2.2.1 0 .3.2.4 0 0-.1-.1 0-.1 0 .1.1.1.1.2.1.1 0-.1.1-.1 0 .2.1 0 .1 0v.1c.1.2.1-.2.1 0l-.1-.2v.1c.1-.1.1 0 .1.1v-.2-.1c.1.1 0 .1.1.1 0 .1 0 .2-.1.1v.1c.1.1.1-.1.1-.1l-.2-.6v-.1c0 .1.1.2 0 .3l.1-.2s.1 0 .1.1c.1-.1.1-.3.1-.3v-.1c.1-.1.2-.1.1-.3h.1c0-.1-.1 0-.1-.2 0-.1.1 0 .1 0 .1 0 0-.1.1 0 0-.1 0-.1 0 0zm.2-.6c-.1 0 0 0 0 0zm.3-1zm.9-2.6c-.1 0-.1 0 0 0zm0 0s.1 0 0 0zm-2.5 3.9c-.1 0-.1 0 0 0zM47.2 61.5s-.1 0 0 0c-.1 0-.1 0 0 0zM46.3 63.4zM48.1 59.8zM48.1 58.4zM48.6 58.3c-.1 0 0 0 0 0-.1 0-.1 0 0 0zM48.3 58.4zM48.3 58.4c0-.1 0 0 0 0zM48.1 58.6s-.2 0 0 0c-.2-.1 0 .1 0 0zM48.4 58.5zM48.3 58.7c0-.1 0-.1 0 0 0-.1 0 0 0 0zM48.3 58.6zM48.1 59.1zM48.3 59zM48.3 59.2s0-.1 0 0zM47.9 59.7l-.1-.1"/><path d="M47.9 60.4c0-.1-.1-.1 0 0-.1 0-.1 0 0 0zM47.8 60.3zM44.2 61zM44 61zM47 62.3zM46.7 62.7v-.1M46.6 63.1s0-.1.1-.1c0 .1-.1.1-.1.1z"/></g><g fill="#246A36"><path d="M22.7 58.3s0-.1 0 0zM22.6 58.7c.1 0 0-.1.1-.1l-.1-.1c.1.2.1.2 0 .2zM22.4 58.8c.1 0 0 0 0 0 0-.1 0-.1 0 0 0-.1 0-.1 0 0zM22.4 58.7zM22.4 58.8c-.1 0 0 0 0 0zM22.4 58.9zM22.4 58.8c.1.1.1.1 0 0 .1.1 0 0 0 0zM22.5 58.8zM22.7 58.8zM22.2 59c.1 0 .1 0 0 0zM22.4 59c0 .1 0 .1 0 0zM22.5 58.9zM22.2 59.1zM22.1 59.2c-.1-.1-.1 0-.1-.1l.1.1zM22.1 59.3zM22.3 59.1zM22.3 59.1c0 .1 0 .1 0 0 0 .1 0 .1 0 0zM22.3 59.1zM22.5 59c0 .1.1.1.1.1-.1 0-.1 0-.1-.1zM22.4 59.1zM22.4 59.2v-.1.1M22.2 59.3s0-.1 0 0zM22.2 59.2zM22.1 59.5zM22.2 59.3c.1 0 .1 0 0 0 0-.1 0 0 0 0zM22.1 59.3zM22.2 59.2zM22.2 59.2zM22.4 59.7c-.1-.1-.1-.1 0-.1 0-.1-.2-.1-.3-.1 0 0 .1 0 .1.1.1 0 .1-.1.1 0s-.1 0-.1.1c.1-.1.1 0 .2 0zM22.2 59.4h-.1s0 .1.1 0zM22.2 59.3l.1.1s-.1 0-.1-.1c0 .1 0 0 0 0 0 .1 0 0 0 0 0 .1 0 .1 0 0zM22.6 59.2zM22.6 59.2s0-.1 0 0c-.1 0-.2-.1-.2-.1.1.1.1.1.2.1zM22.4 59.3c.1 0 0 0 0 0zM22.1 59.5zM22.1 59.5H22M20.7 63.7zM20.8 63.5zM21.2 61.2h-.1.1zM20.9 62.5zM21.1 62.6zM20.3 64.5v.1c.1-.1 0-.1 0-.1zM21.7 60.3zM20.2 63.3zM21.6 60.3zM18.3 63.2zM18.3 62.2zM21.9 59.8zM22.1 59.8c0 .1 0 .1 0 0 0 .1 0 .1 0 0zM21.9 60.6zM21.9 59.8zM21.9 59.8zM21.9 59.8zM19.3 64.1zM21.6 61.8zM21.6 61.9c-.1-.1-.1-.1 0 0l-.2-.1.2.1z"/><path d="M20.5 63.9c.1.1.1.1.2.1-.2-.1.1-.2-.1-.2h.1c.1 0-.1-.1-.1-.2h.1v-.1s.1 0 0 0v-.1l-.1-.1h.1v-.1c.1 0 .1.1.1.1.2.1 0-.1.1-.1v.1c.1 0 .1 0 .2-.1-.1 0-.2 0-.2-.1 0 0 .1 0 0-.1.1.1.1 0 .1-.1l.1.1c0-.1-.1-.1-.1-.1h.2c.1-.1-.1 0-.1-.1.1-.1.1-.1 0-.2.1 0 .1.1.1.1l-.1-.1h.1c0-.1-.1-.1-.1-.1-.1-.1.2 0 .1-.1.1 0 .1.1.1.1-.1-.1 0-.1-.1-.2H21c-.1 0-.1-.1-.2-.2h-.1V62s.1 0 .1.1c.1 0 .1.1.1.1h-.1l.1.1v-.1h.1v-.1l.1.1H21l.1-.1c-.1-.1-.2-.2-.2-.3.1.1.1.1.2.1-.1 0 0 .1-.1.1h.1l-.1-.1c.1.1.1 0 .1 0-.1-.1-.1-.1-.1-.2.1 0 .1.1.1.1.1 0-.1-.1 0-.1 0-.1.1-.1.1-.1.1-.1.1-.2 0-.3 0 0 .1.1.2.1l-.3-.3c.1.1.3.1.3.2 0 0 .1 0 .1-.1l-.2-.1h.2l-.2-.1.2.1-.1-.1c0 .1.1.1.2.1-.1 0 .1-.1 0-.1h-.1c.1-.1-.2-.2-.1-.2l.2.1c-.1-.1-.3-.2-.3-.3h.1v-.1c.1.1.3.3.3.4h.1c.1 0 .1.1.1.1l.1-.1c-.1-.1-.1-.1-.1-.2l.1.2-.2-.2c.1 0 .2.1.2.1v-.1l.1.1c.1 0-.1-.1 0-.1h.1c-.1 0-.4-.2-.4-.2s.1-.1.2 0c.1 0 .2.1.2.2l-.1-.1s.1.1.1 0c-.3.4-.2.4-.3.4 0-.1.1 0 .1-.1-.1 0-.2-.1-.2-.2h.1c.1-.1.1-.1.1-.2h.1s-.1-.1 0-.1 0 .1.1.1l-.1-.1c-.1-.1-.1.1-.1.1-.1-.1-.2-.2-.2-.3 0-.1.1 0 .1 0 .1-.1-.1-.2 0-.2s.1.1.2.1c0 .1-.1.1-.1.1v.1c.1 0 .1-.2.2-.2 0 0 0-.1-.1-.1v.1c-.1 0-.1-.1-.1-.1 0-.1-.1-.1 0-.2l.1.1s-.1 0-.1.1c0-.1.1 0 .1-.1H22c0-.1-.1-.1-.1-.2h-.1c.1.1-.1.1.1.1-.1 0-.1.1-.2 0 0 0 .1 0 0 .1h.1c.1.1 0 .1.1.1h-.1l.1.1c-.1 0-.1 0-.1-.1v.1c-.1 0-.1.1-.1.1s.1.1 0 .1v.1c-.1.1 0 .2-.1.2v.1h-.1c0 .1-.1.1-.1.1-.2-.1-.1.1-.2.2l.1.1v.1h.1c0 .1-.1.1-.1.1v-.1c-.2 0 0 .2-.1.2v.1h-.1.1v.1h-.1c-.1 0 0 .1.1.1v.1c-.1-.1 0 .1-.1.1.1.1 0 .1.1.2 0 0-.1.1 0 .1l-.1-.1.1.1c-.1 0-.1 0-.1-.1.1.1 0 .1.1.2l-.1-.3s.1.1 0 .1-.1.2-.3.3c.2.1-.1 0 0 .1-.1 0-.1 0-.1-.1 0 .1-.1.1 0 .2-.1 0-.1-.1-.1-.1v.1l-.1-.1c0 .1.1.1.2.2-.1 0-.1 0 0 .1-.1 0-.1 0-.1-.1 0 0-.1.1-.1.2v.1l-.1.1c.1.1 0 .1 0 .1-.1.1 0 .1-.1.1h.1c.1.1-.1.1-.1.1h.1c.1.1-.2 0-.2 0v-.1c-.1.1.1.1.1.1-.1 0-.1-.1-.1-.1-.1 0 .1.2 0 .2.1 0 .1 0 .1.1s-.2.1-.1.1h-.1c0 .1 0 .1.1.2-.2-.1 0 .2-.2.1v.1s0 .1.1.1l-.1-.1c-.1 0-.1 0 0 .2V64c0 .1-.1-.1-.1.1V64c0 .2-.1-.1-.1.1v.2c.1.1 0 .2.1.3l-.1-.2c0-.2-.1-.1-.1-.3-.1-.1-.1-.2-.1-.3l-.1.1v-.1l.1-.1c.1-.1-.1 0-.1 0 0-.1.1-.1.1-.1-.1 0-.1.1-.1 0s.1-.1.1-.1l-.1-.1-.1.1c-.1 0-.1-.1-.1.1.1-.1-.1-.2-.1-.3-.1 0-.1 0-.1-.1l-.1.1c.2-.1 0-.1.1-.2-.1.1-.1-.1-.2.1 0-.1.1-.1.1-.1-.1 0-.1-.2-.2-.2l.2.2.1-.1s-.1.1-.1 0h-.1c-.1-.2-.3-.3-.3-.5 0 .1-.1.1-.1 0l-.1.1v-.1c-.1.1-.1-.1-.2 0h.1c-.1.1-.2.2-.2.3.1-.1-.1.2.1.2 0 .1-.1 0-.1.1.1 0 .1 0 .1.1.1.1.1.2.1.3l.1-.1v.1c.1-.1-.1-.1.1-.1-.1.1.1.2 0 .3 0 .1.1-.1.1 0v.1h.1s0 .1-.1.1c0 .1.1.1.1.1v-.1c.1.1.2.2.3.2.1 0 0 .1.1.1h.1c-.1 0 0 .1-.1.1.1.1.1 0 .2 0l-.2-.3c.1 0 .1-.1.1 0-.1 0-.1.1-.1.1 0 .2.2.1.1.2.1-.1 0-.1.1-.1 0-.1.1-.1.1 0l-.1.2c0 .1.1 0 .1.1.1-.1.1.1.1 0l-.1-.1c.1 0 .2-.1.2.1h-.1c0 .1.1 0 .1.1-.1.1-.1-.1-.2-.1 0 .1.1.1.1.1.1-.1.1.1.2.1l-.1.1h.1l-.1.1c.1 0 .1.2.1.2-.1-.1 0-.1 0-.2.1 0 0 .3.2.4 0 0-.1-.1 0-.1 0 .1.1.1.1.2.1.1 0-.1.1-.1 0 .2.1 0 .1 0v.1c.1.2 0-.2.1 0l-.1.1h.1v.1c.1-.1.1 0 .1.1v-.2-.1c0 .1 0 .1.1.1 0 .1 0 .2-.1.1v.1c.1.1.1-.1.1-.1l.1-.3v0c0 .1.1.2 0 .3l.1-.2s.1 0 .1.1c.1-.1.1-.3.1-.3v-.1c.1-.1.1-.1.1-.2h.1c0-.1-.1 0-.1-.2 0-.1.1 0 .1 0-.6-.7-.6-.7-.6-.8.1 0 0 0 0 0zm.3-.5zm.3-.9c-.1 0 0 0 0 0zm.8-2.5zm0-.1s0 .1 0 0c0 .1 0 .1 0 0zm-2.4 3.8zM21.1 62.6zM22 61zM22 59.7zM22.5 59.5c-.1 0-.1.1 0 0zM22.2 59.7c0 .1 0 0 0 0-.1 0-.1 0 0 0zM22.2 59.7z"/><path d="M21.9 59.9s0-.1 0 0c-.1-.1 0 0 0 0zM22.4 59.8h-.2.1M22.2 59.9zM22.2 59.9zM22.4 59.8h-.1v.1M22 60.3c0 .1 0 .1 0 0zM22.2 60.3zM22.2 60.4s0 .1 0 0zM21.8 60.9h-.1M21.8 61.6c.1-.1-.1-.1 0 0-.1-.1-.1-.1 0 0zM21.7 61.5zM18.3 62.1h-.1M18.2 62.1c-.1 0 0 0 0 0zM21 63.4c-.1 0-.1 0 0 0zM20.8 63.7h-.1M20.7 64.1s0-.1.1-.1c-.1.1-.3.1-.1.1z"/></g><path fill="none" stroke="#353635" stroke-miterlimit="10" d="M9.4 73.9v-.6c.5-.4 1.1-.5 1.8-.4.1.6.7 1 1.4 1.1.7.1 1.3-.2 1.8-.4-.1-.4.6-.7.9-.4.3.3.4.8.4 1.2 1-.2 2.1-.5 3.1 0 .5.3 1 .7 1.6.6.6-.1.8-.8 1.3-1.1.5-.4 1.4-.2 1.7.4.5.4 1.3-.1 1.8-.5.4-.4.8-.8 1.2-1.1.2 1 1.4 1.6 2.4 1.3M66.9 63.5c.2-.2.4-.5.5-.7.5-.1 1.4 0 1.4.5.6.2 1.2-.4 1.9-.5.7-.1 1.2.4 1.8.7.9.4 2.1.1 2.7-.7.1-.1.2-.3.3-.3.2-.1.3 0 .4.1.6.2 1.1.5 1.4 1.1M56.7 57.8c-.1-.4-.1-.8.2-1.1 1.2.7 2.6 1 3.9.8 1.7-.2 3.3-1 5-1.4s3.7.1 4.7 1.8c4.5-.5 9-1.1 13.5-1.7 1.3-.2 2.8-.3 3.8.7"/><path fill="none" stroke="#353635" stroke-width="1.25" stroke-miterlimit="10" d="M57 69.9c.4-.8 1.1-1.5 1.9-1.3.3.1.6.5.9.7 1 .9 2.5.7 3.8.5.4-.1.9-.2 1.3-.5.3-.3.4-.7.7-1 .3-.3.8-.5 1-.2.4.9 1 1.6 1.6 2.3M70.7 70.8c1.8-1.6 4.3-2 6.4-1-.3-.8.7-1.4 1.4-1.8.6-.4 1.1-1 1.7-1 1.2.1 1.8 2.5 3 2.2.2-.1.4-.2.7-.3 1.4-.8 3 0 4.4.8"/><path fill="#FAA31E" d="M35 45.7H11.3V16.9c0-2 1.6-3.6 3.6-3.6h16.4c2 0 3.6 1.6 3.6 3.6l.1 28.8z"/><path fill="#F3F3F3" d="M31 41.2H15.3c-.8 0-1.4-.6-1.4-1.4V17.7c0-.8.6-1.4 1.4-1.4H31c.8 0 1.4.6 1.4 1.4v22.1c0 .8-.6 1.4-1.4 1.4z"/><path fill="#E2E2E2" d="M170.3 12.1h8.2v8.2h-8.2zM170.3 37.3h8.2v8.2h-8.2zM170.3 62.5h8.2v8.2h-8.2zM170.3 87.7h8.2v8.2h-8.2z"/><g fill="#333"><path d="M190.9 22.8V10.1h2.7c.4 0 .8.1 1.2.2s.6.3.8.5.4.4.5.7l.3.9c.1.3.1.6.1.9 0 .5-.1 1-.4 1.5-.2.5-.6.8-1 1 .3.1.6.3.8.5s.4.5.5.8l.3.9c.1.3.1.6.1.9 0 .4 0 .8-.1 1.2 0 .3-.1.7-.3 1-.1.3-.3.6-.5.8-.2.2-.5.4-.8.5s-.8.2-1.2.2h-3zm1.1-7.2h1.8c.3 0 .5-.1.7-.2s.3-.3.5-.5c.1-.2.2-.4.2-.7 0-.3.1-.5.1-.8 0-1.6-.6-2.4-1.8-2.4H192v4.6zm0 6.3h2c.3 0 .5-.1.7-.2s.3-.2.5-.4.2-.4.3-.6c.1-.3.1-.5.1-.8V19v-.8c0-.2-.1-.5-.1-.7l-.3-.6c-.1-.2-.3-.3-.5-.4-.2-.1-.4-.1-.7-.1h-2v5.5zM198.2 22.8V14h1.1v1.2c.1-.5.4-.8.7-1 .4-.2.7-.3 1.1-.4v1.1h-.2c-1.1 0-1.7.4-1.7 1.3v6.6h-1zM201.8 18.6v-.5-.9-.9c0-.4.1-.6.1-.8.1-.2.1-.4.3-.7.1-.3.3-.5.4-.6s.4-.3.6-.3c.3-.1.5-.1.9-.1s.6 0 .9.1c.3.1.5.2.6.3s.3.3.4.6c.1.3.2.5.3.7.1.2.1.5.1.8V20c0 .3 0 .5-.1.7 0 .2-.1.4-.1.6-.1.2-.1.4-.2.6-.1.1-.2.3-.3.4-.1.2-.3.3-.4.4-.2.1-.3.1-.5.2s-.4.1-.7.1c-.3 0-.5 0-.7-.1s-.4-.1-.5-.2c-.2-.1-.3-.2-.4-.4s-.2-.3-.3-.4c-.1-.1-.1-.3-.2-.6-.1-.2-.1-.4-.1-.6 0-.2 0-.4-.1-.7v-.7-.7zm1.1-.5v.5c0 1.4.1 2.3.2 2.9.2.5.5.8 1 .8s.8-.3 1-.8c.2-.5.2-1.5.2-2.9v-.5-1.2s0-.6-.1-.9c0-.3-.1-.5-.1-.7-.1-.2-.1-.3-.2-.5s-.2-.2-.3-.3c-.1-.1-.3-.1-.5-.1s-.3 0-.5.1-.2.2-.3.3c-.1.1-.2.3-.2.5s-.1.5-.1.7c0 .3-.1.6-.1.9v1.2zM208.1 22.8V10.1h1.1v8L212 14h1.2l-2.1 3.3 2.1 5.5H212l-1.7-4.8-1.1 1.3v3.5h-1.1zM214 18.7v-1.2c0-.6 0-1.1.1-1.6.1-.4.2-.8.3-1.1s.3-.5.5-.6.4-.3.7-.3c.2-.1.5-.1.8-.1.8 0 1.4.3 1.7.8.3.6.5 1.4.5 2.6v.9h-3.5v1.3c0 .6 0 1.1.1 1.4.1.4.1.6.3.8.1.2.3.3.4.4.1.1.3.1.6.1s.6-.2.8-.5.3-.9.3-1.7h1c0 .3-.1.6-.1.9 0 .3-.1.5-.2.8-.1.3-.2.5-.4.6s-.4.3-.6.4c-.2.1-.5.2-.8.2-.6 0-1.1-.1-1.5-.4-.3-.2-.6-.7-.8-1.3-.1-.4-.2-1.3-.2-2.4zm1.1-1.1h2.4V17v-.6-.6c0-.2 0-.4-.1-.5s-.1-.3-.2-.4l-.3-.3c-.1-.1-.3-.1-.4-.1-.3 0-.5 0-.7.1s-.3.2-.4.3-.2.4-.2.7-.1.6-.1.8v1.2zM220.2 22.8V14h1.1v.8c.2-.3.5-.6.8-.8s.7-.3 1-.3c.4 0 .8.2 1.1.5.3.4.5.9.5 1.5v6.9h-1.1v-6.9c0-.4-.1-.8-.3-1-.2-.2-.4-.3-.7-.3-.2 0-.5.1-.7.2-.3.2-.5.4-.7.7v7.3h-1zM229.1 19.7l1-.3c0 .4.1.7.2 1s.2.6.4.8c.2.3.4.5.7.6.3.1.6.2 1 .2.6 0 1-.2 1.3-.5.3-.3.5-.8.5-1.4 0-.5-.1-1-.4-1.4-.3-.5-.7-1-1.3-1.6l-2-2.1c-.4-.5-.8-.9-1-1.3-.2-.4-.3-.8-.3-1.2 0-.8.3-1.5.8-2s1.2-.7 2.1-.7c.8 0 1.5.2 2 .7.5.5.8 1.1 1 2v.1l-.9.3v-.1c-.1-.6-.3-1.1-.7-1.6-.4-.4-.8-.6-1.4-.6-.6 0-1 .1-1.3.4-.3.3-.5.7-.5 1.3 0 .3.1.7.3 1 .2.3.4.7.8 1l1.9 2c0 .1.2.2.4.4s.3.4.4.4c.1.1.2.2.3.4s.3.3.3.4c.1.1.1.2.3.4.1.2.2.3.2.5 0 .1.1.3.1.5s.1.4.1.5c0 .9-.3 1.6-.8 2.1-.6.5-1.3.7-2.2.7-.5 0-.9-.1-1.2-.3s-.7-.4-.9-.7c-.3-.3-.5-.6-.6-1-.4 0-.5-.4-.6-.9zM236.4 18.6v-.5-.9s0-.5.1-.9c0-.4.1-.6.1-.8.1-.2.1-.4.3-.7.1-.3.3-.5.4-.6.2-.1.4-.3.6-.3.3-.1.6-.1.9-.1.3 0 .6.1.9.2.3.1.5.3.6.4s.3.4.4.7c.1.3.2.5.2.8 0 .3.1.6.1.9h-1.1v-.1c0-.8-.1-1.4-.3-1.8s-.4-.5-.8-.5c-.2 0-.4 0-.5.1-.1.1-.3.1-.4.3-.1.1-.2.3-.2.5s-.1.4-.1.7c0 .3-.1.6-.1.9v1.7c0 1.4.1 2.3.3 2.8.2.5.5.8 1 .8.4 0 .7-.2.8-.5s.3-1 .3-1.8v-.1h1.1v.1c0 .4 0 .7-.1 1 0 .3-.1.6-.2.8-.1.3-.2.5-.4.7s-.4.3-.6.4c-.3.1-.6.2-.9.2-.3 0-.6 0-.8-.1l-.6-.3-.4-.4c-.1-.1-.2-.3-.3-.6-.1-.2-.1-.5-.2-.6 0-.2-.1-.4-.1-.8v-.8-.8zM242.5 22.8V14h1.1v1.2c.1-.5.4-.8.7-1 .4-.2.7-.3 1.1-.4v1.1h-.2c-1.1 0-1.7.4-1.7 1.3v6.6h-1zM246.1 18.7v-1.2c0-.6 0-1.1.1-1.6.1-.4.2-.8.3-1.1s.3-.5.5-.6.4-.3.7-.3c.2-.1.5-.1.8-.1.8 0 1.4.3 1.7.8.3.6.5 1.4.5 2.6v.9h-3.5v1.3c0 .6 0 1.1.1 1.4.1.4.1.6.3.8.1.2.3.3.4.4.1.1.3.1.6.1s.6-.2.8-.5c.2-.3.3-.9.3-1.7h1c0 .3-.1.6-.1.9 0 .3-.1.5-.2.8-.1.3-.2.5-.4.6s-.4.3-.6.4c-.2.1-.5.2-.8.2-.6 0-1.1-.1-1.5-.4-.3-.2-.6-.7-.8-1.3-.1-.4-.2-1.3-.2-2.4zm1.1-1.1h2.4V17v-.6-.6c0-.2 0-.4-.1-.5 0-.2-.1-.3-.2-.4l-.3-.3c-.1-.1-.3-.1-.4-.1-.3 0-.5 0-.7.1s-.3.2-.4.3-.2.4-.2.7c0 .3-.1.6-.1.8v1.2zM252.2 18.7v-1.2c0-.6 0-1.1.1-1.6.1-.4.2-.8.3-1.1s.3-.5.5-.6.4-.3.7-.3c.2-.1.5-.1.8-.1.8 0 1.4.3 1.7.8.3.6.5 1.4.5 2.6v.9h-3.5v1.3c0 .6 0 1.1.1 1.4.1.4.1.6.3.8.1.2.3.3.4.4.1.1.3.1.6.1s.6-.2.8-.5c.2-.3.3-.9.3-1.7h1c0 .3-.1.6-.1.9 0 .3-.1.5-.2.8-.1.3-.2.5-.4.6-.2.2-.4.3-.6.4-.2.1-.5.2-.8.2-.6 0-1.1-.1-1.5-.4-.3-.2-.6-.7-.8-1.3-.1-.4-.2-1.3-.2-2.4zm1.1-1.1h2.4V17v-.6-.6c0-.2 0-.4-.1-.5 0-.2-.1-.3-.2-.4l-.3-.3c-.1-.1-.3-.1-.4-.1-.3 0-.5 0-.7.1s-.3.2-.4.3-.2.4-.2.7c0 .3-.1.6-.1.8v1.2zM258.4 22.8V14h1.1v.8c.2-.3.5-.6.8-.8s.7-.3 1-.3c.4 0 .8.2 1.2.5.3.4.5.9.5 1.5v6.9h-1.1v-6.9c0-.4-.1-.8-.3-1-.2-.2-.4-.3-.7-.3-.2 0-.5.1-.7.2-.3.2-.5.4-.7.7v7.3h-1.1z"/></g><g fill="#333"><path d="M191.3 47.5V34.9h.9l4 10v-10h.9v12.6h-.8l-4-9.8v9.8h-1zM198.9 43.3v-.5-.9-.9c0-.4.1-.6.1-.8.1-.2.1-.4.3-.7.1-.3.3-.5.4-.6s.4-.3.6-.3c.3-.1.5-.1.9-.1s.6 0 .9.1c.3.1.5.2.6.3s.3.3.4.6c.1.3.2.5.3.7.1.2.1.5.1.8v3.7c0 .3 0 .5-.1.7 0 .2-.1.4-.1.6-.1.2-.1.4-.2.6-.1.1-.2.3-.3.4-.1.2-.3.3-.4.4-.2.1-.3.1-.5.2s-.4.1-.7.1c-.3 0-.5 0-.7-.1s-.4-.1-.5-.2c-.2-.1-.3-.2-.4-.4s-.2-.3-.3-.4c-.1-.1-.1-.3-.2-.6-.1-.2-.1-.4-.1-.6 0-.2 0-.4-.1-.7V44v-.7zm1.1-.4v.5c0 1.4.1 2.3.2 2.9.2.5.5.8 1 .8s.8-.3 1-.8c.2-.5.2-1.5.2-2.9v-.5-1.2s0-.6-.1-.9c0-.3-.1-.5-.1-.7-.1-.2-.1-.3-.2-.5s-.2-.2-.3-.3c-.1-.1-.3-.1-.5-.1s-.3 0-.5.1-.2.2-.3.3c-.1.1-.2.3-.2.5s-.1.4-.1.7c0 .3-.1.6-.1.9v1.2zM207.9 44.5l1-.3c0 .4.1.7.2 1s.2.6.4.8c.2.3.4.5.7.6.3.1.6.2 1 .2.6 0 1-.2 1.3-.5.3-.3.5-.8.5-1.4 0-.5-.1-1-.4-1.4-.3-.5-.7-1-1.3-1.6l-2-2.1c-.4-.5-.8-.9-1-1.3-.2-.4-.3-.8-.3-1.2 0-.8.3-1.5.8-2s1.2-.7 2.1-.7c.8 0 1.5.2 2 .7.5.5.8 1.1 1 2v.1l-.9.3v-.1c-.1-.6-.3-1.1-.7-1.6-.4-.4-.8-.6-1.4-.6-.6 0-1 .1-1.3.4-.3.3-.5.7-.5 1.3 0 .3.1.7.3 1 .2.3.4.7.8 1l1.9 2c0 .1.2.2.4.4s.3.4.4.4c.1.1.2.2.3.4s.3.3.3.4c.1.1.1.2.3.4s.2.3.2.5.1.3.1.5.1.4.1.5c0 .9-.3 1.6-.8 2.1-.6.5-1.3.7-2.2.7-.5 0-.9-.1-1.2-.3s-.7-.4-.9-.7-.5-.6-.6-1c-.5-.1-.6-.5-.6-.9zM215.1 43.5v-1.2c0-.6 0-1.1.1-1.6s.2-.8.3-1.1.3-.5.5-.6.4-.3.7-.3c.2-.1.5-.1.8-.1.8 0 1.4.3 1.7.8.3.6.5 1.4.5 2.6v.9h-3.5v1.3c0 .6 0 1.1.1 1.4.1.4.1.6.3.8.1.2.3.3.4.4.1.1.3.1.6.1s.6-.2.8-.5.3-.9.3-1.7h1c0 .3-.1.6-.1.9 0 .3-.1.5-.2.8-.1.3-.2.5-.4.6s-.4.3-.6.4c-.2.1-.5.2-.8.2-.6 0-1.1-.1-1.5-.4-.3-.2-.6-.7-.8-1.3-.1-.5-.2-1.3-.2-2.4zm1.1-1.1h2.4v-.6-.6-.6c0-.2 0-.4-.1-.5s-.1-.3-.2-.4l-.3-.3c-.1-.1-.3-.1-.4-.1-.3 0-.5 0-.7.1s-.3.2-.4.3-.2.4-.2.7-.1.6-.1.8v1.2zM221.3 47.5v-8.8h1.1v1.2c.1-.5.4-.8.7-1 .4-.2.7-.3 1.1-.4v1.1h-.2c-1.1 0-1.7.4-1.7 1.3v6.6h-1zM226.5 47.5l-2-8.8h1.1l1.6 7.8 1.4-7.8h1.1l-1.8 8.8h-1.4zM230.8 36.7v-1.3h1.1v1.3h-1.1zm0 10.8v-8.8h1.1v8.8h-1.1zM233.6 43.3v-.5-.9s0-.5.1-.9c0-.4.1-.6.1-.8.1-.2.1-.4.3-.7.1-.3.3-.5.4-.6.2-.1.4-.3.6-.3.3-.1.6-.1.9-.1.3 0 .6.1.9.2.3.1.5.3.6.4s.3.4.4.7c.1.3.2.5.2.8 0 .3.1.6.1.9h-1.1v-.1c0-.8-.1-1.4-.3-1.8s-.4-.5-.8-.5c-.2 0-.4 0-.5.1-.1.1-.3.1-.4.3-.1.1-.2.3-.2.5s-.1.4-.1.7-.1.6-.1.9v1.7c0 1.4.1 2.3.3 2.8.2.5.5.8 1 .8.4 0 .7-.2.8-.5s.3-1 .3-1.8v-.1h1.1v.1c0 .4 0 .7-.1 1 0 .3-.1.6-.2.8-.1.3-.2.5-.4.7s-.4.3-.6.4c-.3.1-.6.2-.9.2-.3 0-.6 0-.8-.1l-.6-.3-.4-.4c-.1-.1-.2-.3-.3-.6-.1-.2-.1-.5-.2-.6 0-.2-.1-.4-.1-.8v-.8-.8zM239.6 43.5v-1.2c0-.6 0-1.1.1-1.6s.2-.8.3-1.1.3-.5.5-.6.4-.3.7-.3c.2-.1.5-.1.8-.1.8 0 1.4.3 1.7.8.3.6.5 1.4.5 2.6v.9h-3.5v1.3c0 .6 0 1.1.1 1.4.1.4.1.6.3.8.1.2.3.3.4.4.1.1.3.1.6.1s.6-.2.8-.5c.2-.3.3-.9.3-1.7h1c0 .3-.1.6-.1.9 0 .3-.1.5-.2.8-.1.3-.2.5-.4.6s-.4.3-.6.4c-.2.1-.5.2-.8.2-.6 0-1.1-.1-1.5-.4-.3-.2-.6-.7-.8-1.3-.1-.5-.2-1.3-.2-2.4zm1.1-1.1h2.4v-.6-.6-.6c0-.2 0-.4-.1-.5 0-.2-.1-.3-.2-.4l-.3-.3c-.1-.1-.3-.1-.4-.1-.3 0-.5 0-.7.1s-.3.2-.4.3-.2.4-.2.7c0 .3-.1.6-.1.8v1.2z"/></g><g fill="#333"><path d="M192.5 72.5l-2.1-12.6h1l1.7 10.8 1.6-10.8h1.4l1.5 10.8 1.7-10.8h1l-2.1 12.6H197l-1.6-11.2-1.7 11.2h-1.2zM201.2 68.3v-.5-.9-.9c0-.4.1-.6.1-.8.1-.2.1-.4.3-.7.1-.3.3-.5.4-.6.2-.1.4-.3.6-.3.3-.1.5-.1.9-.1s.6 0 .9.1c.2.1.5.2.6.3.2.1.3.3.4.6.1.3.2.5.3.7.1.2.1.5.1.8v3.7c0 .3 0 .5-.1.7 0 .2-.1.4-.1.6-.1.2-.1.4-.2.6s-.2.3-.3.4l-.4.4c-.2.1-.3.1-.5.2s-.4.1-.7.1-.5 0-.7-.1-.4-.1-.5-.2c-.2-.1-.3-.2-.4-.4-.1-.2-.2-.3-.3-.4s-.1-.3-.2-.6c-.1-.2-.1-.4-.1-.6 0-.2 0-.4-.1-.7V69v-.7zm1.1-.5v.5c0 1.4.1 2.3.2 2.9.2.5.5.8 1 .8s.8-.3 1-.8c.2-.5.2-1.5.2-2.9v-.5-1.2s0-.6-.1-.9c0-.3-.1-.5-.1-.7-.1-.2-.1-.3-.2-.5l-.3-.3s-.3-.1-.5-.1-.3 0-.5.1l-.3.3s-.2.3-.2.5c-.1.2-.1.4-.1.7 0 .3-.1.6-.1.9v1.2zM207.5 72.5v-8.8h1.1v.8c.2-.3.5-.6.8-.8s.7-.3 1-.3c.4 0 .8.2 1.2.5.3.4.5.9.5 1.5v6.9H211v-6.9c0-.4-.1-.8-.3-1-.2-.2-.4-.3-.7-.3-.2 0-.5.1-.7.2-.3.2-.5.4-.7.7v7.3h-1.1zM214.1 63l-.2-.4c.2-.1.3-.1.4-.3.1-.1.2-.3.2-.5s.1-.3.1-.4v-.3h-.9v-1.3h1.4c0 1.2-.1 2-.2 2.5-.1.4-.4.7-.8.7zM217.1 70.4v-6.1h-1.2v-.6h1.2v-3.1h1.1v3.1h1.4v.6h-1.4v7c0 .1.1.2.1.3l.2.2c.1 0 .2.1.4.1s.5 0 .6-.1v.8c-.3.1-.6.1-1 .1-.3 0-.5 0-.7-.1-.2-.1-.3-.2-.5-.3-.1-.1-.2-.3-.3-.5s-.1-.4-.1-.6c.2-.3.2-.5.2-.8zM223.7 68.8v-5.3c0-.5 0-.9.1-1.2.1-.4.2-.7.3-1.1s.3-.6.6-.8c.2-.2.5-.4.9-.5.4-.1.8-.2 1.3-.2 2 0 3 1.3 3 3.9v.4h-1.1v-.8c0-.4 0-.8-.1-1.1-.1-.3-.2-.6-.3-.8-.1-.3-.3-.4-.6-.6-.3-.1-.6-.2-.9-.2-.3 0-.6 0-.8.1-.2.1-.4.2-.6.4s-.3.4-.4.6c-.1.2-.2.5-.2.7 0 .3-.1.5-.1.9V69c0 .4 0 .8.1 1.1.1.3.2.6.3.8.1.3.4.5.6.6s.6.2 1 .2.7-.1.9-.2c.3-.1.4-.3.6-.6.1-.3.2-.5.3-.9.1-.3.1-.7.1-1.1V68h1.1v.6c0 .4 0 .9-.1 1.2-.1.4-.2.7-.3 1.1s-.3.6-.5.8c-.2.2-.5.4-.9.5-.3.1-.8.2-1.2.2-.5 0-.9-.1-1.3-.2s-.7-.3-.9-.5c-.2-.2-.4-.5-.6-.8s-.2-.7-.3-1.1 0-.5 0-1zM231.4 72.5V59.8h1.1v4.7c.2-.3.5-.6.8-.8.3-.2.7-.3 1-.3.5 0 .8.2 1.2.5.3.4.5.9.5 1.5v6.9h-1.1v-6.9c0-.9-.3-1.3-.9-1.3-.2 0-.5.1-.8.3-.3.2-.5.4-.7.6v7.3h-1.1zM241.1 72.5l-.1-1.1c-.2.4-.5.7-.9.9-.3.2-.7.3-1 .3-.5 0-.9-.2-1.2-.5-.4-.4-.5-.8-.5-1.4v-.4-.4c0-.2.1-.3.1-.4 0-.1.1-.2.2-.4.1-.1.2-.3.3-.4.1-.1.3-.2.4-.4.2-.1.4-.3.6-.4.2-.1.5-.3.8-.4.3-.2.7-.3 1-.5 0-.5 0-.9-.1-1.3 0-.4-.1-.6-.2-.8s-.1-.3-.2-.5c-.1-.1-.2-.2-.3-.2h-.3c-.1 0-.3 0-.4.1-.1 0-.2.1-.3.2-.1.1-.2.3-.3.5-.1.2-.1.5-.1.9v.1h-1.1c.1-.8.3-1.4.7-1.8.4-.4.9-.7 1.6-.7.4 0 .7.1.9.2s.5.3.7.4c.2.2.3.4.4.6.1.3.2.5.2.7 0 .2.1.5.1.8v5.2c0 .3 0 .6.1.8v.3h-1.1zm-.2-1.8v-3.1c-.4.2-.6.5-.8.6-.2.2-.4.3-.7.5-.2.2-.4.4-.5.6l-.3.6c-.1.2-.1.4-.1.7 0 .4.1.7.3.9.2.2.4.3.6.3.3 0 .6-.1.8-.3.3-.2.5-.5.7-.8zM243.6 72.5v-8.8h1.1v1.2c.1-.5.4-.8.7-1 .4-.2.7-.3 1.1-.4v1.1h-.2c-1.1 0-1.7.4-1.7 1.3v6.6h-1zM248.1 70.9c0 .1 0 .2.2.3.2.1.6.1 1.2.3.2 0 .4.1.5.1.4.1.7.2 1 .3.3.1.6.2.8.4.3.1.4.3.6.5.1.2.2.4.2.7 0 .2 0 .5-.1.7-.1.2-.2.4-.3.5-.1.1-.3.2-.5.3-.2.1-.4.2-.5.2-.2.1-.4.1-.6.1-.2 0-.4.1-.5.1h-.4c-2 0-2.9-.4-2.9-1.2 0-.5.2-.9.5-1.3s.7-.7 1.2-.9c-.1 0-.2 0-.4-.1-.2 0-.3-.1-.6-.2s-.3-.2-.3-.3v-.2c0-.1 0-.2.1-.2 0-.1.1-.2.1-.3 0-.1.1-.2.1-.3.1-.1.1-.2.2-.2 0-.1.1-.2.2-.2.1-.1.1-.2.1-.2s.1-.1.1-.2l.1-.1c-.3-.3-.6-.7-.8-1.2-.2-.5-.3-1-.3-1.5 0-.3 0-.6.1-.9s.1-.6.3-.8.3-.5.5-.7c.2-.2.4-.4.7-.5.3-.1.6-.2 1-.2.5 0 .9.1 1.2.3.3.2.6.6.9 1 .1-.2.2-.3.2-.4.1-.1.2-.2.3-.4.1-.1.2-.3.4-.4.1-.1.3-.2.4-.2v1.1c-.2 0-.4.1-.6.2-.2.1-.4.3-.5.5.2.5.3 1 .3 1.3 0 .4 0 .7-.1 1l-.3.9s-.3.5-.5.7c-.2.2-.4.4-.7.5-.3.1-.6.2-1 .2s-.8-.1-1.1-.2c-.2.4-.4.8-.5 1.1zm2.3 1.6l-1.6-.3c-.2.2-.5.5-.7.8s-.4.7-.4.9c0 .1 0 .2.1.3l.2.2c.1 0 .2.1.3.1.1 0 .2.1.4.1h.9c1.3 0 1.9-.3 1.9-.9 0-.3-.1-.6-.3-.8-.1-.2-.4-.4-.8-.4zm-1.3-3.6c.2.1.4.2.6.2s.5-.1.6-.2c.2-.1.3-.3.4-.4.1-.2.2-.4.2-.6.1-.2.1-.4.1-.6v-.5-.5c0-.2-.1-.4-.1-.6-.1-.2-.1-.4-.2-.6s-.2-.3-.4-.5c-.2-.1-.4-.2-.6-.2-.2 0-.4 0-.6.1-.2.1-.3.2-.4.3s-.2.3-.3.5c-.1.2-.1.3-.2.5s-.1.4-.1.5v.9s.1.4.1.6c.1.2.1.4.2.6s.5.4.7.5zM253.7 68.4v-1.2c0-.6 0-1.1.1-1.6s.2-.8.3-1.1.3-.5.5-.6c.2-.2.4-.3.7-.3.2-.1.5-.1.8-.1.8 0 1.4.3 1.7.8.3.6.5 1.4.5 2.6v.9h-3.5v1.3c0 .6 0 1.1.1 1.4.1.4.1.6.3.8.1.2.3.3.4.4.1.1.3.1.6.1s.6-.2.8-.5c.2-.3.3-.9.3-1.7h1c0 .3-.1.6-.1.9 0 .3-.1.5-.2.8-.1.3-.2.5-.4.6s-.4.3-.6.4c-.2.1-.5.2-.8.2-.6 0-1.1-.1-1.5-.4-.3-.2-.6-.7-.8-1.3-.2-.4-.3-1.3-.2-2.4zm1.1-1.1h2.4v-.6-.6-.6c0-.2 0-.4-.1-.5 0-.2-.1-.3-.2-.4l-.3-.3c-.1-.1-.3-.1-.4-.1-.3 0-.5 0-.7.1s-.3.2-.4.3-.2.4-.2.7c0 .3-.1.6-.1.8v1.2z"/></g><g fill="#333"><path d="M191.3 97.7V85h2.7c.4 0 .8.1 1.2.2s.6.3.8.5.4.4.5.7l.3.9c.1.3.1.6.1.9 0 .5-.1 1-.4 1.5-.2.5-.6.8-1 1 .3.1.6.3.8.5s.4.5.5.8l.3.9c.1.3.1.6.1.9 0 .4 0 .8-.1 1.2 0 .3-.1.7-.3 1-.1.3-.3.6-.5.8-.2.2-.5.4-.8.5s-.8.2-1.2.2h-3zm1.1-7.2h1.8c.3 0 .5-.1.7-.2s.3-.3.5-.5c.1-.2.2-.4.2-.7 0-.3.1-.5.1-.8 0-1.6-.6-2.4-1.8-2.4h-1.5v4.6zm0 6.3h2c.3 0 .5-.1.7-.2s.3-.2.5-.4.2-.4.3-.6c.1-.3.1-.5.1-.8v-.9-.8c0-.2-.1-.5-.1-.7l-.3-.6c-.1-.2-.3-.3-.5-.4-.2-.1-.4-.1-.7-.1h-2v5.5zM198.5 97.7v-8.8h1.1v1.2c.1-.5.4-.8.7-1 .4-.2.7-.3 1.1-.4v1.1h-.2c-1.1 0-1.7.4-1.7 1.3v6.6h-1zM202.2 93.5V93v-.9-.9c0-.4.1-.6.1-.8.1-.2.1-.4.3-.7.1-.3.3-.5.4-.6s.4-.3.6-.3c.3-.1.5-.1.9-.1s.6 0 .9.1c.3.1.5.2.6.3s.3.3.4.6c.1.3.2.5.3.7.1.2.1.5.1.8v3.7c0 .3 0 .5-.1.7 0 .2-.1.4-.1.6-.1.2-.1.4-.2.6-.1.1-.2.3-.3.4-.1.2-.3.3-.4.4-.2.1-.3.1-.5.2s-.4.1-.7.1c-.3 0-.5 0-.7-.1s-.4-.1-.5-.2c-.2-.1-.3-.2-.4-.4s-.2-.3-.3-.4c-.1-.1-.1-.3-.2-.6-.1-.2-.1-.4-.1-.6 0-.2 0-.4-.1-.7v-.7-.7zm1.1-.5v.5c0 1.4.1 2.3.2 2.9.2.5.5.8 1 .8s.8-.3 1-.8c.2-.5.2-1.5.2-2.9V93v-1.2s0-.6-.1-.9c0-.3-.1-.5-.1-.7-.1-.2-.1-.3-.2-.5s-.2-.2-.3-.3c-.1-.1-.3-.1-.5-.1s-.3 0-.5.1-.2.2-.3.3c-.1.1-.2.3-.2.5s-.1.4-.1.7c0 .3-.1.6-.1.9V93zM208.5 97.7V85h1.1v8l2.7-4.2h1.2l-2.1 3.3 2.1 5.5h-1.2l-1.7-4.8-1.1 1.3v3.5h-1zM214.4 93.6v-1.2c0-.6 0-1.1.1-1.6s.2-.8.3-1.1.3-.5.5-.6.4-.3.7-.3c.2-.1.5-.1.8-.1.8 0 1.4.3 1.7.8.3.6.5 1.4.5 2.6v.9h-3.5v1.3c0 .6 0 1.1.1 1.4.1.4.1.6.3.8.1.2.3.3.4.4.1.1.3.1.6.1s.6-.2.8-.5.3-.9.3-1.7h1c0 .3-.1.6-.1.9 0 .3-.1.5-.2.8-.1.3-.2.5-.4.6s-.4.3-.6.4c-.2.1-.5.2-.8.2-.6 0-1.1-.1-1.5-.4-.3-.2-.6-.7-.8-1.3-.1-.4-.2-1.3-.2-2.4zm1.1-1.1h2.4v-.6-.6-.6c0-.2 0-.4-.1-.5s-.1-.3-.2-.4l-.3-.3c-.1-.1-.3-.1-.4-.1-.3 0-.5 0-.7.1s-.3.2-.4.3-.2.4-.2.7-.1.6-.1.8v1.2zM220.6 97.7v-8.8h1.1v.8c.2-.3.5-.6.8-.8s.7-.3 1-.3c.4 0 .8.2 1.1.5.3.4.5.9.5 1.5v6.9H224v-6.9c0-.4-.1-.8-.3-1-.2-.2-.4-.3-.7-.3-.2 0-.5.1-.7.2-.3.2-.5.4-.7.7v7.3h-1zM230.1 97.7V85h2.7c.4 0 .8.1 1.2.2s.6.3.8.5c.2.2.4.4.5.7l.3.9s.1.6.1.9c0 .5-.1 1-.4 1.5-.2.5-.6.8-1 1 .3.1.6.3.8.5s.4.5.5.8l.3.9c.1.3.1.6.1.9 0 .4 0 .8-.1 1.2 0 .3-.1.7-.3 1-.1.3-.3.6-.5.8-.2.2-.5.4-.8.5s-.8.2-1.2.2h-3zm1.1-7.2h1.8c.3 0 .5-.1.7-.2s.3-.3.5-.5c.1-.2.2-.4.2-.7 0-.3.1-.5.1-.8 0-1.6-.6-2.4-1.8-2.4h-1.5v4.6zm0 6.3h2c.3 0 .5-.1.7-.2.2-.1.3-.2.5-.4s.2-.4.3-.6c.1-.3.1-.5.1-.8v-.9-.8c0-.2-.1-.5-.1-.7l-.3-.6s-.3-.3-.5-.4c-.2-.1-.4-.1-.7-.1h-2v5.5zM237.5 97.7V85h1.1v12.6h-1.1zM240.5 95.8v-6.9h1.1v6.9c0 .4.1.8.3 1 .2.2.4.3.7.3.2 0 .5-.1.7-.2.3-.2.5-.4.7-.7v-7.3h1.1v8.8H244v-.8c-.2.3-.5.6-.8.8s-.7.3-1 .3c-.4 0-.8-.2-1.2-.5-.3-.5-.5-1.1-.5-1.7zM247 93.6v-1.2c0-.6 0-1.1.1-1.6s.2-.8.3-1.1.3-.5.5-.6.4-.3.7-.3c.2-.1.5-.1.8-.1.8 0 1.4.3 1.7.8.3.6.5 1.4.5 2.6v.9h-3.5v1.3c0 .6 0 1.1.1 1.4.1.4.1.6.3.8.1.2.3.3.4.4.1.1.3.1.6.1s.6-.2.8-.5c.2-.3.3-.9.3-1.7h1c0 .3-.1.6-.1.9 0 .3-.1.5-.2.8-.1.3-.2.5-.4.6s-.4.3-.6.4c-.2.1-.5.2-.8.2-.6 0-1.1-.1-1.5-.4-.3-.2-.6-.7-.8-1.3-.1-.4-.2-1.3-.2-2.4zm1.1-1.1h2.4v-.6-.6-.6c0-.2 0-.4-.1-.5 0-.2-.1-.3-.2-.4l-.3-.3c-.1-.1-.3-.1-.4-.1-.3 0-.5 0-.7.1s-.3.2-.4.3-.2.4-.2.7c0 .3-.1.6-.1.8v1.2zM253.5 95.6v-6.1h-1.2v-.6h1.2v-3.1h1.1v3.1h1.4v.6h-1.4v7c0 .1.1.2.1.3l.2.2c.1 0 .2.1.4.1s.5 0 .6-.1v.8c-.3.1-.6.1-1 .1-.3 0-.5 0-.7-.1-.2-.1-.3-.2-.5-.3-.1-.1-.2-.3-.2-.5-.1-.2-.1-.4-.1-.6.1-.3.1-.5.1-.8zM257 93.5V93v-.9-.9c0-.4.1-.6.1-.8.1-.2.1-.4.3-.7.1-.3.3-.5.4-.6s.4-.3.6-.3c.3-.1.5-.1.9-.1.3 0 .6 0 .9.1.3.1.5.2.6.3.2.1.3.3.4.6.1.3.2.5.3.7.1.2.1.5.1.8v3.7c0 .3 0 .5-.1.7 0 .2-.1.4-.1.6-.1.2-.1.4-.2.6-.1.1-.2.3-.3.4-.1.2-.3.3-.4.4-.2.1-.3.1-.5.2s-.4.1-.7.1c-.3 0-.5 0-.7-.1-.2-.1-.4-.1-.5-.2-.2-.1-.3-.2-.4-.4-.1-.2-.2-.3-.3-.4-.1-.1-.1-.3-.2-.6-.1-.2-.1-.4-.1-.6s0-.4-.1-.7v-.7-.7zm1.1-.5v.5c0 1.4.1 2.3.2 2.9.2.5.5.8 1 .8s.8-.3 1-.8c.2-.5.2-1.5.2-2.9V93v-1.2s0-.6-.1-.9c0-.3-.1-.5-.1-.7-.1-.2-.1-.3-.2-.5s-.2-.2-.3-.3-.3-.1-.5-.1-.3 0-.5.1-.2.2-.3.3c-.1.1-.2.3-.2.5-.1.2-.1.4-.1.7s-.1.6-.1.9V93zM263.2 93.5V93v-.9-.9c0-.4.1-.6.1-.8.1-.2.1-.4.3-.7.1-.3.3-.5.4-.6s.4-.3.6-.3c.3-.1.5-.1.9-.1.3 0 .6 0 .9.1.3.1.5.2.6.3.2.1.3.3.4.6.1.3.2.5.3.7.1.2.1.5.1.8v3.7c0 .3 0 .5-.1.7 0 .2-.1.4-.1.6-.1.2-.1.4-.2.6-.1.1-.2.3-.3.4-.1.2-.3.3-.4.4-.2.1-.3.1-.5.2s-.4.1-.7.1c-.3 0-.5 0-.7-.1-.2-.1-.4-.1-.5-.2-.2-.1-.3-.2-.4-.4-.1-.2-.2-.3-.3-.4-.1-.1-.1-.3-.2-.6-.1-.2-.1-.4-.1-.6s0-.4-.1-.7v-.7-.7zm1.1-.5v.5c0 1.4.1 2.3.2 2.9.2.5.5.8 1 .8s.8-.3 1-.8c.2-.5.2-1.5.2-2.9V93v-1.2s0-.6-.1-.9c0-.3-.1-.5-.1-.7-.1-.2-.1-.3-.2-.5s-.2-.2-.3-.3-.3-.1-.5-.1-.3 0-.5.1-.2.2-.3.3c-.1.1-.2.3-.2.5-.1.2-.1.4-.1.7s-.1.6-.1.9V93zM269.9 95.6v-6.1h-1.2v-.6h1.2v-3.1h1.1v3.1h1.4v.6H271v7c0 .1.1.2.1.3l.2.2c.1 0 .2.1.4.1s.5 0 .6-.1v.8c-.3.1-.6.1-1 .1-.3 0-.5 0-.7-.1-.2-.1-.3-.2-.5-.3-.1-.1-.2-.3-.2-.5-.1-.2-.1-.4-.1-.6.1-.3.1-.5.1-.8zM273.6 97.7V85h1.1v4.7c.2-.3.5-.6.8-.8.3-.2.7-.3 1-.3.5 0 .8.2 1.2.5.3.4.5.9.5 1.5v6.9h-1.1v-6.9c0-.9-.3-1.3-.9-1.3-.2 0-.5.1-.8.3-.3.2-.5.4-.7.6v7.3h-1.1z"/></g><path fill="none" stroke="#246936" stroke-miterlimit="10" d="M171.9 16.2l2.5 2.7 4.6-8.4M171.9 66.6l2.5 2.8L179 61"/></svg>