<svg xmlns="http://www.w3.org/2000/svg" xmlns:xlink="http://www.w3.org/1999/xlink" viewBox="0 0 338.4 124.7"><g fill="#3D3D3D"><path d="M118.2 22.8c-.4 0-.8-.2-1.1-.4-.3-.3-.4-.7-.4-1.1 0-.4.2-.8.4-1.1.6-.5 1.6-.5 2.1 0 .3.3.4.7.4 1.1 0 .4-.2.8-.4 1.1-.2.3-.6.4-1 .4zM146 21.3c0-.8.7-1.5 1.5-1.5s1.5.7 1.5 1.5-.7 1.5-1.5 1.5-1.5-.6-1.5-1.5zm-4.9 0c0-.8.7-1.5 1.5-1.5s1.5.7 1.5 1.5-.7 1.5-1.5 1.5-1.5-.6-1.5-1.5zm-4.8 0c0-.8.7-1.5 1.5-1.5s1.5.7 1.5 1.5-.7 1.5-1.5 1.5c-.9 0-1.5-.6-1.5-1.5zm-4.9 0c0-.8.7-1.5 1.5-1.5s1.5.7 1.5 1.5-.7 1.5-1.5 1.5c-.9 0-1.5-.6-1.5-1.5zm-4.9 0c0-.8.7-1.5 1.5-1.5s1.5.7 1.5 1.5-.7 1.5-1.5 1.5-1.5-.6-1.5-1.5zm-4.9 0c0-.8.7-1.5 1.5-1.5s1.5.7 1.5 1.5-.7 1.5-1.5 1.5-1.5-.6-1.5-1.5zM152.4 22.8c-.4 0-.8-.2-1.1-.4-.3-.3-.4-.7-.4-1.1 0-.4.2-.8.4-1.1.6-.5 1.6-.5 2.1 0 .3.3.4.7.4 1.1 0 .4-.2.8-.4 1.1-.2.3-.6.4-1 .4z"/><g><path d="M152.4 22.7c-.4 0-.8-.2-1.1-.4-.3-.3-.4-.7-.4-1.1 0-.4.2-.8.4-1.1.5-.6 1.6-.6 2.1 0 .3.3.4.7.4 1.1 0 .4-.2.8-.4 1.1-.2.2-.6.4-1 .4zM147.7 18.6c-.6-.6-.6-1.5 0-2.1.6-.6 1.5-.6 2.1 0 .6.6.6 1.5 0 2.1-.3.3-.7.4-1.1.4-.4 0-.7-.1-1-.4zM145 15.4c-.4 0-.8-.2-1.1-.4s-.4-.7-.4-1.1c0-.4.2-.8.4-1.1.6-.6 1.6-.6 2.1 0 .3.3.4.7.4 1.1 0 .4-.2.8-.4 1.1-.2.2-.6.4-1 .4z"/></g><g><path d="M152.1 23c-.4 0-.8-.2-1.1-.4-.3-.3-.4-.7-.4-1.1 0-.4.2-.8.4-1.1.5-.6 1.5-.6 2.1 0 .3.3.4.7.4 1.1 0 .4-.2.8-.4 1.1-.2.3-.6.4-1 .4zM147.4 26.3c-.6-.6-.6-1.5 0-2.1.6-.6 1.5-.6 2.1 0 .6.6.6 1.5 0 2.1-.3.3-.7.4-1.1.4-.3 0-.7-.2-1-.4zM144.8 30.4c-.4 0-.8-.2-1.1-.4s-.4-.7-.4-1.1c0-.4.2-.8.4-1.1.6-.6 1.6-.6 2.1 0 .3.3.4.7.4 1.1 0 .4-.2.8-.4 1.1-.2.2-.6.4-1 .4z"/></g></g><g fill="#3D3D3D"><path d="M229.6 22.8c-.4 0-.8-.2-1.1-.4-.3-.3-.4-.7-.4-1.1 0-.4.2-.8.4-1.1.6-.6 1.6-.6 2.1 0 .3.3.4.7.4 1.1 0 .4-.2.8-.4 1.1-.3.3-.6.4-1 .4zM247.5 21.3c0-.8.7-1.5 1.5-1.5s1.5.7 1.5 1.5-.7 1.5-1.5 1.5c-.9 0-1.5-.6-1.5-1.5zm-4.9 0c0-.8.7-1.5 1.5-1.5s1.5.7 1.5 1.5-.7 1.5-1.5 1.5-1.5-.6-1.5-1.5zm-4.8 0c0-.8.7-1.5 1.5-1.5s1.5.7 1.5 1.5-.7 1.5-1.5 1.5c-.9 0-1.5-.6-1.5-1.5zm-4.9 0c0-.8.7-1.5 1.5-1.5s1.5.7 1.5 1.5-.7 1.5-1.5 1.5-1.5-.6-1.5-1.5zM253.8 22.8c-.4 0-.8-.2-1.1-.4-.3-.3-.4-.7-.4-1.1 0-.4.2-.8.4-1.1.6-.6 1.6-.6 2.1 0 .3.3.4.7.4 1.1 0 .4-.2.8-.4 1.1-.2.3-.6.4-1 .4z"/><g><path d="M253.8 22.7c-.4 0-.8-.2-1.1-.4-.3-.3-.4-.7-.4-1.1 0-.4.2-.8.4-1.1.6-.6 1.6-.6 2.1 0 .3.3.4.7.4 1.1 0 .4-.2.8-.4 1.1-.2.2-.6.4-1 .4zM249.1 18.6c-.6-.6-.6-1.5 0-2.1.6-.6 1.5-.6 2.1 0 .6.6.6 1.5 0 2.1-.3.3-.7.4-1.1.4-.3 0-.7-.1-1-.4zM246.5 15.3c-.4 0-.8-.2-1.1-.4-.3-.3-.4-.7-.4-1.1 0-.4.2-.8.4-1.1.6-.6 1.6-.6 2.1 0 .3.3.4.7.4 1.1 0 .4-.2.8-.4 1.1-.3.3-.6.4-1 .4z"/></g><g><path d="M253.5 23c-.4 0-.8-.2-1.1-.4-.3-.3-.4-.7-.4-1.1 0-.4.2-.8.4-1.1.6-.6 1.6-.6 2.1 0 .3.3.4.7.4 1.1 0 .4-.2.8-.4 1.1-.2.2-.6.4-1 .4zM248.8 26.2c-.6-.6-.6-1.5 0-2.1.6-.6 1.5-.6 2.1 0 .6.6.6 1.5 0 2.1-.3.3-.7.4-1.1.4-.3.1-.7-.1-1-.4zM246.2 30.3c-.4 0-.8-.2-1.1-.4-.3-.3-.4-.7-.4-1.1 0-.4.2-.8.4-1.1.6-.5 1.6-.6 2.1 0 .3.3.4.7.4 1.1 0 .4-.2.8-.4 1.1-.2.3-.6.4-1 .4z"/></g></g><g fill="#51449B"><path d="M272.4 31.9v-7l-4.9-15.6h2c.2.6.4 1.5.8 2.7s.7 2.3 1 3.5c.3 1.2.7 2.3 1 3.4.3 1.1.6 2 .8 2.7l.3 1c.6-2.1 1.2-4.3 1.9-6.8s1.3-4.7 1.8-6.5h1.9l-4.7 15.6v7h-1.9zM280.3 24.4v-.8V22c0-.4 0-.9.1-1.5 0-.6.1-1.1.2-1.5s.2-.8.4-1.2c.2-.5.4-.8.7-1.1.3-.2.7-.5 1.1-.6s.9-.3 1.5-.3 1.1.1 1.5.3.8.4 1.1.6c.3.2.5.6.7 1.1s.3.9.4 1.2c.1.4.2.9.2 1.5s.1 1.2.1 1.5v4.9c0 .5-.1.9-.1 1.2 0 .3-.1.7-.2 1.1-.1.4-.2.8-.3 1-.1.2-.3.5-.5.8-.2.3-.4.5-.7.6-.3.1-.6.3-1 .4-.4.1-.8.2-1.2.2s-.9-.1-1.2-.2c-.4-.1-.7-.2-1-.4-.3-.1-.5-.4-.7-.6-.2-.3-.4-.5-.5-.8-.1-.2-.2-.6-.3-1-.1-.4-.2-.8-.2-1.1s-.1-.7-.1-1.2v-1.2-1.3zm1.9-.8v.8c0 2.5.1 4.2.4 5.1.3.9.9 1.4 1.7 1.4.9 0 1.5-.5 1.7-1.4.3-.9.4-2.6.4-5.1v-.8-2.1c0-.6-.1-1.1-.1-1.6-.1-.5-.1-.9-.2-1.3s-.2-.6-.4-.8c-.2-.2-.4-.4-.6-.5-.2-.1-.5-.2-.8-.2s-.6.1-.8.2c-.2.1-.4.3-.6.5-.2.2-.3.5-.4.8-.1.3-.2.7-.2 1.3-.1.5-.1 1.1-.1 1.6v2.1zM291.9 28.5V16.1h2v12.4c0 .8.2 1.4.5 1.7.3.4.7.5 1.2.5.4 0 .8-.1 1.3-.4.5-.3.9-.7 1.3-1.2v-13h1.9v15.8h-1.9v-1.5c-.4.6-.9 1.1-1.5 1.4s-1.2.5-1.8.5c-.8 0-1.4-.3-2-1-.7-.7-1-1.6-1-2.8z"/></g><g fill="#F9A21C"><path d="M272.4 92.6v-7L267.5 70h2c.2.6.4 1.5.8 2.7s.7 2.3 1 3.5c.3 1.2.7 2.3 1 3.4.3 1.1.6 2 .8 2.7l.3 1c.6-2.1 1.2-4.3 1.9-6.8s1.3-4.7 1.8-6.5h1.9l-4.7 15.6v7h-1.9zM280.3 85.1v-.8-1.6c0-.4 0-.9.1-1.5 0-.6.1-1.1.2-1.5s.2-.8.4-1.2c.2-.5.4-.8.7-1.1.3-.2.7-.5 1.1-.6s.9-.3 1.5-.3 1.1.1 1.5.3.8.4 1.1.6c.3.2.5.6.7 1.1s.3.9.4 1.2c.1.4.2.9.2 1.5s.1 1.2.1 1.5v4.9c0 .5-.1.9-.1 1.2 0 .3-.1.7-.2 1.1-.1.4-.2.8-.3 1-.1.2-.3.5-.5.8-.2.3-.4.5-.7.6-.3.1-.6.3-1 .4-.4.1-.8.2-1.2.2s-.9-.1-1.2-.2c-.4-.1-.7-.2-1-.4-.3-.1-.5-.4-.7-.6-.2-.3-.4-.5-.5-.8-.1-.2-.2-.6-.3-1-.1-.4-.2-.8-.2-1.1s-.1-.7-.1-1.2v-1.2-1.3zm1.9-.8v.8c0 2.5.1 4.2.4 5.1.3.9.9 1.4 1.7 1.4.9 0 1.5-.5 1.7-1.4.3-.9.4-2.6.4-5.1v-.8-2.1c0-.6-.1-1.1-.1-1.6-.1-.5-.1-.9-.2-1.3s-.2-.6-.4-.8c-.2-.2-.4-.4-.6-.5-.2-.1-.5-.2-.8-.2s-.6.1-.8.2c-.2.1-.4.3-.6.5-.2.2-.3.5-.4.8-.1.3-.2.7-.2 1.3-.1.5-.1 1.1-.1 1.6v2.1zM291.9 89.2V76.8h2v12.4c0 .8.2 1.4.5 1.7.3.4.7.5 1.2.5.4 0 .8-.1 1.3-.4.5-.3.9-.7 1.3-1.2v-13h1.9v15.8h-1.9v-1.5c-.4.6-.9 1.1-1.5 1.4s-1.2.5-1.8.5c-.8 0-1.4-.3-2-1-.7-.7-1-1.6-1-2.8z"/></g><g fill="#3D3D3D"><path d="M254.8 84.2c-.4 0-.8-.2-1.1-.4-.3-.3-.4-.7-.4-1.1 0-.4.2-.8.4-1.1.6-.6 1.6-.6 2.1 0 .3.3.4.7.4 1.1 0 .4-.2.8-.4 1.1-.2.3-.6.4-1 .4zM248.5 82.7c0-.8.7-1.5 1.5-1.5s1.5.7 1.5 1.5-.7 1.5-1.5 1.5c-.9 0-1.5-.6-1.5-1.5zm-4.9 0c0-.8.7-1.5 1.5-1.5s1.5.7 1.5 1.5-.7 1.5-1.5 1.5-1.5-.6-1.5-1.5zm-4.8 0c0-.8.7-1.5 1.5-1.5s1.5.7 1.5 1.5-.7 1.5-1.5 1.5c-.9 0-1.5-.6-1.5-1.5zm-4.9 0c0-.8.7-1.5 1.5-1.5s1.5.7 1.5 1.5-.7 1.5-1.5 1.5-1.5-.6-1.5-1.5zM230.6 84.2c-.4 0-.8-.2-1.1-.4-.3-.3-.4-.7-.4-1.1 0-.4.2-.8.4-1.1.6-.6 1.6-.6 2.1 0 .3.3.4.7.4 1.1 0 .4-.2.8-.4 1.1-.3.3-.6.4-1 .4z"/><g><path d="M230.6 84.1c-.4 0-.8-.2-1.1-.4-.3-.3-.4-.7-.4-1.1 0-.4.2-.8.4-1.1.6-.6 1.6-.6 2.1 0 .3.3.4.7.4 1.1 0 .4-.2.8-.4 1.1-.3.2-.6.4-1 .4zM233.2 80c-.6-.6-.6-1.5 0-2.1.6-.6 1.5-.6 2.1 0 .6.6.6 1.5 0 2.1-.3.3-.7.4-1.1.4-.3 0-.7-.1-1-.4zM237.9 76.7c-.4 0-.8-.2-1.1-.4-.3-.3-.4-.7-.4-1.1 0-.4.2-.8.4-1.1.6-.6 1.6-.6 2.1 0 .3.3.5.7.5 1.1 0 .4-.2.8-.4 1.1-.3.3-.7.4-1.1.4z"/></g><g><path d="M230.8 84.4c-.4 0-.8-.2-1.1-.4-.3-.3-.4-.7-.4-1.1 0-.4.2-.8.4-1.1.6-.6 1.6-.5 2.1 0 .3.3.4.7.4 1.1 0 .4-.2.8-.4 1.1-.2.2-.6.4-1 .4zM233.4 87.6c-.6-.6-.6-1.5 0-2.1.6-.6 1.5-.6 2.1 0 .6.6.6 1.5 0 2.1-.3.3-.7.4-1.1.4-.3.1-.7-.1-1-.4zM238.2 91.7c-.4 0-.8-.2-1.1-.4s-.4-.7-.4-1.1c0-.4.2-.8.4-1.1.6-.6 1.6-.6 2.1 0 .3.3.4.7.4 1.1 0 .4-.2.8-.4 1.1-.2.3-.6.4-1 .4z"/></g></g><g fill="#3D3D3D"><path d="M152.4 81.7c-.4 0-.8-.2-1.1-.4-.3-.3-.4-.7-.4-1.1 0-.4.2-.8.4-1.1.6-.6 1.6-.6 2.1 0 .3.3.4.7.4 1.1 0 .4-.2.8-.4 1.1-.2.2-.6.4-1 .4zM146 80.2c0-.8.7-1.5 1.5-1.5s1.5.7 1.5 1.5-.7 1.5-1.5 1.5-1.5-.7-1.5-1.5zm-4.9 0c0-.8.7-1.5 1.5-1.5s1.5.7 1.5 1.5-.7 1.5-1.5 1.5-1.5-.7-1.5-1.5zm-4.8 0c0-.8.7-1.5 1.5-1.5s1.5.7 1.5 1.5-.7 1.5-1.5 1.5c-.9 0-1.5-.7-1.5-1.5zm-4.9 0c0-.8.7-1.5 1.5-1.5s1.5.7 1.5 1.5-.7 1.5-1.5 1.5c-.9 0-1.5-.7-1.5-1.5zm-4.9 0c0-.8.7-1.5 1.5-1.5s1.5.7 1.5 1.5-.7 1.5-1.5 1.5-1.5-.7-1.5-1.5zm-4.9 0c0-.8.7-1.5 1.5-1.5s1.5.7 1.5 1.5-.7 1.5-1.5 1.5-1.5-.7-1.5-1.5zM118.2 81.7c-.4 0-.8-.2-1.1-.4-.3-.3-.4-.7-.4-1.1 0-.4.2-.8.4-1.1.5-.6 1.6-.6 2.1 0 .3.3.4.7.4 1.1 0 .4-.2.8-.4 1.1-.2.2-.6.4-1 .4z"/><g><path d="M118.2 81.8c-.4 0-.8-.2-1.1-.4-.3-.3-.4-.7-.4-1.1 0-.4.2-.8.4-1.1.6-.5 1.6-.5 2.1 0 .3.3.4.7.4 1.1 0 .4-.2.8-.4 1.1-.2.3-.6.4-1 .4zM120.8 85.1c-.6-.6-.6-1.5 0-2.1.6-.6 1.5-.6 2.1 0 .6.6.6 1.5 0 2.1-.3.3-.7.4-1.1.4-.3 0-.7-.1-1-.4zM125.6 89.2c-.4 0-.8-.2-1.1-.4-.3-.3-.4-.7-.4-1.1 0-.4.2-.8.4-1.1.5-.6 1.6-.6 2.1 0 .3.3.4.7.4 1.1s-.2.8-.4 1.1c-.2.2-.6.4-1 .4z"/></g><g><path d="M118.5 81.5c-.4 0-.8-.2-1.1-.4s-.4-.7-.4-1.1c0-.4.2-.8.4-1 .5-.6 1.6-.6 2.1 0 .3.3.4.7.4 1.1 0 .4-.2.8-.4 1.1-.2.2-.6.3-1 .3zM121.1 77.4c-.6-.6-.6-1.5 0-2.1.6-.6 1.5-.6 2.1 0 .6.6.6 1.5 0 2.1-.3.3-.7.4-1 .4-.4 0-.8-.1-1.1-.4zM125.9 74.2c-.4 0-.8-.2-1.1-.4-.3-.3-.4-.7-.4-1.1s.2-.8.4-1.1c.6-.6 1.6-.6 2.1 0 .3.3.4.7.4 1.1s-.2.8-.4 1.1c-.3.2-.7.4-1 .4z"/></g></g><g fill="#3D3D3D"><path d="M336.9 84c-.4 0-.8-.2-1.1-.4-.3-.3-.4-.7-.4-1.1 0-.4.2-.8.4-1.1.6-.6 1.6-.6 2.1 0 .3.3.4.7.4 1.1 0 .4-.2.8-.4 1.1-.3.2-.7.4-1 .4zM331.6 83.9c-.8 0-1.5-.7-1.5-1.5s.7-1.5 1.5-1.5 1.5.7 1.5 1.5c0 .9-.7 1.5-1.5 1.5zm-6.7-1.5c0-.8.7-1.5 1.5-1.5s1.5.7 1.5 1.5-.7 1.5-1.5 1.5-1.5-.6-1.5-1.5zm-5.3 0c0-.8.7-1.5 1.5-1.5s1.5.7 1.5 1.5-.7 1.5-1.5 1.5-1.5-.6-1.5-1.5zM315.9 83.9c-.4 0-.8-.2-1.1-.4s-.4-.7-.4-1.1c0-.4.2-.8.4-1.1.5-.6 1.6-.6 2.1 0 .3.3.4.7.4 1.1 0 .4-.2.8-.4 1.1-.2.3-.6.4-1 .4z"/><path d="M315.9 83.8c-.4 0-.8-.2-1.1-.4s-.4-.7-.4-1.1c0-.4.2-.8.4-1.1.6-.6 1.6-.5 2.1 0 .3.3.4.7.4 1.1 0 .4-.2.8-.4 1.1-.2.2-.6.4-1 .4zM318.5 79.7c-.6-.6-.6-1.5 0-2.1.6-.6 1.5-.6 2.1 0 .6.6.6 1.5 0 2.1-.3.3-.7.4-1.1.4-.3 0-.7-.1-1-.4zM323.3 76.5c-.4 0-.8-.2-1.1-.4-.3-.3-.4-.7-.4-1.1 0-.4.1-.8.4-1.1.6-.6 1.6-.6 2.1 0 .3.3.4.7.4 1.1 0 .4-.2.8-.4 1.1-.3.2-.6.4-1 .4z"/><g><path d="M316.2 84.1c-.4 0-.8-.2-1.1-.4-.3-.3-.4-.7-.4-1.1 0-.4.2-.8.4-1.1.6-.6 1.6-.6 2.1 0 .3.3.4.7.4 1.1 0 .4-.2.8-.4 1.1-.2.2-.6.4-1 .4zM318.8 87.3c-.6-.6-.6-1.5 0-2.1.6-.6 1.5-.6 2.1 0 .6.6.6 1.5 0 2.1-.3.3-.7.4-1.1.4-.3.1-.7-.1-1-.4zM323.5 91.5c-.4 0-.8-.2-1.1-.4-.3-.3-.4-.7-.4-1.1 0-.4.2-.8.4-1.1.6-.6 1.6-.6 2.1 0 .3.3.5.7.5 1.1 0 .4-.2.8-.5 1.1-.2.2-.6.4-1 .4z"/></g><path d="M335.4 82.5c0-.8.7-1.5 1.5-1.5s1.5.7 1.5 1.5-.7 1.5-1.5 1.5c-.9 0-1.5-.7-1.5-1.5zm0-5c0-.8.7-1.5 1.5-1.5s1.5.7 1.5 1.5-.7 1.5-1.5 1.5c-.9 0-1.5-.7-1.5-1.5zm0-5c0-.8.7-1.5 1.5-1.5s1.5.7 1.5 1.5-.7 1.5-1.5 1.5c-.9 0-1.5-.7-1.5-1.5zm0-5c0-.8.7-1.5 1.5-1.5s1.5.7 1.5 1.5-.7 1.5-1.5 1.5c-.9 0-1.5-.7-1.5-1.5zm0-5c0-.8.7-1.5 1.5-1.5s1.5.7 1.5 1.5-.7 1.5-1.5 1.5c-.9 0-1.5-.7-1.5-1.5zm0-5c0-.8.7-1.5 1.5-1.5s1.5.7 1.5 1.5-.7 1.5-1.5 1.5c-.9 0-1.5-.7-1.5-1.5zm0-5c0-.8.7-1.5 1.5-1.5s1.5.7 1.5 1.5-.7 1.5-1.5 1.5c-.9 0-1.5-.7-1.5-1.5zm0-5c0-.8.7-1.5 1.5-1.5s1.5.7 1.5 1.5-.7 1.5-1.5 1.5c-.9 0-1.5-.7-1.5-1.5zm0-5c0-.8.7-1.5 1.5-1.5s1.5.7 1.5 1.5-.7 1.5-1.5 1.5c-.9 0-1.5-.7-1.5-1.5zm0-5c0-.8.7-1.5 1.5-1.5s1.5.7 1.5 1.5-.7 1.5-1.5 1.5c-.9 0-1.5-.7-1.5-1.5zm0-5c0-.8.7-1.5 1.5-1.5s1.5.7 1.5 1.5-.7 1.5-1.5 1.5c-.9 0-1.5-.7-1.5-1.5zm0-5c0-.8.7-1.5 1.5-1.5s1.5.7 1.5 1.5-.7 1.5-1.5 1.5c-.9 0-1.5-.7-1.5-1.5zm0-5c0-.8.7-1.5 1.5-1.5s1.5.7 1.5 1.5-.7 1.5-1.5 1.5c-.9 0-1.5-.7-1.5-1.5z"/><path d="M335.4 21.2c0-.8.7-1.5 1.5-1.5s1.5.7 1.5 1.5-.7 1.5-1.5 1.5c-.9 0-1.5-.7-1.5-1.5zm-5 0c0-.8.7-1.5 1.5-1.5s1.5.7 1.5 1.5-.7 1.5-1.5 1.5c-.9 0-1.5-.7-1.5-1.5zm-5 0c0-.8.7-1.5 1.5-1.5s1.5.7 1.5 1.5-.7 1.5-1.5 1.5c-.9 0-1.5-.7-1.5-1.5zm-5 0c0-.8.7-1.5 1.5-1.5s1.5.7 1.5 1.5-.7 1.5-1.5 1.5c-.9 0-1.5-.7-1.5-1.5zm-5 0c0-.8.7-1.5 1.5-1.5s1.5.7 1.5 1.5-.7 1.5-1.5 1.5c-.9 0-1.5-.7-1.5-1.5z"/></g><path fill="#33486C" d="M94.5 103.4H40.3c-3.2 0-5.9-2.6-5.9-5.9V9.8c0-3.2 2.6-5.9 5.9-5.9h54.2c3.2 0 5.9 2.6 5.9 5.9v87.7c0 3.3-2.6 5.9-5.9 5.9z"/><path fill="#20325E" d="M94.5 103.4H40.3c-3.2 0-5.9-2.6-5.9-5.9V70.4l66-48.1v75.2c0 3.3-2.6 5.9-5.9 5.9z"/><path fill="#F3F3F3" d="M87.6 94.7H47.2c-2.5 0-4.5-2-4.5-4.5V16.5c0-2.5 2-4.5 4.5-4.5h40.4c2.5 0 4.5 2 4.5 4.5v73.7c0 2.5-2 4.5-4.5 4.5z"/><path fill="#EDECED" d="M42.7 91c1.7-.1 21.8-22.2 20.8-22.9 2.8 0 28.7-51.2 28.7-48.7V91c0 2.5-2 4.5-4.5 4.5H47.2c-2.5 0-4.5-1.5-4.5-4.5z"/><path fill="#DDDDDC" d="M42.7 91c1.7-.1 33.4-12.1 32.4-12.8 2.8 0 17.1-61.3 17.1-58.8V91c0 2.5-2 4.5-4.5 4.5H47.2c-2.5 0-4.5-1.5-4.5-4.5z"/><path fill="#151515" d="M0 103.9h28.7v20.6H0l11.8-10.4"/><path fill="#3E3B3B" d="M26 121.4l2.7 3.1v-3.1"/><path fill="#151515" d="M134.8 104.1h-28.7v20.6h28.7L123 114.2"/><path fill="#FFF" d="M26 121.4l82.8.2V98.8H26"/><path fill="#3E3B3B" d="M106.1 121.6v3.1l2.7-3.1"/><path fill="#151515" d="M26 121.4l82.8.2V98.8H26"/><g><image overflow="visible" opacity=".6" width="312" height="138" xlink:href="C6DB638E.png" transform="matrix(.24 0 0 .24 30.25 96.69)"/><path fill="#FDFEFF" d="M41.7 116.5v-11.9h-2.5v-.9h6.1v.9h-2.5v11.9h-1.1zM48.9 112.4v-1.2c0-.6 0-1.2.1-1.6.1-.5.2-.8.3-1.1.1-.3.3-.5.5-.6.2-.2.4-.3.7-.3s.5-.1.8-.1c.8 0 1.4.3 1.7.8.3.6.5 1.5.5 2.7v.9H50v1.4c0 .6 0 1.1.1 1.4s.1.7.3.8c.1.2.3.3.4.4s.3.1.6.1.6-.2.8-.5c.2-.3.3-.9.3-1.7h1c0 .3-.1.6-.1.9 0 .3-.1.5-.2.8-.1.3-.2.5-.4.7s-.4.3-.6.4c-.2.1-.5.2-.9.2-.6 0-1.1-.1-1.5-.4-.3-.3-.6-.7-.8-1.3 0-.7-.1-1.6-.1-2.7zm1.1-1.2h2.5v-.6-.6-.6c0-.2-.1-.4-.1-.5s-.1-.3-.2-.4l-.3-.3c-.1-.1-.3-.1-.4-.1-.3 0-.5 0-.7.1-.2.1-.3.2-.4.3-.1.1-.2.4-.2.7s-.1.6-.1.8c-.1.4-.1.7-.1 1.2zM58.4 116.5v-12.8h1.1v12.8h-1.1zM64.6 116.5v-12.8h1.1v12.8h-1.1zM70.4 118.7v-.9c.6 0 1-.1 1.3-.3s.4-.4.4-.7c0-.4 0-.7-.1-1.1l-1.9-8.2h1.1l1.5 7.4 1.5-7.4h1.1l-2.2 9.5c-.1.6-.4 1-.9 1.2-.3.3-.9.4-1.8.5z"/><path fill="#3F709A" d="M82.7 116.5v-12.8h4.5v.9h-3.3v4.8h2.4v.9h-2.4v5.3h3.3v.9h-4.5zM90.8 116.5l1.9-4.6-1.9-4.2H92l1.5 3.7 1.5-3.7h1.1l-1.9 4.2 1.9 4.6H95l-1.5-4-1.5 4h-1.2z"/></g><g><path fill="#FAA31E" d="M218.9 66.4v27.8c0 1.4-1.3 2.5-2.9 2.5h-44.5c-1.6 0-2.9-1.1-2.9-2.5V66.4c0-1.4 1.3-2.5 2.9-2.5H216c1.5 0 2.9 1.1 2.9 2.5z"/><path fill="#F29922" d="M178.4 63.9h37.5c1.6 0 2.9 1.1 2.9 2.5v27.8c0 1.4-1.3 2.5-2.9 2.5h-15.2"/><path fill="#F3F3F3" d="M212.8 69.4v21.8c0 1.1-1 2-2.3 2h-36.3c-1.2 0-2.3-.9-2.3-2V69.4c0-1.1 1-2 2.3-2h36.3c1.4.1 2.3 1 2.3 2z"/><g fill="none" stroke="#C2C1C1" stroke-width=".25" stroke-linecap="round" stroke-linejoin="round" stroke-miterlimit="10"><path d="M185 93l-2.7-3.1 4.9-.6-1.1-.8h-1.2l-.7-3.2 2.2-1.4-1.7-4.8h-1.8l-1.2-3.3 1.5.4.7-2.1 2.7-.8 1.7-2.9v-1.7h3.3l.4-1 2.4-.1"/><path d="M182.1 77.1l-4.2-1.8-1.1.9-.6-2.6-.6-3.2-2.4 1.5-1-2.6"/></g><g fill="#231F20"><path d="M180.9 85.2h1.4v1.2h-1.4zM183.7 85.2h1.4v1.2h-1.4zM182.3 84h1.4v1.2h-1.4zM180.9 82.8h1.4V84h-1.4zM183.7 82.8h1.4V84h-1.4zM180.9 76.3h1.4v1.2h-1.4zM183.7 76.3h1.4v1.2h-1.4zM182.3 75.1h1.4v1.2h-1.4zM180.9 73.9h1.4v1.2h-1.4z"/><path d="M183.7 73.9h1.4v1.2h-1.4zM191.8 80.8h1.4V82h-1.4zM191.8 79.6h1.4v1.2h-1.4z"/><path d="M191.8 78.4h1.4v1.2h-1.4z"/></g><g fill="none" stroke="#C2C1C1" stroke-width=".25" stroke-linecap="round" stroke-linejoin="round" stroke-miterlimit="10"><path d="M197.7 88.2l1.5-1.7.5-.5 1.8 1.3 1.9-1.5.8-1.2 1.6 1.9.8-1.1-.4-.9H210.4l1.2-1.2M197.9 85l1.3 1.5M209.8 87.5l-.8-2.9.8 2.9zM211.1 87.7l-1.3-.2"/></g><path fill="none" stroke="#C2C1C1" stroke-width=".25" stroke-linecap="round" stroke-linejoin="round" stroke-miterlimit="10" d="M200.2 78.9l-1-1.5-.7-.8 1.3-1.3-1-.3 1.8-.1-2.4-1.3 2.3-.1 1.1-.3M200.9 67.5l-1.2.6-.1.8-1.1.9.7.6-.6.7-.4.6"/><path fill="#E2BC78" d="M201.6 62.6v35.5c0 2.5 2.7 4.4 5.9 4.4 3.3 0 5.9-2 5.9-4.4V62.6c0-2.4-2.7-4.3-5.9-4.3-3.3-.2-5.9 1.8-5.9 4.3z"/><path fill="#E2B588" d="M203.9 62.6h6.8v35.3h-6.8z"/><path fill="#E3C7A1" d="M211.9 75.9v9c0 .3-.3.7-.7.7h-7.3c-.4 0-.7-.3-.7-.7v-9c0-.3.3-.7.7-.7h7.2c.5.1.8.3.8.7z"/><path fill="#E3C7A1" d="M205.5 77.2c-.2.1-.3.1-.5.2-1.2.7-1.5 2.1.3 3-1.7.9-1.5 2.4-.3 3 .2.1.3.1.5.2.9.1 3.2.2 5.8-3.2-2.6-3.4-5.1-3.4-5.8-3.2z"/><g fill="#E49F67"><ellipse cx="205.4" cy="95.4" rx=".8" ry=".7"/><ellipse cx="205.4" cy="93.4" rx=".8" ry=".7"/><ellipse cx="205.4" cy="89.5" rx=".8" ry=".7"/><ellipse cx="205.4" cy="91.5" rx=".8" ry=".7"/><g><ellipse cx="207.4" cy="95.4" rx=".8" ry=".7"/><ellipse cx="207.4" cy="93.4" rx=".8" ry=".7"/><ellipse cx="207.4" cy="89.5" rx=".8" ry=".7"/><ellipse cx="207.4" cy="91.5" rx=".8" ry=".7"/></g><g><ellipse cx="209.4" cy="95.4" rx=".8" ry=".7"/><ellipse cx="209.4" cy="93.4" rx=".8" ry=".7"/><ellipse cx="209.4" cy="89.5" rx=".8" ry=".7"/><ellipse cx="209.4" cy="91.5" rx=".8" ry=".7"/></g></g><g fill="#E49F67"><ellipse cx="205.4" cy="70.9" rx=".8" ry=".7"/><ellipse cx="205.4" cy="69" rx=".8" ry=".7"/><ellipse cx="205.4" cy="65.1" rx=".8" ry=".7"/><ellipse cx="205.4" cy="67.1" rx=".8" ry=".7"/><g><ellipse cx="207.4" cy="70.9" rx=".8" ry=".7"/><ellipse cx="207.4" cy="69" rx=".8" ry=".7"/><ellipse cx="207.4" cy="65.1" rx=".8" ry=".7"/><ellipse cx="207.4" cy="67.1" rx=".8" ry=".7"/></g><g><ellipse cx="209.5" cy="70.9" rx=".8" ry=".7"/><ellipse cx="209.5" cy="69" rx=".8" ry=".7"/><ellipse cx="209.5" cy="65.1" rx=".8" ry=".7"/><ellipse cx="209.5" cy="67.1" rx=".8" ry=".7"/></g></g><path fill="none" stroke="#303030" stroke-width=".25" stroke-linecap="round" stroke-linejoin="round" stroke-miterlimit="10" d="M174.9 90.7c.4.7-.2 1.6-1 1.6-.9.1-1.6-.9-1.2-1.6 1 .5 1.6 1.6 1.2 2.6-.3.6-.8 1.1-1.4 1.3-.7.3-1.6.1-2.2-.3-.7-.5-1-.9-1-.9-.3-.3-.6-1.3-.1-1.7.3-.3.8-.3 1.1-.1.3.1.7.4.9.7.8.9 1.3 1.9 1.6 2.9.3 1.1.1 2.6-1.5 3-.5.1-1 .1-1.4 0-1.2-.3-2.1-.9-2.9-1.6-.3-.3-.5-.7-.6-1.2 0 0-.1-.4-.1-1.1"/><path fill="#FAA31E" d="M171.7 68.3v3.5c0 .2-.1.3-.2.3h-3.3c-.1 0-.2-.1-.2-.3v-3.5c0-.2.1-.3.2-.3h3.3c.2 0 .2.1.2.3zM179.1 94.9v2c0 .1-.1.2-.3.2h-3.9c-.1 0-.3-.1-.3-.2v-2c0-.1.1-.2.3-.2h3.9c.3 0 .3.1.3.2zM184.8 94.9v2c0 .1-.1.2-.3.2h-3.9c-.1 0-.3-.1-.3-.2v-2c0-.1.1-.2.3-.2h3.9c.2 0 .3.1.3.2z"/><path fill="#E08626" d="M215.8 75.5h1V85h-1z"/><g fill="#DD2227" stroke="#DD2227" stroke-miterlimit="10"><path d="M204.2 79.4h2.3v2h-2.3zM206.5 79.4h2.3v2h-2.3zM206.5 77.4h2.3v2h-2.3zM206.5 81.4h2.3v2h-2.3zM208.8 79.4h2.3v2h-2.3z"/></g></g><g><path fill="#51449B" d="M167.5 35.4V7.7c0-1.4 1.3-2.5 2.9-2.5h44.5c1.6 0 2.9 1.1 2.9 2.5v27.8c0 1.4-1.3 2.5-2.9 2.5h-44.5c-1.5-.1-2.9-1.2-2.9-2.6z"/><path fill="#3D3E7C" d="M208 37.9h-37.5c-1.6 0-2.9-1.1-2.9-2.5V7.7c0-1.4 1.3-2.5 2.9-2.5h15.2"/><path fill="#F3F3F3" d="M173.5 32.4V10.6c0-1.1 1-2 2.3-2h36.3c1.2 0 2.3.9 2.3 2v21.8c0 1.1-1 2-2.3 2h-36.3c-1.3 0-2.3-.9-2.3-2z"/><path fill="#34376B" d="M169.5 16.9h1v9.5h-1z"/><path fill="#FFF" stroke="#D6D6D6" stroke-width=".5" stroke-miterlimit="10" d="M213.6 5.8l-4.1 1.7 4.3.9-.9 1.9 1.8-1.5 1.7 4.5.5-4.9 2.2.8-1.2-1.6 3.6-1.8-3.9-.4.8-2.1-1.8 1.5-2-4.1-.3 4.1-1.8-.8z"/></g><g fill="#231F20"><path d="M202.5 15.4h1.4v1.2h-1.4zM203.9 16.6h1.4v1.2h-1.4zM202.5 17.8h1.4V19h-1.4zM202.5 24.3h1.4v1.2h-1.4zM203.9 25.5h1.4v1.2h-1.4zM202.5 26.7h1.4v1.2h-1.4zM194.5 19.8h1.4V21h-1.4zM194.5 21h1.4v1.2h-1.4zM194.5 22.2h1.4v1.2h-1.4z"/></g></svg>