<svg version="1.1" id="Layer_1" xmlns="http://www.w3.org/2000/svg" xmlns:xlink="http://www.w3.org/1999/xlink" x="0px" y="0px"
	 viewBox="0 0 338.4 124.7" enable-background="new 0 0 338.4 124.7" xml:space="preserve">
<g>
	<g>
		<g>
			<path fill="#3D3D3D" d="M118.2,22.8c-0.4,0-0.8-0.2-1.1-0.4c-0.3-0.3-0.4-0.7-0.4-1.1c0-0.4,0.2-0.8,0.4-1.1
				c0.6-0.5,1.6-0.5,2.1,0c0.3,0.3,0.4,0.7,0.4,1.1c0,0.4-0.2,0.8-0.4,1.1C119,22.7,118.6,22.8,118.2,22.8z"/>
			<path fill="#3D3D3D" d="M146,21.3c0-0.8,0.7-1.5,1.5-1.5l0,0c0.8,0,1.5,0.7,1.5,1.5l0,0c0,0.8-0.7,1.5-1.5,1.5l0,0
				C146.7,22.8,146,22.2,146,21.3z M141.1,21.3c0-0.8,0.7-1.5,1.5-1.5l0,0c0.8,0,1.5,0.7,1.5,1.5l0,0c0,0.8-0.7,1.5-1.5,1.5l0,0
				C141.8,22.8,141.1,22.2,141.1,21.3z M136.3,21.3c0-0.8,0.7-1.5,1.5-1.5l0,0c0.8,0,1.5,0.7,1.5,1.5l0,0c0,0.8-0.7,1.5-1.5,1.5l0,0
				C136.9,22.8,136.3,22.2,136.3,21.3z M131.4,21.3c0-0.8,0.7-1.5,1.5-1.5l0,0c0.8,0,1.5,0.7,1.5,1.5l0,0c0,0.8-0.7,1.5-1.5,1.5l0,0
				C132,22.8,131.4,22.2,131.4,21.3z M126.5,21.3c0-0.8,0.7-1.5,1.5-1.5l0,0c0.8,0,1.5,0.7,1.5,1.5l0,0c0,0.8-0.7,1.5-1.5,1.5l0,0
				C127.2,22.8,126.5,22.2,126.5,21.3z M121.6,21.3c0-0.8,0.7-1.5,1.5-1.5l0,0c0.8,0,1.5,0.7,1.5,1.5l0,0c0,0.8-0.7,1.5-1.5,1.5l0,0
				C122.3,22.8,121.6,22.2,121.6,21.3z"/>
			<path fill="#3D3D3D" d="M152.4,22.8c-0.4,0-0.8-0.2-1.1-0.4c-0.3-0.3-0.4-0.7-0.4-1.1c0-0.4,0.2-0.8,0.4-1.1
				c0.6-0.5,1.6-0.5,2.1,0c0.3,0.3,0.4,0.7,0.4,1.1c0,0.4-0.2,0.8-0.4,1.1C153.2,22.7,152.8,22.8,152.4,22.8z"/>
		</g>
		<g>
			<path fill="#3D3D3D" d="M152.4,22.7c-0.4,0-0.8-0.2-1.1-0.4c-0.3-0.3-0.4-0.7-0.4-1.1c0-0.4,0.2-0.8,0.4-1.1
				c0.5-0.6,1.6-0.6,2.1,0c0.3,0.3,0.4,0.7,0.4,1.1c0,0.4-0.2,0.8-0.4,1.1C153.2,22.5,152.8,22.7,152.4,22.7z"/>
			<path fill="#3D3D3D" d="M147.7,18.6c-0.6-0.6-0.6-1.5,0-2.1l0,0c0.6-0.6,1.5-0.6,2.1,0l0,0c0.6,0.6,0.6,1.5,0,2.1l0,0
				c-0.3,0.3-0.7,0.4-1.1,0.4l0,0C148.3,19,148,18.9,147.7,18.6z"/>
			<path fill="#3D3D3D" d="M145,15.4c-0.4,0-0.8-0.2-1.1-0.4s-0.4-0.7-0.4-1.1c0-0.4,0.2-0.8,0.4-1.1c0.6-0.6,1.6-0.6,2.1,0
				c0.3,0.3,0.4,0.7,0.4,1.1c0,0.4-0.2,0.8-0.4,1.1C145.8,15.2,145.4,15.4,145,15.4z"/>
		</g>
		<g>
			<path fill="#3D3D3D" d="M152.1,23c-0.4,0-0.8-0.2-1.1-0.4c-0.3-0.3-0.4-0.7-0.4-1.1c0-0.4,0.2-0.8,0.4-1.1c0.5-0.6,1.5-0.6,2.1,0
				c0.3,0.3,0.4,0.7,0.4,1.1c0,0.4-0.2,0.8-0.4,1.1C152.9,22.9,152.5,23,152.1,23z"/>
			<path fill="#3D3D3D" d="M147.4,26.3c-0.6-0.6-0.6-1.5,0-2.1l0,0c0.6-0.6,1.5-0.6,2.1,0l0,0c0.6,0.6,0.6,1.5,0,2.1l0,0
				c-0.3,0.3-0.7,0.4-1.1,0.4l0,0C148.1,26.7,147.7,26.5,147.4,26.3z"/>
			<path fill="#3D3D3D" d="M144.8,30.4c-0.4,0-0.8-0.2-1.1-0.4s-0.4-0.7-0.4-1.1c0-0.4,0.2-0.8,0.4-1.1c0.6-0.6,1.6-0.6,2.1,0
				c0.3,0.3,0.4,0.7,0.4,1.1c0,0.4-0.2,0.8-0.4,1.1C145.6,30.2,145.2,30.4,144.8,30.4z"/>
		</g>
	</g>
	<g>
		<g>
			<path fill="#3D3D3D" d="M229.6,22.8c-0.4,0-0.8-0.2-1.1-0.4c-0.3-0.3-0.4-0.7-0.4-1.1c0-0.4,0.2-0.8,0.4-1.1
				c0.6-0.6,1.6-0.6,2.1,0c0.3,0.3,0.4,0.7,0.4,1.1c0,0.4-0.2,0.8-0.4,1.1C230.3,22.7,230,22.8,229.6,22.8z"/>
			<path fill="#3D3D3D" d="M247.5,21.3c0-0.8,0.7-1.5,1.5-1.5l0,0c0.8,0,1.5,0.7,1.5,1.5l0,0c0,0.8-0.7,1.5-1.5,1.5l0,0
				C248.1,22.8,247.5,22.2,247.5,21.3z M242.6,21.3c0-0.8,0.7-1.5,1.5-1.5l0,0c0.8,0,1.5,0.7,1.5,1.5l0,0c0,0.8-0.7,1.5-1.5,1.5l0,0
				C243.3,22.8,242.6,22.2,242.6,21.3z M237.8,21.3c0-0.8,0.7-1.5,1.5-1.5l0,0c0.8,0,1.5,0.7,1.5,1.5l0,0c0,0.8-0.7,1.5-1.5,1.5l0,0
				C238.4,22.8,237.8,22.2,237.8,21.3z M232.9,21.3c0-0.8,0.7-1.5,1.5-1.5l0,0c0.8,0,1.5,0.7,1.5,1.5l0,0c0,0.8-0.7,1.5-1.5,1.5l0,0
				C233.6,22.8,232.9,22.2,232.9,21.3z"/>
			<path fill="#3D3D3D" d="M253.8,22.8c-0.4,0-0.8-0.2-1.1-0.4c-0.3-0.3-0.4-0.7-0.4-1.1c0-0.4,0.2-0.8,0.4-1.1
				c0.6-0.6,1.6-0.6,2.1,0c0.3,0.3,0.4,0.7,0.4,1.1c0,0.4-0.2,0.8-0.4,1.1C254.6,22.7,254.2,22.8,253.8,22.8z"/>
		</g>
		<g>
			<path fill="#3D3D3D" d="M253.8,22.7c-0.4,0-0.8-0.2-1.1-0.4c-0.3-0.3-0.4-0.7-0.4-1.1c0-0.4,0.2-0.8,0.4-1.1
				c0.6-0.6,1.6-0.6,2.1,0c0.3,0.3,0.4,0.7,0.4,1.1c0,0.4-0.2,0.8-0.4,1.1C254.6,22.5,254.2,22.7,253.8,22.7z"/>
			<path fill="#3D3D3D" d="M249.1,18.6c-0.6-0.6-0.6-1.5,0-2.1l0,0c0.6-0.6,1.5-0.6,2.1,0l0,0c0.6,0.6,0.6,1.5,0,2.1l0,0
				c-0.3,0.3-0.7,0.4-1.1,0.4l0,0C249.8,19,249.4,18.9,249.1,18.6z"/>
			<path fill="#3D3D3D" d="M246.5,15.3c-0.4,0-0.8-0.2-1.1-0.4c-0.3-0.3-0.4-0.7-0.4-1.1c0-0.4,0.2-0.8,0.4-1.1
				c0.6-0.6,1.6-0.6,2.1,0c0.3,0.3,0.4,0.7,0.4,1.1c0,0.4-0.2,0.8-0.4,1.1C247.2,15.2,246.9,15.3,246.5,15.3z"/>
		</g>
		<g>
			<path fill="#3D3D3D" d="M253.5,23c-0.4,0-0.8-0.2-1.1-0.4c-0.3-0.3-0.4-0.7-0.4-1.1c0-0.4,0.2-0.8,0.4-1.1c0.6-0.6,1.6-0.6,2.1,0
				c0.3,0.3,0.4,0.7,0.4,1.1c0,0.4-0.2,0.8-0.4,1.1C254.3,22.8,253.9,23,253.5,23z"/>
			<path fill="#3D3D3D" d="M248.8,26.2c-0.6-0.6-0.6-1.5,0-2.1l0,0c0.6-0.6,1.5-0.6,2.1,0l0,0c0.6,0.6,0.6,1.5,0,2.1l0,0
				c-0.3,0.3-0.7,0.4-1.1,0.4l0,0C249.5,26.7,249.1,26.5,248.8,26.2z"/>
			<path fill="#3D3D3D" d="M246.2,30.3c-0.4,0-0.8-0.2-1.1-0.4c-0.3-0.3-0.4-0.7-0.4-1.1c0-0.4,0.2-0.8,0.4-1.1
				c0.6-0.5,1.6-0.6,2.1,0c0.3,0.3,0.4,0.7,0.4,1.1c0,0.4-0.2,0.8-0.4,1.1C247,30.2,246.6,30.3,246.2,30.3z"/>
		</g>
	</g>
	<g>
		<path fill="#51449B" d="M272.4,31.9v-7l-4.9-15.6h2c0.2,0.6,0.4,1.5,0.8,2.7s0.7,2.3,1,3.5c0.3,1.2,0.7,2.3,1,3.4
			c0.3,1.1,0.6,2,0.8,2.7l0.3,1c0.6-2.1,1.2-4.3,1.9-6.8c0.7-2.5,1.3-4.7,1.8-6.5h1.9l-4.7,15.6v7H272.4z"/>
		<path fill="#51449B" d="M280.3,24.4v-0.8c0-0.7,0-1.2,0-1.6c0-0.4,0-0.9,0.1-1.5c0-0.6,0.1-1.1,0.2-1.5s0.2-0.8,0.4-1.2
			c0.2-0.5,0.4-0.8,0.7-1.1c0.3-0.2,0.7-0.5,1.1-0.6s0.9-0.3,1.5-0.3s1.1,0.1,1.5,0.3s0.8,0.4,1.1,0.6c0.3,0.2,0.5,0.6,0.7,1.1
			s0.3,0.9,0.4,1.2c0.1,0.4,0.2,0.9,0.2,1.5c0,0.6,0.1,1.2,0.1,1.5c0,0.4,0,0.9,0,1.6v0.8c0,0.6,0,1,0,1.3c0,0.3,0,0.7,0,1.2
			c0,0.5-0.1,0.9-0.1,1.2c0,0.3-0.1,0.7-0.2,1.1c-0.1,0.4-0.2,0.8-0.3,1c-0.1,0.2-0.3,0.5-0.5,0.8c-0.2,0.3-0.4,0.5-0.7,0.6
			c-0.3,0.1-0.6,0.3-1,0.4c-0.4,0.1-0.8,0.2-1.2,0.2s-0.9-0.1-1.2-0.2c-0.4-0.1-0.7-0.2-1-0.4c-0.3-0.1-0.5-0.4-0.7-0.6
			c-0.2-0.3-0.4-0.5-0.5-0.8c-0.1-0.2-0.2-0.6-0.3-1c-0.1-0.4-0.2-0.8-0.2-1.1s-0.1-0.7-0.1-1.2c0-0.5,0-0.9,0-1.2
			C280.3,25.4,280.3,25,280.3,24.4z M282.2,23.6v0.8c0,2.5,0.1,4.2,0.4,5.1c0.3,0.9,0.9,1.4,1.7,1.4c0.9,0,1.5-0.5,1.7-1.4
			c0.3-0.9,0.4-2.6,0.4-5.1v-0.8c0-0.8,0-1.5,0-2.1c0-0.6-0.1-1.1-0.1-1.6c-0.1-0.5-0.1-0.9-0.2-1.3s-0.2-0.6-0.4-0.8
			c-0.2-0.2-0.4-0.4-0.6-0.5c-0.2-0.1-0.5-0.2-0.8-0.2s-0.6,0.1-0.8,0.2c-0.2,0.1-0.4,0.3-0.6,0.5c-0.2,0.2-0.3,0.5-0.4,0.8
			c-0.1,0.3-0.2,0.7-0.2,1.3c-0.1,0.5-0.1,1.1-0.1,1.6S282.2,22.7,282.2,23.6z"/>
		<path fill="#51449B" d="M291.9,28.5V16.1h2v12.4c0,0.8,0.2,1.4,0.5,1.7c0.3,0.4,0.7,0.5,1.2,0.5c0.4,0,0.8-0.1,1.3-0.4
			c0.5-0.3,0.9-0.7,1.3-1.2V16.1h1.9v15.8h-1.9v-1.5c-0.4,0.6-0.9,1.1-1.5,1.4s-1.2,0.5-1.8,0.5c-0.8,0-1.4-0.3-2-1
			C292.2,30.6,291.9,29.7,291.9,28.5z"/>
	</g>
	<g>
		<path fill="#F9A21C" d="M272.4,92.6v-7l-4.9-15.6h2c0.2,0.6,0.4,1.5,0.8,2.7s0.7,2.3,1,3.5c0.3,1.2,0.7,2.3,1,3.4
			c0.3,1.1,0.6,2,0.8,2.7l0.3,1c0.6-2.1,1.2-4.3,1.9-6.8c0.7-2.5,1.3-4.7,1.8-6.5h1.9l-4.7,15.6v7H272.4z"/>
		<path fill="#F9A21C" d="M280.3,85.1v-0.8c0-0.7,0-1.2,0-1.6c0-0.4,0-0.9,0.1-1.5c0-0.6,0.1-1.1,0.2-1.5s0.2-0.8,0.4-1.2
			c0.2-0.5,0.4-0.8,0.7-1.1c0.3-0.2,0.7-0.5,1.1-0.6s0.9-0.3,1.5-0.3s1.1,0.1,1.5,0.3s0.8,0.4,1.1,0.6c0.3,0.2,0.5,0.6,0.7,1.1
			s0.3,0.9,0.4,1.2c0.1,0.4,0.2,0.9,0.2,1.5c0,0.6,0.1,1.2,0.1,1.5c0,0.4,0,0.9,0,1.6v0.8c0,0.6,0,1,0,1.3c0,0.3,0,0.7,0,1.2
			c0,0.5-0.1,0.9-0.1,1.2c0,0.3-0.1,0.7-0.2,1.1c-0.1,0.4-0.2,0.8-0.3,1c-0.1,0.2-0.3,0.5-0.5,0.8c-0.2,0.3-0.4,0.5-0.7,0.6
			c-0.3,0.1-0.6,0.3-1,0.4c-0.4,0.1-0.8,0.2-1.2,0.2s-0.9-0.1-1.2-0.2c-0.4-0.1-0.7-0.2-1-0.4c-0.3-0.1-0.5-0.4-0.7-0.6
			c-0.2-0.3-0.4-0.5-0.5-0.8c-0.1-0.2-0.2-0.6-0.3-1c-0.1-0.4-0.2-0.8-0.2-1.1s-0.1-0.7-0.1-1.2c0-0.5,0-0.9,0-1.2
			C280.3,86.1,280.3,85.7,280.3,85.1z M282.2,84.3v0.8c0,2.5,0.1,4.2,0.4,5.1c0.3,0.9,0.9,1.4,1.7,1.4c0.9,0,1.5-0.5,1.7-1.4
			c0.3-0.9,0.4-2.6,0.4-5.1v-0.8c0-0.8,0-1.5,0-2.1c0-0.6-0.1-1.1-0.1-1.6c-0.1-0.5-0.1-0.9-0.2-1.3s-0.2-0.6-0.4-0.8
			c-0.2-0.2-0.4-0.4-0.6-0.5c-0.2-0.1-0.5-0.2-0.8-0.2s-0.6,0.1-0.8,0.2c-0.2,0.1-0.4,0.3-0.6,0.5c-0.2,0.2-0.3,0.5-0.4,0.8
			c-0.1,0.3-0.2,0.7-0.2,1.3c-0.1,0.5-0.1,1.1-0.1,1.6S282.2,83.4,282.2,84.3z"/>
		<path fill="#F9A21C" d="M291.9,89.2V76.8h2v12.4c0,0.8,0.2,1.4,0.5,1.7c0.3,0.4,0.7,0.5,1.2,0.5c0.4,0,0.8-0.1,1.3-0.4
			c0.5-0.3,0.9-0.7,1.3-1.2V76.8h1.9v15.8h-1.9v-1.5c-0.4,0.6-0.9,1.1-1.5,1.4s-1.2,0.5-1.8,0.5c-0.8,0-1.4-0.3-2-1
			C292.2,91.3,291.9,90.4,291.9,89.2z"/>
	</g>
	<g>
		<g>
			<path fill="#3D3D3D" d="M254.8,84.2c-0.4,0-0.8-0.2-1.1-0.4c-0.3-0.3-0.4-0.7-0.4-1.1c0-0.4,0.2-0.8,0.4-1.1
				c0.6-0.6,1.6-0.6,2.1,0c0.3,0.3,0.4,0.7,0.4,1.1c0,0.4-0.2,0.8-0.4,1.1C255.6,84.1,255.2,84.2,254.8,84.2z"/>
			<path fill="#3D3D3D" d="M248.5,82.7c0-0.8,0.7-1.5,1.5-1.5l0,0c0.8,0,1.5,0.7,1.5,1.5l0,0c0,0.8-0.7,1.5-1.5,1.5l0,0
				C249.1,84.2,248.5,83.6,248.5,82.7z M243.6,82.7c0-0.8,0.7-1.5,1.5-1.5l0,0c0.8,0,1.5,0.7,1.5,1.5l0,0c0,0.8-0.7,1.5-1.5,1.5l0,0
				C244.3,84.2,243.6,83.6,243.6,82.7z M238.8,82.7c0-0.8,0.7-1.5,1.5-1.5l0,0c0.8,0,1.5,0.7,1.5,1.5l0,0c0,0.8-0.7,1.5-1.5,1.5l0,0
				C239.4,84.2,238.8,83.6,238.8,82.7z M233.9,82.7c0-0.8,0.7-1.5,1.5-1.5l0,0c0.8,0,1.5,0.7,1.5,1.5l0,0c0,0.8-0.7,1.5-1.5,1.5l0,0
				C234.6,84.2,233.9,83.6,233.9,82.7z"/>
			<path fill="#3D3D3D" d="M230.6,84.2c-0.4,0-0.8-0.2-1.1-0.4c-0.3-0.3-0.4-0.7-0.4-1.1c0-0.4,0.2-0.8,0.4-1.1
				c0.6-0.6,1.6-0.6,2.1,0c0.3,0.3,0.4,0.7,0.4,1.1c0,0.4-0.2,0.8-0.4,1.1C231.3,84.1,231,84.2,230.6,84.2z"/>
		</g>
		<g>
			<path fill="#3D3D3D" d="M230.6,84.1c-0.4,0-0.8-0.2-1.1-0.4c-0.3-0.3-0.4-0.7-0.4-1.1c0-0.4,0.2-0.8,0.4-1.1
				c0.6-0.6,1.6-0.6,2.1,0c0.3,0.3,0.4,0.7,0.4,1.1c0,0.4-0.2,0.8-0.4,1.1C231.3,83.9,231,84.1,230.6,84.1z"/>
			<path fill="#3D3D3D" d="M233.2,80c-0.6-0.6-0.6-1.5,0-2.1l0,0c0.6-0.6,1.5-0.6,2.1,0l0,0c0.6,0.6,0.6,1.5,0,2.1l0,0
				c-0.3,0.3-0.7,0.4-1.1,0.4l0,0C233.9,80.4,233.5,80.3,233.2,80z"/>
			<path fill="#3D3D3D" d="M237.9,76.7c-0.4,0-0.8-0.2-1.1-0.4c-0.3-0.3-0.4-0.7-0.4-1.1c0-0.4,0.2-0.8,0.4-1.1
				c0.6-0.6,1.6-0.6,2.1,0c0.3,0.3,0.5,0.7,0.5,1.1c0,0.4-0.2,0.8-0.4,1.1C238.7,76.6,238.3,76.7,237.9,76.7z"/>
		</g>
		<g>
			<path fill="#3D3D3D" d="M230.8,84.4c-0.4,0-0.8-0.2-1.1-0.4c-0.3-0.3-0.4-0.7-0.4-1.1c0-0.4,0.2-0.8,0.4-1.1
				c0.6-0.6,1.6-0.5,2.1,0c0.3,0.3,0.4,0.7,0.4,1.1c0,0.4-0.2,0.8-0.4,1.1C231.6,84.2,231.2,84.4,230.8,84.4z"/>
			<path fill="#3D3D3D" d="M233.4,87.6c-0.6-0.6-0.6-1.5,0-2.1l0,0c0.6-0.6,1.5-0.6,2.1,0l0,0c0.6,0.6,0.6,1.5,0,2.1l0,0
				c-0.3,0.3-0.7,0.4-1.1,0.4l0,0C234.1,88.1,233.7,87.9,233.4,87.6z"/>
			<path fill="#3D3D3D" d="M238.2,91.7c-0.4,0-0.8-0.2-1.1-0.4s-0.4-0.7-0.4-1.1c0-0.4,0.2-0.8,0.4-1.1c0.6-0.6,1.6-0.6,2.1,0
				c0.3,0.3,0.4,0.7,0.4,1.1c0,0.4-0.2,0.8-0.4,1.1C239,91.6,238.6,91.7,238.2,91.7z"/>
		</g>
	</g>
	<g>
		<g>
			<path fill="#3D3D3D" d="M152.4,81.7c-0.4,0-0.8-0.2-1.1-0.4c-0.3-0.3-0.4-0.7-0.4-1.1c0-0.4,0.2-0.8,0.4-1.1
				c0.6-0.6,1.6-0.6,2.1,0c0.3,0.3,0.4,0.7,0.4,1.1c0,0.4-0.2,0.8-0.4,1.1C153.2,81.5,152.8,81.7,152.4,81.7z"/>
			<path fill="#3D3D3D" d="M146,80.2c0-0.8,0.7-1.5,1.5-1.5l0,0c0.8,0,1.5,0.7,1.5,1.5l0,0c0,0.8-0.7,1.5-1.5,1.5l0,0
				C146.7,81.7,146,81,146,80.2z M141.1,80.2c0-0.8,0.7-1.5,1.5-1.5l0,0c0.8,0,1.5,0.7,1.5,1.5l0,0c0,0.8-0.7,1.5-1.5,1.5l0,0
				C141.8,81.7,141.1,81,141.1,80.2z M136.3,80.2c0-0.8,0.7-1.5,1.5-1.5l0,0c0.8,0,1.5,0.7,1.5,1.5l0,0c0,0.8-0.7,1.5-1.5,1.5l0,0
				C136.9,81.7,136.3,81,136.3,80.2z M131.4,80.2c0-0.8,0.7-1.5,1.5-1.5l0,0c0.8,0,1.5,0.7,1.5,1.5l0,0c0,0.8-0.7,1.5-1.5,1.5l0,0
				C132,81.7,131.4,81,131.4,80.2z M126.5,80.2c0-0.8,0.7-1.5,1.5-1.5l0,0c0.8,0,1.5,0.7,1.5,1.5l0,0c0,0.8-0.7,1.5-1.5,1.5l0,0
				C127.2,81.7,126.5,81,126.5,80.2z M121.6,80.2c0-0.8,0.7-1.5,1.5-1.5l0,0c0.8,0,1.5,0.7,1.5,1.5l0,0c0,0.8-0.7,1.5-1.5,1.5l0,0
				C122.3,81.7,121.6,81,121.6,80.2z"/>
			<path fill="#3D3D3D" d="M118.2,81.7c-0.4,0-0.8-0.2-1.1-0.4c-0.3-0.3-0.4-0.7-0.4-1.1c0-0.4,0.2-0.8,0.4-1.1
				c0.5-0.6,1.6-0.6,2.1,0c0.3,0.3,0.4,0.7,0.4,1.1c0,0.4-0.2,0.8-0.4,1.1C119,81.5,118.6,81.7,118.2,81.7z"/>
		</g>
		<g>
			<path fill="#3D3D3D" d="M118.2,81.8c-0.4,0-0.8-0.2-1.1-0.4c-0.3-0.3-0.4-0.7-0.4-1.1c0-0.4,0.2-0.8,0.4-1.1
				c0.6-0.5,1.6-0.5,2.1,0c0.3,0.3,0.4,0.7,0.4,1.1c0,0.4-0.2,0.8-0.4,1.1C119,81.7,118.6,81.8,118.2,81.8z"/>
			<path fill="#3D3D3D" d="M120.8,85.1c-0.6-0.6-0.6-1.5,0-2.1l0,0c0.6-0.6,1.5-0.6,2.1,0l0,0c0.6,0.6,0.6,1.5,0,2.1l0,0
				c-0.3,0.3-0.7,0.4-1.1,0.4l0,0C121.5,85.5,121.1,85.4,120.8,85.1z"/>
			<path fill="#3D3D3D" d="M125.6,89.2c-0.4,0-0.8-0.2-1.1-0.4c-0.3-0.3-0.4-0.7-0.4-1.1c0-0.4,0.2-0.8,0.4-1.1
				c0.5-0.6,1.6-0.6,2.1,0c0.3,0.3,0.4,0.7,0.4,1.1s-0.2,0.8-0.4,1.1C126.4,89,126,89.2,125.6,89.2z"/>
		</g>
		<g>
			<path fill="#3D3D3D" d="M118.5,81.5c-0.4,0-0.8-0.2-1.1-0.4S117,80.4,117,80c0-0.4,0.2-0.8,0.4-1c0.5-0.6,1.6-0.6,2.1,0
				c0.3,0.3,0.4,0.7,0.4,1.1c0,0.4-0.2,0.8-0.4,1.1C119.3,81.4,118.9,81.5,118.5,81.5z"/>
			<path fill="#3D3D3D" d="M121.1,77.4c-0.6-0.6-0.6-1.5,0-2.1l0,0c0.6-0.6,1.5-0.6,2.1,0l0,0c0.6,0.6,0.6,1.5,0,2.1l0,0
				c-0.3,0.3-0.7,0.4-1,0.4l0,0C121.8,77.8,121.4,77.7,121.1,77.4z"/>
			<path fill="#3D3D3D" d="M125.9,74.2c-0.4,0-0.8-0.2-1.1-0.4c-0.3-0.3-0.4-0.7-0.4-1.1s0.2-0.8,0.4-1.1c0.6-0.6,1.6-0.6,2.1,0
				c0.3,0.3,0.4,0.7,0.4,1.1s-0.2,0.8-0.4,1.1C126.6,74,126.2,74.2,125.9,74.2z"/>
		</g>
	</g>
</g>
<g>
	<g>
		<path fill="#3D3D3D" d="M336.9,84c-0.4,0-0.8-0.2-1.1-0.4c-0.3-0.3-0.4-0.7-0.4-1.1c0-0.4,0.2-0.8,0.4-1.1c0.6-0.6,1.6-0.6,2.1,0
			c0.3,0.3,0.4,0.7,0.4,1.1c0,0.4-0.2,0.8-0.4,1.1C337.6,83.8,337.2,84,336.9,84z"/>
		<path fill="#3D3D3D" d="M331.6,83.9c-0.8,0-1.5-0.7-1.5-1.5l0,0c0-0.8,0.7-1.5,1.5-1.5l0,0c0.8,0,1.5,0.7,1.5,1.5l0,0
			C333.1,83.3,332.4,83.9,331.6,83.9L331.6,83.9L331.6,83.9z M324.9,82.4c0-0.8,0.7-1.5,1.5-1.5l0,0c0.8,0,1.5,0.7,1.5,1.5l0,0
			c0,0.8-0.7,1.5-1.5,1.5l0,0C325.6,83.9,324.9,83.3,324.9,82.4z M319.6,82.4c0-0.8,0.7-1.5,1.5-1.5l0,0c0.8,0,1.5,0.7,1.5,1.5l0,0
			c0,0.8-0.7,1.5-1.5,1.5l0,0C320.3,83.9,319.6,83.3,319.6,82.4z"/>
		<path fill="#3D3D3D" d="M315.9,83.9c-0.4,0-0.8-0.2-1.1-0.4s-0.4-0.7-0.4-1.1c0-0.4,0.2-0.8,0.4-1.1c0.5-0.6,1.6-0.6,2.1,0
			c0.3,0.3,0.4,0.7,0.4,1.1c0,0.4-0.2,0.8-0.4,1.1C316.7,83.8,316.3,83.9,315.9,83.9z"/>
	</g>
	<g>
		<path fill="#3D3D3D" d="M315.9,83.8c-0.4,0-0.8-0.2-1.1-0.4s-0.4-0.7-0.4-1.1c0-0.4,0.2-0.8,0.4-1.1c0.6-0.6,1.6-0.5,2.1,0
			c0.3,0.3,0.4,0.7,0.4,1.1c0,0.4-0.2,0.8-0.4,1.1C316.7,83.6,316.3,83.8,315.9,83.8z"/>
		<path fill="#3D3D3D" d="M318.5,79.7c-0.6-0.6-0.6-1.5,0-2.1l0,0c0.6-0.6,1.5-0.6,2.1,0l0,0c0.6,0.6,0.6,1.5,0,2.1l0,0
			c-0.3,0.3-0.7,0.4-1.1,0.4l0,0C319.2,80.1,318.8,80,318.5,79.7z"/>
		<path fill="#3D3D3D" d="M323.3,76.5c-0.4,0-0.8-0.2-1.1-0.4c-0.3-0.3-0.4-0.7-0.4-1.1c0-0.4,0.1-0.8,0.4-1.1
			c0.6-0.6,1.6-0.6,2.1,0c0.3,0.3,0.4,0.7,0.4,1.1c0,0.4-0.2,0.8-0.4,1.1C324,76.3,323.7,76.5,323.3,76.5z"/>
	</g>
	<g>
		<path fill="#3D3D3D" d="M316.2,84.1c-0.4,0-0.8-0.2-1.1-0.4c-0.3-0.3-0.4-0.7-0.4-1.1c0-0.4,0.2-0.8,0.4-1.1
			c0.6-0.6,1.6-0.6,2.1,0c0.3,0.3,0.4,0.7,0.4,1.1c0,0.4-0.2,0.8-0.4,1.1C317,83.9,316.6,84.1,316.2,84.1z"/>
		<path fill="#3D3D3D" d="M318.8,87.3c-0.6-0.6-0.6-1.5,0-2.1l0,0c0.6-0.6,1.5-0.6,2.1,0l0,0c0.6,0.6,0.6,1.5,0,2.1l0,0
			c-0.3,0.3-0.7,0.4-1.1,0.4l0,0C319.5,87.8,319.1,87.6,318.8,87.3z"/>
		<path fill="#3D3D3D" d="M323.5,91.5c-0.4,0-0.8-0.2-1.1-0.4c-0.3-0.3-0.4-0.7-0.4-1.1c0-0.4,0.2-0.8,0.4-1.1
			c0.6-0.6,1.6-0.6,2.1,0c0.3,0.3,0.5,0.7,0.5,1.1c0,0.4-0.2,0.8-0.5,1.1C324.3,91.3,323.9,91.5,323.5,91.5z"/>
	</g>
	<path fill="#3D3D3D" d="M335.4,82.5c0-0.8,0.7-1.5,1.5-1.5l0,0c0.8,0,1.5,0.7,1.5,1.5l0,0c0,0.8-0.7,1.5-1.5,1.5l0,0
		C336,84,335.4,83.3,335.4,82.5z M335.4,77.5c0-0.8,0.7-1.5,1.5-1.5l0,0c0.8,0,1.5,0.7,1.5,1.5l0,0c0,0.8-0.7,1.5-1.5,1.5l0,0
		C336,79,335.4,78.3,335.4,77.5z M335.4,72.5c0-0.8,0.7-1.5,1.5-1.5l0,0c0.8,0,1.5,0.7,1.5,1.5l0,0c0,0.8-0.7,1.5-1.5,1.5l0,0
		C336,74,335.4,73.3,335.4,72.5z M335.4,67.5c0-0.8,0.7-1.5,1.5-1.5l0,0c0.8,0,1.5,0.7,1.5,1.5l0,0c0,0.8-0.7,1.5-1.5,1.5l0,0
		C336,69,335.4,68.3,335.4,67.5z M335.4,62.5c0-0.8,0.7-1.5,1.5-1.5l0,0c0.8,0,1.5,0.7,1.5,1.5l0,0c0,0.8-0.7,1.5-1.5,1.5l0,0
		C336,64,335.4,63.3,335.4,62.5z M335.4,57.5c0-0.8,0.7-1.5,1.5-1.5l0,0c0.8,0,1.5,0.7,1.5,1.5l0,0c0,0.8-0.7,1.5-1.5,1.5l0,0
		C336,59,335.4,58.3,335.4,57.5z M335.4,52.5c0-0.8,0.7-1.5,1.5-1.5l0,0c0.8,0,1.5,0.7,1.5,1.5l0,0c0,0.8-0.7,1.5-1.5,1.5l0,0
		C336,54,335.4,53.3,335.4,52.5z M335.4,47.5c0-0.8,0.7-1.5,1.5-1.5l0,0c0.8,0,1.5,0.7,1.5,1.5l0,0c0,0.8-0.7,1.5-1.5,1.5l0,0
		C336,49,335.4,48.3,335.4,47.5z M335.4,42.5c0-0.8,0.7-1.5,1.5-1.5l0,0c0.8,0,1.5,0.7,1.5,1.5l0,0c0,0.8-0.7,1.5-1.5,1.5l0,0
		C336,44,335.4,43.3,335.4,42.5z M335.4,37.5c0-0.8,0.7-1.5,1.5-1.5l0,0c0.8,0,1.5,0.7,1.5,1.5l0,0c0,0.8-0.7,1.5-1.5,1.5l0,0
		C336,39,335.4,38.3,335.4,37.5z M335.4,32.5c0-0.8,0.7-1.5,1.5-1.5l0,0c0.8,0,1.5,0.7,1.5,1.5l0,0c0,0.8-0.7,1.5-1.5,1.5l0,0
		C336,34,335.4,33.3,335.4,32.5z M335.4,27.5c0-0.8,0.7-1.5,1.5-1.5l0,0c0.8,0,1.5,0.7,1.5,1.5l0,0c0,0.8-0.7,1.5-1.5,1.5l0,0
		C336,29,335.4,28.3,335.4,27.5z M335.4,22.5c0-0.8,0.7-1.5,1.5-1.5l0,0c0.8,0,1.5,0.7,1.5,1.5l0,0c0,0.8-0.7,1.5-1.5,1.5l0,0
		C336,24,335.4,23.3,335.4,22.5z"/>
	<path fill="#3D3D3D" d="M335.4,21.2c0-0.8,0.7-1.5,1.5-1.5l0,0c0.8,0,1.5,0.7,1.5,1.5l0,0c0,0.8-0.7,1.5-1.5,1.5l0,0
		C336,22.7,335.4,22,335.4,21.2z M330.4,21.2c0-0.8,0.7-1.5,1.5-1.5l0,0c0.8,0,1.5,0.7,1.5,1.5l0,0c0,0.8-0.7,1.5-1.5,1.5l0,0
		C331,22.7,330.4,22,330.4,21.2z M325.4,21.2c0-0.8,0.7-1.5,1.5-1.5l0,0c0.8,0,1.5,0.7,1.5,1.5l0,0c0,0.8-0.7,1.5-1.5,1.5l0,0
		C326,22.7,325.4,22,325.4,21.2z M320.4,21.2c0-0.8,0.7-1.5,1.5-1.5l0,0c0.8,0,1.5,0.7,1.5,1.5l0,0c0,0.8-0.7,1.5-1.5,1.5l0,0
		C321,22.7,320.4,22,320.4,21.2z M315.4,21.2c0-0.8,0.7-1.5,1.5-1.5l0,0c0.8,0,1.5,0.7,1.5,1.5l0,0c0,0.8-0.7,1.5-1.5,1.5l0,0
		C316,22.7,315.4,22,315.4,21.2z"/>
</g>
<path fill="#33486C" d="M94.5,103.4H40.3c-3.2,0-5.9-2.6-5.9-5.9V9.8c0-3.2,2.6-5.9,5.9-5.9h54.2c3.2,0,5.9,2.6,5.9,5.9v87.7
	C100.4,100.8,97.8,103.4,94.5,103.4z"/>
<path fill="#20325E" d="M94.5,103.4H40.3c-3.2,0-5.9-2.6-5.9-5.9V70.4l66-48.1v75.2C100.4,100.8,97.8,103.4,94.5,103.4z"/>
<path fill="#F3F3F3" d="M87.6,94.7H47.2c-2.5,0-4.5-2-4.5-4.5V16.5c0-2.5,2-4.5,4.5-4.5h40.4c2.5,0,4.5,2,4.5,4.5v73.7
	C92.1,92.7,90.1,94.7,87.6,94.7z"/>
<path fill="#EDECED" d="M42.7,91c1.7-0.1,21.8-22.2,20.8-22.9c2.8,0,28.7-51.2,28.7-48.7V91c0,2.5-2,4.5-4.5,4.5H47.2
	C44.7,95.5,42.7,94,42.7,91z"/>
<path fill="#DDDDDC" d="M42.7,91c1.7-0.1,33.4-12.1,32.4-12.8c2.8,0,17.1-61.3,17.1-58.8V91c0,2.5-2,4.5-4.5,4.5H47.2
	C44.7,95.5,42.7,94,42.7,91z"/>
<g>
	<polygon fill="#151515" points="0,103.9 28.7,103.9 28.7,124.5 0,124.5 11.8,114.1 	"/>
</g>
<polygon fill="#3E3B3B" points="26,121.4 28.7,124.5 28.7,121.4 "/>
<g>
	<polygon fill="#151515" points="134.8,104.1 106.1,104.1 106.1,124.7 134.8,124.7 123,114.2 	"/>
</g>
<polygon fill="#FFFFFF" points="26,121.4 108.8,121.6 108.8,98.8 26,98.8 "/>
<polygon fill="#3E3B3B" points="106.1,121.6 106.1,124.7 108.8,121.6 "/>
<polygon fill="#151515" points="26,121.4 108.8,121.6 108.8,98.8 26,98.8 "/>
<g>
	
		<image overflow="visible" opacity="0.6" width="312" height="138" xlink:href="C6DB638E.png"  transform="matrix(0.24 0 0 0.24 30.2481 96.6904)">
	</image>
	<g>
		<g>
			<path fill="#FDFEFF" d="M41.7,116.5v-11.9h-2.5v-0.9h6.1v0.9h-2.5v11.9H41.7z"/>
			<path fill="#FDFEFF" d="M48.9,112.4v-1.2c0-0.6,0-1.2,0.1-1.6c0.1-0.5,0.2-0.8,0.3-1.1c0.1-0.3,0.3-0.5,0.5-0.6
				c0.2-0.2,0.4-0.3,0.7-0.3s0.5-0.1,0.8-0.1c0.8,0,1.4,0.3,1.7,0.8c0.3,0.6,0.5,1.5,0.5,2.7c0,0.4,0,0.7,0,0.9H50v1.4
				c0,0.6,0,1.1,0.1,1.4s0.1,0.7,0.3,0.8c0.1,0.2,0.3,0.3,0.4,0.4s0.3,0.1,0.6,0.1c0.3,0,0.6-0.2,0.8-0.5c0.2-0.3,0.3-0.9,0.3-1.7h1
				c0,0.3-0.1,0.6-0.1,0.9c0,0.3-0.1,0.5-0.2,0.8c-0.1,0.3-0.2,0.5-0.4,0.7s-0.4,0.3-0.6,0.4c-0.2,0.1-0.5,0.2-0.9,0.2
				c-0.6,0-1.1-0.1-1.5-0.4c-0.3-0.3-0.6-0.7-0.8-1.3C49,114.4,48.9,113.5,48.9,112.4z M50,111.2h2.5c0-0.2,0-0.4,0-0.6s0-0.4,0-0.6
				c0-0.2,0-0.4,0-0.6c0-0.2-0.1-0.4-0.1-0.5s-0.1-0.3-0.2-0.4c-0.1-0.1-0.2-0.2-0.3-0.3c-0.1-0.1-0.3-0.1-0.4-0.1
				c-0.3,0-0.5,0-0.7,0.1c-0.2,0.1-0.3,0.2-0.4,0.3c-0.1,0.1-0.2,0.4-0.2,0.7s-0.1,0.6-0.1,0.8C50,110.4,50,110.7,50,111.2z"/>
			<path fill="#FDFEFF" d="M58.4,116.5v-12.8h1.1v12.8H58.4z"/>
			<path fill="#FDFEFF" d="M64.6,116.5v-12.8h1.1v12.8H64.6z"/>
			<path fill="#FDFEFF" d="M70.4,118.7v-0.9c0.6,0,1-0.1,1.3-0.3s0.4-0.4,0.4-0.7c0-0.4,0-0.7-0.1-1.1l-1.9-8.2h1.1l1.5,7.4l1.5-7.4
				h1.1l-2.2,9.5c-0.1,0.6-0.4,1-0.9,1.2C71.9,118.5,71.3,118.6,70.4,118.7L70.4,118.7z"/>
			<path fill="#3F709A" d="M82.7,116.5v-12.8h4.5v0.9h-3.3v4.8h2.4v0.9h-2.4v5.3h3.3v0.9H82.7z"/>
			<path fill="#3F709A" d="M90.8,116.5l1.9-4.6l-1.9-4.2H92l1.5,3.7l1.5-3.7h1.1l-1.9,4.2l1.9,4.6H95l-1.5-4l-1.5,4H90.8z"/>
		</g>
	</g>
</g>
<g>
	<g>
		<path fill="#FAA31E" d="M218.9,66.4v27.8c0,1.4-1.3,2.5-2.9,2.5h-44.5c-1.6,0-2.9-1.1-2.9-2.5V66.4c0-1.4,1.3-2.5,2.9-2.5h44.5
			C217.5,63.9,218.9,65,218.9,66.4z"/>
		<path fill="#F29922" d="M178.4,63.9h37.5c1.6,0,2.9,1.1,2.9,2.5v27.8c0,1.4-1.3,2.5-2.9,2.5h-15.2"/>
		<path fill="#F3F3F3" d="M212.8,69.4v21.8c0,1.1-1,2-2.3,2h-36.3c-1.2,0-2.3-0.9-2.3-2V69.4c0-1.1,1-2,2.3-2h36.3
			C211.9,67.5,212.8,68.4,212.8,69.4z"/>
		<g>
			
				<polyline fill="none" stroke="#C2C1C1" stroke-width="0.25" stroke-linecap="round" stroke-linejoin="round" stroke-miterlimit="10" points="
				185,93 182.3,89.9 187.2,89.3 186.1,88.5 184.9,88.5 184.2,85.3 186.4,83.9 184.7,79.1 182.9,79.1 181.7,75.8 183.2,76.2 
				183.9,74.1 186.6,73.3 188.3,70.4 188.3,68.7 191.6,68.7 192,67.7 194.4,67.6 			"/>
			
				<polyline fill="none" stroke="#C2C1C1" stroke-width="0.25" stroke-linecap="round" stroke-linejoin="round" stroke-miterlimit="10" points="
				182.1,77.1 177.9,75.3 176.8,76.2 176.2,73.6 175.6,70.4 173.2,71.9 172.2,69.3 			"/>
		</g>
		<g>
			<rect x="180.9" y="85.2" fill="#231F20" width="1.4" height="1.2"/>
			<rect x="183.7" y="85.2" fill="#231F20" width="1.4" height="1.2"/>
			<rect x="182.3" y="84" fill="#231F20" width="1.4" height="1.2"/>
			<rect x="180.9" y="82.8" fill="#231F20" width="1.4" height="1.2"/>
			<rect x="183.7" y="82.8" fill="#231F20" width="1.4" height="1.2"/>
			<rect x="180.9" y="76.3" fill="#231F20" width="1.4" height="1.2"/>
			<rect x="183.7" y="76.3" fill="#231F20" width="1.4" height="1.2"/>
			<rect x="182.3" y="75.1" fill="#231F20" width="1.4" height="1.2"/>
			<rect x="180.9" y="73.9" fill="#231F20" width="1.4" height="1.2"/>
			<rect x="183.7" y="73.9" fill="#231F20" width="1.4" height="1.2"/>
			<rect x="191.8" y="80.8" fill="#231F20" width="1.4" height="1.2"/>
			<rect x="191.8" y="79.6" fill="#231F20" width="1.4" height="1.2"/>
			<rect x="191.8" y="78.4" fill="#231F20" width="1.4" height="1.2"/>
		</g>
		<g>
			
				<polyline fill="none" stroke="#C2C1C1" stroke-width="0.25" stroke-linecap="round" stroke-linejoin="round" stroke-miterlimit="10" points="
				197.7,88.2 199.2,86.5 199.7,86 201.5,87.3 203.4,85.8 204.2,84.6 205.8,86.5 206.6,85.4 206.2,84.5 209,84.5 210.4,84.5 
				211.6,83.3 			"/>
			
				<line fill="none" stroke="#C2C1C1" stroke-width="0.25" stroke-linecap="round" stroke-linejoin="round" stroke-miterlimit="10" x1="197.9" y1="85" x2="199.2" y2="86.5"/>
			
				<path fill="none" stroke="#C2C1C1" stroke-width="0.25" stroke-linecap="round" stroke-linejoin="round" stroke-miterlimit="10" d="
				M209.8,87.5l-0.8-2.9L209.8,87.5z"/>
			
				<line fill="none" stroke="#C2C1C1" stroke-width="0.25" stroke-linecap="round" stroke-linejoin="round" stroke-miterlimit="10" x1="211.1" y1="87.7" x2="209.8" y2="87.5"/>
		</g>
		
			<polyline fill="none" stroke="#C2C1C1" stroke-width="0.25" stroke-linecap="round" stroke-linejoin="round" stroke-miterlimit="10" points="
			200.2,78.9 199.2,77.4 198.5,76.6 199.8,75.3 198.8,75 200.6,74.9 198.2,73.6 200.5,73.5 201.6,73.2 		"/>
		
			<polyline fill="none" stroke="#C2C1C1" stroke-width="0.25" stroke-linecap="round" stroke-linejoin="round" stroke-miterlimit="10" points="
			200.9,67.5 199.7,68.1 199.6,68.9 198.5,69.8 199.2,70.4 198.6,71.1 198.2,71.7 198.2,71.7 		"/>
		<g>
			<path fill="#E2BC78" d="M201.6,62.6v35.5c0,2.5,2.7,4.4,5.9,4.4c3.3,0,5.9-2,5.9-4.4V62.6c0-2.4-2.7-4.3-5.9-4.3
				C204.2,58.1,201.6,60.1,201.6,62.6z"/>
			<rect x="203.9" y="62.6" fill="#E2B588" width="6.8" height="35.3"/>
			<path fill="#E3C7A1" d="M211.9,75.9v9c0,0.3-0.3,0.7-0.7,0.7h-7.3c-0.4,0-0.7-0.3-0.7-0.7v-9c0-0.3,0.3-0.7,0.7-0.7h7.2
				C211.6,75.3,211.9,75.5,211.9,75.9z"/>
			<path fill="#E3C7A1" d="M205.5,77.2c-0.2,0.1-0.3,0.1-0.5,0.2c-1.2,0.7-1.5,2.1,0.3,3c-1.7,0.9-1.5,2.4-0.3,3
				c0.2,0.1,0.3,0.1,0.5,0.2c0.9,0.1,3.2,0.2,5.8-3.2C208.7,77,206.2,77,205.5,77.2z"/>
			<g>
				<g>
					<ellipse fill="#E49F67" cx="205.4" cy="95.4" rx="0.8" ry="0.7"/>
					<ellipse fill="#E49F67" cx="205.4" cy="93.4" rx="0.8" ry="0.7"/>
					<ellipse fill="#E49F67" cx="205.4" cy="89.5" rx="0.8" ry="0.7"/>
					<ellipse fill="#E49F67" cx="205.4" cy="91.5" rx="0.8" ry="0.7"/>
				</g>
				<g>
					<ellipse fill="#E49F67" cx="207.4" cy="95.4" rx="0.8" ry="0.7"/>
					<ellipse fill="#E49F67" cx="207.4" cy="93.4" rx="0.8" ry="0.7"/>
					<ellipse fill="#E49F67" cx="207.4" cy="89.5" rx="0.8" ry="0.7"/>
					<ellipse fill="#E49F67" cx="207.4" cy="91.5" rx="0.8" ry="0.7"/>
				</g>
				<g>
					<ellipse fill="#E49F67" cx="209.4" cy="95.4" rx="0.8" ry="0.7"/>
					<ellipse fill="#E49F67" cx="209.4" cy="93.4" rx="0.8" ry="0.7"/>
					<ellipse fill="#E49F67" cx="209.4" cy="89.5" rx="0.8" ry="0.7"/>
					<ellipse fill="#E49F67" cx="209.4" cy="91.5" rx="0.8" ry="0.7"/>
				</g>
			</g>
			<g>
				<g>
					<ellipse fill="#E49F67" cx="205.4" cy="70.9" rx="0.8" ry="0.7"/>
					<ellipse fill="#E49F67" cx="205.4" cy="69" rx="0.8" ry="0.7"/>
					<ellipse fill="#E49F67" cx="205.4" cy="65.1" rx="0.8" ry="0.7"/>
					<ellipse fill="#E49F67" cx="205.4" cy="67.1" rx="0.8" ry="0.7"/>
				</g>
				<g>
					<ellipse fill="#E49F67" cx="207.4" cy="70.9" rx="0.8" ry="0.7"/>
					<ellipse fill="#E49F67" cx="207.4" cy="69" rx="0.8" ry="0.7"/>
					<ellipse fill="#E49F67" cx="207.4" cy="65.1" rx="0.8" ry="0.7"/>
					<ellipse fill="#E49F67" cx="207.4" cy="67.1" rx="0.8" ry="0.7"/>
				</g>
				<g>
					<ellipse fill="#E49F67" cx="209.5" cy="70.9" rx="0.8" ry="0.7"/>
					<ellipse fill="#E49F67" cx="209.5" cy="69" rx="0.8" ry="0.7"/>
					<ellipse fill="#E49F67" cx="209.5" cy="65.1" rx="0.8" ry="0.7"/>
					<ellipse fill="#E49F67" cx="209.5" cy="67.1" rx="0.8" ry="0.7"/>
				</g>
			</g>
		</g>
		
			<path fill="none" stroke="#303030" stroke-width="0.25" stroke-linecap="round" stroke-linejoin="round" stroke-miterlimit="10" d="
			M174.9,90.7c0.4,0.7-0.2,1.6-1,1.6c-0.9,0.1-1.6-0.9-1.2-1.6c1,0.5,1.6,1.6,1.2,2.6c-0.3,0.6-0.8,1.1-1.4,1.3
			c-0.7,0.3-1.6,0.1-2.2-0.3c-0.7-0.5-1-0.9-1-0.9c-0.3-0.3-0.6-1.3-0.1-1.7c0.3-0.3,0.8-0.3,1.1-0.1c0.3,0.1,0.7,0.4,0.9,0.7
			c0.8,0.9,1.3,1.9,1.6,2.9c0.3,1.1,0.1,2.6-1.5,3c-0.5,0.1-1,0.1-1.4,0c-1.2-0.3-2.1-0.9-2.9-1.6c-0.3-0.3-0.5-0.7-0.6-1.2
			c0,0-0.1-0.4-0.1-1.1"/>
		<path fill="#FAA31E" d="M171.7,68.3v3.5c0,0.2-0.1,0.3-0.2,0.3h-3.3c-0.1,0-0.2-0.1-0.2-0.3v-3.5c0-0.2,0.1-0.3,0.2-0.3h3.3
			C171.7,68,171.7,68.1,171.7,68.3z"/>
		<path fill="#FAA31E" d="M179.1,94.9v2c0,0.1-0.1,0.2-0.3,0.2h-3.9c-0.1,0-0.3-0.1-0.3-0.2v-2c0-0.1,0.1-0.2,0.3-0.2h3.9
			C179.1,94.7,179.1,94.8,179.1,94.9z"/>
		<path fill="#FAA31E" d="M184.8,94.9v2c0,0.1-0.1,0.2-0.3,0.2h-3.9c-0.1,0-0.3-0.1-0.3-0.2v-2c0-0.1,0.1-0.2,0.3-0.2h3.9
			C184.7,94.7,184.8,94.8,184.8,94.9z"/>
		<rect x="215.8" y="75.5" fill="#E08626" width="1" height="9.5"/>
	</g>
	<g>
		<rect x="204.2" y="79.4" fill="#DD2227" stroke="#DD2227" stroke-miterlimit="10" width="2.3" height="2"/>
		<rect x="206.5" y="79.4" fill="#DD2227" stroke="#DD2227" stroke-miterlimit="10" width="2.3" height="2"/>
		<rect x="206.5" y="77.4" fill="#DD2227" stroke="#DD2227" stroke-miterlimit="10" width="2.3" height="2"/>
		<rect x="206.5" y="81.4" fill="#DD2227" stroke="#DD2227" stroke-miterlimit="10" width="2.3" height="2"/>
		<rect x="208.8" y="79.4" fill="#DD2227" stroke="#DD2227" stroke-miterlimit="10" width="2.3" height="2"/>
	</g>
</g>
<g>
	<path fill="#51449B" d="M167.5,35.4V7.7c0-1.4,1.3-2.5,2.9-2.5h44.5c1.6,0,2.9,1.1,2.9,2.5v27.8c0,1.4-1.3,2.5-2.9,2.5h-44.5
		C168.9,37.9,167.5,36.8,167.5,35.4z"/>
	<path fill="#3D3E7C" d="M208,37.9h-37.5c-1.6,0-2.9-1.1-2.9-2.5V7.7c0-1.4,1.3-2.5,2.9-2.5h15.2"/>
	<path fill="#F3F3F3" d="M173.5,32.4V10.6c0-1.1,1-2,2.3-2h36.3c1.2,0,2.3,0.9,2.3,2v21.8c0,1.1-1,2-2.3,2h-36.3
		C174.5,34.4,173.5,33.5,173.5,32.4z"/>
	<rect x="169.5" y="16.9" fill="#34376B" width="1" height="9.5"/>
	<polygon fill="#FFFFFF" stroke="#D6D6D6" stroke-width="0.5" stroke-miterlimit="10" points="213.6,5.8 209.5,7.5 213.8,8.4 
		212.9,10.3 214.7,8.8 216.4,13.3 216.9,8.4 219.1,9.2 217.9,7.6 221.5,5.8 217.6,5.4 218.4,3.3 216.6,4.8 214.6,0.7 214.3,4.8 
		212.5,4 	"/>
</g>
<g>
	<rect x="202.5" y="15.4" fill="#231F20" width="1.4" height="1.2"/>
	<rect x="203.9" y="16.6" fill="#231F20" width="1.4" height="1.2"/>
	<rect x="202.5" y="17.8" fill="#231F20" width="1.4" height="1.2"/>
	<rect x="202.5" y="24.3" fill="#231F20" width="1.4" height="1.2"/>
	<rect x="203.9" y="25.5" fill="#231F20" width="1.4" height="1.2"/>
	<rect x="202.5" y="26.7" fill="#231F20" width="1.4" height="1.2"/>
	<rect x="194.5" y="19.8" fill="#231F20" width="1.4" height="1.2"/>
	<rect x="194.5" y="21" fill="#231F20" width="1.4" height="1.2"/>
	<rect x="194.5" y="22.2" fill="#231F20" width="1.4" height="1.2"/>
</g>
</svg>
