<svg xmlns="http://www.w3.org/2000/svg" viewBox="825.1 700 61.6 100"><path fill="#32476B" d="M881.3 800h-50.7c-3 0-5.5-2.6-5.5-5.9v-88.3c0-3.2 2.5-5.9 5.5-5.9h50.7c3 0 5.5 2.6 5.5 5.9V794c0 3.4-2.5 6-5.5 6z"/><path fill="#20315E" d="M881.2 800h-50.7c-3 0-5.5-2.6-5.5-5.9v-27.3l61.6-48.4v75.7c.1 3.3-2.3 5.9-5.4 5.9z"/><path fill="#F2F2F2" d="M874.8 792.1h-37.7c-2.3 0-4.2-2-4.2-4.6v-74.9c0-2.5 1.9-4.6 4.2-4.6h37.8c2.3 0 4.2 2 4.2 4.6v74.9c-.1 2.6-2 4.6-4.3 4.6z"/><path fill="#EDECED" d="M832.8 787.6c1.6-.1 20.4-22.3 19.4-23 2.6 0 26.7-51.6 26.7-49v72c0 2.5-1.9 4.6-4.2 4.6H837c-2.3-.1-4.2-1.6-4.2-4.6z"/><path fill="#DDDDDC" d="M832.8 787.6c1.6-.1 31.2-12.2 30.3-12.9 2.6 0 15.9-61.6 15.9-59.1v72c0 2.5-1.9 4.6-4.2 4.6h-37.7c-2.4-.1-4.3-1.6-4.3-4.6z"/></svg>