<svg xmlns="http://www.w3.org/2000/svg" viewBox="0 0 45.5 57.6"><path fill="#666" d="M.066 25.4h11.926v12.086H.066V25.4z"/><path fill="#E31082" d="M26.622 2.82h1.272c8.27 0 12.086 4.77 13.676 17.332l2.545-.16-.318-20.035H1.815l-.477 20.036 2.385.16c.477-4.77.955-7.316 2.068-9.86C7.7 5.523 11.834 2.82 16.764 2.82h1.75v43.57c0 4.612-.32 6.044-1.273 7.157-.795.795-2.544 1.272-4.452 1.272h-1.91v2.86h23.377v-2.86h-1.908c-1.908 0-3.657-.32-4.453-1.273-.954-1.113-1.272-2.545-1.272-7.156V2.82"/><path fill="#666" d="M33.62 25.4h11.926v12.086H33.62V25.4z"/></svg>