<svg xmlns="http://www.w3.org/2000/svg" viewBox="0 0 55 55"><path fill="#FFF" d="M4 8.1h47.2v40.8H4z"/><path fill="#60A8DC" d="M52 0H3C1.4 0 0 1.4 0 3v49c0 1.7 1.4 3 3 3h49c1.7 0 3-1.4 3-3V3c0-1.6-1.3-3-3-3zm-6.7 19.6v1.1c0 11.6-8.8 24.9-24.9 24.9-4.9 0-9.5-1.4-13.4-3.9.7.1 1.4.1 2.1.1 4.1 0 7.9-1.4 10.9-3.8-3.8-.1-7.1-2.6-8.2-6.1.5.1 1.1.2 1.6.2.8 0 1.6-.1 2.3-.3-4-.8-7-4.3-7-8.6v-.1c1.2.7 2.5 1.1 4 1.1-2.4-1.5-4-4.2-4-7.2 0-1.6.4-3.1 1.2-4.4 4.3 5.3 10.8 8.8 18 9.2-.1-.6-.2-1.3-.2-2 0-4.8 3.9-8.8 8.8-8.8 2.5 0 4.8 1.1 6.4 2.8 2-.4 3.9-1.1 5.6-2.1-.7 2-2 3.8-3.9 4.8 1.8-.2 3.5-.7 5-1.4-1.1 1.8-2.6 3.3-4.3 4.5z"/></svg>