<svg xmlns="http://www.w3.org/2000/svg" viewBox="284.9 412.6 32.9 68.1"><path fill="#2D2D2D" d="M292.7 462.8v-14.4c1.6-1.1 3.1-2.4 4.6-3.8 1.4-1.4 2.8-2.9 4.1-4.6 1.3-1.7 2.3-3.5 3-5.5.7-2 1.1-4 1.1-5.9 0-1.7-.4-3-1.2-3.9s-1.9-1.3-3.4-1.3c-1.4 0-2.4.6-3.1 1.7-.7 1.1-1 2.5-1 4.2 0 1.5.2 3.1.7 4.6l-11.5 2.2c-.7-2.7-1.1-5.3-1.1-7.8 0-4.8 1.3-8.6 4-11.5 2.7-2.9 6.7-4.4 12-4.4 5.4 0 9.5 1.4 12.5 4.4 2.9 2.9 4.4 7 4.4 12.4 0 4.8-1.1 9.2-3.4 13.4-2.3 4.1-5.4 7.3-9.5 9.7v10.4l-12.2.1zm0 17.8v-12h12.2v12h-12.2z"/></svg>