<svg xmlns="http://www.w3.org/2000/svg" viewBox="42 178 54.5 81.3"><g fill="#2D2D2D"><path d="M87.6 210.3H51c-4.9 0-9 4-9 9v31.1c0 4.9 4 9 9 9h36.6c4.9 0 9-4 9-9v-31.1c-.1-5-4.1-9-9-9zm-16.4 26l2.4 6c.2.4-.1.8-.5.8h-7.7c-.4 0-.7-.4-.5-.8l2.4-6c.1-.2 0-.4-.2-.6-1.4-.7-2.4-2.2-2.5-3.9-.1-2.7 2-5.2 4.7-5.2s4.9 2.1 4.9 4.8c0 1.9-1.1 3.4-2.6 4.3-.4.1-.5.4-.4.6zM79.1 178H59.4c-5.1 0-9.2 4.1-9.2 9.2v12.7c0 .5.5 1 1 1h5.7c.5 0 1.1-.5 1.1-1.1V198c0-.2-.1-.2-.2-.2h-2.5c-.1 0-.2-.1-.1-.2l2.7-2.7c.1-.1.1-.2.1-.2v-6.9c0-1.2 1-2.2 2.2-2.2h18.3c1.2 0 2.2 1 2.2 2.2v17.8c0 .8.7 1.5 1.5 1.5h4.7c.8 0 1.5-.7 1.5-1.5v-18.4c-.1-5.1-4.2-9.2-9.3-9.2z"/></g></svg>