<svg xmlns="http://www.w3.org/2000/svg" viewBox="1063.3 0 216.7 800"><path fill="#F9A21C" d="M1198.5 68.3h-2.9v-.5c0-.2-.2-.5-.7-.5h-6.3c-.5 0-.7 0-.7.5v.5h-40.7c-2.7 0-4.6 2.4-4.6 5.6V80h-.5c-.2 0-.5.2-.5.5v7.3c0 .2.2.5.5.5h.5v2.4h-.5c-.2 0-.5.2-.5.5v7.3c0 .2.2.5.5.5h.5v57.6c0 3.1 2.2 5.6 4.6 5.6h51.3c2.7 0 4.6-2.7 4.6-5.6V74.1c0-3.4-1.9-5.8-4.6-5.8z"/><path fill="#F29821" d="M1203.1 86.4v69.2c0 3.1-2.2 5.6-4.6 5.6h-51.3c-2.7 0-4.6-2.4-4.6-5.6v-28.1"/><path fill="#F2F2F2" d="M1192.9 150.1h-40.2c-2.2 0-3.6-1.9-3.6-4.4V78.9c0-2.4 1.7-4.4 3.6-4.4h40.4c2.2 0 3.6 1.9 3.6 4.4v67c-.1 2.5-1.8 4.2-3.8 4.2z"/><g fill="none" stroke="#C1C1C1" stroke-width=".25" stroke-linecap="round" stroke-linejoin="round" stroke-miterlimit="10"><path d="M1158.3 122l3.2 2.9.9 1-2.4 3.4 2.7 3.3 2.4 1.5-3.6 2.9 1.9 1.5 1.7-.8V145.5l2.4 2.4M1164.4 122.5l-2.9 2.4M1159.5 144.5l5.6-1.5-5.6 1.5zM1159.3 146.9l.2-2.4"/></g><path fill="none" stroke="#C1C1C1" stroke-width=".25" stroke-linecap="round" stroke-linejoin="round" stroke-miterlimit="10" d="M1175.5 126.8l2.9-1.9 1.5-1.2 2.1 2.4.8-1.9v3.4l2.4-4.4.2 4.1.7 2M1196.6 128l-1-2.1-1.7-.3-1.5-1.9-1.2 1.2-1.2-1.2-1.2-.5"/><path fill="#E2BC78" d="M1205.8 129.3h-65.6c-4.6 0-8.2 5.1-8.2 10.9 0 6.1 3.9 10.9 8.2 10.9h65.6c4.6 0 8-5.1 8-10.9.2-6.1-3.7-10.9-8-10.9z"/><path fill="#E2B588" d="M1140.4 133.6h65.4v12.6h-65.4z"/><path fill="#E4C7A1" d="M1181.1 148.4h-16.7c-.7 0-1.2-.7-1.2-1.5v-13.6c0-.7.5-1.5 1.2-1.5h16.7c.7 0 1.2.7 1.2 1.5v13.3c0 1.3-.5 1.8-1.2 1.8z"/><g fill="#E39E66"><ellipse cx="1145" cy="136.3" rx="1.2" ry="1.5"/><ellipse cx="1148.6" cy="136.3" rx="1.2" ry="1.5"/><ellipse cx="1155.9" cy="136.3" rx="1.2" ry="1.5"/><ellipse cx="1152.3" cy="136.3" rx="1.2" ry="1.5"/><g><ellipse cx="1145" cy="140.2" rx="1.2" ry="1.5"/><ellipse cx="1148.6" cy="140.2" rx="1.2" ry="1.5"/><ellipse cx="1155.9" cy="140.2" rx="1.2" ry="1.5"/><ellipse cx="1152.3" cy="140.2" rx="1.2" ry="1.5"/></g><g><ellipse cx="1145" cy="143.8" rx="1.2" ry="1.5"/><ellipse cx="1148.6" cy="143.8" rx="1.2" ry="1.5"/><ellipse cx="1155.9" cy="143.8" rx="1.2" ry="1.5"/><ellipse cx="1152.3" cy="143.8" rx="1.2" ry="1.5"/></g></g><g fill="#E39E66"><ellipse cx="1190.3" cy="136.5" rx="1.2" ry="1.5"/><ellipse cx="1193.9" cy="136.5" rx="1.2" ry="1.5"/><ellipse cx="1200.9" cy="136.5" rx="1.2" ry="1.5"/><ellipse cx="1197.3" cy="136.5" rx="1.2" ry="1.5"/><g><ellipse cx="1190.3" cy="140.2" rx="1.2" ry="1.5"/><ellipse cx="1193.9" cy="140.2" rx="1.2" ry="1.5"/><ellipse cx="1200.9" cy="140.2" rx="1.2" ry="1.5"/><ellipse cx="1197.3" cy="140.2" rx="1.2" ry="1.5"/></g><g><ellipse cx="1190.3" cy="144" rx="1.2" ry="1.5"/><ellipse cx="1193.9" cy="144" rx="1.2" ry="1.5"/><ellipse cx="1200.9" cy="144" rx="1.2" ry="1.5"/><ellipse cx="1197.3" cy="144" rx="1.2" ry="1.5"/></g></g><g fill="none" stroke="#C1C1C1" stroke-width=".25" stroke-linecap="round" stroke-linejoin="round" stroke-miterlimit="10"><path d="M1149.4 98.8l5.8-5.1.9 8.9 1.7-1.9v-2.2l5.8-1.4 2.7 4.1 9-3.2v-3.1l6-2.4-1 2.9 3.9 1.2 1.7 5.1 5.3 3.1h3.2v6.1l1.9.7v4.3"/><path d="M1178.9 93.4l3.4-7.7-1.7-2.2 4.6-1.2 6-1-2.9-4.6 4.9-1.7"/></g><g fill="#231F20"><path d="M1161.7 91h2.2v2.7h-2.2zM1161.7 96.3h2.2V99h-2.2zM1163.9 93.7h2.2v2.7h-2.2zM1166.1 91h2.2v2.7h-2.2z"/><path d="M1166.1 96.3h2.2V99h-2.2zM1178.2 91h2.2v2.7h-2.2zM1178.2 96.3h2.2V99h-2.2z"/><path d="M1180.3 93.7h2.2v2.7h-2.2zM1182.5 91h2.2v2.7h-2.2zM1182.5 96.3h2.2V99h-2.2zM1169.7 111.1h2.2v2.7h-2.2zM1172.1 111.1h2.2v2.7h-2.2zM1174.3 111.1h2.2v2.7h-2.2z"/></g><path fill="none" stroke="#303030" stroke-width=".25" stroke-linecap="round" stroke-linejoin="round" stroke-miterlimit="10" d="M1153.7 79.9c-1.2.7-2.9-.5-3.1-1.9s1.7-3.1 2.9-2.4c-1 1.9-3.1 3.1-4.8 2.4-1.2-.5-2.2-1.5-2.4-2.7-.5-1.5-.2-2.9.5-4.1 1-1.2 1.7-1.9 1.7-1.9.7-.7 2.4-1.2 3.1 0 .5.7.5 1.5.2 2.2-.2.7-.7 1.2-1.2 1.7-1.7 1.5-3.6 2.4-5.6 3.1-2.2.5-4.8 0-5.6-2.9-.2-1-.2-1.9 0-2.7.5-2.2 1.7-3.9 2.9-5.3.7-.7 1.5-1 2.2-1.2 0 0 .7-.2 2.2-.2"/><path fill="#E08624" d="M1164.4 155.6h17.7v1.9h-17.7z"/><g fill="#DE1F26" stroke="#DE1F26" stroke-miterlimit="10"><path d="M1170.9 134.1h3.6v4.4h-3.6zM1170.9 138.5h3.6v4.4h-3.6zM1174.5 138.5h3.6v4.4h-3.6zM1167.3 138.5h3.6v4.4h-3.6z"/><path d="M1170.9 142.6h3.6v4.4h-3.6z"/></g><g fill="#F9A11C"><path d="M1151.8 36.8V25.4L1144 0h3.1c.2 1 .7 2.4 1.2 4.4s1 3.9 1.7 5.6c.5 1.9 1.2 3.9 1.7 5.6s1 3.1 1.2 4.4l.5 1.7c1-3.4 1.9-7 3.1-11.1 1.2-3.9 2.2-7.5 2.9-10.4h3.1l-7.7 25.4V37h-3v-.2zM1164.6 24.7v-1.5-2.7s0-1.5.2-2.4c0-1 .2-1.9.2-2.4.2-.5.5-1.2.7-1.9.2-.7.7-1.2 1.2-1.7s1-.7 1.7-1c.7-.2 1.5-.5 2.4-.5 1 0 1.7.2 2.4.5.7.2 1.2.7 1.7 1 .5.5 1 1 1.2 1.7.2.7.5 1.5.7 1.9.2.5.2 1.5.2 2.4 0 1 .2 1.9.2 2.4v8c0 1 0 1.5-.2 1.9 0 .5-.2 1-.2 1.7-.2.7-.2 1.2-.5 1.7-.2.5-.5.7-.7 1.2-.2.5-.7.7-1.2 1s-1 .5-1.5.5c-.5.2-1.2.2-1.9.2s-1.5 0-1.9-.2c-.5-.2-1.2-.5-1.5-.5-.5-.2-.7-.5-1.2-1-.2-.5-.7-1-.7-1.2-.2-.5-.5-1-.5-1.7s-.2-1.2-.2-1.7-.2-1.2-.2-1.9v-1.9c-.4-.2-.4-.9-.4-1.9zm3.1-1.5v1.2c0 4.1.2 6.8.7 8.2.5 1.5 1.5 2.2 2.9 2.2s2.4-.7 2.9-2.2.7-4.4.7-8.2v-1.2-3.4s0-1.7-.2-2.7c0-1-.2-1.5-.5-1.9-.2-.5-.5-1-.7-1.5-.2-.5-.5-.7-1-.7-.5-.2-.7-.2-1.5-.2-.5 0-1 0-1.5.2s-.7.5-1 .7c-.2.5-.5.7-.7 1.5-.2.5-.2 1.2-.5 1.9 0 1-.2 1.7-.2 2.7.6 1 .6 2.2.6 3.4zM1183.5 31.2V11.1h3.1v20.3c0 1.2.2 2.2.7 2.7s1.2 1 1.9 1 1.5-.2 2.2-.7 1.5-1.2 2.2-1.9V11.1h3.1v25.7h-3.1v-2.4c-.7 1-1.5 1.7-2.4 2.2-1 .5-1.9.7-2.9.7-1.2 0-2.4-.5-3.4-1.7-.9-1-1.4-2.4-1.4-4.4z"/></g><path fill="#F9A21C" d="M1275.2 227.8h-2.9v-.5c0-.2-.2-.5-.7-.5h-6.5c-.5 0-.7 0-.7.5v.5H1224c-2.7 0-4.6 2.4-4.6 5.6v6.1h-.5c-.2 0-.5.2-.5.5v7.3c0 .2.2.5.5.5h.5v2.4h-.5c-.2 0-.5.2-.5.5v7.3c0 .2.2.5.5.5h.5v57.6c0 3.1 2.2 5.6 4.6 5.6h51.3c2.7 0 4.6-2.7 4.6-5.6v-82.3c-.1-3.6-2.3-6-4.7-6z"/><path fill="#F29821" d="M1279.8 246.2v69.2c0 3.1-2.2 5.6-4.6 5.6h-51.3c-2.7 0-4.6-2.4-4.6-5.6v-28.1"/><path fill="#444445" d="M1230 310.6c-1.9 0-4.4-1.9-4.4-4.6v-67c0-2.7 2.2-4.6 4.4-4.6h39.7c2.2 0 2.9 0 3.9 2.9V306c0 2.4-1.7 4.6-3.9 4.6H1230z"/><path fill="#161616" d="M1269.7 234.6c1.9 0 2.7 0 3.4 2.7V306c0 2.4-1.7 4.4-3.6 4.4H1230c-1.9 0-4.1-1.9-4.1-4.4v-67c0-2.4 1.9-4.4 3.9-4.4h39.9m0-.5H1230c-2.2 0-4.6 2.2-4.6 4.8v67.3c0 2.7 2.4 4.8 4.6 4.8h39.7c2.2 0 4.1-2.2 4.1-4.8v-68.7c-1-3.4-2-3.4-4.1-3.4z"/><path fill="#3A3A3A" d="M1269.7 310.3H1230c21.5-28.1 43.1-67.3 43.1-72.9v68.7c-.1 2.3-1.5 4.2-3.4 4.2z"/><g fill="#B56FAD"><path d="M1201.2 273.3h12.1v3.1h-12.1z"/><path d="M1205.8 268.7h3.1v12.1h-3.1z"/></g><g fill="#B56FAD"><path d="M1128.1 273.3h12.1v3.1h-12.1z"/><path d="M1132.6 268.7h3.1v12.1h-3.1z"/></g><path fill="#1B00DD" d="M1093 267.2c-1.5 0-2.7-.2-3.9-.7-1.5-.5-2.4-1.7-2.7-3.1-.5-1.9.7-3.1 1.7-4.1.7-.7 1.2-1.2 1-1.9 0-.5-.5-1-1-1.2-1.2-.2-2.4 0-3.9.7-.5.2-1 .2-1.2.5-2.2.7-4.1.5-5.3-.7-1.5-1.5-1.5-3.9 0-6.8.5-.7.7-1.7 1-2.4 0-.2 0-.5-.2-.7 0 0-.2-.2-.7-.2-1 0-2.2-.5-2.9-1.2-1-1.2-1.5-2.7-1.2-4.8 0-.5.2-1.2.2-1.7.2-.7.2-1.7.2-2.4 0-1.9-1-3.6-2.2-4.4-1.5-1-3.4-1-4.6.2-.5.5-1 1.2-1 2.2 0 .7.2 1.5.7 1.9.5.5.2 1 0 1.5-.5.5-1 .2-1.5 0-.7-1-1.2-2.2-1.2-3.4 0-1.5.7-2.7 1.7-3.6 1.9-1.7 4.8-1.7 7-.2 1.9 1.2 3.1 3.6 3.1 6.1 0 1-.2 1.9-.2 2.7 0 .5-.2 1-.2 1.5 0 1 0 2.4.7 3.1.2.5 1 .5 1.5.5 1 0 1.7.5 2.2 1.2s.7 1.7.5 2.7c-.2 1-.7 1.7-1.2 2.7-.5 1.2-1.5 3.4-.2 4.4 1 1 2.7.5 3.1.2.5-.2.7-.2 1.2-.5 1.5-.5 3.1-1.2 5.1-.7 1.5.5 2.4 1.5 2.4 2.7.2 1.7-.7 2.7-1.7 3.6-1 1-1.2 1.5-1.2 2.2.2.7.7 1.2 1.5 1.7 1.2.5 2.4.7 4.1.5.5 0 1 .2 1.2 1 0 .5-.2 1-1 1.2 0-.3-.5-.3-.9-.3z"/><path fill="#FF1717" d="M1075 276.2c-2.4 0-5.3-1.5-6.1-3.9-.5-1.5 0-3.1 1-4.6.7-1 1.7-1.7 2.7-2.2l.5-.2c.5-.5 1.2-.7 1.7-1.2-.7 0-1.5-.5-1.9-1-.7-.7-1-1.5-.7-2.4.2-.7.7-1.5 1.7-1.7s2.2 0 2.9.5l.2.2c.7-2.2.2-4.6-1.2-6.3-.7-.7-1.5-1.5-2.4-1.9-.5 1-1.2 1.9-2.2 2.7-1 .7-2.4.7-3.6.2-.7-.2-1.2-1-1.5-1.7-.2-.7 0-1.5.5-1.9.7-1 1.9-1.5 3.1-1.7h2.2v-.2c-.2-1.5-1.5-2.7-2.9-2.9-.2 0-.7 0-1-.2-.5 0-.7 0-1.2-.2-1.2-.2-2.2-1-2.4-1.9-.2-.7 0-1.5.5-2.2.5-.5 1.2-.7 1.7-.7s1 .5 1 1.2c0 .5-.5 1-1 1v.2c0 .2.5.5 1 .7.2 0 .7 0 1 .2.5 0 .7 0 1.2.2 2.2.5 4.1 2.4 4.4 4.6v1.2c1.5.5 2.7 1.5 3.6 2.7 1.9 2.2 2.4 5.3 1.5 8.2-.2 1-.7 1.7-1.2 2.2 0 .5-.2 1-.5 1.5-.7 1.2-1.7 2.2-2.9 2.9l-.5.2c-.7.5-1.7 1-2.2 1.7-.5.5-1 1.5-.7 2.2.5 1.2 2.7 1.9 4.4 1.9.5 0 1 1 1 1.5-.4.1-.9 1.1-1.7 1.1zm-.4-15.3h-.2s-.2 0-.2.2 0 .2.2.5c.2.2.7.5 1 .2.2 0 .2 0 .5-.2 0-.2-.2-.5-.5-.7h-.8zm-4.4-9.6h-.7c-.7 0-1.5.5-1.7.7-.2.2-.2.2 0 .5 0 0 0 .2.2.2.5.2 1.2 0 1.7-.2s1-.7 1.2-1.5c-.2.3-.5.3-.7.3z"/><path fill="#358E43" d="M1074.3 240.6h47v69.7h-47z"/><path fill="#38823F" d="M1074.3 306.2v-65.6h47.2c-.2 0-47.2 67.8-47.2 65.6z"/><path fill="#1D5F30" d="M1121.3 262.6h-25.4l-9-9.9v-12.1h1v11.6l8.4 9.5h25"/><path fill="#1D5F30" d="M1121.3 260.7h-24.5l-8-9.2v-10.9h1V251l7.5 8.5h24"/><path fill="#1D5F30" d="M1121.3 258.5h-23.5l-7.3-8.2v-9.7h1v9.4l6.8 7.5h23"/><path fill="#1D5F30" d="M1121.3 256.6h-22.5l-6.3-7.3v-8.7h.9v8.2l5.8 6.8h22.1M1121.3 295.3l-11.4-12.6h-35.6v-.9h35.8l11.9 12.8"/><path fill="#CECECD" d="M1088.4 285.1c-.5 0-.7-.2-.7-.7v-2.9c0-.5.2-.7.7-.7s.7.2.7.7v2.9c0 .5-.3.7-.7.7zM1102.2 285.1c-.5 0-.7-.2-.7-.7v-2.9c0-.5.2-.7.7-.7s.7.2.7.7v2.9c0 .5-.3.7-.7.7zM1093 285.1c-.5 0-.7-.2-.7-.7v-2.9c0-.5.2-.7.7-.7s.7.2.7.7v2.9c0 .5-.3.7-.7.7zM1097.8 285.1c-.5 0-.7-.2-.7-.7v-2.9c0-.5.2-.7.7-.7s.7.2.7.7v2.9c0 .5-.2.7-.7.7zM1088.4 299.7c-.5 0-.7-.2-.7-.7v-3c0-.5.2-.7.7-.7s.7.2.7.7v2.9c0 .5-.3.8-.7.8zM1102.2 299.7c-.5 0-.7-.2-.7-.7v-3c0-.5.2-.7.7-.7s.7.2.7.7v2.9c0 .5-.3.8-.7.8zM1093 299.7c-.5 0-.7-.2-.7-.7v-3c0-.5.2-.7.7-.7s.7.2.7.7v2.9c0 .5-.5.8-.7.8zM1097.8 299.7c-.5 0-.7-.2-.7-.7v-3c0-.5.2-.7.7-.7s.7.2.7.7v2.9c0 .5-.2.8-.7.8z"/><path fill="#474748" d="M1086.2 283.7h18.2V297h-18.2z"/><path fill="#1D5F30" d="M1121.8 283.9l-16.5-17.9h-31v-.9h31.5l16.7 18.1"/><path fill="#1D5F30" d="M1121.5 286.8l-17.2-18.8h-30v-1h30.5l17.7 19.4"/><path fill="#1D5F30" d="M1121.3 289.3l-17.9-19.4h-29.1v-1h29.5l18.2 19.6M1074.3 299.9h47v1h-47zM1074.3 301.8h47v1h-47zM1074.3 303.8h47v1h-47zM1074.3 306h47v1h-47z"/><g fill="#CECECD"><path d="M1111.6 254.2h-2.7c-.5 0-.7-.2-.7-.7s.2-.7.7-.7h2.7c.5 0 .7.2.7.7.3.4-.2.7-.7.7zM1111.6 256.8h-2.7c-.5 0-.7-.2-.7-.7s.2-.7.7-.7h2.7c.5 0 .7.2.7.7 0 .5-.2.7-.7.7zM1111.6 259.5h-2.7c-.5 0-.7-.2-.7-.7s.2-.7.7-.7h2.7c.5 0 .7.2.7.7 0 .4-.2.7-.7.7zM1111.6 261.9h-2.7c-.5 0-.7-.2-.7-.7s.2-.7.7-.7h2.7c.5 0 .7.2.7.7s-.2.7-.7.7zM1111.6 264.6h-2.7c-.5 0-.7-.2-.7-.7s.2-.7.7-.7h2.7c.5 0 .7.2.7.7 0 .4-.2.7-.7.7z"/></g><g fill="#CECECD"><path d="M1117.4 254.2h-2.7c-.5 0-.7-.2-.7-.7s.2-.7.7-.7h2.7c.5 0 .7.2.7.7 0 .4-.2.7-.7.7zM1117.4 256.8h-2.7c-.5 0-.7-.2-.7-.7s.2-.7.7-.7h2.7c.5 0 .7.2.7.7 0 .5-.2.7-.7.7zM1117.4 259.5h-2.7c-.5 0-.7-.2-.7-.7s.2-.7.7-.7h2.7c.5 0 .7.2.7.7 0 .4-.2.7-.7.7zM1117.4 261.9h-2.7c-.5 0-.7-.2-.7-.7s.2-.7.7-.7h2.7c.5 0 .7.2.7.7s-.2.7-.7.7zM1117.4 264.6h-2.7c-.5 0-.7-.2-.7-.7s.2-.7.7-.7h2.7c.5 0 .7.2.7.7 0 .4-.2.7-.7.7z"/></g><path fill="#474748" d="M1109.7 251.3h7.3v14.8h-7.3z"/><path fill="#1D5F30" d="M1121.3 292.4l-10.7-11.6h-36.3v-1.2h36.8l10.9 12.1"/><path fill="#CECECD" d="M1084.2 263.4c-.5 0-.7-.2-.7-.7v-2.9c0-.5.2-.7.7-.7s.7.2.7.7v2.9c.3.2-.2.7-.7.7z"/><path fill="#CECECD" d="M1084 261.2h-2.4c-.2 0-.5-.2-.5-.5 0-.2.2-.5.5-.5h2.2c.2 0 .5.2.5.5.2.2-.1.5-.3.5z"/><path fill="#CECECD" d="M1086.9 261.2h-3.1c-.2 0-.5-.2-.5-.5 0-.2.2-.5.5-.5h3.1c.2 0 .5.2.5.5 0 .2-.3.5-.5.5z"/><path fill="#474748" d="M1082.1 255.1h4.6v5.8h-4.6z"/><ellipse fill="#5A5B5B" cx="1084.2" cy="255.1" rx="2.4" ry="1"/><ellipse fill="#474748" cx="1084.2" cy="261.2" rx="2.4" ry="1"/><path fill="#787878" d="M1089.3 286.6h4.6v1.9h-4.6zM1097.8 289.7h3.4v3.1h-3.4z"/><ellipse fill="#307B3C" cx="1080.6" cy="248.4" rx="1.7" ry="1.9"/><ellipse fill="#307B3C" cx="1113.3" cy="296" rx="1.7" ry="1.9"/><ellipse fill="#307B3C" cx="1085.2" cy="273.8" rx="1.7" ry="1.9"/><ellipse fill="#307B3C" cx="1113.3" cy="248.4" rx="1.7" ry="1.9"/><path fill="#FFF" d="M1121.3 240.6v69.2h-47v-69.2h47m.9-1h-49v71.2h49v-71.2z"/><path fill="#A0A0A0" d="M1081.1 290l-7.7 2.4-1.9 7.7 5.8 5.6 7.7-2.4 1.9-8-5.8-5.3zm-1.9 9.9c-1.2 0-2.2-1-2.2-2.2s1-2.2 2.2-2.2c1.2 0 2.2 1 2.2 2.2-.3 1.2-1 2.2-2.2 2.2z"/><path fill="#A0A0A0" d="M1076.7 304l-5.3-.2-2.9 4.6 2.4 4.8 5.3.2 2.9-4.6-2.4-4.8zm-1.7 5.1c-.2.7-1 1.2-1.7 1-.7-.2-1.2-1-1-1.7.2-.7 1-1.2 1.7-1 1 .3 1.3 1 1 1.7z"/><g><path fill="#A0A0A0" d="M1083.247 312.98l-2.34-2.468 5.806-5.504 2.34 2.468z"/><ellipse transform="rotate(46.53 1087.8 306.32)" fill="#A0A0A0" cx="1087.8" cy="306.3" rx="1.7" ry=".7"/><path fill="none" stroke="#7A7A7A" stroke-width=".5" stroke-linecap="round" stroke-miterlimit="10" d="M1082.5 309.6l2 1M1083.5 308.4l1.9.9M1084.7 307.4l1.7.7M1085.9 306.2l1.7.7"/><path fill="#8E8E8E" d="M1085.2 314.4c-.7.7-2.7 0-4.4-1.7-1.5-1.7-2.2-3.6-1.5-4.4 1.1-.6 6.6 5.4 5.9 6.1z"/><path fill="none" stroke="#707070" stroke-miterlimit="10" d="M1080.8 310.8s.5 1.7 2.2 2.2"/></g><path fill="#F2F2F2" stroke="#A8A8A8" stroke-width=".5" stroke-miterlimit="10" d="M1191.5 311.8h-40.2c-2.2 0-3.6-1.9-3.6-4.4v-67c0-2.4 1.7-4.4 3.6-4.4h40.4c2.2 0 3.6 1.9 3.6 4.4v67c-.2 2.7-1.9 4.4-3.8 4.4z"/><g fill="none" stroke="#C1C1C1" stroke-width=".25" stroke-linecap="round" stroke-linejoin="round" stroke-miterlimit="10"><path d="M1156.9 284.4l3.1 2.9 1 .7-2.5 3.4 2.7 3.7 2.4 1.4-3.6 2.9 1.9 1.5 1.7-.7V307.9l2.5 2.2M1162.9 284.9l-2.9 2.4M1158.1 306.9l5.6-1.5-5.6 1.5zM1157.8 309.3l.3-2.4"/></g><path fill="none" stroke="#C1C1C1" stroke-width=".25" stroke-linecap="round" stroke-linejoin="round" stroke-miterlimit="10" d="M1174 289l2.9-1.7 1.5-1.4 2.2 2.4.7-1.7v3.1l2.4-4.3.3 4.1.7 2.2M1195.1 290.5l-1-2.2-1.7-.3-1.4-2.1-1.2 1.2-1.2-1-1.2-.7"/><g fill="none" stroke="#C1C1C1" stroke-width=".25" stroke-linecap="round" stroke-linejoin="round" stroke-miterlimit="10"><path d="M1147.9 260.9l5.8-5 1 9.2 1.7-2.2v-2l5.8-1.4 2.6 4.1 9-3.1v-3.4l6.1-2.2-1 2.9 3.9 1.2 1.7 4.8 5.3 3.2h3.1v6.3l2 .7v4.4"/><path d="M1177.4 255.6l3.4-7.7-1.7-2 4.6-1.2 6.1-1.2-2.9-4.3 4.8-2"/></g><g fill="#6B6B6B"><path d="M1096.8 190.7c-.5 0-.7-.2-1-.5-.2-.2-.5-.7-.5-1 0-.5.2-.7.5-1 .5-.5 1.7-.5 2.2 0 .2.2.5.7.5 1 0 .5-.2.7-.5 1-.4.5-.9.5-1.2.5zM1095.4 216.2c0-.7.7-1.5 1.5-1.5.7 0 1.5.7 1.5 1.5 0 .7-.7 1.5-1.5 1.5-1-.1-1.5-.8-1.5-1.5zm0-5.4c0-.7.7-1.5 1.5-1.5.7 0 1.5.7 1.5 1.5 0 .7-.7 1.5-1.5 1.5-1 0-1.5-.7-1.5-1.5zm0-5.3c0-.7.7-1.5 1.5-1.5.7 0 1.5.7 1.5 1.5 0 .7-.7 1.5-1.5 1.5-1 0-1.5-.8-1.5-1.5zm0-5.6c0-.7.7-1.5 1.5-1.5.7 0 1.5.7 1.5 1.5 0 .7-.7 1.5-1.5 1.5-1 .2-1.5-.5-1.5-1.5zm0-5.3c0-.7.7-1.5 1.5-1.5.7 0 1.5.7 1.5 1.5 0 .7-.7 1.5-1.5 1.5-1 0-1.5-.5-1.5-1.5zM1096.8 222.9c-.5 0-.7-.2-1-.5-.2-.2-.5-.7-.5-1 0-.5.2-.7.5-1 .5-.5 1.7-.5 2.2 0 .2.2.5.7.5 1 0 .5-.2.7-.5 1-.4.5-.9.5-1.2.5z"/><g><path d="M1096.6 222.9c-.5 0-.7-.2-1-.5-.2-.2-.5-.7-.5-1 0-.5.2-.7.5-1 .5-.5 1.7-.5 2.2 0 .2.2.5.7.5 1 0 .5-.2.7-.5 1-.5.5-.7.5-1.2.5zM1091.7 218.8c-.5-.5-.5-1.5 0-2.2.5-.5 1.5-.5 2.2 0 .5.5.5 1.5 0 2.2-.2.2-.7.5-1 .5-.4 0-.7-.2-1.2-.5zM1089.3 215.7c-.5 0-.7-.2-1-.5-.2-.2-.5-.7-.5-1 0-.5.2-.7.5-1 .5-.5 1.7-.5 2.2 0 .2.2.5.7.5 1 0 .5-.2.7-.5 1-.5.2-.9.5-1.2.5z"/></g><g><path d="M1097.1 222.7c-.5 0-.7-.2-1-.5s-.5-.7-.5-1c0-.5.2-.7.5-1 .5-.5 1.7-.5 2.2 0 .2.2.5.7.5 1 0 .5-.2.7-.5 1-.5.5-1 .5-1.2.5zM1099.5 218.6c-.5-.5-.5-1.5 0-2.2.5-.5 1.5-.5 2.2 0 .5.5.5 1.5 0 2.2-.2.2-.7.5-1 .5-.5 0-.7-.3-1.2-.5zM1104.3 215.4c-.5 0-.7-.2-1-.5-.2-.2-.5-.7-.5-1 0-.5.2-.7.5-1 .5-.5 1.7-.5 2.2 0 .2.2.5.7.5 1 0 .5-.2.7-.5 1-.4.3-.7.5-1.2.5z"/></g></g><g fill="#6B6B6B"><path d="M1172.3 190.5c-.5 0-.7-.2-1-.5-.2-.2-.5-.7-.5-1 0-.5.2-.7.5-1 .5-.5 1.7-.5 2.2 0 .2.2.5.7.5 1 0 .5-.2.7-.5 1-.2.3-.7.5-1.2.5zM1170.9 215.9c0-.7.7-1.5 1.5-1.5.7 0 1.5.7 1.5 1.5 0 .7-.7 1.5-1.5 1.5s-1.5-.8-1.5-1.5zm0-5.3c0-.7.7-1.5 1.5-1.5.7 0 1.5.7 1.5 1.5 0 .7-.7 1.5-1.5 1.5-.8-.1-1.5-.8-1.5-1.5zm0-5.6c0-.7.7-1.5 1.5-1.5.7 0 1.5.7 1.5 1.5 0 .7-.7 1.5-1.5 1.5-.8.2-1.5-.5-1.5-1.5zm0-5.3c0-.7.7-1.5 1.5-1.5.7 0 1.5.7 1.5 1.5 0 .7-.7 1.5-1.5 1.5-.8-.1-1.5-.5-1.5-1.5zm0-5.3c0-.7.7-1.5 1.5-1.5.7 0 1.5.7 1.5 1.5 0 .7-.7 1.5-1.5 1.5-.8-.1-1.5-.8-1.5-1.5zM1172.3 222.7c-.5 0-.7-.2-1-.5-.3-.3-.5-.7-.5-1 0-.5.2-.7.5-1 .5-.5 1.7-.5 2.2 0 .2.2.5.7.5 1 0 .5-.2.7-.5 1-.2.5-.7.5-1.2.5z"/><g><path d="M1172.3 222.7c-.5 0-.7-.2-1-.5-.3-.3-.5-.7-.5-1 0-.5.2-.7.5-1 .5-.5 1.7-.5 2.2 0 .2.2.5.7.5 1 0 .5-.2.7-.5 1-.4.5-.9.5-1.2.5zM1167.5 218.6c-.5-.5-.5-1.5 0-2.2.5-.5 1.5-.5 2.2 0 .5.5.5 1.5 0 2.2-.2.2-.7.5-1 .5-.5 0-1-.3-1.2-.5zM1164.8 215.4c-.5 0-.7-.2-1-.5-.2-.2-.5-.7-.5-1 0-.5.2-.7.5-1 .5-.5 1.7-.5 2.2 0 .2.2.5.7.5 1 0 .5-.2.7-.5 1-.4.3-.7.5-1.2.5z"/></g><g><path d="M1172.6 222.5c-.5 0-.7-.2-1-.5-.2-.2-.5-.7-.5-1 0-.5.2-.7.5-1 .5-.5 1.7-.5 2.2 0 .2.2.2.5.2 1s-.2.7-.5 1c-.2.5-.4.5-.9.5zM1175.3 218.3c-.5-.5-.5-1.5 0-2.2.5-.5 1.5-.5 2.2 0 .5.5.5 1.5 0 2.2-.2.2-.7.5-1 .5-.5 0-1-.2-1.2-.5zM1180.1 215.2c-.5 0-.7-.2-1-.5s-.5-.7-.5-1c0-.5.2-.7.5-1 .5-.5 1.7-.5 2.2 0 .2.2.5.7.5 1 0 .5-.2.7-.5 1-.5.2-1 .5-1.2.5z"/></g></g><g fill="#6B6B6B"><path d="M1251.5 190.7c-.5 0-.7-.2-1-.5s-.5-.7-.5-1c0-.5.2-.7.5-1 .5-.5 1.7-.5 2.2 0 .2.2.5.7.5 1 0 .5-.2.7-.5 1-.5.5-.7.5-1.2.5zM1250 208.7c0-.7.7-1.5 1.5-1.5.7 0 1.5.7 1.5 1.5 0 .7-.7 1.5-1.5 1.5-.7-.1-1.5-.8-1.5-1.5zm0-4.9c0-.7.7-1.5 1.5-1.5.7 0 1.5.7 1.5 1.5 0 .7-.7 1.5-1.5 1.5-.7 0-1.5-.8-1.5-1.5zm0-4.8c0-.7.7-1.5 1.5-1.5.7 0 1.5.7 1.5 1.5 0 .7-.7 1.5-1.5 1.5-.7-.1-1.5-.8-1.5-1.5zm0-4.9c0-.7.7-1.5 1.5-1.5.7 0 1.5.7 1.5 1.5 0 .7-.7 1.5-1.5 1.5-.7 0-1.5-.7-1.5-1.5zM1251.5 214.9c-.5 0-.7-.2-1-.5s-.5-.7-.5-1c0-.5.2-.7.5-1 .5-.5 1.7-.5 2.2 0 .2.2.5.7.5 1 0 .5-.2.7-.5 1-.5.3-.7.5-1.2.5z"/><g><path d="M1251.3 214.9c-.5 0-.7-.2-1-.5-.2-.2-.5-.7-.5-1 0-.5.2-.7.5-1 .5-.5 1.7-.5 2.2 0 .2.2.5.7.5 1 0 .5-.2.7-.5 1s-.8.5-1.2.5zM1246.7 210.8c-.5-.5-.5-1.5 0-2.2.5-.5 1.5-.5 2.2 0 .5.5.5 1.5 0 2.2-.2.2-.7.5-1 .5-.5 0-1-.2-1.2-.5zM1244 207.4c-.5 0-.7-.2-1-.5-.2-.2-.5-.7-.5-1 0-.5.2-.7.5-1 .5-.5 1.7-.5 2.2 0 .2.2.5.7.5 1 0 .5-.2.7-.5 1-.5.5-1 .5-1.2.5z"/></g><g><path d="M1251.7 214.7c-.5 0-.7-.2-1-.5-.2-.2-.5-.7-.5-1 0-.5.2-.7.5-1 .5-.5 1.7-.5 2.2 0 .2.2.5.7.5 1 0 .5-.2.7-.5 1-.4.3-.9.5-1.2.5zM1254.4 210.6c-.5-.5-.5-1.5 0-2.2.5-.5 1.5-.5 2.2 0 .5.5.5 1.5 0 2.2-.2.2-.7.5-1 .5-.5 0-1-.3-1.2-.5zM1259 207.2c-.5 0-.7-.2-1-.5s-.5-.7-.5-1c0-.5.2-.7.5-1 .5-.5 1.7-.5 2.2 0 .2.2.5.7.5 1 0 .5-.2.7-.5 1-.2.5-.7.5-1.2.5z"/></g></g><g fill="#6B6B6B"><path d="M1251.7 190.7c-.5 0-.7-.2-1-.5-.3-.3-.5-.7-.5-1 0-.5.2-.7.5-1 .5-.5 1.7-.5 2.2 0 .2.2.5.7.5 1 0 .5-.2.7-.5 1-.4.5-.9.5-1.2.5zM1245.2 189.3c0-.7.7-1.5 1.5-1.5.7 0 1.5.7 1.5 1.5 0 .7-.7 1.5-1.5 1.5-.8-.1-1.5-.8-1.5-1.5zm-5.1 0c0-.7.7-1.5 1.5-1.5.7 0 1.5.7 1.5 1.5 0 .7-.7 1.5-1.5 1.5-.8-.1-1.5-.8-1.5-1.5zm-4.8 0c0-.7.7-1.5 1.5-1.5.7 0 1.5.7 1.5 1.5 0 .7-.7 1.5-1.5 1.5-1-.1-1.5-.8-1.5-1.5zm-5.1 0c0-.7.7-1.5 1.5-1.5.7 0 1.5.7 1.5 1.5 0 .7-.7 1.5-1.5 1.5-.8-.1-1.5-.8-1.5-1.5zm-5.1 0c0-.7.7-1.5 1.5-1.5.7 0 1.5.7 1.5 1.5 0 .7-.7 1.5-1.5 1.5-.8-.1-1.5-.8-1.5-1.5zm-4.8 0c0-.7.7-1.5 1.5-1.5.7 0 1.5.7 1.5 1.5 0 .7-.7 1.5-1.5 1.5-.8-.1-1.5-.8-1.5-1.5zm-5.1 0c0-.7.7-1.5 1.5-1.5.7 0 1.5.7 1.5 1.5 0 .7-.7 1.5-1.5 1.5-.8-.1-1.5-.8-1.5-1.5zm-4.8 0c0-.7.7-1.5 1.5-1.5.7 0 1.5.7 1.5 1.5 0 .7-.7 1.5-1.5 1.5-1.1-.1-1.5-.8-1.5-1.5zm-5.1 0c0-.7.7-1.5 1.5-1.5.7 0 1.5.7 1.5 1.5 0 .7-.7 1.5-1.5 1.5-.8-.1-1.5-.8-1.5-1.5zm-5.1 0c0-.7.7-1.5 1.5-1.5.7 0 1.5.7 1.5 1.5 0 .7-.7 1.5-1.5 1.5-.8-.1-1.5-.8-1.5-1.5zm-4.9 0c0-.7.7-1.5 1.5-1.5.7 0 1.5.7 1.5 1.5 0 .7-.7 1.5-1.5 1.5-1-.1-1.5-.8-1.5-1.5zm-5 0c0-.7.7-1.5 1.5-1.5.7 0 1.5.7 1.5 1.5 0 .7-.7 1.5-1.5 1.5-.8-.1-1.5-.8-1.5-1.5zm-5.1 0c0-.7.7-1.5 1.5-1.5.7 0 1.5.7 1.5 1.5 0 .7-.7 1.5-1.5 1.5-.8-.1-1.5-.8-1.5-1.5zm-4.9 0c0-.7.7-1.5 1.5-1.5.7 0 1.5.7 1.5 1.5 0 .7-.7 1.5-1.5 1.5-.7-.1-1.5-.8-1.5-1.5zm-5 0c0-.7.7-1.5 1.5-1.5.7 0 1.5.7 1.5 1.5 0 .7-.7 1.5-1.5 1.5-.8-.1-1.5-.8-1.5-1.5zm-4.9 0c0-.7.7-1.5 1.5-1.5.7 0 1.5.7 1.5 1.5 0 .7-.7 1.5-1.5 1.5-1-.1-1.5-.8-1.5-1.5zm-5.1 0c0-.7.7-1.5 1.5-1.5.7 0 1.5.7 1.5 1.5 0 .7-.7 1.5-1.5 1.5-.7-.1-1.5-.8-1.5-1.5zm-5.1 0c0-.7.7-1.5 1.5-1.5.7 0 1.5.7 1.5 1.5 0 .7-.7 1.5-1.5 1.5-.7-.1-1.5-.8-1.5-1.5zm-4.8 0c0-.7.7-1.5 1.5-1.5.7 0 1.5.7 1.5 1.5 0 .7-.7 1.5-1.5 1.5-1-.1-1.5-.8-1.5-1.5zm-5.1 0c0-.7.7-1.5 1.5-1.5.7 0 1.5.7 1.5 1.5 0 .7-.7 1.5-1.5 1.5-.8-.1-1.5-.8-1.5-1.5zm-5.1 0c0-.7.7-1.5 1.5-1.5.7 0 1.5.7 1.5 1.5 0 .7-.7 1.5-1.5 1.5-.7-.1-1.5-.8-1.5-1.5zm-4.8 0c0-.7.7-1.5 1.5-1.5.7 0 1.5.7 1.5 1.5 0 .7-.7 1.5-1.5 1.5-.8-.1-1.5-.8-1.5-1.5zm-5.1 0c0-.7.7-1.5 1.5-1.5.7 0 1.5.7 1.5 1.5 0 .7-.7 1.5-1.5 1.5-.8-.1-1.5-.8-1.5-1.5zm-4.8 0c0-.7.7-1.5 1.5-1.5.7 0 1.5.7 1.5 1.5 0 .7-.7 1.5-1.5 1.5-1-.1-1.5-.8-1.5-1.5zm-5.1 0c0-.7.7-1.5 1.5-1.5.7 0 1.5.7 1.5 1.5 0 .7-.7 1.5-1.5 1.5-.8-.1-1.5-.8-1.5-1.5zm-5.1 0c0-.7.7-1.5 1.5-1.5.7 0 1.5.7 1.5 1.5 0 .7-.7 1.5-1.5 1.5-.8-.1-1.5-.8-1.5-1.5zm-4.8 0c0-.7.7-1.5 1.5-1.5.7 0 1.5.7 1.5 1.5 0 .7-.7 1.5-1.5 1.5-1.1-.1-1.5-.8-1.5-1.5zm-5.1 0c0-.7.7-1.5 1.5-1.5.7 0 1.5.7 1.5 1.5 0 .7-.7 1.5-1.5 1.5-.8-.1-1.5-.8-1.5-1.5zm-5.1 0c0-.7.7-1.5 1.5-1.5.7 0 1.5.7 1.5 1.5 0 .7-.7 1.5-1.5 1.5-.8-.1-1.5-.8-1.5-1.5zm-4.8 0c0-.7.7-1.5 1.5-1.5.7 0 1.5.7 1.5 1.5 0 .7-.7 1.5-1.5 1.5-.8-.1-1.5-.8-1.5-1.5zM1096.8 190.7c-.5 0-.7-.2-1-.5-.2-.2-.5-.7-.5-1 0-.5.2-.7.5-1 .5-.5 1.7-.5 2.2 0 .2.2.5.7.5 1 0 .5-.2.7-.5 1-.2.5-.7.5-1.2.5z"/></g><g fill="#6B6B6B"><path d="M1172.3 166.5c-.5 0-.7-.2-1-.5-.3-.3-.5-.7-.5-1 0-.5.2-.7.5-1 .5-.5 1.7-.5 2.2 0 .2.2.5.7.5 1 0 .5-.2.7-.5 1-.4.5-.9.5-1.2.5zM1170.7 184.4c0-.7.7-1.5 1.5-1.5.7 0 1.5.7 1.5 1.5 0 .7-.7 1.5-1.5 1.5s-1.5-.7-1.5-1.5zm0-4.8c0-.7.7-1.5 1.5-1.5.7 0 1.5.7 1.5 1.5 0 .7-.7 1.5-1.5 1.5s-1.5-.8-1.5-1.5zm0-4.8c0-.7.7-1.5 1.5-1.5.7 0 1.5.7 1.5 1.5 0 .7-.7 1.5-1.5 1.5-.8-.1-1.5-.8-1.5-1.5zm0-4.9c0-.7.7-1.5 1.5-1.5.7 0 1.5.7 1.5 1.5 0 .7-.7 1.5-1.5 1.5s-1.5-.5-1.5-1.5zM1172.3 190.7c-.5 0-.7-.2-1-.5-.3-.3-.5-.7-.5-1 0-.5.2-.7.5-1 .5-.5 1.7-.5 2.2 0 .2.2.5.7.5 1 0 .5-.2.7-.5 1-.4.5-.9.5-1.2.5z"/></g><g><g fill="#47A04D"><path d="M1146.9 396h12.1l5.6 10.4-3.1-1.7-3.9 6.8c-11.1.2-10.7-6.3-10.7-6.3l3.6-6.5-3.6-2.7z"/><path d="M1169.4 412.7v12.6h-9.9c-4.1-.7-4.6-2.4-4.6-2.4l-7-12.8c2.4 2.4 5.3 2.4 5.6 2.7.2.2 15.5-.1 15.9-.1zM1178.9 409.1l-5.6 10.2 5.6 10.4v-4.1h6.3c4.1-.7 4.8-4.1 4.8-4.1l6.1-11.1s-1.9 2.9-7.5 2.9h-9.4l-.3-4.2z"/><path d="M1192 395.8l-10.7 6.5 5.1 9.7s8.2.7 10.4-4.6v-1.7c.5.7-4.8-9.9-4.8-9.9zM1173.1 395.5h11.6l6.5-10.2-3.6 1.9-2.9-5.6c-2.9-2.7-5.8-2.2-5.8-2.2h-13.1s3.6.5 6.3 5.6 4.4 8.2 4.4 8.2l-3.4 2.3z"/><path d="M1155.2 390l10.9 6.5 6.1-9.2s-3.1-7.7-9-7.3l-1.5.7c.2-.7-6.5 9.3-6.5 9.3z"/></g></g><g fill="#6B6B6B"><path d="M1171.1 344c-.5 0-.7-.2-1-.5-.2-.2-.5-.7-.5-1 0-.5.2-.7.5-1 .5-.5 1.7-.5 2.2 0 .2.2.5.7.5 1 0 .5-.2.7-.5 1-.3.3-.7.5-1.2.5zM1169.7 361.9c0-.7.7-1.5 1.5-1.5.7 0 1.5.7 1.5 1.5 0 .7-.7 1.5-1.5 1.5-.8-.1-1.5-.8-1.5-1.5zm0-4.9c0-.7.7-1.5 1.5-1.5.7 0 1.5.7 1.5 1.5 0 .7-.7 1.5-1.5 1.5s-1.5-.7-1.5-1.5zm0-4.8c0-.7.7-1.5 1.5-1.5.7 0 1.5.7 1.5 1.5 0 .7-.7 1.5-1.5 1.5-.8-.1-1.5-.8-1.5-1.5zm0-4.8c0-.7.7-1.5 1.5-1.5.7 0 1.5.7 1.5 1.5 0 .7-.7 1.5-1.5 1.5-.8-.1-1.5-.8-1.5-1.5zM1171.1 368.2c-.5 0-.7-.2-1-.5-.2-.2-.5-.7-.5-1 0-.5.2-.7.5-1 .5-.5 1.7-.5 2.2 0 .2.2.5.7.5 1 0 .5-.2.7-.5 1-.3.3-.7.5-1.2.5z"/><g><path d="M1171.1 368.2c-.5 0-.7-.2-1-.5-.2-.2-.5-.7-.5-1 0-.5.2-.7.5-1 .5-.5 1.7-.5 2.2 0 .2.2.5.7.5 1 0 .5-.2.7-.5 1-.4.2-.9.5-1.2.5zM1166.3 364.1c-.5-.5-.5-1.5 0-2.2.5-.5 1.5-.5 2.2 0 .5.5.5 1.5 0 2.2-.2.2-.7.5-1 .5-.5-.3-1-.3-1.2-.5zM1163.6 360.7c-.5 0-.7-.2-1-.5-.2-.2-.5-.7-.5-1 0-.5.2-.7.5-1 .5-.5 1.7-.5 2.2 0 .2.2.5.7.5 1 0 .5-.2.7-.5 1-.4.2-.7.5-1.2.5z"/></g><g><path d="M1171.4 367.9c-.5 0-.7-.2-1-.5-.2-.2-.5-.7-.5-1 0-.5.2-.7.5-1 .5-.5 1.7-.5 2.2 0 .2.2.5.7.5 1 0 .5-.2.7-.5 1-.5.3-.7.5-1.2.5zM1174 363.6c-.5-.5-.5-1.5 0-2.2.5-.5 1.5-.5 2.2 0 .5.5.5 1.5 0 2.2-.2.2-.7.5-1 .5-.4 0-.9 0-1.2-.5zM1178.9 360.4c-.5 0-.7-.2-1-.5-.2-.2-.5-.7-.5-1 0-.5.2-.7.5-1 .5-.5 1.7-.5 2.2 0 .2.2.5.7.5 1 0 .5-.2.7-.5 1-.5.3-1 .5-1.2.5z"/></g></g><g fill="#6B6B6B"><path d="M1250.3 344c-.5 0-.7-.2-1-.5-.2-.2-.5-.7-.5-1 0-.5.2-.7.5-1 .5-.5 1.7-.5 2.2 0 .2.2.5.7.5 1 0 .5-.2.7-.5 1-.5.2-1 .5-1.2.5zM1243.8 342.5c0-.7.7-1.5 1.5-1.5.7 0 1.5.7 1.5 1.5 0 .7-.7 1.5-1.5 1.5s-1.5-.8-1.5-1.5zm-4.9 0c0-.7.7-1.5 1.5-1.5.7 0 1.5.7 1.5 1.5 0 .7-.7 1.5-1.5 1.5s-1.5-.8-1.5-1.5zm-5.1 0c0-.7.7-1.5 1.5-1.5.7 0 1.5.7 1.5 1.5 0 .7-.7 1.5-1.5 1.5-.7 0-1.5-.8-1.5-1.5zm-4.8 0c0-.7.7-1.5 1.5-1.5.7 0 1.5.7 1.5 1.5 0 .7-.7 1.5-1.5 1.5s-1.5-.8-1.5-1.5zm-4.9 0c0-.7.7-1.5 1.5-1.5.7 0 1.5.7 1.5 1.5 0 .7-.7 1.5-1.5 1.5-1 0-1.5-.8-1.5-1.5zm-5 0c0-.7.7-1.5 1.5-1.5.7 0 1.5.7 1.5 1.5 0 .7-.7 1.5-1.5 1.5s-1.5-.8-1.5-1.5zm-4.9 0c0-.7.7-1.5 1.5-1.5.7 0 1.5.7 1.5 1.5 0 .7-.7 1.5-1.5 1.5s-1.5-.8-1.5-1.5zm-5.1 0c0-.7.7-1.5 1.5-1.5.7 0 1.5.7 1.5 1.5 0 .7-.7 1.5-1.5 1.5-.7 0-1.5-.8-1.5-1.5zm-4.8 0c0-.7.7-1.5 1.5-1.5.7 0 1.5.7 1.5 1.5 0 .7-.7 1.5-1.5 1.5s-1.5-.8-1.5-1.5zm-4.8 0c0-.7.7-1.5 1.5-1.5.7 0 1.5.7 1.5 1.5 0 .7-.7 1.5-1.5 1.5-1.1 0-1.5-.8-1.5-1.5zm-5.1 0c0-.7.7-1.5 1.5-1.5.7 0 1.5.7 1.5 1.5 0 .7-.7 1.5-1.5 1.5s-1.5-.8-1.5-1.5zm-4.9 0c0-.7.7-1.5 1.5-1.5.7 0 1.5.7 1.5 1.5 0 .7-.7 1.5-1.5 1.5-.7 0-1.5-.8-1.5-1.5zm-5 0c0-.7.7-1.5 1.5-1.5.7 0 1.5.7 1.5 1.5 0 .7-.7 1.5-1.5 1.5s-1.5-.8-1.5-1.5zm-4.9 0c0-.7.7-1.5 1.5-1.5.7 0 1.5.7 1.5 1.5 0 .7-.7 1.5-1.5 1.5s-1.5-.8-1.5-1.5zm-4.8 0c0-.7.7-1.5 1.5-1.5.7 0 1.5.7 1.5 1.5 0 .7-.7 1.5-1.5 1.5-1 0-1.5-.8-1.5-1.5zM1171.1 344c-.5 0-.7-.2-1-.5-.2-.2-.5-.7-.5-1 0-.5.2-.7.5-1 .5-.5 1.7-.5 2.2 0 .2.2.5.7.5 1 0 .5-.2.7-.5 1-.3.3-.7.5-1.2.5z"/></g><g><g fill="#6B6B6B"><path d="M1171.4 344c-.5 0-.7-.2-1-.5-.2-.2-.5-.7-.5-1 0-.5.2-.7.5-1 .5-.5 1.7-.5 2.2 0 .2.2.5.7.5 1 0 .5-.2.7-.5 1-.5.2-.7.5-1.2.5zM1169.9 337.7c0-.7.7-1.5 1.5-1.5.7 0 1.5.7 1.5 1.5 0 .7-.7 1.5-1.5 1.5-.7-.1-1.5-.8-1.5-1.5zm0-4.9c0-.7.7-1.5 1.5-1.5.7 0 1.5.7 1.5 1.5 0 .7-.7 1.5-1.5 1.5-.7 0-1.5-.7-1.5-1.5zm0-4.8c0-.7.7-1.5 1.5-1.5.7 0 1.5.7 1.5 1.5 0 .7-.7 1.5-1.5 1.5-.7-.1-1.5-.8-1.5-1.5zm0-4.9c0-.7.7-1.5 1.5-1.5.7 0 1.5.7 1.5 1.5 0 .7-.7 1.5-1.5 1.5-.7 0-1.5-.7-1.5-1.5zM1171.4 319.8c-.5 0-.7-.2-1-.5-.2-.2-.5-.7-.5-1 0-.5.2-.7.5-1 .5-.5 1.5-.5 2.2 0 .2.2.5.7.5 1 0 .5-.2.7-.5 1-.5.2-.7.5-1.2.5z"/></g></g><g><g fill="#6B6B6B"><path d="M1250.3 344.2c-.5 0-.7-.2-1-.5-.2-.2-.5-.7-.5-1 0-.5.2-.7.5-1 .5-.5 1.7-.5 2.2 0 .2.2.5.7.5 1 0 .5-.2.7-.5 1-.5.3-1 .5-1.2.5zM1248.8 337.4c0-.7.7-1.5 1.5-1.5.7 0 1.5.7 1.5 1.5 0 .7-.7 1.5-1.5 1.5-1 0-1.5-.7-1.5-1.5zm0-5.3c0-.7.7-1.5 1.5-1.5.7 0 1.5.7 1.5 1.5 0 .7-.7 1.5-1.5 1.5-1 0-1.5-.8-1.5-1.5zM1250.3 328.2c-.5 0-.7-.2-1-.5-.2-.2-.5-.7-.5-1 0-.5.2-.7.5-1 .5-.5 1.7-.5 2.2 0 .2.2.5.7.5 1 0 .5-.2.7-.5 1-.5.3-1 .5-1.2.5z"/></g></g><g fill="#6B6B6B"><path d="M1096.6 320c-.5 0-.7-.2-1-.5-.2-.2-.5-.7-.5-1s.2-.7.5-1c.5-.5 1.7-.5 2.2 0 .2.2.5.7.5 1 0 .5-.2.7-.5 1-.5.5-.7.5-1.2.5zM1095.1 456c0-.7.7-1.5 1.5-1.5.7 0 1.5.7 1.5 1.5 0 .7-.7 1.5-1.5 1.5-.7 0-1.5-.7-1.5-1.5zm0-5c0-.7.7-1.5 1.5-1.5.7 0 1.5.7 1.5 1.5 0 .7-.7 1.5-1.5 1.5-.7-.1-1.5-.8-1.5-1.5zm0-5.1c0-.7.7-1.5 1.5-1.5.7 0 1.5.7 1.5 1.5 0 .7-.7 1.5-1.5 1.5-.7-.1-1.5-.8-1.5-1.5zm0-5.1c0-.7.7-1.5 1.5-1.5.7 0 1.5.7 1.5 1.5 0 .7-.7 1.5-1.5 1.5-.7-.1-1.5-.8-1.5-1.5zm0-5.1c0-.7.7-1.5 1.5-1.5.7 0 1.5.7 1.5 1.5 0 .7-.7 1.5-1.5 1.5-.7 0-1.5-.8-1.5-1.5zm0-5.1c0-.7.7-1.5 1.5-1.5.7 0 1.5.7 1.5 1.5 0 .7-.7 1.5-1.5 1.5-.7 0-1.5-.8-1.5-1.5zm0-5.1c0-.7.7-1.5 1.5-1.5.7 0 1.5.7 1.5 1.5 0 .7-.7 1.5-1.5 1.5-.7 0-1.5-.7-1.5-1.5zm0-5c0-.7.7-1.5 1.5-1.5.7 0 1.5.7 1.5 1.5 0 .7-.7 1.5-1.5 1.5-.7-.1-1.5-.8-1.5-1.5zm0-5.1c0-.7.7-1.5 1.5-1.5.7 0 1.5.7 1.5 1.5 0 .7-.7 1.5-1.5 1.5-.7-.1-1.5-.8-1.5-1.5zm0-5.1c0-.7.7-1.5 1.5-1.5.7 0 1.5.7 1.5 1.5 0 .7-.7 1.5-1.5 1.5-.7-.1-1.5-.8-1.5-1.5zm0-5.1c0-.7.7-1.5 1.5-1.5.7 0 1.5.7 1.5 1.5 0 .7-.7 1.5-1.5 1.5-.7 0-1.5-.8-1.5-1.5zm0-5.1c0-.7.7-1.5 1.5-1.5.7 0 1.5.7 1.5 1.5 0 .7-.7 1.5-1.5 1.5-.7 0-1.5-.8-1.5-1.5zm0-5.1c0-.7.7-1.5 1.5-1.5.7 0 1.5.7 1.5 1.5 0 .7-.7 1.5-1.5 1.5-.7 0-1.5-.7-1.5-1.5zm0-5c0-.7.7-1.5 1.5-1.5.7 0 1.5.7 1.5 1.5 0 .7-.7 1.5-1.5 1.5-.7-.1-1.5-.8-1.5-1.5zm0-5.4c0-.7.7-1.5 1.5-1.5.7 0 1.5.7 1.5 1.5 0 .7-.7 1.5-1.5 1.5-.7.2-1.5-.5-1.5-1.5zm0-5.1c0-.7.7-1.5 1.5-1.5.7 0 1.5.7 1.5 1.5 0 .7-.7 1.5-1.5 1.5-.7.2-1.5-.5-1.5-1.5zm0-5c0-.7.7-1.5 1.5-1.5.7 0 1.5.7 1.5 1.5 0 .7-.7 1.5-1.5 1.5-.7.2-1.5-.6-1.5-1.5zm0-5.1c0-.7.7-1.5 1.5-1.5.7 0 1.5.7 1.5 1.5 0 .7-.7 1.5-1.5 1.5-.7.2-1.5-.6-1.5-1.5zm0-5.1c0-.7.7-1.5 1.5-1.5.7 0 1.5.7 1.5 1.5 0 .7-.7 1.5-1.5 1.5-.7.2-1.5-.5-1.5-1.5zm0-5.1c0-.7.7-1.5 1.5-1.5.7 0 1.5.7 1.5 1.5 0 .7-.7 1.5-1.5 1.5-.7.2-1.5-.5-1.5-1.5zm0-5.1c0-.7.7-1.5 1.5-1.5.7 0 1.5.7 1.5 1.5 0 .7-.7 1.5-1.5 1.5-.7.2-1.5-.5-1.5-1.5zm0-5.1c0-.7.7-1.5 1.5-1.5.7 0 1.5.7 1.5 1.5 0 .7-.7 1.5-1.5 1.5-.7 0-1.5-.5-1.5-1.5zm0-5c0-.7.7-1.5 1.5-1.5.7 0 1.5.7 1.5 1.5 0 .7-.7 1.5-1.5 1.5-.7-.1-1.5-.6-1.5-1.5zm0-5.1c0-.7.7-1.5 1.5-1.5.7 0 1.5.7 1.5 1.5 0 .7-.7 1.5-1.5 1.5-.7-.1-1.5-.6-1.5-1.5zm0-5.1c0-.7.7-1.5 1.5-1.5.7 0 1.5.7 1.5 1.5 0 .7-.7 1.5-1.5 1.5-.7-.1-1.5-.5-1.5-1.5zm0-5.1c0-.7.7-1.5 1.5-1.5.7 0 1.5.7 1.5 1.5 0 .7-.7 1.5-1.5 1.5-.7 0-1.5-.5-1.5-1.5zm0-5.1c0-.7.7-1.5 1.5-1.5.7 0 1.5.7 1.5 1.5 0 .7-.7 1.5-1.5 1.5-.7 0-1.5-.5-1.5-1.5zM1096.6 462.6c-.5 0-.7-.2-1-.5-.2-.2-.5-.7-.5-1s.2-.7.5-1c.5-.5 1.7-.5 2.2 0 .2.2.5.7.5 1s-.2.7-.5 1c-.5.5-.7.5-1.2.5z"/><g><path d="M1096.6 462.6c-.5 0-.7-.2-1-.5-.2-.2-.5-.7-.5-1 0-.5.2-.7.5-1 .5-.5 1.7-.5 2.2 0 .2.2.5.7.5 1s-.2.7-.5 1c-.5.5-1 .5-1.2.5zM1091.7 458.5c-.5-.5-.5-1.5 0-2.2.5-.5 1.5-.5 2.2 0 .5.5.5 1.5 0 2.2-.2.2-.7.5-1 .5-.4-.1-.9-.3-1.2-.5zM1089.1 455.3c-.5 0-.7-.2-1-.5-.2-.2-.5-.7-.5-1 0-.5.2-.7.5-1 .5-.5 1.7-.5 2.2 0 .2.2.5.7.5 1 0 .5-.2.7-.5 1-.5.3-.7.5-1.2.5z"/></g><g><path d="M1096.8 462.3c-.5 0-.7-.2-1-.5-.2-.2-.5-.7-.5-1 0-.5.2-.7.5-1 .5-.5 1.7-.5 2.2 0 .2.2.5.7.5 1 0 .5-.2.7-.5 1-.4.5-.7.5-1.2.5zM1099.5 458.2c-.5-.5-.5-1.5 0-2.2.5-.5 1.5-.5 2.2 0 .5.5.5 1.5 0 2.2-.2.2-.7.5-1 .5-.5 0-1-.2-1.2-.5zM1104.3 454.8c-.5 0-.7-.2-1-.5-.2-.2-.5-.7-.5-1 0-.5.2-.7.5-1 .5-.5 1.7-.5 2.2 0 .2.2.5.7.5 1 0 .5-.2.7-.5 1-.4.5-.9.5-1.2.5z"/></g></g><path fill="#F2F2F2" stroke="#A8A8A8" stroke-width=".5" stroke-miterlimit="10" d="M1191.5 551.2h-40.4c-2.2 0-3.6-1.9-3.6-4.4v-67c0-2.4 1.7-4.4 3.6-4.4h40.4c2.2 0 3.6 1.9 3.6 4.4V547c0 2.5-1.7 4.2-3.6 4.2z"/><g fill="#B56FAD"><path d="M1128.1 511h12.1v3.1h-12.1z"/><path d="M1132.4 506.6h3.1v12.1h-3.1z"/></g><path fill="#1B00DD" d="M1092 504.9c-1.5 0-2.7-.2-3.9-.7-1.5-.5-2.4-1.7-2.7-3.1-.5-1.9.7-3.1 1.7-4.1.7-.7 1.2-1.2 1-1.9 0-.5-.5-1-1-1.2-1.2-.2-2.4 0-3.9.7-.5.2-1 .2-1.2.5-2.2.7-4.1.5-5.3-.7-1.5-1.5-1.5-3.9 0-6.8.5-.7.7-1.7 1-2.4 0-.2 0-.5-.2-.7 0 0-.2-.2-.7-.2-1 0-2.2-.5-2.9-1.2-1-1.2-1.5-2.7-1.2-4.8 0-.5.2-1.2.2-1.7.2-.7.2-1.7.2-2.4 0-1.9-1-3.6-2.2-4.4-1.5-1-3.4-1-4.6.2-.5.5-1 1.2-1 2.2 0 .7.2 1.5.7 1.9.5.5.2 1 0 1.5-.5.5-1 .2-1.5 0-.7-1-1.2-2.2-1.2-3.4 0-1.5.7-2.7 1.7-3.6 1.9-1.7 4.8-1.7 7-.2 1.9 1.2 3.1 3.6 3.1 6.1 0 1-.2 1.9-.2 2.7 0 .5-.2 1-.2 1.5 0 1 0 2.4.7 3.1.2.5 1 .5 1.5.5 1 0 1.7.5 2.2 1.2s.7 1.7.5 2.7c-.2 1-.7 1.7-1.2 2.7-.5 1.2-1.5 3.4-.2 4.4 1 1 2.7.5 3.1.2.5-.2.7-.2 1.2-.5 1.5-.5 3.1-1.2 5.1-.7 1.5.5 2.4 1.5 2.4 2.7.2 1.7-.7 2.7-1.7 3.6-1 1-1.2 1.5-1.2 2.2.2.7.7 1.2 1.5 1.7 1.2.5 2.4.7 4.1.5.5 0 1 .2 1.2 1 0 .5-.2 1-1 1.2.1-.3-.4-.3-.9-.3z"/><path fill="#FF1717" d="M1074.1 513.4c-2.4 0-5.3-1.5-6.1-3.6-.5-1.5 0-3.1 1-4.4.7-1 1.7-1.5 2.7-2.2l.5-.2c.5-.5 1.2-.7 1.7-1.2-.7 0-1.5-.5-1.9-1-.7-.7-1-1.5-.7-2.4.2-.7.7-1.5 1.7-1.7s2.2 0 2.9.5l.2.2c.7-2.2.2-4.6-1.2-6.3-.7-.7-1.5-1.5-2.4-1.9-.5 1-1.2 1.9-2.2 2.7-1 .7-2.4.7-3.6.2-.7-.2-1.2-1-1.5-1.7-.2-.7 0-1.5.5-1.9.7-1 1.9-1.5 3.1-1.7h2.2v-.5c-.2-1.5-1.5-2.7-2.9-2.9-.2 0-.7 0-1-.2-.5 0-1 0-1.2-.2-1.2-.2-2.2-1-2.4-1.9-.2-.7 0-1.5.5-2.2.5-.5 1.2-.7 1.7-.7s1 .5 1 1.2c0 .5-.5 1-1 1v.2c0 .2.5.5 1 .7.2 0 .7 0 1 .2.5 0 .7 0 1.2.2 2.2.5 4.1 2.4 4.4 4.6v1.2c1.5.5 2.7 1.5 3.6 2.7 1.9 2.2 2.4 5.3 1.5 8.2-.2 1-.7 1.7-1.2 2.2 0 .5-.2 1-.5 1.5-.7 1.2-1.7 2.2-2.9 2.9l-.5.2c-.7.5-1.7 1-2.2 1.7-.5.5-1 1.7-.7 2.4.5 1.2 2.7 2.2 4.4 2.2.5 0 1 .7 1 1.2-.8 0-1 .7-1.7.7zm-.8-15h-.2s-.2 0-.2.2 0 .2.2.5c.2.2.7.5 1 .2.2 0 .2 0 .5-.2 0-.2-.2-.5-.5-.7-.3.2-.5 0-.8 0zm-4.3-9.7h-.7c-.7 0-1.5.5-1.7.7s-.2.2 0 .5c0 0 0 .2.2.2.5.2 1.2 0 1.7-.2s1-.7 1.2-1.5c0 .3-.5.3-.7.3z"/><g><path fill="#358E43" d="M1073.3 478.1h47v69.7h-47z"/><path fill="#38823F" d="M1073.3 543.7v-65.6h47.2c-.2 0-47.2 67.7-47.2 65.6z"/><path fill="#1D5F30" d="M1120.3 500.1h-25.4l-9-9.9v-12.1h1v11.6l8.5 9.4h24.9"/><path fill="#1D5F30" d="M1120.3 498.2h-24.4l-8.3-9.2v-10.9h1.2v10.6l7.5 8.5h24"/><path fill="#1D5F30" d="M1120.3 496h-23.5l-7.2-8v-9.9h.9v9.4l6.8 7.5h23"/><path fill="#1D5F30" d="M1120.3 494h-22.5l-6.3-7.2v-8.7h1v8.2l5.8 6.8h22M1120.3 533l-11.6-12.8h-35.4v-1h35.9l11.8 13.1"/><path fill="#CECECD" d="M1087.4 522.8c-.5 0-.7-.2-.7-.7v-2.9c0-.5.2-.7.7-.7s.7.2.7.7v2.9c0 .3-.2.7-.7.7zM1101.2 522.8c-.5 0-.7-.2-.7-.7v-2.9c0-.5.2-.7.7-.7s.7.2.7.7v2.9c0 .3-.2.7-.7.7zM1092 522.8c-.5 0-.7-.2-.7-.7v-2.9c0-.5.2-.7.7-.7s.7.2.7.7v2.9c0 .3-.5.7-.7.7zM1096.8 522.8c-.5 0-.7-.2-.7-.7v-2.9c0-.5.2-.7.7-.7s.7.2.7.7v2.9c.1.3-.2.7-.7.7zM1087.4 537.1c-.5 0-.7-.2-.7-.7v-2.9c0-.5.2-.7.7-.7s.7.2.7.7v2.9c0 .5-.5.7-.7.7zM1101.2 537.1c-.5 0-.7-.2-.7-.7v-2.9c0-.5.2-.7.7-.7s.7.2.7.7v2.9c0 .5-.2.7-.7.7zM1092 537.1c-.5 0-.7-.2-.7-.7v-2.9c0-.5.2-.7.7-.7s.7.2.7.7v2.9c0 .5-.5.7-.7.7zM1096.8 537.1c-.5 0-.7-.2-.7-.7v-2.9c0-.5.2-.7.7-.7s.7.2.7.7v2.9c.1.5-.2.7-.7.7z"/><path fill="#474748" d="M1085.2 521.1h18.2v13.3h-18.2z"/><path fill="#1D5F30" d="M1120.5 521.6l-16.2-18.1h-31v-1h31.5l16.7 18.4"/><path fill="#1D5F30" d="M1120.5 524.5l-17.1-19.1h-30.1v-1h30.5l17.5 19.4"/><path fill="#1D5F30" d="M1120.3 526.7l-17.9-19.3h-29.1v-1h29.6L1121 526M1073.3 537.4h47v1h-47zM1073.3 539.3h47v1h-47zM1073.3 541.5h47v1h-47zM1073.3 543.4h47v1h-47z"/><g fill="#CECECD"><path d="M1110.6 491.6h-2.7c-.5 0-.7-.2-.7-.7s.2-.7.7-.7h2.7c.5 0 .7.2.7.7s-.2.7-.7.7zM1110.6 494.3h-2.7c-.5 0-.7-.2-.7-.7s.2-.7.7-.7h2.7c.5 0 .7.2.7.7s-.2.7-.7.7zM1110.6 496.9h-2.7c-.5 0-.7-.2-.7-.7s.2-.7.7-.7h2.7c.5 0 .7.2.7.7 0 .5-.2.7-.7.7zM1110.6 499.6h-2.7c-.5 0-.7-.2-.7-.7s.2-.7.7-.7h2.7c.5 0 .7.2.7.7s-.2.7-.7.7zM1110.6 502.3h-2.7c-.5 0-.7-.2-.7-.7s.2-.7.7-.7h2.7c.5 0 .7.2.7.7 0 .2-.2.7-.7.7z"/></g><g fill="#CECECD"><path d="M1116.4 491.6h-2.7c-.5 0-.7-.2-.7-.7s.2-.7.7-.7h2.7c.5 0 .7.2.7.7.1.5-.4.7-.7.7zM1116.4 494.3h-2.7c-.5 0-.7-.2-.7-.7s.2-.7.7-.7h2.7c.5 0 .7.2.7.7s-.4.7-.7.7zM1116.4 496.9h-2.7c-.5 0-.7-.2-.7-.7s.2-.7.7-.7h2.7c.5 0 .7.2.7.7.1.5-.4.7-.7.7zM1116.4 499.6h-2.7c-.5 0-.7-.2-.7-.7s.2-.7.7-.7h2.7c.5 0 .7.2.7.7s-.4.7-.7.7zM1116.4 502.3h-2.7c-.5 0-.7-.2-.7-.7s.2-.7.7-.7h2.7c.5 0 .7.2.7.7.1.2-.4.7-.7.7z"/></g><path fill="#474748" d="M1108.7 489h7.3v14.8h-7.3z"/><path fill="#1D5F30" d="M1120.3 529.9l-10.6-11.7h-36.4v-.9h36.8l10.9 11.8"/><path fill="#CECECD" d="M1083.3 500.8c-.5 0-.7-.2-.7-.7v-2.9c0-.5.2-.7.7-.7s.7.2.7.7v2.9c0 .5-.2.7-.7.7z"/><path fill="#CECECD" d="M1083 498.6h-2.4c-.2 0-.5-.2-.5-.5s.2-.5.5-.5h2.2c.2 0 .5.2.5.5s0 .5-.3.5z"/><path fill="#CECECD" d="M1085.9 498.6h-3.1c-.2 0-.5-.2-.5-.5s.2-.5.5-.5h3.1c.2 0 .5.2.5.5s-.2.5-.5.5z"/><path fill="#474748" d="M1081.1 492.8h4.6v5.8h-4.6z"/><ellipse fill="#5A5B5B" cx="1083.3" cy="492.8" rx="2.4" ry="1"/><ellipse fill="#474748" cx="1083.3" cy="498.6" rx="2.4" ry="1"/><path fill="#787878" d="M1088.1 524.1h4.6v1.9h-4.6zM1096.8 527.4h3.4v3.1h-3.4z"/><ellipse fill="#307B3C" cx="1079.6" cy="485.8" rx="1.7" ry="1.9"/><ellipse fill="#307B3C" cx="1112.3" cy="533.5" rx="1.7" ry="1.9"/><ellipse fill="#307B3C" cx="1084.2" cy="511.2" rx="1.7" ry="1.9"/><ellipse fill="#307B3C" cx="1112.3" cy="485.8" rx="1.7" ry="1.9"/><path fill="#FFF" d="M1120.3 478.1v69.5h-47v-69.5h47m1-1h-49.2v71.5h49v-71.5h.2z"/></g><path fill="#A0A0A0" d="M1079.9 527.4l-7.7 2.4-1.9 8 5.8 5.6 7.7-2.4 1.9-8-5.8-5.6zm-1.7 10c-1.2 0-2.2-1-2.2-2.2s1-2.2 2.2-2.2c1.2 0 2.2 1 2.2 2.2-.3 1.2-1.2 2.2-2.2 2.2z"/><path fill="#A0A0A0" d="M1075.8 541.7l-5.3-.2-2.9 4.6 2.4 4.8 5.3.2 2.9-4.6-2.4-4.8zm-1.7 4.9c-.2.7-1 1.2-1.7 1-.7-.2-1.2-1-1-1.7.2-.7 1-1.2 1.7-1 1 .2 1.2.9 1 1.7z"/><g><path fill="#A0A0A0" d="M1082.12 550.628l-2.34-2.467 5.805-5.503 2.34 2.467z"/><ellipse transform="rotate(46.53 1086.7 543.85)" fill="#A0A0A0" cx="1086.7" cy="543.9" rx="1.7" ry=".7"/><path fill="none" stroke="#7A7A7A" stroke-width=".5" stroke-linecap="round" stroke-miterlimit="10" d="M1081.6 547l1.9 1M1082.5 546.1l2 .7M1083.8 544.9l1.6.7M1085 543.7l1.7.9"/><path fill="#8E8E8E" d="M1084.2 551.9c-.7.7-2.7 0-4.4-1.7-1.5-1.7-2.2-3.6-1.5-4.4 1.1-.7 6.7 5.4 5.9 6.1z"/><path fill="none" stroke="#707070" stroke-miterlimit="10" d="M1079.9 548.3s.5 1.7 2.2 2.2"/></g><circle fill="#1E491E" cx="1248.8" cy="401.3" r="25.7"/><g><path fill="#4D4DFF" d="M1235.5 423.1c-1.5-1.7-3.1-2.7-5.1-3.6 1.7 1.9 3.9 3.4 6.1 4.6-.2-.3-.5-.7-1-1z"/><path fill="#172E60" d="M1259 425.1c1.2-2.7 3.4-4.8 5.8-6.5.5-.2 1-.7 1.2-1.2.5-1-.2-2.2-1.2-3.1-1-.7-1.9-1.7-1.9-2.9 0-1 .7-1.9 1.2-2.7.7-1.5 1-2.9 1.2-4.6.2-1 .2-1.9 0-2.9-.5-1.7-2.2-2.9-3.9-3.6-1.9-1.2-4.1-2.4-6.1-3.4-1.2-.7-2.7-1.7-2.9-2.9.7-.5 1.9-.5 2.7-.7 1-.2 1.9-1 1.7-1.9-.2-.5-1-1-1.2-1.5s-.2-1.2.2-1.5c.5-.2 1-.5 1.5-.2.7-.7.2-1.9-.5-2.7-.7-.7-1.7-1-2.7-1.5-.7-.5-1.5-1.7-1-2.4.5 0 1.2.2 1.7 0s1.2-.5 1.2-1.2c.2 0 .5-.2.7-.2-2.7-1-5.3-1.5-8.2-1.5-8.2 0-15.5 3.9-20.1 9.7 1-.5 1.9-1 2.9-1.5.7 1 1.9 1.2 2.9 1.2 1.2 0 2.2-.2 3.4-.2s2.4.7 2.4 1.9c2.2-.5 4.6 1 5.1 2.9.7 2.7-.7 5.3-2.4 7.5s-3.4 4.8-2.7 7.5c.2 1.7 1.5 2.9 2.4 4.1 1 1.2 1.7 2.9 1.5 4.6-.2.7-.7 1.7-1 2.4-.5 1.7.5 3.6 1.5 5.1-.5.5-1.5.2-1.9 0-.7-.2-1.2-.7-1.9-.7-1 0-1.7.5-2.2 1.2s-.7 1.7-1 2.4c-.2.2-.5.2-.7.2 3.4 1.7 7.5 2.7 11.6 2.7 3.9 0 7.3-.7 10.7-2.2.2 0 0 .3 0 .3zm-2.4-21.3c-.2.5-.5.7-.7 1.2-.7.5-1.9.7-2.4 0-.2-.2-.5-.7-1-1-.5-.2-1.2 0-1.7 0-.5-.2-.7-.5-.7-1v-1.2c.2-1 1-1.9 1.7-2.7.2-.2.5-.2.5-.5.2-.2.7 0 1 .2.2.2.5.7.7 1 .5.5 1.2.2 1.9.2.2.5-.2 1.2-.7 1.5 0 .5.2.7.7 1 .2.2.7.2 1 .5-.3-.2-.3.3-.3.8z"/></g><g fill="#6B6B6B"><path d="M1170.2 442c-.5 0-.7-.2-1-.5-.2-.2-.5-.7-.5-1 0-.5.2-.7.5-1 .5-.5 1.7-.5 2.2 0 .2.2.5.7.5 1 0 .5-.2.7-.5 1-.5.3-.7.5-1.2.5zM1169.9 458.2c-.7 0-1.5-.7-1.5-1.5 0-.7.7-1.5 1.5-1.5.7 0 1.5.7 1.5 1.5.2.8-.5 1.5-1.5 1.5zm.3-5.6c-.7 0-1.5-.7-1.5-1.5 0-.7.7-1.5 1.5-1.5.7 0 1.5.7 1.5 1.5-.1 1.1-.8 1.5-1.5 1.5zm0-5.3c-.7 0-1.5-.7-1.5-1.5 0-.7.7-1.5 1.5-1.5.7 0 1.5.7 1.5 1.5-.1.8-.8 1.5-1.5 1.5zM1169.9 463.5c-.5 0-.7-.2-1-.5-.2-.2-.5-.7-.5-1 0-.5.2-.7.5-1 .5-.5 1.7-.5 2.2 0 .2.2.5.7.5 1 0 .5-.2.7-.5 1-.3.3-.7.5-1.2.5z"/><g><path d="M1169.9 463.5c-.5 0-.7-.2-1-.5s-.5-.7-.5-1c0-.5.2-.7.5-1 .5-.5 1.7-.5 2.2 0 .2.2.5.7.5 1 0 .5-.2.7-.5 1-.4.3-.9.5-1.2.5zM1165.1 459.2c-.5-.5-.5-1.5 0-2.2.5-.5 1.5-.5 2.2 0 .5.5.5 1.5 0 2.2-.2.2-.7.5-1 .5-.5 0-1 0-1.2-.5zM1162.4 456c-.5 0-.7-.2-1-.5-.2-.2-.5-.7-.5-1s.2-.7.5-1c.5-.5 1.7-.5 2.2 0 .2.2.5.7.5 1s-.2.7-.5 1c-.5.3-.7.5-1.2.5z"/></g><g><path d="M1170.2 463.3c-.5 0-.7-.2-1-.5-.2-.2-.5-.7-.5-1 0-.5.2-.7.5-1 .5-.5 1.7-.5 2.2 0 .2.2.5.7.5 1 0 .5-.2.7-.5 1-.5.3-.7.5-1.2.5zM1172.8 458.9c-.5-.5-.5-1.5 0-2.2.5-.5 1.5-.5 2.2 0 .5.5.5 1.5 0 2.2-.2.2-.7.5-1 .5-.4 0-.9 0-1.2-.5zM1177.7 455.8c-.5 0-.7-.2-1-.5-.2-.2-.5-.7-.5-1 0-.5.2-.7.5-1 .5-.5 1.7-.5 2.2 0 .2.2.5.7.5 1 0 .5-.2.7-.5 1-.5.3-1 .5-1.2.5z"/></g></g><g fill="#6B6B6B"><path d="M1169.9 442c-.5 0-.7-.2-1-.5-.2-.2-.5-.7-.5-1 0-.5.2-.7.5-1 .5-.5 1.7-.5 2.2 0 .2.2.5.7.5 1 0 .5-.2.7-.5 1-.3.3-.7.5-1.2.5zM1242.5 440.5c0-.7.7-1.5 1.5-1.5.7 0 1.5.7 1.5 1.5 0 .7-.7 1.5-1.5 1.5-.7 0-1.5-.7-1.5-1.5zm-5 0c0-.7.7-1.5 1.5-1.5.7 0 1.5.7 1.5 1.5 0 .7-.7 1.5-1.5 1.5s-1.5-.7-1.5-1.5zm-4.9 0c0-.7.7-1.5 1.5-1.5.7 0 1.5.7 1.5 1.5 0 .7-.7 1.5-1.5 1.5s-1.5-.7-1.5-1.5zm-4.8 0c0-.7.7-1.5 1.5-1.5.7 0 1.5.7 1.5 1.5 0 .7-.7 1.5-1.5 1.5-1 0-1.5-.7-1.5-1.5zm-5.1 0c0-.7.7-1.5 1.5-1.5.7 0 1.5.7 1.5 1.5 0 .7-.7 1.5-1.5 1.5s-1.5-.7-1.5-1.5zm-4.8 0c0-.7.7-1.5 1.5-1.5.7 0 1.5.7 1.5 1.5 0 .7-.7 1.5-1.5 1.5s-1.5-.7-1.5-1.5zm-4.9 0c0-.7.7-1.5 1.5-1.5.7 0 1.5.7 1.5 1.5 0 .7-.7 1.5-1.5 1.5-1 0-1.5-.7-1.5-1.5zm-5.1 0c0-.7.7-1.5 1.5-1.5.7 0 1.5.7 1.5 1.5 0 .7-.7 1.5-1.5 1.5-.7 0-1.5-.7-1.5-1.5zm-4.8 0c0-.7.7-1.5 1.5-1.5.7 0 1.5.7 1.5 1.5 0 .7-.7 1.5-1.5 1.5s-1.5-.7-1.5-1.5zm-5.1 0c0-.7.7-1.5 1.5-1.5.7 0 1.5.7 1.5 1.5 0 .7-.7 1.5-1.5 1.5s-1.5-.7-1.5-1.5zm-4.8 0c0-.7.7-1.5 1.5-1.5.7 0 1.5.7 1.5 1.5 0 .7-.7 1.5-1.5 1.5s-1.5-.7-1.5-1.5zm-4.9 0c0-.7.7-1.5 1.5-1.5.7 0 1.5.7 1.5 1.5 0 .7-.7 1.5-1.5 1.5-1 0-1.5-.7-1.5-1.5zm-5.1 0c0-.7.7-1.5 1.5-1.5.7 0 1.5.7 1.5 1.5 0 .7-.7 1.5-1.5 1.5-.7 0-1.5-.7-1.5-1.5zm-4.8 0c0-.7.7-1.5 1.5-1.5.7 0 1.5.7 1.5 1.5 0 .7-.7 1.5-1.5 1.5s-1.5-.7-1.5-1.5zm-5.1 0c0-.7.7-1.5 1.5-1.5.7 0 1.5.7 1.5 1.5 0 .7-.7 1.5-1.5 1.5s-1.5-.7-1.5-1.5zM1249.1 442c-.5 0-.7-.2-1-.5-.2-.2-.5-.7-.5-1 0-.5.2-.7.5-1 .5-.5 1.7-.5 2.2 0 .2.2.5.7.5 1 0 .5-.2.7-.5 1-.5.3-1 .5-1.2.5z"/></g><path fill="#51449B" d="M1275.5 559.4h-51.3c-2.7 0-4.6-2.4-4.6-5.3v-82.5c0-2.9 1.9-5.3 4.6-5.3h51.6c2.7 0 4.6 2.4 4.6 5.3v82.5c-.3 2.6-2.3 5.3-4.9 5.3z"/><path fill="#3D3E7C" d="M1280.1 484.1v69.5c0 2.9-1.9 5.3-4.6 5.3h-51.3c-2.7 0-4.6-2.4-4.6-5.3v-28.3"/><g><path fill="#444445" d="M1230.2 550c-1.9 0-4.4-1.9-4.4-4.6v-67.3c0-2.7 2.2-4.6 4.4-4.6h39.7c2.2 0 2.9 0 3.9 2.9v68.7c0 2.4-1.7 4.6-3.9 4.6h-39.7v.3z"/><path fill="#161616" d="M1270.1 473.9c1.9 0 2.7 0 3.4 2.7v68.7c0 2.4-1.7 4.4-3.6 4.4h-39.7c-1.9 0-4.1-1.9-4.1-4.4V478c0-2.4 1.9-4.4 3.9-4.4h40.2c-.3.3-.3.3-.1.3m0-.7h-39.9c-2.2 0-4.6 2.2-4.6 4.8v67.3c0 2.7 2.4 4.8 4.6 4.8h39.7c2.2 0 4.1-2.2 4.1-4.8v-68.7c-1-3.1-1.9-3.4-3.9-3.4z"/></g><g><path fill="#3A3A3A" d="M1269.9 549.5h-39.7c21.5-28.1 43.1-67.3 43.1-72.9v68.7c.2 2.5-1.5 4.2-3.4 4.2z"/></g><g fill="#6B6B6B"><path d="M1249.1 442c-.5 0-.7-.2-1-.5-.2-.2-.5-.7-.5-1 0-.5.2-.7.5-1 .5-.5 1.7-.5 2.2 0 .2.2.5.7.5 1 0 .5-.2.7-.5 1-.5.3-1 .5-1.2.5zM1248.8 452.2c-.7 0-1.5-.7-1.5-1.5 0-.7.7-1.5 1.5-1.5.7 0 1.5.7 1.5 1.5.2 1-.5 1.5-1.5 1.5zm.3-5.1c-.7 0-1.5-.7-1.5-1.5 0-.7.7-1.5 1.5-1.5.7 0 1.5.7 1.5 1.5-.1 1-.8 1.5-1.5 1.5zM1248.8 457.5c-.5 0-.7-.2-1-.5-.2-.2-.5-.7-.5-1 0-.5.2-.7.5-1 .5-.5 1.7-.5 2.2 0 .2.2.5.7.5 1 0 .5-.2.7-.5 1-.4.2-.7.5-1.2.5z"/><g><path d="M1248.8 457.5c-.5 0-.7-.2-1-.5-.3-.3-.5-.7-.5-1 0-.5.2-.7.5-1 .5-.5 1.7-.5 2.2 0 .2.2.5.7.5 1 0 .5-.2.7-.5 1-.4.2-.9.5-1.2.5zM1244 453.1c-.5-.5-.5-1.5 0-2.2.5-.5 1.5-.5 2.2 0 .5.5.5 1.5 0 2.2-.2.2-.7.5-1 .5-.5 0-1 0-1.2-.5zM1241.3 450c-.5 0-.7-.2-1-.5-.2-.2-.5-.7-.5-1 0-.5.2-.7.5-1 .5-.5 1.7-.5 2.2 0 .2.2.5.7.5 1 0 .5-.2.7-.5 1-.4.2-.9.5-1.2.5z"/></g><g><path d="M1249.1 457c-.5 0-.7-.2-1-.5-.2-.2-.5-.7-.5-1 0-.5.2-.7.5-1 .5-.5 1.7-.5 2.2 0 .2.2.5.7.5 1 0 .5-.2.7-.5 1-.5.5-1 .5-1.2.5zM1251.7 452.9c-.5-.5-.5-1.5 0-2.2.5-.5 1.5-.5 2.2 0 .5.5.5 1.5 0 2.2-.2.2-.7.5-1 .5-.4 0-.9 0-1.2-.5zM1256.3 449.7c-.5 0-.7-.2-1-.5-.2-.2-.5-.7-.5-1 0-.5.2-.7.5-1 .5-.5 1.7-.5 2.2 0 .2.2.5.7.5 1 0 .5-.2.7-.5 1-.2.3-.7.5-1.2.5z"/></g></g><g><g fill="#6B6B6B"><path d="M1249.1 441.8c-.5 0-.7-.2-1-.5-.2-.2-.5-.7-.5-1 0-.5.2-.7.5-1 .5-.5 1.7-.5 2.2 0 .2.2.5.7.5 1 0 .5-.2.7-.5 1-.5.5-1 .5-1.2.5zM1247.6 435.5c0-.7.7-1.5 1.5-1.5.7 0 1.5.7 1.5 1.5 0 .7-.7 1.5-1.5 1.5-1-.1-1.5-.6-1.5-1.5zM1249.1 432.3c-.5 0-.7-.2-1-.5-.2-.2-.5-.7-.5-1 0-.5.2-.7.5-1 .5-.5 1.7-.5 2.2 0 .2.2.5.7.5 1 0 .5-.2.7-.5 1-.5.3-1 .5-1.2.5z"/></g></g><g fill="#B56FAD"><path d="M1201.2 510.5h12.1v3.1h-12.1z"/><path d="M1205.5 505.9h3.1V518h-3.1z"/></g><g><path fill="#51449B" d="M1199.7 717.2h-51.3c-2.7 0-4.6-2.4-4.6-5.3v-82.5c0-2.9 1.9-5.3 4.6-5.3h51.6c2.7 0 4.6 2.4 4.6 5.3v82.5c-.1 2.7-2.2 5.3-4.9 5.3z"/><path fill="#3D3E7C" d="M1204.5 642.2v69.5c0 2.9-1.9 5.3-4.6 5.3h-51.6c-2.7 0-4.6-2.4-4.6-5.3v-28.3"/><path fill="#F3F3F3" d="M1194.1 706.1h-40.4c-1.9 0-3.6-1.9-3.6-4.4v-67.3c0-2.2 1.7-4.4 3.6-4.4h40.4c1.9 0 3.6 1.9 3.6 4.4V702c.3 2.4-1.4 4.1-3.6 4.1z"/><path fill="#34376B" d="M1165.6 711.6h17.7v1.9h-17.7z"/><path fill="#FFF" stroke="#D6D6D6" stroke-width=".5" stroke-miterlimit="10" d="M1144.8 631.8l3.3 7.5 1.5-8 3.6 1.7-2.9-3.4 8.5-3.2-9.2-.9 1.7-3.9-3.2 2.2-3.3-6.8-.8 7.3-3.8-1.5 2.9 3.4-7.8 3.6 7.8.5-1.5 3.4z"/></g><g fill="#231F20"><path d="M1161.9 651.4h2.2v2.7h-2.2z"/><path d="M1164.1 648.7h2.2v2.7h-2.2zM1166.3 651.4h2.2v2.7h-2.2zM1178.4 651.4h2.2v2.7h-2.2z"/><path d="M1180.6 648.7h2.2v2.7h-2.2zM1183 651.4h2.2v2.7h-2.2zM1170.2 666.1h2.2v2.7h-2.2z"/><path d="M1172.3 666.1h2.2v2.7h-2.2zM1174.5 666.1h2.2v2.7h-2.2z"/></g><g><g fill="#6B6B6B"><path d="M1250 589.4c-.5 0-.7-.2-1-.5-.2-.2-.5-.7-.5-1 0-.5.2-.7.5-1 .5-.5 1.7-.5 2.2 0 .2.2.5.7.5 1 0 .5-.2.7-.5 1-.4.5-.9.5-1.2.5zM1248.4 583.1c0-.7.7-1.5 1.5-1.5.7 0 1.5.7 1.5 1.5 0 .7-.7 1.5-1.5 1.5s-1.5-.5-1.5-1.5zm0-4.8c0-.7.7-1.5 1.5-1.5.7 0 1.5.7 1.5 1.5 0 .7-.7 1.5-1.5 1.5-.8-.1-1.5-.6-1.5-1.5zm0-4.9c0-.7.7-1.5 1.5-1.5.7 0 1.5.7 1.5 1.5 0 .7-.7 1.5-1.5 1.5s-1.5-.5-1.5-1.5zm0-4.8c0-.7.7-1.5 1.5-1.5.7 0 1.5.7 1.5 1.5 0 .7-.7 1.5-1.5 1.5-.8-.1-1.5-.5-1.5-1.5zM1250 565.4c-.5 0-.7-.2-1-.5-.2-.2-.5-.7-.5-1 0-.5.2-.7.5-1 .5-.5 1.7-.5 2.2 0 .2.2.5.7.5 1 0 .5-.2.7-.5 1-.4.3-.9.5-1.2.5z"/></g></g><g><g fill="#6B6B6B"><path d="M1173.3 589.7c-.5 0-.7-.2-1-.5-.2-.2-.5-.7-.5-1 0-.5.2-.7.5-1 .5-.5 1.7-.5 2.2 0 .2.2.5.7.5 1 0 .5-.2.7-.5 1-.5.5-.9.5-1.2.5zM1171.6 583.4c0-.7.7-1.5 1.5-1.5.7 0 1.5.7 1.5 1.5 0 .7-.7 1.5-1.5 1.5-.8-.1-1.5-.6-1.5-1.5zm0-4.9c0-.7.7-1.5 1.5-1.5.7 0 1.5.7 1.5 1.5 0 .7-.7 1.5-1.5 1.5s-1.5-.5-1.5-1.5zm0-4.8c0-.7.7-1.5 1.5-1.5.7 0 1.5.7 1.5 1.5 0 .7-.7 1.5-1.5 1.5-.8-.1-1.5-.8-1.5-1.5zm0-4.9c0-.7.7-1.5 1.5-1.5.7 0 1.5.7 1.5 1.5 0 .7-.7 1.5-1.5 1.5s-1.5-.7-1.5-1.5zm0-4.8c0-.7.7-1.5 1.5-1.5.7 0 1.5.7 1.5 1.5 0 .7-.7 1.5-1.5 1.5-.8-.1-1.5-.8-1.5-1.5zM1173.3 560.6c-.5 0-.7-.2-1-.5-.3-.3-.5-.7-.5-1 0-.5.2-.7.5-1 .5-.5 1.7-.5 2.2 0 .2.2.5.7.5 1 0 .5-.2.7-.5 1-.5.3-.9.5-1.2.5z"/></g></g><g><g fill="#6B6B6B"><path d="M1095.1 589.4c-.5 0-.7-.2-1-.5-.2-.2-.5-.7-.5-1 0-.5.2-.7.5-1 .5-.5 1.7-.5 2.2 0 .2.2.5.7.5 1 0 .5-.2.7-.5 1-.2.5-.7.5-1.2.5zM1093.7 583.1c0-.7.7-1.5 1.5-1.5.7 0 1.5.7 1.5 1.5 0 .7-.7 1.5-1.5 1.5-.8.2-1.5-.5-1.5-1.5zm0-4.6c0-.7.7-1.5 1.5-1.5.7 0 1.5.7 1.5 1.5 0 .7-.7 1.5-1.5 1.5s-1.5-.8-1.5-1.5zm0-4.8c0-.7.7-1.5 1.5-1.5.7 0 1.5.7 1.5 1.5 0 .7-.7 1.5-1.5 1.5-.8-.1-1.5-.8-1.5-1.5zm0-4.9c0-.7.7-1.5 1.5-1.5.7 0 1.5.7 1.5 1.5 0 .7-.7 1.5-1.5 1.5s-1.5-.5-1.5-1.5zm0-4.8c0-.7.7-1.5 1.5-1.5.7 0 1.5.7 1.5 1.5 0 .7-.7 1.5-1.5 1.5-.8.2-1.5-.5-1.5-1.5zM1095.1 560.8c-.5 0-.7-.2-1-.5-.2-.2-.5-.7-.5-1 0-.5.2-.7.5-1 .5-.5 1.7-.5 2.2 0 .2.2.5.7.5 1 0 .5-.2.7-.5 1-.3.3-.7.5-1.2.5z"/></g></g><g fill="#6B6B6B"><path d="M1095.1 589.4c-.5 0-.7-.2-1-.5-.2-.2-.5-.7-.5-1 0-.5.2-.7.5-1 .5-.5 1.7-.5 2.2 0 .2.2.5.7.5 1 0 .5-.2.7-.5 1-.4.5-.9.5-1.2.5zM1243.3 588c0-.7.7-1.5 1.5-1.5.7 0 1.5.7 1.5 1.5 0 .7-.7 1.5-1.5 1.5-.8-.1-1.5-.6-1.5-1.5zm-4.9 0c0-.7.7-1.5 1.5-1.5.7 0 1.5.7 1.5 1.5 0 .7-.7 1.5-1.5 1.5-1-.1-1.5-.6-1.5-1.5zm-5.1 0c0-.7.7-1.5 1.5-1.5.7 0 1.5.7 1.5 1.5 0 .7-.7 1.5-1.5 1.5-.7-.1-1.5-.6-1.5-1.5zm-5 0c0-.7.7-1.5 1.5-1.5.7 0 1.5.7 1.5 1.5 0 .7-.7 1.5-1.5 1.5-.8-.1-1.5-.6-1.5-1.5zm-4.9 0c0-.7.7-1.5 1.5-1.5.7 0 1.5.7 1.5 1.5 0 .7-.7 1.5-1.5 1.5-1-.1-1.5-.6-1.5-1.5zm-5.1 0c0-.7.7-1.5 1.5-1.5.7 0 1.5.7 1.5 1.5 0 .7-.7 1.5-1.5 1.5-.7-.1-1.5-.6-1.5-1.5zm-5 0c0-.7.7-1.5 1.5-1.5.7 0 1.5.7 1.5 1.5 0 .7-.7 1.5-1.5 1.5-.8-.1-1.5-.6-1.5-1.5zm-4.9 0c0-.7.7-1.5 1.5-1.5.7 0 1.5.7 1.5 1.5 0 .7-.7 1.5-1.5 1.5-.8-.1-1.5-.6-1.5-1.5zm-5.1 0c0-.7.7-1.5 1.5-1.5.7 0 1.5.7 1.5 1.5 0 .7-.7 1.5-1.5 1.5-.7-.1-1.5-.6-1.5-1.5zm-4.8 0c0-.7.7-1.5 1.5-1.5.7 0 1.5.7 1.5 1.5 0 .7-.7 1.5-1.5 1.5-1-.1-1.5-.6-1.5-1.5zm-5.1 0c0-.7.7-1.5 1.5-1.5.7 0 1.5.7 1.5 1.5 0 .7-.7 1.5-1.5 1.5-.8-.1-1.5-.6-1.5-1.5zm-5.1 0c0-.7.7-1.5 1.5-1.5.7 0 1.5.7 1.5 1.5 0 .7-.7 1.5-1.5 1.5-.8-.1-1.5-.6-1.5-1.5zm-4.8 0c0-.7.7-1.5 1.5-1.5.7 0 1.5.7 1.5 1.5 0 .7-.7 1.5-1.5 1.5-.8-.1-1.5-.6-1.5-1.5zm-5.1 0c0-.7.7-1.5 1.5-1.5.7 0 1.5.7 1.5 1.5 0 .7-.7 1.5-1.5 1.5-.8-.1-1.5-.6-1.5-1.5zm-5.1 0c0-.7.7-1.5 1.5-1.5.7 0 1.5.7 1.5 1.5 0 .7-.7 1.5-1.5 1.5-.8-.1-1.5-.6-1.5-1.5zm-4.8 0c0-.7.7-1.5 1.5-1.5.7 0 1.5.7 1.5 1.5 0 .7-.7 1.5-1.5 1.5-.8-.1-1.5-.6-1.5-1.5zm-5.1 0c0-.7.7-1.5 1.5-1.5.7 0 1.5.7 1.5 1.5 0 .7-.7 1.5-1.5 1.5-.8-.1-1.5-.6-1.5-1.5zm-4.9 0c0-.7.7-1.5 1.5-1.5.7 0 1.5.7 1.5 1.5 0 .7-.7 1.5-1.5 1.5-1-.1-1.5-.6-1.5-1.5zm-5 0c0-.7.7-1.5 1.5-1.5.7 0 1.5.7 1.5 1.5 0 .7-.7 1.5-1.5 1.5-.8-.1-1.5-.6-1.5-1.5zm-5.1 0c0-.7.7-1.5 1.5-1.5.7 0 1.5.7 1.5 1.5 0 .7-.7 1.5-1.5 1.5-.8-.1-1.5-.6-1.5-1.5zm-4.9 0c0-.7.7-1.5 1.5-1.5.7 0 1.5.7 1.5 1.5 0 .7-.7 1.5-1.5 1.5-.7-.1-1.5-.6-1.5-1.5zm-5 0c0-.7.7-1.5 1.5-1.5.7 0 1.5.7 1.5 1.5 0 .7-.7 1.5-1.5 1.5-.8-.1-1.5-.6-1.5-1.5zm-5.1 0c0-.7.7-1.5 1.5-1.5.7 0 1.5.7 1.5 1.5 0 .7-.7 1.5-1.5 1.5-.8-.1-1.5-.6-1.5-1.5zm-4.9 0c0-.7.7-1.5 1.5-1.5.7 0 1.5.7 1.5 1.5 0 .7-.7 1.5-1.5 1.5-.7-.1-1.5-.6-1.5-1.5zm-5 0c0-.7.7-1.5 1.5-1.5.7 0 1.5.7 1.5 1.5 0 .7-.7 1.5-1.5 1.5-.8-.1-1.5-.6-1.5-1.5zm-4.9 0c0-.7.7-1.5 1.5-1.5.7 0 1.5.7 1.5 1.5 0 .7-.7 1.5-1.5 1.5-1-.1-1.5-.6-1.5-1.5zm-5.1 0c0-.7.7-1.5 1.5-1.5.7 0 1.5.7 1.5 1.5 0 .7-.7 1.5-1.5 1.5-.7-.1-1.5-.6-1.5-1.5zm-5.1 0c0-.7.7-1.5 1.5-1.5.7 0 1.5.7 1.5 1.5 0 .7-.7 1.5-1.5 1.5-.7-.1-1.5-.6-1.5-1.5zm-4.8 0c0-.7.7-1.5 1.5-1.5.7 0 1.5.7 1.5 1.5 0 .7-.7 1.5-1.5 1.5-1-.1-1.5-.6-1.5-1.5zm-5.1 0c0-.7.7-1.5 1.5-1.5.7 0 1.5.7 1.5 1.5 0 .7-.7 1.5-1.5 1.5-.8-.1-1.5-.6-1.5-1.5zM1249.8 589.4c-.5 0-.7-.2-1-.5-.2-.2-.5-.7-.5-1 0-.5.2-.7.5-1 .5-.5 1.7-.5 2.2 0 .2.2.5.7.5 1 0 .5-.2.7-.5 1-.5.5-.7.5-1.2.5z"/></g><g fill="#6B6B6B"><path d="M1173.3 589.4c-.5 0-.7-.2-1-.5-.2-.2-.5-.7-.5-1 0-.5.2-.7.5-1 .5-.5 1.7-.5 2.2 0 .2.2.5.7.5 1 0 .5-.2.7-.5 1-.5.3-.9.5-1.2.5zM1171.6 607.1c0-.7.7-1.5 1.5-1.5.7 0 1.5.7 1.5 1.5 0 .7-.7 1.5-1.5 1.5-.8.2-1.5-.6-1.5-1.5zm0-4.6c0-.7.7-1.5 1.5-1.5.7 0 1.5.7 1.5 1.5 0 .7-.7 1.5-1.5 1.5-.8-.1-1.5-.8-1.5-1.5zm0-4.9c0-.7.7-1.5 1.5-1.5.7 0 1.5.7 1.5 1.5 0 .7-.7 1.5-1.5 1.5s-1.5-.7-1.5-1.5zm0-4.8c0-.7.7-1.5 1.5-1.5.7 0 1.5.7 1.5 1.5 0 .7-.7 1.5-1.5 1.5s-1.5-.8-1.5-1.5zM1173.3 613.6c-.5 0-.7-.2-1-.5-.2-.2-.5-.7-.5-1 0-.5.2-.7.5-1 .5-.5 1.7-.5 2.2 0 .2.2.5.7.5 1 0 .5-.2.7-.5 1-.5.3-.9.5-1.2.5z"/><g><path d="M1173.1 613.6c-.5 0-.7-.2-1-.5-.2-.2-.5-.7-.5-1 0-.5.2-.7.5-1 .5-.5 1.7-.5 2.2 0 .2.2.5.7.5 1 0 .5-.2.7-.5 1-.5.3-.7.5-1.2.5zM1168.2 609.5c-.5-.5-.5-1.5 0-2.2.5-.5 1.5-.5 2.2 0 .5.5.5 1.5 0 2.2-.2.2-.7.5-1 .5-.4-.3-.9-.3-1.2-.5zM1165.6 606.1c-.5 0-.7-.2-1-.5-.2-.2-.5-.7-.5-1 0-.5.2-.7.5-1 .5-.5 1.7-.5 2.2 0 .2.2.5.7.5 1 0 .5-.2.7-.5 1-.3.3-.7.5-1.2.5z"/></g><g><path d="M1173.3 613.4c-.5 0-.7-.2-1-.5-.2-.2-.5-.7-.5-1 0-.5.2-.7.5-1 .5-.5 1.7-.5 2.2 0 .2.2.5.7.5 1 0 .5-.2.7-.5 1s-.7.5-1.2.5zM1176 609c-.5-.5-.5-1.5 0-2.2.5-.5 1.5-.5 2.2 0 .5.5.5 1.5 0 2.2-.2.2-.7.5-1 .5-.5 0-1 0-1.2-.5zM1180.8 605.9c-.5 0-.7-.2-1-.5-.2-.2-.5-.7-.5-1 0-.5.2-.7.5-1 .5-.5 1.7-.5 2.2 0 .2.2.5.7.5 1 0 .5-.2.7-.5 1-.5.2-.7.5-1.2.5z"/></g></g><g><g fill="#50449A"><path d="M1122.7 756.2l1.9-.5c0 .7.2 1.5.5 1.9.2.7.5 1.2.7 1.7s.7 1 1.5 1.2c.5.2 1.2.5 1.9.5 1.2 0 1.9-.2 2.7-1 .7-.7 1-1.7 1-2.7s-.2-1.9-1-2.9c-.5-1-1.5-1.9-2.7-3.1l-3.9-4.4c-1-1-1.5-1.7-1.9-2.7-.5-.7-.7-1.7-.7-2.7 0-1.7.5-3.1 1.7-4.1s2.4-1.5 4.1-1.5 2.9.5 4.1 1.5c1 1 1.7 2.4 1.9 4.1v.2l-1.9.5v-.2c-.2-1.2-.7-2.4-1.5-3.1-.7-.7-1.7-1.2-2.9-1.2s-1.9.2-2.7 1c-.7.5-1 1.5-1 2.7 0 .7.2 1.5.5 1.9.3.4 1 1.5 1.5 2.2l3.9 4.1s.2.5.7.7c.5.5.7.7.7 1 .2.2.2.5.7.7.2.5.5.7.7 1 .2.3.2.5.5 1 .2.5.5.7.5 1s.2.7.2 1v1.2c0 1.9-.5 3.4-1.7 4.4-1.2 1-2.7 1.5-4.4 1.5-1 0-1.7-.2-2.4-.5-.7-.2-1.5-.7-1.9-1.5-.5-.7-1-1.2-1.2-2.2.2-.8-.1-1.7-.1-2.7zM1138 754v-1-1.9-1.7s.2-1.2.2-1.7.2-1 .5-1.5c.2-.5.5-1 .7-1.2s.7-.5 1.2-.7 1-.2 1.7-.2 1.2 0 1.7.2 1 .5 1.2.7.7.7.7 1.2c.2.5.5 1 .5 1.5s.2 1 .2 1.7v9.1c0 .2-.2.7-.2 1.2s-.2 1-.5 1.2c-.3.2-.2.5-.5 1l-.7.7s-.7.2-1.2.5c-.5 0-1 .2-1.5.2s-1 0-1.5-.2c-.5 0-.7-.2-1.2-.5l-.7-.7c-.2-.2-.5-.7-.5-1-.2-.2-.2-.7-.5-1.2 0-.5-.2-1-.2-1.2V757v-1.5c.6-.3.6-.8.6-1.5zm2.2-1v1c0 2.9.2 4.8.5 5.8.2 1 1 1.7 1.9 1.7 1 0 1.7-.5 1.9-1.7.2-1.2.5-2.9.5-5.8v-1-2.4s0-1.2-.2-1.9c0-.5-.2-1-.2-1.5 0-.2-.2-.7-.5-1-.3-.3-.5-.5-.7-.5s-.5-.2-1-.2-.7 0-1 .2c-.2 0-.5.2-.7.5-.2.2-.2.5-.5 1 0 .2-.2.7-.2 1.5s0 1.2-.2 1.9c.4.7.4 1.5.4 2.4zM1151.5 762.5v-18.2h2.2v1.7c1.2-1.5 2.4-2.2 3.9-2.2.5 0 1.2.2 1.7.5.5.5 1 1 1.2 1.5.5-.7 1.2-1.2 1.9-1.5.7-.2 1.2-.5 1.9-.5 1 0 1.7.2 2.4 1 .7.7 1 1.5 1 2.4v15h-2.2v-14.5c0-.7-.2-1.2-.5-1.7-.2-.2-.7-.5-1.2-.5-1 0-1.9.5-2.9 1.5v15.2h-2.2v-14.5c0-1.5-.7-2.2-1.9-2.2-.5 0-1 .2-1.7.5-.5.2-1 .7-1.5 1.2v15h-2.1v.3zM1171.9 754.3v-2.4c0-1.2 0-2.4.2-3.1.2-1 .5-1.7.7-2.2s.7-1 1-1.2c.5-.2 1-.5 1.2-.7.5 0 1-.2 1.7-.2 1.7 0 2.7.5 3.4 1.7s1 2.9 1 5.3v1.9h-7v2.7c0 1.2 0 2.2.2 2.9 0 .7.2 1.2.5 1.7s.5.7.7.7c.2.2.7.2 1.2.2.7 0 1.2-.2 1.7-1s.7-1.7.7-3.4h2.2c0 .7-.2 1.2-.2 1.9 0 .5-.2 1-.5 1.7-.2.5-.5 1-.7 1.2s-.7.7-1.2 1-1 .2-1.7.2c-1.2 0-2.2-.2-2.9-.7s-1.2-1.5-1.5-2.7-.7-3.4-.7-5.5zm2.1-2.5h4.8v-1.2-1.2-1.2s0-.7-.2-1-.2-.7-.5-1-.2-.5-.7-.5c-.2-.2-.5-.2-1-.2s-1 0-1.5.2c-.2.2-.7.5-.7.7-.2.2-.2.7-.5 1.5 0 .7-.2 1.2-.2 1.7.5.5.5 1.3.5 2.2zM1184.7 754v-1-1.9-1.7s.2-1.2.2-1.7.2-1 .5-1.5c.2-.5.5-1 .7-1.2.2-.2.7-.5 1.2-.7s1-.2 1.7-.2 1.2 0 1.7.2 1 .5 1.2.7c.2.2.7.7.7 1.2.2.5.5 1 .5 1.5s.2 1 .2 1.7v9.1s-.2.7-.2 1.2-.2 1-.5 1.2c-.2.2-.2.5-.5 1l-.7.7c-.2.2-.7.2-1.2.5-.5 0-1 .2-1.5.2s-1 0-1.5-.2c-.5 0-.7-.2-1.2-.5s-.5-.5-.7-.7-.5-.7-.5-1c-.2-.2-.2-.7-.5-1.2 0-.5-.2-1-.2-1.2V757v-1.5c.6-.3.6-.8.6-1.5zm2.2-1v1c0 2.9.2 4.8.5 5.8.2 1 1 1.7 1.9 1.7 1 0 1.7-.5 1.9-1.7s.5-2.9.5-5.8v-1-2.4s0-1.2-.2-1.9c0-.5-.2-1-.2-1.5 0-.2-.2-.7-.5-1-.2-.2-.5-.5-.7-.5-.2 0-.5-.2-1-.2s-.7 0-1 .2c-.2 0-.5.2-.7.5s-.2.5-.5 1c0 .2-.2.7-.2 1.5s0 1.2-.2 1.9c.6.7.4 1.5.4 2.4zM1198.2 762.5v-18.2h2.2v1.7c.5-.7 1-1.2 1.7-1.7.7-.2 1.5-.5 2.2-.5 1 0 1.7.5 2.4 1.2s1 1.7 1 3.1v14.3h-2.2v-14.3c0-1-.2-1.5-.5-1.9-.2-.5-.7-.7-1.5-.7-.5 0-1 .2-1.5.5-.5.2-1 .7-1.5 1.5v15h-2.3zM1211.6 754.3v-2.4c0-1.2 0-2.4.2-3.1.2-1 .5-1.7.7-2.2s.7-1 1-1.2c.5-.2 1-.5 1.2-.7.5 0 1-.2 1.7-.2 1.7 0 2.7.5 3.4 1.7s1 2.9 1 5.3v1.9h-7v2.7c0 1.2 0 2.2.2 2.9 0 .7.2 1.2.5 1.7s.5.7.7.7c.2.2.7.2 1.2.2.7 0 1.2-.2 1.7-1 .5-.7.7-1.7.7-3.4h2.2c0 .7-.2 1.2-.2 1.9 0 .5-.2 1-.5 1.7-.2.5-.5 1-.7 1.2s-.7.7-1.2 1c-.5.2-1 .2-1.7.2-1.2 0-2.2-.2-2.9-.7s-1.2-1.5-1.5-2.7c-.7-1.4-.7-3.4-.7-5.5zm2.1-2.5h4.8v-1.2-1.2-1.2s0-.7-.2-1c-.2-.3-.2-.7-.5-1-.3-.3-.2-.5-.7-.5-.2-.2-.5-.2-1-.2s-1 0-1.5.2c-.2.2-.7.5-.7.7-.2.2-.2.7-.5 1.5 0 .7-.2 1.2-.2 1.7.5.5.5 1.3.5 2.2zM1152.3 799.5v-25.9h9v1.9h-6.5v9.9h4.8v1.7h-4.8v10.7h6.5v1.9h-9v-.2zM1164.6 799.5v-25.9h2.2v25.9h-2.2zM1170.7 795.2l1.7-.5c.2.5.2 1 .5 1.2.2.5.5.7.7 1.2.2.5.7.7 1 1 .5.2.7.5 1.2.5.7 0 1.5-.2 1.7-.7.5-.5.5-1.2.5-1.9 0-1.2-1-2.7-3.1-4.4l-1.2-1.2c-1-1-1.7-1.7-2.2-2.4s-.7-1.5-.7-2.4c0-1.5.5-2.4 1.2-3.1.7-.7 1.9-1.2 3.1-1.2.7 0 1.2.2 1.7.5s1 .5 1.2 1c.2.5.7 1 1 1.5.3.5.5 1 .5 1.7l-1.9.7c0-.5-.2-1.2-.5-1.7s-.5-1-1-1.5-1-.7-1.5-.7c-.7 0-1.2.2-1.7.7s-.5 1-.5 1.7c0 .5.2 1.2.5 1.7.5.5 1 1.2 1.7 1.7l1.5 1.2 1 1 1 1s.7.7.7 1.2c.2.2.2.7.5 1.2s.2 1 .2 1.5c0 1.5-.5 2.4-1.2 3.1-.7.7-1.9 1.2-3.4 1.2-1.2 0-2.4-.5-3.4-1.5.1-.9-.6-2.1-.8-3.3zM1183.2 791.3v-2.4c0-1.2 0-2.4.2-3.1.2-1 .5-1.7.7-2.2.2-.5.7-1 1-1.2.5-.2 1-.5 1.2-.7.5 0 1-.2 1.7-.2 1.7 0 2.7.5 3.4 1.7.7 1.2 1 2.9 1 5.3v1.9h-7v2.7c0 1.2 0 2.2.2 2.9 0 .7.2 1.2.5 1.7s.5.7.7.7c.2.2.7.2 1.2.2.7 0 1.2-.2 1.7-1s.7-1.7.7-3.4h2.2c0 .7-.2 1.2-.2 1.9 0 .5-.2 1-.5 1.7-.2.5-.5 1-.7 1.2-.2.2-.7.7-1.2 1-.5.2-1 .2-1.7.2-1.2 0-2.2-.2-2.9-.7-.7-.5-1.2-1.5-1.5-2.7-.7-1.4-.7-3.3-.7-5.5zm2.2-2.4h4.8v-1.2-1.2-1.2s0-.7-.2-1c0-.2-.2-.7-.5-1s-.2-.5-.7-.5c-.2-.2-.5-.2-1-.2s-1 0-1.5.2c-.2.2-.7.5-.7.7-.2.2-.2.7-.5 1.5 0 .7-.2 1.2-.2 1.7.5.5.5 1.2.5 2.2z"/></g></g><path fill="#C4C4C4" d="M1208.9 372.3h1v59.1h-1z"/></svg>