<svg xmlns="http://www.w3.org/2000/svg" viewBox="615 377.5 66.1 66.2"><circle fill="#1E491E" cx="648.1" cy="410.5" r="33"/><g fill="#172E60"><path d="M631 438.3c-1.8-2-4.1-3.5-6.6-4.7 2.3 2.3 4.9 4.3 7.8 5.9-.4-.3-.8-.8-1.2-1.2zM660.9 440.8c1.7-3.3 4.2-6.2 7.3-8.3.6-.4 1.4-.9 1.7-1.6.6-1.4-.4-3-1.5-4s-2.4-2.1-2.5-3.6c0-1.3.8-2.4 1.5-3.5 1-1.8 1.4-3.8 1.7-5.8.2-1.2.4-2.5.1-3.7-.6-2.3-2.8-3.6-4.9-4.8-2.6-1.5-5.3-3-7.9-4.5-1.6-.9-3.4-2-3.6-3.8 1-.7 2.3-.6 3.6-.9 1.2-.3 2.5-1.4 2-2.5-.3-.7-1.1-1.1-1.5-1.8-.3-.6-.2-1.4.2-1.9.5-.5 1.3-.6 1.9-.3.9-.9.3-2.5-.6-3.4s-2.2-1.2-3.3-1.9-1.9-2.1-1.3-3.2c.8.1 1.6.2 2.3 0s1.5-.7 1.6-1.5c.3-.1.7-.3 1-.4-3.4-1.2-6.9-1.8-10.6-1.8-10.5 0-19.8 4.9-25.9 12.5v.1c1.3-.6 2.5-1.2 3.7-1.8.8 1.2 2.4 1.6 3.8 1.6 1.5 0 2.9-.4 4.3-.2 1.4.1 3 1 3.2 2.4 2.8-.6 5.8 1.2 6.7 3.9 1.1 3.3-1 6.8-3 9.6s-4.2 6.1-3.5 9.5c.4 2 1.9 3.7 3.1 5.4 1.2 1.7 2.3 3.7 1.9 5.8-.2 1.1-.8 2-1.1 3.1-.5 2.3.7 4.6 2 6.6-.7.6-1.8.4-2.6 0s-1.6-1-2.5-1.1c-1.2-.1-2.2.6-2.9 1.6-.7.9-1 2.1-1.3 3.2-.3.3-.7.4-1 .3 4.5 2.3 9.5 3.6 14.9 3.6 4.8 0 9.4-1 13.5-2.9 0-.1-.3-.1-.5 0zm-3-27.1c-.2.6-.6 1.1-1 1.6-1 .5-2.4.8-3.3 0-.4-.4-.7-1.1-1.2-1.4-.7-.3-1.6.1-2.3-.1-.5-.2-.9-.7-1-1.3-.1-.5 0-1.1.1-1.7.4-1.3 1.1-2.6 2.1-3.6.2-.2.5-.4.7-.7.3-.3 1-.1 1.3.2.3.3.5.8.9 1.1.7.5 1.6.4 2.5.2.2.7-.3 1.6-1.1 1.8 0 .5.3.9.8 1.1.4.2.9.3 1.3.7.3.8.3 1.5.2 2.1z"/></g></svg>