<svg version="1.1" id="Layer_1" xmlns="http://www.w3.org/2000/svg" xmlns:xlink="http://www.w3.org/1999/xlink" x="0px" y="0px"
	 viewBox="0 0 240 109.2" enable-background="new 0 0 240 109.2" xml:space="preserve">
<g>
	<g>
		<path fill="#FAA31E" d="M225.2,109.2H175c-2.5,0-4.5-2.4-4.5-5.3V23.6c0-3,2-5.3,4.5-5.3h50.2c2.5,0,4.5,2.4,4.5,5.3v80.3
			C229.7,106.8,227.7,109.2,225.2,109.2z"/>
		<path fill="#F29922" d="M229.7,36.1v67.7c0,3-2,5.3-4.5,5.3H175c-2.5,0-4.5-2.4-4.5-5.3V76.3"/>
		<path fill="#F3F3F3" d="M219.8,98.3h-39.4c-2,0-3.5-1.8-3.5-4.1V28.7c0-2.2,1.5-4.1,3.5-4.1h39.4c2,0,3.5,1.8,3.5,4.1v65.6
			C223.3,96.6,221.6,98.3,219.8,98.3z"/>
		<g>
			
				<polyline fill="none" stroke="#C2C1C1" stroke-width="0.25" stroke-linecap="round" stroke-linejoin="round" stroke-miterlimit="10" points="
				177.2,48.1 182.7,43.1 183.8,52 185.3,50 185.3,47.9 191.1,46.5 193.6,50.5 202.4,47.5 202.4,44.3 208.3,42 207.4,44.9 211.2,46 
				212.8,50.9 218,54 221.1,54 221.1,60 222.9,60.7 223.1,65 			"/>
			
				<polyline fill="none" stroke="#C2C1C1" stroke-width="0.25" stroke-linecap="round" stroke-linejoin="round" stroke-miterlimit="10" points="
				205.9,42.9 209.2,35.3 207.6,33.3 212.2,32.1 218,31 215.3,26.6 220,24.9 			"/>
		</g>
		<g>
			<rect x="189.1" y="40.6" fill="#231F20" width="2.1" height="2.6"/>
			<rect x="189.1" y="45.7" fill="#231F20" width="2.1" height="2.6"/>
			<rect x="191.2" y="43.2" fill="#231F20" width="2.1" height="2.6"/>
			<rect x="193.5" y="40.6" fill="#231F20" width="2.1" height="2.6"/>
			<rect x="193.5" y="45.7" fill="#231F20" width="2.1" height="2.6"/>
			<rect x="205.2" y="40.6" fill="#231F20" width="2.1" height="2.6"/>
			<rect x="205.2" y="45.7" fill="#231F20" width="2.1" height="2.6"/>
			<rect x="207.4" y="43.2" fill="#231F20" width="2.1" height="2.6"/>
			<rect x="209.6" y="40.6" fill="#231F20" width="2.1" height="2.6"/>
			<rect x="209.6" y="45.7" fill="#231F20" width="2.1" height="2.6"/>
			<rect x="197" y="60.2" fill="#231F20" width="2.1" height="2.6"/>
			<rect x="199.3" y="60.2" fill="#231F20" width="2.1" height="2.6"/>
			<rect x="201.4" y="60.2" fill="#231F20" width="2.1" height="2.6"/>
		</g>
		<g>
			
				<polyline fill="none" stroke="#C2C1C1" stroke-width="0.25" stroke-linecap="round" stroke-linejoin="round" stroke-miterlimit="10" points="
				185.8,70.9 188.9,73.7 189.8,74.6 187.4,77.9 190.2,81.3 192.4,82.7 189,85.6 190.9,87 192.5,86.3 192.5,91.5 192.5,93.9 
				194.8,96.1 			"/>
			
				<line fill="none" stroke="#C2C1C1" stroke-width="0.25" stroke-linecap="round" stroke-linejoin="round" stroke-miterlimit="10" x1="191.7" y1="71.4" x2="188.9" y2="73.7"/>
			
				<path fill="none" stroke="#C2C1C1" stroke-width="0.25" stroke-linecap="round" stroke-linejoin="round" stroke-miterlimit="10" d="
				M187.1,92.9l5.3-1.4L187.1,92.9z"/>
			
				<line fill="none" stroke="#C2C1C1" stroke-width="0.25" stroke-linecap="round" stroke-linejoin="round" stroke-miterlimit="10" x1="186.7" y1="95.3" x2="187.1" y2="92.9"/>
		</g>
		
			<polyline fill="none" stroke="#C2C1C1" stroke-width="0.25" stroke-linecap="round" stroke-linejoin="round" stroke-miterlimit="10" points="
			202.7,75.5 205.4,73.7 206.9,72.4 209.1,74.8 209.7,73 209.8,76.2 212.2,72 212.4,76 213,78 		"/>
		
			<polyline fill="none" stroke="#C2C1C1" stroke-width="0.25" stroke-linecap="round" stroke-linejoin="round" stroke-miterlimit="10" points="
			223.2,76.8 222.2,74.7 220.7,74.4 219.2,72.4 218,73.6 216.8,72.6 215.7,72 215.7,72 		"/>
		<g>
			<path fill="#E2BC78" d="M232.2,78H168c-4.5,0-7.9,4.9-7.9,10.6c0,5.9,3.7,10.6,7.9,10.6h64.1c4.4,0,7.8-4.9,7.8-10.6
				C240.2,82.7,236.6,78,232.2,78z"/>
			<rect x="168.3" y="82.3" fill="#E2B588" width="63.8" height="12.3"/>
			<path fill="#E3C7A1" d="M208.2,96.7h-16.2c-0.6,0-1.2-0.6-1.2-1.3V82.3c0-0.7,0.5-1.3,1.2-1.3h16.2c0.6,0,1.2,0.6,1.2,1.3v13
				C209.2,96.1,208.7,96.7,208.2,96.7z"/>
			<path fill="#E3C7A1" d="M205.8,85.1c-0.1-0.4-0.1-0.6-0.4-0.9c-1.2-2.2-3.8-2.7-5.4,0.5c-1.7-3.1-4.4-2.7-5.4-0.5
				c-0.1,0.4-0.2,0.6-0.4,0.9c-0.2,1.5-0.4,5.8,5.8,10.5C206,90.9,206,86.4,205.8,85.1z"/>
			<g>
				<g>
					<ellipse fill="#E49F67" cx="172.9" cy="84.9" rx="1.2" ry="1.4"/>
					<ellipse fill="#E49F67" cx="176.4" cy="84.9" rx="1.2" ry="1.4"/>
					<ellipse fill="#E49F67" cx="183.4" cy="84.9" rx="1.2" ry="1.4"/>
					<ellipse fill="#E49F67" cx="179.9" cy="84.9" rx="1.2" ry="1.4"/>
				</g>
				<g>
					<ellipse fill="#E49F67" cx="172.9" cy="88.5" rx="1.2" ry="1.4"/>
					<ellipse fill="#E49F67" cx="176.4" cy="88.5" rx="1.2" ry="1.4"/>
					<ellipse fill="#E49F67" cx="183.4" cy="88.5" rx="1.2" ry="1.4"/>
					<ellipse fill="#E49F67" cx="179.9" cy="88.5" rx="1.2" ry="1.4"/>
				</g>
				<g>
					<ellipse fill="#E49F67" cx="172.9" cy="92.2" rx="1.2" ry="1.4"/>
					<ellipse fill="#E49F67" cx="176.4" cy="92.2" rx="1.2" ry="1.4"/>
					<ellipse fill="#E49F67" cx="183.4" cy="92.2" rx="1.2" ry="1.4"/>
					<ellipse fill="#E49F67" cx="179.9" cy="92.2" rx="1.2" ry="1.4"/>
				</g>
			</g>
			<g>
				<g>
					<ellipse fill="#E49F67" cx="217" cy="85" rx="1.2" ry="1.4"/>
					<ellipse fill="#E49F67" cx="220.6" cy="85" rx="1.2" ry="1.4"/>
					<ellipse fill="#E49F67" cx="227.6" cy="85" rx="1.2" ry="1.4"/>
					<ellipse fill="#E49F67" cx="224" cy="85" rx="1.2" ry="1.4"/>
				</g>
				<g>
					<ellipse fill="#E49F67" cx="217" cy="88.5" rx="1.2" ry="1.4"/>
					<ellipse fill="#E49F67" cx="220.6" cy="88.5" rx="1.2" ry="1.4"/>
					<ellipse fill="#E49F67" cx="227.6" cy="88.5" rx="1.2" ry="1.4"/>
					<ellipse fill="#E49F67" cx="224" cy="88.5" rx="1.2" ry="1.4"/>
				</g>
				<g>
					<ellipse fill="#E49F67" cx="217" cy="92.3" rx="1.2" ry="1.4"/>
					<ellipse fill="#E49F67" cx="220.6" cy="92.3" rx="1.2" ry="1.4"/>
					<ellipse fill="#E49F67" cx="227.6" cy="92.3" rx="1.2" ry="1.4"/>
					<ellipse fill="#E49F67" cx="224" cy="92.3" rx="1.2" ry="1.4"/>
				</g>
			</g>
		</g>
		
			<path fill="none" stroke="#303030" stroke-width="0.25" stroke-linecap="round" stroke-linejoin="round" stroke-miterlimit="10" d="
			M181.3,29.7c-1.2,0.7-2.8-0.4-3-1.9c-0.1-1.5,1.5-3,2.8-2.2c-0.8,1.9-3,3-4.7,2.2c-1.1-0.5-2-1.4-2.4-2.6
			c-0.5-1.3-0.2-2.8,0.5-3.9c0.8-1.2,1.7-1.8,1.7-1.8c0.6-0.6,2.4-1.1,3.1-0.1c0.5,0.6,0.5,1.4,0.2,2c-0.2,0.6-0.7,1.2-1.2,1.7
			c-1.5,1.4-3.4,2.4-5.3,3c-2,0.5-4.6,0.1-5.4-2.7c-0.2-0.9-0.2-1.8,0-2.6c0.5-2.1,1.5-3.8,2.8-5.2c0.6-0.6,1.3-0.9,2.1-1.1
			c0,0,0.7-0.2,2-0.1"/>
		<path fill="#FAA31E" d="M221.8,24h-6.3c-0.4,0-0.6-0.2-0.6-0.4v-5.9c0-0.2,0.2-0.4,0.6-0.4h6.3c0.4,0,0.6,0.2,0.6,0.4v5.9
			C222.4,23.9,222.1,24,221.8,24z"/>
		<path fill="#FAA31E" d="M173.7,37.4h-3.7c-0.2,0-0.4-0.2-0.4-0.5v-7.1c0-0.2,0.1-0.5,0.4-0.5h3.7c0.2,0,0.4,0.2,0.4,0.5v7.1
			C174.1,37.3,174,37.4,173.7,37.4z"/>
		<path fill="#FAA31E" d="M173.7,47.7h-3.7c-0.2,0-0.4-0.2-0.4-0.5v-7.1c0-0.2,0.1-0.5,0.4-0.5h3.7c0.2,0,0.4,0.2,0.4,0.5v7.1
			C174.1,47.5,174,47.7,173.7,47.7z"/>
		<rect x="191.7" y="103.7" fill="#E08626" width="17.2" height="1.9"/>
	</g>
	<g>
		<rect x="198.2" y="82.7" fill="#DD2227" stroke="#DD2227" stroke-miterlimit="10" width="3.5" height="4.1"/>
		<rect x="198.2" y="86.9" fill="#DD2227" stroke="#DD2227" stroke-miterlimit="10" width="3.5" height="4.1"/>
		<rect x="201.8" y="86.9" fill="#DD2227" stroke="#DD2227" stroke-miterlimit="10" width="3.5" height="4.1"/>
		<rect x="194.7" y="86.9" fill="#DD2227" stroke="#DD2227" stroke-miterlimit="10" width="3.5" height="4.1"/>
		<rect x="198.2" y="91" fill="#DD2227" stroke="#DD2227" stroke-miterlimit="10" width="3.5" height="4.1"/>
	</g>
</g>
<g>
	<path fill="#FAA31E" d="M55.5,108.8H5.3c-2.5,0-4.5-2.4-4.5-5.3V23.1c0-3,2-5.3,4.5-5.3h50.2c2.5,0,4.5,2.4,4.5,5.3v80.3
		C60,106.3,58,108.8,55.5,108.8z"/>
	<path fill="#F29922" d="M60,36.1v67.7c0,3-2,5.3-4.5,5.3H5.3c-2.5,0-4.5-2.4-4.5-5.3V76.3"/>
	<path fill="#F3F3F3" d="M50.1,98.3H10.6c-2,0-3.5-1.8-3.5-4.1V28.7c0-2.2,1.5-4.1,3.5-4.1h39.4c2,0,3.5,1.8,3.5,4.1v65.6
		C53.6,96.6,51.9,98.3,50.1,98.3z"/>
	<path fill="#FAA31E" d="M52.7,22.5h-6.3c-0.4,0-0.6-0.2-0.6-0.4v-5.9c0-0.2,0.2-0.4,0.6-0.4h6.3c0.4,0,0.6,0.2,0.6,0.4v5.9
		C53.3,22.4,53.1,22.5,52.7,22.5z"/>
	<path fill="#FAA31E" d="M4,37.4H0.4c-0.2,0-0.4-0.2-0.4-0.5v-7.1c0-0.2,0.1-0.5,0.4-0.5H4c0.2,0,0.4,0.2,0.4,0.5v7.1
		C4.4,37.3,4.3,37.4,4,37.4z"/>
	<path fill="#FAA31E" d="M4,47.7H0.4c-0.2,0-0.4-0.2-0.4-0.5v-7.1c0-0.2,0.1-0.5,0.4-0.5H4c0.2,0,0.4,0.2,0.4,0.5v7.1
		C4.4,47.5,4.3,47.7,4,47.7z"/>
	<rect x="22" y="103.7" fill="#E08626" width="17.2" height="1.9"/>
	<g>
		<rect x="19.3" y="42.8" fill="#231F20" width="2.1" height="2.6"/>
		<rect x="21.4" y="40.3" fill="#231F20" width="2.1" height="2.6"/>
		<rect x="23.7" y="42.8" fill="#231F20" width="2.1" height="2.6"/>
		<rect x="35.4" y="42.8" fill="#231F20" width="2.1" height="2.6"/>
		<rect x="37.6" y="40.3" fill="#231F20" width="2.1" height="2.6"/>
		<rect x="39.8" y="42.8" fill="#231F20" width="2.1" height="2.6"/>
		<rect x="27.2" y="57.3" fill="#231F20" width="2.1" height="2.6"/>
		<rect x="29.5" y="57.3" fill="#231F20" width="2.1" height="2.6"/>
		<rect x="31.6" y="57.3" fill="#231F20" width="2.1" height="2.6"/>
	</g>
	<g>
		<rect x="29.5" y="83.1" fill="#E11D3D" width="2.1" height="2.6"/>
		<rect x="29.5" y="80.5" fill="#E11D3D" width="2.1" height="2.6"/>
		<rect x="29.5" y="77.9" fill="#E11D3D" width="2.1" height="2.6"/>
		<rect x="31.7" y="75.3" fill="#E11D3D" width="2.1" height="2.6"/>
		<rect x="27.4" y="75.3" fill="#E11D3D" width="2.1" height="2.6"/>
		<rect x="25.3" y="77.9" fill="#E11D3D" width="2.1" height="2.6"/>
		<rect x="27.4" y="80.5" fill="#E11D3D" width="2.1" height="2.6"/>
		<rect x="27.4" y="77.9" fill="#E11D3D" width="2.1" height="2.6"/>
		<rect x="31.7" y="77.9" fill="#E11D3D" width="2.1" height="2.6"/>
		<rect x="31.7" y="80.5" fill="#E11D3D" width="2.1" height="2.6"/>
		<rect x="33.8" y="77.9" fill="#E11D3D" width="2.1" height="2.6"/>
	</g>
	<g>
		<path fill="#F9A21C" d="M4.1,11.8V8.1L1.6,0h1C2.7,0.3,2.8,0.8,3,1.4C3.1,2,3.3,2.6,3.5,3.2C3.7,3.8,3.9,4.4,4,5
			c0.2,0.6,0.3,1,0.4,1.4l0.2,0.5c0.3-1.1,0.6-2.3,1-3.6s0.7-2.4,1-3.4h1L5.1,8.1v3.7H4.1z"/>
		<path fill="#F9A21C" d="M8.2,7.9V7.5c0-0.4,0-0.6,0-0.8c0-0.2,0-0.5,0-0.8c0-0.3,0.1-0.6,0.1-0.8c0.1-0.2,0.1-0.4,0.2-0.6
			C8.7,4.2,8.8,4,8.9,3.9s0.3-0.2,0.6-0.3c0.2-0.1,0.5-0.1,0.8-0.1s0.6,0,0.8,0.1c0.2,0.1,0.4,0.2,0.6,0.3s0.3,0.3,0.4,0.6
			c0.1,0.2,0.2,0.5,0.2,0.6c0.1,0.2,0.1,0.4,0.1,0.8c0,0.3,0,0.6,0,0.8c0,0.2,0,0.5,0,0.8v0.4c0,0.3,0,0.5,0,0.7c0,0.2,0,0.4,0,0.6
			c0,0.3,0,0.5-0.1,0.6s-0.1,0.3-0.1,0.6c0,0.2-0.1,0.4-0.2,0.5c-0.1,0.1-0.2,0.3-0.3,0.4c-0.1,0.1-0.2,0.3-0.4,0.3
			c-0.1,0.1-0.3,0.1-0.5,0.2c-0.2,0.1-0.4,0.1-0.6,0.1s-0.4,0-0.6-0.1c-0.2-0.1-0.4-0.1-0.5-0.2c-0.1-0.1-0.3-0.2-0.4-0.3
			c-0.1-0.1-0.2-0.3-0.3-0.4c-0.1-0.1-0.1-0.3-0.2-0.5c0-0.2-0.1-0.4-0.1-0.6s0-0.4-0.1-0.6c0-0.3,0-0.5,0-0.6S8.2,8.2,8.2,7.9z
			 M9.2,7.5v0.4c0,1.3,0.1,2.2,0.2,2.7c0.1,0.5,0.4,0.7,0.9,0.7s0.8-0.2,0.9-0.7c0.1-0.5,0.2-1.4,0.2-2.7V7.5c0-0.4,0-0.8,0-1.1
			c0-0.3,0-0.6-0.1-0.9S11.3,5,11.2,4.9S11.1,4.6,11,4.4s-0.2-0.2-0.3-0.3c-0.1-0.1-0.3-0.1-0.4-0.1s-0.3,0-0.4,0.1S9.6,4.3,9.6,4.4
			C9.5,4.6,9.4,4.7,9.4,4.9c0,0.2-0.1,0.4-0.1,0.7s0,0.6-0.1,0.9C9.2,6.7,9.2,7,9.2,7.5z"/>
		<path fill="#F9A21C" d="M14.2,10V3.6h1V10c0,0.4,0.1,0.7,0.2,0.9s0.4,0.3,0.6,0.3c0.2,0,0.4-0.1,0.7-0.2s0.5-0.3,0.7-0.6V3.6h1
			v8.2h-1V11c-0.2,0.3-0.5,0.6-0.8,0.7c-0.3,0.2-0.6,0.2-0.9,0.2c-0.4,0-0.8-0.2-1.1-0.5C14.4,11.1,14.2,10.6,14.2,10z"/>
		<path fill="#F9A21C" d="M20.6,11.8V3.6h1v1.2c0.1-0.4,0.4-0.7,0.7-1c0.3-0.2,0.7-0.3,1-0.3v1c0,0-0.1,0-0.2,0
			c-1,0-1.5,0.4-1.5,1.2v6.1H20.6z"/>
		<path fill="#F9A21C" d="M27.7,11.8V0h2.8c0.4,0,0.8,0.1,1.1,0.2c0.3,0.1,0.6,0.3,0.8,0.5c0.2,0.2,0.4,0.4,0.5,0.7s0.2,0.6,0.3,0.9
			c0.1,0.3,0.1,0.6,0.1,1c0,0.4,0,0.7-0.1,1S33.1,4.8,33,5.1s-0.3,0.6-0.5,0.8C32.3,6,32,6.2,31.7,6.3c-0.3,0.1-0.7,0.2-1.1,0.2
			h-1.8v5.2H27.7z M28.8,5.7l1.9,0c0.6,0,1-0.2,1.2-0.6c0.2-0.4,0.4-1,0.4-1.9c0-0.8-0.1-1.4-0.4-1.8s-0.7-0.6-1.2-0.6h-1.9V5.7z"/>
		<path fill="#F9A21C" d="M34.6,11.8V0h1v4.3c0.2-0.3,0.5-0.6,0.8-0.7c0.3-0.2,0.6-0.2,0.9-0.2c0.4,0,0.8,0.2,1.1,0.5
			c0.3,0.3,0.5,0.8,0.5,1.4v6.4h-1V5.4c0-0.8-0.3-1.2-0.8-1.2c-0.2,0-0.5,0.1-0.7,0.2C36,4.5,35.8,4.7,35.6,5v6.8H34.6z"/>
		<path fill="#F9A21C" d="M40.6,7.9V7.5c0-0.4,0-0.6,0-0.8c0-0.2,0-0.5,0-0.8c0-0.3,0.1-0.6,0.1-0.8c0.1-0.2,0.1-0.4,0.2-0.6
			c0.1-0.2,0.2-0.4,0.4-0.6s0.3-0.2,0.6-0.3c0.2-0.1,0.5-0.1,0.8-0.1s0.6,0,0.8,0.1c0.2,0.1,0.4,0.2,0.6,0.3s0.3,0.3,0.4,0.6
			c0.1,0.2,0.2,0.5,0.2,0.6c0.1,0.2,0.1,0.4,0.1,0.8c0,0.3,0,0.6,0,0.8c0,0.2,0,0.5,0,0.8v0.4c0,0.3,0,0.5,0,0.7c0,0.2,0,0.4,0,0.6
			c0,0.3,0,0.5-0.1,0.6s-0.1,0.3-0.1,0.6c0,0.2-0.1,0.4-0.2,0.5c-0.1,0.1-0.2,0.3-0.3,0.4c-0.1,0.1-0.2,0.3-0.4,0.3
			c-0.1,0.1-0.3,0.1-0.5,0.2c-0.2,0.1-0.4,0.1-0.6,0.1s-0.4,0-0.6-0.1c-0.2-0.1-0.4-0.1-0.5-0.2c-0.1-0.1-0.3-0.2-0.4-0.3
			c-0.1-0.1-0.2-0.3-0.3-0.4c-0.1-0.1-0.1-0.3-0.2-0.5c0-0.2-0.1-0.4-0.1-0.6s0-0.4-0.1-0.6c0-0.3,0-0.5,0-0.6S40.6,8.2,40.6,7.9z
			 M41.7,7.5v0.4c0,1.3,0.1,2.2,0.2,2.7c0.1,0.5,0.4,0.7,0.9,0.7s0.8-0.2,0.9-0.7c0.1-0.5,0.2-1.4,0.2-2.7V7.5c0-0.4,0-0.8,0-1.1
			c0-0.3,0-0.6-0.1-0.9S43.8,5,43.7,4.9s-0.1-0.3-0.2-0.4s-0.2-0.2-0.3-0.3c-0.1-0.1-0.3-0.1-0.4-0.1s-0.3,0-0.4,0.1
			S42.1,4.3,42,4.4c-0.1,0.1-0.2,0.3-0.2,0.4c0,0.2-0.1,0.4-0.1,0.7s0,0.6-0.1,0.9C41.7,6.7,41.7,7,41.7,7.5z"/>
		<path fill="#F9A21C" d="M46.7,11.8V3.6h1v0.8C48,4,48.2,3.8,48.5,3.6s0.6-0.2,0.9-0.2c0.4,0,0.8,0.2,1.1,0.5S51,4.7,51,5.3v6.4h-1
			V5.3c0-0.4-0.1-0.7-0.2-0.9s-0.4-0.3-0.6-0.3c-0.2,0-0.4,0.1-0.7,0.2S48,4.7,47.8,5v6.8H46.7z"/>
		<path fill="#F9A21C" d="M52.8,8V6.8c0-0.6,0-1.1,0.1-1.5c0.1-0.4,0.2-0.8,0.3-1c0.1-0.3,0.3-0.5,0.5-0.6s0.4-0.2,0.6-0.3
			c0.2-0.1,0.4-0.1,0.7-0.1c0.7,0,1.2,0.3,1.6,0.8S57,5.5,57,6.6c0,0.3,0,0.6,0,0.8h-3.2v1.3c0,0.5,0,1,0.1,1.3s0.1,0.6,0.2,0.8
			s0.2,0.3,0.4,0.3c0.1,0.1,0.3,0.1,0.5,0.1c0.3,0,0.6-0.2,0.8-0.5s0.3-0.8,0.3-1.5H57c0,0.3-0.1,0.6-0.1,0.8s-0.1,0.5-0.2,0.7
			s-0.2,0.4-0.4,0.6s-0.3,0.3-0.5,0.4s-0.5,0.2-0.8,0.2c-0.6,0-1-0.1-1.3-0.3S53.1,11,53,10.4C52.8,9.8,52.8,9,52.8,8z M53.8,7H56
			c0-0.2,0-0.4,0-0.6s0-0.4,0-0.6s0-0.4,0-0.5s0-0.3-0.1-0.5s-0.1-0.3-0.2-0.4s-0.2-0.2-0.3-0.3c-0.1-0.1-0.3-0.1-0.4-0.1
			c-0.2,0-0.5,0-0.6,0.1s-0.3,0.2-0.4,0.3c-0.1,0.1-0.2,0.3-0.2,0.6s-0.1,0.5-0.1,0.8S53.8,6.5,53.8,7z"/>
	</g>
</g>
<g>
	<g>
		<g>
			<path fill="#3D3D3D" d="M81.1,98c-0.4,0-0.8-0.2-1.1-0.5c-0.3-0.3-0.4-0.7-0.4-1c0-0.4,0.2-0.8,0.4-1.1c0.6-0.6,1.6-0.6,2.1,0
				c0.3,0.3,0.4,0.7,0.4,1.1c0,0.4-0.2,0.8-0.4,1C81.9,97.8,81.5,98,81.1,98z"/>
			<path fill="#3D3D3D" d="M95.1,96.5c0-0.8,0.7-1.5,1.5-1.5l0,0c0.8,0,1.5,0.7,1.5,1.5l0,0c0,0.8-0.7,1.5-1.5,1.5l0,0
				C95.7,98,95.1,97.3,95.1,96.5z M89.9,96.5c0-0.8,0.7-1.5,1.5-1.5l0,0c0.8,0,1.5,0.7,1.5,1.5l0,0c0,0.8-0.7,1.5-1.5,1.5l0,0
				C90.6,98,89.9,97.3,89.9,96.5z M84.8,96.5c0-0.8,0.7-1.5,1.5-1.5l0,0c0.8,0,1.5,0.7,1.5,1.5l0,0c0,0.8-0.7,1.5-1.5,1.5l0,0
				C85.4,98,84.8,97.3,84.8,96.5z M105.3,96.5c0-0.8,0.7-1.5,1.5-1.5l0,0c0.8,0,1.5,0.7,1.5,1.5l0,0c0,0.8-0.7,1.5-1.5,1.5l0,0
				C106,98,105.3,97.3,105.3,96.5z M100.2,96.5c0-0.8,0.7-1.5,1.5-1.5l0,0c0.8,0,1.5,0.7,1.5,1.5l0,0c0,0.8-0.7,1.5-1.5,1.5l0,0
				C100.9,98,100.2,97.3,100.2,96.5z M120.8,96.5c0-0.8,0.7-1.5,1.5-1.5l0,0c0.8,0,1.5,0.7,1.5,1.5l0,0c0,0.8-0.7,1.5-1.5,1.5l0,0
				C121.4,98,120.8,97.3,120.8,96.5z M115.6,96.5c0-0.8,0.7-1.5,1.5-1.5l0,0c0.8,0,1.5,0.7,1.5,1.5l0,0c0,0.8-0.7,1.5-1.5,1.5l0,0
				C116.3,98,115.6,97.3,115.6,96.5z M110.5,96.5c0-0.8,0.7-1.5,1.5-1.5l0,0c0.8,0,1.5,0.7,1.5,1.5l0,0c0,0.8-0.7,1.5-1.5,1.5l0,0
				C111.2,98,110.5,97.3,110.5,96.5z M131.1,96.5c0-0.8,0.7-1.5,1.5-1.5l0,0c0.8,0,1.5,0.7,1.5,1.5l0,0c0,0.8-0.7,1.5-1.5,1.5l0,0
				C131.7,98,131.1,97.3,131.1,96.5z M125.9,96.5c0-0.8,0.7-1.5,1.5-1.5l0,0c0.8,0,1.5,0.7,1.5,1.5l0,0c0,0.8-0.7,1.5-1.5,1.5l0,0
				C126.6,98,125.9,97.3,125.9,96.5z M136.2,96.5c0-0.8,0.7-1.5,1.5-1.5l0,0c0.8,0,1.5,0.7,1.5,1.5l0,0c0,0.8-0.7,1.5-1.5,1.5l0,0
				C136.9,98,136.2,97.3,136.2,96.5z"/>
			<path fill="#3D3D3D" d="M142.8,98c-0.4,0-0.8-0.1-1.1-0.4c-0.3-0.3-0.4-0.7-0.4-1.1c0-0.4,0.2-0.8,0.4-1.1c0.6-0.5,1.6-0.5,2.1,0
				c0.3,0.3,0.4,0.7,0.4,1.1c0,0.4-0.2,0.8-0.4,1.1C143.6,97.8,143.2,98,142.8,98z"/>
			<path fill="#3D3D3D" d="M142.9,97.8c-0.4,0-0.8-0.2-1.1-0.4c-0.3-0.3-0.4-0.7-0.4-1.1c0-0.4,0.2-0.8,0.4-1.1
				c0.6-0.6,1.6-0.6,2.1,0c0.3,0.3,0.4,0.7,0.4,1.1c0,0.4-0.2,0.8-0.4,1.1C143.7,97.7,143.3,97.8,142.9,97.8z"/>
			<path fill="#3D3D3D" d="M138.1,93.6c-0.6-0.6-0.6-1.5,0-2.1l0,0c0.6-0.6,1.5-0.6,2.1,0l0,0c0.6,0.6,0.6,1.5,0,2.1l0,0
				c-0.3,0.3-0.7,0.4-1.1,0.4l0,0C138.8,94.1,138.4,93.9,138.1,93.6z"/>
			<path fill="#3D3D3D" d="M135.4,90.3c-0.4,0-0.8-0.2-1.1-0.4c-0.3-0.3-0.4-0.7-0.4-1.1c0-0.4,0.2-0.8,0.4-1.1
				c0.6-0.6,1.6-0.6,2.1,0c0.3,0.3,0.4,0.7,0.4,1.1c0,0.4-0.2,0.8-0.4,1.1C136.2,90.2,135.8,90.3,135.4,90.3z"/>
			<path fill="#3D3D3D" d="M137.9,93.7c-0.6-0.6-0.5-1.6,0.1-2.1l0,0c0.6-0.6,1.6-0.5,2.1,0.1l0,0c0.6,0.6,0.5,1.6-0.1,2.1l0,0
				c-0.3,0.3-0.6,0.4-1,0.4l0,0C138.6,94.2,138.2,94.1,137.9,93.7z"/>
			<path fill="#3D3D3D" d="M142.7,98.1c-0.4,0-0.8-0.2-1.1-0.4c-0.3-0.3-0.4-0.7-0.4-1.1c0-0.4,0.2-0.8,0.4-1.1
				c0.6-0.5,1.6-0.5,2.1,0c0.3,0.3,0.4,0.7,0.4,1.1c0,0.4-0.2,0.8-0.4,1.1C143.4,98,143.1,98.1,142.7,98.1z"/>
			<path fill="#3D3D3D" d="M137.8,101.5c-0.6-0.6-0.6-1.5,0-2.1l0,0c0.6-0.6,1.5-0.6,2.1,0l0,0c0.6,0.6,0.6,1.5,0,2.1l0,0
				c-0.3,0.3-0.7,0.4-1.1,0.4l0,0C138.5,101.9,138.1,101.8,137.8,101.5z"/>
			<path fill="#3D3D3D" d="M135.1,105.7c-0.4,0-0.8-0.2-1-0.4c-0.3-0.3-0.4-0.7-0.4-1.1c0-0.4,0.2-0.8,0.4-1.1
				c0.6-0.6,1.6-0.6,2.1,0c0.3,0.3,0.4,0.7,0.4,1.1c0,0.4-0.2,0.8-0.4,1.1C135.9,105.5,135.5,105.7,135.1,105.7z"/>
		</g>
	</g>
	<g>
		<g>
			<polygon fill="#F9E028" points="129.5,72.2 129.1,69.7 140.5,66 131.7,61.5 134.4,59 129.8,59.1 134.3,46.7 121.6,53.5 
				121.8,46.7 118.5,49.7 114.1,40 110.2,49.9 105.1,42.2 104.1,50.3 93.4,44 95.9,51.2 92,50.6 95.2,56.6 83.5,60.1 93.7,67.5 
				90.4,71.8 95.9,70.1 93.2,84.2 104,73.8 104.6,80.2 107.9,77.2 113.1,85.7 116.3,78.2 119.5,82.9 121.8,75.6 130.9,80.8 
				130,75.2 132,75.4 			"/>
		</g>
		<g>
			<polygon fill="#DCA627" points="121.8,68.1 121.6,66.7 127.9,64.6 123,62.1 124.5,60.7 121.9,60.8 124.5,53.9 117.4,57.7 
				117.5,53.9 115.6,55.6 113.2,50.2 111,55.6 108.2,51.3 107.6,55.9 101.6,52.3 103,56.4 100.9,56 102.6,59.4 96.2,61.4 
				101.8,65.4 100,67.9 103,66.9 101.5,74.8 107.6,68.9 107.9,72.5 109.8,70.9 112.6,75.6 114.4,71.4 116.2,74 117.4,70 122.5,72.9 
				122,69.7 123.1,69.9 			"/>
		</g>
		<g>
			<path fill="#FFFFFF" stroke="#333333" stroke-width="0.75" stroke-miterlimit="10" d="M94,67.6c0.3,0,0.7-0.2,1-0.6
				c0.4-0.4,0.6-0.8,0.7-1.3l2.3,0.9c-0.6,1.4-1.4,2.5-2.3,3.3c-0.8,0.7-1.7,1.1-2.6,1.1c-0.8,0-1.5-0.4-2-1.1
				c-0.5-0.8-0.8-1.9-0.8-3.2s0.2-2.6,0.5-3.8c0.3-1.2,0.8-2.3,1.5-3.3s1.4-1.8,2.2-2.4c0.9-0.6,1.8-0.9,2.8-0.9
				c0.7,0,1.2,0.3,1.7,0.8c0.5,0.5,0.7,1.2,0.7,2.1v0.3c0,0.1,0,0.2,0,0.3l-2.6,0.7c-0.2-0.3-0.3-0.5-0.6-0.5s-0.4,0.1-0.7,0.4
				s-0.5,0.6-0.7,1c-0.2,0.4-0.4,0.8-0.7,1.3c-0.2,0.5-0.4,1-0.5,1.5c-0.4,1.1-0.5,2-0.5,2.6S93.6,67.6,94,67.6z"/>
			<path fill="#FFFFFF" stroke="#333333" stroke-width="0.75" stroke-miterlimit="10" d="M103.9,70.6c-1-3.3-1.5-5.2-1.6-5.6L102,65
				c-0.1,0.6-0.3,1.4-0.5,2.5c-0.2,1.1-0.4,1.9-0.5,2.6l-3.2,0.8c1.4-6.5,2.2-11.2,2.5-13.9c1.5-0.5,3.2-0.7,5.1-0.7
				c1.4,0,2.2,0.5,2.5,1.5c0.1,0.3,0.1,0.7,0.1,1.1s-0.1,0.9-0.3,1.4c-0.2,0.5-0.4,1-0.7,1.5c-0.7,1-1.5,1.7-2.4,2.2
				c0.5,1.1,1,2.1,1.4,3.1c0.4,1,0.7,1.8,1,2.5L103.9,70.6z M104,59l-0.9,0l-0.6,3.2c0.5-0.1,1.2-0.4,2-1c0.8-0.6,1.2-1.1,1.2-1.5
				c0-0.4-0.4-0.6-1.1-0.6C104.5,59,104.3,59,104,59z"/>
			<path fill="#FFFFFF" stroke="#333333" stroke-width="0.75" stroke-miterlimit="10" d="M110.5,67.5l-0.8,2.9c-0.3,0-0.6,0.1-1,0.1
				c-0.4,0.1-0.8,0.1-1.2,0.1s-0.8,0.1-1.2,0.1c0.5-1.8,1-3.3,1.4-4.5s0.7-2.2,0.9-3s0.5-1.6,0.7-2.3c0.2-0.8,0.4-1.5,0.7-2.2
				s0.4-1.4,0.6-2c2.4-0.2,4.2-0.4,5.5-0.6c-0.1,1.3-0.2,2.8-0.3,4.6c-0.2,3.5-0.3,6.7-0.4,9.7c-0.4,0.1-0.8,0.1-1.1,0.2
				s-0.8,0.1-1.2,0.2c-0.4,0.1-0.8,0.1-1.1,0.2c0.1-1.3,0.3-2.4,0.4-3.4H110.5z M110.9,65.5l1.4-0.1c0-0.1,0-0.2,0-0.4
				s0-0.4,0.1-0.7c0.1-1.4,0.2-2.7,0.3-3.9l0.1-1.7l-0.3,0L110.9,65.5z"/>
			<path fill="#FFFFFF" stroke="#333333" stroke-width="0.75" stroke-miterlimit="10" d="M122.5,60.7c0.1-0.3,0.1-0.5,0.1-0.8
				s-0.1-0.5-0.2-0.7c-0.1-0.2-0.3-0.3-0.5-0.3c-0.2,0-0.3,0-0.5,0.1s-0.3,0.2-0.5,0.3c-0.4,0.3-0.5,0.6-0.5,1s0.1,0.6,0.3,0.8
				c0.2,0.2,0.4,0.4,0.7,0.6c0.3,0.2,0.6,0.4,0.9,0.6s0.6,0.4,0.9,0.7c0.6,0.7,0.9,1.7,0.9,2.9c0,1.5-0.5,2.7-1.6,3.6
				c-1,0.9-2.3,1.4-3.8,1.4c-1.1,0-2.2-0.6-3.1-1.8l1.5-2.9c0.2,0.4,0.5,0.7,1.1,1c0.5,0.3,0.9,0.5,1.2,0.5c0.3,0,0.5,0,0.7-0.1
				s0.3-0.1,0.5-0.2c0.3-0.2,0.5-0.5,0.5-0.8s-0.1-0.6-0.3-0.9c-0.2-0.3-0.5-0.5-0.8-0.8c-0.3-0.2-0.6-0.5-1-0.8
				c-0.4-0.3-0.7-0.5-1-0.8c-0.7-0.7-1.1-1.3-1.1-2.1s0.2-1.4,0.6-2s0.9-1.1,1.5-1.6c0.6-0.4,1.3-0.8,2-1c0.7-0.3,1.4-0.4,1.9-0.4
				s0.9,0,1.2,0.1c0.3,0.1,0.6,0.2,0.8,0.4c0.5,0.4,0.8,1,0.8,1.8c0,0.2,0,0.4,0,0.6c0,0.2-0.1,0.4-0.1,0.6L122.5,60.7z"/>
			<path fill="#FFFFFF" stroke="#333333" stroke-width="0.75" stroke-miterlimit="10" d="M124,70.9c1.4-6.8,2.2-11.7,2.5-14.6
				c1.3,0.1,2.3,0.2,3.2,0.2c-0.6,2.7-1.1,4.6-1.3,5.7l2-0.2c0.2-0.9,0.3-1.9,0.5-2.7c0.1-0.9,0.3-1.8,0.6-2.7
				c0.5-0.1,1.1-0.2,1.7-0.2s1-0.1,1.2-0.1l0.3,0c-0.6,2.1-1.3,5-1.9,8.8c-0.3,1.7-0.6,3.4-0.8,5.2l-3.1,0.4
				c0.2-0.8,0.3-1.5,0.5-2.2s0.3-1.4,0.4-2.1s0.3-1.3,0.3-1.8l-2,0.2c-0.3,1.7-0.7,3.6-1.1,5.8L124,70.9z"/>
		</g>
	</g>
	<g>
		<g>
			<path fill="#3D3D3D" d="M81.1,30.8c-0.4,0-0.8-0.2-1.1-0.4c-0.3-0.3-0.4-0.7-0.4-1.1c0-0.4,0.2-0.8,0.4-1.1
				c0.6-0.6,1.6-0.6,2.1,0c0.3,0.3,0.4,0.7,0.4,1.1c0,0.4-0.2,0.8-0.4,1.1C81.9,30.6,81.5,30.8,81.1,30.8z"/>
			<path fill="#3D3D3D" d="M89.9,29.3c0-0.8,0.7-1.5,1.5-1.5l0,0c0.8,0,1.5,0.7,1.5,1.5l0,0c0,0.8-0.7,1.5-1.5,1.5l0,0
				C90.6,30.8,89.9,30.1,89.9,29.3z M84.8,29.3c0-0.8,0.7-1.5,1.5-1.5l0,0c0.8,0,1.5,0.7,1.5,1.5l0,0c0,0.8-0.7,1.5-1.5,1.5l0,0
				C85.4,30.8,84.8,30.1,84.8,29.3z M100.2,29.3c0-0.8,0.7-1.5,1.5-1.5l0,0c0.8,0,1.5,0.7,1.5,1.5l0,0c0,0.8-0.7,1.5-1.5,1.5l0,0
				C100.9,30.8,100.2,30.1,100.2,29.3z M95.1,29.3c0-0.8,0.7-1.5,1.5-1.5l0,0c0.8,0,1.5,0.7,1.5,1.5l0,0c0,0.8-0.7,1.5-1.5,1.5l0,0
				C95.7,30.8,95.1,30.1,95.1,29.3z M115.6,29.3c0-0.8,0.7-1.5,1.5-1.5l0,0c0.8,0,1.5,0.7,1.5,1.5l0,0c0,0.8-0.7,1.5-1.5,1.5l0,0
				C116.3,30.8,115.6,30.1,115.6,29.3z M110.5,29.3c0-0.8,0.7-1.5,1.5-1.5l0,0c0.8,0,1.5,0.7,1.5,1.5l0,0c0,0.8-0.7,1.5-1.5,1.5l0,0
				C111.2,30.8,110.5,30.1,110.5,29.3z M105.3,29.3c0-0.8,0.7-1.5,1.5-1.5l0,0c0.8,0,1.5,0.7,1.5,1.5l0,0c0,0.8-0.7,1.5-1.5,1.5l0,0
				C106,30.8,105.3,30.1,105.3,29.3z M125.9,29.3c0-0.8,0.7-1.5,1.5-1.5l0,0c0.8,0,1.5,0.7,1.5,1.5l0,0c0,0.8-0.7,1.5-1.5,1.5l0,0
				C126.6,30.8,125.9,30.1,125.9,29.3z M120.8,29.3c0-0.8,0.7-1.5,1.5-1.5l0,0c0.8,0,1.5,0.7,1.5,1.5l0,0c0,0.8-0.7,1.5-1.5,1.5l0,0
				C121.4,30.8,120.8,30.1,120.8,29.3z M136.2,29.3c0-0.8,0.7-1.5,1.5-1.5l0,0c0.8,0,1.5,0.7,1.5,1.5l0,0c0,0.8-0.7,1.5-1.5,1.5l0,0
				C136.9,30.8,136.2,30.1,136.2,29.3z M131.1,29.3c0-0.8,0.7-1.5,1.5-1.5l0,0c0.8,0,1.5,0.7,1.5,1.5l0,0c0,0.8-0.7,1.5-1.5,1.5l0,0
				C131.7,30.8,131.1,30.1,131.1,29.3z"/>
			<path fill="#3D3D3D" d="M142.8,30.8c-0.4,0-0.8-0.2-1.1-0.4c-0.3-0.3-0.4-0.7-0.4-1.1c0-0.4,0.2-0.8,0.4-1.1
				c0.6-0.6,1.6-0.6,2.1,0c0.3,0.3,0.4,0.7,0.4,1.1c0,0.4-0.2,0.8-0.4,1.1C143.6,30.6,143.2,30.8,142.8,30.8z"/>
			<path fill="#3D3D3D" d="M142.9,30.6c-0.4,0-0.8-0.2-1.1-0.4c-0.3-0.3-0.4-0.7-0.4-1.1c0-0.4,0.2-0.8,0.4-1.1
				c0.6-0.6,1.6-0.6,2.1,0c0.3,0.3,0.4,0.7,0.4,1.1c0,0.4-0.2,0.8-0.4,1.1C143.7,30.5,143.3,30.6,142.9,30.6z"/>
			<path fill="#3D3D3D" d="M138.1,26.4c-0.6-0.6-0.6-1.5,0-2.1l0,0c0.6-0.6,1.5-0.6,2.1,0l0,0c0.6,0.6,0.6,1.5,0,2.1l0,0
				c-0.3,0.3-0.7,0.4-1.1,0.4l0,0C138.8,26.9,138.4,26.7,138.1,26.4z"/>
			<path fill="#3D3D3D" d="M135.4,23.1c-0.4,0-0.8-0.2-1.1-0.4c-0.3-0.3-0.4-0.7-0.4-1.1c0-0.4,0.2-0.8,0.4-1.1
				c0.6-0.6,1.6-0.6,2.1,0c0.3,0.3,0.4,0.7,0.4,1.1c0,0.4-0.2,0.8-0.4,1.1C136.2,22.9,135.8,23.1,135.4,23.1z"/>
			<path fill="#3D3D3D" d="M137.9,26.5c-0.6-0.6-0.5-1.6,0.1-2.1l0,0c0.6-0.6,1.6-0.5,2.1,0.1l0,0c0.6,0.6,0.5,1.6-0.1,2.1l0,0
				c-0.3,0.3-0.6,0.4-1,0.4l0,0C138.6,27,138.2,26.9,137.9,26.5z"/>
			<path fill="#3D3D3D" d="M142.7,30.9c-0.4,0-0.8-0.2-1.1-0.4c-0.3-0.3-0.4-0.7-0.4-1.1s0.2-0.8,0.4-1.1c0.5-0.6,1.6-0.6,2.1,0
				c0.3,0.3,0.4,0.7,0.4,1.1s-0.2,0.8-0.4,1.1C143.4,30.8,143.1,30.9,142.7,30.9z"/>
			<path fill="#3D3D3D" d="M137.8,34.3c-0.6-0.6-0.6-1.5,0-2.1l0,0c0.6-0.6,1.5-0.6,2.1,0l0,0c0.6,0.6,0.6,1.5,0,2.1l0,0
				c-0.3,0.3-0.7,0.4-1.1,0.4l0,0C138.5,34.7,138.1,34.5,137.8,34.3z"/>
			<path fill="#3D3D3D" d="M135.1,38.5c-0.4,0-0.8-0.2-1.1-0.4c-0.3-0.3-0.4-0.7-0.4-1.1s0.2-0.8,0.4-1.1c0.6-0.6,1.6-0.6,2.1,0
				c0.3,0.3,0.4,0.7,0.4,1.1s-0.2,0.8-0.4,1.1C135.9,38.3,135.5,38.5,135.1,38.5z"/>
		</g>
	</g>
</g>
</svg>
