<svg xmlns="http://www.w3.org/2000/svg" viewBox="0 0 240 109.2"><path fill="#FAA31E" d="M225.2 109.2H175c-2.5 0-4.5-2.4-4.5-5.3V23.6c0-3 2-5.3 4.5-5.3h50.2c2.5 0 4.5 2.4 4.5 5.3v80.3c0 2.9-2 5.3-4.5 5.3z"/><path fill="#F29922" d="M229.7 36.1v67.7c0 3-2 5.3-4.5 5.3H175c-2.5 0-4.5-2.4-4.5-5.3V76.3"/><path fill="#F3F3F3" d="M219.8 98.3h-39.4c-2 0-3.5-1.8-3.5-4.1V28.7c0-2.2 1.5-4.1 3.5-4.1h39.4c2 0 3.5 1.8 3.5 4.1v65.6c0 2.3-1.7 4-3.5 4z"/><g fill="none" stroke="#C2C1C1" stroke-width=".25" stroke-linecap="round" stroke-linejoin="round" stroke-miterlimit="10"><path d="M177.2 48.1l5.5-5 1.1 8.9 1.5-2v-2.1l5.8-1.4 2.5 4 8.8-3v-3.2l5.9-2.3-.9 2.9 3.8 1.1 1.6 4.9L218 54h3.1v6l1.8.7.2 4.3"/><path d="M205.9 42.9l3.3-7.6-1.6-2 4.6-1.2L218 31l-2.7-4.4 4.7-1.7"/></g><g fill="#231F20"><path d="M189.1 40.6h2.1v2.6h-2.1zM189.1 45.7h2.1v2.6h-2.1zM191.2 43.2h2.1v2.6h-2.1zM193.5 40.6h2.1v2.6h-2.1zM193.5 45.7h2.1v2.6h-2.1zM205.2 40.6h2.1v2.6h-2.1zM205.2 45.7h2.1v2.6h-2.1zM207.4 43.2h2.1v2.6h-2.1zM209.6 40.6h2.1v2.6h-2.1zM209.6 45.7h2.1v2.6h-2.1zM197 60.2h2.1v2.6H197zM199.3 60.2h2.1v2.6h-2.1zM201.4 60.2h2.1v2.6h-2.1z"/></g><g fill="none" stroke="#C2C1C1" stroke-width=".25" stroke-linecap="round" stroke-linejoin="round" stroke-miterlimit="10"><path d="M185.8 70.9l3.1 2.8.9.9-2.4 3.3 2.8 3.4 2.2 1.4-3.4 2.9 1.9 1.4 1.6-.7v7.6l2.3 2.2M191.7 71.4l-2.8 2.3M187.1 92.9l5.3-1.4-5.3 1.4zM186.7 95.3l.4-2.4"/></g><path fill="none" stroke="#C2C1C1" stroke-width=".25" stroke-linecap="round" stroke-linejoin="round" stroke-miterlimit="10" d="M202.7 75.5l2.7-1.8 1.5-1.3 2.2 2.4.6-1.8.1 3.2 2.4-4.2.2 4 .6 2M223.2 76.8l-1-2.1-1.5-.3-1.5-2-1.2 1.2-1.2-1-1.1-.6"/><path fill="#E2BC78" d="M232.2 78H168c-4.5 0-7.9 4.9-7.9 10.6 0 5.9 3.7 10.6 7.9 10.6h64.1c4.4 0 7.8-4.9 7.8-10.6.3-5.9-3.3-10.6-7.7-10.6z"/><path fill="#E2B588" d="M168.3 82.3h63.8v12.3h-63.8z"/><path fill="#E3C7A1" d="M208.2 96.7H192c-.6 0-1.2-.6-1.2-1.3V82.3c0-.7.5-1.3 1.2-1.3h16.2c.6 0 1.2.6 1.2 1.3v13c-.2.8-.7 1.4-1.2 1.4z"/><path fill="#E3C7A1" d="M205.8 85.1c-.1-.4-.1-.6-.4-.9-1.2-2.2-3.8-2.7-5.4.5-1.7-3.1-4.4-2.7-5.4-.5-.1.4-.2.6-.4.9-.2 1.5-.4 5.8 5.8 10.5 6-4.7 6-9.2 5.8-10.5z"/><g fill="#E49F67"><ellipse cx="172.9" cy="84.9" rx="1.2" ry="1.4"/><ellipse cx="176.4" cy="84.9" rx="1.2" ry="1.4"/><ellipse cx="183.4" cy="84.9" rx="1.2" ry="1.4"/><ellipse cx="179.9" cy="84.9" rx="1.2" ry="1.4"/><g><ellipse cx="172.9" cy="88.5" rx="1.2" ry="1.4"/><ellipse cx="176.4" cy="88.5" rx="1.2" ry="1.4"/><ellipse cx="183.4" cy="88.5" rx="1.2" ry="1.4"/><ellipse cx="179.9" cy="88.5" rx="1.2" ry="1.4"/></g><g><ellipse cx="172.9" cy="92.2" rx="1.2" ry="1.4"/><ellipse cx="176.4" cy="92.2" rx="1.2" ry="1.4"/><ellipse cx="183.4" cy="92.2" rx="1.2" ry="1.4"/><ellipse cx="179.9" cy="92.2" rx="1.2" ry="1.4"/></g></g><g fill="#E49F67"><ellipse cx="217" cy="85" rx="1.2" ry="1.4"/><ellipse cx="220.6" cy="85" rx="1.2" ry="1.4"/><ellipse cx="227.6" cy="85" rx="1.2" ry="1.4"/><ellipse cx="224" cy="85" rx="1.2" ry="1.4"/><g><ellipse cx="217" cy="88.5" rx="1.2" ry="1.4"/><ellipse cx="220.6" cy="88.5" rx="1.2" ry="1.4"/><ellipse cx="227.6" cy="88.5" rx="1.2" ry="1.4"/><ellipse cx="224" cy="88.5" rx="1.2" ry="1.4"/></g><g><ellipse cx="217" cy="92.3" rx="1.2" ry="1.4"/><ellipse cx="220.6" cy="92.3" rx="1.2" ry="1.4"/><ellipse cx="227.6" cy="92.3" rx="1.2" ry="1.4"/><ellipse cx="224" cy="92.3" rx="1.2" ry="1.4"/></g></g><path fill="none" stroke="#303030" stroke-width=".25" stroke-linecap="round" stroke-linejoin="round" stroke-miterlimit="10" d="M181.3 29.7c-1.2.7-2.8-.4-3-1.9-.1-1.5 1.5-3 2.8-2.2-.8 1.9-3 3-4.7 2.2-1.1-.5-2-1.4-2.4-2.6-.5-1.3-.2-2.8.5-3.9.8-1.2 1.7-1.8 1.7-1.8.6-.6 2.4-1.1 3.1-.1.5.6.5 1.4.2 2-.2.6-.7 1.2-1.2 1.7-1.5 1.4-3.4 2.4-5.3 3-2 .5-4.6.1-5.4-2.7-.2-.9-.2-1.8 0-2.6.5-2.1 1.5-3.8 2.8-5.2.6-.6 1.3-.9 2.1-1.1 0 0 .7-.2 2-.1"/><path fill="#FAA31E" d="M221.8 24h-6.3c-.4 0-.6-.2-.6-.4v-5.9c0-.2.2-.4.6-.4h6.3c.4 0 .6.2.6.4v5.9c0 .3-.3.4-.6.4zM173.7 37.4H170c-.2 0-.4-.2-.4-.5v-7.1c0-.2.1-.5.4-.5h3.7c.2 0 .4.2.4.5v7.1c0 .4-.1.5-.4.5zM173.7 47.7H170c-.2 0-.4-.2-.4-.5v-7.1c0-.2.1-.5.4-.5h3.7c.2 0 .4.2.4.5v7.1c0 .3-.1.5-.4.5z"/><path fill="#E08626" d="M191.7 103.7h17.2v1.9h-17.2z"/><g fill="#DD2227" stroke="#DD2227" stroke-miterlimit="10"><path d="M198.2 82.7h3.5v4.1h-3.5zM198.2 86.9h3.5V91h-3.5zM201.8 86.9h3.5V91h-3.5zM194.7 86.9h3.5V91h-3.5zM198.2 91h3.5v4.1h-3.5z"/></g><g><path fill="#FAA31E" d="M55.5 108.8H5.3c-2.5 0-4.5-2.4-4.5-5.3V23.1c0-3 2-5.3 4.5-5.3h50.2c2.5 0 4.5 2.4 4.5 5.3v80.3c0 2.9-2 5.4-4.5 5.4z"/><path fill="#F29922" d="M60 36.1v67.7c0 3-2 5.3-4.5 5.3H5.3c-2.5 0-4.5-2.4-4.5-5.3V76.3"/><path fill="#F3F3F3" d="M50.1 98.3H10.6c-2 0-3.5-1.8-3.5-4.1V28.7c0-2.2 1.5-4.1 3.5-4.1H50c2 0 3.5 1.8 3.5 4.1v65.6c.1 2.3-1.6 4-3.4 4z"/><path fill="#FAA31E" d="M52.7 22.5h-6.3c-.4 0-.6-.2-.6-.4v-5.9c0-.2.2-.4.6-.4h6.3c.4 0 .6.2.6.4v5.9c0 .3-.2.4-.6.4zM4 37.4H.4c-.2 0-.4-.2-.4-.5v-7.1c0-.2.1-.5.4-.5H4c.2 0 .4.2.4.5v7.1c0 .4-.1.5-.4.5zM4 47.7H.4c-.2 0-.4-.2-.4-.5v-7.1c0-.2.1-.5.4-.5H4c.2 0 .4.2.4.5v7.1c0 .3-.1.5-.4.5z"/><path fill="#E08626" d="M22 103.7h17.2v1.9H22z"/><g fill="#231F20"><path d="M19.3 42.8h2.1v2.6h-2.1z"/><path d="M21.4 40.3h2.1v2.6h-2.1zM23.7 42.8h2.1v2.6h-2.1zM35.4 42.8h2.1v2.6h-2.1zM37.6 40.3h2.1v2.6h-2.1zM39.8 42.8h2.1v2.6h-2.1zM27.2 57.3h2.1v2.6h-2.1zM29.5 57.3h2.1v2.6h-2.1zM31.6 57.3h2.1v2.6h-2.1z"/></g><g fill="#E11D3D"><path d="M29.5 83.1h2.1v2.6h-2.1zM29.5 80.5h2.1v2.6h-2.1zM29.5 77.9h2.1v2.6h-2.1zM31.7 75.3h2.1v2.6h-2.1zM27.4 75.3h2.1v2.6h-2.1zM25.3 77.9h2.1v2.6h-2.1zM27.4 80.5h2.1v2.6h-2.1z"/><path d="M27.4 77.9h2.1v2.6h-2.1zM31.7 77.9h2.1v2.6h-2.1zM31.7 80.5h2.1v2.6h-2.1zM33.8 77.9h2.1v2.6h-2.1z"/></g><g fill="#F9A21C"><path d="M4.1 11.8V8.1L1.6 0h1c.1.3.2.8.4 1.4.1.6.3 1.2.5 1.8.2.6.4 1.2.5 1.8.2.6.3 1 .4 1.4l.2.5c.3-1.1.6-2.3 1-3.6s.7-2.4 1-3.4h1L5.1 8.1v3.7h-1zM8.2 7.9v-.4-.8-.8c0-.3.1-.6.1-.8.1-.2.1-.4.2-.6.2-.3.3-.5.4-.6s.3-.2.6-.3c.2-.1.5-.1.8-.1s.6 0 .8.1l.6.3s.3.3.4.6c.1.2.2.5.2.6.1.2.1.4.1.8V9.2c0 .3 0 .5-.1.6s-.1.3-.1.6c0 .2-.1.4-.2.5-.1.1-.2.3-.3.4-.1.1-.2.3-.4.3-.1.1-.3.1-.5.2s-.4.1-.6.1-.4 0-.6-.1c-.2-.1-.4-.1-.5-.2-.1-.1-.3-.2-.4-.3-.1-.1-.2-.3-.3-.4-.1-.1-.1-.3-.2-.5 0-.2-.1-.4-.1-.6s0-.4-.1-.6v-.6s.2-.4.2-.7zm1-.4v.4c0 1.3.1 2.2.2 2.7s.4.7.9.7.8-.2.9-.7c.1-.5.2-1.4.2-2.7v-.4-1.1c0-.3 0-.6-.1-.9s0-.5-.1-.6-.1-.3-.2-.5-.2-.2-.3-.3c-.1-.1-.3-.1-.4-.1s-.3 0-.4.1-.3.2-.3.3c-.1.2-.2.3-.2.5s-.1.4-.1.7 0 .6-.1.9v1zM14.2 10V3.6h1V10c0 .4.1.7.2.9s.4.3.6.3c.2 0 .4-.1.7-.2s.5-.3.7-.6V3.6h1v8.2h-1V11c-.2.3-.5.6-.8.7-.3.2-.6.2-.9.2-.4 0-.8-.2-1.1-.5-.2-.3-.4-.8-.4-1.4zM20.6 11.8V3.6h1v1.2c.1-.4.4-.7.7-1 .3-.2.7-.3 1-.3v1h-.2c-1 0-1.5.4-1.5 1.2v6.1h-1zM27.7 11.8V0h2.8c.4 0 .8.1 1.1.2.3.1.6.3.8.5.2.2.4.4.5.7l.3.9c.1.3.1.6.1 1s0 .7-.1 1-.1.5-.2.8-.3.6-.5.8c-.2.1-.5.3-.8.4-.3.1-.7.2-1.1.2h-1.8v5.2h-1.1zm1.1-6.1h1.9c.6 0 1-.2 1.2-.6.2-.4.4-1 .4-1.9 0-.8-.1-1.4-.4-1.8s-.7-.6-1.2-.6h-1.9v4.9zM34.6 11.8V0h1v4.3c.2-.3.5-.6.8-.7.3-.2.6-.2.9-.2.4 0 .8.2 1.1.5.3.3.5.8.5 1.4v6.4h-1V5.4c0-.8-.3-1.2-.8-1.2-.2 0-.5.1-.7.2-.4.1-.6.3-.8.6v6.8h-1zM40.6 7.9v-.4-.8-.8c0-.3.1-.6.1-.8.1-.2.1-.4.2-.6.1-.2.2-.4.4-.6s.3-.2.6-.3c.2-.1.5-.1.8-.1s.6 0 .8.1l.6.3s.3.3.4.6c.1.2.2.5.2.6.1.2.1.4.1.8V9.2c0 .3 0 .5-.1.6s-.1.3-.1.6c0 .2-.1.4-.2.5-.1.1-.2.3-.3.4-.1.1-.2.3-.4.3-.1.1-.3.1-.5.2s-.4.1-.6.1-.4 0-.6-.1c-.2-.1-.4-.1-.5-.2-.1-.1-.3-.2-.4-.3-.1-.1-.2-.3-.3-.4-.1-.1-.1-.3-.2-.5 0-.2-.1-.4-.1-.6s0-.4-.1-.6v-.6s.2-.4.2-.7zm1.1-.4v.4c0 1.3.1 2.2.2 2.7s.4.7.9.7.8-.2.9-.7c.1-.5.2-1.4.2-2.7v-.4-1.1c0-.3 0-.6-.1-.9s0-.5-.1-.6-.1-.3-.2-.4l-.3-.3c-.1-.1-.3-.1-.4-.1s-.3 0-.4.1-.3.1-.4.2c-.1.1-.2.3-.2.4 0 .2-.1.4-.1.7s0 .6-.1.9c.1.3.1.6.1 1.1zM46.7 11.8V3.6h1v.8c.3-.4.5-.6.8-.8s.6-.2.9-.2c.4 0 .8.2 1.1.5s.5.8.5 1.4v6.4h-1V5.3c0-.4-.1-.7-.2-.9s-.4-.3-.6-.3c-.2 0-.4.1-.7.2s-.5.4-.7.7v6.8h-1.1zM52.8 8V6.8c0-.6 0-1.1.1-1.5.1-.4.2-.8.3-1 .1-.3.3-.5.5-.6l.6-.3c.2-.1.4-.1.7-.1.7 0 1.2.3 1.6.8s.4 1.4.4 2.5v.8h-3.2v1.3c0 .5 0 1 .1 1.3s.1.6.2.8.2.3.4.3c.1.1.3.1.5.1.3 0 .6-.2.8-.5s.3-.8.3-1.5h.9c0 .3-.1.6-.1.8s-.1.5-.2.7-.2.4-.4.6-.3.3-.5.4-.5.2-.8.2c-.6 0-1-.1-1.3-.3s-.6-.6-.7-1.2c-.2-.6-.2-1.4-.2-2.4zm1-1H56v-.6-.6-.5s0-.3-.1-.5-.1-.3-.2-.4l-.3-.3c-.1-.1-.3-.1-.4-.1-.2 0-.5 0-.6.1s-.3.2-.4.3c-.1.1-.2.3-.2.6s-.1.5-.1.8.1.7.1 1.2z"/></g></g><g><g fill="#3D3D3D"><path d="M81.1 98c-.4 0-.8-.2-1.1-.5-.3-.3-.4-.7-.4-1 0-.4.2-.8.4-1.1.6-.6 1.6-.6 2.1 0 .3.3.4.7.4 1.1 0 .4-.2.8-.4 1-.2.3-.6.5-1 .5zM95.1 96.5c0-.8.7-1.5 1.5-1.5s1.5.7 1.5 1.5-.7 1.5-1.5 1.5c-.9 0-1.5-.7-1.5-1.5zm-5.2 0c0-.8.7-1.5 1.5-1.5s1.5.7 1.5 1.5-.7 1.5-1.5 1.5-1.5-.7-1.5-1.5zm-5.1 0c0-.8.7-1.5 1.5-1.5s1.5.7 1.5 1.5-.7 1.5-1.5 1.5c-.9 0-1.5-.7-1.5-1.5zm20.5 0c0-.8.7-1.5 1.5-1.5s1.5.7 1.5 1.5-.7 1.5-1.5 1.5-1.5-.7-1.5-1.5zm-5.1 0c0-.8.7-1.5 1.5-1.5s1.5.7 1.5 1.5-.7 1.5-1.5 1.5-1.5-.7-1.5-1.5zm20.6 0c0-.8.7-1.5 1.5-1.5s1.5.7 1.5 1.5-.7 1.5-1.5 1.5c-.9 0-1.5-.7-1.5-1.5zm-5.2 0c0-.8.7-1.5 1.5-1.5s1.5.7 1.5 1.5-.7 1.5-1.5 1.5-1.5-.7-1.5-1.5zm-5.1 0c0-.8.7-1.5 1.5-1.5s1.5.7 1.5 1.5-.7 1.5-1.5 1.5-1.5-.7-1.5-1.5zm20.6 0c0-.8.7-1.5 1.5-1.5s1.5.7 1.5 1.5-.7 1.5-1.5 1.5c-.9 0-1.5-.7-1.5-1.5zm-5.2 0c0-.8.7-1.5 1.5-1.5s1.5.7 1.5 1.5-.7 1.5-1.5 1.5-1.5-.7-1.5-1.5zm10.3 0c0-.8.7-1.5 1.5-1.5s1.5.7 1.5 1.5-.7 1.5-1.5 1.5-1.5-.7-1.5-1.5zM142.8 98c-.4 0-.8-.1-1.1-.4-.3-.3-.4-.7-.4-1.1 0-.4.2-.8.4-1.1.6-.5 1.6-.5 2.1 0 .3.3.4.7.4 1.1 0 .4-.2.8-.4 1.1-.2.2-.6.4-1 .4z"/><path d="M142.9 97.8c-.4 0-.8-.2-1.1-.4-.3-.3-.4-.7-.4-1.1 0-.4.2-.8.4-1.1.6-.6 1.6-.6 2.1 0 .3.3.4.7.4 1.1 0 .4-.2.8-.4 1.1-.2.3-.6.4-1 .4zM138.1 93.6c-.6-.6-.6-1.5 0-2.1.6-.6 1.5-.6 2.1 0 .6.6.6 1.5 0 2.1-.3.3-.7.4-1.1.4-.3.1-.7-.1-1-.4zM135.4 90.3c-.4 0-.8-.2-1.1-.4-.3-.3-.4-.7-.4-1.1 0-.4.2-.8.4-1.1.6-.6 1.6-.6 2.1 0 .3.3.4.7.4 1.1 0 .4-.2.8-.4 1.1-.2.3-.6.4-1 .4z"/><path d="M137.9 93.7c-.6-.6-.5-1.6.1-2.1.6-.6 1.6-.5 2.1.1.6.6.5 1.6-.1 2.1-.3.3-.6.4-1 .4s-.8-.1-1.1-.5zM142.7 98.1c-.4 0-.8-.2-1.1-.4-.3-.3-.4-.7-.4-1.1 0-.4.2-.8.4-1.1.6-.5 1.6-.5 2.1 0 .3.3.4.7.4 1.1 0 .4-.2.8-.4 1.1-.3.3-.6.4-1 .4zM137.8 101.5c-.6-.6-.6-1.5 0-2.1.6-.6 1.5-.6 2.1 0 .6.6.6 1.5 0 2.1-.3.3-.7.4-1.1.4-.3 0-.7-.1-1-.4zM135.1 105.7c-.4 0-.8-.2-1-.4-.3-.3-.4-.7-.4-1.1 0-.4.2-.8.4-1.1.6-.6 1.6-.6 2.1 0 .3.3.4.7.4 1.1 0 .4-.2.8-.4 1.1-.3.2-.7.4-1.1.4z"/></g><path fill="#F9E028" d="M129.5 72.2l-.4-2.5 11.4-3.7-8.8-4.5 2.7-2.5-4.6.1 4.5-12.4-12.7 6.8.2-6.8-3.3 3-4.4-9.7-3.9 9.9-5.1-7.7-1 8.1L93.4 44l2.5 7.2-3.9-.6 3.2 6-11.7 3.5 10.2 7.4-3.3 4.3 5.5-1.7-2.7 14.1L104 73.8l.6 6.4 3.3-3 5.2 8.5 3.2-7.5 3.2 4.7 2.3-7.3 9.1 5.2-.9-5.6 2 .2"/><path fill="#DCA627" d="M121.8 68.1l-.2-1.4 6.3-2.1-4.9-2.5 1.5-1.4-2.6.1 2.6-6.9-7.1 3.8.1-3.8-1.9 1.7-2.4-5.4-2.2 5.4-2.8-4.3-.6 4.6-6-3.6 1.4 4.1-2.1-.4 1.7 3.4-6.4 2 5.6 4-1.8 2.5 3-1-1.5 7.9 6.1-5.9.3 3.6 1.9-1.6 2.8 4.7 1.8-4.2 1.8 2.6 1.2-4 5.1 2.9-.5-3.2 1.1.2"/><g fill="#FFF" stroke="#333" stroke-width=".75" stroke-miterlimit="10"><path d="M94 67.6c.3 0 .7-.2 1-.6.4-.4.6-.8.7-1.3l2.3.9c-.6 1.4-1.4 2.5-2.3 3.3-.8.7-1.7 1.1-2.6 1.1-.8 0-1.5-.4-2-1.1-.5-.8-.8-1.9-.8-3.2s.2-2.6.5-3.8c.3-1.2.8-2.3 1.5-3.3s1.4-1.8 2.2-2.4c.9-.6 1.8-.9 2.8-.9.7 0 1.2.3 1.7.8s.7 1.2.7 2.1v.6l-2.6.7c-.2-.3-.3-.5-.6-.5s-.4.1-.7.4-.5.6-.7 1c-.2.4-.4.8-.7 1.3-.2.5-.4 1-.5 1.5-.4 1.1-.5 2-.5 2.6s.2.8.6.8zM103.9 70.6c-1-3.3-1.5-5.2-1.6-5.6h-.3c-.1.6-.3 1.4-.5 2.5s-.4 1.9-.5 2.6l-3.2.8c1.4-6.5 2.2-11.2 2.5-13.9 1.5-.5 3.2-.7 5.1-.7 1.4 0 2.2.5 2.5 1.5.1.3.1.7.1 1.1s-.1.9-.3 1.4c-.2.5-.4 1-.7 1.5-.7 1-1.5 1.7-2.4 2.2.5 1.1 1 2.1 1.4 3.1.4 1 .7 1.8 1 2.5l-3.1 1zM104 59h-.9l-.6 3.2c.5-.1 1.2-.4 2-1s1.2-1.1 1.2-1.5c0-.4-.4-.6-1.1-.6-.1-.1-.3-.1-.6-.1z"/><path d="M110.5 67.5l-.8 2.9c-.3 0-.6.1-1 .1-.4.1-.8.1-1.2.1s-.8.1-1.2.1c.5-1.8 1-3.3 1.4-4.5s.7-2.2.9-3 .5-1.6.7-2.3c.2-.8.4-1.5.7-2.2s.4-1.4.6-2c2.4-.2 4.2-.4 5.5-.6-.1 1.3-.2 2.8-.3 4.6-.2 3.5-.3 6.7-.4 9.7-.4.1-.8.1-1.1.2s-.8.1-1.2.2c-.4.1-.8.1-1.1.2.1-1.3.3-2.4.4-3.4h-1.9zm.4-2l1.4-.1V65s0-.4.1-.7c.1-1.4.2-2.7.3-3.9l.1-1.7h-.3l-1.6 6.8zM122.5 60.7c.1-.3.1-.5.1-.8s-.1-.5-.2-.7c-.1-.2-.3-.3-.5-.3s-.3 0-.5.1-.3.2-.5.3c-.4.3-.5.6-.5 1s.1.6.3.8c.2.2.4.4.7.6l.9.6s.6.4.9.7c.6.7.9 1.7.9 2.9 0 1.5-.5 2.7-1.6 3.6-1 .9-2.3 1.4-3.8 1.4-1.1 0-2.2-.6-3.1-1.8l1.5-2.9c.2.4.5.7 1.1 1 .5.3.9.5 1.2.5.3 0 .5 0 .7-.1s.3-.1.5-.2c.3-.2.5-.5.5-.8s-.1-.6-.3-.9c-.2-.3-.5-.5-.8-.8-.3-.2-.6-.5-1-.8-.4-.3-.7-.5-1-.8-.7-.7-1.1-1.3-1.1-2.1s.2-1.4.6-2 .9-1.1 1.5-1.6c.6-.4 1.3-.8 2-1 .7-.3 1.4-.4 1.9-.4s.9 0 1.2.1c.3.1.6.2.8.4.5.4.8 1 .8 1.8v.6c0 .2-.1.4-.1.6l-3.1 1zM124 70.9c1.4-6.8 2.2-11.7 2.5-14.6 1.3.1 2.3.2 3.2.2-.6 2.7-1.1 4.6-1.3 5.7l2-.2c.2-.9.3-1.9.5-2.7.1-.9.3-1.8.6-2.7.5-.1 1.1-.2 1.7-.2s1-.1 1.2-.1h.3c-.6 2.1-1.3 5-1.9 8.8-.3 1.7-.6 3.4-.8 5.2l-3.1.4c.2-.8.3-1.5.5-2.2s.3-1.4.4-2.1.3-1.3.3-1.8l-2 .2c-.3 1.7-.7 3.6-1.1 5.8l-3 .3z"/></g><g><g fill="#3D3D3D"><path d="M81.1 30.8c-.4 0-.8-.2-1.1-.4-.3-.3-.4-.7-.4-1.1 0-.4.2-.8.4-1.1.6-.6 1.6-.6 2.1 0 .3.3.4.7.4 1.1 0 .4-.2.8-.4 1.1-.2.2-.6.4-1 .4zM89.9 29.3c0-.8.7-1.5 1.5-1.5s1.5.7 1.5 1.5-.7 1.5-1.5 1.5-1.5-.7-1.5-1.5zm-5.1 0c0-.8.7-1.5 1.5-1.5s1.5.7 1.5 1.5-.7 1.5-1.5 1.5c-.9 0-1.5-.7-1.5-1.5zm15.4 0c0-.8.7-1.5 1.5-1.5s1.5.7 1.5 1.5-.7 1.5-1.5 1.5-1.5-.7-1.5-1.5zm-5.1 0c0-.8.7-1.5 1.5-1.5s1.5.7 1.5 1.5-.7 1.5-1.5 1.5c-.9 0-1.5-.7-1.5-1.5zm20.5 0c0-.8.7-1.5 1.5-1.5s1.5.7 1.5 1.5-.7 1.5-1.5 1.5-1.5-.7-1.5-1.5zm-5.1 0c0-.8.7-1.5 1.5-1.5s1.5.7 1.5 1.5-.7 1.5-1.5 1.5-1.5-.7-1.5-1.5zm-5.2 0c0-.8.7-1.5 1.5-1.5s1.5.7 1.5 1.5-.7 1.5-1.5 1.5-1.5-.7-1.5-1.5zm20.6 0c0-.8.7-1.5 1.5-1.5s1.5.7 1.5 1.5-.7 1.5-1.5 1.5-1.5-.7-1.5-1.5zm-5.1 0c0-.8.7-1.5 1.5-1.5s1.5.7 1.5 1.5-.7 1.5-1.5 1.5c-.9 0-1.5-.7-1.5-1.5zm15.4 0c0-.8.7-1.5 1.5-1.5s1.5.7 1.5 1.5-.7 1.5-1.5 1.5-1.5-.7-1.5-1.5zm-5.1 0c0-.8.7-1.5 1.5-1.5s1.5.7 1.5 1.5-.7 1.5-1.5 1.5c-.9 0-1.5-.7-1.5-1.5zM142.8 30.8c-.4 0-.8-.2-1.1-.4-.3-.3-.4-.7-.4-1.1 0-.4.2-.8.4-1.1.6-.6 1.6-.6 2.1 0 .3.3.4.7.4 1.1 0 .4-.2.8-.4 1.1-.2.2-.6.4-1 .4z"/><path d="M142.9 30.6c-.4 0-.8-.2-1.1-.4-.3-.3-.4-.7-.4-1.1 0-.4.2-.8.4-1.1.6-.6 1.6-.6 2.1 0 .3.3.4.7.4 1.1 0 .4-.2.8-.4 1.1-.2.3-.6.4-1 .4zM138.1 26.4c-.6-.6-.6-1.5 0-2.1.6-.6 1.5-.6 2.1 0 .6.6.6 1.5 0 2.1-.3.3-.7.4-1.1.4-.3.1-.7-.1-1-.4zM135.4 23.1c-.4 0-.8-.2-1.1-.4-.3-.3-.4-.7-.4-1.1 0-.4.2-.8.4-1.1.6-.6 1.6-.6 2.1 0 .3.3.4.7.4 1.1 0 .4-.2.8-.4 1.1-.2.2-.6.4-1 .4z"/><path d="M137.9 26.5c-.6-.6-.5-1.6.1-2.1.6-.6 1.6-.5 2.1.1.6.6.5 1.6-.1 2.1-.3.3-.6.4-1 .4s-.8-.1-1.1-.5zM142.7 30.9c-.4 0-.8-.2-1.1-.4-.3-.3-.4-.7-.4-1.1s.2-.8.4-1.1c.5-.6 1.6-.6 2.1 0 .3.3.4.7.4 1.1s-.2.8-.4 1.1c-.3.3-.6.4-1 .4zM137.8 34.3c-.6-.6-.6-1.5 0-2.1.6-.6 1.5-.6 2.1 0 .6.6.6 1.5 0 2.1-.3.3-.7.4-1.1.4-.3 0-.7-.2-1-.4zM135.1 38.5c-.4 0-.8-.2-1.1-.4-.3-.3-.4-.7-.4-1.1s.2-.8.4-1.1c.6-.6 1.6-.6 2.1 0 .3.3.4.7.4 1.1s-.2.8-.4 1.1c-.2.2-.6.4-1 .4z"/></g></g></g></svg>