<svg version="1.1"
	 id="Layer_1" sodipodi:docname="AJAX.svg" inkscape:version="0.48.1 " xmlns:dc="http://purl.org/dc/elements/1.1/" xmlns:inkscape="http://www.inkscape.org/namespaces/inkscape" xmlns:sodipodi="http://sodipodi.sourceforge.net/DTD/sodipodi-0.dtd" xmlns:rdf="http://www.w3.org/1999/02/22-rdf-syntax-ns#" xmlns:cc="http://creativecommons.org/ns#" xmlns:svg="http://www.w3.org/2000/svg"
	 xmlns="http://www.w3.org/2000/svg" xmlns:xlink="http://www.w3.org/1999/xlink" x="0px" y="0px" viewBox="0 0 43 52.5"
	 enable-background="new 0 0 43 52.5" xml:space="preserve">
<sodipodi:namedview  inkscape:current-layer="Layer_1" inkscape:window-maximized="1" inkscape:window-y="-8" inkscape:window-x="-8" fit-margin-bottom="0" fit-margin-right="0" inkscape:pageopacity="0" inkscape:pageshadow="2" inkscape:window-height="1004" inkscape:window-width="1280" inkscape:zoom="2.4350534" fit-margin-left="0" pagecolor="#ffffff" bordercolor="#666666" inkscape:cy="6.4711528" borderopacity="1" fit-margin-top="0" objecttolerance="10" id="namedview31" inkscape:cx="180.04953" showgrid="false" gridtolerance="10" guidetolerance="10">
	</sodipodi:namedview>
<path id="path15" inkscape:connector-curvature="0" fill="#FFDD05" d="M16.8,36.5c5-6.5,9-14.1,9-19.6c0-2.9-2.1-4.9-4.7-6.4
	C21.2,16.5,19.1,30.5,16.8,36.5"/>
<path id="path17" inkscape:connector-curvature="0" fill="#FFDD05" d="M0.3,52.5c11.8-4,29-13.2,40.9-21.4c1-0.7,1.8-1.3,1.8-2.4
	c0-1.9-3.6-4.6-5.3-5.6C28.3,32.8,9.6,47.5,0.3,52.5"/>
<path id="path19" inkscape:connector-curvature="0" fill="#FFDD05" d="M11.3,44.2c7.3-5,17.9-14.5,21.5-19.7
	c0.8-1.2,1.5-1.9,1.5-3.2c0-2.1-2.4-3.6-4.2-4.7C25.8,26.6,16.4,38.9,11.3,44.2"/>
<path id="path21" inkscape:connector-curvature="0" fill="#FFDD05" d="M17.9,30.3c0.9-6.2,0.4-13.8-0.8-18.5c-0.7-2.6-3-5.5-5.1-6.4
	C14.8,13.4,17.2,24.7,17.9,30.3"/>
<path id="path23" inkscape:connector-curvature="0" fill="#FFDD05" d="M15.8,21.5C13.6,15.5,8.1,3.1,0,0
	C5.3,5.8,13.1,17.4,15.8,21.5"/>
</svg>
