<?xml version="1.0" encoding="utf-8"?>
<!-- Generator: Adobe Illustrator 18.0.0, SVG Export Plug-In . SVG Version: 6.00 Build 0)  -->
<!DOCTYPE svg PUBLIC "-//W3C//DTD SVG 1.1//EN" "http://www.w3.org/Graphics/SVG/1.1/DTD/svg11.dtd">
<svg version="1.1" id="Layer_1" xmlns="http://www.w3.org/2000/svg" xmlns:xlink="http://www.w3.org/1999/xlink" x="0px" y="0px"
	 viewBox="825.1 700 61.6 100" enable-background="new 825.1 700 61.6 100" xml:space="preserve">
<path fill="#32476B" d="M881.3,800h-50.7c-3,0-5.5-2.6-5.5-5.9v-88.3c0-3.2,2.5-5.9,5.5-5.9h50.7c3,0,5.5,2.6,5.5,5.9v88.2
	C886.8,797.4,884.3,800,881.3,800z"/>
<path fill="#20315E" d="M881.2,800h-50.7c-3,0-5.5-2.6-5.5-5.9v-27.3l61.6-48.4v75.7C886.7,797.4,884.3,800,881.2,800z"/>
<path fill="#F2F2F2" d="M874.8,792.1h-37.7c-2.3,0-4.2-2-4.2-4.6v-74.9c0-2.5,1.9-4.6,4.2-4.6h37.8c2.3,0,4.2,2,4.2,4.6v74.9
	C879,790.1,877.1,792.1,874.8,792.1z"/>
<path fill="#EDECED" d="M832.8,787.6c1.6-0.1,20.4-22.3,19.4-23c2.6,0,26.7-51.6,26.7-49v72c0,2.5-1.9,4.6-4.2,4.6h-37.7
	C834.7,792.1,832.8,790.6,832.8,787.6z"/>
<path fill="#DDDDDC" d="M832.8,787.6c1.6-0.1,31.2-12.2,30.3-12.9c2.6,0,15.9-61.6,15.9-59.1v72c0,2.5-1.9,4.6-4.2,4.6h-37.7
	C834.7,792.1,832.8,790.6,832.8,787.6z"/>
</svg>
