<?xml version="1.0" encoding="utf-8"?>
<!-- Generator: Adobe Illustrator 18.0.0, SVG Export Plug-In . SVG Version: 6.00 Build 0)  -->
<!DOCTYPE svg PUBLIC "-//W3C//DTD SVG 1.1//EN" "http://www.w3.org/Graphics/SVG/1.1/DTD/svg11.dtd">
<svg version="1.1" id="Layer_1" xmlns="http://www.w3.org/2000/svg" xmlns:xlink="http://www.w3.org/1999/xlink" x="0px" y="0px"
	 viewBox="0 283.2 1280 235.5" enable-background="new 0 283.2 1280 235.5" xml:space="preserve">
<g>
	<polygon fill="#131313" points="0,321.7 272.7,321.7 272.7,516.8 0,516.8 112.2,418.3 	"/>
</g>
<g>
	<polygon fill="#131313" points="1280,323.7 1007.3,323.7 1007.3,518.7 1280,518.7 1168.4,419.6 	"/>
</g>
<polygon fill="#131313" points="246.6,477.6 1033.4,479.6 1033.4,283.2 246.6,283.2 "/>
<g>
	<path fill="#FCFCFC" d="M394.1,442.3V326.8h-24.2V318h59.6v8.8h-24.4v115.6h-11V442.3z"/>
	<path fill="#FCFCFC" d="M460.9,402.4v-12.1c0-6,0.5-11.2,1.3-15.6s1.9-7.9,3.2-10.6c1.3-2.6,3-4.8,5.1-6.3c2.1-1.6,4.3-2.6,6.5-3.2
		s4.8-0.8,7.8-0.8c7.8,0,13.3,2.7,16.7,8.2s5.1,14.2,5.1,26c0,3.6,0,6.6-0.1,8.9h-34.7v13.2c0,5.7,0.3,10.3,0.8,14
		c0.6,3.6,1.4,6.4,2.6,8.2c1.2,1.8,2.5,3.1,4,3.7c1.4,0.6,3.3,0.9,5.5,0.9c3.2,0,5.9-1.6,8.1-4.9s3.3-8.7,3.4-16.3h10.1
		c-0.3,3.3-0.7,6.2-1.2,8.7c-0.5,2.6-1.2,5.1-2.3,7.7c-1,2.6-2.3,4.7-3.8,6.4c-1.5,1.7-3.5,3.1-5.9,4.1c-2.4,1.1-5.2,1.6-8.3,1.6
		c-6.1,0-10.9-1.2-14.3-3.6s-5.9-6.7-7.5-12.7C461.6,421.8,460.8,413.4,460.9,402.4z M471.9,391.6h24c0-1.9,0-3.9,0-5.9s0-4-0.1-6
		s-0.2-3.9-0.4-5.7c-0.2-1.8-0.5-3.5-1-5.1s-1.1-2.9-1.8-4.1s-1.7-2.1-3-2.7c-1.3-0.7-2.7-1-4.3-1c-2.6,0-4.8,0.5-6.5,1.4
		c-1.7,1-3,2.1-4,3.4s-1.6,3.5-2.1,6.6c-0.4,3.1-0.7,5.8-0.8,8.1C471.9,383,471.9,386.6,471.9,391.6z"/>
	<path fill="#FCFCFC" d="M551.8,442.3V317.9h10.8v124.4H551.8z"/>
	<path fill="#FCFCFC" d="M612,442.3V317.9h10.8v124.4H612z"/>
	<path fill="#FCFCFC" d="M667.3,463.9V455c5.8-0.4,10-1.3,12.7-2.9c2.7-1.5,4-3.7,4-6.5c0-3.5-0.3-6.9-0.8-10.3l-18.8-79.6h11
		l15,72.3l14.7-72.3h11l-21.7,92.6c-1.4,5.6-4.3,9.5-8.6,11.8s-10.4,3.6-18.3,3.8H667.3z"/>
	<path fill="#3E7099" d="M756.7,442.3V317.9H800v8.8h-32.4v47.1h23.1v8.3h-23.1v51.3H800v8.8h-43.3V442.3z"/>
	<path fill="#3E7099" d="M834.7,442.3l18.6-45.2l-18.5-41.3H846l14.2,36.1l14.2-36.1h11.2L867,397.1l18.6,45.2H875l-14.9-38.6
		l-14.9,38.6L834.7,442.3L834.7,442.3z"/>
</g>
</svg>
