<svg version="1.1"
	 id="svg2008" sodipodi:version="0.32" sodipodi:docbase="C:\Dokumente und Einstellungen\Andreas\Eigene Dateien\Eigene Bilder\sonstiges\Logos\Vektor\communications" sodipodi:docname="T-Mobile.svg" inkscape:version="0.44" xmlns:dc="http://purl.org/dc/elements/1.1/" xmlns:inkscape="http://www.inkscape.org/namespaces/inkscape" xmlns:sodipodi="http://sodipodi.sourceforge.net/DTD/sodipodi-0.dtd" xmlns:rdf="http://www.w3.org/1999/02/22-rdf-syntax-ns#" xmlns:cc="http://web.resource.org/cc/" xmlns:svg="http://www.w3.org/2000/svg"
	 xmlns="http://www.w3.org/2000/svg" xmlns:xlink="http://www.w3.org/1999/xlink" x="0px" y="0px" viewBox="0 0 45.5 57.6"
	 enable-background="new 0 0 45.5 57.6" xml:space="preserve">
<sodipodi:namedview  height="27.6mm" width="186.67mm" units="mm" inkscape:document-units="px" inkscape:current-layer="layer1" inkscape:window-y="115" inkscape:window-x="115" inkscape:pageopacity="0.0" inkscape:pageshadow="2" inkscape:window-height="574" inkscape:window-width="904" inkscape:zoom="0.35" pagecolor="#ffffff" bordercolor="#666666" inkscape:cy="520" borderopacity="1.0" id="base" inkscape:cx="350">
	</sodipodi:namedview>
<g id="layer1" transform="translate(-65.68811,-595.9001)" inkscape:label="Ebene 1" inkscape:groupmode="layer">
	<g id="g2030" transform="matrix(1.590203,0,0,1.590203,-35.22385,-401.6774)">
		<path id="path18" fill="#666666" d="M63.5,643.3h7.5v7.6h-7.5V643.3z"/>
		<path id="path20" fill="#E31082" d="M80.2,629.1H81c5.2,0,7.6,3,8.6,10.9l1.6-0.1l-0.2-12.6H64.6l-0.3,12.6l1.5,0.1
			c0.3-3,0.6-4.6,1.3-6.2c1.2-3,3.8-4.7,6.9-4.7h1.1v27.4c0,2.9-0.2,3.8-0.8,4.5c-0.5,0.5-1.6,0.8-2.8,0.8h-1.2v1.8H85v-1.8h-1.2
			c-1.2,0-2.3-0.2-2.8-0.8c-0.6-0.7-0.8-1.6-0.8-4.5V629.1"/>
		<path id="path22" fill="#666666" d="M84.6,643.3h7.5v7.6h-7.5V643.3z"/>
	</g>
</g>
</svg>
