<svg version="1.1" id="Isolation_Mode" xmlns="http://www.w3.org/2000/svg" xmlns:xlink="http://www.w3.org/1999/xlink" x="0px"
	 y="0px" viewBox="0 0 55 55" enable-background="new 0 0 55 55" xml:space="preserve">
<rect x="4" y="8.1" fill="#FFFFFF" width="47.2" height="40.8"/>
<path fill="#60A8DC" d="M52,0H3C1.4,0,0,1.4,0,3V52c0,1.7,1.4,3,3,3H52c1.7,0,3-1.4,3-3V3C55,1.4,53.7,0,52,0z M45.3,19.6
	c0,0.4,0,0.8,0,1.1c0,11.6-8.8,24.9-24.9,24.9c-4.9,0-9.5-1.4-13.4-3.9c0.7,0.1,1.4,0.1,2.1,0.1c4.1,0,7.9-1.4,10.9-3.8
	c-3.8-0.1-7.1-2.6-8.2-6.1c0.5,0.1,1.1,0.2,1.6,0.2c0.8,0,1.6-0.1,2.3-0.3c-4-0.8-7-4.3-7-8.6c0,0,0-0.1,0-0.1
	c1.2,0.7,2.5,1.1,4,1.1C10.3,22.7,8.7,20,8.7,17c0-1.6,0.4-3.1,1.2-4.4c4.3,5.3,10.8,8.8,18,9.2c-0.1-0.6-0.2-1.3-0.2-2
	c0-4.8,3.9-8.8,8.8-8.8c2.5,0,4.8,1.1,6.4,2.8c2-0.4,3.9-1.1,5.6-2.1c-0.7,2-2,3.8-3.9,4.8c1.8-0.2,3.5-0.7,5-1.4
	C48.5,16.9,47,18.4,45.3,19.6z"/>
</svg>
