<svg version="1.1"
	 id="Layer_1" sodipodi:docname="AJAX.svg" inkscape:version="0.48.1 " xmlns:dc="http://purl.org/dc/elements/1.1/" xmlns:inkscape="http://www.inkscape.org/namespaces/inkscape" xmlns:sodipodi="http://sodipodi.sourceforge.net/DTD/sodipodi-0.dtd" xmlns:rdf="http://www.w3.org/1999/02/22-rdf-syntax-ns#" xmlns:cc="http://creativecommons.org/ns#" xmlns:svg="http://www.w3.org/2000/svg"
	 xmlns="http://www.w3.org/2000/svg" xmlns:xlink="http://www.w3.org/1999/xlink" x="0px" y="0px" viewBox="284.9 412.6 32.9 68.1"
	 enable-background="new 284.9 412.6 32.9 68.1" xml:space="preserve">
<sodipodi:namedview  inkscape:current-layer="Layer_1" inkscape:window-maximized="1" inkscape:window-y="-8" inkscape:window-x="-8" fit-margin-bottom="0" fit-margin-right="0" inkscape:pageopacity="0" inkscape:pageshadow="2" inkscape:window-height="1004" inkscape:window-width="1280" inkscape:zoom="2.4350534" fit-margin-left="0" pagecolor="#ffffff" bordercolor="#666666" inkscape:cy="6.4711528" borderopacity="1" fit-margin-top="0" objecttolerance="10" id="namedview31" inkscape:cx="180.04953" showgrid="false" gridtolerance="10" guidetolerance="10">
	</sodipodi:namedview>
<g>
	<path fill="#2D2D2D" d="M292.7,462.8v-14.4c1.6-1.1,3.1-2.4,4.6-3.8c1.4-1.4,2.8-2.9,4.1-4.6c1.3-1.7,2.3-3.5,3-5.5
		c0.7-2,1.1-4,1.1-5.9c0-1.7-0.4-3-1.2-3.9s-1.9-1.3-3.4-1.3c-1.4,0-2.4,0.6-3.1,1.7c-0.7,1.1-1,2.5-1,4.2c0,1.5,0.2,3.1,0.7,4.6
		l-11.5,2.2c-0.7-2.7-1.1-5.3-1.1-7.8c0-4.8,1.3-8.6,4-11.5c2.7-2.9,6.7-4.4,12-4.4c5.4,0,9.5,1.4,12.5,4.4c2.9,2.9,4.4,7,4.4,12.4
		c0,4.8-1.1,9.2-3.4,13.4c-2.3,4.1-5.4,7.3-9.5,9.7v10.4L292.7,462.8L292.7,462.8z M292.7,480.6v-12h12.2v12H292.7z"/>
</g>
</svg>
