<svg version="1.1"
	 id="Layer_1" sodipodi:docname="AJAX.svg" inkscape:version="0.48.1 " xmlns:dc="http://purl.org/dc/elements/1.1/" xmlns:inkscape="http://www.inkscape.org/namespaces/inkscape" xmlns:sodipodi="http://sodipodi.sourceforge.net/DTD/sodipodi-0.dtd" xmlns:rdf="http://www.w3.org/1999/02/22-rdf-syntax-ns#" xmlns:cc="http://creativecommons.org/ns#" xmlns:svg="http://www.w3.org/2000/svg"
	 xmlns="http://www.w3.org/2000/svg" xmlns:xlink="http://www.w3.org/1999/xlink" x="0px" y="0px" viewBox="42 178 54.5 81.3"
	 enable-background="new 42 178 54.5 81.3" xml:space="preserve">
<sodipodi:namedview  inkscape:current-layer="Layer_1" inkscape:window-maximized="1" inkscape:window-y="-8" inkscape:window-x="-8" fit-margin-bottom="0" fit-margin-right="0" inkscape:pageopacity="0" inkscape:pageshadow="2" inkscape:window-height="1004" inkscape:window-width="1280" inkscape:zoom="2.4350534" fit-margin-left="0" pagecolor="#ffffff" bordercolor="#666666" inkscape:cy="6.4711528" borderopacity="1" fit-margin-top="0" objecttolerance="10" id="namedview31" inkscape:cx="180.04953" showgrid="false" gridtolerance="10" guidetolerance="10">
	</sodipodi:namedview>
<g>
	<path fill="#2D2D2D" d="M87.6,210.3H51c-4.9,0-9,4-9,9v31.1c0,4.9,4,9,9,9h36.6c4.9,0,9-4,9-9v-31.1
		C96.5,214.3,92.5,210.3,87.6,210.3z M71.2,236.3l2.4,6c0.2,0.4-0.1,0.8-0.5,0.8h-7.7c-0.4,0-0.7-0.4-0.5-0.8l2.4-6
		c0.1-0.2,0-0.4-0.2-0.6c-1.4-0.7-2.4-2.2-2.5-3.9c-0.1-2.7,2-5.2,4.7-5.2c2.7,0,4.9,2.1,4.9,4.8c0,1.9-1.1,3.4-2.6,4.3
		C71.2,235.8,71.1,236.1,71.2,236.3z"/>
	<path fill="#2D2D2D" d="M79.1,178H59.4c-5.1,0-9.2,4.1-9.2,9.2v12.7c0,0.5,0.5,1,1,1h5.7c0.5,0,1.1-0.5,1.1-1.1V198
		c0-0.2-0.1-0.2-0.2-0.2h-2.5c-0.1,0-0.2-0.1-0.1-0.2l2.7-2.7c0.1-0.1,0.1-0.2,0.1-0.2v-6.9c0-1.2,1-2.2,2.2-2.2h18.3
		c1.2,0,2.2,1,2.2,2.2v7.8v2.8v7.2c0,0.8,0.7,1.5,1.5,1.5h4.7c0.8,0,1.5-0.7,1.5-1.5v-18.4C88.3,182.1,84.2,178,79.1,178z"/>
</g>
</svg>
