<?xml version="1.0" encoding="utf-8"?>
<!-- Generator: Adobe Illustrator 18.0.0, SVG Export Plug-In . SVG Version: 6.00 Build 0)  -->
<!DOCTYPE svg PUBLIC "-//W3C//DTD SVG 1.1//EN" "http://www.w3.org/Graphics/SVG/1.1/DTD/svg11.dtd">
<svg version="1.1" id="Layer_1" xmlns="http://www.w3.org/2000/svg" xmlns:xlink="http://www.w3.org/1999/xlink" x="0px" y="0px"
	 viewBox="1063.3 0 216.7 800" enable-background="new 1063.3 0 216.7 800" xml:space="preserve">
<g>
	<g>
		<path fill="#F9A21C" d="M1198.5,68.3h-2.9v-0.5c0-0.2-0.2-0.5-0.7-0.5h-6.3c-0.5,0-0.7,0-0.7,0.5v0.5h-40.7
			c-2.7,0-4.6,2.4-4.6,5.6V80h-0.5c-0.2,0-0.5,0.2-0.5,0.5v7.3c0,0.2,0.2,0.5,0.5,0.5h0.5v2.4h-0.5c-0.2,0-0.5,0.2-0.5,0.5v7.3
			c0,0.2,0.2,0.5,0.5,0.5h0.5v57.6c0,3.1,2.2,5.6,4.6,5.6h51.3c2.7,0,4.6-2.7,4.6-5.6V74.1C1203.1,70.7,1201.2,68.3,1198.5,68.3z"/>
		<path fill="#F29821" d="M1203.1,86.4v69.2c0,3.1-2.2,5.6-4.6,5.6h-51.3c-2.7,0-4.6-2.4-4.6-5.6v-28.1"/>
		<path fill="#F2F2F2" d="M1192.9,150.1h-40.2c-2.2,0-3.6-1.9-3.6-4.4V78.9c0-2.4,1.7-4.4,3.6-4.4h40.4c2.2,0,3.6,1.9,3.6,4.4v67
			C1196.6,148.4,1194.9,150.1,1192.9,150.1z"/>
		<g>
			
				<polyline fill="none" stroke="#C1C1C1" stroke-width="0.25" stroke-linecap="round" stroke-linejoin="round" stroke-miterlimit="10" points="
				1158.3,122 1161.5,124.9 1162.4,125.9 1160,129.3 1162.7,132.6 1165.1,134.1 1161.5,137 1163.4,138.5 1165.1,137.7 1165.1,143.1 
				1165.1,145.5 1167.5,147.9 			"/>
			
				<line fill="none" stroke="#C1C1C1" stroke-width="0.25" stroke-linecap="round" stroke-linejoin="round" stroke-miterlimit="10" x1="1164.4" y1="122.5" x2="1161.5" y2="124.9"/>
			
				<path fill="none" stroke="#C1C1C1" stroke-width="0.25" stroke-linecap="round" stroke-linejoin="round" stroke-miterlimit="10" d="
				M1159.5,144.5l5.6-1.5L1159.5,144.5z"/>
			
				<line fill="none" stroke="#C1C1C1" stroke-width="0.25" stroke-linecap="round" stroke-linejoin="round" stroke-miterlimit="10" x1="1159.3" y1="146.9" x2="1159.5" y2="144.5"/>
		</g>
		
			<polyline fill="none" stroke="#C1C1C1" stroke-width="0.25" stroke-linecap="round" stroke-linejoin="round" stroke-miterlimit="10" points="
			1175.5,126.8 1178.4,124.9 1179.9,123.7 1182,126.1 1182.8,124.2 1182.8,127.6 1185.2,123.2 1185.4,127.3 1186.1,129.3 		"/>
		
			<polyline fill="none" stroke="#C1C1C1" stroke-width="0.25" stroke-linecap="round" stroke-linejoin="round" stroke-miterlimit="10" points="
			1196.6,128 1195.6,125.9 1193.9,125.6 1192.4,123.7 1191.2,124.9 1190,123.7 1188.8,123.2 1188.8,123.2 		"/>
		<g>
			<path fill="#E2BC78" d="M1205.8,129.3h-65.6c-4.6,0-8.2,5.1-8.2,10.9c0,6.1,3.9,10.9,8.2,10.9h65.6c4.6,0,8-5.1,8-10.9
				C1214,134.1,1210.1,129.3,1205.8,129.3z"/>
			<rect x="1140.4" y="133.6" fill="#E2B588" width="65.4" height="12.6"/>
			<path fill="#E4C7A1" d="M1181.1,148.4h-16.7c-0.7,0-1.2-0.7-1.2-1.5v-13.6c0-0.7,0.5-1.5,1.2-1.5h16.7c0.7,0,1.2,0.7,1.2,1.5
				v13.3C1182.3,147.9,1181.8,148.4,1181.1,148.4z"/>
			<g>
				<g>
					<ellipse fill="#E39E66" cx="1145" cy="136.3" rx="1.2" ry="1.5"/>
					<ellipse fill="#E39E66" cx="1148.6" cy="136.3" rx="1.2" ry="1.5"/>
					<ellipse fill="#E39E66" cx="1155.9" cy="136.3" rx="1.2" ry="1.5"/>
					<ellipse fill="#E39E66" cx="1152.3" cy="136.3" rx="1.2" ry="1.5"/>
				</g>
				<g>
					<ellipse fill="#E39E66" cx="1145" cy="140.2" rx="1.2" ry="1.5"/>
					<ellipse fill="#E39E66" cx="1148.6" cy="140.2" rx="1.2" ry="1.5"/>
					<ellipse fill="#E39E66" cx="1155.9" cy="140.2" rx="1.2" ry="1.5"/>
					<ellipse fill="#E39E66" cx="1152.3" cy="140.2" rx="1.2" ry="1.5"/>
				</g>
				<g>
					<ellipse fill="#E39E66" cx="1145" cy="143.8" rx="1.2" ry="1.5"/>
					<ellipse fill="#E39E66" cx="1148.6" cy="143.8" rx="1.2" ry="1.5"/>
					<ellipse fill="#E39E66" cx="1155.9" cy="143.8" rx="1.2" ry="1.5"/>
					<ellipse fill="#E39E66" cx="1152.3" cy="143.8" rx="1.2" ry="1.5"/>
				</g>
			</g>
			<g>
				<g>
					<ellipse fill="#E39E66" cx="1190.3" cy="136.5" rx="1.2" ry="1.5"/>
					<ellipse fill="#E39E66" cx="1193.9" cy="136.5" rx="1.2" ry="1.5"/>
					<ellipse fill="#E39E66" cx="1200.9" cy="136.5" rx="1.2" ry="1.5"/>
					<ellipse fill="#E39E66" cx="1197.3" cy="136.5" rx="1.2" ry="1.5"/>
				</g>
				<g>
					<ellipse fill="#E39E66" cx="1190.3" cy="140.2" rx="1.2" ry="1.5"/>
					<ellipse fill="#E39E66" cx="1193.9" cy="140.2" rx="1.2" ry="1.5"/>
					<ellipse fill="#E39E66" cx="1200.9" cy="140.2" rx="1.2" ry="1.5"/>
					<ellipse fill="#E39E66" cx="1197.3" cy="140.2" rx="1.2" ry="1.5"/>
				</g>
				<g>
					<ellipse fill="#E39E66" cx="1190.3" cy="144" rx="1.2" ry="1.5"/>
					<ellipse fill="#E39E66" cx="1193.9" cy="144" rx="1.2" ry="1.5"/>
					<ellipse fill="#E39E66" cx="1200.9" cy="144" rx="1.2" ry="1.5"/>
					<ellipse fill="#E39E66" cx="1197.3" cy="144" rx="1.2" ry="1.5"/>
				</g>
			</g>
		</g>
		<g>
			
				<polyline fill="none" stroke="#C1C1C1" stroke-width="0.25" stroke-linecap="round" stroke-linejoin="round" stroke-miterlimit="10" points="
				1149.4,98.8 1155.2,93.7 1156.1,102.6 1157.8,100.7 1157.8,98.5 1163.6,97.1 1166.3,101.2 1175.3,98 1175.3,94.9 1181.3,92.5 
				1180.3,95.4 1184.2,96.6 1185.9,101.7 1191.2,104.8 1194.4,104.8 1194.4,110.9 1196.3,111.6 1196.3,115.9 			"/>
			
				<polyline fill="none" stroke="#C1C1C1" stroke-width="0.25" stroke-linecap="round" stroke-linejoin="round" stroke-miterlimit="10" points="
				1178.9,93.4 1182.3,85.7 1180.6,83.5 1185.2,82.3 1191.2,81.3 1188.3,76.7 1193.2,75 			"/>
		</g>
		<g>
			<rect x="1161.7" y="91" fill="#231F20" width="2.2" height="2.7"/>
			<rect x="1161.7" y="96.3" fill="#231F20" width="2.2" height="2.7"/>
			<rect x="1163.9" y="93.7" fill="#231F20" width="2.2" height="2.7"/>
			<rect x="1166.1" y="91" fill="#231F20" width="2.2" height="2.7"/>
			<rect x="1166.1" y="96.3" fill="#231F20" width="2.2" height="2.7"/>
			<rect x="1178.2" y="91" fill="#231F20" width="2.2" height="2.7"/>
			<rect x="1178.2" y="96.3" fill="#231F20" width="2.2" height="2.7"/>
			<rect x="1180.3" y="93.7" fill="#231F20" width="2.2" height="2.7"/>
			<rect x="1182.5" y="91" fill="#231F20" width="2.2" height="2.7"/>
			<rect x="1182.5" y="96.3" fill="#231F20" width="2.2" height="2.7"/>
			<rect x="1169.7" y="111.1" fill="#231F20" width="2.2" height="2.7"/>
			<rect x="1172.1" y="111.1" fill="#231F20" width="2.2" height="2.7"/>
			<rect x="1174.3" y="111.1" fill="#231F20" width="2.2" height="2.7"/>
		</g>
		
			<path fill="none" stroke="#303030" stroke-width="0.25" stroke-linecap="round" stroke-linejoin="round" stroke-miterlimit="10" d="
			M1153.7,79.9c-1.2,0.7-2.9-0.5-3.1-1.9s1.7-3.1,2.9-2.4c-1,1.9-3.1,3.1-4.8,2.4c-1.2-0.5-2.2-1.5-2.4-2.7
			c-0.5-1.5-0.2-2.9,0.5-4.1c1-1.2,1.7-1.9,1.7-1.9c0.7-0.7,2.4-1.2,3.1,0c0.5,0.7,0.5,1.5,0.2,2.2c-0.2,0.7-0.7,1.2-1.2,1.7
			c-1.7,1.5-3.6,2.4-5.6,3.1c-2.2,0.5-4.8,0-5.6-2.9c-0.2-1-0.2-1.9,0-2.7c0.5-2.2,1.7-3.9,2.9-5.3c0.7-0.7,1.5-1,2.2-1.2
			c0,0,0.7-0.2,2.2-0.2"/>
		<rect x="1164.4" y="155.6" fill="#E08624" width="17.7" height="1.9"/>
	</g>
	<g>
		<rect x="1170.9" y="134.1" fill="#DE1F26" stroke="#DE1F26" stroke-miterlimit="10" width="3.6" height="4.4"/>
		<rect x="1170.9" y="138.5" fill="#DE1F26" stroke="#DE1F26" stroke-miterlimit="10" width="3.6" height="4.4"/>
		<rect x="1174.5" y="138.5" fill="#DE1F26" stroke="#DE1F26" stroke-miterlimit="10" width="3.6" height="4.4"/>
		<rect x="1167.3" y="138.5" fill="#DE1F26" stroke="#DE1F26" stroke-miterlimit="10" width="3.6" height="4.4"/>
		<rect x="1170.9" y="142.6" fill="#DE1F26" stroke="#DE1F26" stroke-miterlimit="10" width="3.6" height="4.4"/>
	</g>
</g>
<g>
	<path fill="#F9A11C" d="M1151.8,36.8V25.4L1144,0h3.1c0.2,1,0.7,2.4,1.2,4.4s1,3.9,1.7,5.6c0.5,1.9,1.2,3.9,1.7,5.6s1,3.1,1.2,4.4
		l0.5,1.7c1-3.4,1.9-7,3.1-11.1c1.2-3.9,2.2-7.5,2.9-10.4h3.1l-7.7,25.4V37h-3V36.8z"/>
	<path fill="#F9A11C" d="M1164.6,24.7v-1.5c0-1.2,0-1.9,0-2.7s0-1.5,0.2-2.4c0-1,0.2-1.9,0.2-2.4c0.2-0.5,0.5-1.2,0.7-1.9
		c0.2-0.7,0.7-1.2,1.2-1.7s1-0.7,1.7-1c0.7-0.2,1.5-0.5,2.4-0.5c1,0,1.7,0.2,2.4,0.5c0.7,0.2,1.2,0.7,1.7,1c0.5,0.5,1,1,1.2,1.7
		c0.2,0.7,0.5,1.5,0.7,1.9c0.2,0.5,0.2,1.5,0.2,2.4c0,1,0.2,1.9,0.2,2.4c0,0.7,0,1.5,0,2.7v1.2c0,1,0,1.7,0,2.2s0,1.2,0,1.9
		c0,1,0,1.5-0.2,1.9c0,0.5-0.2,1-0.2,1.7c-0.2,0.7-0.2,1.2-0.5,1.7c-0.2,0.5-0.5,0.7-0.7,1.2c-0.2,0.5-0.7,0.7-1.2,1s-1,0.5-1.5,0.5
		c-0.5,0.2-1.2,0.2-1.9,0.2s-1.5,0-1.9-0.2c-0.5-0.2-1.2-0.5-1.5-0.5c-0.5-0.2-0.7-0.5-1.2-1c-0.2-0.5-0.7-1-0.7-1.2
		c-0.2-0.5-0.5-1-0.5-1.7s-0.2-1.2-0.2-1.7s-0.2-1.2-0.2-1.9c0-1,0-1.5,0-1.9C1164.6,26.4,1164.6,25.7,1164.6,24.7z M1167.7,23.2
		v1.2c0,4.1,0.2,6.8,0.7,8.2c0.5,1.5,1.5,2.2,2.9,2.2s2.4-0.7,2.9-2.2s0.7-4.4,0.7-8.2v-1.2c0-1.5,0-2.4,0-3.4s0-1.7-0.2-2.7
		c0-1-0.2-1.5-0.5-1.9c-0.2-0.5-0.5-1-0.7-1.5c-0.2-0.5-0.5-0.7-1-0.7c-0.5-0.2-0.7-0.2-1.5-0.2c-0.5,0-1,0-1.5,0.2s-0.7,0.5-1,0.7
		c-0.2,0.5-0.5,0.7-0.7,1.5c-0.2,0.5-0.2,1.2-0.5,1.9c0,1-0.2,1.7-0.2,2.7C1167.7,20.8,1167.7,22,1167.7,23.2z"/>
	<path fill="#F9A11C" d="M1183.5,31.2V11.1h3.1v20.3c0,1.2,0.2,2.2,0.7,2.7s1.2,1,1.9,1c0.7,0,1.5-0.2,2.2-0.7s1.5-1.2,2.2-1.9V11.1
		h3.1v25.7h-3.1v-2.4c-0.7,1-1.5,1.7-2.4,2.2c-1,0.5-1.9,0.7-2.9,0.7c-1.2,0-2.4-0.5-3.4-1.7C1184,34.6,1183.5,33.2,1183.5,31.2z"/>
</g>
<path fill="#F9A21C" d="M1275.2,227.8h-2.9v-0.5c0-0.2-0.2-0.5-0.7-0.5h-6.5c-0.5,0-0.7,0-0.7,0.5v0.5H1224c-2.7,0-4.6,2.4-4.6,5.6
	v6.1h-0.5c-0.2,0-0.5,0.2-0.5,0.5v7.3c0,0.2,0.2,0.5,0.5,0.5h0.5v2.4h-0.5c-0.2,0-0.5,0.2-0.5,0.5v7.3c0,0.2,0.2,0.5,0.5,0.5h0.5
	v57.6c0,3.1,2.2,5.6,4.6,5.6h51.3c2.7,0,4.6-2.7,4.6-5.6v-82.3C1279.8,230.2,1277.6,227.8,1275.2,227.8z"/>
<path fill="#F29821" d="M1279.8,246.2v69.2c0,3.1-2.2,5.6-4.6,5.6h-51.3c-2.7,0-4.6-2.4-4.6-5.6v-28.1"/>
<g>
	<path fill="#444445" d="M1230,310.6c-1.9,0-4.4-1.9-4.4-4.6v-67c0-2.7,2.2-4.6,4.4-4.6h39.7c2.2,0,2.9,0,3.9,2.9V306
		c0,2.4-1.7,4.6-3.9,4.6H1230L1230,310.6z"/>
	<g>
		<path fill="#161616" d="M1269.7,234.6c1.9,0,2.7,0,3.4,2.7V306c0,2.4-1.7,4.4-3.6,4.4H1230c-1.9,0-4.1-1.9-4.1-4.4v-67
			c0-2.4,1.9-4.4,3.9-4.4H1269.7L1269.7,234.6 M1269.7,234.1L1269.7,234.1H1230c-2.2,0-4.6,2.2-4.6,4.8v67.3c0,2.7,2.4,4.8,4.6,4.8
			h39.7c2.2,0,4.1-2.2,4.1-4.8v-68.7l0,0l0,0C1272.8,234.1,1271.8,234.1,1269.7,234.1L1269.7,234.1z"/>
	</g>
</g>
<g>
	<path fill="#3A3A3A" d="M1269.7,310.3H1230c21.5-28.1,43.1-67.3,43.1-72.9v68.7C1273,308.4,1271.6,310.3,1269.7,310.3z"/>
</g>
<g>
	<rect x="1201.2" y="273.3" fill="#B56FAD" width="12.1" height="3.1"/>
	<rect x="1205.8" y="268.7" fill="#B56FAD" width="3.1" height="12.1"/>
</g>
<g>
	<rect x="1128.1" y="273.3" fill="#B56FAD" width="12.1" height="3.1"/>
	<rect x="1132.6" y="268.7" fill="#B56FAD" width="3.1" height="12.1"/>
</g>
<path fill="#1B00DD" d="M1093,267.2c-1.5,0-2.7-0.2-3.9-0.7c-1.5-0.5-2.4-1.7-2.7-3.1c-0.5-1.9,0.7-3.1,1.7-4.1
	c0.7-0.7,1.2-1.2,1-1.9c0-0.5-0.5-1-1-1.2c-1.2-0.2-2.4,0-3.9,0.7c-0.5,0.2-1,0.2-1.2,0.5c-2.2,0.7-4.1,0.5-5.3-0.7
	c-1.5-1.5-1.5-3.9,0-6.8c0.5-0.7,0.7-1.7,1-2.4c0-0.2,0-0.5-0.2-0.7c0,0-0.2-0.2-0.7-0.2l0,0c-1,0-2.2-0.5-2.9-1.2
	c-1-1.2-1.5-2.7-1.2-4.8c0-0.5,0.2-1.2,0.2-1.7c0.2-0.7,0.2-1.7,0.2-2.4c0-1.9-1-3.6-2.2-4.4c-1.5-1-3.4-1-4.6,0.2
	c-0.5,0.5-1,1.2-1,2.2c0,0.7,0.2,1.5,0.7,1.9c0.5,0.5,0.2,1,0,1.5c-0.5,0.5-1,0.2-1.5,0c-0.7-1-1.2-2.2-1.2-3.4
	c0-1.5,0.7-2.7,1.7-3.6c1.9-1.7,4.8-1.7,7-0.2c1.9,1.2,3.1,3.6,3.1,6.1c0,1-0.2,1.9-0.2,2.7c0,0.5-0.2,1-0.2,1.5c0,1,0,2.4,0.7,3.1
	c0.2,0.5,1,0.5,1.5,0.5l0,0c1,0,1.7,0.5,2.2,1.2s0.7,1.7,0.5,2.7c-0.2,1-0.7,1.7-1.2,2.7c-0.5,1.2-1.5,3.4-0.2,4.4
	c1,1,2.7,0.5,3.1,0.2c0.5-0.2,0.7-0.2,1.2-0.5c1.5-0.5,3.1-1.2,5.1-0.7c1.5,0.5,2.4,1.5,2.4,2.7c0.2,1.7-0.7,2.7-1.7,3.6
	c-1,1-1.2,1.5-1.2,2.2c0.2,0.7,0.7,1.2,1.5,1.7c1.2,0.5,2.4,0.7,4.1,0.5c0.5,0,1,0.2,1.2,1c0,0.5-0.2,1-1,1.2
	C1093.9,267.2,1093.4,267.2,1093,267.2z"/>
<path fill="#FF1717" d="M1075,276.2c-2.4,0-5.3-1.5-6.1-3.9c-0.5-1.5,0-3.1,1-4.6c0.7-1,1.7-1.7,2.7-2.2l0.5-0.2
	c0.5-0.5,1.2-0.7,1.7-1.2c-0.7,0-1.5-0.5-1.9-1c-0.7-0.7-1-1.5-0.7-2.4c0.2-0.7,0.7-1.5,1.7-1.7s2.2,0,2.9,0.5l0.2,0.2
	c0.7-2.2,0.2-4.6-1.2-6.3c-0.7-0.7-1.5-1.5-2.4-1.9c-0.5,1-1.2,1.9-2.2,2.7c-1,0.7-2.4,0.7-3.6,0.2c-0.7-0.2-1.2-1-1.5-1.7
	c-0.2-0.7,0-1.5,0.5-1.9c0.7-1,1.9-1.5,3.1-1.7c0.7,0,1.5,0,2.2,0c0-0.2,0-0.2,0-0.2c-0.2-1.5-1.5-2.7-2.9-2.9c-0.2,0-0.7,0-1-0.2
	c-0.5,0-0.7,0-1.2-0.2c-1.2-0.2-2.2-1-2.4-1.9c-0.2-0.7,0-1.5,0.5-2.2c0.5-0.5,1.2-0.7,1.7-0.7s1,0.5,1,1.2c0,0.5-0.5,1-1,1v0.2
	c0,0.2,0.5,0.5,1,0.7c0.2,0,0.7,0,1,0.2c0.5,0,0.7,0,1.2,0.2c2.2,0.5,4.1,2.4,4.4,4.6c0,0.5,0,0.7,0,1.2c1.5,0.5,2.7,1.5,3.6,2.7
	c1.9,2.2,2.4,5.3,1.5,8.2c-0.2,1-0.7,1.7-1.2,2.2c0,0.5-0.2,1-0.5,1.5c-0.7,1.2-1.7,2.2-2.9,2.9l-0.5,0.2c-0.7,0.5-1.7,1-2.2,1.7
	c-0.5,0.5-1,1.5-0.7,2.2c0.5,1.2,2.7,1.9,4.4,1.9c0.5,0,1,1,1,1.5C1076.3,275.2,1075.8,276.2,1075,276.2L1075,276.2z M1074.6,260.9
	h-0.2c0,0-0.2,0-0.2,0.2s0,0.2,0.2,0.5c0.2,0.2,0.7,0.5,1,0.2c0.2,0,0.2,0,0.5-0.2c0-0.2-0.2-0.5-0.5-0.7
	C1074.8,260.9,1074.6,260.9,1074.6,260.9z M1070.2,251.3c-0.2,0-0.5,0-0.7,0c-0.7,0-1.5,0.5-1.7,0.7c-0.2,0.2-0.2,0.2,0,0.5
	c0,0,0,0.2,0.2,0.2c0.5,0.2,1.2,0,1.7-0.2s1-0.7,1.2-1.5C1070.7,251.3,1070.4,251.3,1070.2,251.3z"/>
<g>
	<g>
		<rect x="1074.3" y="240.6" fill="#358E43" width="47" height="69.7"/>
	</g>
	<g>
		<path fill="#38823F" d="M1074.3,306.2v-65.6h43.6h3.6C1121.3,240.6,1074.3,308.4,1074.3,306.2z"/>
	</g>
	<polygon fill="#1D5F30" points="1121.3,262.6 1095.9,262.6 1086.9,252.7 1086.9,240.6 1087.9,240.6 1087.9,252.2 1096.3,261.7 
		1121.3,261.7 	"/>
	<polygon fill="#1D5F30" points="1121.3,260.7 1096.8,260.7 1088.8,251.5 1088.8,240.6 1089.8,240.6 1089.8,251 1097.3,259.5 
		1121.3,259.5 	"/>
	<polygon fill="#1D5F30" points="1121.3,258.5 1097.8,258.5 1090.5,250.3 1090.5,240.6 1091.5,240.6 1091.5,250 1098.3,257.5 
		1121.3,257.5 	"/>
	<polygon fill="#1D5F30" points="1121.3,256.6 1098.8,256.6 1092.5,249.3 1092.5,240.6 1093.4,240.6 1093.4,248.8 1099.2,255.6 
		1121.3,255.6 	"/>
	<path fill="none" stroke="#000000" stroke-width="0.11" stroke-miterlimit="10" d="M1096.8,267.5"/>
	<path fill="none" stroke="#000000" stroke-width="0.11" stroke-miterlimit="10" d="M1086.4,273.8"/>
	<path fill="none" stroke="#000000" stroke-width="0.11" stroke-miterlimit="10" d="M1107,250.3"/>
	<path fill="none" stroke="#000000" stroke-width="0.11" stroke-miterlimit="10" d="M1096.1,262.1"/>
	<path fill="none" stroke="#000000" stroke-width="0.11" stroke-miterlimit="10" d="M1104.1,268"/>
	<path fill="none" stroke="#000000" stroke-width="0.11" stroke-miterlimit="10" d="M1098.3,279.3"/>
	<polygon fill="#1D5F30" points="1121.3,295.3 1109.9,282.7 1074.3,282.7 1074.3,281.8 1110.1,281.8 1122,294.6 	"/>
	<path fill="#CECECD" d="M1088.4,285.1c-0.5,0-0.7-0.2-0.7-0.7v-2.9c0-0.5,0.2-0.7,0.7-0.7s0.7,0.2,0.7,0.7v2.9
		C1089.1,284.9,1088.8,285.1,1088.4,285.1z"/>
	<path fill="#CECECD" d="M1102.2,285.1c-0.5,0-0.7-0.2-0.7-0.7v-2.9c0-0.5,0.2-0.7,0.7-0.7s0.7,0.2,0.7,0.7v2.9
		C1102.9,284.9,1102.6,285.1,1102.2,285.1z"/>
	<path fill="#CECECD" d="M1093,285.1c-0.5,0-0.7-0.2-0.7-0.7v-2.9c0-0.5,0.2-0.7,0.7-0.7s0.7,0.2,0.7,0.7v2.9
		C1093.7,284.9,1093.4,285.1,1093,285.1z"/>
	<path fill="#CECECD" d="M1097.8,285.1c-0.5,0-0.7-0.2-0.7-0.7v-2.9c0-0.5,0.2-0.7,0.7-0.7s0.7,0.2,0.7,0.7v2.9
		C1098.5,284.9,1098.3,285.1,1097.8,285.1z"/>
	<path fill="#CECECD" d="M1088.4,299.7c-0.5,0-0.7-0.2-0.7-0.7v-3c0-0.5,0.2-0.7,0.7-0.7s0.7,0.2,0.7,0.7v2.9
		C1089.1,299.4,1088.8,299.7,1088.4,299.7z"/>
	<path fill="#CECECD" d="M1102.2,299.7c-0.5,0-0.7-0.2-0.7-0.7v-3c0-0.5,0.2-0.7,0.7-0.7s0.7,0.2,0.7,0.7v2.9
		C1102.9,299.4,1102.6,299.7,1102.2,299.7z"/>
	<path fill="#CECECD" d="M1093,299.7c-0.5,0-0.7-0.2-0.7-0.7v-3c0-0.5,0.2-0.7,0.7-0.7s0.7,0.2,0.7,0.7v2.9
		C1093.7,299.4,1093.2,299.7,1093,299.7z"/>
	<path fill="#CECECD" d="M1097.8,299.7c-0.5,0-0.7-0.2-0.7-0.7v-3c0-0.5,0.2-0.7,0.7-0.7s0.7,0.2,0.7,0.7v2.9
		C1098.5,299.4,1098.3,299.7,1097.8,299.7z"/>
	<rect x="1086.2" y="283.7" fill="#474748" width="18.2" height="13.3"/>
	<path fill="none" d="M1074.3,268.7"/>
	<path fill="none" d="M1122.2,287.3"/>
	<path fill="none" d="M1105.1,268.7"/>
	<polygon fill="#1D5F30" points="1121.8,283.9 1105.3,266 1074.3,266 1074.3,265.1 1105.8,265.1 1122.5,283.2 	"/>
	<polygon fill="#1D5F30" points="1121.5,286.8 1104.3,268 1074.3,268 1074.3,267 1104.8,267 1122.5,286.4 	"/>
	<polygon fill="#1D5F30" points="1121.3,289.3 1103.4,269.9 1074.3,269.9 1074.3,268.9 1103.8,268.9 1122,288.5 	"/>
	<path fill="none" stroke="#1D5F30" stroke-miterlimit="10" d="M1100.5,271.1"/>
	<path fill="none" stroke="#1D5F30" stroke-miterlimit="10" d="M1105.5,265.5"/>
	<rect x="1074.3" y="299.9" fill="#1D5F30" width="47" height="1"/>
	<rect x="1074.3" y="301.8" fill="#1D5F30" width="47" height="1"/>
	<rect x="1074.3" y="303.8" fill="#1D5F30" width="47" height="1"/>
	<rect x="1074.3" y="306" fill="#1D5F30" width="47" height="1"/>
	<g>
		<path fill="#CECECD" d="M1111.6,254.2h-2.7c-0.5,0-0.7-0.2-0.7-0.7s0.2-0.7,0.7-0.7h2.7c0.5,0,0.7,0.2,0.7,0.7
			C1112.6,253.9,1112.1,254.2,1111.6,254.2z"/>
		<path fill="#CECECD" d="M1111.6,256.8h-2.7c-0.5,0-0.7-0.2-0.7-0.7s0.2-0.7,0.7-0.7h2.7c0.5,0,0.7,0.2,0.7,0.7
			C1112.3,256.6,1112.1,256.8,1111.6,256.8z"/>
		<path fill="#CECECD" d="M1111.6,259.5h-2.7c-0.5,0-0.7-0.2-0.7-0.7s0.2-0.7,0.7-0.7h2.7c0.5,0,0.7,0.2,0.7,0.7
			C1112.3,259.2,1112.1,259.5,1111.6,259.5z"/>
		<path fill="#CECECD" d="M1111.6,261.9h-2.7c-0.5,0-0.7-0.2-0.7-0.7s0.2-0.7,0.7-0.7h2.7c0.5,0,0.7,0.2,0.7,0.7
			S1112.1,261.9,1111.6,261.9z"/>
		<path fill="#CECECD" d="M1111.6,264.6h-2.7c-0.5,0-0.7-0.2-0.7-0.7s0.2-0.7,0.7-0.7h2.7c0.5,0,0.7,0.2,0.7,0.7
			C1112.3,264.3,1112.1,264.6,1111.6,264.6z"/>
	</g>
	<g>
		<path fill="#CECECD" d="M1117.4,254.2h-2.7c-0.5,0-0.7-0.2-0.7-0.7s0.2-0.7,0.7-0.7h2.7c0.5,0,0.7,0.2,0.7,0.7
			C1118.1,253.9,1117.9,254.2,1117.4,254.2z"/>
		<path fill="#CECECD" d="M1117.4,256.8h-2.7c-0.5,0-0.7-0.2-0.7-0.7s0.2-0.7,0.7-0.7h2.7c0.5,0,0.7,0.2,0.7,0.7
			C1118.1,256.6,1117.9,256.8,1117.4,256.8z"/>
		<path fill="#CECECD" d="M1117.4,259.5h-2.7c-0.5,0-0.7-0.2-0.7-0.7s0.2-0.7,0.7-0.7h2.7c0.5,0,0.7,0.2,0.7,0.7
			C1118.1,259.2,1117.9,259.5,1117.4,259.5z"/>
		<path fill="#CECECD" d="M1117.4,261.9h-2.7c-0.5,0-0.7-0.2-0.7-0.7s0.2-0.7,0.7-0.7h2.7c0.5,0,0.7,0.2,0.7,0.7
			S1117.9,261.9,1117.4,261.9z"/>
		<path fill="#CECECD" d="M1117.4,264.6h-2.7c-0.5,0-0.7-0.2-0.7-0.7s0.2-0.7,0.7-0.7h2.7c0.5,0,0.7,0.2,0.7,0.7
			C1118.1,264.3,1117.9,264.6,1117.4,264.6z"/>
	</g>
	<rect x="1109.7" y="251.3" fill="#474748" width="7.3" height="14.8"/>
	<polygon fill="#1D5F30" points="1121.3,292.4 1110.6,280.8 1074.3,280.8 1074.3,279.6 1111.1,279.6 1122,291.7 	"/>
	<path fill="#CECECD" d="M1084.2,263.4c-0.5,0-0.7-0.2-0.7-0.7v-2.9c0-0.5,0.2-0.7,0.7-0.7s0.7,0.2,0.7,0.7v2.9
		C1085.2,262.9,1084.7,263.4,1084.2,263.4z"/>
	<path fill="#CECECD" d="M1084,261.2h-2.4c-0.2,0-0.5-0.2-0.5-0.5c0-0.2,0.2-0.5,0.5-0.5h2.2c0.2,0,0.5,0.2,0.5,0.5
		C1084.5,260.9,1084.2,261.2,1084,261.2z"/>
	<path fill="#CECECD" d="M1086.9,261.2h-3.1c-0.2,0-0.5-0.2-0.5-0.5c0-0.2,0.2-0.5,0.5-0.5h3.1c0.2,0,0.5,0.2,0.5,0.5
		C1087.4,260.9,1087.1,261.2,1086.9,261.2z"/>
	<rect x="1082.1" y="255.1" fill="#474748" width="4.6" height="5.8"/>
	<ellipse fill="#5A5B5B" cx="1084.2" cy="255.1" rx="2.4" ry="1"/>
	<ellipse fill="#474748" cx="1084.2" cy="261.2" rx="2.4" ry="1"/>
	<path fill="none" stroke="#E41E26" stroke-width="0.5" stroke-linecap="round" stroke-miterlimit="10" d="M1093.9,274.3"/>
	<rect x="1089.3" y="286.6" fill="#787878" width="4.6" height="1.9"/>
	<rect x="1097.8" y="289.7" fill="#787878" width="3.4" height="3.1"/>
	<ellipse fill="#307B3C" cx="1080.6" cy="248.4" rx="1.7" ry="1.9"/>
	<ellipse fill="#307B3C" cx="1113.3" cy="296" rx="1.7" ry="1.9"/>
	<ellipse fill="#307B3C" cx="1085.2" cy="273.8" rx="1.7" ry="1.9"/>
	<ellipse fill="#307B3C" cx="1113.3" cy="248.4" rx="1.7" ry="1.9"/>
	<path fill="#FFFFFF" d="M1121.3,240.6v69.2h-47v-69.2L1121.3,240.6 M1122.2,239.6h-1h-47h-1v1v69.2v1h1h47h1v-1v-69.2V239.6
		L1122.2,239.6z"/>
</g>
<path fill="#A0A0A0" d="M1081.1,290l-7.7,2.4l-1.9,7.7l5.8,5.6l7.7-2.4l1.9-8L1081.1,290z M1079.2,299.9c-1.2,0-2.2-1-2.2-2.2
	s1-2.2,2.2-2.2c1.2,0,2.2,1,2.2,2.2C1081.1,298.9,1080.4,299.9,1079.2,299.9z"/>
<path fill="#A0A0A0" d="M1076.7,304l-5.3-0.2l-2.9,4.6l2.4,4.8l5.3,0.2l2.9-4.6L1076.7,304z M1075,309.1c-0.2,0.7-1,1.2-1.7,1
	c-0.7-0.2-1.2-1-1-1.7c0.2-0.7,1-1.2,1.7-1C1075,307.7,1075.3,308.4,1075,309.1z"/>
<g>
	
		<rect x="1083.2" y="305" transform="matrix(-0.688 -0.7257 0.7257 -0.688 1607.1499 1308.8978)" fill="#A0A0A0" width="3.4" height="8"/>
	
		<ellipse transform="matrix(0.688 0.7257 -0.7257 0.688 561.6874 -693.8431)" fill="#A0A0A0" cx="1087.8" cy="306.3" rx="1.7" ry="0.7"/>
	
		<line fill="none" stroke="#7A7A7A" stroke-width="0.5" stroke-linecap="round" stroke-miterlimit="10" x1="1082.5" y1="309.6" x2="1084.5" y2="310.6"/>
	
		<line fill="none" stroke="#7A7A7A" stroke-width="0.5" stroke-linecap="round" stroke-miterlimit="10" x1="1083.5" y1="308.4" x2="1085.4" y2="309.3"/>
	
		<line fill="none" stroke="#7A7A7A" stroke-width="0.5" stroke-linecap="round" stroke-miterlimit="10" x1="1084.7" y1="307.4" x2="1086.4" y2="308.1"/>
	
		<line fill="none" stroke="#7A7A7A" stroke-width="0.5" stroke-linecap="round" stroke-miterlimit="10" x1="1085.9" y1="306.2" x2="1087.6" y2="306.9"/>
	<path fill="#8E8E8E" d="M1085.2,314.4c-0.7,0.7-2.7,0-4.4-1.7c-1.5-1.7-2.2-3.6-1.5-4.4C1080.4,307.7,1085.9,313.7,1085.2,314.4z"
		/>
	<path fill="none" stroke="#707070" stroke-miterlimit="10" d="M1080.8,310.8c0,0,0.5,1.7,2.2,2.2"/>
</g>
<path fill="#F2F2F2" stroke="#A8A8A8" stroke-width="0.5" stroke-miterlimit="10" d="M1191.5,311.8h-40.2c-2.2,0-3.6-1.9-3.6-4.4
	v-67c0-2.4,1.7-4.4,3.6-4.4h40.4c2.2,0,3.6,1.9,3.6,4.4v67C1195.1,310.1,1193.4,311.8,1191.5,311.8z"/>
<g>
	
		<polyline fill="none" stroke="#C1C1C1" stroke-width="0.25" stroke-linecap="round" stroke-linejoin="round" stroke-miterlimit="10" points="
		1156.9,284.4 1160,287.3 1161,288 1158.5,291.4 1161.2,295.1 1163.6,296.5 1160,299.4 1161.9,300.9 1163.6,300.2 1163.6,305.5 
		1163.6,307.9 1166.1,310.1 	"/>
	
		<line fill="none" stroke="#C1C1C1" stroke-width="0.25" stroke-linecap="round" stroke-linejoin="round" stroke-miterlimit="10" x1="1162.9" y1="284.9" x2="1160" y2="287.3"/>
	
		<path fill="none" stroke="#C1C1C1" stroke-width="0.25" stroke-linecap="round" stroke-linejoin="round" stroke-miterlimit="10" d="
		M1158.1,306.9l5.6-1.5L1158.1,306.9z"/>
	
		<line fill="none" stroke="#C1C1C1" stroke-width="0.25" stroke-linecap="round" stroke-linejoin="round" stroke-miterlimit="10" x1="1157.8" y1="309.3" x2="1158.1" y2="306.9"/>
</g>
<polyline fill="none" stroke="#C1C1C1" stroke-width="0.25" stroke-linecap="round" stroke-linejoin="round" stroke-miterlimit="10" points="
	1174,289 1176.9,287.3 1178.4,285.9 1180.6,288.3 1181.3,286.6 1181.3,289.7 1183.7,285.4 1184,289.5 1184.7,291.7 "/>
<polyline fill="none" stroke="#C1C1C1" stroke-width="0.25" stroke-linecap="round" stroke-linejoin="round" stroke-miterlimit="10" points="
	1195.1,290.5 1194.1,288.3 1192.4,288 1191,285.9 1189.8,287.1 1188.6,286.1 1187.4,285.4 1187.4,285.4 "/>
<g>
	
		<polyline fill="none" stroke="#C1C1C1" stroke-width="0.25" stroke-linecap="round" stroke-linejoin="round" stroke-miterlimit="10" points="
		1147.9,260.9 1153.7,255.9 1154.7,265.1 1156.4,262.9 1156.4,260.9 1162.2,259.5 1164.8,263.6 1173.8,260.5 1173.8,257.1 
		1179.9,254.9 1178.9,257.8 1182.8,259 1184.5,263.8 1189.8,267 1192.9,267 1192.9,273.3 1194.9,274 1194.9,278.4 	"/>
	
		<polyline fill="none" stroke="#C1C1C1" stroke-width="0.25" stroke-linecap="round" stroke-linejoin="round" stroke-miterlimit="10" points="
		1177.4,255.6 1180.8,247.9 1179.1,245.9 1183.7,244.7 1189.8,243.5 1186.9,239.2 1191.7,237.2 	"/>
</g>
<g>
	<g>
		<path fill="#6B6B6B" d="M1096.8,190.7c-0.5,0-0.7-0.2-1-0.5c-0.2-0.2-0.5-0.7-0.5-1c0-0.5,0.2-0.7,0.5-1c0.5-0.5,1.7-0.5,2.2,0
			c0.2,0.2,0.5,0.7,0.5,1c0,0.5-0.2,0.7-0.5,1C1097.6,190.7,1097.1,190.7,1096.8,190.7z"/>
		<path fill="#6B6B6B" d="M1095.4,216.2c0-0.7,0.7-1.5,1.5-1.5l0,0c0.7,0,1.5,0.7,1.5,1.5l0,0c0,0.7-0.7,1.5-1.5,1.5l0,0
			C1095.9,217.6,1095.4,216.9,1095.4,216.2z M1095.4,210.8c0-0.7,0.7-1.5,1.5-1.5l0,0c0.7,0,1.5,0.7,1.5,1.5l0,0
			c0,0.7-0.7,1.5-1.5,1.5l0,0C1095.9,212.3,1095.4,211.6,1095.4,210.8z M1095.4,205.5c0-0.7,0.7-1.5,1.5-1.5l0,0
			c0.7,0,1.5,0.7,1.5,1.5l0,0c0,0.7-0.7,1.5-1.5,1.5l0,0C1095.9,207,1095.4,206.2,1095.4,205.5z M1095.4,199.9
			c0-0.7,0.7-1.5,1.5-1.5l0,0c0.7,0,1.5,0.7,1.5,1.5l0,0c0,0.7-0.7,1.5-1.5,1.5l0,0C1095.9,201.6,1095.4,200.9,1095.4,199.9z
			 M1095.4,194.6c0-0.7,0.7-1.5,1.5-1.5l0,0c0.7,0,1.5,0.7,1.5,1.5l0,0c0,0.7-0.7,1.5-1.5,1.5l0,0
			C1095.9,196.1,1095.4,195.6,1095.4,194.6z"/>
		<path fill="#6B6B6B" d="M1096.8,222.9c-0.5,0-0.7-0.2-1-0.5c-0.2-0.2-0.5-0.7-0.5-1c0-0.5,0.2-0.7,0.5-1c0.5-0.5,1.7-0.5,2.2,0
			c0.2,0.2,0.5,0.7,0.5,1c0,0.5-0.2,0.7-0.5,1C1097.6,222.9,1097.1,222.9,1096.8,222.9z"/>
	</g>
	<g>
		<path fill="#6B6B6B" d="M1096.6,222.9c-0.5,0-0.7-0.2-1-0.5c-0.2-0.2-0.5-0.7-0.5-1c0-0.5,0.2-0.7,0.5-1c0.5-0.5,1.7-0.5,2.2,0
			c0.2,0.2,0.5,0.7,0.5,1c0,0.5-0.2,0.7-0.5,1C1097.3,222.9,1097.1,222.9,1096.6,222.9z"/>
		<path fill="#6B6B6B" d="M1091.7,218.8c-0.5-0.5-0.5-1.5,0-2.2l0,0c0.5-0.5,1.5-0.5,2.2,0l0,0c0.5,0.5,0.5,1.5,0,2.2l0,0
			c-0.2,0.2-0.7,0.5-1,0.5l0,0C1092.5,219.3,1092.2,219.1,1091.7,218.8z"/>
		<path fill="#6B6B6B" d="M1089.3,215.7c-0.5,0-0.7-0.2-1-0.5c-0.2-0.2-0.5-0.7-0.5-1c0-0.5,0.2-0.7,0.5-1c0.5-0.5,1.7-0.5,2.2,0
			c0.2,0.2,0.5,0.7,0.5,1c0,0.5-0.2,0.7-0.5,1C1090,215.4,1089.6,215.7,1089.3,215.7z"/>
	</g>
	<g>
		<path fill="#6B6B6B" d="M1097.1,222.7c-0.5,0-0.7-0.2-1-0.5s-0.5-0.7-0.5-1c0-0.5,0.2-0.7,0.5-1c0.5-0.5,1.7-0.5,2.2,0
			c0.2,0.2,0.5,0.7,0.5,1c0,0.5-0.2,0.7-0.5,1C1097.8,222.7,1097.3,222.7,1097.1,222.7z"/>
		<path fill="#6B6B6B" d="M1099.5,218.6c-0.5-0.5-0.5-1.5,0-2.2l0,0c0.5-0.5,1.5-0.5,2.2,0l0,0c0.5,0.5,0.5,1.5,0,2.2l0,0
			c-0.2,0.2-0.7,0.5-1,0.5l0,0C1100.2,219.1,1100,218.8,1099.5,218.6z"/>
		<path fill="#6B6B6B" d="M1104.3,215.4c-0.5,0-0.7-0.2-1-0.5c-0.2-0.2-0.5-0.7-0.5-1c0-0.5,0.2-0.7,0.5-1c0.5-0.5,1.7-0.5,2.2,0
			c0.2,0.2,0.5,0.7,0.5,1c0,0.5-0.2,0.7-0.5,1C1105.1,215.2,1104.8,215.4,1104.3,215.4z"/>
	</g>
</g>
<g>
	<g>
		<path fill="#6B6B6B" d="M1172.3,190.5c-0.5,0-0.7-0.2-1-0.5c-0.2-0.2-0.5-0.7-0.5-1c0-0.5,0.2-0.7,0.5-1c0.5-0.5,1.7-0.5,2.2,0
			c0.2,0.2,0.5,0.7,0.5,1c0,0.5-0.2,0.7-0.5,1C1173.3,190.3,1172.8,190.5,1172.3,190.5z"/>
		<path fill="#6B6B6B" d="M1170.9,215.9c0-0.7,0.7-1.5,1.5-1.5l0,0c0.7,0,1.5,0.7,1.5,1.5l0,0c0,0.7-0.7,1.5-1.5,1.5l0,0
			C1171.6,217.4,1170.9,216.6,1170.9,215.9z M1170.9,210.6c0-0.7,0.7-1.5,1.5-1.5l0,0c0.7,0,1.5,0.7,1.5,1.5l0,0
			c0,0.7-0.7,1.5-1.5,1.5l0,0C1171.6,212,1170.9,211.3,1170.9,210.6z M1170.9,205c0-0.7,0.7-1.5,1.5-1.5l0,0c0.7,0,1.5,0.7,1.5,1.5
			l0,0c0,0.7-0.7,1.5-1.5,1.5l0,0C1171.6,206.7,1170.9,206,1170.9,205z M1170.9,199.7c0-0.7,0.7-1.5,1.5-1.5l0,0
			c0.7,0,1.5,0.7,1.5,1.5l0,0c0,0.7-0.7,1.5-1.5,1.5l0,0C1171.6,201.1,1170.9,200.7,1170.9,199.7z M1170.9,194.4
			c0-0.7,0.7-1.5,1.5-1.5l0,0c0.7,0,1.5,0.7,1.5,1.5l0,0c0,0.7-0.7,1.5-1.5,1.5l0,0C1171.6,195.8,1170.9,195.1,1170.9,194.4z"/>
		<path fill="#6B6B6B" d="M1172.3,222.7c-0.5,0-0.7-0.2-1-0.5c-0.3-0.3-0.5-0.7-0.5-1c0-0.5,0.2-0.7,0.5-1c0.5-0.5,1.7-0.5,2.2,0
			c0.2,0.2,0.5,0.7,0.5,1c0,0.5-0.2,0.7-0.5,1C1173.3,222.7,1172.8,222.7,1172.3,222.7z"/>
	</g>
	<g>
		<path fill="#6B6B6B" d="M1172.3,222.7c-0.5,0-0.7-0.2-1-0.5c-0.3-0.3-0.5-0.7-0.5-1c0-0.5,0.2-0.7,0.5-1c0.5-0.5,1.7-0.5,2.2,0
			c0.2,0.2,0.5,0.7,0.5,1c0,0.5-0.2,0.7-0.5,1C1173.1,222.7,1172.6,222.7,1172.3,222.7z"/>
		<path fill="#6B6B6B" d="M1167.5,218.6c-0.5-0.5-0.5-1.5,0-2.2l0,0c0.5-0.5,1.5-0.5,2.2,0l0,0c0.5,0.5,0.5,1.5,0,2.2l0,0
			c-0.2,0.2-0.7,0.5-1,0.5l0,0C1168.2,219.1,1167.7,218.8,1167.5,218.6z"/>
		<path fill="#6B6B6B" d="M1164.8,215.4c-0.5,0-0.7-0.2-1-0.5c-0.2-0.2-0.5-0.7-0.5-1c0-0.5,0.2-0.7,0.5-1c0.5-0.5,1.7-0.5,2.2,0
			c0.2,0.2,0.5,0.7,0.5,1c0,0.5-0.2,0.7-0.5,1C1165.6,215.2,1165.3,215.4,1164.8,215.4z"/>
	</g>
	<g>
		<path fill="#6B6B6B" d="M1172.6,222.5c-0.5,0-0.7-0.2-1-0.5c-0.2-0.2-0.5-0.7-0.5-1c0-0.5,0.2-0.7,0.5-1c0.5-0.5,1.7-0.5,2.2,0
			c0.2,0.2,0.2,0.5,0.2,1s-0.2,0.7-0.5,1C1173.3,222.5,1173.1,222.5,1172.6,222.5z"/>
		<path fill="#6B6B6B" d="M1175.3,218.3c-0.5-0.5-0.5-1.5,0-2.2l0,0c0.5-0.5,1.5-0.5,2.2,0l0,0c0.5,0.5,0.5,1.5,0,2.2l0,0
			c-0.2,0.2-0.7,0.5-1,0.5l0,0C1176,218.8,1175.5,218.6,1175.3,218.3z"/>
		<path fill="#6B6B6B" d="M1180.1,215.2c-0.5,0-0.7-0.2-1-0.5s-0.5-0.7-0.5-1c0-0.5,0.2-0.7,0.5-1c0.5-0.5,1.7-0.5,2.2,0
			c0.2,0.2,0.5,0.7,0.5,1c0,0.5-0.2,0.7-0.5,1C1180.8,214.9,1180.3,215.2,1180.1,215.2z"/>
	</g>
</g>
<g>
	<g>
		<path fill="#6B6B6B" d="M1251.5,190.7c-0.5,0-0.7-0.2-1-0.5s-0.5-0.7-0.5-1c0-0.5,0.2-0.7,0.5-1c0.5-0.5,1.7-0.5,2.2,0
			c0.2,0.2,0.5,0.7,0.5,1c0,0.5-0.2,0.7-0.5,1C1252.2,190.7,1252,190.7,1251.5,190.7z"/>
		<path fill="#6B6B6B" d="M1250,208.7c0-0.7,0.7-1.5,1.5-1.5l0,0c0.7,0,1.5,0.7,1.5,1.5l0,0c0,0.7-0.7,1.5-1.5,1.5l0,0
			C1250.8,210.1,1250,209.4,1250,208.7z M1250,203.8c0-0.7,0.7-1.5,1.5-1.5l0,0c0.7,0,1.5,0.7,1.5,1.5l0,0c0,0.7-0.7,1.5-1.5,1.5
			l0,0C1250.8,205.3,1250,204.5,1250,203.8z M1250,199c0-0.7,0.7-1.5,1.5-1.5l0,0c0.7,0,1.5,0.7,1.5,1.5l0,0c0,0.7-0.7,1.5-1.5,1.5
			l0,0C1250.8,200.4,1250,199.7,1250,199z M1250,194.1c0-0.7,0.7-1.5,1.5-1.5l0,0c0.7,0,1.5,0.7,1.5,1.5l0,0c0,0.7-0.7,1.5-1.5,1.5
			l0,0C1250.8,195.6,1250,194.9,1250,194.1z"/>
		<path fill="#6B6B6B" d="M1251.5,214.9c-0.5,0-0.7-0.2-1-0.5s-0.5-0.7-0.5-1c0-0.5,0.2-0.7,0.5-1c0.5-0.5,1.7-0.5,2.2,0
			c0.2,0.2,0.5,0.7,0.5,1c0,0.5-0.2,0.7-0.5,1C1252.2,214.7,1252,214.9,1251.5,214.9z"/>
	</g>
	<g>
		<path fill="#6B6B6B" d="M1251.3,214.9c-0.5,0-0.7-0.2-1-0.5c-0.2-0.2-0.5-0.7-0.5-1c0-0.5,0.2-0.7,0.5-1c0.5-0.5,1.7-0.5,2.2,0
			c0.2,0.2,0.5,0.7,0.5,1c0,0.5-0.2,0.7-0.5,1S1251.7,214.9,1251.3,214.9z"/>
		<path fill="#6B6B6B" d="M1246.7,210.8c-0.5-0.5-0.5-1.5,0-2.2l0,0c0.5-0.5,1.5-0.5,2.2,0l0,0c0.5,0.5,0.5,1.5,0,2.2l0,0
			c-0.2,0.2-0.7,0.5-1,0.5l0,0C1247.4,211.3,1246.9,211.1,1246.7,210.8z"/>
		<path fill="#6B6B6B" d="M1244,207.4c-0.5,0-0.7-0.2-1-0.5c-0.2-0.2-0.5-0.7-0.5-1c0-0.5,0.2-0.7,0.5-1c0.5-0.5,1.7-0.5,2.2,0
			c0.2,0.2,0.5,0.7,0.5,1c0,0.5-0.2,0.7-0.5,1C1244.7,207.4,1244.2,207.4,1244,207.4z"/>
	</g>
	<g>
		<path fill="#6B6B6B" d="M1251.7,214.7c-0.5,0-0.7-0.2-1-0.5c-0.2-0.2-0.5-0.7-0.5-1c0-0.5,0.2-0.7,0.5-1c0.5-0.5,1.7-0.5,2.2,0
			c0.2,0.2,0.5,0.7,0.5,1c0,0.5-0.2,0.7-0.5,1C1252.5,214.5,1252,214.7,1251.7,214.7z"/>
		<path fill="#6B6B6B" d="M1254.4,210.6c-0.5-0.5-0.5-1.5,0-2.2l0,0c0.5-0.5,1.5-0.5,2.2,0l0,0c0.5,0.5,0.5,1.5,0,2.2l0,0
			c-0.2,0.2-0.7,0.5-1,0.5l0,0C1255.1,211.1,1254.6,210.8,1254.4,210.6z"/>
		<path fill="#6B6B6B" d="M1259,207.2c-0.5,0-0.7-0.2-1-0.5s-0.5-0.7-0.5-1c0-0.5,0.2-0.7,0.5-1c0.5-0.5,1.7-0.5,2.2,0
			c0.2,0.2,0.5,0.7,0.5,1c0,0.5-0.2,0.7-0.5,1C1260,207.2,1259.5,207.2,1259,207.2z"/>
	</g>
</g>
<g>
	<path fill="#6B6B6B" d="M1251.7,190.7c-0.5,0-0.7-0.2-1-0.5c-0.3-0.3-0.5-0.7-0.5-1c0-0.5,0.2-0.7,0.5-1c0.5-0.5,1.7-0.5,2.2,0
		c0.2,0.2,0.5,0.7,0.5,1c0,0.5-0.2,0.7-0.5,1C1252.5,190.7,1252,190.7,1251.7,190.7z"/>
	<path fill="#6B6B6B" d="M1245.2,189.3c0-0.7,0.7-1.5,1.5-1.5l0,0c0.7,0,1.5,0.7,1.5,1.5l0,0c0,0.7-0.7,1.5-1.5,1.5l0,0
		C1245.9,190.7,1245.2,190,1245.2,189.3z M1240.1,189.3c0-0.7,0.7-1.5,1.5-1.5l0,0c0.7,0,1.5,0.7,1.5,1.5l0,0c0,0.7-0.7,1.5-1.5,1.5
		l0,0C1240.8,190.7,1240.1,190,1240.1,189.3z M1235.3,189.3c0-0.7,0.7-1.5,1.5-1.5l0,0c0.7,0,1.5,0.7,1.5,1.5l0,0
		c0,0.7-0.7,1.5-1.5,1.5l0,0C1235.8,190.7,1235.3,190,1235.3,189.3z M1230.2,189.3c0-0.7,0.7-1.5,1.5-1.5l0,0c0.7,0,1.5,0.7,1.5,1.5
		l0,0c0,0.7-0.7,1.5-1.5,1.5l0,0C1230.9,190.7,1230.2,190,1230.2,189.3z M1225.1,189.3c0-0.7,0.7-1.5,1.5-1.5l0,0
		c0.7,0,1.5,0.7,1.5,1.5l0,0c0,0.7-0.7,1.5-1.5,1.5l0,0C1225.8,190.7,1225.1,190,1225.1,189.3z M1220.3,189.3c0-0.7,0.7-1.5,1.5-1.5
		l0,0c0.7,0,1.5,0.7,1.5,1.5l0,0c0,0.7-0.7,1.5-1.5,1.5l0,0C1221,190.7,1220.3,190,1220.3,189.3z M1215.2,189.3
		c0-0.7,0.7-1.5,1.5-1.5l0,0c0.7,0,1.5,0.7,1.5,1.5l0,0c0,0.7-0.7,1.5-1.5,1.5l0,0C1215.9,190.7,1215.2,190,1215.2,189.3z
		 M1210.4,189.3c0-0.7,0.7-1.5,1.5-1.5l0,0c0.7,0,1.5,0.7,1.5,1.5l0,0c0,0.7-0.7,1.5-1.5,1.5l0,0
		C1210.8,190.7,1210.4,190,1210.4,189.3z M1205.3,189.3c0-0.7,0.7-1.5,1.5-1.5l0,0c0.7,0,1.5,0.7,1.5,1.5l0,0c0,0.7-0.7,1.5-1.5,1.5
		l0,0C1206,190.7,1205.3,190,1205.3,189.3z M1200.2,189.3c0-0.7,0.7-1.5,1.5-1.5l0,0c0.7,0,1.5,0.7,1.5,1.5l0,0
		c0,0.7-0.7,1.5-1.5,1.5l0,0C1200.9,190.7,1200.2,190,1200.2,189.3z M1195.3,189.3c0-0.7,0.7-1.5,1.5-1.5l0,0c0.7,0,1.5,0.7,1.5,1.5
		l0,0c0,0.7-0.7,1.5-1.5,1.5l0,0C1195.8,190.7,1195.3,190,1195.3,189.3z M1190.3,189.3c0-0.7,0.7-1.5,1.5-1.5l0,0
		c0.7,0,1.5,0.7,1.5,1.5l0,0c0,0.7-0.7,1.5-1.5,1.5l0,0C1191,190.7,1190.3,190,1190.3,189.3z M1185.2,189.3c0-0.7,0.7-1.5,1.5-1.5
		l0,0c0.7,0,1.5,0.7,1.5,1.5l0,0c0,0.7-0.7,1.5-1.5,1.5l0,0C1185.9,190.7,1185.2,190,1185.2,189.3z M1180.3,189.3
		c0-0.7,0.7-1.5,1.5-1.5l0,0c0.7,0,1.5,0.7,1.5,1.5l0,0c0,0.7-0.7,1.5-1.5,1.5l0,0C1181.1,190.7,1180.3,190,1180.3,189.3z
		 M1175.3,189.3c0-0.7,0.7-1.5,1.5-1.5l0,0c0.7,0,1.5,0.7,1.5,1.5l0,0c0,0.7-0.7,1.5-1.5,1.5l0,0
		C1176,190.7,1175.3,190,1175.3,189.3z M1170.4,189.3c0-0.7,0.7-1.5,1.5-1.5l0,0c0.7,0,1.5,0.7,1.5,1.5l0,0c0,0.7-0.7,1.5-1.5,1.5
		l0,0C1170.9,190.7,1170.4,190,1170.4,189.3z M1165.3,189.3c0-0.7,0.7-1.5,1.5-1.5l0,0c0.7,0,1.5,0.7,1.5,1.5l0,0
		c0,0.7-0.7,1.5-1.5,1.5l0,0C1166.1,190.7,1165.3,190,1165.3,189.3z M1160.2,189.3c0-0.7,0.7-1.5,1.5-1.5l0,0c0.7,0,1.5,0.7,1.5,1.5
		l0,0c0,0.7-0.7,1.5-1.5,1.5l0,0C1161,190.7,1160.2,190,1160.2,189.3z M1155.4,189.3c0-0.7,0.7-1.5,1.5-1.5l0,0
		c0.7,0,1.5,0.7,1.5,1.5l0,0c0,0.7-0.7,1.5-1.5,1.5l0,0C1155.9,190.7,1155.4,190,1155.4,189.3z M1150.3,189.3c0-0.7,0.7-1.5,1.5-1.5
		l0,0c0.7,0,1.5,0.7,1.5,1.5l0,0c0,0.7-0.7,1.5-1.5,1.5l0,0C1151,190.7,1150.3,190,1150.3,189.3z M1145.2,189.3
		c0-0.7,0.7-1.5,1.5-1.5l0,0c0.7,0,1.5,0.7,1.5,1.5l0,0c0,0.7-0.7,1.5-1.5,1.5l0,0C1146,190.7,1145.2,190,1145.2,189.3z
		 M1140.4,189.3c0-0.7,0.7-1.5,1.5-1.5l0,0c0.7,0,1.5,0.7,1.5,1.5l0,0c0,0.7-0.7,1.5-1.5,1.5l0,0
		C1141.1,190.7,1140.4,190,1140.4,189.3z M1135.3,189.3c0-0.7,0.7-1.5,1.5-1.5l0,0c0.7,0,1.5,0.7,1.5,1.5l0,0c0,0.7-0.7,1.5-1.5,1.5
		l0,0C1136,190.7,1135.3,190,1135.3,189.3z M1130.5,189.3c0-0.7,0.7-1.5,1.5-1.5l0,0c0.7,0,1.5,0.7,1.5,1.5l0,0
		c0,0.7-0.7,1.5-1.5,1.5l0,0C1131,190.7,1130.5,190,1130.5,189.3z M1125.4,189.3c0-0.7,0.7-1.5,1.5-1.5l0,0c0.7,0,1.5,0.7,1.5,1.5
		l0,0c0,0.7-0.7,1.5-1.5,1.5l0,0C1126.1,190.7,1125.4,190,1125.4,189.3z M1120.3,189.3c0-0.7,0.7-1.5,1.5-1.5l0,0
		c0.7,0,1.5,0.7,1.5,1.5l0,0c0,0.7-0.7,1.5-1.5,1.5l0,0C1121,190.7,1120.3,190,1120.3,189.3z M1115.5,189.3c0-0.7,0.7-1.5,1.5-1.5
		l0,0c0.7,0,1.5,0.7,1.5,1.5l0,0c0,0.7-0.7,1.5-1.5,1.5l0,0C1115.9,190.7,1115.5,190,1115.5,189.3z M1110.4,189.3
		c0-0.7,0.7-1.5,1.5-1.5l0,0c0.7,0,1.5,0.7,1.5,1.5l0,0c0,0.7-0.7,1.5-1.5,1.5l0,0C1111.1,190.7,1110.4,190,1110.4,189.3z
		 M1105.3,189.3c0-0.7,0.7-1.5,1.5-1.5l0,0c0.7,0,1.5,0.7,1.5,1.5l0,0c0,0.7-0.7,1.5-1.5,1.5l0,0
		C1106,190.7,1105.3,190,1105.3,189.3z M1100.5,189.3c0-0.7,0.7-1.5,1.5-1.5l0,0c0.7,0,1.5,0.7,1.5,1.5l0,0c0,0.7-0.7,1.5-1.5,1.5
		l0,0C1101.2,190.7,1100.5,190,1100.5,189.3z"/>
	<path fill="#6B6B6B" d="M1096.8,190.7c-0.5,0-0.7-0.2-1-0.5c-0.2-0.2-0.5-0.7-0.5-1c0-0.5,0.2-0.7,0.5-1c0.5-0.5,1.7-0.5,2.2,0
		c0.2,0.2,0.5,0.7,0.5,1c0,0.5-0.2,0.7-0.5,1C1097.8,190.7,1097.3,190.7,1096.8,190.7z"/>
</g>
<g>
	<path fill="#6B6B6B" d="M1172.3,166.5c-0.5,0-0.7-0.2-1-0.5c-0.3-0.3-0.5-0.7-0.5-1c0-0.5,0.2-0.7,0.5-1c0.5-0.5,1.7-0.5,2.2,0
		c0.2,0.2,0.5,0.7,0.5,1c0,0.5-0.2,0.7-0.5,1C1173.1,166.5,1172.6,166.5,1172.3,166.5z"/>
	<path fill="#6B6B6B" d="M1170.7,184.4c0-0.7,0.7-1.5,1.5-1.5l0,0c0.7,0,1.5,0.7,1.5,1.5l0,0c0,0.7-0.7,1.5-1.5,1.5l0,0
		C1171.4,185.9,1170.7,185.2,1170.7,184.4z M1170.7,179.6c0-0.7,0.7-1.5,1.5-1.5l0,0c0.7,0,1.5,0.7,1.5,1.5l0,0
		c0,0.7-0.7,1.5-1.5,1.5l0,0C1171.4,181.1,1170.7,180.3,1170.7,179.6z M1170.7,174.8c0-0.7,0.7-1.5,1.5-1.5l0,0
		c0.7,0,1.5,0.7,1.5,1.5l0,0c0,0.7-0.7,1.5-1.5,1.5l0,0C1171.4,176.2,1170.7,175.5,1170.7,174.8z M1170.7,169.9
		c0-0.7,0.7-1.5,1.5-1.5l0,0c0.7,0,1.5,0.7,1.5,1.5l0,0c0,0.7-0.7,1.5-1.5,1.5l0,0C1171.4,171.4,1170.7,170.9,1170.7,169.9z"/>
	<path fill="#6B6B6B" d="M1172.3,190.7c-0.5,0-0.7-0.2-1-0.5c-0.3-0.3-0.5-0.7-0.5-1c0-0.5,0.2-0.7,0.5-1c0.5-0.5,1.7-0.5,2.2,0
		c0.2,0.2,0.5,0.7,0.5,1c0,0.5-0.2,0.7-0.5,1C1173.1,190.7,1172.6,190.7,1172.3,190.7z"/>
</g>
<g>
	<g>
		<path fill="#47A04D" d="M1146.9,396h12.1l5.6,10.4l-3.1-1.7l-3.9,6.8c-11.1,0.2-10.7-6.3-10.7-6.3l3.6-6.5L1146.9,396z"/>
		<path fill="#47A04D" d="M1169.4,412.7v12.6h-9.9c-4.1-0.7-4.6-2.4-4.6-2.4l-7-12.8c2.4,2.4,5.3,2.4,5.6,2.7
			C1153.7,413,1169,412.7,1169.4,412.7z"/>
		<path fill="#47A04D" d="M1178.9,409.1l-5.6,10.2l5.6,10.4v-4.1h6.3c4.1-0.7,4.8-4.1,4.8-4.1l6.1-11.1c0,0-1.9,2.9-7.5,2.9
			s-9.4,0-9.4,0L1178.9,409.1z"/>
		<path fill="#47A04D" d="M1192,395.8l-10.7,6.5l5.1,9.7c0,0,8.2,0.7,10.4-4.6v-1.7C1197.3,406.4,1192,395.8,1192,395.8z"/>
		<path fill="#47A04D" d="M1173.1,395.5h11.6l6.5-10.2l-3.6,1.9l-2.9-5.6c-2.9-2.7-5.8-2.2-5.8-2.2h-13.1c0,0,3.6,0.5,6.3,5.6
			s4.4,8.2,4.4,8.2L1173.1,395.5z"/>
		<path fill="#47A04D" d="M1155.2,390l10.9,6.5l6.1-9.2c0,0-3.1-7.7-9-7.3l-1.5,0.7C1161.9,380,1155.2,390,1155.2,390z"/>
	</g>
</g>
<g>
	<g>
		<path fill="#6B6B6B" d="M1171.1,344c-0.5,0-0.7-0.2-1-0.5c-0.2-0.2-0.5-0.7-0.5-1c0-0.5,0.2-0.7,0.5-1c0.5-0.5,1.7-0.5,2.2,0
			c0.2,0.2,0.5,0.7,0.5,1c0,0.5-0.2,0.7-0.5,1C1172,343.8,1171.6,344,1171.1,344z"/>
		<path fill="#6B6B6B" d="M1169.7,361.9c0-0.7,0.7-1.5,1.5-1.5l0,0c0.7,0,1.5,0.7,1.5,1.5l0,0c0,0.7-0.7,1.5-1.5,1.5l0,0
			C1170.4,363.3,1169.7,362.6,1169.7,361.9z M1169.7,357c0-0.7,0.7-1.5,1.5-1.5l0,0c0.7,0,1.5,0.7,1.5,1.5l0,0
			c0,0.7-0.7,1.5-1.5,1.5l0,0C1170.4,358.5,1169.7,357.8,1169.7,357z M1169.7,352.2c0-0.7,0.7-1.5,1.5-1.5l0,0
			c0.7,0,1.5,0.7,1.5,1.5l0,0c0,0.7-0.7,1.5-1.5,1.5l0,0C1170.4,353.6,1169.7,352.9,1169.7,352.2z M1169.7,347.4
			c0-0.7,0.7-1.5,1.5-1.5l0,0c0.7,0,1.5,0.7,1.5,1.5l0,0c0,0.7-0.7,1.5-1.5,1.5l0,0C1170.4,348.8,1169.7,348.1,1169.7,347.4z"/>
		<path fill="#6B6B6B" d="M1171.1,368.2c-0.5,0-0.7-0.2-1-0.5c-0.2-0.2-0.5-0.7-0.5-1c0-0.5,0.2-0.7,0.5-1c0.5-0.5,1.7-0.5,2.2,0
			c0.2,0.2,0.5,0.7,0.5,1c0,0.5-0.2,0.7-0.5,1C1172,368,1171.6,368.2,1171.1,368.2z"/>
	</g>
	<g>
		<path fill="#6B6B6B" d="M1171.1,368.2c-0.5,0-0.7-0.2-1-0.5c-0.2-0.2-0.5-0.7-0.5-1c0-0.5,0.2-0.7,0.5-1c0.5-0.5,1.7-0.5,2.2,0
			c0.2,0.2,0.5,0.7,0.5,1c0,0.5-0.2,0.7-0.5,1C1171.9,367.9,1171.4,368.2,1171.1,368.2z"/>
		<path fill="#6B6B6B" d="M1166.3,364.1c-0.5-0.5-0.5-1.5,0-2.2l0,0c0.5-0.5,1.5-0.5,2.2,0l0,0c0.5,0.5,0.5,1.5,0,2.2l0,0
			c-0.2,0.2-0.7,0.5-1,0.5l0,0C1167,364.3,1166.5,364.3,1166.3,364.1z"/>
		<path fill="#6B6B6B" d="M1163.6,360.7c-0.5,0-0.7-0.2-1-0.5c-0.2-0.2-0.5-0.7-0.5-1c0-0.5,0.2-0.7,0.5-1c0.5-0.5,1.7-0.5,2.2,0
			c0.2,0.2,0.5,0.7,0.5,1c0,0.5-0.2,0.7-0.5,1C1164.4,360.4,1164.1,360.7,1163.6,360.7z"/>
	</g>
	<g>
		<path fill="#6B6B6B" d="M1171.4,367.9c-0.5,0-0.7-0.2-1-0.5c-0.2-0.2-0.5-0.7-0.5-1c0-0.5,0.2-0.7,0.5-1c0.5-0.5,1.7-0.5,2.2,0
			c0.2,0.2,0.5,0.7,0.5,1c0,0.5-0.2,0.7-0.5,1C1172.1,367.7,1171.9,367.9,1171.4,367.9z"/>
		<path fill="#6B6B6B" d="M1174,363.6c-0.5-0.5-0.5-1.5,0-2.2l0,0c0.5-0.5,1.5-0.5,2.2,0l0,0c0.5,0.5,0.5,1.5,0,2.2l0,0
			c-0.2,0.2-0.7,0.5-1,0.5l0,0C1174.8,364.1,1174.3,364.1,1174,363.6z"/>
		<path fill="#6B6B6B" d="M1178.9,360.4c-0.5,0-0.7-0.2-1-0.5c-0.2-0.2-0.5-0.7-0.5-1c0-0.5,0.2-0.7,0.5-1c0.5-0.5,1.7-0.5,2.2,0
			c0.2,0.2,0.5,0.7,0.5,1c0,0.5-0.2,0.7-0.5,1C1179.6,360.2,1179.1,360.4,1178.9,360.4z"/>
	</g>
</g>
<g>
	<path fill="#6B6B6B" d="M1250.3,344c-0.5,0-0.7-0.2-1-0.5c-0.2-0.2-0.5-0.7-0.5-1c0-0.5,0.2-0.7,0.5-1c0.5-0.5,1.7-0.5,2.2,0
		c0.2,0.2,0.5,0.7,0.5,1c0,0.5-0.2,0.7-0.5,1C1251,343.7,1250.5,344,1250.3,344z"/>
	<path fill="#6B6B6B" d="M1243.8,342.5c0-0.7,0.7-1.5,1.5-1.5l0,0c0.7,0,1.5,0.7,1.5,1.5l0,0c0,0.7-0.7,1.5-1.5,1.5l0,0
		C1244.5,344,1243.8,343.2,1243.8,342.5z M1238.9,342.5c0-0.7,0.7-1.5,1.5-1.5l0,0c0.7,0,1.5,0.7,1.5,1.5l0,0c0,0.7-0.7,1.5-1.5,1.5
		l0,0C1239.6,344,1238.9,343.2,1238.9,342.5z M1233.8,342.5c0-0.7,0.7-1.5,1.5-1.5l0,0c0.7,0,1.5,0.7,1.5,1.5l0,0
		c0,0.7-0.7,1.5-1.5,1.5l0,0C1234.6,344,1233.8,343.2,1233.8,342.5z M1229,342.5c0-0.7,0.7-1.5,1.5-1.5l0,0c0.7,0,1.5,0.7,1.5,1.5
		l0,0c0,0.7-0.7,1.5-1.5,1.5l0,0C1229.7,344,1229,343.2,1229,342.5z M1224.1,342.5c0-0.7,0.7-1.5,1.5-1.5l0,0c0.7,0,1.5,0.7,1.5,1.5
		l0,0c0,0.7-0.7,1.5-1.5,1.5l0,0C1224.6,344,1224.1,343.2,1224.1,342.5z M1219.1,342.5c0-0.7,0.7-1.5,1.5-1.5l0,0
		c0.7,0,1.5,0.7,1.5,1.5l0,0c0,0.7-0.7,1.5-1.5,1.5l0,0C1219.8,344,1219.1,343.2,1219.1,342.5z M1214.2,342.5c0-0.7,0.7-1.5,1.5-1.5
		l0,0c0.7,0,1.5,0.7,1.5,1.5l0,0c0,0.7-0.7,1.5-1.5,1.5l0,0C1214.9,344,1214.2,343.2,1214.2,342.5z M1209.1,342.5
		c0-0.7,0.7-1.5,1.5-1.5l0,0c0.7,0,1.5,0.7,1.5,1.5l0,0c0,0.7-0.7,1.5-1.5,1.5l0,0C1209.9,344,1209.1,343.2,1209.1,342.5z
		 M1204.3,342.5c0-0.7,0.7-1.5,1.5-1.5l0,0c0.7,0,1.5,0.7,1.5,1.5l0,0c0,0.7-0.7,1.5-1.5,1.5l0,0
		C1205,344,1204.3,343.2,1204.3,342.5z M1199.5,342.5c0-0.7,0.7-1.5,1.5-1.5l0,0c0.7,0,1.5,0.7,1.5,1.5l0,0c0,0.7-0.7,1.5-1.5,1.5
		l0,0C1199.9,344,1199.5,343.2,1199.5,342.5z M1194.4,342.5c0-0.7,0.7-1.5,1.5-1.5l0,0c0.7,0,1.5,0.7,1.5,1.5l0,0
		c0,0.7-0.7,1.5-1.5,1.5l0,0C1195.1,344,1194.4,343.2,1194.4,342.5z M1189.5,342.5c0-0.7,0.7-1.5,1.5-1.5l0,0c0.7,0,1.5,0.7,1.5,1.5
		l0,0c0,0.7-0.7,1.5-1.5,1.5l0,0C1190.3,344,1189.5,343.2,1189.5,342.5z M1184.5,342.5c0-0.7,0.7-1.5,1.5-1.5l0,0
		c0.7,0,1.5,0.7,1.5,1.5l0,0c0,0.7-0.7,1.5-1.5,1.5l0,0C1185.2,344,1184.5,343.2,1184.5,342.5z M1179.6,342.5c0-0.7,0.7-1.5,1.5-1.5
		l0,0c0.7,0,1.5,0.7,1.5,1.5l0,0c0,0.7-0.7,1.5-1.5,1.5l0,0C1180.3,344,1179.6,343.2,1179.6,342.5z M1174.8,342.5
		c0-0.7,0.7-1.5,1.5-1.5l0,0c0.7,0,1.5,0.7,1.5,1.5l0,0c0,0.7-0.7,1.5-1.5,1.5l0,0C1175.3,344,1174.8,343.2,1174.8,342.5z"/>
	<path fill="#6B6B6B" d="M1171.1,344c-0.5,0-0.7-0.2-1-0.5c-0.2-0.2-0.5-0.7-0.5-1c0-0.5,0.2-0.7,0.5-1c0.5-0.5,1.7-0.5,2.2,0
		c0.2,0.2,0.5,0.7,0.5,1c0,0.5-0.2,0.7-0.5,1C1172,343.8,1171.6,344,1171.1,344z"/>
</g>
<g>
	<g>
		<path fill="#6B6B6B" d="M1171.4,344c-0.5,0-0.7-0.2-1-0.5c-0.2-0.2-0.5-0.7-0.5-1c0-0.5,0.2-0.7,0.5-1c0.5-0.5,1.7-0.5,2.2,0
			c0.2,0.2,0.5,0.7,0.5,1c0,0.5-0.2,0.7-0.5,1C1172.1,343.7,1171.9,344,1171.4,344z"/>
		<path fill="#6B6B6B" d="M1169.9,337.7c0-0.7,0.7-1.5,1.5-1.5l0,0c0.7,0,1.5,0.7,1.5,1.5l0,0c0,0.7-0.7,1.5-1.5,1.5l0,0
			C1170.7,339.1,1169.9,338.4,1169.9,337.7z M1169.9,332.8c0-0.7,0.7-1.5,1.5-1.5l0,0c0.7,0,1.5,0.7,1.5,1.5l0,0
			c0,0.7-0.7,1.5-1.5,1.5l0,0C1170.7,334.3,1169.9,333.6,1169.9,332.8z M1169.9,328c0-0.7,0.7-1.5,1.5-1.5l0,0
			c0.7,0,1.5,0.7,1.5,1.5l0,0c0,0.7-0.7,1.5-1.5,1.5l0,0C1170.7,329.4,1169.9,328.7,1169.9,328z M1169.9,323.1
			c0-0.7,0.7-1.5,1.5-1.5l0,0c0.7,0,1.5,0.7,1.5,1.5l0,0c0,0.7-0.7,1.5-1.5,1.5l0,0C1170.7,324.6,1169.9,323.9,1169.9,323.1z"/>
		<path fill="#6B6B6B" d="M1171.4,319.8c-0.5,0-0.7-0.2-1-0.5c-0.2-0.2-0.5-0.7-0.5-1c0-0.5,0.2-0.7,0.5-1c0.5-0.5,1.5-0.5,2.2,0
			c0.2,0.2,0.5,0.7,0.5,1c0,0.5-0.2,0.7-0.5,1C1172.1,319.5,1171.9,319.8,1171.4,319.8z"/>
	</g>
</g>
<g>
	<g>
		<path fill="#6B6B6B" d="M1250.3,344.2c-0.5,0-0.7-0.2-1-0.5c-0.2-0.2-0.5-0.7-0.5-1c0-0.5,0.2-0.7,0.5-1c0.5-0.5,1.7-0.5,2.2,0
			c0.2,0.2,0.5,0.7,0.5,1c0,0.5-0.2,0.7-0.5,1C1251,344,1250.5,344.2,1250.3,344.2z"/>
		<path fill="#6B6B6B" d="M1248.8,337.4c0-0.7,0.7-1.5,1.5-1.5l0,0c0.7,0,1.5,0.7,1.5,1.5l0,0c0,0.7-0.7,1.5-1.5,1.5l0,0
			C1249.3,338.9,1248.8,338.2,1248.8,337.4z M1248.8,332.1c0-0.7,0.7-1.5,1.5-1.5l0,0c0.7,0,1.5,0.7,1.5,1.5l0,0
			c0,0.7-0.7,1.5-1.5,1.5l0,0C1249.3,333.6,1248.8,332.8,1248.8,332.1z"/>
		<path fill="#6B6B6B" d="M1250.3,328.2c-0.5,0-0.7-0.2-1-0.5c-0.2-0.2-0.5-0.7-0.5-1c0-0.5,0.2-0.7,0.5-1c0.5-0.5,1.7-0.5,2.2,0
			c0.2,0.2,0.5,0.7,0.5,1c0,0.5-0.2,0.7-0.5,1C1251,328,1250.5,328.2,1250.3,328.2z"/>
	</g>
</g>
<g>
	<g>
		<path fill="#6B6B6B" d="M1096.6,320c-0.5,0-0.7-0.2-1-0.5c-0.2-0.2-0.5-0.7-0.5-1s0.2-0.7,0.5-1c0.5-0.5,1.7-0.5,2.2,0
			c0.2,0.2,0.5,0.7,0.5,1c0,0.5-0.2,0.7-0.5,1C1097.3,320,1097.1,320,1096.6,320z"/>
		<path fill="#6B6B6B" d="M1095.1,456c0-0.7,0.7-1.5,1.5-1.5l0,0c0.7,0,1.5,0.7,1.5,1.5l0,0c0,0.7-0.7,1.5-1.5,1.5l0,0
			C1095.9,457.5,1095.1,456.8,1095.1,456z M1095.1,451c0-0.7,0.7-1.5,1.5-1.5l0,0c0.7,0,1.5,0.7,1.5,1.5l0,0c0,0.7-0.7,1.5-1.5,1.5
			l0,0C1095.9,452.4,1095.1,451.7,1095.1,451z M1095.1,445.9c0-0.7,0.7-1.5,1.5-1.5l0,0c0.7,0,1.5,0.7,1.5,1.5l0,0
			c0,0.7-0.7,1.5-1.5,1.5l0,0C1095.9,447.3,1095.1,446.6,1095.1,445.9z M1095.1,440.8c0-0.7,0.7-1.5,1.5-1.5l0,0
			c0.7,0,1.5,0.7,1.5,1.5l0,0c0,0.7-0.7,1.5-1.5,1.5l0,0C1095.9,442.2,1095.1,441.5,1095.1,440.8z M1095.1,435.7
			c0-0.7,0.7-1.5,1.5-1.5l0,0c0.7,0,1.5,0.7,1.5,1.5l0,0c0,0.7-0.7,1.5-1.5,1.5l0,0C1095.9,437.2,1095.1,436.4,1095.1,435.7z
			 M1095.1,430.6c0-0.7,0.7-1.5,1.5-1.5l0,0c0.7,0,1.5,0.7,1.5,1.5l0,0c0,0.7-0.7,1.5-1.5,1.5l0,0
			C1095.9,432.1,1095.1,431.3,1095.1,430.6z M1095.1,425.5c0-0.7,0.7-1.5,1.5-1.5l0,0c0.7,0,1.5,0.7,1.5,1.5l0,0
			c0,0.7-0.7,1.5-1.5,1.5l0,0C1095.9,427,1095.1,426.3,1095.1,425.5z M1095.1,420.5c0-0.7,0.7-1.5,1.5-1.5l0,0
			c0.7,0,1.5,0.7,1.5,1.5l0,0c0,0.7-0.7,1.5-1.5,1.5l0,0C1095.9,421.9,1095.1,421.2,1095.1,420.5z M1095.1,415.4
			c0-0.7,0.7-1.5,1.5-1.5l0,0c0.7,0,1.5,0.7,1.5,1.5l0,0c0,0.7-0.7,1.5-1.5,1.5l0,0C1095.9,416.8,1095.1,416.1,1095.1,415.4z
			 M1095.1,410.3c0-0.7,0.7-1.5,1.5-1.5l0,0c0.7,0,1.5,0.7,1.5,1.5l0,0c0,0.7-0.7,1.5-1.5,1.5l0,0
			C1095.9,411.7,1095.1,411,1095.1,410.3z M1095.1,405.2c0-0.7,0.7-1.5,1.5-1.5l0,0c0.7,0,1.5,0.7,1.5,1.5l0,0
			c0,0.7-0.7,1.5-1.5,1.5l0,0C1095.9,406.7,1095.1,405.9,1095.1,405.2z M1095.1,400.1c0-0.7,0.7-1.5,1.5-1.5l0,0
			c0.7,0,1.5,0.7,1.5,1.5l0,0c0,0.7-0.7,1.5-1.5,1.5l0,0C1095.9,401.6,1095.1,400.8,1095.1,400.1z M1095.1,395
			c0-0.7,0.7-1.5,1.5-1.5l0,0c0.7,0,1.5,0.7,1.5,1.5l0,0c0,0.7-0.7,1.5-1.5,1.5l0,0C1095.9,396.5,1095.1,395.8,1095.1,395z
			 M1095.1,390c0-0.7,0.7-1.5,1.5-1.5l0,0c0.7,0,1.5,0.7,1.5,1.5l0,0c0,0.7-0.7,1.5-1.5,1.5l0,0
			C1095.9,391.4,1095.1,390.7,1095.1,390z M1095.1,384.6c0-0.7,0.7-1.5,1.5-1.5l0,0c0.7,0,1.5,0.7,1.5,1.5l0,0
			c0,0.7-0.7,1.5-1.5,1.5l0,0C1095.9,386.3,1095.1,385.6,1095.1,384.6z M1095.1,379.5c0-0.7,0.7-1.5,1.5-1.5l0,0
			c0.7,0,1.5,0.7,1.5,1.5l0,0c0,0.7-0.7,1.5-1.5,1.5l0,0C1095.9,381.2,1095.1,380.5,1095.1,379.5z M1095.1,374.5
			c0-0.7,0.7-1.5,1.5-1.5l0,0c0.7,0,1.5,0.7,1.5,1.5l0,0c0,0.7-0.7,1.5-1.5,1.5l0,0C1095.9,376.2,1095.1,375.4,1095.1,374.5z
			 M1095.1,369.4c0-0.7,0.7-1.5,1.5-1.5l0,0c0.7,0,1.5,0.7,1.5,1.5l0,0c0,0.7-0.7,1.5-1.5,1.5l0,0
			C1095.9,371.1,1095.1,370.3,1095.1,369.4z M1095.1,364.3c0-0.7,0.7-1.5,1.5-1.5l0,0c0.7,0,1.5,0.7,1.5,1.5l0,0
			c0,0.7-0.7,1.5-1.5,1.5l0,0C1095.9,366,1095.1,365.3,1095.1,364.3z M1095.1,359.2c0-0.7,0.7-1.5,1.5-1.5l0,0
			c0.7,0,1.5,0.7,1.5,1.5l0,0c0,0.7-0.7,1.5-1.5,1.5l0,0C1095.9,360.9,1095.1,360.2,1095.1,359.2z M1095.1,354.1
			c0-0.7,0.7-1.5,1.5-1.5l0,0c0.7,0,1.5,0.7,1.5,1.5l0,0c0,0.7-0.7,1.5-1.5,1.5l0,0C1095.9,355.8,1095.1,355.1,1095.1,354.1z
			 M1095.1,349c0-0.7,0.7-1.5,1.5-1.5l0,0c0.7,0,1.5,0.7,1.5,1.5l0,0c0,0.7-0.7,1.5-1.5,1.5l0,0C1095.9,350.5,1095.1,350,1095.1,349
			z M1095.1,344c0-0.7,0.7-1.5,1.5-1.5l0,0c0.7,0,1.5,0.7,1.5,1.5l0,0c0,0.7-0.7,1.5-1.5,1.5l0,0
			C1095.9,345.4,1095.1,344.9,1095.1,344z M1095.1,338.9c0-0.7,0.7-1.5,1.5-1.5l0,0c0.7,0,1.5,0.7,1.5,1.5l0,0
			c0,0.7-0.7,1.5-1.5,1.5l0,0C1095.9,340.3,1095.1,339.8,1095.1,338.9z M1095.1,333.8c0-0.7,0.7-1.5,1.5-1.5l0,0
			c0.7,0,1.5,0.7,1.5,1.5l0,0c0,0.7-0.7,1.5-1.5,1.5l0,0C1095.9,335.2,1095.1,334.8,1095.1,333.8z M1095.1,328.7
			c0-0.7,0.7-1.5,1.5-1.5l0,0c0.7,0,1.5,0.7,1.5,1.5l0,0c0,0.7-0.7,1.5-1.5,1.5l0,0C1095.9,330.2,1095.1,329.7,1095.1,328.7z
			 M1095.1,323.6c0-0.7,0.7-1.5,1.5-1.5l0,0c0.7,0,1.5,0.7,1.5,1.5l0,0c0,0.7-0.7,1.5-1.5,1.5l0,0
			C1095.9,325.1,1095.1,324.6,1095.1,323.6z"/>
		<path fill="#6B6B6B" d="M1096.6,462.6c-0.5,0-0.7-0.2-1-0.5c-0.2-0.2-0.5-0.7-0.5-1s0.2-0.7,0.5-1c0.5-0.5,1.7-0.5,2.2,0
			c0.2,0.2,0.5,0.7,0.5,1s-0.2,0.7-0.5,1C1097.3,462.6,1097.1,462.6,1096.6,462.6z"/>
	</g>
	<g>
		<path fill="#6B6B6B" d="M1096.6,462.6c-0.5,0-0.7-0.2-1-0.5c-0.2-0.2-0.5-0.7-0.5-1c0-0.5,0.2-0.7,0.5-1c0.5-0.5,1.7-0.5,2.2,0
			c0.2,0.2,0.5,0.7,0.5,1s-0.2,0.7-0.5,1C1097.3,462.6,1096.8,462.6,1096.6,462.6z"/>
		<path fill="#6B6B6B" d="M1091.7,458.5c-0.5-0.5-0.5-1.5,0-2.2l0,0c0.5-0.5,1.5-0.5,2.2,0l0,0c0.5,0.5,0.5,1.5,0,2.2l0,0
			c-0.2,0.2-0.7,0.5-1,0.5l0,0C1092.5,458.9,1092,458.7,1091.7,458.5z"/>
		<path fill="#6B6B6B" d="M1089.1,455.3c-0.5,0-0.7-0.2-1-0.5c-0.2-0.2-0.5-0.7-0.5-1c0-0.5,0.2-0.7,0.5-1c0.5-0.5,1.7-0.5,2.2,0
			c0.2,0.2,0.5,0.7,0.5,1c0,0.5-0.2,0.7-0.5,1C1089.8,455.1,1089.6,455.3,1089.1,455.3z"/>
	</g>
	<g>
		<path fill="#6B6B6B" d="M1096.8,462.3c-0.5,0-0.7-0.2-1-0.5c-0.2-0.2-0.5-0.7-0.5-1c0-0.5,0.2-0.7,0.5-1c0.5-0.5,1.7-0.5,2.2,0
			c0.2,0.2,0.5,0.7,0.5,1c0,0.5-0.2,0.7-0.5,1C1097.6,462.3,1097.3,462.3,1096.8,462.3z"/>
		<path fill="#6B6B6B" d="M1099.5,458.2c-0.5-0.5-0.5-1.5,0-2.2l0,0c0.5-0.5,1.5-0.5,2.2,0l0,0c0.5,0.5,0.5,1.5,0,2.2l0,0
			c-0.2,0.2-0.7,0.5-1,0.5l0,0C1100.2,458.7,1099.7,458.5,1099.5,458.2z"/>
		<path fill="#6B6B6B" d="M1104.3,454.8c-0.5,0-0.7-0.2-1-0.5c-0.2-0.2-0.5-0.7-0.5-1c0-0.5,0.2-0.7,0.5-1c0.5-0.5,1.7-0.5,2.2,0
			c0.2,0.2,0.5,0.7,0.5,1c0,0.5-0.2,0.7-0.5,1C1105.1,454.8,1104.6,454.8,1104.3,454.8z"/>
	</g>
</g>
<path fill="#F2F2F2" stroke="#A8A8A8" stroke-width="0.5" stroke-miterlimit="10" d="M1191.5,551.2h-40.4c-2.2,0-3.6-1.9-3.6-4.4
	v-67c0-2.4,1.7-4.4,3.6-4.4h40.4c2.2,0,3.6,1.9,3.6,4.4V547C1195.1,549.5,1193.4,551.2,1191.5,551.2z"/>
<g>
	<rect x="1128.1" y="511" fill="#B56FAD" width="12.1" height="3.1"/>
	<rect x="1132.4" y="506.6" fill="#B56FAD" width="3.1" height="12.1"/>
</g>
<path fill="#1B00DD" d="M1092,504.9c-1.5,0-2.7-0.2-3.9-0.7c-1.5-0.5-2.4-1.7-2.7-3.1c-0.5-1.9,0.7-3.1,1.7-4.1
	c0.7-0.7,1.2-1.2,1-1.9c0-0.5-0.5-1-1-1.2c-1.2-0.2-2.4,0-3.9,0.7c-0.5,0.2-1,0.2-1.2,0.5c-2.2,0.7-4.1,0.5-5.3-0.7
	c-1.5-1.5-1.5-3.9,0-6.8c0.5-0.7,0.7-1.7,1-2.4c0-0.2,0-0.5-0.2-0.7c0,0-0.2-0.2-0.7-0.2c-1,0-2.2-0.5-2.9-1.2
	c-1-1.2-1.5-2.7-1.2-4.8c0-0.5,0.2-1.2,0.2-1.7c0.2-0.7,0.2-1.7,0.2-2.4c0-1.9-1-3.6-2.2-4.4c-1.5-1-3.4-1-4.6,0.2
	c-0.5,0.5-1,1.2-1,2.2c0,0.7,0.2,1.5,0.7,1.9c0.5,0.5,0.2,1,0,1.5c-0.5,0.5-1,0.2-1.5,0c-0.7-1-1.2-2.2-1.2-3.4
	c0-1.5,0.7-2.7,1.7-3.6c1.9-1.7,4.8-1.7,7-0.2c1.9,1.2,3.1,3.6,3.1,6.1c0,1-0.2,1.9-0.2,2.7c0,0.5-0.2,1-0.2,1.5c0,1,0,2.4,0.7,3.1
	c0.2,0.5,1,0.5,1.5,0.5l0,0c1,0,1.7,0.5,2.2,1.2s0.7,1.7,0.5,2.7c-0.2,1-0.7,1.7-1.2,2.7c-0.5,1.2-1.5,3.4-0.2,4.4
	c1,1,2.7,0.5,3.1,0.2c0.5-0.2,0.7-0.2,1.2-0.5c1.5-0.5,3.1-1.2,5.1-0.7c1.5,0.5,2.4,1.5,2.4,2.7c0.2,1.7-0.7,2.7-1.7,3.6
	c-1,1-1.2,1.5-1.2,2.2c0.2,0.7,0.7,1.2,1.5,1.7c1.2,0.5,2.4,0.7,4.1,0.5c0.5,0,1,0.2,1.2,1c0,0.5-0.2,1-1,1.2
	C1093,504.9,1092.5,504.9,1092,504.9z"/>
<path fill="#FF1717" d="M1074.1,513.4c-2.4,0-5.3-1.5-6.1-3.6c-0.5-1.5,0-3.1,1-4.4c0.7-1,1.7-1.5,2.7-2.2l0.5-0.2
	c0.5-0.5,1.2-0.7,1.7-1.2c-0.7,0-1.5-0.5-1.9-1c-0.7-0.7-1-1.5-0.7-2.4c0.2-0.7,0.7-1.5,1.7-1.7s2.2,0,2.9,0.5l0.2,0.2
	c0.7-2.2,0.2-4.6-1.2-6.3c-0.7-0.7-1.5-1.5-2.4-1.9c-0.5,1-1.2,1.9-2.2,2.7c-1,0.7-2.4,0.7-3.6,0.2c-0.7-0.2-1.2-1-1.5-1.7
	c-0.2-0.7,0-1.5,0.5-1.9c0.7-1,1.9-1.5,3.1-1.7c0.7,0,1.5,0,2.2,0c0-0.2,0-0.2,0-0.5c-0.2-1.5-1.5-2.7-2.9-2.9c-0.2,0-0.7,0-1-0.2
	c-0.5,0-1,0-1.2-0.2c-1.2-0.2-2.2-1-2.4-1.9c-0.2-0.7,0-1.5,0.5-2.2c0.5-0.5,1.2-0.7,1.7-0.7s1,0.5,1,1.2c0,0.5-0.5,1-1,1v0.2
	c0,0.2,0.5,0.5,1,0.7c0.2,0,0.7,0,1,0.2c0.5,0,0.7,0,1.2,0.2c2.2,0.5,4.1,2.4,4.4,4.6c0,0.5,0,0.7,0,1.2c1.5,0.5,2.7,1.5,3.6,2.7
	c1.9,2.2,2.4,5.3,1.5,8.2c-0.2,1-0.7,1.7-1.2,2.2c0,0.5-0.2,1-0.5,1.5c-0.7,1.2-1.7,2.2-2.9,2.9l-0.5,0.2c-0.7,0.5-1.7,1-2.2,1.7
	c-0.5,0.5-1,1.7-0.7,2.4c0.5,1.2,2.7,2.2,4.4,2.2l0,0c0.5,0,1,0.7,1,1.2C1075,512.7,1074.8,513.4,1074.1,513.4L1074.1,513.4z
	 M1073.3,498.4h-0.2c0,0-0.2,0-0.2,0.2s0,0.2,0.2,0.5c0.2,0.2,0.7,0.5,1,0.2c0.2,0,0.2,0,0.5-0.2c0-0.2-0.2-0.5-0.5-0.7
	C1073.8,498.6,1073.6,498.4,1073.3,498.4z M1069,488.7c-0.2,0-0.5,0-0.7,0c-0.7,0-1.5,0.5-1.7,0.7s-0.2,0.2,0,0.5c0,0,0,0.2,0.2,0.2
	c0.5,0.2,1.2,0,1.7-0.2s1-0.7,1.2-1.5C1069.7,488.7,1069.2,488.7,1069,488.7z"/>
<g>
	<g>
		<rect x="1073.3" y="478.1" fill="#358E43" width="47" height="69.7"/>
	</g>
	<g>
		<path fill="#38823F" d="M1073.3,543.7v-65.6h43.6h3.6C1120.3,478.1,1073.3,545.8,1073.3,543.7z"/>
	</g>
	<polygon fill="#1D5F30" points="1120.3,500.1 1094.9,500.1 1085.9,490.2 1085.9,478.1 1086.9,478.1 1086.9,489.7 1095.4,499.1 
		1120.3,499.1 	"/>
	<polygon fill="#1D5F30" points="1120.3,498.2 1095.9,498.2 1087.6,489 1087.6,478.1 1088.8,478.1 1088.8,488.7 1096.3,497.2 
		1120.3,497.2 	"/>
	<polygon fill="#1D5F30" points="1120.3,496 1096.8,496 1089.6,488 1089.6,478.1 1090.5,478.1 1090.5,487.5 1097.3,495 1120.3,495 	
		"/>
	<polygon fill="#1D5F30" points="1120.3,494 1097.8,494 1091.5,486.8 1091.5,478.1 1092.5,478.1 1092.5,486.3 1098.3,493.1 
		1120.3,493.1 	"/>
	<path fill="none" stroke="#000000" stroke-width="0.11" stroke-miterlimit="10" d="M1095.9,504.9"/>
	<path fill="none" stroke="#000000" stroke-width="0.11" stroke-miterlimit="10" d="M1085.4,511.2"/>
	<path fill="none" stroke="#000000" stroke-width="0.11" stroke-miterlimit="10" d="M1106,487.7"/>
	<path fill="none" stroke="#000000" stroke-width="0.11" stroke-miterlimit="10" d="M1095.1,499.6"/>
	<path fill="none" stroke="#000000" stroke-width="0.11" stroke-miterlimit="10" d="M1103.1,505.4"/>
	<path fill="none" stroke="#000000" stroke-width="0.11" stroke-miterlimit="10" d="M1097.3,516.8"/>
	<polygon fill="#1D5F30" points="1120.3,533 1108.7,520.2 1073.3,520.2 1073.3,519.2 1109.2,519.2 1121,532.3 	"/>
	<path fill="#CECECD" d="M1087.4,522.8c-0.5,0-0.7-0.2-0.7-0.7v-2.9c0-0.5,0.2-0.7,0.7-0.7s0.7,0.2,0.7,0.7v2.9
		C1088.1,522.4,1087.9,522.8,1087.4,522.8z"/>
	<path fill="#CECECD" d="M1101.2,522.8c-0.5,0-0.7-0.2-0.7-0.7v-2.9c0-0.5,0.2-0.7,0.7-0.7s0.7,0.2,0.7,0.7v2.9
		C1101.9,522.4,1101.7,522.8,1101.2,522.8z"/>
	<path fill="#CECECD" d="M1092,522.8c-0.5,0-0.7-0.2-0.7-0.7v-2.9c0-0.5,0.2-0.7,0.7-0.7s0.7,0.2,0.7,0.7v2.9
		C1092.7,522.4,1092.2,522.8,1092,522.8z"/>
	<path fill="#CECECD" d="M1096.8,522.8c-0.5,0-0.7-0.2-0.7-0.7v-2.9c0-0.5,0.2-0.7,0.7-0.7s0.7,0.2,0.7,0.7v2.9
		C1097.6,522.4,1097.3,522.8,1096.8,522.8z"/>
	<path fill="#CECECD" d="M1087.4,537.1c-0.5,0-0.7-0.2-0.7-0.7v-2.9c0-0.5,0.2-0.7,0.7-0.7s0.7,0.2,0.7,0.7v2.9
		C1088.1,536.9,1087.6,537.1,1087.4,537.1z"/>
	<path fill="#CECECD" d="M1101.2,537.1c-0.5,0-0.7-0.2-0.7-0.7v-2.9c0-0.5,0.2-0.7,0.7-0.7s0.7,0.2,0.7,0.7v2.9
		C1101.9,536.9,1101.7,537.1,1101.2,537.1z"/>
	<path fill="#CECECD" d="M1092,537.1c-0.5,0-0.7-0.2-0.7-0.7v-2.9c0-0.5,0.2-0.7,0.7-0.7s0.7,0.2,0.7,0.7v2.9
		C1092.7,536.9,1092.2,537.1,1092,537.1z"/>
	<path fill="#CECECD" d="M1096.8,537.1c-0.5,0-0.7-0.2-0.7-0.7v-2.9c0-0.5,0.2-0.7,0.7-0.7s0.7,0.2,0.7,0.7v2.9
		C1097.6,536.9,1097.3,537.1,1096.8,537.1z"/>
	<rect x="1085.2" y="521.1" fill="#474748" width="18.2" height="13.3"/>
	<path fill="none" d="M1073.3,506.1"/>
	<path fill="none" d="M1121.3,524.8"/>
	<path fill="none" d="M1104.1,506.1"/>
	<polygon fill="#1D5F30" points="1120.5,521.6 1104.3,503.5 1073.3,503.5 1073.3,502.5 1104.8,502.5 1121.5,520.9 	"/>
	<polygon fill="#1D5F30" points="1120.5,524.5 1103.4,505.4 1073.3,505.4 1073.3,504.4 1103.8,504.4 1121.3,523.8 	"/>
	<polygon fill="#1D5F30" points="1120.3,526.7 1102.4,507.4 1073.3,507.4 1073.3,506.4 1102.9,506.4 1121,526 	"/>
	<path fill="none" stroke="#1D5F30" stroke-miterlimit="10" d="M1099.5,508.6"/>
	<path fill="none" stroke="#1D5F30" stroke-miterlimit="10" d="M1104.6,503"/>
	<rect x="1073.3" y="537.4" fill="#1D5F30" width="47" height="1"/>
	<rect x="1073.3" y="539.3" fill="#1D5F30" width="47" height="1"/>
	<rect x="1073.3" y="541.5" fill="#1D5F30" width="47" height="1"/>
	<rect x="1073.3" y="543.4" fill="#1D5F30" width="47" height="1"/>
	<g>
		<path fill="#CECECD" d="M1110.6,491.6h-2.7c-0.5,0-0.7-0.2-0.7-0.7s0.2-0.7,0.7-0.7h2.7c0.5,0,0.7,0.2,0.7,0.7
			S1111.1,491.6,1110.6,491.6z"/>
		<path fill="#CECECD" d="M1110.6,494.3h-2.7c-0.5,0-0.7-0.2-0.7-0.7s0.2-0.7,0.7-0.7h2.7c0.5,0,0.7,0.2,0.7,0.7
			S1111.1,494.3,1110.6,494.3z"/>
		<path fill="#CECECD" d="M1110.6,496.9h-2.7c-0.5,0-0.7-0.2-0.7-0.7s0.2-0.7,0.7-0.7h2.7c0.5,0,0.7,0.2,0.7,0.7
			C1111.3,496.7,1111.1,496.9,1110.6,496.9z"/>
		<path fill="#CECECD" d="M1110.6,499.6h-2.7c-0.5,0-0.7-0.2-0.7-0.7s0.2-0.7,0.7-0.7h2.7c0.5,0,0.7,0.2,0.7,0.7
			S1111.1,499.6,1110.6,499.6z"/>
		<path fill="#CECECD" d="M1110.6,502.3h-2.7c-0.5,0-0.7-0.2-0.7-0.7s0.2-0.7,0.7-0.7h2.7c0.5,0,0.7,0.2,0.7,0.7
			C1111.3,501.8,1111.1,502.3,1110.6,502.3z"/>
	</g>
	<g>
		<path fill="#CECECD" d="M1116.4,491.6h-2.7c-0.5,0-0.7-0.2-0.7-0.7s0.2-0.7,0.7-0.7h2.7c0.5,0,0.7,0.2,0.7,0.7
			C1117.2,491.4,1116.7,491.6,1116.4,491.6z"/>
		<path fill="#CECECD" d="M1116.4,494.3h-2.7c-0.5,0-0.7-0.2-0.7-0.7s0.2-0.7,0.7-0.7h2.7c0.5,0,0.7,0.2,0.7,0.7
			S1116.7,494.3,1116.4,494.3z"/>
		<path fill="#CECECD" d="M1116.4,496.9h-2.7c-0.5,0-0.7-0.2-0.7-0.7s0.2-0.7,0.7-0.7h2.7c0.5,0,0.7,0.2,0.7,0.7
			C1117.2,496.7,1116.7,496.9,1116.4,496.9z"/>
		<path fill="#CECECD" d="M1116.4,499.6h-2.7c-0.5,0-0.7-0.2-0.7-0.7s0.2-0.7,0.7-0.7h2.7c0.5,0,0.7,0.2,0.7,0.7
			S1116.7,499.6,1116.4,499.6z"/>
		<path fill="#CECECD" d="M1116.4,502.3h-2.7c-0.5,0-0.7-0.2-0.7-0.7s0.2-0.7,0.7-0.7h2.7c0.5,0,0.7,0.2,0.7,0.7
			C1117.2,501.8,1116.7,502.3,1116.4,502.3z"/>
	</g>
	<rect x="1108.7" y="489" fill="#474748" width="7.3" height="14.8"/>
	<polygon fill="#1D5F30" points="1120.3,529.9 1109.7,518.2 1073.3,518.2 1073.3,517.3 1110.1,517.3 1121,529.1 	"/>
	<path fill="#CECECD" d="M1083.3,500.8c-0.5,0-0.7-0.2-0.7-0.7v-2.9c0-0.5,0.2-0.7,0.7-0.7s0.7,0.2,0.7,0.7v2.9
		C1084,500.6,1083.8,500.8,1083.3,500.8z"/>
	<path fill="#CECECD" d="M1083,498.6h-2.4c-0.2,0-0.5-0.2-0.5-0.5s0.2-0.5,0.5-0.5h2.2c0.2,0,0.5,0.2,0.5,0.5
		S1083.3,498.6,1083,498.6z"/>
	<path fill="#CECECD" d="M1085.9,498.6h-3.1c-0.2,0-0.5-0.2-0.5-0.5s0.2-0.5,0.5-0.5h3.1c0.2,0,0.5,0.2,0.5,0.5
		S1086.2,498.6,1085.9,498.6z"/>
	<rect x="1081.1" y="492.8" fill="#474748" width="4.6" height="5.8"/>
	<ellipse fill="#5A5B5B" cx="1083.3" cy="492.8" rx="2.4" ry="1"/>
	<ellipse fill="#474748" cx="1083.3" cy="498.6" rx="2.4" ry="1"/>
	<path fill="none" stroke="#E41E26" stroke-width="0.5" stroke-linecap="round" stroke-miterlimit="10" d="M1093,512"/>
	<rect x="1088.1" y="524.1" fill="#787878" width="4.6" height="1.9"/>
	<rect x="1096.8" y="527.4" fill="#787878" width="3.4" height="3.1"/>
	<ellipse fill="#307B3C" cx="1079.6" cy="485.8" rx="1.7" ry="1.9"/>
	<ellipse fill="#307B3C" cx="1112.3" cy="533.5" rx="1.7" ry="1.9"/>
	<ellipse fill="#307B3C" cx="1084.2" cy="511.2" rx="1.7" ry="1.9"/>
	<ellipse fill="#307B3C" cx="1112.3" cy="485.8" rx="1.7" ry="1.9"/>
	<path fill="#FFFFFF" d="M1120.3,478.1v69.5h-47v-69.5L1120.3,478.1 M1121.3,477.1h-1h-47h-1.2v1v69.5v1h1h47h1v-1v-69.5v-1
		L1121.3,477.1L1121.3,477.1z"/>
</g>
<path fill="#A0A0A0" d="M1079.9,527.4l-7.7,2.4l-1.9,8l5.8,5.6l7.7-2.4l1.9-8L1079.9,527.4z M1078.2,537.4c-1.2,0-2.2-1-2.2-2.2
	s1-2.2,2.2-2.2c1.2,0,2.2,1,2.2,2.2C1080.1,536.4,1079.2,537.4,1078.2,537.4z"/>
<path fill="#A0A0A0" d="M1075.8,541.7l-5.3-0.2l-2.9,4.6l2.4,4.8l5.3,0.2l2.9-4.6L1075.8,541.7z M1074.1,546.6c-0.2,0.7-1,1.2-1.7,1
	c-0.7-0.2-1.2-1-1-1.7c0.2-0.7,1-1.2,1.7-1C1074.1,545.1,1074.3,545.8,1074.1,546.6z"/>
<g>
	
		<rect x="1082.2" y="542.6" transform="matrix(-0.688 -0.7257 0.7257 -0.688 1432.9078 1709.2897)" fill="#A0A0A0" width="3.4" height="8"/>
	
		<ellipse transform="matrix(0.688 0.7257 -0.7257 0.688 733.7193 -618.9346)" fill="#A0A0A0" cx="1086.7" cy="543.9" rx="1.7" ry="0.7"/>
	
		<line fill="none" stroke="#7A7A7A" stroke-width="0.5" stroke-linecap="round" stroke-miterlimit="10" x1="1081.6" y1="547" x2="1083.5" y2="548"/>
	
		<line fill="none" stroke="#7A7A7A" stroke-width="0.5" stroke-linecap="round" stroke-miterlimit="10" x1="1082.5" y1="546.1" x2="1084.5" y2="546.8"/>
	
		<line fill="none" stroke="#7A7A7A" stroke-width="0.5" stroke-linecap="round" stroke-miterlimit="10" x1="1083.8" y1="544.9" x2="1085.4" y2="545.6"/>
	
		<line fill="none" stroke="#7A7A7A" stroke-width="0.5" stroke-linecap="round" stroke-miterlimit="10" x1="1085" y1="543.7" x2="1086.7" y2="544.6"/>
	<path fill="#8E8E8E" d="M1084.2,551.9c-0.7,0.7-2.7,0-4.4-1.7c-1.5-1.7-2.2-3.6-1.5-4.4C1079.4,545.1,1085,551.2,1084.2,551.9z"/>
	<path fill="none" stroke="#707070" stroke-miterlimit="10" d="M1079.9,548.3c0,0,0.5,1.7,2.2,2.2"/>
</g>
<circle fill="#1E491E" cx="1248.8" cy="401.3" r="25.7"/>
<g>
	<path fill="#4D4DFF" d="M1235.5,423.1c-1.5-1.7-3.1-2.7-5.1-3.6c1.7,1.9,3.9,3.4,6.1,4.6C1236.3,423.8,1236,423.4,1235.5,423.1z"/>
	<path fill="#172E60" d="M1259,425.1c1.2-2.7,3.4-4.8,5.8-6.5c0.5-0.2,1-0.7,1.2-1.2c0.5-1-0.2-2.2-1.2-3.1c-1-0.7-1.9-1.7-1.9-2.9
		c0-1,0.7-1.9,1.2-2.7c0.7-1.5,1-2.9,1.2-4.6c0.2-1,0.2-1.9,0-2.9c-0.5-1.7-2.2-2.9-3.9-3.6c-1.9-1.2-4.1-2.4-6.1-3.4
		c-1.2-0.7-2.7-1.7-2.9-2.9c0.7-0.5,1.9-0.5,2.7-0.7c1-0.2,1.9-1,1.7-1.9c-0.2-0.5-1-1-1.2-1.5s-0.2-1.2,0.2-1.5
		c0.5-0.2,1-0.5,1.5-0.2c0.7-0.7,0.2-1.9-0.5-2.7c-0.7-0.7-1.7-1-2.7-1.5c-0.7-0.5-1.5-1.7-1-2.4c0.5,0,1.2,0.2,1.7,0
		s1.2-0.5,1.2-1.2c0.2,0,0.5-0.2,0.7-0.2c-2.7-1-5.3-1.5-8.2-1.5c-8.2,0-15.5,3.9-20.1,9.7l0,0c1-0.5,1.9-1,2.9-1.5
		c0.7,1,1.9,1.2,2.9,1.2c1.2,0,2.2-0.2,3.4-0.2s2.4,0.7,2.4,1.9c2.2-0.5,4.6,1,5.1,2.9c0.7,2.7-0.7,5.3-2.4,7.5s-3.4,4.8-2.7,7.5
		c0.2,1.7,1.5,2.9,2.4,4.1c1,1.2,1.7,2.9,1.5,4.6c-0.2,0.7-0.7,1.7-1,2.4c-0.5,1.7,0.5,3.6,1.5,5.1c-0.5,0.5-1.5,0.2-1.9,0
		c-0.7-0.2-1.2-0.7-1.9-0.7c-1,0-1.7,0.5-2.2,1.2s-0.7,1.7-1,2.4c-0.2,0.2-0.5,0.2-0.7,0.2c3.4,1.7,7.5,2.7,11.6,2.7
		c3.9,0,7.3-0.7,10.7-2.2C1259.2,424.8,1259,425.1,1259,425.1z M1256.6,403.8c-0.2,0.5-0.5,0.7-0.7,1.2c-0.7,0.5-1.9,0.7-2.4,0
		c-0.2-0.2-0.5-0.7-1-1c-0.5-0.2-1.2,0-1.7,0c-0.5-0.2-0.7-0.5-0.7-1s0-1,0-1.2c0.2-1,1-1.9,1.7-2.7c0.2-0.2,0.5-0.2,0.5-0.5
		c0.2-0.2,0.7,0,1,0.2c0.2,0.2,0.5,0.7,0.7,1c0.5,0.5,1.2,0.2,1.9,0.2c0.2,0.5-0.2,1.2-0.7,1.5c0,0.5,0.2,0.7,0.7,1
		c0.2,0.2,0.7,0.2,1,0.5C1256.6,402.8,1256.6,403.3,1256.6,403.8z"/>
</g>
<g>
	<g>
		<path fill="#6B6B6B" d="M1170.2,442c-0.5,0-0.7-0.2-1-0.5c-0.2-0.2-0.5-0.7-0.5-1c0-0.5,0.2-0.7,0.5-1c0.5-0.5,1.7-0.5,2.2,0
			c0.2,0.2,0.5,0.7,0.5,1c0,0.5-0.2,0.7-0.5,1C1170.9,441.8,1170.7,442,1170.2,442z"/>
		<path fill="#6B6B6B" d="M1169.9,458.2c-0.7,0-1.5-0.7-1.5-1.5l0,0c0-0.7,0.7-1.5,1.5-1.5l0,0c0.7,0,1.5,0.7,1.5,1.5l0,0
			C1171.6,457.5,1170.9,458.2,1169.9,458.2L1169.9,458.2L1169.9,458.2z M1170.2,452.6c-0.7,0-1.5-0.7-1.5-1.5l0,0
			c0-0.7,0.7-1.5,1.5-1.5l0,0c0.7,0,1.5,0.7,1.5,1.5l0,0C1171.6,452.2,1170.9,452.6,1170.2,452.6L1170.2,452.6L1170.2,452.6z
			 M1170.2,447.3c-0.7,0-1.5-0.7-1.5-1.5l0,0c0-0.7,0.7-1.5,1.5-1.5l0,0c0.7,0,1.5,0.7,1.5,1.5l0,0
			C1171.6,446.6,1170.9,447.3,1170.2,447.3L1170.2,447.3L1170.2,447.3z"/>
		<path fill="#6B6B6B" d="M1169.9,463.5c-0.5,0-0.7-0.2-1-0.5c-0.2-0.2-0.5-0.7-0.5-1c0-0.5,0.2-0.7,0.5-1c0.5-0.5,1.7-0.5,2.2,0
			c0.2,0.2,0.5,0.7,0.5,1c0,0.5-0.2,0.7-0.5,1C1170.8,463.3,1170.4,463.5,1169.9,463.5z"/>
	</g>
	<g>
		<path fill="#6B6B6B" d="M1169.9,463.5c-0.5,0-0.7-0.2-1-0.5s-0.5-0.7-0.5-1c0-0.5,0.2-0.7,0.5-1c0.5-0.5,1.7-0.5,2.2,0
			c0.2,0.2,0.5,0.7,0.5,1c0,0.5-0.2,0.7-0.5,1C1170.7,463.3,1170.2,463.5,1169.9,463.5z"/>
		<path fill="#6B6B6B" d="M1165.1,459.2c-0.5-0.5-0.5-1.5,0-2.2l0,0c0.5-0.5,1.5-0.5,2.2,0l0,0c0.5,0.5,0.5,1.5,0,2.2l0,0
			c-0.2,0.2-0.7,0.5-1,0.5l0,0C1165.8,459.7,1165.3,459.7,1165.1,459.2z"/>
		<path fill="#6B6B6B" d="M1162.4,456c-0.5,0-0.7-0.2-1-0.5c-0.2-0.2-0.5-0.7-0.5-1s0.2-0.7,0.5-1c0.5-0.5,1.7-0.5,2.2,0
			c0.2,0.2,0.5,0.7,0.5,1s-0.2,0.7-0.5,1C1163.1,455.8,1162.9,456,1162.4,456z"/>
	</g>
	<g>
		<path fill="#6B6B6B" d="M1170.2,463.3c-0.5,0-0.7-0.2-1-0.5c-0.2-0.2-0.5-0.7-0.5-1c0-0.5,0.2-0.7,0.5-1c0.5-0.5,1.7-0.5,2.2,0
			c0.2,0.2,0.5,0.7,0.5,1c0,0.5-0.2,0.7-0.5,1C1170.9,463.1,1170.7,463.3,1170.2,463.3z"/>
		<path fill="#6B6B6B" d="M1172.8,458.9c-0.5-0.5-0.5-1.5,0-2.2l0,0c0.5-0.5,1.5-0.5,2.2,0l0,0c0.5,0.5,0.5,1.5,0,2.2l0,0
			c-0.2,0.2-0.7,0.5-1,0.5l0,0C1173.6,459.4,1173.1,459.4,1172.8,458.9z"/>
		<path fill="#6B6B6B" d="M1177.7,455.8c-0.5,0-0.7-0.2-1-0.5c-0.2-0.2-0.5-0.7-0.5-1c0-0.5,0.2-0.7,0.5-1c0.5-0.5,1.7-0.5,2.2,0
			c0.2,0.2,0.5,0.7,0.5,1c0,0.5-0.2,0.7-0.5,1C1178.4,455.6,1177.9,455.8,1177.7,455.8z"/>
	</g>
</g>
<g>
	<path fill="#6B6B6B" d="M1169.9,442c-0.5,0-0.7-0.2-1-0.5c-0.2-0.2-0.5-0.7-0.5-1c0-0.5,0.2-0.7,0.5-1c0.5-0.5,1.7-0.5,2.2,0
		c0.2,0.2,0.5,0.7,0.5,1c0,0.5-0.2,0.7-0.5,1C1170.8,441.8,1170.4,442,1169.9,442z"/>
	<path fill="#6B6B6B" d="M1242.5,440.5c0-0.7,0.7-1.5,1.5-1.5l0,0c0.7,0,1.5,0.7,1.5,1.5l0,0c0,0.7-0.7,1.5-1.5,1.5l0,0
		C1243.3,442,1242.5,441.3,1242.5,440.5z M1237.5,440.5c0-0.7,0.7-1.5,1.5-1.5l0,0c0.7,0,1.5,0.7,1.5,1.5l0,0c0,0.7-0.7,1.5-1.5,1.5
		l0,0C1238.2,442,1237.5,441.3,1237.5,440.5z M1232.6,440.5c0-0.7,0.7-1.5,1.5-1.5l0,0c0.7,0,1.5,0.7,1.5,1.5l0,0
		c0,0.7-0.7,1.5-1.5,1.5l0,0C1233.3,442,1232.6,441.3,1232.6,440.5z M1227.8,440.5c0-0.7,0.7-1.5,1.5-1.5l0,0c0.7,0,1.5,0.7,1.5,1.5
		l0,0c0,0.7-0.7,1.5-1.5,1.5l0,0C1228.3,442,1227.8,441.3,1227.8,440.5z M1222.7,440.5c0-0.7,0.7-1.5,1.5-1.5l0,0
		c0.7,0,1.5,0.7,1.5,1.5l0,0c0,0.7-0.7,1.5-1.5,1.5l0,0C1223.4,442,1222.7,441.3,1222.7,440.5z M1217.9,440.5c0-0.7,0.7-1.5,1.5-1.5
		l0,0c0.7,0,1.5,0.7,1.5,1.5l0,0c0,0.7-0.7,1.5-1.5,1.5l0,0C1218.6,442,1217.9,441.3,1217.9,440.5z M1213,440.5
		c0-0.7,0.7-1.5,1.5-1.5l0,0c0.7,0,1.5,0.7,1.5,1.5l0,0c0,0.7-0.7,1.5-1.5,1.5l0,0C1213.5,442,1213,441.3,1213,440.5z M1207.9,440.5
		c0-0.7,0.7-1.5,1.5-1.5l0,0c0.7,0,1.5,0.7,1.5,1.5l0,0c0,0.7-0.7,1.5-1.5,1.5l0,0C1208.7,442,1207.9,441.3,1207.9,440.5z
		 M1203.1,440.5c0-0.7,0.7-1.5,1.5-1.5l0,0c0.7,0,1.5,0.7,1.5,1.5l0,0c0,0.7-0.7,1.5-1.5,1.5l0,0
		C1203.8,442,1203.1,441.3,1203.1,440.5z M1198,440.5c0-0.7,0.7-1.5,1.5-1.5l0,0c0.7,0,1.5,0.7,1.5,1.5l0,0c0,0.7-0.7,1.5-1.5,1.5
		l0,0C1198.7,442,1198,441.3,1198,440.5z M1193.2,440.5c0-0.7,0.7-1.5,1.5-1.5l0,0c0.7,0,1.5,0.7,1.5,1.5l0,0c0,0.7-0.7,1.5-1.5,1.5
		l0,0C1193.9,442,1193.2,441.3,1193.2,440.5z M1188.3,440.5c0-0.7,0.7-1.5,1.5-1.5l0,0c0.7,0,1.5,0.7,1.5,1.5l0,0
		c0,0.7-0.7,1.5-1.5,1.5l0,0C1188.8,442,1188.3,441.3,1188.3,440.5z M1183.2,440.5c0-0.7,0.7-1.5,1.5-1.5l0,0c0.7,0,1.5,0.7,1.5,1.5
		l0,0c0,0.7-0.7,1.5-1.5,1.5l0,0C1184,442,1183.2,441.3,1183.2,440.5z M1178.4,440.5c0-0.7,0.7-1.5,1.5-1.5l0,0
		c0.7,0,1.5,0.7,1.5,1.5l0,0c0,0.7-0.7,1.5-1.5,1.5l0,0C1179.1,442,1178.4,441.3,1178.4,440.5z M1173.3,440.5c0-0.7,0.7-1.5,1.5-1.5
		l0,0c0.7,0,1.5,0.7,1.5,1.5l0,0c0,0.7-0.7,1.5-1.5,1.5l0,0C1174,442,1173.3,441.3,1173.3,440.5z"/>
	<path fill="#6B6B6B" d="M1249.1,442c-0.5,0-0.7-0.2-1-0.5c-0.2-0.2-0.5-0.7-0.5-1c0-0.5,0.2-0.7,0.5-1c0.5-0.5,1.7-0.5,2.2,0
		c0.2,0.2,0.5,0.7,0.5,1c0,0.5-0.2,0.7-0.5,1C1249.8,441.8,1249.3,442,1249.1,442z"/>
</g>
<path fill="#51449B" d="M1275.5,559.4h-51.3c-2.7,0-4.6-2.4-4.6-5.3v-82.5c0-2.9,1.9-5.3,4.6-5.3h51.6c2.7,0,4.6,2.4,4.6,5.3v82.5
	C1280.1,556.7,1278.1,559.4,1275.5,559.4z"/>
<path fill="#3D3E7C" d="M1280.1,484.1v69.5c0,2.9-1.9,5.3-4.6,5.3h-51.3c-2.7,0-4.6-2.4-4.6-5.3v-28.3"/>
<g>
	<path fill="#444445" d="M1230.2,550c-1.9,0-4.4-1.9-4.4-4.6v-67.3c0-2.7,2.2-4.6,4.4-4.6h39.7c2.2,0,2.9,0,3.9,2.9v68.7
		c0,2.4-1.7,4.6-3.9,4.6h-39.7V550z"/>
	<g>
		<path fill="#161616" d="M1270.1,473.9c1.9,0,2.7,0,3.4,2.7v68.7c0,2.4-1.7,4.4-3.6,4.4h-39.7c-1.9,0-4.1-1.9-4.1-4.4V478
			c0-2.4,1.9-4.4,3.9-4.4h40.2C1269.9,473.9,1269.9,473.9,1270.1,473.9 M1270.1,473.2L1270.1,473.2h-39.9c-2.2,0-4.6,2.2-4.6,4.8
			v67.3c0,2.7,2.4,4.8,4.6,4.8h39.7c2.2,0,4.1-2.2,4.1-4.8v-68.7l0,0l0,0C1273,473.5,1272.1,473.2,1270.1,473.2L1270.1,473.2z"/>
	</g>
</g>
<g>
	<path fill="#3A3A3A" d="M1269.9,549.5h-39.7c21.5-28.1,43.1-67.3,43.1-72.9v68.7C1273.5,547.8,1271.8,549.5,1269.9,549.5z"/>
</g>
<g>
	<g>
		<path fill="#6B6B6B" d="M1249.1,442c-0.5,0-0.7-0.2-1-0.5c-0.2-0.2-0.5-0.7-0.5-1c0-0.5,0.2-0.7,0.5-1c0.5-0.5,1.7-0.5,2.2,0
			c0.2,0.2,0.5,0.7,0.5,1c0,0.5-0.2,0.7-0.5,1C1249.8,441.8,1249.3,442,1249.1,442z"/>
		<path fill="#6B6B6B" d="M1248.8,452.2c-0.7,0-1.5-0.7-1.5-1.5l0,0c0-0.7,0.7-1.5,1.5-1.5l0,0c0.7,0,1.5,0.7,1.5,1.5l0,0
			C1250.5,451.7,1249.8,452.2,1248.8,452.2L1248.8,452.2L1248.8,452.2z M1249.1,447.1c-0.7,0-1.5-0.7-1.5-1.5l0,0
			c0-0.7,0.7-1.5,1.5-1.5l0,0c0.7,0,1.5,0.7,1.5,1.5l0,0C1250.5,446.6,1249.8,447.1,1249.1,447.1L1249.1,447.1L1249.1,447.1z"/>
		<path fill="#6B6B6B" d="M1248.8,457.5c-0.5,0-0.7-0.2-1-0.5c-0.2-0.2-0.5-0.7-0.5-1c0-0.5,0.2-0.7,0.5-1c0.5-0.5,1.7-0.5,2.2,0
			c0.2,0.2,0.5,0.7,0.5,1c0,0.5-0.2,0.7-0.5,1C1249.6,457.2,1249.3,457.5,1248.8,457.5z"/>
	</g>
	<g>
		<path fill="#6B6B6B" d="M1248.8,457.5c-0.5,0-0.7-0.2-1-0.5c-0.3-0.3-0.5-0.7-0.5-1c0-0.5,0.2-0.7,0.5-1c0.5-0.5,1.7-0.5,2.2,0
			c0.2,0.2,0.5,0.7,0.5,1c0,0.5-0.2,0.7-0.5,1C1249.6,457.2,1249.1,457.5,1248.8,457.5z"/>
		<path fill="#6B6B6B" d="M1244,453.1c-0.5-0.5-0.5-1.5,0-2.2l0,0c0.5-0.5,1.5-0.5,2.2,0l0,0c0.5,0.5,0.5,1.5,0,2.2l0,0
			c-0.2,0.2-0.7,0.5-1,0.5l0,0C1244.7,453.6,1244.2,453.6,1244,453.1z"/>
		<path fill="#6B6B6B" d="M1241.3,450c-0.5,0-0.7-0.2-1-0.5c-0.2-0.2-0.5-0.7-0.5-1c0-0.5,0.2-0.7,0.5-1c0.5-0.5,1.7-0.5,2.2,0
			c0.2,0.2,0.5,0.7,0.5,1c0,0.5-0.2,0.7-0.5,1C1242.1,449.7,1241.6,450,1241.3,450z"/>
	</g>
	<g>
		<path fill="#6B6B6B" d="M1249.1,457c-0.5,0-0.7-0.2-1-0.5c-0.2-0.2-0.5-0.7-0.5-1c0-0.5,0.2-0.7,0.5-1c0.5-0.5,1.7-0.5,2.2,0
			c0.2,0.2,0.5,0.7,0.5,1c0,0.5-0.2,0.7-0.5,1C1249.8,457,1249.3,457,1249.1,457z"/>
		<path fill="#6B6B6B" d="M1251.7,452.9c-0.5-0.5-0.5-1.5,0-2.2l0,0c0.5-0.5,1.5-0.5,2.2,0l0,0c0.5,0.5,0.5,1.5,0,2.2l0,0
			c-0.2,0.2-0.7,0.5-1,0.5l0,0C1252.5,453.4,1252,453.4,1251.7,452.9z"/>
		<path fill="#6B6B6B" d="M1256.3,449.7c-0.5,0-0.7-0.2-1-0.5c-0.2-0.2-0.5-0.7-0.5-1c0-0.5,0.2-0.7,0.5-1c0.5-0.5,1.7-0.5,2.2,0
			c0.2,0.2,0.5,0.7,0.5,1c0,0.5-0.2,0.7-0.5,1C1257.3,449.5,1256.8,449.7,1256.3,449.7z"/>
	</g>
</g>
<g>
	<g>
		<path fill="#6B6B6B" d="M1249.1,441.8c-0.5,0-0.7-0.2-1-0.5c-0.2-0.2-0.5-0.7-0.5-1c0-0.5,0.2-0.7,0.5-1c0.5-0.5,1.7-0.5,2.2,0
			c0.2,0.2,0.5,0.7,0.5,1c0,0.5-0.2,0.7-0.5,1C1249.8,441.8,1249.3,441.8,1249.1,441.8z"/>
		<path fill="#6B6B6B" d="M1247.6,435.5c0-0.7,0.7-1.5,1.5-1.5l0,0c0.7,0,1.5,0.7,1.5,1.5l0,0c0,0.7-0.7,1.5-1.5,1.5l0,0
			C1248.1,436.9,1247.6,436.4,1247.6,435.5z"/>
		<path fill="#6B6B6B" d="M1249.1,432.3c-0.5,0-0.7-0.2-1-0.5c-0.2-0.2-0.5-0.7-0.5-1c0-0.5,0.2-0.7,0.5-1c0.5-0.5,1.7-0.5,2.2,0
			c0.2,0.2,0.5,0.7,0.5,1c0,0.5-0.2,0.7-0.5,1C1249.8,432.1,1249.3,432.3,1249.1,432.3z"/>
	</g>
</g>
<g>
	<rect x="1201.2" y="510.5" fill="#B56FAD" width="12.1" height="3.1"/>
	<rect x="1205.5" y="505.9" fill="#B56FAD" width="3.1" height="12.1"/>
</g>
<g>
	<path fill="#51449B" d="M1199.7,717.2h-51.3c-2.7,0-4.6-2.4-4.6-5.3v-82.5c0-2.9,1.9-5.3,4.6-5.3h51.6c2.7,0,4.6,2.4,4.6,5.3v82.5
		C1204.5,714.6,1202.4,717.2,1199.7,717.2z"/>
	<path fill="#3D3E7C" d="M1204.5,642.2v69.5c0,2.9-1.9,5.3-4.6,5.3h-51.6c-2.7,0-4.6-2.4-4.6-5.3v-28.3"/>
	<path fill="#F3F3F3" d="M1194.1,706.1h-40.4c-1.9,0-3.6-1.9-3.6-4.4v-67.3c0-2.2,1.7-4.4,3.6-4.4h40.4c1.9,0,3.6,1.9,3.6,4.4V702
		C1198,704.4,1196.3,706.1,1194.1,706.1z"/>
	<rect x="1165.6" y="711.6" fill="#34376B" width="17.7" height="1.9"/>
	<polygon fill="#FFFFFF" stroke="#D6D6D6" stroke-width="0.5" stroke-miterlimit="10" points="1144.8,631.8 1148.1,639.3 
		1149.6,631.3 1153.2,633 1150.3,629.6 1158.8,626.4 1149.6,625.5 1151.3,621.6 1148.1,623.8 1144.8,617 1144,624.3 1140.2,622.8 
		1143.1,626.2 1135.3,629.8 1143.1,630.3 1141.6,633.7 	"/>
</g>
<g>
	<rect x="1161.9" y="651.4" fill="#231F20" width="2.2" height="2.7"/>
	<rect x="1164.1" y="648.7" fill="#231F20" width="2.2" height="2.7"/>
	<rect x="1166.3" y="651.4" fill="#231F20" width="2.2" height="2.7"/>
	<rect x="1178.4" y="651.4" fill="#231F20" width="2.2" height="2.7"/>
	<rect x="1180.6" y="648.7" fill="#231F20" width="2.2" height="2.7"/>
	<rect x="1183" y="651.4" fill="#231F20" width="2.2" height="2.7"/>
	<rect x="1170.2" y="666.1" fill="#231F20" width="2.2" height="2.7"/>
	<rect x="1172.3" y="666.1" fill="#231F20" width="2.2" height="2.7"/>
	<rect x="1174.5" y="666.1" fill="#231F20" width="2.2" height="2.7"/>
</g>
<g>
	<g>
		<path fill="#6B6B6B" d="M1250,589.4c-0.5,0-0.7-0.2-1-0.5c-0.2-0.2-0.5-0.7-0.5-1c0-0.5,0.2-0.7,0.5-1c0.5-0.5,1.7-0.5,2.2,0
			c0.2,0.2,0.5,0.7,0.5,1c0,0.5-0.2,0.7-0.5,1C1250.8,589.4,1250.3,589.4,1250,589.4z"/>
		<path fill="#6B6B6B" d="M1248.4,583.1c0-0.7,0.7-1.5,1.5-1.5l0,0c0.7,0,1.5,0.7,1.5,1.5l0,0c0,0.7-0.7,1.5-1.5,1.5l0,0
			C1249.1,584.6,1248.4,584.1,1248.4,583.1z M1248.4,578.3c0-0.7,0.7-1.5,1.5-1.5l0,0c0.7,0,1.5,0.7,1.5,1.5l0,0
			c0,0.7-0.7,1.5-1.5,1.5l0,0C1249.1,579.7,1248.4,579.2,1248.4,578.3z M1248.4,573.4c0-0.7,0.7-1.5,1.5-1.5l0,0
			c0.7,0,1.5,0.7,1.5,1.5l0,0c0,0.7-0.7,1.5-1.5,1.5l0,0C1249.1,574.9,1248.4,574.4,1248.4,573.4z M1248.4,568.6
			c0-0.7,0.7-1.5,1.5-1.5l0,0c0.7,0,1.5,0.7,1.5,1.5l0,0c0,0.7-0.7,1.5-1.5,1.5l0,0C1249.1,570,1248.4,569.6,1248.4,568.6z"/>
		<path fill="#6B6B6B" d="M1250,565.4c-0.5,0-0.7-0.2-1-0.5c-0.2-0.2-0.5-0.7-0.5-1c0-0.5,0.2-0.7,0.5-1c0.5-0.5,1.7-0.5,2.2,0
			c0.2,0.2,0.5,0.7,0.5,1c0,0.5-0.2,0.7-0.5,1C1250.8,565.2,1250.3,565.4,1250,565.4z"/>
	</g>
</g>
<g>
	<g>
		<path fill="#6B6B6B" d="M1173.3,589.7c-0.5,0-0.7-0.2-1-0.5c-0.2-0.2-0.5-0.7-0.5-1c0-0.5,0.2-0.7,0.5-1c0.5-0.5,1.7-0.5,2.2,0
			c0.2,0.2,0.5,0.7,0.5,1c0,0.5-0.2,0.7-0.5,1C1174,589.7,1173.6,589.7,1173.3,589.7z"/>
		<path fill="#6B6B6B" d="M1171.6,583.4c0-0.7,0.7-1.5,1.5-1.5l0,0c0.7,0,1.5,0.7,1.5,1.5l0,0c0,0.7-0.7,1.5-1.5,1.5l0,0
			C1172.3,584.8,1171.6,584.3,1171.6,583.4z M1171.6,578.5c0-0.7,0.7-1.5,1.5-1.5l0,0c0.7,0,1.5,0.7,1.5,1.5l0,0
			c0,0.7-0.7,1.5-1.5,1.5l0,0C1172.3,580,1171.6,579.5,1171.6,578.5z M1171.6,573.7c0-0.7,0.7-1.5,1.5-1.5l0,0
			c0.7,0,1.5,0.7,1.5,1.5l0,0c0,0.7-0.7,1.5-1.5,1.5l0,0C1172.3,575.1,1171.6,574.4,1171.6,573.7z M1171.6,568.8
			c0-0.7,0.7-1.5,1.5-1.5l0,0c0.7,0,1.5,0.7,1.5,1.5l0,0c0,0.7-0.7,1.5-1.5,1.5l0,0C1172.3,570.3,1171.6,569.6,1171.6,568.8z
			 M1171.6,564c0-0.7,0.7-1.5,1.5-1.5l0,0c0.7,0,1.5,0.7,1.5,1.5l0,0c0,0.7-0.7,1.5-1.5,1.5l0,0
			C1172.3,565.4,1171.6,564.7,1171.6,564z"/>
		<path fill="#6B6B6B" d="M1173.3,560.6c-0.5,0-0.7-0.2-1-0.5c-0.3-0.3-0.5-0.7-0.5-1c0-0.5,0.2-0.7,0.5-1c0.5-0.5,1.7-0.5,2.2,0
			c0.2,0.2,0.5,0.7,0.5,1c0,0.5-0.2,0.7-0.5,1C1174,560.4,1173.6,560.6,1173.3,560.6z"/>
	</g>
</g>
<g>
	<g>
		<path fill="#6B6B6B" d="M1095.1,589.4c-0.5,0-0.7-0.2-1-0.5c-0.2-0.2-0.5-0.7-0.5-1c0-0.5,0.2-0.7,0.5-1c0.5-0.5,1.7-0.5,2.2,0
			c0.2,0.2,0.5,0.7,0.5,1c0,0.5-0.2,0.7-0.5,1C1096.1,589.4,1095.6,589.4,1095.1,589.4z"/>
		<path fill="#6B6B6B" d="M1093.7,583.1c0-0.7,0.7-1.5,1.5-1.5l0,0c0.7,0,1.5,0.7,1.5,1.5l0,0c0,0.7-0.7,1.5-1.5,1.5l0,0
			C1094.4,584.8,1093.7,584.1,1093.7,583.1z M1093.7,578.5c0-0.7,0.7-1.5,1.5-1.5l0,0c0.7,0,1.5,0.7,1.5,1.5l0,0
			c0,0.7-0.7,1.5-1.5,1.5l0,0C1094.4,580,1093.7,579.2,1093.7,578.5z M1093.7,573.7c0-0.7,0.7-1.5,1.5-1.5l0,0
			c0.7,0,1.5,0.7,1.5,1.5l0,0c0,0.7-0.7,1.5-1.5,1.5l0,0C1094.4,575.1,1093.7,574.4,1093.7,573.7z M1093.7,568.8
			c0-0.7,0.7-1.5,1.5-1.5l0,0c0.7,0,1.5,0.7,1.5,1.5l0,0c0,0.7-0.7,1.5-1.5,1.5l0,0C1094.4,570.3,1093.7,569.8,1093.7,568.8z
			 M1093.7,564c0-0.7,0.7-1.5,1.5-1.5l0,0c0.7,0,1.5,0.7,1.5,1.5l0,0c0,0.7-0.7,1.5-1.5,1.5l0,0C1094.4,565.7,1093.7,565,1093.7,564
			z"/>
		<path fill="#6B6B6B" d="M1095.1,560.8c-0.5,0-0.7-0.2-1-0.5c-0.2-0.2-0.5-0.7-0.5-1c0-0.5,0.2-0.7,0.5-1c0.5-0.5,1.7-0.5,2.2,0
			c0.2,0.2,0.5,0.7,0.5,1c0,0.5-0.2,0.7-0.5,1C1096,560.6,1095.6,560.8,1095.1,560.8z"/>
	</g>
</g>
<g>
	<path fill="#6B6B6B" d="M1095.1,589.4c-0.5,0-0.7-0.2-1-0.5c-0.2-0.2-0.5-0.7-0.5-1c0-0.5,0.2-0.7,0.5-1c0.5-0.5,1.7-0.5,2.2,0
		c0.2,0.2,0.5,0.7,0.5,1c0,0.5-0.2,0.7-0.5,1C1095.9,589.4,1095.4,589.4,1095.1,589.4z"/>
	<path fill="#6B6B6B" d="M1243.3,588c0-0.7,0.7-1.5,1.5-1.5l0,0c0.7,0,1.5,0.7,1.5,1.5l0,0c0,0.7-0.7,1.5-1.5,1.5l0,0
		C1244,589.4,1243.3,588.9,1243.3,588z M1238.4,588c0-0.7,0.7-1.5,1.5-1.5l0,0c0.7,0,1.5,0.7,1.5,1.5l0,0c0,0.7-0.7,1.5-1.5,1.5l0,0
		C1238.9,589.4,1238.4,588.9,1238.4,588z M1233.3,588c0-0.7,0.7-1.5,1.5-1.5l0,0c0.7,0,1.5,0.7,1.5,1.5l0,0c0,0.7-0.7,1.5-1.5,1.5
		l0,0C1234.1,589.4,1233.3,588.9,1233.3,588z M1228.3,588c0-0.7,0.7-1.5,1.5-1.5l0,0c0.7,0,1.5,0.7,1.5,1.5l0,0
		c0,0.7-0.7,1.5-1.5,1.5l0,0C1229,589.4,1228.3,588.9,1228.3,588z M1223.4,588c0-0.7,0.7-1.5,1.5-1.5l0,0c0.7,0,1.5,0.7,1.5,1.5l0,0
		c0,0.7-0.7,1.5-1.5,1.5l0,0C1223.9,589.4,1223.4,588.9,1223.4,588z M1218.3,588c0-0.7,0.7-1.5,1.5-1.5l0,0c0.7,0,1.5,0.7,1.5,1.5
		l0,0c0,0.7-0.7,1.5-1.5,1.5l0,0C1219.1,589.4,1218.3,588.9,1218.3,588z M1213.3,588c0-0.7,0.7-1.5,1.5-1.5l0,0
		c0.7,0,1.5,0.7,1.5,1.5l0,0c0,0.7-0.7,1.5-1.5,1.5l0,0C1214,589.4,1213.3,588.9,1213.3,588z M1208.4,588c0-0.7,0.7-1.5,1.5-1.5l0,0
		c0.7,0,1.5,0.7,1.5,1.5l0,0c0,0.7-0.7,1.5-1.5,1.5l0,0C1209.1,589.4,1208.4,588.9,1208.4,588z M1203.3,588c0-0.7,0.7-1.5,1.5-1.5
		l0,0c0.7,0,1.5,0.7,1.5,1.5l0,0c0,0.7-0.7,1.5-1.5,1.5l0,0C1204.1,589.4,1203.3,588.9,1203.3,588z M1198.5,588
		c0-0.7,0.7-1.5,1.5-1.5l0,0c0.7,0,1.5,0.7,1.5,1.5l0,0c0,0.7-0.7,1.5-1.5,1.5l0,0C1199,589.4,1198.5,588.9,1198.5,588z M1193.4,588
		c0-0.7,0.7-1.5,1.5-1.5l0,0c0.7,0,1.5,0.7,1.5,1.5l0,0c0,0.7-0.7,1.5-1.5,1.5l0,0C1194.1,589.4,1193.4,588.9,1193.4,588z
		 M1188.3,588c0-0.7,0.7-1.5,1.5-1.5l0,0c0.7,0,1.5,0.7,1.5,1.5l0,0c0,0.7-0.7,1.5-1.5,1.5l0,0C1189,589.4,1188.3,588.9,1188.3,588z
		 M1183.5,588c0-0.7,0.7-1.5,1.5-1.5l0,0c0.7,0,1.5,0.7,1.5,1.5l0,0c0,0.7-0.7,1.5-1.5,1.5l0,0
		C1184.2,589.4,1183.5,588.9,1183.5,588z M1178.4,588c0-0.7,0.7-1.5,1.5-1.5l0,0c0.7,0,1.5,0.7,1.5,1.5l0,0c0,0.7-0.7,1.5-1.5,1.5
		l0,0C1179.1,589.4,1178.4,588.9,1178.4,588z M1173.3,588c0-0.7,0.7-1.5,1.5-1.5l0,0c0.7,0,1.5,0.7,1.5,1.5l0,0
		c0,0.7-0.7,1.5-1.5,1.5l0,0C1174,589.4,1173.3,588.9,1173.3,588z M1168.5,588c0-0.7,0.7-1.5,1.5-1.5l0,0c0.7,0,1.5,0.7,1.5,1.5l0,0
		c0,0.7-0.7,1.5-1.5,1.5l0,0C1169.2,589.4,1168.5,588.9,1168.5,588z M1163.4,588c0-0.7,0.7-1.5,1.5-1.5l0,0c0.7,0,1.5,0.7,1.5,1.5
		l0,0c0,0.7-0.7,1.5-1.5,1.5l0,0C1164.1,589.4,1163.4,588.9,1163.4,588z M1158.5,588c0-0.7,0.7-1.5,1.5-1.5l0,0
		c0.7,0,1.5,0.7,1.5,1.5l0,0c0,0.7-0.7,1.5-1.5,1.5l0,0C1159,589.4,1158.5,588.9,1158.5,588z M1153.5,588c0-0.7,0.7-1.5,1.5-1.5l0,0
		c0.7,0,1.5,0.7,1.5,1.5l0,0c0,0.7-0.7,1.5-1.5,1.5l0,0C1154.2,589.4,1153.5,588.9,1153.5,588z M1148.4,588c0-0.7,0.7-1.5,1.5-1.5
		l0,0c0.7,0,1.5,0.7,1.5,1.5l0,0c0,0.7-0.7,1.5-1.5,1.5l0,0C1149.1,589.4,1148.4,588.9,1148.4,588z M1143.5,588
		c0-0.7,0.7-1.5,1.5-1.5l0,0c0.7,0,1.5,0.7,1.5,1.5l0,0c0,0.7-0.7,1.5-1.5,1.5l0,0C1144.3,589.4,1143.5,588.9,1143.5,588z
		 M1138.5,588c0-0.7,0.7-1.5,1.5-1.5l0,0c0.7,0,1.5,0.7,1.5,1.5l0,0c0,0.7-0.7,1.5-1.5,1.5l0,0
		C1139.2,589.4,1138.5,588.9,1138.5,588z M1133.4,588c0-0.7,0.7-1.5,1.5-1.5l0,0c0.7,0,1.5,0.7,1.5,1.5l0,0c0,0.7-0.7,1.5-1.5,1.5
		l0,0C1134.1,589.4,1133.4,588.9,1133.4,588z M1128.5,588c0-0.7,0.7-1.5,1.5-1.5l0,0c0.7,0,1.5,0.7,1.5,1.5l0,0
		c0,0.7-0.7,1.5-1.5,1.5l0,0C1129.3,589.4,1128.5,588.9,1128.5,588z M1123.5,588c0-0.7,0.7-1.5,1.5-1.5l0,0c0.7,0,1.5,0.7,1.5,1.5
		l0,0c0,0.7-0.7,1.5-1.5,1.5l0,0C1124.2,589.4,1123.5,588.9,1123.5,588z M1118.6,588c0-0.7,0.7-1.5,1.5-1.5l0,0
		c0.7,0,1.5,0.7,1.5,1.5l0,0c0,0.7-0.7,1.5-1.5,1.5l0,0C1119.1,589.4,1118.6,588.9,1118.6,588z M1113.5,588c0-0.7,0.7-1.5,1.5-1.5
		l0,0c0.7,0,1.5,0.7,1.5,1.5l0,0c0,0.7-0.7,1.5-1.5,1.5l0,0C1114.3,589.4,1113.5,588.9,1113.5,588z M1108.4,588
		c0-0.7,0.7-1.5,1.5-1.5l0,0c0.7,0,1.5,0.7,1.5,1.5l0,0c0,0.7-0.7,1.5-1.5,1.5l0,0C1109.2,589.4,1108.4,588.9,1108.4,588z
		 M1103.6,588c0-0.7,0.7-1.5,1.5-1.5l0,0c0.7,0,1.5,0.7,1.5,1.5l0,0c0,0.7-0.7,1.5-1.5,1.5l0,0
		C1104.1,589.4,1103.6,588.9,1103.6,588z M1098.5,588c0-0.7,0.7-1.5,1.5-1.5l0,0c0.7,0,1.5,0.7,1.5,1.5l0,0c0,0.7-0.7,1.5-1.5,1.5
		l0,0C1099.2,589.4,1098.5,588.9,1098.5,588z"/>
	<path fill="#6B6B6B" d="M1249.8,589.4c-0.5,0-0.7-0.2-1-0.5c-0.2-0.2-0.5-0.7-0.5-1c0-0.5,0.2-0.7,0.5-1c0.5-0.5,1.7-0.5,2.2,0
		c0.2,0.2,0.5,0.7,0.5,1c0,0.5-0.2,0.7-0.5,1C1250.5,589.4,1250.3,589.4,1249.8,589.4z"/>
</g>
<g>
	<g>
		<path fill="#6B6B6B" d="M1173.3,589.4c-0.5,0-0.7-0.2-1-0.5c-0.2-0.2-0.5-0.7-0.5-1c0-0.5,0.2-0.7,0.5-1c0.5-0.5,1.7-0.5,2.2,0
			c0.2,0.2,0.5,0.7,0.5,1c0,0.5-0.2,0.7-0.5,1C1174,589.2,1173.6,589.4,1173.3,589.4z"/>
		<path fill="#6B6B6B" d="M1171.6,607.1c0-0.7,0.7-1.5,1.5-1.5l0,0c0.7,0,1.5,0.7,1.5,1.5l0,0c0,0.7-0.7,1.5-1.5,1.5l0,0
			C1172.3,608.8,1171.6,608,1171.6,607.1z M1171.6,602.5c0-0.7,0.7-1.5,1.5-1.5l0,0c0.7,0,1.5,0.7,1.5,1.5l0,0
			c0,0.7-0.7,1.5-1.5,1.5l0,0C1172.3,603.9,1171.6,603.2,1171.6,602.5z M1171.6,597.6c0-0.7,0.7-1.5,1.5-1.5l0,0
			c0.7,0,1.5,0.7,1.5,1.5l0,0c0,0.7-0.7,1.5-1.5,1.5l0,0C1172.3,599.1,1171.6,598.4,1171.6,597.6z M1171.6,592.8
			c0-0.7,0.7-1.5,1.5-1.5l0,0c0.7,0,1.5,0.7,1.5,1.5l0,0c0,0.7-0.7,1.5-1.5,1.5l0,0C1172.3,594.3,1171.6,593.5,1171.6,592.8z"/>
		<path fill="#6B6B6B" d="M1173.3,613.6c-0.5,0-0.7-0.2-1-0.5c-0.2-0.2-0.5-0.7-0.5-1c0-0.5,0.2-0.7,0.5-1c0.5-0.5,1.7-0.5,2.2,0
			c0.2,0.2,0.5,0.7,0.5,1c0,0.5-0.2,0.7-0.5,1C1174,613.4,1173.6,613.6,1173.3,613.6z"/>
	</g>
	<g>
		<path fill="#6B6B6B" d="M1173.1,613.6c-0.5,0-0.7-0.2-1-0.5c-0.2-0.2-0.5-0.7-0.5-1c0-0.5,0.2-0.7,0.5-1c0.5-0.5,1.7-0.5,2.2,0
			c0.2,0.2,0.5,0.7,0.5,1c0,0.5-0.2,0.7-0.5,1C1173.8,613.4,1173.6,613.6,1173.1,613.6z"/>
		<path fill="#6B6B6B" d="M1168.2,609.5c-0.5-0.5-0.5-1.5,0-2.2l0,0c0.5-0.5,1.5-0.5,2.2,0l0,0c0.5,0.5,0.5,1.5,0,2.2l0,0
			c-0.2,0.2-0.7,0.5-1,0.5l0,0C1169,609.7,1168.5,609.7,1168.2,609.5z"/>
		<path fill="#6B6B6B" d="M1165.6,606.1c-0.5,0-0.7-0.2-1-0.5c-0.2-0.2-0.5-0.7-0.5-1c0-0.5,0.2-0.7,0.5-1c0.5-0.5,1.7-0.5,2.2,0
			c0.2,0.2,0.5,0.7,0.5,1c0,0.5-0.2,0.7-0.5,1C1166.5,605.9,1166.1,606.1,1165.6,606.1z"/>
	</g>
	<g>
		<path fill="#6B6B6B" d="M1173.3,613.4c-0.5,0-0.7-0.2-1-0.5c-0.2-0.2-0.5-0.7-0.5-1c0-0.5,0.2-0.7,0.5-1c0.5-0.5,1.7-0.5,2.2,0
			c0.2,0.2,0.5,0.7,0.5,1c0,0.5-0.2,0.7-0.5,1S1173.8,613.4,1173.3,613.4z"/>
		<path fill="#6B6B6B" d="M1176,609c-0.5-0.5-0.5-1.5,0-2.2l0,0c0.5-0.5,1.5-0.5,2.2,0l0,0c0.5,0.5,0.5,1.5,0,2.2l0,0
			c-0.2,0.2-0.7,0.5-1,0.5l0,0C1176.7,609.5,1176.2,609.5,1176,609z"/>
		<path fill="#6B6B6B" d="M1180.8,605.9c-0.5,0-0.7-0.2-1-0.5c-0.2-0.2-0.5-0.7-0.5-1c0-0.5,0.2-0.7,0.5-1c0.5-0.5,1.7-0.5,2.2,0
			c0.2,0.2,0.5,0.7,0.5,1c0,0.5-0.2,0.7-0.5,1C1181.5,605.6,1181.3,605.9,1180.8,605.9z"/>
	</g>
</g>
<g>
	<g>
		<path fill="#50449A" d="M1122.7,756.2l1.9-0.5c0,0.7,0.2,1.5,0.5,1.9c0.2,0.7,0.5,1.2,0.7,1.7s0.7,1,1.5,1.2
			c0.5,0.2,1.2,0.5,1.9,0.5c1.2,0,1.9-0.2,2.7-1c0.7-0.7,1-1.7,1-2.7s-0.2-1.9-1-2.9c-0.5-1-1.5-1.9-2.7-3.1l-3.9-4.4
			c-1-1-1.5-1.7-1.9-2.7c-0.5-0.7-0.7-1.7-0.7-2.7c0-1.7,0.5-3.1,1.7-4.1s2.4-1.5,4.1-1.5s2.9,0.5,4.1,1.5c1,1,1.7,2.4,1.9,4.1v0.2
			l-1.9,0.5V742c-0.2-1.2-0.7-2.4-1.5-3.1c-0.7-0.7-1.7-1.2-2.9-1.2s-1.9,0.2-2.7,1c-0.7,0.5-1,1.5-1,2.7c0,0.7,0.2,1.5,0.5,1.9
			c0.3,0.4,1,1.5,1.5,2.2l3.9,4.1c0,0,0.2,0.5,0.7,0.7c0.5,0.5,0.7,0.7,0.7,1c0.2,0.2,0.2,0.5,0.7,0.7c0.2,0.5,0.5,0.7,0.7,1
			c0.2,0.3,0.2,0.5,0.5,1c0.2,0.5,0.5,0.7,0.5,1s0.2,0.7,0.2,1c0,0.5,0,0.7,0,1.2c0,1.9-0.5,3.4-1.7,4.4c-1.2,1-2.7,1.5-4.4,1.5
			c-1,0-1.7-0.2-2.4-0.5c-0.7-0.2-1.5-0.7-1.9-1.5c-0.5-0.7-1-1.2-1.2-2.2C1123,758.1,1122.7,757.2,1122.7,756.2z"/>
		<path fill="#50449A" d="M1138,754v-1c0-0.7,0-1.5,0-1.9c0-0.5,0-1,0-1.7s0.2-1.2,0.2-1.7s0.2-1,0.5-1.5c0.2-0.5,0.5-1,0.7-1.2
			s0.7-0.5,1.2-0.7s1-0.2,1.7-0.2s1.2,0,1.7,0.2s1,0.5,1.2,0.7s0.7,0.7,0.7,1.2c0.2,0.5,0.5,1,0.5,1.5s0.2,1,0.2,1.7s0,1.2,0,1.7
			s0,1,0,1.9v1c0,0.7,0,1.2,0,1.5s0,0.7,0,1.5c0,0.7,0,1,0,1.5c0,0.2-0.2,0.7-0.2,1.2s-0.2,1-0.5,1.2c-0.3,0.2-0.2,0.5-0.5,1
			c-0.2,0.2-0.5,0.5-0.7,0.7s-0.7,0.2-1.2,0.5c-0.5,0-1,0.2-1.5,0.2s-1,0-1.5-0.2c-0.5,0-0.7-0.2-1.2-0.5c-0.2-0.2-0.5-0.5-0.7-0.7
			c-0.2-0.2-0.5-0.7-0.5-1c-0.2-0.2-0.2-0.7-0.5-1.2c0-0.5-0.2-1-0.2-1.2s0-0.7,0-1.5c0-0.7,0-1,0-1.5
			C1138,755.2,1138,754.7,1138,754z M1140.2,753v1c0,2.9,0.2,4.8,0.5,5.8c0.2,1,1,1.7,1.9,1.7c1,0,1.7-0.5,1.9-1.7
			c0.2-1.2,0.5-2.9,0.5-5.8v-1c0-1,0-1.7,0-2.4s0-1.2-0.2-1.9c0-0.5-0.2-1-0.2-1.5c0-0.2-0.2-0.7-0.5-1c-0.3-0.3-0.5-0.5-0.7-0.5
			s-0.5-0.2-1-0.2s-0.7,0-1,0.2c-0.2,0-0.5,0.2-0.7,0.5c-0.2,0.2-0.2,0.5-0.5,1c0,0.2-0.2,0.7-0.2,1.5s0,1.2-0.2,1.9
			C1140.2,751.3,1140.2,752.1,1140.2,753z"/>
		<path fill="#50449A" d="M1151.5,762.5v-18.2h2.2v1.7c1.2-1.5,2.4-2.2,3.9-2.2c0.5,0,1.2,0.2,1.7,0.5c0.5,0.5,1,1,1.2,1.5
			c0.5-0.7,1.2-1.2,1.9-1.5c0.7-0.2,1.2-0.5,1.9-0.5c1,0,1.7,0.2,2.4,1c0.7,0.7,1,1.5,1,2.4v15h-2.2v-14.5c0-0.7-0.2-1.2-0.5-1.7
			c-0.2-0.2-0.7-0.5-1.2-0.5c-1,0-1.9,0.5-2.9,1.5v15.2h-2.2v-14.5c0-1.5-0.7-2.2-1.9-2.2c-0.5,0-1,0.2-1.7,0.5
			c-0.5,0.2-1,0.7-1.5,1.2v15h-2.1V762.5z"/>
		<path fill="#50449A" d="M1171.9,754.3v-2.4c0-1.2,0-2.4,0.2-3.1c0.2-1,0.5-1.7,0.7-2.2s0.7-1,1-1.2c0.5-0.2,1-0.5,1.2-0.7
			c0.5,0,1-0.2,1.7-0.2c1.7,0,2.7,0.5,3.4,1.7s1,2.9,1,5.3c0,0.7,0,1.5,0,1.9h-7v2.7c0,1.2,0,2.2,0.2,2.9c0,0.7,0.2,1.2,0.5,1.7
			c0.3,0.5,0.5,0.7,0.7,0.7c0.2,0.2,0.7,0.2,1.2,0.2c0.7,0,1.2-0.2,1.7-1s0.7-1.7,0.7-3.4h2.2c0,0.7-0.2,1.2-0.2,1.9
			c0,0.5-0.2,1-0.5,1.7c-0.2,0.5-0.5,1-0.7,1.2s-0.7,0.7-1.2,1s-1,0.2-1.7,0.2c-1.2,0-2.2-0.2-2.9-0.7s-1.2-1.5-1.5-2.7
			S1171.9,756.4,1171.9,754.3z M1174,751.8h4.8c0-0.5,0-0.7,0-1.2s0-0.7,0-1.2s0-0.7,0-1.2s0-0.7-0.2-1s-0.2-0.7-0.5-1
			s-0.2-0.5-0.7-0.5c-0.2-0.2-0.5-0.2-1-0.2s-1,0-1.5,0.2c-0.2,0.2-0.7,0.5-0.7,0.7c-0.2,0.2-0.2,0.7-0.5,1.5c0,0.7-0.2,1.2-0.2,1.7
			C1174,750.1,1174,750.9,1174,751.8z"/>
		<path fill="#50449A" d="M1184.7,754v-1c0-0.7,0-1.5,0-1.9c0-0.5,0-1,0-1.7s0.2-1.2,0.2-1.7s0.2-1,0.5-1.5c0.2-0.5,0.5-1,0.7-1.2
			c0.2-0.2,0.7-0.5,1.2-0.7s1-0.2,1.7-0.2c0.7,0,1.2,0,1.7,0.2s1,0.5,1.2,0.7c0.2,0.2,0.7,0.7,0.7,1.2c0.2,0.5,0.5,1,0.5,1.5
			s0.2,1,0.2,1.7s0,1.2,0,1.7s0,1,0,1.9v1c0,0.7,0,1.2,0,1.5s0,0.7,0,1.5c0,0.7,0,1,0,1.5s-0.2,0.7-0.2,1.2s-0.2,1-0.5,1.2
			c-0.2,0.2-0.2,0.5-0.5,1c-0.2,0.2-0.5,0.5-0.7,0.7c-0.2,0.2-0.7,0.2-1.2,0.5c-0.5,0-1,0.2-1.5,0.2s-1,0-1.5-0.2
			c-0.5,0-0.7-0.2-1.2-0.5s-0.5-0.5-0.7-0.7s-0.5-0.7-0.5-1c-0.2-0.2-0.2-0.7-0.5-1.2c0-0.5-0.2-1-0.2-1.2s0-0.7,0-1.5
			c0-0.7,0-1,0-1.5C1184.7,755.2,1184.7,754.7,1184.7,754z M1186.9,753v1c0,2.9,0.2,4.8,0.5,5.8c0.2,1,1,1.7,1.9,1.7
			c1,0,1.7-0.5,1.9-1.7s0.5-2.9,0.5-5.8v-1c0-1,0-1.7,0-2.4s0-1.2-0.2-1.9c0-0.5-0.2-1-0.2-1.5c0-0.2-0.2-0.7-0.5-1
			c-0.2-0.2-0.5-0.5-0.7-0.5c-0.2,0-0.5-0.2-1-0.2s-0.7,0-1,0.2c-0.2,0-0.5,0.2-0.7,0.5s-0.2,0.5-0.5,1c0,0.2-0.2,0.7-0.2,1.5
			s0,1.2-0.2,1.9C1187.1,751.3,1186.9,752.1,1186.9,753z"/>
		<path fill="#50449A" d="M1198.2,762.5v-18.2h2.2v1.7c0.5-0.7,1-1.2,1.7-1.7c0.7-0.2,1.5-0.5,2.2-0.5c1,0,1.7,0.5,2.4,1.2
			s1,1.7,1,3.1v14.3h-2.2v-14.3c0-1-0.2-1.5-0.5-1.9c-0.2-0.5-0.7-0.7-1.5-0.7c-0.5,0-1,0.2-1.5,0.5c-0.5,0.2-1,0.7-1.5,1.5v15
			L1198.2,762.5L1198.2,762.5z"/>
		<path fill="#50449A" d="M1211.6,754.3v-2.4c0-1.2,0-2.4,0.2-3.1c0.2-1,0.5-1.7,0.7-2.2s0.7-1,1-1.2c0.5-0.2,1-0.5,1.2-0.7
			c0.5,0,1-0.2,1.7-0.2c1.7,0,2.7,0.5,3.4,1.7s1,2.9,1,5.3c0,0.7,0,1.5,0,1.9h-7v2.7c0,1.2,0,2.2,0.2,2.9c0,0.7,0.2,1.2,0.5,1.7
			c0.3,0.5,0.5,0.7,0.7,0.7c0.2,0.2,0.7,0.2,1.2,0.2c0.7,0,1.2-0.2,1.7-1c0.5-0.7,0.7-1.7,0.7-3.4h2.2c0,0.7-0.2,1.2-0.2,1.9
			c0,0.5-0.2,1-0.5,1.7c-0.2,0.5-0.5,1-0.7,1.2s-0.7,0.7-1.2,1c-0.5,0.2-1,0.2-1.7,0.2c-1.2,0-2.2-0.2-2.9-0.7s-1.2-1.5-1.5-2.7
			C1211.6,758.4,1211.6,756.4,1211.6,754.3z M1213.7,751.8h4.8c0-0.5,0-0.7,0-1.2s0-0.7,0-1.2s0-0.7,0-1.2s0-0.7-0.2-1
			c-0.2-0.3-0.2-0.7-0.5-1c-0.3-0.3-0.2-0.5-0.7-0.5c-0.2-0.2-0.5-0.2-1-0.2s-1,0-1.5,0.2c-0.2,0.2-0.7,0.5-0.7,0.7
			c-0.2,0.2-0.2,0.7-0.5,1.5c0,0.7-0.2,1.2-0.2,1.7C1213.7,750.1,1213.7,750.9,1213.7,751.8z"/>
		<path fill="#50449A" d="M1152.3,799.5v-25.9h9v1.9h-6.5v9.9h4.8v1.7h-4.8v10.7h6.5v1.9h-9V799.5z"/>
		<path fill="#50449A" d="M1164.6,799.5v-25.9h2.2v25.9H1164.6z"/>
		<path fill="#50449A" d="M1170.7,795.2l1.7-0.5c0.2,0.5,0.2,1,0.5,1.2c0.2,0.5,0.5,0.7,0.7,1.2c0.2,0.5,0.7,0.7,1,1
			c0.5,0.2,0.7,0.5,1.2,0.5c0.7,0,1.5-0.2,1.7-0.7c0.5-0.5,0.5-1.2,0.5-1.9c0-1.2-1-2.7-3.1-4.4l-1.2-1.2c-1-1-1.7-1.7-2.2-2.4
			s-0.7-1.5-0.7-2.4c0-1.5,0.5-2.4,1.2-3.1c0.7-0.7,1.9-1.2,3.1-1.2c0.7,0,1.2,0.2,1.7,0.5s1,0.5,1.2,1c0.2,0.5,0.7,1,1,1.5
			c0.3,0.5,0.5,1,0.5,1.7l-1.9,0.7c0-0.5-0.2-1.2-0.5-1.7c-0.3-0.5-0.5-1-1-1.5s-1-0.7-1.5-0.7c-0.7,0-1.2,0.2-1.7,0.7
			s-0.5,1-0.5,1.7c0,0.5,0.2,1.2,0.5,1.7c0.5,0.5,1,1.2,1.7,1.7l1.5,1.2c0.5,0.5,0.7,0.7,1,1c0.3,0.3,0.5,0.5,1,1s0.7,0.7,0.7,1.2
			c0.2,0.2,0.2,0.7,0.5,1.2s0.2,1,0.2,1.5c0,1.5-0.5,2.4-1.2,3.1c-0.7,0.7-1.9,1.2-3.4,1.2c-1.2,0-2.4-0.5-3.4-1.5
			C1171.6,797.6,1170.9,796.4,1170.7,795.2z"/>
		<path fill="#50449A" d="M1183.2,791.3v-2.4c0-1.2,0-2.4,0.2-3.1c0.2-1,0.5-1.7,0.7-2.2c0.2-0.5,0.7-1,1-1.2c0.5-0.2,1-0.5,1.2-0.7
			c0.5,0,1-0.2,1.7-0.2c1.7,0,2.7,0.5,3.4,1.7c0.7,1.2,1,2.9,1,5.3c0,0.7,0,1.5,0,1.9h-7v2.7c0,1.2,0,2.2,0.2,2.9
			c0,0.7,0.2,1.2,0.5,1.7s0.5,0.7,0.7,0.7c0.2,0.2,0.7,0.2,1.2,0.2c0.7,0,1.2-0.2,1.7-1s0.7-1.7,0.7-3.4h2.2c0,0.7-0.2,1.2-0.2,1.9
			c0,0.5-0.2,1-0.5,1.7c-0.2,0.5-0.5,1-0.7,1.2c-0.2,0.2-0.7,0.7-1.2,1c-0.5,0.2-1,0.2-1.7,0.2c-1.2,0-2.2-0.2-2.9-0.7
			c-0.7-0.5-1.2-1.5-1.5-2.7C1183.2,795.4,1183.2,793.5,1183.2,791.3z M1185.4,788.9h4.8c0-0.5,0-0.7,0-1.2s0-0.7,0-1.2s0-0.7,0-1.2
			s0-0.7-0.2-1c0-0.2-0.2-0.7-0.5-1s-0.2-0.5-0.7-0.5c-0.2-0.2-0.5-0.2-1-0.2s-1,0-1.5,0.2c-0.2,0.2-0.7,0.5-0.7,0.7
			c-0.2,0.2-0.2,0.7-0.5,1.5c0,0.7-0.2,1.2-0.2,1.7C1185.4,787.2,1185.4,787.9,1185.4,788.9z"/>
	</g>
</g>
<rect x="1208.9" y="372.3" fill="#C4C4C4" width="1" height="59.1"/>
</svg>
